<svg id="icon-logo" viewBox="0 0 1033.76096 1048.66445">
  <polygon
    points="320.705 872.413 254.22 537.779 205.489 537.779 205.489 505.671 280.576 505.671 352.197 866.156 320.705 872.413" />
  <polygon
    points="888.31 1048.664 617.445 1048.664 488.908 434.835 520.335 428.253 643.526 1016.556 866.354 1016.556 986.772 707.249 806.52 707.574 806.461 675.466 1033.761 675.055 888.31 1048.664" />
  <rect x="824.72337" y="688.00504" width="32.10766" height="337.93536"
    transform="translate(-156.40337 188.43742) rotate(-11.70764)" />
  <polygon
    points="348.757 876.631 77.899 876.631 0 505.671 210.549 505.671 406.623 0 679.263 0 822.209 688.255 790.772 694.785 653.139 32.108 428.61 32.108 232.537 537.779 39.55 537.779 103.961 844.523 326.793 844.523 489.659 425.725 519.584 437.363 348.757 876.631" />
  <rect x="445.40547" y="14.40346" width="32.10791" height="421.60673"
    transform="translate(-36.33474 99.25492) rotate(-11.81486)" />
</svg>