<svg viewBox="0 0 333.23 69.76">
  <defs>
    <style>
      .noFill {
        fill: none;
      }

      .cls-2 {
        clip-path: url(#clip-path);
      }

      .cls-3 {
        fill: #d6d6d6;
      }

      .cls-4 {
        fill: none;
        stroke: #1d1d1b;
        stroke-miterlimit: 4.26;
        stroke-width: 0.32px;
      }

      .cls-5 {
        fill: #1d1d1b;
      }
    </style>
    <clipPath id="clip-path" transform="translate(-46.02 -226.12)">
      <rect class="noFill" x="20.8" y="205.54" width="439.3" height="109.75" />
    </clipPath>
  </defs>
  <g class="cls-2">
    <path class="cls-3"
      d="M46,227.09h15.8c11,0,15.79,5.13,15.79,15.6v4.17c0,7-2.23,11.43-7,13.37v.19c5.33,1.65,7.08,6.69,7.08,14.34v11.92c0,3.29.09,5.72,1.16,8.23H68c-.58-1.74-1-2.8-1-8.33v-12.4c0-6.3-1.84-8.33-6.69-8.33H56.68v29.06H46Zm14.54,29.07c4,0,6.39-1.75,6.39-7.17v-5.23c0-4.85-1.64-7-5.42-7H56.68v19.38Z"
      transform="translate(-46.02 -226.12)" />
    <path class="cls-3" d="M87.4,227.09h29.07v9.69H98.06V254.7h14.63v9.69H98.06v20.84h18.41v9.68H87.4Z"
      transform="translate(-46.02 -226.12)" />
    <path class="cls-3"
      d="M133.23,227.09h14.44l11.05,67.82H148.06l-1.94-13.46v.19H134l-1.94,13.27h-9.88Zm11.63,45.35-4.75-33.53h-.19l-4.65,33.53Z"
      transform="translate(-46.02 -226.12)" />
    <path class="cls-3"
      d="M165.4,279.22V242.79c0-10.47,5.43-16.67,15.7-16.67s15.7,6.2,15.7,16.67V250H186.72v-7.85c0-4.46-2.13-6.3-5.33-6.3s-5.33,1.84-5.33,6.3V280c0,4.46,2.13,6.2,5.33,6.2s5.33-1.74,5.33-6.2V269.63H196.8v9.59c0,10.46-5.43,16.66-15.7,16.66S165.4,289.68,165.4,279.22Z"
      transform="translate(-46.02 -226.12)" />
    <path class="cls-3" d="M205.62,227.09h10.65V254.7h11.44V227.09h10.66v67.82H227.71V264.39H216.27v30.52H205.62Z"
      transform="translate(-46.02 -226.12)" />
    <path class="cls-3"
      d="M265.79,278.83V243.17c0-10.85,5.71-17,16.18-17s16.18,6.2,16.18,17v35.66c0,10.85-5.72,17.05-16.18,17.05S265.79,289.68,265.79,278.83Zm21.7.68v-37c0-4.85-2.13-6.69-5.52-6.69s-5.52,1.84-5.52,6.69v37c0,4.84,2.13,6.68,5.52,6.68S287.49,284.35,287.49,279.51Z"
      transform="translate(-46.02 -226.12)" />
    <path class="cls-3"
      d="M307.36,278.83V227.09H318v52.52c0,4.84,2,6.58,5.42,6.58s5.43-1.74,5.43-6.58V227.09h10.27v51.74c0,10.85-5.43,17.05-15.89,17.05S307.36,289.68,307.36,278.83Z"
      transform="translate(-46.02 -226.12)" />
    <path class="cls-3" d="M357.45,236.78H346.31v-9.69h32.94v9.69H368.11v58.13H357.45Z"
      transform="translate(-46.02 -226.12)" />
    <path class="cls-4"
      d="M117.25,254.19a1.17,1.17,0,0,1-.12.52l-.21.45-.19.46a1.29,1.29,0,0,0-.06.57c-.28.32-.56.64-.84.94a5.28,5.28,0,0,0-.76,1,.57.57,0,0,0-.5.15,1.27,1.27,0,0,0-.26.49,3.14,3.14,0,0,0-1.12.65,5.84,5.84,0,0,0-.85.95,16.1,16.1,0,0,0-3,1.64,14,14,0,0,0-2.54,2.27,4.81,4.81,0,0,1,1.07.12l1.06.26,1,.24A3.41,3.41,0,0,0,111,265a3.66,3.66,0,0,0,.89.6c.34.17.67.32,1,.46a8,8,0,0,1,1,.48,3.87,3.87,0,0,1,.84.67.36.36,0,0,1,0,.11.3.3,0,0,0,0,.1.9.9,0,0,0,.13.47,1,1,0,0,1,.12.47,3.66,3.66,0,0,0-.28.52,2.24,2.24,0,0,1-.28.48,1.85,1.85,0,0,1-.38.36,1.08,1.08,0,0,1-.58.19,1.64,1.64,0,0,1-.48.8,4.85,4.85,0,0,1-.74.51l-.81.46a2.19,2.19,0,0,0-.66.59,10.32,10.32,0,0,0-1.78.59,4.74,4.74,0,0,0-1.53,1.08l-.92.13a5.82,5.82,0,0,1-.92.08,1.91,1.91,0,0,1-1-.26,1.19,1.19,0,0,1-.45-.95.91.91,0,0,1,.27-.37l.4-.3a4,4,0,0,0,.38-.32,1.13,1.13,0,0,0,.25-.41l.15,0h.19a1,1,0,0,0,.57-.15l.41-.3a3.7,3.7,0,0,1,.44-.28,1.22,1.22,0,0,1,.64-.09,1.34,1.34,0,0,1,.63-.59c.29-.13.58-.25.88-.36a6.79,6.79,0,0,0,.87-.39,1.24,1.24,0,0,0,.56-.69,1.18,1.18,0,0,0-.4-.37,2.2,2.2,0,0,0-.54-.23l-.58-.18a2.67,2.67,0,0,1-.48-.22,2.17,2.17,0,0,1-.64.1,6.36,6.36,0,0,1-1.24-.13,6.43,6.43,0,0,0-1.24-.12,3,3,0,0,0-1,.15,1.92,1.92,0,0,1-.32-.09l-.32-.12a4,4,0,0,1-1.45.28h-2a1.61,1.61,0,0,0-.49.06,2.64,2.64,0,0,0-.33,1.3,3.19,3.19,0,0,0,.15,1c.1.32.2.64.3,1a6.75,6.75,0,0,1,1.12,1.29,2.72,2.72,0,0,1,.52,1.62,1.42,1.42,0,0,1,0,.33,1.36,1.36,0,0,0-.79-.21,2.63,2.63,0,0,0-.8.12,5,5,0,0,1-.81.18l-.69-.32a4.13,4.13,0,0,1-.7-.41c-.16-.34-.32-.67-.48-1a5.71,5.71,0,0,0-.61-.9v-.12a13.29,13.29,0,0,0-.17-2.09,13.1,13.1,0,0,1-.16-2.09c0-.32,0-.65,0-1a2.3,2.3,0,0,1,.29-.93,12.26,12.26,0,0,1-.09-1.51A27.72,27.72,0,0,1,97,261a28.25,28.25,0,0,0,.18-3.21c0-.23,0-.45,0-.67s0-.44-.05-.67H97a2.79,2.79,0,0,0-.76.11l-.72.23-.76.22a3.07,3.07,0,0,1-.79.11,2.21,2.21,0,0,0-.39.24,2.11,2.11,0,0,1-.31.21,1.53,1.53,0,0,1-.34.16,1.19,1.19,0,0,1-.47,0l-.53.31a3.18,3.18,0,0,1-.56.23.73.73,0,0,0-.31.18l-.24.22-.27.18a.76.76,0,0,1-.4.09,1.05,1.05,0,0,1-.3,0,1.45,1.45,0,0,1-.32-.37l-.27-.41a2.6,2.6,0,0,0-.3-.36,1.15,1.15,0,0,0-.41-.26.34.34,0,0,0,.1-.25,2,2,0,0,1,0-.26.17.17,0,0,1,0-.12,1.66,1.66,0,0,1,.54-.87,3.67,3.67,0,0,1,.88-.51c.33-.13.65-.25,1-.35a5.87,5.87,0,0,0,.92-.36,7.63,7.63,0,0,0,2.15-.23,11.65,11.65,0,0,0,2-.74.84.84,0,0,0,.37.09l.3,0,.3-.06a1.85,1.85,0,0,1,.79-.4c.28-.06.57-.11.85-.15l.82-.13a1.57,1.57,0,0,0,.69-.32h.12a4.71,4.71,0,0,0,1.47-.24,3.5,3.5,0,0,1,1.44-.19,3.81,3.81,0,0,1,1.12-.42,7,7,0,0,1,1.19-.09.72.72,0,0,0,.36-.14.92.92,0,0,1,.51-.13h.11l.11,0a.38.38,0,0,0,.37-.19c.08-.12.26-.18.57-.18l.39,0h.36a.27.27,0,0,0,.28-.16A.22.22,0,0,1,109,251a.32.32,0,0,0,.3.11l.33,0c.15,0,.23,0,.25.12a2.81,2.81,0,0,1,1.07-.39,7.7,7.7,0,0,1,1.14-.09h.42l.46.05a1.11,1.11,0,0,1,.63-.18,2.3,2.3,0,0,1,.69.18c.31.12.64.26,1,.42a7,7,0,0,1,.94.52,1.48,1.48,0,0,1,.51.45.45.45,0,0,1,.08.27,1,1,0,0,0,.08.37l.28.68A1.8,1.8,0,0,1,117.25,254.19Zm-3.36.33a.69.69,0,0,0,0-.13.71.71,0,0,1,0-.14.92.92,0,0,0-.41-.27,4.41,4.41,0,0,0-.55-.15l-.57-.11a2,2,0,0,1-.5-.13,4.47,4.47,0,0,1-1.4.21,3.43,3.43,0,0,1-1.24-.21,1.79,1.79,0,0,1-.7.42,5,5,0,0,1-.89.23,7.47,7.47,0,0,1-.94.09h-.83a1.07,1.07,0,0,0-.43.18,1,1,0,0,1-.54.19.5.5,0,0,1-.34-.15,2.38,2.38,0,0,1-.75.36c-.33.1-.66.19-1,.26l-1,.22a7.19,7.19,0,0,0-.89.25,4.38,4.38,0,0,0-.4,1.71q0,.92,0,1.8a8.14,8.14,0,0,1-.06,1,8.14,8.14,0,0,0-.06,1,4.32,4.32,0,0,0,0,.5,1.21,1.21,0,0,0,.18.5.83.83,0,0,0-.31.47,2.23,2.23,0,0,0-.08.56,2.93,2.93,0,0,0,.06.61l.12.51a7.9,7.9,0,0,0,1.78-.36,9.35,9.35,0,0,0,1.51-.67,10.59,10.59,0,0,0,1.38-.91l1.39-1.09a1.54,1.54,0,0,0,.5-.18,1,1,0,0,1,.5-.12.88.88,0,0,1,.46-.59,1.17,1.17,0,0,0,.51-.5,2.07,2.07,0,0,0,.62-.26l.5-.33A5.31,5.31,0,0,1,110,259a1.74,1.74,0,0,1,.65-.18c.35-.41.71-.81,1.08-1.22a4.23,4.23,0,0,1,1.32-1,2.62,2.62,0,0,1,.27-.53l.29-.46a2.65,2.65,0,0,0,.23-.48A2,2,0,0,0,113.89,254.52Z"
      transform="translate(-46.02 -226.12)" />
    <path class="cls-4"
      d="M139.89,256.28v.12a.28.28,0,0,0-.21.31,3.18,3.18,0,0,1-.7.22,3.29,3.29,0,0,0-.69.23l-.68-.05h-.69c-.6,0-1.21,0-1.81.06a13.82,13.82,0,0,1-1.82,0,3.86,3.86,0,0,1-.93.38,3.64,3.64,0,0,1-1,.14,1.83,1.83,0,0,1-.64-.1,8.08,8.08,0,0,1-1.59.61l-1.74.47a15.75,15.75,0,0,0-1.68.52,4.43,4.43,0,0,0-1.41.8c0,.28-.07.56-.09.83s0,.54,0,.8a6.41,6.41,0,0,0,0,.79,3.31,3.31,0,0,0,.2.73,1.62,1.62,0,0,0,.35.09l.35,0a1,1,0,0,0,.3-.05.31.31,0,0,0,.21-.19,5.62,5.62,0,0,1,.91-.05l.91,0q.45,0,.9,0a4.19,4.19,0,0,0,.86-.15,5.39,5.39,0,0,1,1-.16l.93-.06c.3,0,.61-.05.94-.1a3.85,3.85,0,0,0,1-.32,2.22,2.22,0,0,0,.8.15,5.29,5.29,0,0,1,.8.06,1.59,1.59,0,0,1,.35.33.74.74,0,0,1,.14.43,1.44,1.44,0,0,1-.31.85,5.39,5.39,0,0,0-.48.79h-.33a5.05,5.05,0,0,0-1.41.19c-.46.13-.91.29-1.37.46s-.91.32-1.36.45a5.06,5.06,0,0,1-1.41.2c-.08,0-.12,0-.13.13a.38.38,0,0,1-.08.2,2.54,2.54,0,0,0-.46,0,5.83,5.83,0,0,0-1.33.15,5.64,5.64,0,0,1-1.3.15h-.36l-.37-.05a.71.71,0,0,1-.39.32,1.33,1.33,0,0,0-.46.26,2.43,2.43,0,0,0-.1.67l0,.8a6.07,6.07,0,0,1-.08.77,1.19,1.19,0,0,1-.24.58c0,.1.1.13.24.1s.21,0,.21.2a3.09,3.09,0,0,1-.06.58,3.05,3.05,0,0,0-.06.6,6.56,6.56,0,0,0,.14,1.26,5.19,5.19,0,0,0,.42,1.26,2.68,2.68,0,0,0,.78.95,1.9,1.9,0,0,0,1.21.38,2.34,2.34,0,0,0,.91-.18,1.55,1.55,0,0,0,.69-.61l.15,0a.8.8,0,0,1,.23,0,.85.85,0,0,0,.23,0,.84.84,0,0,0,.47-.22l.64-.54.71-.59a2.84,2.84,0,0,1,.69-.41c.14-.28.28-.56.41-.84a1.48,1.48,0,0,1,.59-.67v-.88a6.36,6.36,0,0,1,.66-.61,1.83,1.83,0,0,0,.53-.69l.28.09a1.36,1.36,0,0,0,.29,0l.32,0a1.68,1.68,0,0,0,.32-.09,3,3,0,0,1,.38.74,4.09,4.09,0,0,0,.34.77c-.18.37-.39.8-.63,1.31s-.51,1-.79,1.51a16.75,16.75,0,0,1-.89,1.44,4.88,4.88,0,0,1-.93,1,1.07,1.07,0,0,1-.39.22c-.22.16-.43.32-.61.47a3.23,3.23,0,0,0-.51.53,8.34,8.34,0,0,0-1.68.72c-.54.31-1.07.6-1.59.88a3.35,3.35,0,0,0-.79-.09,6,6,0,0,0-.73.05,6.41,6.41,0,0,1-.79,0,.55.55,0,0,0-.35-.19c-.15,0-.2-.14-.16-.32a3,3,0,0,1-1.67-.56,4.7,4.7,0,0,1-1.07-1.23,7.34,7.34,0,0,1-.72-1.58c-.18-.56-.37-1.11-.57-1.63v-.09a.16.16,0,0,1,.12-.18c.08,0,.12-.08.12-.19a.12.12,0,0,0,0-.09l-.15-.57a2.46,2.46,0,0,1-.06-.58,7.46,7.46,0,0,1,.06-.95,7.61,7.61,0,0,0,.06-1,2.77,2.77,0,0,0-.12-.85,1.35,1.35,0,0,0,.2-.4,3.29,3.29,0,0,0,.1-.53c0-.19,0-.37.05-.55a2.21,2.21,0,0,1,.07-.48l-.21-.6a1.85,1.85,0,0,1-.09-.62v-.21a7.36,7.36,0,0,0,.51-1.06l.46-1.12v-.09c0-.59,0-1.17-.06-1.76s-.06-1.17-.06-1.76V259a5.49,5.49,0,0,1,0-.58.83.83,0,0,0,.36-.33.83.83,0,0,1,.36-.33h1l.19-.31a.93.93,0,0,0,.12-.33,3.27,3.27,0,0,0,.65-.26,4.83,4.83,0,0,0,.59-.35l.77-.43a4.49,4.49,0,0,1,.7-.34,5.33,5.33,0,0,1,.74-.22,6.54,6.54,0,0,1,.91-.16.42.42,0,0,0,.32-.09,1.24,1.24,0,0,1,.23-.21l.72.11a6.06,6.06,0,0,0,.73,0,3.4,3.4,0,0,0,1.36-.27c.61,0,1.21,0,1.81,0s1.19,0,1.8,0,1.05,0,1.57.06a13.13,13.13,0,0,1,1.55.21,1.91,1.91,0,0,1,.61-.09,3.81,3.81,0,0,1,.74.08,2,2,0,0,0,.74,0,1.32,1.32,0,0,0,.17.56A1,1,0,0,1,139.89,256.28Z"
      transform="translate(-46.02 -226.12)" />
    <path class="cls-4"
      d="M196.06,270.28a1.17,1.17,0,0,1-.32.7,4,4,0,0,1-.59.45l-.29,0-.29,0a5.19,5.19,0,0,0-1.77.24,9.67,9.67,0,0,1-1.71.4,2.21,2.21,0,0,1-.56,0,1.94,1.94,0,0,0-.53.05c-.65.1-1.33.18-2.06.24s-1.46.14-2.18.23-1.44.2-2.14.33a10.31,10.31,0,0,0-2,.56l-.19-.14a.31.31,0,0,0-.21-.07,1.79,1.79,0,0,0-.57.09,1.31,1.31,0,0,1-.55.06,2.16,2.16,0,0,1-.65.26c-.23,0-.46.09-.7.12a5.12,5.12,0,0,0-.68.14,1.74,1.74,0,0,0-.63.33,1.51,1.51,0,0,0-.6-.14.5.5,0,0,1-.46-.22,4.76,4.76,0,0,1-1.47.42,8.39,8.39,0,0,1-2.75-.09,9.33,9.33,0,0,1-1.33-.35,7,7,0,0,1-1.24-.55,2.31,2.31,0,0,1-.88-.77,2,2,0,0,1-.3-.66.83.83,0,0,0-.43-.55c.06-.46.13-.92.21-1.36s.17-.9.25-1.37a14.71,14.71,0,0,0,1.15-1.09,14.94,14.94,0,0,0,1-1.21,5.19,5.19,0,0,0,1.07-.67c.34-.26.67-.53,1-.8l1-.8a7.67,7.67,0,0,1,1.08-.7.92.92,0,0,1,.26-.35c.11-.09.22-.18.35-.27a2.35,2.35,0,0,0,.33-.3A.94.94,0,0,0,176,262a7.11,7.11,0,0,0,1.85-1.61,4.94,4.94,0,0,0,1-2.18,2.65,2.65,0,0,0-1.17-.56,11.23,11.23,0,0,0-1.35-.2c-.4,0-.82,0-1.25,0a9.7,9.7,0,0,1-1.32,0,6.5,6.5,0,0,1-1.38.28l-1.41.1a10.86,10.86,0,0,0-1.38.18,4.53,4.53,0,0,0-1.32.5.78.78,0,0,1-.22,0,.85.85,0,0,0-.23,0,3.89,3.89,0,0,0-1.82.38l-1.66.8a.55.55,0,0,0-.06.19.87.87,0,0,0,.07.35.81.81,0,0,1,.08.34.09.09,0,0,0,0,.06.09.09,0,0,1,0,.06,1.58,1.58,0,0,1-.08.28l-.11.27a6.56,6.56,0,0,0-.36,1.91c0,.52,0,1,0,1.54s0,1,0,1.55a8.65,8.65,0,0,1-.3,1.82q.15.72.27,1.53t.3,1.59c.13.52.27,1,.44,1.53a6.57,6.57,0,0,0,.69,1.41s0,.07,0,.09l.12,0h.24q.15,0,.12.12a1,1,0,0,1,.09.17.29.29,0,0,0,.12.13.25.25,0,0,1,0,.24,2.63,2.63,0,0,1-.3,1.12,3.08,3.08,0,0,0-.33,1.13,2.88,2.88,0,0,1-.67.09,1.85,1.85,0,0,1-.91-.29,3.87,3.87,0,0,1-.73-.62c-.22-.24-.43-.49-.63-.74a4.17,4.17,0,0,0-.67-.66c-.14-.56-.28-1.19-.41-1.87a5.08,5.08,0,0,0-.65-1.76,1.67,1.67,0,0,0,.12-.67,4.32,4.32,0,0,0-.1-1.19,3.48,3.48,0,0,1-.08-1.2,2.56,2.56,0,0,1,.08-.67,5,5,0,0,0,.1-.66,3,3,0,0,0-.1-1,2.83,2.83,0,0,1-.11-1,1.79,1.79,0,0,1,.11-.47,1.16,1.16,0,0,1,.22-.41,1.25,1.25,0,0,1-.09-.7,7.14,7.14,0,0,1,.12-1,6.86,6.86,0,0,0,.12-.91,3.59,3.59,0,0,0,0-.47,3.43,3.43,0,0,0-.09-.44l-.27-.09a.73.73,0,0,0-.35.09,1.06,1.06,0,0,0-.29.22l-.21.19a.29.29,0,0,1-.18.08l-.14,0h-.13a.54.54,0,0,0-.23.12l-.39.26-.44.27a1.32,1.32,0,0,1-.34.17,1.23,1.23,0,0,1-.53-.23l-.36-.33a2.51,2.51,0,0,0-.35-.31.61.61,0,0,0-.45-.1,1.08,1.08,0,0,1-.11-.4,2,2,0,0,1,0-.42v-.49a1.85,1.85,0,0,1,.56-.65,4.25,4.25,0,0,1,.74-.44l.79-.36a3,3,0,0,0,.72-.46h.28a1.65,1.65,0,0,0,.95-.21,5.21,5.21,0,0,0,.77-.56l.75-.65a2.86,2.86,0,0,1,.83-.51,4.81,4.81,0,0,0,.7.25,3.68,3.68,0,0,0,.75.14,3,3,0,0,0,.82-.12,1.18,1.18,0,0,0,.67-.46,1.08,1.08,0,0,0,.26.08H166a2.19,2.19,0,0,0,.91-.13,5.85,5.85,0,0,0,.88-.41,5.39,5.39,0,0,0,1.2-.08l1.18-.22,1.18-.23a5.31,5.31,0,0,1,1.2-.08,8.17,8.17,0,0,0,2-.18,7.19,7.19,0,0,1,2-.15c.46,0,.92.06,1.37.11a9.09,9.09,0,0,0,1.38,0l.71.32a1.59,1.59,0,0,0,.81.08,10.62,10.62,0,0,1,1.75,1.9V257a5.25,5.25,0,0,1-.24,1.36,12.34,12.34,0,0,1-.5,1.32c-.19.44-.4.86-.62,1.27l-.64,1.23-3.93,3.54q-2,1.77-4.06,3.4a2.63,2.63,0,0,1-.17.54,1.91,1.91,0,0,0-.14.52.78.78,0,0,0,0,.24.83.83,0,0,1,.38.23.45.45,0,0,1,.11.44H173q.15,0,.15.12l.49,0a14.76,14.76,0,0,0,2.3-.06l2.32-.27c.78-.11,1.55-.2,2.32-.29s1.53-.15,2.3-.17a4.74,4.74,0,0,1,.57-.15,1.3,1.3,0,0,0,.55-.24h.09a.41.41,0,0,1,.32.12.51.51,0,0,0,.32.15,1,1,0,0,0,.32-.06,1.89,1.89,0,0,1,.34-.09,4.34,4.34,0,0,1,.9-.15c.31,0,.62-.05.92-.09,1.17-.1,2.33-.17,3.49-.2a17.71,17.71,0,0,0,3.45-.44.75.75,0,0,0,.42.29l.58.15c.2.05.39.11.56.17A.55.55,0,0,1,196.06,270.28Z"
      transform="translate(-46.02 -226.12)" />
    <path class="cls-4"
      d="M209.73,256.28v.12a.28.28,0,0,0-.21.31,3.18,3.18,0,0,1-.7.22,3.29,3.29,0,0,0-.69.23l-.68-.05h-.69c-.6,0-1.21,0-1.81.06a13.82,13.82,0,0,1-1.82,0,3.86,3.86,0,0,1-.93.38,3.64,3.64,0,0,1-.95.14,1.83,1.83,0,0,1-.64-.1,8.08,8.08,0,0,1-1.59.61l-1.74.47a17.31,17.31,0,0,0-1.68.52,4.54,4.54,0,0,0-1.41.8c0,.28-.07.56-.09.83s0,.54,0,.8a6.3,6.3,0,0,0,.05.79,2.81,2.81,0,0,0,.19.73,1.62,1.62,0,0,0,.35.09l.35,0a1,1,0,0,0,.3-.05.31.31,0,0,0,.21-.19,5.62,5.62,0,0,1,.91-.05l.91,0q.45,0,.9,0a4.19,4.19,0,0,0,.86-.15,5.39,5.39,0,0,1,1-.16l.93-.06c.3,0,.61-.05.94-.1a3.85,3.85,0,0,0,1-.32,2.22,2.22,0,0,0,.8.15,5.29,5.29,0,0,1,.8.06,1.59,1.59,0,0,1,.35.33.74.74,0,0,1,.14.43,1.44,1.44,0,0,1-.31.85,5.39,5.39,0,0,0-.48.79h-.33a5.05,5.05,0,0,0-1.41.19c-.46.13-.91.29-1.37.46s-.9.32-1.36.45a5.06,5.06,0,0,1-1.41.2c-.08,0-.12,0-.13.13a.38.38,0,0,1-.08.2,2.49,2.49,0,0,0-.45,0,5.85,5.85,0,0,0-1.34.15,5.64,5.64,0,0,1-1.3.15h-.36l-.37-.05a.71.71,0,0,1-.39.32,1.33,1.33,0,0,0-.46.26,2.43,2.43,0,0,0-.1.67l0,.8a6.07,6.07,0,0,1-.08.77,1.19,1.19,0,0,1-.24.58c0,.1.1.13.24.1s.21,0,.21.2a3.09,3.09,0,0,1-.06.58,3.05,3.05,0,0,0-.06.6,6.56,6.56,0,0,0,.14,1.26,5.19,5.19,0,0,0,.42,1.26,2.79,2.79,0,0,0,.78.95,1.9,1.9,0,0,0,1.21.38,2.34,2.34,0,0,0,.91-.18,1.55,1.55,0,0,0,.69-.61l.15,0a.8.8,0,0,1,.23,0,.85.85,0,0,0,.23,0,.84.84,0,0,0,.47-.22l.64-.54.71-.59a2.84,2.84,0,0,1,.69-.41c.15-.28.28-.56.41-.84a1.48,1.48,0,0,1,.59-.67v-.88a7.45,7.45,0,0,1,.65-.61,1.75,1.75,0,0,0,.54-.69l.28.09a1.36,1.36,0,0,0,.29,0l.32,0a1.68,1.68,0,0,0,.32-.09,2.73,2.73,0,0,1,.38.74,4.09,4.09,0,0,0,.34.77c-.18.37-.39.8-.63,1.31s-.51,1-.79,1.51a16.75,16.75,0,0,1-.89,1.44,4.88,4.88,0,0,1-.93,1,1.07,1.07,0,0,1-.39.22l-.61.47a3.23,3.23,0,0,0-.51.53,8.34,8.34,0,0,0-1.68.72c-.54.31-1.07.6-1.59.88a3.35,3.35,0,0,0-.79-.09,6,6,0,0,0-.73.05,6.41,6.41,0,0,1-.79,0,.55.55,0,0,0-.35-.19c-.15,0-.2-.14-.16-.32a3,3,0,0,1-1.67-.56,4.7,4.7,0,0,1-1.07-1.23,7.34,7.34,0,0,1-.72-1.58c-.18-.56-.37-1.11-.57-1.63v-.09A.16.16,0,0,1,190,273c.08,0,.12-.08.12-.19a.12.12,0,0,0,0-.09l-.15-.57a2.46,2.46,0,0,1-.06-.58,7.46,7.46,0,0,1,.06-.95,7.61,7.61,0,0,0,.06-1,2.77,2.77,0,0,0-.12-.85,1,1,0,0,0,.19-.4,2.5,2.5,0,0,0,.11-.53c0-.19,0-.37.05-.55a2.21,2.21,0,0,1,.07-.48l-.21-.6a1.85,1.85,0,0,1-.09-.62v-.21a7.36,7.36,0,0,0,.51-1.06l.46-1.12v-.09c0-.59,0-1.17-.06-1.76s-.06-1.17-.06-1.76V259a5.49,5.49,0,0,1,0-.58.83.83,0,0,0,.36-.33.8.8,0,0,1,.37-.33h1l.18-.31a.93.93,0,0,0,.12-.33,3.27,3.27,0,0,0,.65-.26,4.83,4.83,0,0,0,.59-.35l.77-.43a5,5,0,0,1,.7-.34,5.33,5.33,0,0,1,.74-.22,6.54,6.54,0,0,1,.91-.16.42.42,0,0,0,.32-.09,1.69,1.69,0,0,1,.23-.21l.72.11a6.06,6.06,0,0,0,.73,0,3.4,3.4,0,0,0,1.36-.27c.61,0,1.21,0,1.81,0s1.19,0,1.8,0,1.05,0,1.58.06a13,13,0,0,1,1.54.21,1.91,1.91,0,0,1,.61-.09,3.81,3.81,0,0,1,.74.08,2,2,0,0,0,.74,0,1.32,1.32,0,0,0,.17.56A1,1,0,0,1,209.73,256.28Z"
      transform="translate(-46.02 -226.12)" />
    <path class="cls-4"
      d="M233.89,273.34a1.24,1.24,0,0,1-.38.68,2.2,2.2,0,0,1-.68.41,3.24,3.24,0,0,1-.8.2,6.7,6.7,0,0,1-.74,0H231l-.29,0a.13.13,0,0,0-.15.15.22.22,0,0,1-.15.22l-.3-.1-.31,0c-.14,0-.28,0-.41,0a1.64,1.64,0,0,1-.38,0,.59.59,0,0,1-.34-.07.91.91,0,0,1-.19-.13l-.15-.17a.53.53,0,0,0-.22-.15.44.44,0,0,0-.35,0c-.09,0-.23,0-.41-.18a2.81,2.81,0,0,1-.62-.74c-.18-.3-.34-.6-.5-.93s-.34-.64-.52-1a4.17,4.17,0,0,0-.63-.85h-.25a.77.77,0,0,0-.75.46,1.66,1.66,0,0,1-.31-.23,1.5,1.5,0,0,0-.33-.23,13.37,13.37,0,0,1-1.45.37,7.83,7.83,0,0,1-1.52.15h-.42a1.49,1.49,0,0,1-.4-.06,2.77,2.77,0,0,0-.54.29.91.91,0,0,1-1,0c-.12,0-.18.05-.17.15s-.05.15-.2.15h-.27c-.28,0-.56,0-.83,0s-.55,0-.83,0a4.54,4.54,0,0,1-1.19-.16.63.63,0,0,1-.33.09.44.44,0,0,0-.18.2,2.68,2.68,0,0,1-.12.24.52.52,0,0,1-.17.19.39.39,0,0,1-.29,0,1,1,0,0,1-.3.58.79.79,0,0,0-.24.63,1.78,1.78,0,0,0-.55.46q-.21.27-.42.57a6.77,6.77,0,0,1-.44.58,1.56,1.56,0,0,1-.56.42.73.73,0,0,0-.09.58,3.55,3.55,0,0,1-.82.48,2.32,2.32,0,0,1-.91.22,1.22,1.22,0,0,1-1.21-.94,5.18,5.18,0,0,1,0-.66,4.54,4.54,0,0,1,.14-.66,1.93,1.93,0,0,1,.27-.58,1.07,1.07,0,0,1,.52-.38.39.39,0,0,0-.18-.37.36.36,0,0,1-.16-.38,5,5,0,0,0,1.43-1,12.72,12.72,0,0,0,1.1-1.35l1-1.44a7.59,7.59,0,0,1,1.15-1.3v-.64a4.59,4.59,0,0,0,1.18-2.18.55.55,0,0,0,.44-.3,1.5,1.5,0,0,0,.11-.58.18.18,0,0,0,.19-.14c0-.09.12-.11.26-.07a10.39,10.39,0,0,1,.61-1.34l.66-1.22a11.65,11.65,0,0,0,.6-1.29,7,7,0,0,0,.37-1.48.44.44,0,0,0,.47-.41c0-.26.07-.48.11-.69a2.66,2.66,0,0,0,.68-1c.15-.38.29-.78.41-1.19s.26-.83.41-1.24a3.42,3.42,0,0,1,.65-1.11V253a.19.19,0,0,0-.12-.2.18.18,0,0,1-.12-.19.09.09,0,0,0,0-.07,1,1,0,0,0,.54-.5,1.16,1.16,0,0,1,.55-.5,2.81,2.81,0,0,0,1.12.63,9.85,9.85,0,0,0,1.27.16,1.61,1.61,0,0,1,.44,1,6.55,6.55,0,0,0,.2,1.16c.16.65.34,1.28.53,1.9a13.31,13.31,0,0,1,.44,1.89,3.94,3.94,0,0,0,.33,1.09,4.67,4.67,0,0,1,.34,1.06,3.84,3.84,0,0,1,0,1,1.71,1.71,0,0,0,.12.92l.21.49a5.17,5.17,0,0,1,.26.69c.07.24.13.49.19.73.16.61.31,1.26.44,1.95a7.31,7.31,0,0,0,.62,1.9.84.84,0,0,0,.47.42,3,3,0,0,0,.72.17,5,5,0,0,0,.77,0l.65,0h.3a1.24,1.24,0,0,1,.37.06,1,1,0,0,1,.12.43.7.7,0,0,1-.25.57.66.66,0,0,0-.24.49.61.61,0,0,0,.12.33,1.6,1.6,0,0,0-.36,0,3.94,3.94,0,0,0-1.36.24,2.49,2.49,0,0,0,.65.87,9.23,9.23,0,0,0,.86.65,1,1,0,0,1,.64-.24,1.45,1.45,0,0,1,.68.16,1.46,1.46,0,0,0,.68.17.66.66,0,0,0,.39-.09,2.52,2.52,0,0,1,.4.56A2.2,2.2,0,0,0,233.89,273.34Zm-9.48-4.85a2,2,0,0,0-.2-.74,2.25,2.25,0,0,1-.22-.56,4.32,4.32,0,0,1-.17-.91,9.23,9.23,0,0,0-.14-.94c-.14-.69-.3-1.37-.47-2.06a15.07,15.07,0,0,0-.65-2,.61.61,0,0,0,.12-.33v-.09a1.85,1.85,0,0,1-.39-.75c-.08-.29-.16-.58-.23-.87a4.64,4.64,0,0,0-.27-.82,1.44,1.44,0,0,0-.53-.62.93.93,0,0,0-.09.42,1.61,1.61,0,0,0,0,.39,1.75,1.75,0,0,1,0,.4.92.92,0,0,0-.44.47,1.07,1.07,0,0,1-.44.5,7.78,7.78,0,0,1-.7,1.83c-.3.58-.62,1.15-1,1.71s-.65,1.14-1,1.71a9.76,9.76,0,0,0-.72,1.81,1.28,1.28,0,0,0-.53.69,2.85,2.85,0,0,0-.14.85,1.4,1.4,0,0,0,.62.17h.68a3.24,3.24,0,0,1,.64.06,1.14,1.14,0,0,1,.54.31,4.62,4.62,0,0,1,.87-.17,1.5,1.5,0,0,0,.77-.26,3.7,3.7,0,0,0,1.3.22,4.28,4.28,0,0,0,.72-.06l.68-.16a.92.92,0,0,1,.42.2.58.58,0,0,0,.46.11.48.48,0,0,0,.18-.26A.54.54,0,0,1,224.41,268.49Z"
      transform="translate(-46.02 -226.12)" />
    <path class="cls-4"
      d="M259.48,270.1a.76.76,0,0,1-.17.5,1.71,1.71,0,0,1-.4.35l-.45.27a1.73,1.73,0,0,0-.41.3.66.66,0,0,0-.17.29.34.34,0,0,1-.16.23.77.77,0,0,1-.4.18l-.44.07a3.06,3.06,0,0,0-.43.13.72.72,0,0,0-.37.28c-.95.1-1.88.24-2.8.4a16.46,16.46,0,0,1-2.83.24,4.15,4.15,0,0,0-.59.05l-.59.07-1.26.09-1.26,0c-.59,0-1.17,0-1.76-.07a14,14,0,0,1-1.72-.26,2,2,0,0,0-.49-.24l-.56-.19a3.66,3.66,0,0,1-.53-.21.78.78,0,0,1-.36-.36,2.47,2.47,0,0,1-.81-.18,3.8,3.8,0,0,1-.63-.35l-.59-.41a3.54,3.54,0,0,0-.7-.36c-.2-.29-.41-.56-.62-.84a2.79,2.79,0,0,0-.77-.68,6.92,6.92,0,0,0-.29-1.15l-.39-1.14a9.15,9.15,0,0,1-.34-1.13,5.2,5.2,0,0,1-.13-1.18,5.34,5.34,0,0,1,.12-1,11.07,11.07,0,0,1,.31-1.23,9.51,9.51,0,0,1,.47-1.17,5.91,5.91,0,0,1,.55-.88.8.8,0,0,1,.21-.15.6.6,0,0,0,.21-.18,3.29,3.29,0,0,1,.58-.5c.2-.13.41-.29.64-.47a1,1,0,0,0,.19-.27.83.83,0,0,1,.23-.27.36.36,0,0,1,.26,0,.34.34,0,0,0,.29-.07.26.26,0,0,0,.12-.21.29.29,0,0,1,.09-.21s.08,0,.18,0h.18a.78.78,0,0,0,.49-.29,1.87,1.87,0,0,1,.45-.38,1.45,1.45,0,0,1,.42-.16,1.85,1.85,0,0,0,.46-.17,4.06,4.06,0,0,1,.65-.29,6.62,6.62,0,0,0,.65-.25,1,1,0,0,0,.33-.22,1.06,1.06,0,0,1,.31-.21,3.41,3.41,0,0,1,.59-.13l.6-.1a5.41,5.41,0,0,0,.58-.12,1.3,1.3,0,0,0,.53-.28H247a3.73,3.73,0,0,0,1.06-.16,3.82,3.82,0,0,1,1.06-.15,2.61,2.61,0,0,1,.46.06,1,1,0,0,1,.54-.15,2.28,2.28,0,0,1,1,.26,2.4,2.4,0,0,0,1.06.26h.19l.24,0a1.21,1.21,0,0,0,.8.36,1.5,1.5,0,0,1,.8.27,1.47,1.47,0,0,1,.35.43,2.94,2.94,0,0,1,.23.51l.18.55a1.8,1.8,0,0,0,.24.48,2.66,2.66,0,0,1-2.75,2.4,2.14,2.14,0,0,1-.72-.11,4.08,4.08,0,0,1-.51-.23l-.47-.24a2.09,2.09,0,0,0-.55-.18,3.55,3.55,0,0,0,.43-1.31,2.88,2.88,0,0,0-.67-.21,2.34,2.34,0,0,1-.63-.21,10.71,10.71,0,0,1-1.59.29,2.55,2.55,0,0,0-1.44.65L246,259l-.32,0a2.43,2.43,0,0,0-.73.26c-.36.17-.75.37-1.16.59s-.81.44-1.18.66l-.78.46a1.82,1.82,0,0,0-.42.36l-.37.44-.36.43a1,1,0,0,1-.45.28,1.6,1.6,0,0,1-.22.58l-.33.51a9.81,9.81,0,0,1-.11,1.09,8.13,8.13,0,0,0-.07,1.1v.39a.88.88,0,0,0,.06.33,4,4,0,0,1,.5.88,1.15,1.15,0,0,0,.68.67c0,.08,0,.13,0,.15a.26.26,0,0,0-.08.15,1.51,1.51,0,0,0,.47.53l.59.39c.2.14.4.27.58.41a1.44,1.44,0,0,1,.42.55,2.47,2.47,0,0,1,.86.15,8.14,8.14,0,0,1,.79.33l.73.34a1.78,1.78,0,0,0,.71.15,2,2,0,0,0,.61-.09,9.6,9.6,0,0,0,1.59.35,12.36,12.36,0,0,0,1.62.1,16.9,16.9,0,0,0,2-.12c.66-.08,1.33-.15,2-.21a4.2,4.2,0,0,1,.69-.06,3.71,3.71,0,0,0,.67-.06,1.49,1.49,0,0,0,.8-.4,2.77,2.77,0,0,1,.75-.48,1.42,1.42,0,0,0,.78.21,2.8,2.8,0,0,0,1-.17,3.12,3.12,0,0,1,1-.16Z"
      transform="translate(-46.02 -226.12)" />
    <path class="cls-4"
      d="M281.24,261.4c-.08.2-.16.4-.24.58a2.63,2.63,0,0,0-.18.6,1.37,1.37,0,0,1-.47.23l-.53.15a3.25,3.25,0,0,0-.5.18.84.84,0,0,0-.35.32,4.48,4.48,0,0,0-.09.85,2,2,0,0,0,.18.88,2.59,2.59,0,0,0-.12.58q0,.3,0,.57a8.4,8.4,0,0,0,.24,2,9.44,9.44,0,0,1,.27,2,2,2,0,0,1,0,.33,2.14,2.14,0,0,0,0,.34.83.83,0,0,0,.49.84.6.6,0,0,0-.09.28,1.33,1.33,0,0,0,.06.42.87.87,0,0,1,0,.4c.1.2.2.37.3.53a1.42,1.42,0,0,1,.21.56,3.68,3.68,0,0,1-.51.77,2,2,0,0,0-.43.86,1.12,1.12,0,0,0-.27,0,.54.54,0,0,0-.33.09.74.74,0,0,0-.2.23,2,2,0,0,1-.17.27.52.52,0,0,1-.24.2h-.09a.44.44,0,0,1-.26,0,.46.46,0,0,0-.19,0l-.25.06a1.72,1.72,0,0,1-.33-.71,3.79,3.79,0,0,1-.09-.81,2.19,2.19,0,0,1,.12-.75,1.24,1.24,0,0,1-.41-.82,9.21,9.21,0,0,0-.16-.91c-.17-.75-.35-1.47-.56-2.18a9,9,0,0,1-.38-2.18c0-.29,0-.56,0-.82v-1.58q0-.39,0-.75a3,3,0,0,1,0-.53,3.07,3.07,0,0,0,.05-.53,1.11,1.11,0,0,0-.25-.7,14,14,0,0,0-4.07.77,38.14,38.14,0,0,0-3.83,1.62,11,11,0,0,0-.15,1.37c0,.44,0,.89,0,1.36v1.33a11.45,11.45,0,0,0,.06,1.28,1.88,1.88,0,0,0,.89,1.34,6.44,6.44,0,0,0,1.5.72,2.13,2.13,0,0,1-.18.77,2.46,2.46,0,0,1-.38.57,4.72,4.72,0,0,1-.5.5l-.55.55a1.67,1.67,0,0,0-.48-.21,2.7,2.7,0,0,0-.52-.08l-.54,0a2.91,2.91,0,0,1-.55-.13l-.66-.9c-.23-.31-.47-.61-.73-.91v-.28a4.21,4.21,0,0,0-.3-1.57,7.86,7.86,0,0,1-.46-1.55,2.62,2.62,0,0,0,.12-.54,5.35,5.35,0,0,0,0-.58c0-.4,0-.8,0-1.18a6.31,6.31,0,0,1,0-1.15h-.15a1.26,1.26,0,0,0-.57.14,5.43,5.43,0,0,0-.59.3l-.55.3a1,1,0,0,1-.44.14l-.18,0a.66.66,0,0,0-.21,0,.79.79,0,0,0-.37.12l-.47.26-.53.25a1.17,1.17,0,0,1-1.39-.24,1.45,1.45,0,0,1-.05-.45c0-.14,0-.3,0-.46a1.61,1.61,0,0,0-.09-.51,1.68,1.68,0,0,1,.56-.62,5.83,5.83,0,0,1,.73-.43l.77-.39a2,2,0,0,0,.66-.53h.19a1.65,1.65,0,0,0,.77-.18,1.41,1.41,0,0,1,.8-.16q.15-.06.21-.45l.13,0a1.76,1.76,0,0,0,1.18-.45c.22-1.26.4-2.52.54-3.79a34.94,34.94,0,0,0,.22-3.82.66.66,0,0,0-.13-.36,1.88,1.88,0,0,1-.06-.46v-.45c0-.22,0-.46,0-.7a2.82,2.82,0,0,1,.16-.73,1.21,1.21,0,0,1,.63-.18,2.87,2.87,0,0,1,.77.11,7.29,7.29,0,0,0,.75.17,1.8,1.8,0,0,1,.4.6,2.06,2.06,0,0,1,.17.68,5.51,5.51,0,0,1,0,.7c0,.23,0,.46,0,.68a5.57,5.57,0,0,0,.15,1.3,5.47,5.47,0,0,1,.15,1.25.25.25,0,0,1-.1.22c-.07.05-.11.19-.11.41a4.23,4.23,0,0,0,.06.7,4.4,4.4,0,0,1,.06.73,3.51,3.51,0,0,1-.12.88q-.12.45-.21.87c1.21-.1,2.45-.25,3.73-.45a17.32,17.32,0,0,0,3.63-1,.42.42,0,0,0,0-.18,2.19,2.19,0,0,0,0-.36,2.6,2.6,0,0,1,0-.4.72.72,0,0,1,.24-.57,16.78,16.78,0,0,1-.21-1.7c0-.57-.06-1.13-.06-1.7v-1.72c0-.57,0-1.14,0-1.7a1,1,0,0,1,.52-.15,1.22,1.22,0,0,1,.62.16,1.34,1.34,0,0,0,.68.17,1,1,0,0,0,.45-.09,1.46,1.46,0,0,1,.46.79c.08.32.15.65.21,1s.13.68.2,1a1.43,1.43,0,0,0,.44.81l0,.09a.19.19,0,0,1-.12.18.24.24,0,0,0-.12.24v.12a8,8,0,0,1,.18,1c0,.34.07.69.1,1.05s.08.69.14,1a2.89,2.89,0,0,0,.33.92,2.1,2.1,0,0,1,.4,0,1.19,1.19,0,0,1,.95.41A7.78,7.78,0,0,1,281.24,261.4Z"
      transform="translate(-46.02 -226.12)" />
    <path class="cls-4"
      d="M305.46,256.28v.12a.28.28,0,0,0-.21.31,3.35,3.35,0,0,1-.7.22,3.29,3.29,0,0,0-.69.23l-.69-.05h-.68c-.6,0-1.21,0-1.82.06a13.67,13.67,0,0,1-1.81,0,4,4,0,0,1-.93.38,3.64,3.64,0,0,1-.95.14,1.79,1.79,0,0,1-.64-.1,8.08,8.08,0,0,1-1.59.61l-1.74.47a15.75,15.75,0,0,0-1.68.52,4.43,4.43,0,0,0-1.41.8c0,.28-.07.56-.09.83s0,.54,0,.8a6.41,6.41,0,0,0,0,.79,2.84,2.84,0,0,0,.2.73,1.62,1.62,0,0,0,.35.09l.35,0a1,1,0,0,0,.3-.05.31.31,0,0,0,.21-.19,5.62,5.62,0,0,1,.91-.05l.91,0c.3,0,.6,0,.89,0a4.28,4.28,0,0,0,.87-.15,5.39,5.39,0,0,1,.95-.16l.93-.06c.3,0,.61-.05.94-.1a3.68,3.68,0,0,0,1-.32,2.28,2.28,0,0,0,.81.15,5.29,5.29,0,0,1,.8.06,1.59,1.59,0,0,1,.35.33.74.74,0,0,1,.14.43,1.51,1.51,0,0,1-.31.85,5.39,5.39,0,0,0-.48.79h-.34a5,5,0,0,0-1.4.19c-.46.13-.91.29-1.37.46s-.91.32-1.36.45a5.16,5.16,0,0,1-1.41.2.13.13,0,0,0-.14.13.31.31,0,0,1-.07.2,2.54,2.54,0,0,0-.46,0,5.77,5.77,0,0,0-1.33.15,5.64,5.64,0,0,1-1.3.15h-.37l-.36-.05a.71.71,0,0,1-.39.32,1.24,1.24,0,0,0-.46.26,2.43,2.43,0,0,0-.1.67c0,.26,0,.53,0,.8s0,.53-.08.77a1.19,1.19,0,0,1-.24.58c0,.1.1.13.24.1s.21,0,.21.2a3.09,3.09,0,0,1-.06.58,3.05,3.05,0,0,0-.06.6,6.56,6.56,0,0,0,.14,1.26,5.19,5.19,0,0,0,.42,1.26,2.76,2.76,0,0,0,.77.95,2,2,0,0,0,1.22.38,2.26,2.26,0,0,0,.9-.18,1.53,1.53,0,0,0,.7-.61l.15,0a.85.85,0,0,1,.23,0,.85.85,0,0,0,.23,0,.84.84,0,0,0,.47-.22c.19-.16.4-.33.63-.54s.47-.39.72-.59a2.84,2.84,0,0,1,.69-.41c.14-.28.28-.56.41-.84a1.48,1.48,0,0,1,.59-.67v-.88a6.25,6.25,0,0,1,.65-.61,1.65,1.65,0,0,0,.53-.69l.29.09a1.36,1.36,0,0,0,.29,0l.32,0a1.92,1.92,0,0,0,.32-.09,2.7,2.7,0,0,1,.37.74,4.13,4.13,0,0,0,.35.77c-.18.37-.39.8-.63,1.31s-.51,1-.79,1.51a16.75,16.75,0,0,1-.89,1.44,5.17,5.17,0,0,1-.93,1,1.07,1.07,0,0,1-.39.22c-.23.16-.43.32-.61.47a3.23,3.23,0,0,0-.51.53,8.68,8.68,0,0,0-1.69.72c-.53.31-1.06.6-1.59.88a3.21,3.21,0,0,0-.78-.09,5.84,5.84,0,0,0-.73.05,6.52,6.52,0,0,1-.79,0,.57.57,0,0,0-.35-.19c-.15,0-.21-.14-.16-.32a2.92,2.92,0,0,1-1.67-.56,4.93,4.93,0,0,1-1.08-1.23,7.31,7.31,0,0,1-.71-1.58c-.18-.56-.37-1.11-.57-1.63v-.09a.16.16,0,0,1,.12-.18c.08,0,.12-.08.12-.19a.12.12,0,0,0,0-.09l-.15-.57a2.46,2.46,0,0,1-.06-.58,7.46,7.46,0,0,1,.06-.95,7.61,7.61,0,0,0,.06-1,2.77,2.77,0,0,0-.12-.85,1.15,1.15,0,0,0,.19-.4,3.33,3.33,0,0,0,.11-.53c0-.19,0-.37.05-.55a2.21,2.21,0,0,1,.07-.48l-.21-.6a1.85,1.85,0,0,1-.09-.62v-.21a7.36,7.36,0,0,0,.51-1.06c.14-.36.3-.74.46-1.12v-.09c0-.59,0-1.17-.06-1.76s-.06-1.17-.06-1.76V259a5.49,5.49,0,0,1,0-.58.83.83,0,0,0,.36-.33.83.83,0,0,1,.36-.33h1l.18-.31a.79.79,0,0,0,.13-.33,3.27,3.27,0,0,0,.65-.26,4.83,4.83,0,0,0,.59-.35l.77-.43a4.49,4.49,0,0,1,.7-.34,5.33,5.33,0,0,1,.74-.22,6.54,6.54,0,0,1,.91-.16.42.42,0,0,0,.32-.09,1.52,1.52,0,0,1,.22-.21l.73.11a6,6,0,0,0,.73,0,3.44,3.44,0,0,0,1.36-.27c.61,0,1.21,0,1.81,0s1.19,0,1.8,0,1.05,0,1.57.06a13.13,13.13,0,0,1,1.55.21,1.89,1.89,0,0,1,.6-.09,3.91,3.91,0,0,1,.75.08,2,2,0,0,0,.74,0,1.32,1.32,0,0,0,.16.56A.93.93,0,0,1,305.46,256.28Z"
      transform="translate(-46.02 -226.12)" />
    <path class="cls-4"
      d="M327.44,260.61a.38.38,0,0,1-.21.4.35.35,0,0,0-.22.36.2.2,0,0,0,.06.15.22.22,0,0,1,.07.19v.12a12.2,12.2,0,0,1-1.05,3.06,13.07,13.07,0,0,1-1.59,2.39,17.33,17.33,0,0,1-2.05,2.06c-.75.65-1.57,1.32-2.43,2l-.75.61a8.62,8.62,0,0,0-.71.63l-.67.64a2.4,2.4,0,0,1-.33.14l-.36.13c-.29.12-.58.26-.9.43a2.85,2.85,0,0,0-.8.6,2.64,2.64,0,0,0-1,.18,8.64,8.64,0,0,0-.94.49.53.53,0,0,1-.26-.06l-.22-.12a.79.79,0,0,0-.26-.08,1,1,0,0,0-.35.05,4.74,4.74,0,0,0-.79-1,1.84,1.84,0,0,0-1.15-.52,1.32,1.32,0,0,0-.42-.8c-.22-.19-.45-.4-.67-.62a2.31,2.31,0,0,1-.09-.43,1.66,1.66,0,0,0-.12-.45,1.31,1.31,0,0,0-.24-.37.59.59,0,0,0-.43-.15q0-.18.15-.18c.13,0,.19,0,.19-.15a1.13,1.13,0,0,0-.06-.36,1.09,1.09,0,0,1-.07-.4.77.77,0,0,1,0-.27.85.85,0,0,1,.09-.27,15.3,15.3,0,0,1-.09-1.67,23.06,23.06,0,0,1,.22-3.23,22.92,22.92,0,0,0,.23-3.22,14.28,14.28,0,0,0-.08-1.46,7.59,7.59,0,0,0-.28-1.42c-.47.1-.93.22-1.4.35a6.22,6.22,0,0,0-1.3.53,1.7,1.7,0,0,0-.71-.26,3.88,3.88,0,0,1-.75-.17,1.93,1.93,0,0,1-.21-.88,2.24,2.24,0,0,1,.15-.81L305,256a7.29,7.29,0,0,0,1.44-.46q.71-.3,1.44-.54l.62-.15a4.49,4.49,0,0,0,.53-.15.55.55,0,0,0,.29-.35,1.07,1.07,0,0,1,.22-.44h.91a1,1,0,0,1,.39.11,12.8,12.8,0,0,1,2.19-.35c.72,0,1.47-.12,2.24-.23l.36,0,.52-.09.5-.1.31-.05c.07,0,.1,0,.1.09h.51a9.5,9.5,0,0,1,2.55.34l2.48.66c.34.28.69.56,1,.82a7.18,7.18,0,0,0,1.15.7,1.71,1.71,0,0,0,.47.77l.71.62a5.77,5.77,0,0,0,.41.83c.17.3.34.59.5.9s.31.6.43.89A2.18,2.18,0,0,1,327.44,260.61Zm-2.82.46c-.22-.46-.43-.95-.64-1.46a6.16,6.16,0,0,0-.75-1.36,9.71,9.71,0,0,1-1.11-.38,1.32,1.32,0,0,1-.77-.8.51.51,0,0,1-.21,0,.67.67,0,0,1-.49-.21,1,1,0,0,0-.48-.27l-.65-.1q-.42-.06-.87-.09l-.89-.06-.68,0-.5,0-.53,0c-.17,0-.27,0-.31.08a.62.62,0,0,1-.24.14.72.72,0,0,0-.33-.07h-.37a4.13,4.13,0,0,0-1.25.2,6.62,6.62,0,0,0-1.23.53v.12c0,.16.07.26.21.28a.26.26,0,0,1,.24.24h-.24c-.06,0-.09.09-.09.23a3.47,3.47,0,0,0,.08.67,3.51,3.51,0,0,1,.07.72,3.91,3.91,0,0,1-.06.64,1,1,0,0,1-.3.58.92.92,0,0,1,.3.72,1.9,1.9,0,0,1-.12.64,2.19,2.19,0,0,1-.3.57q-.06,1.28-.24,2.58a17.43,17.43,0,0,0-.19,2.58,10.19,10.19,0,0,0,.08,1.24,7.47,7.47,0,0,0,.26,1.21,2.6,2.6,0,0,0,.71.51c.25.13.52.25.8.37v.09a.24.24,0,0,1-.12.18.29.29,0,0,0-.12.24.11.11,0,0,0,.12.12,16.4,16.4,0,0,0,2.39-.87,8.14,8.14,0,0,0,2.09-1.4.28.28,0,0,1,.19-.09l.16,0,.2.06,0-.12a.51.51,0,0,1,.11-.33,1.62,1.62,0,0,1,.25-.28l.31-.27a1.58,1.58,0,0,0,.24-.3.53.53,0,0,0,.35-.24.4.4,0,0,1,.38-.18.69.69,0,0,1,.33-.5.73.73,0,0,0,.33-.5,4.88,4.88,0,0,0,1.08-.82,12.55,12.55,0,0,0,.88-1c.27-.37.53-.75.77-1.14s.49-.77.76-1.14v-.12a1.61,1.61,0,0,1,.16-.78A2.84,2.84,0,0,0,324.62,261.07Z"
      transform="translate(-46.02 -226.12)" />
  </g>
  <path class="cls-5"
    d="M117.25,254.19a1.17,1.17,0,0,1-.12.52l-.21.45-.19.46a1.29,1.29,0,0,0-.06.57c-.28.32-.56.64-.84.94a5.28,5.28,0,0,0-.76,1,.57.57,0,0,0-.5.15,1.27,1.27,0,0,0-.26.49,3.14,3.14,0,0,0-1.12.65,5.84,5.84,0,0,0-.85.95,16.1,16.1,0,0,0-3,1.64,14,14,0,0,0-2.54,2.27,4.81,4.81,0,0,1,1.07.12l1.06.26,1,.24A3.41,3.41,0,0,0,111,265a3.66,3.66,0,0,0,.89.6c.34.17.67.32,1,.46a8,8,0,0,1,1,.48,3.87,3.87,0,0,1,.84.67.36.36,0,0,1,0,.11.3.3,0,0,0,0,.1.9.9,0,0,0,.13.47,1,1,0,0,1,.12.47,3.66,3.66,0,0,0-.28.52,2.24,2.24,0,0,1-.28.48,1.85,1.85,0,0,1-.38.36,1.08,1.08,0,0,1-.58.19,1.64,1.64,0,0,1-.48.8,4.85,4.85,0,0,1-.74.51l-.81.46a2.19,2.19,0,0,0-.66.59,10.32,10.32,0,0,0-1.78.59,4.74,4.74,0,0,0-1.53,1.08l-.92.13a5.82,5.82,0,0,1-.92.08,1.91,1.91,0,0,1-1-.26,1.19,1.19,0,0,1-.45-.95.91.91,0,0,1,.27-.37l.4-.3a4,4,0,0,0,.38-.32,1.13,1.13,0,0,0,.25-.41l.15,0h.19a1,1,0,0,0,.57-.15l.41-.3a3.7,3.7,0,0,1,.44-.28,1.22,1.22,0,0,1,.64-.09,1.34,1.34,0,0,1,.63-.59c.29-.13.58-.25.88-.36a6.79,6.79,0,0,0,.87-.39,1.24,1.24,0,0,0,.56-.69,1.18,1.18,0,0,0-.4-.37,2.2,2.2,0,0,0-.54-.23l-.58-.18a2.67,2.67,0,0,1-.48-.22,2.17,2.17,0,0,1-.64.1,6.36,6.36,0,0,1-1.24-.13,6.43,6.43,0,0,0-1.24-.12,3,3,0,0,0-1,.15,1.92,1.92,0,0,1-.32-.09l-.32-.12a4,4,0,0,1-1.45.28h-2a1.61,1.61,0,0,0-.49.06,2.64,2.64,0,0,0-.33,1.3,3.19,3.19,0,0,0,.15,1c.1.32.2.64.3,1a6.75,6.75,0,0,1,1.12,1.29,2.72,2.72,0,0,1,.52,1.62,1.42,1.42,0,0,1,0,.33,1.36,1.36,0,0,0-.79-.21,2.63,2.63,0,0,0-.8.12,5,5,0,0,1-.81.18l-.69-.32a4.13,4.13,0,0,1-.7-.41c-.16-.34-.32-.67-.48-1a5.71,5.71,0,0,0-.61-.9v-.12a13.29,13.29,0,0,0-.17-2.09,13.1,13.1,0,0,1-.16-2.09c0-.32,0-.65,0-1a2.3,2.3,0,0,1,.29-.93,12.26,12.26,0,0,1-.09-1.51A27.72,27.72,0,0,1,97,261a28.25,28.25,0,0,0,.18-3.21c0-.23,0-.45,0-.67s0-.44-.05-.67H97a2.79,2.79,0,0,0-.76.11l-.72.23-.76.22a3.07,3.07,0,0,1-.79.11,2.21,2.21,0,0,0-.39.24,2.11,2.11,0,0,1-.31.21,1.53,1.53,0,0,1-.34.16,1.19,1.19,0,0,1-.47,0l-.53.31a3.18,3.18,0,0,1-.56.23.73.73,0,0,0-.31.18l-.24.22-.27.18a.76.76,0,0,1-.4.09,1.05,1.05,0,0,1-.3,0,1.45,1.45,0,0,1-.32-.37l-.27-.41a2.6,2.6,0,0,0-.3-.36,1.15,1.15,0,0,0-.41-.26.34.34,0,0,0,.1-.25,2,2,0,0,1,0-.26.17.17,0,0,1,0-.12,1.66,1.66,0,0,1,.54-.87,3.67,3.67,0,0,1,.88-.51c.33-.13.65-.25,1-.35a5.87,5.87,0,0,0,.92-.36,7.63,7.63,0,0,0,2.15-.23,11.65,11.65,0,0,0,2-.74.84.84,0,0,0,.37.09l.3,0,.3-.06a1.85,1.85,0,0,1,.79-.4c.28-.06.57-.11.85-.15l.82-.13a1.57,1.57,0,0,0,.69-.32h.12a4.71,4.71,0,0,0,1.47-.24,3.5,3.5,0,0,1,1.44-.19,3.81,3.81,0,0,1,1.12-.42,7,7,0,0,1,1.19-.09.72.72,0,0,0,.36-.14.92.92,0,0,1,.51-.13h.11l.11,0a.38.38,0,0,0,.37-.19c.08-.12.26-.18.57-.18l.39,0h.36a.27.27,0,0,0,.28-.16A.22.22,0,0,1,109,251a.32.32,0,0,0,.3.11l.33,0c.15,0,.23,0,.25.12a2.81,2.81,0,0,1,1.07-.39,7.7,7.7,0,0,1,1.14-.09h.42l.46.05a1.11,1.11,0,0,1,.63-.18,2.3,2.3,0,0,1,.69.18c.31.12.64.26,1,.42a7,7,0,0,1,.94.52,1.48,1.48,0,0,1,.51.45.45.45,0,0,1,.08.27,1,1,0,0,0,.08.37l.28.68A1.8,1.8,0,0,1,117.25,254.19Zm-3.36.33a.69.69,0,0,0,0-.13.71.71,0,0,1,0-.14.92.92,0,0,0-.41-.27,4.41,4.41,0,0,0-.55-.15l-.57-.11a2,2,0,0,1-.5-.13,4.47,4.47,0,0,1-1.4.21,3.43,3.43,0,0,1-1.24-.21,1.79,1.79,0,0,1-.7.42,5,5,0,0,1-.89.23,7.47,7.47,0,0,1-.94.09h-.83a1.07,1.07,0,0,0-.43.18,1,1,0,0,1-.54.19.5.5,0,0,1-.34-.15,2.38,2.38,0,0,1-.75.36c-.33.1-.66.19-1,.26l-1,.22a7.19,7.19,0,0,0-.89.25,4.38,4.38,0,0,0-.4,1.71q0,.92,0,1.8a8.14,8.14,0,0,1-.06,1,8.14,8.14,0,0,0-.06,1,4.32,4.32,0,0,0,0,.5,1.21,1.21,0,0,0,.18.5.83.83,0,0,0-.31.47,2.23,2.23,0,0,0-.08.56,2.93,2.93,0,0,0,.06.61l.12.51a7.9,7.9,0,0,0,1.78-.36,9.35,9.35,0,0,0,1.51-.67,10.59,10.59,0,0,0,1.38-.91l1.39-1.09a1.54,1.54,0,0,0,.5-.18,1,1,0,0,1,.5-.12.88.88,0,0,1,.46-.59,1.17,1.17,0,0,0,.51-.5,2.07,2.07,0,0,0,.62-.26l.5-.33A5.31,5.31,0,0,1,110,259a1.74,1.74,0,0,1,.65-.18c.35-.41.71-.81,1.08-1.22a4.23,4.23,0,0,1,1.32-1,2.62,2.62,0,0,1,.27-.53l.29-.46a2.65,2.65,0,0,0,.23-.48A2,2,0,0,0,113.89,254.52Z"
    transform="translate(-46.02 -226.12)" />
  <path class="cls-5"
    d="M139.89,256.28v.12a.28.28,0,0,0-.21.31,3.18,3.18,0,0,1-.7.22,3.29,3.29,0,0,0-.69.23l-.68-.05h-.69c-.6,0-1.21,0-1.81.06a13.82,13.82,0,0,1-1.82,0,3.86,3.86,0,0,1-.93.38,3.64,3.64,0,0,1-1,.14,1.83,1.83,0,0,1-.64-.1,8.08,8.08,0,0,1-1.59.61l-1.74.47a15.75,15.75,0,0,0-1.68.52,4.43,4.43,0,0,0-1.41.8c0,.28-.07.56-.09.83s0,.54,0,.8a6.41,6.41,0,0,0,0,.79,3.31,3.31,0,0,0,.2.73,1.62,1.62,0,0,0,.35.09l.35,0a1,1,0,0,0,.3-.05.31.31,0,0,0,.21-.19,5.62,5.62,0,0,1,.91-.05l.91,0q.45,0,.9,0a4.19,4.19,0,0,0,.86-.15,5.39,5.39,0,0,1,1-.16l.93-.06c.3,0,.61-.05.94-.1a3.85,3.85,0,0,0,1-.32,2.22,2.22,0,0,0,.8.15,5.29,5.29,0,0,1,.8.06,1.59,1.59,0,0,1,.35.33.74.74,0,0,1,.14.43,1.44,1.44,0,0,1-.31.85,5.39,5.39,0,0,0-.48.79h-.33a5.05,5.05,0,0,0-1.41.19c-.46.13-.91.29-1.37.46s-.91.32-1.36.45a5.06,5.06,0,0,1-1.41.2c-.08,0-.12,0-.13.13a.38.38,0,0,1-.08.2,2.54,2.54,0,0,0-.46,0,5.83,5.83,0,0,0-1.33.15,5.64,5.64,0,0,1-1.3.15h-.36l-.37-.05a.71.71,0,0,1-.39.32,1.33,1.33,0,0,0-.46.26,2.43,2.43,0,0,0-.1.67l0,.8a6.07,6.07,0,0,1-.08.77,1.19,1.19,0,0,1-.24.58c0,.1.1.13.24.1s.21,0,.21.2a3.09,3.09,0,0,1-.06.58,3.05,3.05,0,0,0-.06.6,6.56,6.56,0,0,0,.14,1.26,5.19,5.19,0,0,0,.42,1.26,2.68,2.68,0,0,0,.78.95,1.9,1.9,0,0,0,1.21.38,2.34,2.34,0,0,0,.91-.18,1.55,1.55,0,0,0,.69-.61l.15,0a.8.8,0,0,1,.23,0,.85.85,0,0,0,.23,0,.84.84,0,0,0,.47-.22l.64-.54.71-.59a2.84,2.84,0,0,1,.69-.41c.14-.28.28-.56.41-.84a1.48,1.48,0,0,1,.59-.67v-.88a6.36,6.36,0,0,1,.66-.61,1.83,1.83,0,0,0,.53-.69l.28.09a1.36,1.36,0,0,0,.29,0l.32,0a1.68,1.68,0,0,0,.32-.09,3,3,0,0,1,.38.74,4.09,4.09,0,0,0,.34.77c-.18.37-.39.8-.63,1.31s-.51,1-.79,1.51a16.75,16.75,0,0,1-.89,1.44,4.88,4.88,0,0,1-.93,1,1.07,1.07,0,0,1-.39.22c-.22.16-.43.32-.61.47a3.23,3.23,0,0,0-.51.53,8.34,8.34,0,0,0-1.68.72c-.54.31-1.07.6-1.59.88a3.35,3.35,0,0,0-.79-.09,6,6,0,0,0-.73.05,6.41,6.41,0,0,1-.79,0,.55.55,0,0,0-.35-.19c-.15,0-.2-.14-.16-.32a3,3,0,0,1-1.67-.56,4.7,4.7,0,0,1-1.07-1.23,7.34,7.34,0,0,1-.72-1.58c-.18-.56-.37-1.11-.57-1.63v-.09a.16.16,0,0,1,.12-.18c.08,0,.12-.08.12-.19a.12.12,0,0,0,0-.09l-.15-.57a2.46,2.46,0,0,1-.06-.58,7.46,7.46,0,0,1,.06-.95,7.61,7.61,0,0,0,.06-1,2.77,2.77,0,0,0-.12-.85,1.35,1.35,0,0,0,.2-.4,3.29,3.29,0,0,0,.1-.53c0-.19,0-.37.05-.55a2.21,2.21,0,0,1,.07-.48l-.21-.6a1.85,1.85,0,0,1-.09-.62v-.21a7.36,7.36,0,0,0,.51-1.06l.46-1.12v-.09c0-.59,0-1.17-.06-1.76s-.06-1.17-.06-1.76V259a5.49,5.49,0,0,1,0-.58.83.83,0,0,0,.36-.33.83.83,0,0,1,.36-.33h1l.19-.31a.93.93,0,0,0,.12-.33,3.27,3.27,0,0,0,.65-.26,4.83,4.83,0,0,0,.59-.35l.77-.43a4.49,4.49,0,0,1,.7-.34,5.33,5.33,0,0,1,.74-.22,6.54,6.54,0,0,1,.91-.16.42.42,0,0,0,.32-.09,1.24,1.24,0,0,1,.23-.21l.72.11a6.06,6.06,0,0,0,.73,0,3.4,3.4,0,0,0,1.36-.27c.61,0,1.21,0,1.81,0s1.19,0,1.8,0,1.05,0,1.57.06a13.13,13.13,0,0,1,1.55.21,1.91,1.91,0,0,1,.61-.09,3.81,3.81,0,0,1,.74.08,2,2,0,0,0,.74,0,1.32,1.32,0,0,0,.17.56A1,1,0,0,1,139.89,256.28Z"
    transform="translate(-46.02 -226.12)" />
  <path class="cls-5"
    d="M196.06,270.28a1.17,1.17,0,0,1-.32.7,4,4,0,0,1-.59.45l-.29,0-.29,0a5.19,5.19,0,0,0-1.77.24,9.67,9.67,0,0,1-1.71.4,2.21,2.21,0,0,1-.56,0,1.94,1.94,0,0,0-.53.05c-.65.1-1.33.18-2.06.24s-1.46.14-2.18.23-1.44.2-2.14.33a10.31,10.31,0,0,0-2,.56l-.19-.14a.31.31,0,0,0-.21-.07,1.79,1.79,0,0,0-.57.09,1.31,1.31,0,0,1-.55.06,2.16,2.16,0,0,1-.65.26c-.23,0-.46.09-.7.12a5.12,5.12,0,0,0-.68.14,1.74,1.74,0,0,0-.63.33,1.51,1.51,0,0,0-.6-.14.5.5,0,0,1-.46-.22,4.76,4.76,0,0,1-1.47.42,8.39,8.39,0,0,1-2.75-.09,9.33,9.33,0,0,1-1.33-.35,7,7,0,0,1-1.24-.55,2.31,2.31,0,0,1-.88-.77,2,2,0,0,1-.3-.66.83.83,0,0,0-.43-.55c.06-.46.13-.92.21-1.36s.17-.9.25-1.37a14.71,14.71,0,0,0,1.15-1.09,14.94,14.94,0,0,0,1-1.21,5.19,5.19,0,0,0,1.07-.67c.34-.26.67-.53,1-.8l1-.8a7.67,7.67,0,0,1,1.08-.7.92.92,0,0,1,.26-.35c.11-.09.22-.18.35-.27a2.35,2.35,0,0,0,.33-.3A.94.94,0,0,0,176,262a7.11,7.11,0,0,0,1.85-1.61,4.94,4.94,0,0,0,1-2.18,2.65,2.65,0,0,0-1.17-.56,11.23,11.23,0,0,0-1.35-.2c-.4,0-.82,0-1.25,0a9.7,9.7,0,0,1-1.32,0,6.5,6.5,0,0,1-1.38.28l-1.41.1a10.86,10.86,0,0,0-1.38.18,4.53,4.53,0,0,0-1.32.5.78.78,0,0,1-.22,0,.85.85,0,0,0-.23,0,3.89,3.89,0,0,0-1.82.38l-1.66.8a.55.55,0,0,0-.06.19.87.87,0,0,0,.07.35.81.81,0,0,1,.08.34.09.09,0,0,0,0,.06.09.09,0,0,1,0,.06,1.58,1.58,0,0,1-.08.28l-.11.27a6.56,6.56,0,0,0-.36,1.91c0,.52,0,1,0,1.54s0,1,0,1.55a8.65,8.65,0,0,1-.3,1.82q.15.72.27,1.53t.3,1.59c.13.52.27,1,.44,1.53a6.57,6.57,0,0,0,.69,1.41s0,.07,0,.09l.12,0h.24q.15,0,.12.12a1,1,0,0,1,.09.17.29.29,0,0,0,.12.13.25.25,0,0,1,0,.24,2.63,2.63,0,0,1-.3,1.12,3.08,3.08,0,0,0-.33,1.13,2.88,2.88,0,0,1-.67.09,1.85,1.85,0,0,1-.91-.29,3.87,3.87,0,0,1-.73-.62c-.22-.24-.43-.49-.63-.74a4.17,4.17,0,0,0-.67-.66c-.14-.56-.28-1.19-.41-1.87a5.08,5.08,0,0,0-.65-1.76,1.67,1.67,0,0,0,.12-.67,4.32,4.32,0,0,0-.1-1.19,3.48,3.48,0,0,1-.08-1.2,2.56,2.56,0,0,1,.08-.67,5,5,0,0,0,.1-.66,3,3,0,0,0-.1-1,2.83,2.83,0,0,1-.11-1,1.79,1.79,0,0,1,.11-.47,1.16,1.16,0,0,1,.22-.41,1.25,1.25,0,0,1-.09-.7,7.14,7.14,0,0,1,.12-1,6.86,6.86,0,0,0,.12-.91,3.59,3.59,0,0,0,0-.47,3.43,3.43,0,0,0-.09-.44l-.27-.09a.73.73,0,0,0-.35.09,1.06,1.06,0,0,0-.29.22l-.21.19a.29.29,0,0,1-.18.08l-.14,0h-.13a.54.54,0,0,0-.23.12l-.39.26-.44.27a1.32,1.32,0,0,1-.34.17,1.23,1.23,0,0,1-.53-.23l-.36-.33a2.51,2.51,0,0,0-.35-.31.61.61,0,0,0-.45-.1,1.08,1.08,0,0,1-.11-.4,2,2,0,0,1,0-.42v-.49a1.85,1.85,0,0,1,.56-.65,4.25,4.25,0,0,1,.74-.44l.79-.36a3,3,0,0,0,.72-.46h.28a1.65,1.65,0,0,0,.95-.21,5.21,5.21,0,0,0,.77-.56l.75-.65a2.86,2.86,0,0,1,.83-.51,4.81,4.81,0,0,0,.7.25,3.68,3.68,0,0,0,.75.14,3,3,0,0,0,.82-.12,1.18,1.18,0,0,0,.67-.46,1.08,1.08,0,0,0,.26.08H166a2.19,2.19,0,0,0,.91-.13,5.85,5.85,0,0,0,.88-.41,5.39,5.39,0,0,0,1.2-.08l1.18-.22,1.18-.23a5.31,5.31,0,0,1,1.2-.08,8.17,8.17,0,0,0,2-.18,7.19,7.19,0,0,1,2-.15c.46,0,.92.06,1.37.11a9.09,9.09,0,0,0,1.38,0l.71.32a1.59,1.59,0,0,0,.81.08,10.62,10.62,0,0,1,1.75,1.9V257a5.25,5.25,0,0,1-.24,1.36,12.34,12.34,0,0,1-.5,1.32c-.19.44-.4.86-.62,1.27l-.64,1.23-3.93,3.54q-2,1.77-4.06,3.4a2.63,2.63,0,0,1-.17.54,1.91,1.91,0,0,0-.14.52.78.78,0,0,0,0,.24.83.83,0,0,1,.38.23.45.45,0,0,1,.11.44H173q.15,0,.15.12l.49,0a14.76,14.76,0,0,0,2.3-.06l2.32-.27c.78-.11,1.55-.2,2.32-.29s1.53-.15,2.3-.17a4.74,4.74,0,0,1,.57-.15,1.3,1.3,0,0,0,.55-.24h.09a.41.41,0,0,1,.32.12.51.51,0,0,0,.32.15,1,1,0,0,0,.32-.06,1.89,1.89,0,0,1,.34-.09,4.34,4.34,0,0,1,.9-.15c.31,0,.62-.05.92-.09,1.17-.1,2.33-.17,3.49-.2a17.71,17.71,0,0,0,3.45-.44.75.75,0,0,0,.42.29l.58.15c.2.05.39.11.56.17A.55.55,0,0,1,196.06,270.28Z"
    transform="translate(-46.02 -226.12)" />
  <path class="cls-5"
    d="M209.73,256.28v.12a.28.28,0,0,0-.21.31,3.18,3.18,0,0,1-.7.22,3.29,3.29,0,0,0-.69.23l-.68-.05h-.69c-.6,0-1.21,0-1.81.06a13.82,13.82,0,0,1-1.82,0,3.86,3.86,0,0,1-.93.38,3.64,3.64,0,0,1-.95.14,1.83,1.83,0,0,1-.64-.1,8.08,8.08,0,0,1-1.59.61l-1.74.47a17.31,17.31,0,0,0-1.68.52,4.54,4.54,0,0,0-1.41.8c0,.28-.07.56-.09.83s0,.54,0,.8a6.3,6.3,0,0,0,.05.79,2.81,2.81,0,0,0,.19.73,1.62,1.62,0,0,0,.35.09l.35,0a1,1,0,0,0,.3-.05.31.31,0,0,0,.21-.19,5.62,5.62,0,0,1,.91-.05l.91,0q.45,0,.9,0a4.19,4.19,0,0,0,.86-.15,5.39,5.39,0,0,1,1-.16l.93-.06c.3,0,.61-.05.94-.1a3.85,3.85,0,0,0,1-.32,2.22,2.22,0,0,0,.8.15,5.29,5.29,0,0,1,.8.06,1.59,1.59,0,0,1,.35.33.74.74,0,0,1,.14.43,1.44,1.44,0,0,1-.31.85,5.39,5.39,0,0,0-.48.79h-.33a5.05,5.05,0,0,0-1.41.19c-.46.13-.91.29-1.37.46s-.9.32-1.36.45a5.06,5.06,0,0,1-1.41.2c-.08,0-.12,0-.13.13a.38.38,0,0,1-.08.2,2.49,2.49,0,0,0-.45,0,5.85,5.85,0,0,0-1.34.15,5.64,5.64,0,0,1-1.3.15h-.36l-.37-.05a.71.71,0,0,1-.39.32,1.33,1.33,0,0,0-.46.26,2.43,2.43,0,0,0-.1.67l0,.8a6.07,6.07,0,0,1-.08.77,1.19,1.19,0,0,1-.24.58c0,.1.1.13.24.1s.21,0,.21.2a3.09,3.09,0,0,1-.06.58,3.05,3.05,0,0,0-.06.6,6.56,6.56,0,0,0,.14,1.26,5.19,5.19,0,0,0,.42,1.26,2.79,2.79,0,0,0,.78.95,1.9,1.9,0,0,0,1.21.38,2.34,2.34,0,0,0,.91-.18,1.55,1.55,0,0,0,.69-.61l.15,0a.8.8,0,0,1,.23,0,.85.85,0,0,0,.23,0,.84.84,0,0,0,.47-.22l.64-.54.71-.59a2.84,2.84,0,0,1,.69-.41c.15-.28.28-.56.41-.84a1.48,1.48,0,0,1,.59-.67v-.88a7.45,7.45,0,0,1,.65-.61,1.75,1.75,0,0,0,.54-.69l.28.09a1.36,1.36,0,0,0,.29,0l.32,0a1.68,1.68,0,0,0,.32-.09,2.73,2.73,0,0,1,.38.74,4.09,4.09,0,0,0,.34.77c-.18.37-.39.8-.63,1.31s-.51,1-.79,1.51a16.75,16.75,0,0,1-.89,1.44,4.88,4.88,0,0,1-.93,1,1.07,1.07,0,0,1-.39.22l-.61.47a3.23,3.23,0,0,0-.51.53,8.34,8.34,0,0,0-1.68.72c-.54.31-1.07.6-1.59.88a3.35,3.35,0,0,0-.79-.09,6,6,0,0,0-.73.05,6.41,6.41,0,0,1-.79,0,.55.55,0,0,0-.35-.19c-.15,0-.2-.14-.16-.32a3,3,0,0,1-1.67-.56,4.7,4.7,0,0,1-1.07-1.23,7.34,7.34,0,0,1-.72-1.58c-.18-.56-.37-1.11-.57-1.63v-.09A.16.16,0,0,1,190,273c.08,0,.12-.08.12-.19a.12.12,0,0,0,0-.09l-.15-.57a2.46,2.46,0,0,1-.06-.58,7.46,7.46,0,0,1,.06-.95,7.61,7.61,0,0,0,.06-1,2.77,2.77,0,0,0-.12-.85,1,1,0,0,0,.19-.4,2.5,2.5,0,0,0,.11-.53c0-.19,0-.37.05-.55a2.21,2.21,0,0,1,.07-.48l-.21-.6a1.85,1.85,0,0,1-.09-.62v-.21a7.36,7.36,0,0,0,.51-1.06l.46-1.12v-.09c0-.59,0-1.17-.06-1.76s-.06-1.17-.06-1.76V259a5.49,5.49,0,0,1,0-.58.83.83,0,0,0,.36-.33.8.8,0,0,1,.37-.33h1l.18-.31a.93.93,0,0,0,.12-.33,3.27,3.27,0,0,0,.65-.26,4.83,4.83,0,0,0,.59-.35l.77-.43a5,5,0,0,1,.7-.34,5.33,5.33,0,0,1,.74-.22,6.54,6.54,0,0,1,.91-.16.42.42,0,0,0,.32-.09,1.69,1.69,0,0,1,.23-.21l.72.11a6.06,6.06,0,0,0,.73,0,3.4,3.4,0,0,0,1.36-.27c.61,0,1.21,0,1.81,0s1.19,0,1.8,0,1.05,0,1.58.06a13,13,0,0,1,1.54.21,1.91,1.91,0,0,1,.61-.09,3.81,3.81,0,0,1,.74.08,2,2,0,0,0,.74,0,1.32,1.32,0,0,0,.17.56A1,1,0,0,1,209.73,256.28Z"
    transform="translate(-46.02 -226.12)" />
  <path class="cls-5"
    d="M233.89,273.34a1.24,1.24,0,0,1-.38.68,2.2,2.2,0,0,1-.68.41,3.24,3.24,0,0,1-.8.2,6.7,6.7,0,0,1-.74,0H231l-.29,0a.13.13,0,0,0-.15.15.22.22,0,0,1-.15.22l-.3-.1-.31,0c-.14,0-.28,0-.41,0a1.64,1.64,0,0,1-.38,0,.59.59,0,0,1-.34-.07.91.91,0,0,1-.19-.13l-.15-.17a.53.53,0,0,0-.22-.15.44.44,0,0,0-.35,0c-.09,0-.23,0-.41-.18a2.81,2.81,0,0,1-.62-.74c-.18-.3-.34-.6-.5-.93s-.34-.64-.52-1a4.17,4.17,0,0,0-.63-.85h-.25a.77.77,0,0,0-.75.46,1.66,1.66,0,0,1-.31-.23,1.5,1.5,0,0,0-.33-.23,13.37,13.37,0,0,1-1.45.37,7.83,7.83,0,0,1-1.52.15h-.42a1.49,1.49,0,0,1-.4-.06,2.77,2.77,0,0,0-.54.29.91.91,0,0,1-1,0c-.12,0-.18.05-.17.15s-.05.15-.2.15h-.27c-.28,0-.56,0-.83,0s-.55,0-.83,0a4.54,4.54,0,0,1-1.19-.16.63.63,0,0,1-.33.09.44.44,0,0,0-.18.2,2.68,2.68,0,0,1-.12.24.52.52,0,0,1-.17.19.39.39,0,0,1-.29,0,1,1,0,0,1-.3.58.79.79,0,0,0-.24.63,1.78,1.78,0,0,0-.55.46q-.21.27-.42.57a6.77,6.77,0,0,1-.44.58,1.56,1.56,0,0,1-.56.42.73.73,0,0,0-.09.58,3.55,3.55,0,0,1-.82.48,2.32,2.32,0,0,1-.91.22,1.22,1.22,0,0,1-1.21-.94,5.18,5.18,0,0,1,0-.66,4.54,4.54,0,0,1,.14-.66,1.93,1.93,0,0,1,.27-.58,1.07,1.07,0,0,1,.52-.38.39.39,0,0,0-.18-.37.36.36,0,0,1-.16-.38,5,5,0,0,0,1.43-1,12.72,12.72,0,0,0,1.1-1.35l1-1.44a7.59,7.59,0,0,1,1.15-1.3v-.64a4.59,4.59,0,0,0,1.18-2.18.55.55,0,0,0,.44-.3,1.5,1.5,0,0,0,.11-.58.18.18,0,0,0,.19-.14c0-.09.12-.11.26-.07a10.39,10.39,0,0,1,.61-1.34l.66-1.22a11.65,11.65,0,0,0,.6-1.29,7,7,0,0,0,.37-1.48.44.44,0,0,0,.47-.41c0-.26.07-.48.11-.69a2.66,2.66,0,0,0,.68-1c.15-.38.29-.78.41-1.19s.26-.83.41-1.24a3.42,3.42,0,0,1,.65-1.11V253a.19.19,0,0,0-.12-.2.18.18,0,0,1-.12-.19.09.09,0,0,0,0-.07,1,1,0,0,0,.54-.5,1.16,1.16,0,0,1,.55-.5,2.81,2.81,0,0,0,1.12.63,9.85,9.85,0,0,0,1.27.16,1.61,1.61,0,0,1,.44,1,6.55,6.55,0,0,0,.2,1.16c.16.65.34,1.28.53,1.9a13.31,13.31,0,0,1,.44,1.89,3.94,3.94,0,0,0,.33,1.09,4.67,4.67,0,0,1,.34,1.06,3.84,3.84,0,0,1,0,1,1.71,1.71,0,0,0,.12.92l.21.49a5.17,5.17,0,0,1,.26.69c.07.24.13.49.19.73.16.61.31,1.26.44,1.95a7.31,7.31,0,0,0,.62,1.9.84.84,0,0,0,.47.42,3,3,0,0,0,.72.17,5,5,0,0,0,.77,0l.65,0h.3a1.24,1.24,0,0,1,.37.06,1,1,0,0,1,.12.43.7.7,0,0,1-.25.57.66.66,0,0,0-.24.49.61.61,0,0,0,.12.33,1.6,1.6,0,0,0-.36,0,3.94,3.94,0,0,0-1.36.24,2.49,2.49,0,0,0,.65.87,9.23,9.23,0,0,0,.86.65,1,1,0,0,1,.64-.24,1.45,1.45,0,0,1,.68.16,1.46,1.46,0,0,0,.68.17.66.66,0,0,0,.39-.09,2.52,2.52,0,0,1,.4.56A2.2,2.2,0,0,0,233.89,273.34Zm-9.48-4.85a2,2,0,0,0-.2-.74,2.25,2.25,0,0,1-.22-.56,4.32,4.32,0,0,1-.17-.91,9.23,9.23,0,0,0-.14-.94c-.14-.69-.3-1.37-.47-2.06a15.07,15.07,0,0,0-.65-2,.61.61,0,0,0,.12-.33v-.09a1.85,1.85,0,0,1-.39-.75c-.08-.29-.16-.58-.23-.87a4.64,4.64,0,0,0-.27-.82,1.44,1.44,0,0,0-.53-.62.93.93,0,0,0-.09.42,1.61,1.61,0,0,0,0,.39,1.75,1.75,0,0,1,0,.4.92.92,0,0,0-.44.47,1.07,1.07,0,0,1-.44.5,7.78,7.78,0,0,1-.7,1.83c-.3.58-.62,1.15-1,1.71s-.65,1.14-1,1.71a9.76,9.76,0,0,0-.72,1.81,1.28,1.28,0,0,0-.53.69,2.85,2.85,0,0,0-.14.85,1.4,1.4,0,0,0,.62.17h.68a3.24,3.24,0,0,1,.64.06,1.14,1.14,0,0,1,.54.31,4.62,4.62,0,0,1,.87-.17,1.5,1.5,0,0,0,.77-.26,3.7,3.7,0,0,0,1.3.22,4.28,4.28,0,0,0,.72-.06l.68-.16a.92.92,0,0,1,.42.2.58.58,0,0,0,.46.11.48.48,0,0,0,.18-.26A.54.54,0,0,1,224.41,268.49Z"
    transform="translate(-46.02 -226.12)" />
  <path class="cls-5"
    d="M259.48,270.1a.76.76,0,0,1-.17.5,1.71,1.71,0,0,1-.4.35l-.45.27a1.73,1.73,0,0,0-.41.3.66.66,0,0,0-.17.29.34.34,0,0,1-.16.23.77.77,0,0,1-.4.18l-.44.07a3.06,3.06,0,0,0-.43.13.72.72,0,0,0-.37.28c-.95.1-1.88.24-2.8.4a16.46,16.46,0,0,1-2.83.24,4.15,4.15,0,0,0-.59.05l-.59.07-1.26.09-1.26,0c-.59,0-1.17,0-1.76-.07a14,14,0,0,1-1.72-.26,2,2,0,0,0-.49-.24l-.56-.19a3.66,3.66,0,0,1-.53-.21.78.78,0,0,1-.36-.36,2.47,2.47,0,0,1-.81-.18,3.8,3.8,0,0,1-.63-.35l-.59-.41a3.54,3.54,0,0,0-.7-.36c-.2-.29-.41-.56-.62-.84a2.79,2.79,0,0,0-.77-.68,6.92,6.92,0,0,0-.29-1.15l-.39-1.14a9.15,9.15,0,0,1-.34-1.13,5.2,5.2,0,0,1-.13-1.18,5.34,5.34,0,0,1,.12-1,11.07,11.07,0,0,1,.31-1.23,9.51,9.51,0,0,1,.47-1.17,5.91,5.91,0,0,1,.55-.88.8.8,0,0,1,.21-.15.6.6,0,0,0,.21-.18,3.29,3.29,0,0,1,.58-.5c.2-.13.41-.29.64-.47a1,1,0,0,0,.19-.27.83.83,0,0,1,.23-.27.36.36,0,0,1,.26,0,.34.34,0,0,0,.29-.07.26.26,0,0,0,.12-.21.29.29,0,0,1,.09-.21s.08,0,.18,0h.18a.78.78,0,0,0,.49-.29,1.87,1.87,0,0,1,.45-.38,1.45,1.45,0,0,1,.42-.16,1.85,1.85,0,0,0,.46-.17,4.06,4.06,0,0,1,.65-.29,6.62,6.62,0,0,0,.65-.25,1,1,0,0,0,.33-.22,1.06,1.06,0,0,1,.31-.21,3.41,3.41,0,0,1,.59-.13l.6-.1a5.41,5.41,0,0,0,.58-.12,1.3,1.3,0,0,0,.53-.28H247a3.73,3.73,0,0,0,1.06-.16,3.82,3.82,0,0,1,1.06-.15,2.61,2.61,0,0,1,.46.06,1,1,0,0,1,.54-.15,2.28,2.28,0,0,1,1,.26,2.4,2.4,0,0,0,1.06.26h.19l.24,0a1.21,1.21,0,0,0,.8.36,1.5,1.5,0,0,1,.8.27,1.47,1.47,0,0,1,.35.43,2.94,2.94,0,0,1,.23.51l.18.55a1.8,1.8,0,0,0,.24.48,2.66,2.66,0,0,1-2.75,2.4,2.14,2.14,0,0,1-.72-.11,4.08,4.08,0,0,1-.51-.23l-.47-.24a2.09,2.09,0,0,0-.55-.18,3.55,3.55,0,0,0,.43-1.31,2.88,2.88,0,0,0-.67-.21,2.34,2.34,0,0,1-.63-.21,10.71,10.71,0,0,1-1.59.29,2.55,2.55,0,0,0-1.44.65L246,259l-.32,0a2.43,2.43,0,0,0-.73.26c-.36.17-.75.37-1.16.59s-.81.44-1.18.66l-.78.46a1.82,1.82,0,0,0-.42.36l-.37.44-.36.43a1,1,0,0,1-.45.28,1.6,1.6,0,0,1-.22.58l-.33.51a9.81,9.81,0,0,1-.11,1.09,8.13,8.13,0,0,0-.07,1.1v.39a.88.88,0,0,0,.06.33,4,4,0,0,1,.5.88,1.15,1.15,0,0,0,.68.67c0,.08,0,.13,0,.15a.26.26,0,0,0-.08.15,1.51,1.51,0,0,0,.47.53l.59.39c.2.14.4.27.58.41a1.44,1.44,0,0,1,.42.55,2.47,2.47,0,0,1,.86.15,8.14,8.14,0,0,1,.79.33l.73.34a1.78,1.78,0,0,0,.71.15,2,2,0,0,0,.61-.09,9.6,9.6,0,0,0,1.59.35,12.36,12.36,0,0,0,1.62.1,16.9,16.9,0,0,0,2-.12c.66-.08,1.33-.15,2-.21a4.2,4.2,0,0,1,.69-.06,3.71,3.71,0,0,0,.67-.06,1.49,1.49,0,0,0,.8-.4,2.77,2.77,0,0,1,.75-.48,1.42,1.42,0,0,0,.78.21,2.8,2.8,0,0,0,1-.17,3.12,3.12,0,0,1,1-.16Z"
    transform="translate(-46.02 -226.12)" />
  <path class="cls-5"
    d="M281.24,261.4c-.08.2-.16.4-.24.58a2.63,2.63,0,0,0-.18.6,1.37,1.37,0,0,1-.47.23l-.53.15a3.25,3.25,0,0,0-.5.18.84.84,0,0,0-.35.32,4.48,4.48,0,0,0-.09.85,2,2,0,0,0,.18.88,2.59,2.59,0,0,0-.12.58q0,.3,0,.57a8.4,8.4,0,0,0,.24,2,9.44,9.44,0,0,1,.27,2,2,2,0,0,1,0,.33,2.14,2.14,0,0,0,0,.34.83.83,0,0,0,.49.84.6.6,0,0,0-.09.28,1.33,1.33,0,0,0,.06.42.87.87,0,0,1,0,.4c.1.2.2.37.3.53a1.42,1.42,0,0,1,.21.56,3.68,3.68,0,0,1-.51.77,2,2,0,0,0-.43.86,1.12,1.12,0,0,0-.27,0,.54.54,0,0,0-.33.09.74.74,0,0,0-.2.23,2,2,0,0,1-.17.27.52.52,0,0,1-.24.2h-.09a.44.44,0,0,1-.26,0,.46.46,0,0,0-.19,0l-.25.06a1.72,1.72,0,0,1-.33-.71,3.79,3.79,0,0,1-.09-.81,2.19,2.19,0,0,1,.12-.75,1.24,1.24,0,0,1-.41-.82,9.21,9.21,0,0,0-.16-.91c-.17-.75-.35-1.47-.56-2.18a9,9,0,0,1-.38-2.18c0-.29,0-.56,0-.82v-1.58q0-.39,0-.75a3,3,0,0,1,0-.53,3.07,3.07,0,0,0,.05-.53,1.11,1.11,0,0,0-.25-.7,14,14,0,0,0-4.07.77,38.14,38.14,0,0,0-3.83,1.62,11,11,0,0,0-.15,1.37c0,.44,0,.89,0,1.36v1.33a11.45,11.45,0,0,0,.06,1.28,1.88,1.88,0,0,0,.89,1.34,6.44,6.44,0,0,0,1.5.72,2.13,2.13,0,0,1-.18.77,2.46,2.46,0,0,1-.38.57,4.72,4.72,0,0,1-.5.5l-.55.55a1.67,1.67,0,0,0-.48-.21,2.7,2.7,0,0,0-.52-.08l-.54,0a2.91,2.91,0,0,1-.55-.13l-.66-.9c-.23-.31-.47-.61-.73-.91v-.28a4.21,4.21,0,0,0-.3-1.57,7.86,7.86,0,0,1-.46-1.55,2.62,2.62,0,0,0,.12-.54,5.35,5.35,0,0,0,0-.58c0-.4,0-.8,0-1.18a6.31,6.31,0,0,1,0-1.15h-.15a1.26,1.26,0,0,0-.57.14,5.43,5.43,0,0,0-.59.3l-.55.3a1,1,0,0,1-.44.14l-.18,0a.66.66,0,0,0-.21,0,.79.79,0,0,0-.37.12l-.47.26-.53.25a1.17,1.17,0,0,1-1.39-.24,1.45,1.45,0,0,1-.05-.45c0-.14,0-.3,0-.46a1.61,1.61,0,0,0-.09-.51,1.68,1.68,0,0,1,.56-.62,5.83,5.83,0,0,1,.73-.43l.77-.39a2,2,0,0,0,.66-.53h.19a1.65,1.65,0,0,0,.77-.18,1.41,1.41,0,0,1,.8-.16q.15-.06.21-.45l.13,0a1.76,1.76,0,0,0,1.18-.45c.22-1.26.4-2.52.54-3.79a34.94,34.94,0,0,0,.22-3.82.66.66,0,0,0-.13-.36,1.88,1.88,0,0,1-.06-.46v-.45c0-.22,0-.46,0-.7a2.82,2.82,0,0,1,.16-.73,1.21,1.21,0,0,1,.63-.18,2.87,2.87,0,0,1,.77.11,7.29,7.29,0,0,0,.75.17,1.8,1.8,0,0,1,.4.6,2.06,2.06,0,0,1,.17.68,5.51,5.51,0,0,1,0,.7c0,.23,0,.46,0,.68a5.57,5.57,0,0,0,.15,1.3,5.47,5.47,0,0,1,.15,1.25.25.25,0,0,1-.1.22c-.07.05-.11.19-.11.41a4.23,4.23,0,0,0,.06.7,4.4,4.4,0,0,1,.06.73,3.51,3.51,0,0,1-.12.88q-.12.45-.21.87c1.21-.1,2.45-.25,3.73-.45a17.32,17.32,0,0,0,3.63-1,.42.42,0,0,0,0-.18,2.19,2.19,0,0,0,0-.36,2.6,2.6,0,0,1,0-.4.72.72,0,0,1,.24-.57,16.78,16.78,0,0,1-.21-1.7c0-.57-.06-1.13-.06-1.7v-1.72c0-.57,0-1.14,0-1.7a1,1,0,0,1,.52-.15,1.22,1.22,0,0,1,.62.16,1.34,1.34,0,0,0,.68.17,1,1,0,0,0,.45-.09,1.46,1.46,0,0,1,.46.79c.08.32.15.65.21,1s.13.68.2,1a1.43,1.43,0,0,0,.44.81l0,.09a.19.19,0,0,1-.12.18.24.24,0,0,0-.12.24v.12a8,8,0,0,1,.18,1c0,.34.07.69.1,1.05s.08.69.14,1a2.89,2.89,0,0,0,.33.92,2.1,2.1,0,0,1,.4,0,1.19,1.19,0,0,1,.95.41A7.78,7.78,0,0,1,281.24,261.4Z"
    transform="translate(-46.02 -226.12)" />
  <path class="cls-5"
    d="M305.46,256.28v.12a.28.28,0,0,0-.21.31,3.35,3.35,0,0,1-.7.22,3.29,3.29,0,0,0-.69.23l-.69-.05h-.68c-.6,0-1.21,0-1.82.06a13.67,13.67,0,0,1-1.81,0,4,4,0,0,1-.93.38,3.64,3.64,0,0,1-.95.14,1.79,1.79,0,0,1-.64-.1,8.08,8.08,0,0,1-1.59.61l-1.74.47a15.75,15.75,0,0,0-1.68.52,4.43,4.43,0,0,0-1.41.8c0,.28-.07.56-.09.83s0,.54,0,.8a6.41,6.41,0,0,0,0,.79,2.84,2.84,0,0,0,.2.73,1.62,1.62,0,0,0,.35.09l.35,0a1,1,0,0,0,.3-.05.31.31,0,0,0,.21-.19,5.62,5.62,0,0,1,.91-.05l.91,0c.3,0,.6,0,.89,0a4.28,4.28,0,0,0,.87-.15,5.39,5.39,0,0,1,.95-.16l.93-.06c.3,0,.61-.05.94-.1a3.68,3.68,0,0,0,1-.32,2.28,2.28,0,0,0,.81.15,5.29,5.29,0,0,1,.8.06,1.59,1.59,0,0,1,.35.33.74.74,0,0,1,.14.43,1.51,1.51,0,0,1-.31.85,5.39,5.39,0,0,0-.48.79h-.34a5,5,0,0,0-1.4.19c-.46.13-.91.29-1.37.46s-.91.32-1.36.45a5.16,5.16,0,0,1-1.41.2.13.13,0,0,0-.14.13.31.31,0,0,1-.07.2,2.54,2.54,0,0,0-.46,0,5.77,5.77,0,0,0-1.33.15,5.64,5.64,0,0,1-1.3.15h-.37l-.36-.05a.71.71,0,0,1-.39.32,1.24,1.24,0,0,0-.46.26,2.43,2.43,0,0,0-.1.67c0,.26,0,.53,0,.8s0,.53-.08.77a1.19,1.19,0,0,1-.24.58c0,.1.1.13.24.1s.21,0,.21.2a3.09,3.09,0,0,1-.06.58,3.05,3.05,0,0,0-.06.6,6.56,6.56,0,0,0,.14,1.26,5.19,5.19,0,0,0,.42,1.26,2.76,2.76,0,0,0,.77.95,2,2,0,0,0,1.22.38,2.26,2.26,0,0,0,.9-.18,1.53,1.53,0,0,0,.7-.61l.15,0a.85.85,0,0,1,.23,0,.85.85,0,0,0,.23,0,.84.84,0,0,0,.47-.22c.19-.16.4-.33.63-.54s.47-.39.72-.59a2.84,2.84,0,0,1,.69-.41c.14-.28.28-.56.41-.84a1.48,1.48,0,0,1,.59-.67v-.88a6.25,6.25,0,0,1,.65-.61,1.65,1.65,0,0,0,.53-.69l.29.09a1.36,1.36,0,0,0,.29,0l.32,0a1.92,1.92,0,0,0,.32-.09,2.7,2.7,0,0,1,.37.74,4.13,4.13,0,0,0,.35.77c-.18.37-.39.8-.63,1.31s-.51,1-.79,1.51a16.75,16.75,0,0,1-.89,1.44,5.17,5.17,0,0,1-.93,1,1.07,1.07,0,0,1-.39.22c-.23.16-.43.32-.61.47a3.23,3.23,0,0,0-.51.53,8.68,8.68,0,0,0-1.69.72c-.53.31-1.06.6-1.59.88a3.21,3.21,0,0,0-.78-.09,5.84,5.84,0,0,0-.73.05,6.52,6.52,0,0,1-.79,0,.57.57,0,0,0-.35-.19c-.15,0-.21-.14-.16-.32a2.92,2.92,0,0,1-1.67-.56,4.93,4.93,0,0,1-1.08-1.23,7.31,7.31,0,0,1-.71-1.58c-.18-.56-.37-1.11-.57-1.63v-.09a.16.16,0,0,1,.12-.18c.08,0,.12-.08.12-.19a.12.12,0,0,0,0-.09l-.15-.57a2.46,2.46,0,0,1-.06-.58,7.46,7.46,0,0,1,.06-.95,7.61,7.61,0,0,0,.06-1,2.77,2.77,0,0,0-.12-.85,1.15,1.15,0,0,0,.19-.4,3.33,3.33,0,0,0,.11-.53c0-.19,0-.37.05-.55a2.21,2.21,0,0,1,.07-.48l-.21-.6a1.85,1.85,0,0,1-.09-.62v-.21a7.36,7.36,0,0,0,.51-1.06c.14-.36.3-.74.46-1.12v-.09c0-.59,0-1.17-.06-1.76s-.06-1.17-.06-1.76V259a5.49,5.49,0,0,1,0-.58.83.83,0,0,0,.36-.33.83.83,0,0,1,.36-.33h1l.18-.31a.79.79,0,0,0,.13-.33,3.27,3.27,0,0,0,.65-.26,4.83,4.83,0,0,0,.59-.35l.77-.43a4.49,4.49,0,0,1,.7-.34,5.33,5.33,0,0,1,.74-.22,6.54,6.54,0,0,1,.91-.16.42.42,0,0,0,.32-.09,1.52,1.52,0,0,1,.22-.21l.73.11a6,6,0,0,0,.73,0,3.44,3.44,0,0,0,1.36-.27c.61,0,1.21,0,1.81,0s1.19,0,1.8,0,1.05,0,1.57.06a13.13,13.13,0,0,1,1.55.21,1.89,1.89,0,0,1,.6-.09,3.91,3.91,0,0,1,.75.08,2,2,0,0,0,.74,0,1.32,1.32,0,0,0,.16.56A.93.93,0,0,1,305.46,256.28Z"
    transform="translate(-46.02 -226.12)" />
  <path class="cls-5"
    d="M327.44,260.61a.38.38,0,0,1-.21.4.35.35,0,0,0-.22.36.2.2,0,0,0,.06.15.22.22,0,0,1,.07.19v.12a12.2,12.2,0,0,1-1.05,3.06,13.07,13.07,0,0,1-1.59,2.39,17.33,17.33,0,0,1-2.05,2.06c-.75.65-1.57,1.32-2.43,2l-.75.61a8.62,8.62,0,0,0-.71.63l-.67.64a2.4,2.4,0,0,1-.33.14l-.36.13c-.29.12-.58.26-.9.43a2.85,2.85,0,0,0-.8.6,2.64,2.64,0,0,0-1,.18,8.64,8.64,0,0,0-.94.49.53.53,0,0,1-.26-.06l-.22-.12a.79.79,0,0,0-.26-.08,1,1,0,0,0-.35.05,4.74,4.74,0,0,0-.79-1,1.84,1.84,0,0,0-1.15-.52,1.32,1.32,0,0,0-.42-.8c-.22-.19-.45-.4-.67-.62a2.31,2.31,0,0,1-.09-.43,1.66,1.66,0,0,0-.12-.45,1.31,1.31,0,0,0-.24-.37.59.59,0,0,0-.43-.15q0-.18.15-.18c.13,0,.19,0,.19-.15a1.13,1.13,0,0,0-.06-.36,1.09,1.09,0,0,1-.07-.4.77.77,0,0,1,0-.27.85.85,0,0,1,.09-.27,15.3,15.3,0,0,1-.09-1.67,23.06,23.06,0,0,1,.22-3.23,22.92,22.92,0,0,0,.23-3.22,14.28,14.28,0,0,0-.08-1.46,7.59,7.59,0,0,0-.28-1.42c-.47.1-.93.22-1.4.35a6.22,6.22,0,0,0-1.3.53,1.7,1.7,0,0,0-.71-.26,3.88,3.88,0,0,1-.75-.17,1.93,1.93,0,0,1-.21-.88,2.24,2.24,0,0,1,.15-.81L305,256a7.29,7.29,0,0,0,1.44-.46q.71-.3,1.44-.54l.62-.15a4.49,4.49,0,0,0,.53-.15.55.55,0,0,0,.29-.35,1.07,1.07,0,0,1,.22-.44h.91a1,1,0,0,1,.39.11,12.8,12.8,0,0,1,2.19-.35c.72,0,1.47-.12,2.24-.23l.36,0,.52-.09.5-.1.31-.05c.07,0,.1,0,.1.09h.51a9.5,9.5,0,0,1,2.55.34l2.48.66c.34.28.69.56,1,.82a7.18,7.18,0,0,0,1.15.7,1.71,1.71,0,0,0,.47.77l.71.62a5.77,5.77,0,0,0,.41.83c.17.3.34.59.5.9s.31.6.43.89A2.18,2.18,0,0,1,327.44,260.61Zm-2.82.46c-.22-.46-.43-.95-.64-1.46a6.16,6.16,0,0,0-.75-1.36,9.71,9.71,0,0,1-1.11-.38,1.32,1.32,0,0,1-.77-.8.51.51,0,0,1-.21,0,.67.67,0,0,1-.49-.21,1,1,0,0,0-.48-.27l-.65-.1q-.42-.06-.87-.09l-.89-.06-.68,0-.5,0-.53,0c-.17,0-.27,0-.31.08a.62.62,0,0,1-.24.14.72.72,0,0,0-.33-.07h-.37a4.13,4.13,0,0,0-1.25.2,6.62,6.62,0,0,0-1.23.53v.12c0,.16.07.26.21.28a.26.26,0,0,1,.24.24h-.24c-.06,0-.09.09-.09.23a3.47,3.47,0,0,0,.08.67,3.51,3.51,0,0,1,.07.72,3.91,3.91,0,0,1-.06.64,1,1,0,0,1-.3.58.92.92,0,0,1,.3.72,1.9,1.9,0,0,1-.12.64,2.19,2.19,0,0,1-.3.57q-.06,1.28-.24,2.58a17.43,17.43,0,0,0-.19,2.58,10.19,10.19,0,0,0,.08,1.24,7.47,7.47,0,0,0,.26,1.21,2.6,2.6,0,0,0,.71.51c.25.13.52.25.8.37v.09a.24.24,0,0,1-.12.18.29.29,0,0,0-.12.24.11.11,0,0,0,.12.12,16.4,16.4,0,0,0,2.39-.87,8.14,8.14,0,0,0,2.09-1.4.28.28,0,0,1,.19-.09l.16,0,.2.06,0-.12a.51.51,0,0,1,.11-.33,1.62,1.62,0,0,1,.25-.28l.31-.27a1.58,1.58,0,0,0,.24-.3.53.53,0,0,0,.35-.24.4.4,0,0,1,.38-.18.69.69,0,0,1,.33-.5.73.73,0,0,0,.33-.5,4.88,4.88,0,0,0,1.08-.82,12.55,12.55,0,0,0,.88-1c.27-.37.53-.75.77-1.14s.49-.77.76-1.14v-.12a1.61,1.61,0,0,1,.16-.78A2.84,2.84,0,0,0,324.62,261.07Z"
    transform="translate(-46.02 -226.12)" />
</svg>