<svg viewBox="0 0 297.11 36.69" xmlSpace="preserve">
  <g>
    <path d="M65.86,34.82C66.33,33.5,75.92,7.08,76.4,5.73C76.88,4.37,77.67,0,70.18,0c-0.93,0-1.1,0-1.62,0
        c-2.77,0-3.24,1.88-3.24,1.88s-11.65,32.1-11.92,32.84c-0.27,0.74-0.23,1.92,1.69,1.92s5.53,0.11,7.34,0
        C64.23,36.53,65.4,36.15,65.86,34.82z" />
    <path d="M176.05,34.82c0.3-0.85,4.62-12.76,7.62-21.04c1.65-4.55,10.58-2.38,11.91-3.58c1.33-1.2,0.28-2.52-2.67-2.52
        c-1.44,0-1.49-0.03-4.17-0.03c-0.93,0-1.35-0.01-1.88,0.01c-6.02,0.28-14.13,1.8-15.45,5.45c-1.33,3.65-7.55,20.85-7.83,21.59
        c-0.27,0.74-0.23,1.92,1.69,1.92c1.92,0,5.54,0.11,7.34,0C174.41,36.53,175.58,36.15,176.05,34.82z" />
    <path d="M227.62,7.69c-1.12,0-6.05-0.05-8.44-0.03c-0.93,0.01-1.38,0.02-1.91,0.05c-6.02,0.28-15.32,1.77-16.65,5.42
        c-1.33,3.65-7.55,20.85-7.83,21.59c-0.27,0.74-0.23,1.92,1.69,1.92c1.92,0,5.54,0.11,7.34,0c1.81-0.11,2.98-0.5,3.44-1.82
        c0.3-0.85,4.53-12.57,7.53-20.85c1.3-3.58,6.52-3.22,10.22-3.22c3.7,0,7.58,0.75,6.97,2.44c-1.33,3.65-7.52,20.79-7.79,21.53
        c-0.27,0.74-0.23,1.92,1.69,1.92c1.92,0,5.54,0.11,7.34,0c1.81-0.11,2.98-0.5,3.44-1.82c0.3-0.85,4.76-13.1,7.76-21.38
        C244.08,8.89,232.72,7.69,227.62,7.69z" />
    <path d="M33.63,7.69c-1.12,0-6.05-0.05-8.44-0.03c-0.93,0.01-1.38,0.02-1.91,0.05C17.28,7.99,7.97,9.48,6.65,13.13
        C5.32,16.78,0.07,31.27,0.07,31.3c-0.33,1.13,0.54,2.18,2.98,3.36c2.76,1.33,10.94,1.96,15.31,1.96c2.08,0,4.26-0.01,6.83-0.73
        c1.7-0.48,3.27-1.35,4.67-2.39c0.54,1.49,1.66,3.1,3.67,3.1c1.92,0,1.86,0.05,3.7,0.04c1.81-0.01,2.98-0.5,3.44-1.82
        c0.3-0.85,4.76-13.1,7.76-21.38C50.1,8.89,38.73,7.69,33.63,7.69z M20.33,33.46c-2.67,0.04-4.89-0.17-6.63-0.76
        c-1.28-0.43-1.06-1.57-0.94-1.97c1.57-4.35,4.08-11.3,6.06-16.76c1.3-3.58,6.52-3.22,10.22-3.22s7.58,0.75,6.97,2.44
        c-1.02,2.81-4.16,11.49-5.67,15.67C26.69,33.49,22.76,33.42,20.33,33.46z" />
    <path
      d="M146.95,7.44c-1.12,0-6.05-0.05-8.44-0.03c-0.93,0.01-1.38,0.02-1.91,0.05c-6.02,0.28-15.32,1.77-16.65,5.42
        c-1.33,3.65-6.57,18.14-6.58,18.17c-0.33,1.13,0.54,2.18,2.98,3.36c2.76,1.33,10.21,1.9,15.31,1.96c2.08,0.03,4.5,0.02,7.16-0.41
        c1.75-0.28,2.93-0.72,3.62-1.25c1.12-0.73-0.21-2.58-1.49-2.15c-0.76,0.25-2.91,0.7-6.57,0.75c-3.66,0.05-6.22-0.13-7.58-0.91
        c-0.6-0.34-0.77-0.98-0.78-1.57c0.01-0.02,0.02-0.03,0.02-0.05c0.2-0.56,1.54-4.27,3.07-8.46c1.41,1.2,8.82,1.1,10.71,1.1
        c1.92,0,8.33-0.16,13.36-1.52c5.12-1.39,6.61-2.92,7.08-4.25c0.3-0.85,0.98-2.93,1.51-4.45C163.35,8.62,152.04,7.44,146.95,7.44z
         M147.97,16.83c-1.59,4.02-7.32,3.68-9.74,3.68c-2.8-0.01-5.13-0.01-6.88-0.6c-0.51-0.17-0.86-0.43-1.1-0.7
        c0.87-2.4,1.73-4.75,2.39-6.57c2.12-2.09,6.58-1.98,9.69-1.98c3.7,0,7.21,0.35,6.98,2.14C149.14,14.13,149.08,13.69,147.97,16.83z" />
    <path d="M282.13,7.69c-1.12,0-6.05-0.05-8.44-0.03c-0.93,0.01-1.38,0.02-1.91,0.05c-6.02,0.28-15.32,1.77-16.65,5.42
        c-1.33,3.65-6.58,18.14-6.58,18.17c-0.33,1.13,0.54,2.18,2.98,3.36c2.76,1.33,10.94,1.96,15.31,1.96c2.08,0,4.26-0.01,6.83-0.73
        c1.7-0.48,3.27-1.35,4.67-2.39c0.54,1.49,1.66,3.1,3.67,3.1c1.92,0,1.86,0.05,3.7,0.04c1.81-0.01,2.98-0.5,3.44-1.82
        c0.3-0.85,4.76-13.1,7.76-21.38C298.6,8.89,287.23,7.69,282.13,7.69z M268.83,33.46c-2.67,0.04-4.89-0.17-6.63-0.76
        c-1.28-0.43-1.06-1.57-0.93-1.97c1.57-4.35,4.08-11.3,6.06-16.76c1.3-3.58,6.52-3.22,10.22-3.22s7.58,0.75,6.97,2.44
        c-1.02,2.81-4.16,11.49-5.67,15.67C275.19,33.49,271.26,33.42,268.83,33.46z" />
    <path
      d="M112.51,8.48c-0.05-0.27-0.28-0.9-2.32-0.9h-4.25c-1.87,0-2.2-0.66-2.15-1.37c0.08-0.24,0.15-0.41,0.17-0.49
        C104.45,4.37,105.24,0,97.75,0h-1.62c-2.77,0-3.24,1.88-3.24,1.88s-0.71,1.96-1.77,4.84c-0.5,0.51-1.37,0.86-3.63,0.86
        c-2.08,0-1.11-0.02-2.33,0c-1.22,0.02-2.7,0.3-3.08,0.92s-0.6,0.96-0.47,1.36c0.14,0.4,0.46,0.8,1.59,0.8h3.62
        c1.67,0,2.52,0.36,2.36,1.37c-2.96,8.1-6.63,18.17-6.79,18.62c-0.08,0.23-0.19,0.66-0.17,0.92c-0.08,1,0.72,1.96,2.91,3.02
        c2.76,1.33,9.75,1.91,14.86,1.97c2.08,0.03,2.7-0.13,4.08-0.39c1.74-0.33,2.65-0.64,3.34-1.17c1.12-0.73-0.64-2.44-2.16-2.12
        c-0.79,0.16-1.39,0.55-5.08,0.58c-1.02,0.01-3.17-0.22-4.47-1.11c-0.83-0.56-0.75-1.51-0.55-2.16c1.75-4.83,4.56-12.61,6.54-18.11
        c0.65-0.86,2.23-1.4,3.63-1.4c2.89,0,3.44,0,4.35,0c0.91,0,2.47-0.24,2.67-1.03C112.47,9.12,112.56,8.74,112.51,8.48z" />
  </g>
</svg>