<svg xmlns="http://www.w3.org/2000/svg" viewBox="0 0 100 100"><defs><style>.a{fill:#e6e7e8;}.b{fill:none;}.c{fill:#21409a;}.d{fill:#ec008c;}</style></defs><path class="a" d="M13.89,93.25V82.72a2.84,2.84,0,0,1,2.84-2.84h16l.68-66.76a2.83,2.83,0,0,1,2.83-2.8H97.51l.34-8.12c0-1.57-.44-.81-2-.81H23.19C21.63,1.39,22,1,22,2.52l-.69,68.26L4.23,71.7c-1.56,0-1.56-1.56-1.56,0L2.15,81.78c0,9.47,4.75,10.8,12.22,15.75C13.37,95.16,13.89,95.83,13.89,93.25Z"/><path class="b" d="M18.37,96.37h52.3L69,94.64a18,18,0,0,1-5.19-12.72V73.07H4.19v8.85A14.33,14.33,0,0,0,18.37,96.37Z"/><path class="b" d="M67.4,71.38V81.92a14.21,14.21,0,1,0,28.41,0V3.63h-72l-.67,65.56v.25H65.64A1.88,1.88,0,0,1,67.4,71.38Zm-36.59-56H44.06a1.81,1.81,0,0,1,0,3.62H30.81a1.81,1.81,0,1,1,0-3.62Zm-.08,12.71H69.27a1.82,1.82,0,0,1,0,3.63H30.73a1.82,1.82,0,0,1,0-3.63Zm0,12.71H69.27a1.82,1.82,0,0,1,0,3.63H30.73a1.82,1.82,0,0,1,0-3.63ZM28.92,55.35a1.81,1.81,0,0,1,1.81-1.81H69.27a1.82,1.82,0,0,1,0,3.63H30.73A1.82,1.82,0,0,1,28.92,55.35Z"/><path class="c" d="M17.26,100a2.93,2.93,0,0,0,.43,0H80.87a17.45,17.45,0,0,0,13-4.93,18.26,18.26,0,0,0,5.59-13.13V1.81A1.93,1.93,0,0,0,97.49,0H22a1.83,1.83,0,0,0-1.28.49,1.76,1.76,0,0,0-.53,1.24l-.69,67.71h-17a2,2,0,0,0-1.94,2V81.92A18,18,0,0,0,17.26,100Zm5.89-30.77.67-65.56h72V81.92a14.21,14.21,0,1,1-28.41,0V71.38a1.88,1.88,0,0,0-1.76-1.94H23.15Zm-19,3.88H63.78v8.85A18,18,0,0,0,69,94.64l1.7,1.73H18.37A14.33,14.33,0,0,1,4.19,81.92Z"/><path class="d" d="M30.81,19H44.06a1.81,1.81,0,0,0,0-3.62H30.81a1.81,1.81,0,1,0,0,3.62Z"/><path class="d" d="M30.73,31.74H69.27a1.82,1.82,0,0,0,0-3.63H30.73a1.82,1.82,0,0,0,0,3.63Z"/><path class="d" d="M30.73,44.45H69.27a1.82,1.82,0,0,0,0-3.63H30.73a1.82,1.82,0,0,0,0,3.63Z"/><path class="d" d="M71.08,55.35a1.81,1.81,0,0,0-1.81-1.81H30.73a1.82,1.82,0,0,0,0,3.63H69.27A1.82,1.82,0,0,0,71.08,55.35Z"/></svg>