<svg xmlns="http://www.w3.org/2000/svg" viewBox="0 0 100 100"><defs><style>.a{fill:#e6e7e8;}.b{fill:none;}.c{fill:#21409a;}.d{fill:#ec008c;}</style></defs><path class="a" d="M7.17,58.61a1.13,1.13,0,0,1,1.1-1h7.2a1.46,1.46,0,0,0,1.2-.59A32.81,32.81,0,0,1,31,46.06a1.44,1.44,0,0,0,.78-.79,17.92,17.92,0,0,0,.73-11.78,15.59,15.59,0,0,1,9,4.45,15.19,15.19,0,0,1,2.89,3.91,1.49,1.49,0,0,0,1.4.8c.66,0,7.28,0,11.58,0A27.32,27.32,0,0,1,80.47,55.4,27.33,27.33,0,0,0,54.93,37.75c-4.29,0-10.91,0-11.57,0a1.48,1.48,0,0,1-1.4-.81A15.32,15.32,0,0,0,39.07,33a15.6,15.6,0,0,0-9-4.46,18,18,0,0,1-.73,11.79,1.46,1.46,0,0,1-.79.79A32.82,32.82,0,0,0,14.22,52.09a1.44,1.44,0,0,1-1.2.6H5.82a1.14,1.14,0,0,0-1.11,1v18a1.18,1.18,0,0,0,1.11,1.06H7.17Z"/><path class="a" d="M57.41,27A13.22,13.22,0,0,1,46.92,5.68,13.23,13.23,0,1,0,63,26.69a13.64,13.64,0,0,0,2.46-2.46A13.13,13.13,0,0,1,57.41,27Z"/><path class="b" d="M21.87,85.43V96.07a1.11,1.11,0,0,0,1.11,1h9.8a.89.89,0,0,0,.86-1V93.74a6.59,6.59,0,0,1,6.49-6.49H54.29a6.43,6.43,0,0,1,6.31,6.49v2.33a1,1,0,0,0,1,1h9.84a.94.94,0,0,0,.88-1V83.8a1.52,1.52,0,0,1,.56-1.14c5.93-4.91,9.25-11.23,9.31-17.82A27.33,27.33,0,0,0,54.93,37.75c-4.29,0-10.91,0-11.57,0a1.48,1.48,0,0,1-1.4-.81A15.32,15.32,0,0,0,39.07,33a15.6,15.6,0,0,0-9-4.46,18,18,0,0,1-.73,11.79,1.46,1.46,0,0,1-.79.79A32.82,32.82,0,0,0,14.22,52.09a1.44,1.44,0,0,1-1.2.6H5.82a1.14,1.14,0,0,0-1.11,1v18a1.18,1.18,0,0,0,1.11,1.06h4.91a1.39,1.39,0,0,1,1.3.8,27.63,27.63,0,0,0,9.28,10.64A1.38,1.38,0,0,1,21.87,85.43ZM47.61,44.36H60.69a1.47,1.47,0,0,1,0,2.94H47.61a1.47,1.47,0,0,1,0-2.94ZM18.17,57a1.47,1.47,0,1,1,2.94,0,2.7,2.7,0,1,0,5.39,0,1.48,1.48,0,0,1,2.95,0,5.64,5.64,0,0,1-11.28,0Z"/><path class="b" d="M41.73,16.18A13.24,13.24,0,1,0,55,2.94,13.23,13.23,0,0,0,41.73,16.18Z"/><path class="c" d="M23,100h9.8a3.83,3.83,0,0,0,3.8-3.93V93.74a3.63,3.63,0,0,1,3.55-3.54H54.29a3.47,3.47,0,0,1,3.37,3.54v2.33a4,4,0,0,0,4,3.93h9.8a3.88,3.88,0,0,0,3.86-3.9V84.48c5.88-5,9.26-11.2,9.79-18.06h1.06a1.73,1.73,0,0,1,1.65,1.69v1.51a4.58,4.58,0,0,0,4.47,4.64h4.48a1.47,1.47,0,0,0,0-2.94H92.28a1.64,1.64,0,0,1-1.53-1.7V68.11a4.67,4.67,0,0,0-4.59-4.63h-1a30.28,30.28,0,0,0-30.2-28.72c-.94,0-8.1,0-10.8,0A19,19,0,0,0,28,25.5,1.47,1.47,0,0,0,26.51,27a1.31,1.31,0,0,0,.08.48l.34,1a15,15,0,0,1-.1,10.26A35.67,35.67,0,0,0,12.27,49.75H5.82a4.07,4.07,0,0,0-4.05,4v18a4.11,4.11,0,0,0,4.05,4h4a31.67,31.67,0,0,0,9.11,10.46v9.88A4,4,0,0,0,23,100ZM12,73.59a1.39,1.39,0,0,0-1.3-.8H5.82a1.18,1.18,0,0,1-1.11-1.06v-18a1.14,1.14,0,0,1,1.11-1H13a1.44,1.44,0,0,0,1.2-.6A32.82,32.82,0,0,1,28.54,41.16a1.46,1.46,0,0,0,.79-.79,18,18,0,0,0,.73-11.79,15.6,15.6,0,0,1,9,4.46A15.32,15.32,0,0,1,42,36.94a1.48,1.48,0,0,0,1.4.81c.66,0,7.28,0,11.57,0A27.33,27.33,0,0,1,82.24,64.84c-.06,6.59-3.38,12.91-9.31,17.82a1.52,1.52,0,0,0-.56,1.14V96.07a.94.94,0,0,1-.88,1H61.65a1,1,0,0,1-1-1V93.74a6.43,6.43,0,0,0-6.31-6.49H40.13a6.59,6.59,0,0,0-6.49,6.49v2.33a.89.89,0,0,1-.86,1H23a1.11,1.11,0,0,1-1.11-1V85.43a1.38,1.38,0,0,0-.56-1.2A27.63,27.63,0,0,1,12,73.59Z"/><path class="c" d="M29.45,57a1.48,1.48,0,0,0-2.95,0,2.7,2.7,0,1,1-5.39,0,1.47,1.47,0,1,0-2.94,0,5.64,5.64,0,0,0,11.28,0Z"/><path class="c" d="M47.61,47.3H60.69a1.47,1.47,0,0,0,0-2.94H47.61a1.47,1.47,0,0,0,0,2.94Z"/><path class="d" d="M38.79,16.18A16.18,16.18,0,1,0,55,0,16.19,16.19,0,0,0,38.79,16.18Zm29.41,0A13.24,13.24,0,1,1,55,2.94,13.23,13.23,0,0,1,68.2,16.18Z"/></svg>