<svg xmlns="http://www.w3.org/2000/svg" viewBox="0 0 100 100"><defs><style>.a{fill:#e6e7e8;}.b{fill:none;}.c{fill:#21409a;}.d{fill:#ec008c;}</style></defs><path class="a" d="M28.57,77.14c-6.68-6.69-12.14-15.37-12.14-25.56S21.89,32.7,28.57,26,43.94,13.87,54.13,13.87a28.63,28.63,0,0,1,3.7.25l-4.54-1.79A28.06,28.06,0,0,0,48,11.84c-10.2,0-18.88,5.46-25.56,12.14S10.33,39.35,10.33,49.54,15.79,68.42,22.47,75.1a49.33,49.33,0,0,0,8.78,7.06l9.63,4.18c.88.22,1.78.41,2.69.55l-6.22-2.7a48.84,48.84,0,0,1-8.78-7Z"/><path class="b" d="M79.18,57.62c-.3,0-.65.1-.65.58a.57.57,0,0,0,.65.59c.29,0,.65-.1.65-.59a.51.51,0,0,0-.16-.42A.74.74,0,0,0,79.18,57.62Z"/><path class="b" d="M87.51,31.41a30.67,30.67,0,0,1,3,5.11,1.22,1.22,0,1,1-2.2,1,29.79,29.79,0,0,0-3-4.93L55,50,85.38,67.37a28.94,28.94,0,0,0,4.52-9,1.22,1.22,0,0,1-1.27-.57l-1-1.72a1.22,1.22,0,1,1,2.1-1.24l.76,1.29a28.88,28.88,0,0,0-.65-14.83v0a1.22,1.22,0,0,1,2.34-.68,31.37,31.37,0,0,1-4.65,28l2.2,1.26h0a29,29,0,0,0,0-39.69Zm-21.09,23a3.17,3.17,0,0,1-2.08-.75,2.91,2.91,0,0,1-1-2.28,3.09,3.09,0,1,1,3.09,3Zm12.76,6.85a3.21,3.21,0,0,1-2.08-.74l-.21-.21a3.09,3.09,0,0,1,.2-4.36,3.18,3.18,0,0,1,2.09-.74,3,3,0,1,1,0,6Zm7.08-11.4a8,8,0,0,1-13.64-8.34,1.22,1.22,0,1,1,2.08,1.28,5.53,5.53,0,1,0,2.24-2.07,1.22,1.22,0,0,1-1.1-2.18,8,8,0,0,1,11.6,7.14A7.94,7.94,0,0,1,86.26,49.83Zm-6.07-4.17a1.22,1.22,0,0,1,1.22-1.22h1.53a1.22,1.22,0,1,1,0,2.44H81.41A1.22,1.22,0,0,1,80.19,45.66Zm0,2.39v1.33a1.22,1.22,0,1,1-2.44,0V48.05a1.22,1.22,0,0,1,2.44,0Zm0-4.77a1.22,1.22,0,0,1-2.44,0V41.56a1.22,1.22,0,0,1,2.44,0Zm-1.76,2.38a1.22,1.22,0,0,1-1.22,1.22H75.35a1.22,1.22,0,1,1,0-2.44h1.91A1.22,1.22,0,0,1,78.48,45.66Z"/><path class="b" d="M66.42,50.77c-.3,0-.65.1-.65.58a.57.57,0,0,0,.65.59h0c.3,0,.65-.1.65-.59a.5.5,0,0,0-.16-.43A.77.77,0,0,0,66.42,50.77Z"/><path class="b" d="M48.92,66.8a.57.57,0,0,0,.59-.65.78.78,0,0,0-.16-.49.5.5,0,0,0-.43-.16.57.57,0,0,0-.59.65C48.33,66.44,48.44,66.8,48.92,66.8Z"/><path class="b" d="M52.06,34.34a.77.77,0,0,0,.15-.49c0-.29-.1-.65-.58-.65a.57.57,0,0,0-.59.65.72.72,0,0,0,.16.49A.64.64,0,0,0,52.06,34.34Z"/><path class="b" d="M45,92.57a42.38,42.38,0,0,0,35.32-18.8l-4.24-2.64a53.26,53.26,0,0,1-4.66,5.29,46.44,46.44,0,0,1-13.1,9.45h0a1.22,1.22,0,1,1-1-2.22,43.72,43.72,0,0,0,12.4-9A52.32,52.32,0,0,0,74,69.84L43.81,51a1.15,1.15,0,0,1-.38-.38A1.22,1.22,0,0,1,43.79,49L73.71,29.76a52.58,52.58,0,0,0-4-4.46,49.82,49.82,0,0,0-7.24-6,8,8,0,1,1-14.6-5.6A27.21,27.21,0,0,0,45,13.52c-8.57,0-16.88,4-24.7,11.78a1.22,1.22,0,0,1-1.73-1.72,47.6,47.6,0,0,1,11.77-8.8A31.84,31.84,0,0,1,45,11.08a29.65,29.65,0,0,1,5.48.51A34.61,34.61,0,0,1,62,16a50.1,50.1,0,0,1,9.5,7.54,55.2,55.2,0,0,1,4.32,4.85L80,25.72A42.57,42.57,0,1,0,45,92.57Zm19.54-64.7a1.21,1.21,0,0,1,1.71-.2l.89.69a1.22,1.22,0,0,1-1.51,1.92l-.89-.7A1.21,1.21,0,0,1,64.58,27.87ZM51.63,30.76a3.09,3.09,0,1,1-3,3.09A3,3,0,0,1,51.63,30.76ZM44,28.07a1.23,1.23,0,0,1,1.44-1,1.2,1.2,0,0,1,1,1.43l-.4,2h0a1.22,1.22,0,1,1-2.4-.48ZM57.2,76.19l2.85-1.62a1.22,1.22,0,0,1,1.21,2.12l-2.85,1.62a1.15,1.15,0,0,1-.6.16,1.22,1.22,0,0,1-.61-2.28ZM48.92,63.06a2.93,2.93,0,0,1,2.28,1A3.17,3.17,0,0,1,52,66.15a3,3,0,1,1-3-3.09ZM40,63.42A1.22,1.22,0,0,1,39.23,65l-2.3.81a1.21,1.21,0,0,1-1.56-.74,1.23,1.23,0,0,1,.74-1.56l2.31-.81A1.23,1.23,0,0,1,40,63.42Zm-1.59-16a1.22,1.22,0,0,1,.53,1.64l-1.18,2.27h0a1.22,1.22,0,1,1-2.17-1.12L36.75,48A1.21,1.21,0,0,1,38.39,47.46ZM28.44,20.6l2.44-.45a1.22,1.22,0,0,1,.44,2.4L28.88,23l-.22,0a1.22,1.22,0,0,1-.22-2.42Zm0,7.13a8,8,0,1,1-8,8A8,8,0,0,1,28.47,27.73ZM23.35,70.61l1.62.16a1.22,1.22,0,0,1-.11,2.43h-.12L23.12,73h0A1.22,1.22,0,0,1,22,71.7,1.23,1.23,0,0,1,23.35,70.61ZM20.93,63A3,3,0,1,1,24,60,3,3,0,0,1,20.93,63Zm-1-14.44A1.22,1.22,0,0,1,19,50.86l-2.44-1h0a1.22,1.22,0,0,1,.93-2.26ZM6.11,50c0-8.07,3.25-15.92,9.65-23.35a1.22,1.22,0,1,1,1.84,1.59c-6,7-9,14.3-9,21.76,0,8.57,4,16.88,11.79,24.7a49.16,49.16,0,0,0,6.47,5.49,7.91,7.91,0,0,1,2-4.78A8,8,0,0,1,40.71,86.13a27.53,27.53,0,0,0,11.6-.63,1.22,1.22,0,0,1,.63,2.36A29.85,29.85,0,0,1,37.58,88a36.06,36.06,0,0,1-10-4.32,50.57,50.57,0,0,1-9-7.24,47.87,47.87,0,0,1-8.8-11.76A32,32,0,0,1,6.11,50Z"/><path class="b" d="M50.66,14.1A5.56,5.56,0,1,0,60.15,18c0-.07,0-.15,0-.23a36.14,36.14,0,0,0-4.33-2.12v.38a1.22,1.22,0,1,1-2.44,0V14.81C52.47,14.53,51.57,14.29,50.66,14.1ZM57,17.23h1.33a1.22,1.22,0,0,1,0,2.44H57a1.22,1.22,0,1,1,0-2.44ZM54.59,19a1.22,1.22,0,0,1,1.22,1.22v1.14a1.22,1.22,0,1,1-2.44,0V20.21A1.22,1.22,0,0,1,54.59,19Zm-1.17-.54a1.22,1.22,0,0,1-1.22,1.22H50.29a1.22,1.22,0,1,1,0-2.44H52.2A1.22,1.22,0,0,1,53.42,18.45Z"/><path class="b" d="M28.47,41.28a5.56,5.56,0,1,0-5.56-5.56h0A5.56,5.56,0,0,0,28.47,41.28ZM29.68,39a1.22,1.22,0,1,1-2.44,0V37.91a1.22,1.22,0,1,1,2.44,0Zm1.17-4.12h1.33a1.22,1.22,0,0,1,0,2.44H30.85a1.22,1.22,0,0,1,0-2.44Zm-3.61-2.5a1.22,1.22,0,1,1,2.44,0v1.33a1.22,1.22,0,1,1-2.44,0Zm-4.3,3.72a1.22,1.22,0,0,1,1.22-1.22h1.92a1.22,1.22,0,1,1,0,2.44H24.16A1.22,1.22,0,0,1,22.94,36.14Z"/><path class="b" d="M20.93,59.43c-.29,0-.65.1-.65.58a.57.57,0,0,0,.65.59.78.78,0,0,0,.49-.16.5.5,0,0,0,.16-.43C21.58,59.5,21.18,59.43,20.93,59.43Z"/><path class="b" d="M29.53,82a1.2,1.2,0,0,1-.28-.77A1.22,1.22,0,0,1,30.47,80h1.92a1.22,1.22,0,0,1,0,2.44H30.47a.62.62,0,0,1-.19,0A32.29,32.29,0,0,0,33.56,84V83A1.22,1.22,0,0,1,36,83v1.14a1.22,1.22,0,0,1-.28.78c.66.23,1.33.44,2,.62a5.55,5.55,0,0,0-2.93-10.27h0a5.64,5.64,0,0,0-1.08.1,5.54,5.54,0,0,0-4.37,6.52Zm7.63-2H38.5a1.22,1.22,0,0,1,0,2.44H37.16a1.22,1.22,0,0,1,0-2.44Zm-3.6-2.5a1.22,1.22,0,0,1,2.44,0V78.8a1.22,1.22,0,0,1-2.44,0Z"/><path class="c" d="M69.63,87.71A45,45,0,0,0,83.09,74a1.19,1.19,0,0,0,.16-.92,1.21,1.21,0,0,0-.54-.76L46.74,50,82.37,27.09a1.21,1.21,0,0,0,.37-1.68h0A45,45,0,1,0,69.63,87.71ZM2.46,50A42.57,42.57,0,0,1,80,25.72l-4.22,2.71a55.2,55.2,0,0,0-4.32-4.85A50.1,50.1,0,0,0,62,16a34.61,34.61,0,0,0-11.44-4.45A29.65,29.65,0,0,0,45,11.08a31.84,31.84,0,0,0-14.66,3.7,47.6,47.6,0,0,0-11.77,8.8,1.22,1.22,0,0,0,1.73,1.72C28.16,17.48,36.47,13.52,45,13.52a27.21,27.21,0,0,1,2.85.15,8,8,0,1,0,14.6,5.6,49.82,49.82,0,0,1,7.24,6,52.58,52.58,0,0,1,4,4.46L43.79,49a1.22,1.22,0,0,0-.36,1.69,1.15,1.15,0,0,0,.38.38L74,69.84a52.32,52.32,0,0,1-4.31,4.86,43.72,43.72,0,0,1-12.4,9,1.22,1.22,0,1,0,1,2.22h0a46.44,46.44,0,0,0,13.1-9.45,53.26,53.26,0,0,0,4.66-5.29l4.24,2.64A42.58,42.58,0,0,1,2.46,50ZM54.59,17.28a1.21,1.21,0,0,0,1.22-1.22v-.38a36.14,36.14,0,0,1,4.33,2.12c0,.08,0,.16,0,.23a5.56,5.56,0,1,1-9.49-3.93c.91.19,1.81.43,2.71.71v1.25A1.22,1.22,0,0,0,54.59,17.28Z"/><path class="c" d="M27.61,83.66a36.06,36.06,0,0,0,10,4.32,29.85,29.85,0,0,0,15.36-.12,1.22,1.22,0,0,0-.63-2.36,27.53,27.53,0,0,1-11.6.63,8,8,0,1,0-13.9-5.94,49.16,49.16,0,0,1-6.47-5.49C12.52,66.88,8.55,58.57,8.55,50c0-7.46,3-14.79,9.05-21.76a1.22,1.22,0,1,0-1.84-1.59C9.36,34.08,6.11,41.93,6.11,50a32,32,0,0,0,3.7,14.66,47.87,47.87,0,0,0,8.8,11.76A50.57,50.57,0,0,0,27.61,83.66Zm6.09-8.34a5.64,5.64,0,0,1,1.08-.1h0a5.55,5.55,0,0,1,2.93,10.27c-.66-.18-1.33-.39-2-.62a1.22,1.22,0,0,0,.28-.78V83a1.22,1.22,0,0,0-2.44,0V84a32.29,32.29,0,0,1-3.28-1.63.62.62,0,0,0,.19,0h1.92a1.22,1.22,0,0,0,0-2.44H30.47a1.22,1.22,0,0,0-1.22,1.22,1.2,1.2,0,0,0,.28.77l-.2-.12A5.54,5.54,0,0,1,33.7,75.32Z"/><path class="c" d="M28.46,43.72a8,8,0,1,0-8-8A8,8,0,0,0,28.46,43.72Zm-5.55-8a5.56,5.56,0,1,1,5.56,5.56,5.56,5.56,0,0,1-5.56-5.56Z"/><path class="c" d="M28.46,35a1.21,1.21,0,0,0,1.22-1.22V32.42a1.22,1.22,0,1,0-2.44,0v1.33A1.22,1.22,0,0,0,28.46,35Z"/><path class="c" d="M28.46,36.68a1.23,1.23,0,0,0-1.22,1.23V39a1.22,1.22,0,1,0,2.44,0V37.91A1.22,1.22,0,0,0,28.46,36.68Z"/><path class="c" d="M30.85,37.36h1.33a1.22,1.22,0,0,0,0-2.44H30.85a1.22,1.22,0,0,0,0,2.44Z"/><path class="c" d="M27.3,36.14a1.22,1.22,0,0,0-1.22-1.22H24.16a1.22,1.22,0,1,0,0,2.44h1.92A1.22,1.22,0,0,0,27.3,36.14Z"/><path class="c" d="M48.92,69.24a3,3,0,0,0,3-3.09,3.17,3.17,0,0,0-.75-2.08,2.93,2.93,0,0,0-2.28-1,3.09,3.09,0,0,0,0,6.18Zm0-3.74a.5.5,0,0,1,.43.16.78.78,0,0,1,.16.49.57.57,0,0,1-.59.65c-.48,0-.59-.36-.59-.65A.57.57,0,0,1,48.92,65.5Z"/><path class="c" d="M24,60a3.09,3.09,0,1,0-3.09,3A3,3,0,0,0,24,60Zm-2.6.43a.78.78,0,0,1-.49.16.57.57,0,0,1-.65-.59c0-.48.36-.58.65-.58s.65.07.65.58A.5.5,0,0,1,21.42,60.44Z"/><path class="c" d="M51.63,36.94a3.09,3.09,0,1,0-3-3.09A3,3,0,0,0,51.63,36.94Zm0-3.74c.48,0,.58.36.58.65a.77.77,0,0,1-.15.49.64.64,0,0,1-.86,0,.72.72,0,0,1-.16-.49A.57.57,0,0,1,51.63,33.2Z"/><path class="c" d="M34.78,80A1.22,1.22,0,0,0,36,78.8V77.47a1.22,1.22,0,0,0-2.44,0V78.8A1.21,1.21,0,0,0,34.78,80Z"/><path class="c" d="M37.16,82.41H38.5a1.22,1.22,0,0,0,0-2.44H37.16a1.22,1.22,0,0,0,0,2.44Z"/><path class="c" d="M53.37,21.35a1.22,1.22,0,1,0,2.44,0V20.21a1.22,1.22,0,1,0-2.44,0Z"/><path class="c" d="M57,19.67h1.33a1.22,1.22,0,0,0,0-2.44H57a1.22,1.22,0,1,0,0,2.44Z"/><path class="c" d="M52.2,17.23H50.29a1.22,1.22,0,1,0,0,2.44H52.2a1.22,1.22,0,0,0,0-2.44Z"/><path class="c" d="M15.87,48.25a1.23,1.23,0,0,0,.66,1.6h0l2.44,1a1.22,1.22,0,0,0,.93-2.26l-2.44-1A1.22,1.22,0,0,0,15.87,48.25Z"/><path class="c" d="M44.55,31.54a1.23,1.23,0,0,0,1.44-1h0l.4-2a1.2,1.2,0,0,0-1-1.43,1.23,1.23,0,0,0-1.44,1l-.41,2A1.23,1.23,0,0,0,44.55,31.54Z"/><path class="c" d="M57.81,78.47a1.15,1.15,0,0,0,.6-.16l2.85-1.62a1.22,1.22,0,0,0-1.21-2.12L57.2,76.19a1.22,1.22,0,0,0,.61,2.28Z"/><path class="c" d="M38.42,62.68l-2.31.81a1.23,1.23,0,0,0-.74,1.56,1.21,1.21,0,0,0,1.56.74l2.3-.81a1.22,1.22,0,1,0-.81-2.3Z"/><path class="c" d="M36.1,51.9a1.22,1.22,0,0,0,1.64-.53h0l1.18-2.27a1.22,1.22,0,0,0-.53-1.64,1.21,1.21,0,0,0-1.64.52l-1.18,2.27A1.23,1.23,0,0,0,36.1,51.9Z"/><path class="c" d="M28.66,23l.22,0,2.44-.45a1.22,1.22,0,0,0-.44-2.4l-2.44.45A1.22,1.22,0,0,0,28.66,23Z"/><path class="c" d="M23.1,73h0l1.62.16h.12A1.22,1.22,0,0,0,25,70.77l-1.62-.16A1.23,1.23,0,0,0,22,71.7,1.22,1.22,0,0,0,23.1,73Z"/><path class="c" d="M65.67,30.28a1.22,1.22,0,0,0,1.51-1.92l-.89-.69a1.22,1.22,0,1,0-1.51,1.91Z"/><path class="d" d="M88.05,54.46a1.21,1.21,0,0,0-.43,1.67l1,1.72a1.22,1.22,0,0,0,1.27.57c.23-.74.42-1.48.58-2.24l-.76-1.29A1.21,1.21,0,0,0,88.05,54.46Z"/><path class="d" d="M90.79,27.76a1.21,1.21,0,0,0-1.47-.19L52,48.94a1.22,1.22,0,0,0,0,2.12L89.32,72.44a1.23,1.23,0,0,0,1.47-.2,31.45,31.45,0,0,0,0-44.47ZM89.71,69.85h0l-2.2-1.26a31.37,31.37,0,0,0,4.65-28,1.22,1.22,0,0,0-2.34.68v0a28.88,28.88,0,0,1,.65,14.83l.26.43a1.22,1.22,0,0,1-.44,1.67,1.12,1.12,0,0,1-.4.14,28.94,28.94,0,0,1-4.52,9L55,50,85.38,32.63a29.79,29.79,0,0,1,3,4.93,1.22,1.22,0,1,0,2.2-1,30.67,30.67,0,0,0-3-5.11l2.2-1.25A29,29,0,0,1,89.71,69.85Z"/><path class="d" d="M90.3,58.28a1.22,1.22,0,0,0,.44-1.67l-.26-.43c-.16.76-.35,1.5-.58,2.24A1.12,1.12,0,0,0,90.3,58.28Z"/><path class="d" d="M79.44,37.67a8,8,0,0,0-3.6.85,1.22,1.22,0,0,0,1.1,2.18,5.56,5.56,0,1,1-2.24,2.07,1.22,1.22,0,1,0-2.08-1.28,8,8,0,1,0,6.82-3.82Z"/><path class="d" d="M81.41,46.88h1.53a1.22,1.22,0,1,0,0-2.44H81.41a1.22,1.22,0,1,0,0,2.44Z"/><path class="d" d="M75.35,44.44a1.22,1.22,0,1,0,0,2.44h1.91a1.22,1.22,0,1,0,0-2.44Z"/><path class="d" d="M79,46.83a1.22,1.22,0,0,0-1.22,1.22v1.33a1.22,1.22,0,1,0,2.44,0V48.05A1.22,1.22,0,0,0,79,46.83Z"/><path class="d" d="M79,40.34a1.22,1.22,0,0,0-1.22,1.22v1.72a1.22,1.22,0,0,0,2.44,0V41.56A1.21,1.21,0,0,0,79,40.34Z"/><path class="d" d="M79.18,55.18a3.18,3.18,0,0,0-2.09.74,3.09,3.09,0,0,0-.2,4.36l.21.21a3.21,3.21,0,0,0,2.08.74,3,3,0,1,0,0-6Zm0,3.61a.57.57,0,0,1-.65-.59c0-.48.35-.58.65-.58a.74.74,0,0,1,.49.16.51.51,0,0,1,.16.42C79.83,58.69,79.47,58.79,79.18,58.79Z"/><path class="d" d="M66.42,48.33a3,3,0,0,0-3.09,3,2.91,2.91,0,0,0,1,2.28,3.17,3.17,0,0,0,2.08.75,3,3,0,1,0,0-6.05Zm0,3.61h0a.57.57,0,0,1-.65-.59c0-.48.35-.58.65-.58a.77.77,0,0,1,.49.15.5.5,0,0,1,.16.43C67.07,51.84,66.72,51.94,66.42,51.94Z"/></svg>