<svg xmlns="http://www.w3.org/2000/svg" viewBox="0 0 100 100"><defs><style>.a{fill:#e6e7e8;}.b{fill:none;}.c{fill:#21409a;}.d{fill:#ec008c;}</style></defs><path class="a" d="M31,10.41a7.7,7.7,0,0,1,7.69-7.7H31.9a7.7,7.7,0,0,0-7.69,7.7v3.16H31Z"/><rect class="a" x="24.21" y="16.29" width="6.79" height="64.71"/><path class="a" d="M31,89.59V83.71H24.21v5.88a7.7,7.7,0,0,0,7.69,7.7h6.79A7.7,7.7,0,0,1,31,89.59Z"/><path class="b" d="M50,92.53a2,2,0,1,0-2-2A2,2,0,0,0,50,92.53Z"/><path class="b" d="M24.21,89.59a7.7,7.7,0,0,0,7.69,7.7H68.1a7.7,7.7,0,0,0,7.69-7.7V83.71H24.21ZM50,85.75a4.75,4.75,0,1,1-4.75,4.75A4.75,4.75,0,0,1,50,85.75Z"/><path class="b" d="M68.1,2.71H31.9a7.7,7.7,0,0,0-7.69,7.7v3.16H61.09a1.36,1.36,0,0,1,0,2.72H24.21V81H75.79V16.29H72.62a1.36,1.36,0,0,1,0-2.72h3.17V10.41A7.7,7.7,0,0,0,68.1,2.71Zm0,13.58H65.54a1.36,1.36,0,0,1,0-2.72h2.52a1.36,1.36,0,0,1,0,2.72Z"/><path class="c" d="M68.1,0H31.9A10.43,10.43,0,0,0,21.49,10.41V89.59A10.43,10.43,0,0,0,31.9,100H68.1A10.43,10.43,0,0,0,78.51,89.59V10.41A10.43,10.43,0,0,0,68.1,0Zm7.69,89.59a7.7,7.7,0,0,1-7.69,7.7H31.9a7.7,7.7,0,0,1-7.69-7.7V83.71H75.79Zm0-76H72.62a1.36,1.36,0,0,0,0,2.72h3.17V81H24.21V16.29H61.09a1.36,1.36,0,0,0,0-2.72H24.21V10.41a7.7,7.7,0,0,1,7.69-7.7H68.1a7.7,7.7,0,0,1,7.69,7.7Z"/><path class="c" d="M68.06,13.57H65.54a1.36,1.36,0,0,0,0,2.72h2.52a1.36,1.36,0,0,0,0-2.72Z"/><path class="d" d="M50,95.25a4.75,4.75,0,1,0-4.75-4.75A4.75,4.75,0,0,0,50,95.25Zm0-6.79a2,2,0,1,1-2,2A2,2,0,0,1,50,88.46Z"/></svg>