<svg xmlns="http://www.w3.org/2000/svg" viewBox="0 0 100 100"><defs><style>.a{fill:#e6e7e8;}.b{fill:none;}.c{fill:#21409a;}.d{fill:#ec008c;}</style></defs><path class="a" d="M58.44,93.67A43.79,43.79,0,0,1,28.35,18.24,43.72,43.72,0,1,0,80.09,87.89,43.31,43.31,0,0,1,58.44,93.67Z"/><path class="b" d="M52.28,15.48c-.75,0-1.51-.07-2.28-.07s-1.49,0-2.23.07l2.31,4Z"/><path class="b" d="M9.4,54c0,.73-.06,1.47-.06,2.21s0,1.59.07,2.37l3.93-2.34Z"/><path class="b" d="M54.42,3.59A.64.64,0,0,0,53.79,3H46.21a.64.64,0,0,0-.64.64h0a.64.64,0,0,0,.64.63h7.58A.63.63,0,0,0,54.42,3.59Z"/><path class="b" d="M47.8,97c.73,0,1.46.06,2.2.06s1.51,0,2.25-.07l-2.17-3.84Z"/><path class="b" d="M52.15,54.72a3,3,0,0,0-4.3,0,3.07,3.07,0,0,0,0,4.34v0a3,3,0,0,0,4.29,0A3.07,3.07,0,0,0,52.15,54.72Z"/><path class="b" d="M50,50.87h0a6,6,0,0,1,6,6L68.65,37.67,49.87,50.88Z"/><path class="b" d="M43,53a1.93,1.93,0,0,1,.35-.35,1.47,1.47,0,0,1,2.06.33c.1-.12.21-.23.32-.35l.37-.34a1.17,1.17,0,0,1-.35-.35,1.47,1.47,0,0,1,.36-2.05l11.44-8A16,16,0,0,0,50,40,16.27,16.27,0,0,0,35.59,63.66Z"/><path class="b" d="M44.55,96.68l4.29-7.24a1.43,1.43,0,0,1,1.28-.72,1.46,1.46,0,0,1,1.27.75l4.08,7.21h0a40.84,40.84,0,0,0,34.8-34.83L83,57.5a1.52,1.52,0,0,1-.53-.54A1.48,1.48,0,0,1,83,55l7.3-4.15a40.81,40.81,0,0,0-34.82-35L51.4,23.24a1.51,1.51,0,0,1-1.28.81h0a1.52,1.52,0,0,1-1.28-.79l-4.29-7.48a40.83,40.83,0,0,0-34.84,35L17,55a1.42,1.42,0,0,1,.54.52,1.48,1.48,0,0,1-.51,2l-7.3,4.35A40.83,40.83,0,0,0,44.55,96.68ZM24,80.29l9.74-14A19.17,19.17,0,0,1,60.22,40l13.08-9.2a1.48,1.48,0,0,1,2.08,2L66.45,46.38A19.24,19.24,0,0,1,50,75.45a19.07,19.07,0,0,1-9.63-2.61L26,82.36a1.47,1.47,0,0,1-2-2.07Z"/><path class="b" d="M57,60.74a1.34,1.34,0,0,1-.37.38,1.47,1.47,0,0,1-2.06-.33l-.32.36a3.8,3.8,0,0,1-.37.33,1.56,1.56,0,0,1,.38.39,1.48,1.48,0,0,1-.42,2L43.18,71A16,16,0,0,0,50,72.49a16.27,16.27,0,0,0,14.6-23.3Z"/><path class="b" d="M49.86,62.91A6,6,0,0,1,44,56.77L30.85,75.61,50,62.91Z"/><path class="b" d="M90.59,58.6c0-.78.07-1.57.07-2.37s0-1.48-.06-2.21l-3.94,2.24Z"/><path class="c" d="M50,100a43.77,43.77,0,0,0,1.27-87.51v1.33a1.48,1.48,0,0,1-3,0V12.5A43.77,43.77,0,0,0,50,100Zm0-3c-.74,0-1.47,0-2.2-.06h0l2.28-3.85L52.25,97C51.51,97,50.76,97.05,50,97.05ZM90.66,56.23c0,.8,0,1.59-.07,2.37l-3.93-2.34L90.6,54C90.64,54.75,90.66,55.49,90.66,56.23ZM50,15.41c.77,0,1.53,0,2.28.07l-2.2,4-2.31-4C48.51,15.43,49.25,15.41,50,15.41ZM9.34,56.23c0-.74,0-1.48.06-2.21l3.94,2.24L9.41,58.6C9.37,57.82,9.34,57,9.34,56.23ZM17,57.5a1.48,1.48,0,0,0,.51-2A1.42,1.42,0,0,0,17,55L9.7,50.79a40.83,40.83,0,0,1,34.84-35l4.29,7.48a1.52,1.52,0,0,0,1.28.79h0a1.51,1.51,0,0,0,1.28-.81l4.08-7.43a40.81,40.81,0,0,1,34.82,35L83,55a1.48,1.48,0,0,0-.56,2,1.52,1.52,0,0,0,.53.54l7.3,4.35a40.84,40.84,0,0,1-34.8,34.83h0l-4.08-7.21a1.46,1.46,0,0,0-1.27-.75,1.43,1.43,0,0,0-1.28.72l-4.29,7.24A40.83,40.83,0,0,1,9.73,61.85Z"/><polygon class="c" points="47.8 96.99 47.8 96.99 47.8 96.99 47.8 96.99"/><path class="d" d="M51.27,12.49V7.17h2.52a3.59,3.59,0,1,0,0-7.17H46.21a3.59,3.59,0,1,0,0,7.17h2.1V12.5c.56,0,1.12,0,1.69,0ZM46.21,4.22a.64.64,0,0,1-.64-.63h0A.64.64,0,0,1,46.21,3h7.58a.64.64,0,0,1,.63.64.63.63,0,0,1-.63.63Z"/><path class="c" d="M49.79,15.3a1.48,1.48,0,0,0,1.48-1.48V12.49l-1.27,0c-.57,0-1.13,0-1.69,0v1.32A1.48,1.48,0,0,0,49.79,15.3Z"/><path class="d" d="M26,82.36l14.36-9.52A19.13,19.13,0,0,0,69.15,56.23a19.28,19.28,0,0,0-2.7-9.85L75.38,32.8a1.48,1.48,0,0,0-2.08-2L60.22,40a19.19,19.19,0,0,0-26.5,26.36L24,80.29a1.47,1.47,0,0,0,2,2.07Zm24-9.87A16,16,0,0,1,43.18,71l10.66-7.07a1.48,1.48,0,0,0,.42-2,1.56,1.56,0,0,0-.38-.39,3.8,3.8,0,0,0,.37-.33l.32-.36a1.47,1.47,0,0,0,2.06.33,1.34,1.34,0,0,0,.37-.38l7.6-11.55A16.27,16.27,0,0,1,50,72.49ZM47.86,59.08v0a3.07,3.07,0,0,1,0-4.34,3,3,0,0,1,4.3,0,3.07,3.07,0,0,1,0,4.34A3,3,0,0,1,47.86,59.08ZM68.65,37.67,56,56.89a6,6,0,0,0-6-6h-.13ZM50,40a16,16,0,0,1,7.57,1.88l-11.44,8A1.47,1.47,0,0,0,45.77,52a1.17,1.17,0,0,0,.35.35l-.37.34c-.11.12-.22.23-.32.35a1.47,1.47,0,0,0-2.06-.33A1.93,1.93,0,0,0,43,53L35.59,63.66A16.27,16.27,0,0,1,50,40Zm-6,16.8a6,6,0,0,0,5.86,6.14H50L30.85,75.61Z"/></svg>