<svg xmlns="http://www.w3.org/2000/svg" viewBox="0 0 100 100"><defs><style>.a{fill:#e6e7e8;}.b{fill:none;}.c{fill:#21409a;}.d{fill:#ec008c;}</style></defs><path class="a" d="M25.84,28.28V16.51a5.35,5.35,0,0,1,5.32-5.31H25a5.35,5.35,0,0,0-5.32,5.31V28.28A5.29,5.29,0,0,0,25,33.51h6.2A5.29,5.29,0,0,1,25.84,28.28Z"/><path class="a" d="M10.07,53.05,20.53,45a15.31,15.31,0,0,1,9.34-3.21h-6.2A15.35,15.35,0,0,0,14.33,45L3.88,53.05,14.36,61a15.27,15.27,0,0,0,9.25,3.09H29.8A15.27,15.27,0,0,1,20.56,61Z"/><path class="b" d="M31.44,97.52h32a6,6,0,0,0-5.86-5.37H37.3A6,6,0,0,0,31.44,97.52Z"/><rect class="b" x="44.22" y="65.31" width="6.4" height="24.37"/><path class="b" d="M84.91,29.36l9.17-7.07-9.19-7a14.13,14.13,0,0,0-8.5-2.88H25a4.12,4.12,0,0,0-4.08,4.07V28.28a4,4,0,0,0,4.08,4H76.33A14.09,14.09,0,0,0,84.91,29.36ZM27.08,17H25.63a1.24,1.24,0,1,1,0-2.47h1.45a1.24,1.24,0,1,1,0,2.47ZM56,17H30.8a1.24,1.24,0,1,1,0-2.47H56A1.24,1.24,0,1,1,56,17Z"/><rect class="b" x="44.22" y="34.74" width="6.4" height="5.78"/><path class="b" d="M47.42,2.48a3.2,3.2,0,0,0-3.2,3.2V10h6.4V5.68A3.2,3.2,0,0,0,47.42,2.48Z"/><path class="c" d="M27.08,14.51H25.63a1.24,1.24,0,1,0,0,2.47h1.45a1.24,1.24,0,1,0,0-2.47Z"/><path class="c" d="M56,14.51H30.8a1.24,1.24,0,1,0,0,2.47H56a1.24,1.24,0,1,0,0-2.47Z"/><path class="c" d="M44.22,33.71v1h6.4v-1H53.1v1H76.33a16.58,16.58,0,0,0,10.09-3.41l10.46-8a1.23,1.23,0,0,0,.23-1.72,1.36,1.36,0,0,0-.24-.24h0l-10.48-8a16.72,16.72,0,0,0-10-3.38H53.1v1.28H50.62V10h-6.4v1.28H41.74V10H25a6.59,6.59,0,0,0-6.55,6.55V28.28A6.51,6.51,0,0,0,25,34.74H41.74v-1ZM20.88,28.28V16.51A4.12,4.12,0,0,1,25,12.44H76.39a14.13,14.13,0,0,1,8.5,2.88l9.19,7-9.17,7.07a14.09,14.09,0,0,1-8.58,2.91H25A4,4,0,0,1,20.88,28.28Z"/><path class="c" d="M50.62,41.77V40.53h-6.4v1.24H41.74V40.53H32.45a1.24,1.24,0,1,0,0,2.47H75a4.14,4.14,0,0,1,4.08,4.09V58.86a4,4,0,0,1-4.08,4H23.61A14.14,14.14,0,0,1,15.11,60L5.92,53,15.09,46a14.19,14.19,0,0,1,8.58-3h4.65a1.24,1.24,0,1,0,0-2.47H23.67A16.55,16.55,0,0,0,13.58,44L3.12,52.07a1.27,1.27,0,0,0-.22,1.76,1.58,1.58,0,0,0,.23.22L13.61,62a16.67,16.67,0,0,0,10,3.33H41.74V64.07h2.48v1.24h6.4V64.07H53.1v1.24H75a6.51,6.51,0,0,0,6.56-6.45V47.09A6.61,6.61,0,0,0,75,40.53H53.1v1.24Z"/><path class="d" d="M50.62,89.67h-6.4V65.31H41.74V89.67H37.3a8.41,8.41,0,0,0-8.36,8.42v.72a1.19,1.19,0,0,0,1.2,1.19H64.66a1.2,1.2,0,0,0,1.24-1.15v-.76a8.41,8.41,0,0,0-8.36-8.42H53.1V65.31H50.62Zm6.92,2.48a6,6,0,0,1,5.86,5.37h-32a6,6,0,0,1,5.86-5.37Z"/><rect class="c" x="50.62" y="64.07" width="2.48" height="1.24"/><rect class="c" x="41.74" y="64.07" width="2.48" height="1.24"/><rect class="d" x="50.62" y="34.74" width="2.48" height="5.78"/><rect class="c" x="50.62" y="33.71" width="2.48" height="1.03"/><rect class="c" x="50.62" y="40.53" width="2.48" height="1.24"/><rect class="d" x="41.74" y="34.74" width="2.48" height="5.78"/><rect class="c" x="41.74" y="33.71" width="2.48" height="1.03"/><rect class="c" x="41.74" y="40.53" width="2.48" height="1.24"/><path class="d" d="M44.22,5.68a3.2,3.2,0,1,1,6.4,0V10H53.1V5.68a5.68,5.68,0,0,0-11.36,0V10h2.48Z"/><polygon class="c" points="44.22 11.24 44.22 9.96 41.74 9.96 41.74 11.25 44.22 11.24"/><polygon class="c" points="50.62 11.25 53.1 11.24 53.1 9.96 50.62 9.96 50.62 11.25"/></svg>