<svg xmlns="http://www.w3.org/2000/svg" viewBox="0 0 100 100"><defs><style>.a{fill:#e6e7e8;}.b{fill:none;}.c{fill:#21409a;}.d{fill:#ec008c;}</style></defs><path class="a" d="M51.42,55.17h6.1V94.51h-6.1Z"/><path class="a" d="M26.42,37.13h6.1V94.51h-6.1Z"/><path class="a" d="M3.2,18,2.45,94.51h6.1L9.29,18Z"/><path class="a" d="M77.24,71.14l-.3,23.37H83l.3-23.37Z"/><polygon class="b" points="23.98 18.02 3.2 18.02 2.45 94.51 23.98 94.51 23.98 18.02"/><rect class="b" x="26.42" y="37.14" width="22.56" height="57.37"/><polygon class="b" points="74.81 69.92 74.81 55.17 51.42 55.17 51.42 94.51 74.5 94.51 74.81 69.92"/><polygon class="b" points="97.55 71.14 77.24 71.14 76.94 94.51 97.55 94.51 97.55 71.14"/><path class="c" d="M1.21,97H98.77A1.22,1.22,0,0,0,100,95.73V69.92a1.22,1.22,0,0,0-1.22-1.22H77.25V54A1.21,1.21,0,0,0,76,52.74H51.42V35.92a1.21,1.21,0,0,0-1.21-1.22H26.42V16.8a1.22,1.22,0,0,0-1.22-1.22H2A1.22,1.22,0,0,0,.77,16.79L0,95.71A1.22,1.22,0,0,0,1.21,97Zm76-25.81H97.55V94.51H76.94Zm-25.82-16H74.81V69.92L74.5,94.51H51.42Zm-25-18H49V94.51H26.42ZM3.2,18H24V94.51H2.45Z"/><path class="d" d="M31.1,15.74a1.22,1.22,0,0,0,1.22-1.22V7.68C48.6,27.22,67.67,41.94,89,51.48c3,1.36,6.18,2.63,9.32,3.78A1.22,1.22,0,0,0,99.21,53h0C96.1,51.84,93,50.59,90,49.25,68.77,39.77,49.83,25.05,33.67,5.49h7.54a1.22,1.22,0,0,0,0-2.44H30.75l-.06,0h-.05l-.06,0,0,0-.06,0,0,0-.06,0,0,0h0l0,0,0,0,0,0a1.14,1.14,0,0,0-.18.25h0l0,.06,0,0v0a2,2,0,0,0-.07.26v0a.09.09,0,0,0,0,.05v.08h0V14.52A1.22,1.22,0,0,0,31.1,15.74Z"/></svg>