<svg xmlns="http://www.w3.org/2000/svg" viewBox="0 0 100 100"><defs><style>.a{fill:#e6e7e8;}.b{fill:none;}.c{fill:#21409a;}.d{fill:#ec008c;}</style></defs><path class="a" d="M61.16,3.12a4.57,4.57,0,0,0-4.57,4.57h0V11L29.66,27.67a4.57,4.57,0,1,0-9.14,0v4.57H4.12A2.74,2.74,0,0,0,1.38,35h0v8.52a2.74,2.74,0,0,1,2.74-2.74h16.4V36.21a4.57,4.57,0,0,1,9.14,0L56.59,19.47V16.21a4.57,4.57,0,0,1,9.14,0h0V7.69A4.57,4.57,0,0,0,61.16,3.12Z"/><path class="b" d="M74.11,51.11a8.21,8.21,0,0,0-7-9.24V58.13A8.21,8.21,0,0,0,74.11,51.11Z"/><path class="b" d="M55.38,31a1.28,1.28,0,0,1,2.55,0V92.31a1,1,0,0,0,0,.17,3.29,3.29,0,0,0,3.47,3.12,3.36,3.36,0,0,0,3.12-3.39V7.53A3.3,3.3,0,0,0,61.05,4.4a3.37,3.37,0,0,0-3.12,3.39V22.52a1.28,1.28,0,1,1-2.55,0V13.21L30.88,28.38V71.61L55.38,86.7Z"/><path class="b" d="M25,75.61a3.3,3.3,0,0,0,3.3-3.3V27.69a3.31,3.31,0,0,0-6.61,0V72.31A3.3,3.3,0,0,0,25,75.61Z"/><path class="b" d="M4.12,66.4H19.17V33.6h-15A1.49,1.49,0,0,0,2.56,35V65A1.49,1.49,0,0,0,4.12,66.4Zm1.2-28.81a1.28,1.28,0,0,1,2.56,0v1.2a1.28,1.28,0,0,1-2.56,0Zm0,6a1.28,1.28,0,0,1,2.56,0v8.65a1.28,1.28,0,0,1-2.56,0Z"/><path class="c" d="M4.12,69H19.17v3.35a5.88,5.88,0,0,0,11.37,2.07L55.38,89.7v2.48a5.94,5.94,0,0,0,5.66,6,5.87,5.87,0,0,0,6.05-5.68V60.7a10.76,10.76,0,0,0,0-21.41V7.69a5.86,5.86,0,0,0-5.88-5.85H61a5.93,5.93,0,0,0-5.66,6V10.2L30.56,25.61a5.89,5.89,0,0,0-11.39,2.08V31h-15A4.06,4.06,0,0,0,0,35V65A4.06,4.06,0,0,0,4.12,69Zm63-10.83V41.87a8.21,8.21,0,0,1,0,16.26ZM30.88,28.38l24.5-15.17v9.31a1.28,1.28,0,1,0,2.55,0V7.79A3.37,3.37,0,0,1,61.05,4.4a3.3,3.3,0,0,1,3.48,3.13V92.21a3.36,3.36,0,0,1-3.12,3.39,3.29,3.29,0,0,1-3.47-3.12,1,1,0,0,1,0-.17V31a1.28,1.28,0,0,0-2.55,0V86.7L30.88,71.61Zm-9.16-.69a3.31,3.31,0,0,1,6.61,0V72.31a3.31,3.31,0,0,1-6.61,0ZM2.56,35a1.49,1.49,0,0,1,1.56-1.4H19.17V66.4h-15A1.49,1.49,0,0,1,2.56,65Z"/><path class="c" d="M6.6,53.48a1.27,1.27,0,0,0,1.28-1.27V43.56a1.28,1.28,0,0,0-2.56,0v8.65A1.28,1.28,0,0,0,6.6,53.48Z"/><path class="c" d="M6.6,40.07a1.28,1.28,0,0,0,1.28-1.28v-1.2a1.28,1.28,0,0,0-2.56,0v1.2A1.29,1.29,0,0,0,6.6,40.07Z"/><path class="d" d="M81.86,62.24a1.28,1.28,0,0,0,1.81,0,17.38,17.38,0,0,0,0-24.55,1.28,1.28,0,0,0-1.81,0h0a1.28,1.28,0,0,0,0,1.81h0a14.8,14.8,0,0,1,0,20.93A1.28,1.28,0,0,0,81.86,62.24Z"/><path class="d" d="M89.8,29.75a1.29,1.29,0,0,0,0,1.8,26.08,26.08,0,0,1,0,36.89,1.28,1.28,0,0,0,1.8,1.83v0a28.63,28.63,0,0,0,0-40.5A1.28,1.28,0,0,0,89.8,29.75Z"/></svg>