<svg xmlns="http://www.w3.org/2000/svg" viewBox="0 0 100 100"><defs><style>.a{fill:#e6e7e8;}.b{fill:none;}.c{fill:#21409a;}.d{fill:#ec008c;}</style></defs><path class="a" d="M20.71,88.94A48.53,48.53,0,0,0,50,98.72V98A48.74,48.74,0,0,1,17.75,23.11c.53-.8,1.09-1.6,1.68-2.38A48.56,48.56,0,0,1,50,2V1.28a48.58,48.58,0,0,0-36.87,16.9c-.71.82-1.39,1.67-2.05,2.55a48.66,48.66,0,0,0,9.6,68.16l.07,0Z"/><path class="b" d="M25.59,49.65a42,42,0,0,0-.22-4.76,1.26,1.26,0,1,1,2.5-.27,42.75,42.75,0,0,1,.24,5.06,41.84,41.84,0,0,1-1.95,12.21,77.48,77.48,0,0,0,22.55,3.7v-63A46.47,46.47,0,0,0,43.32,3a47.1,47.1,0,0,0-28.5,15.11A42,42,0,0,1,26,36a1.21,1.21,0,0,1,.06.38,1.28,1.28,0,0,1-1.26,1.27h0a1.26,1.26,0,0,1-1.2-.87A39.89,39.89,0,0,0,13.17,20c-.38.48-.76.95-1.13,1.44A47.51,47.51,0,0,0,2.53,49.53,78,78,0,0,0,23.77,61.08,39.58,39.58,0,0,0,25.59,49.65Z"/><path class="b" d="M22.94,63.46A80.41,80.41,0,0,1,2.61,52.74a47.25,47.25,0,0,0,9.73,26.15A40.69,40.69,0,0,0,22.94,63.46Z"/><path class="b" d="M74,64.45A40.07,40.07,0,0,0,85.62,81.33c.8-.91,1.57-1.84,2.3-2.82h0A47.42,47.42,0,0,0,97.35,52.7,80,80,0,0,1,75.84,63.85Q74.93,64.17,74,64.45Z"/><path class="b" d="M71.6,65.16a80.66,80.66,0,0,1-20.37,3V97.44A48.92,48.92,0,0,0,56.64,97,47.15,47.15,0,0,0,83.91,83.18,42.46,42.46,0,0,1,71.6,65.16Z"/><path class="b" d="M25.33,64.27A43.15,43.15,0,0,1,13.92,80.84,47.35,47.35,0,0,0,48.71,97.43V68.11A80.71,80.71,0,0,1,25.33,64.27Z"/><path class="b" d="M70.84,62.76a41.93,41.93,0,0,1-1.59-12.41A42.61,42.61,0,0,1,84.94,17.91,47.33,47.33,0,0,0,51.23,2.56v63A77.42,77.42,0,0,0,70.84,62.76ZM61,10.32a1.24,1.24,0,0,1,1.57-.83A41.23,41.23,0,0,1,78,18.1,1.26,1.26,0,1,1,76.32,20,38.89,38.89,0,0,0,61.83,11.9h0A1.24,1.24,0,0,1,61,10.32ZM55,8c1,.1,2,.25,3,.43a1.24,1.24,0,0,1,1,1.24,1.25,1.25,0,0,1-1.26,1.26l-.22,0c-.94-.17-1.9-.31-2.85-.41A1.26,1.26,0,0,1,55,8Z"/><path class="b" d="M71.77,50.4a39.52,39.52,0,0,0,1.48,11.65L75,61.47a77.86,77.86,0,0,0,22.39-12A47.34,47.34,0,0,0,86.6,19.8,40.09,40.09,0,0,0,71.77,50.4Z"/><path class="b" d="M70.84,62.76a41.93,41.93,0,0,1-1.59-12.41A42.61,42.61,0,0,1,84.94,17.91,47.33,47.33,0,0,0,51.23,2.56v63A77.42,77.42,0,0,0,70.84,62.76Z"/><path class="b" d="M51.23,2.56V1.31H48.71V2.55l1.37,0C50.47,2.53,50.85,2.55,51.23,2.56Z"/><path class="b" d="M2.53,49.53,2,49.12l0,0-1.54,2,0,0c.71.56,1.44,1.1,2.18,1.64-.06-1-.09-1.89-.09-2.85C2.52,49.77,2.53,49.65,2.53,49.53Z"/><path class="b" d="M25.59,49.65a42,42,0,0,0-.22-4.76,1.26,1.26,0,1,1,2.5-.27,42.75,42.75,0,0,1,.24,5.06,41.84,41.84,0,0,1-1.95,12.21,77.48,77.48,0,0,0,22.55,3.7v-63A46.47,46.47,0,0,0,43.32,3a47.1,47.1,0,0,0-28.5,15.11c-.33-.31-.64-.63-1-.93l-1.67,1.9c.34.3.67.63,1,.95-.38.48-.76.95-1.13,1.44A47.51,47.51,0,0,0,2.53,49.53,78,78,0,0,0,23.77,61.08,39.58,39.58,0,0,0,25.59,49.65Z"/><path class="b" d="M87.52,19.06l-1.53-2c-.36.27-.7.56-1,.85.57.62,1.12,1.25,1.66,1.89C86.91,19.55,87.2,19.3,87.52,19.06Z"/><path class="b" d="M85,84.08l1.59-2c-.32-.26-.61-.53-.92-.8-.56.63-1.12,1.25-1.71,1.85C84.26,83.48,84.59,83.79,85,84.08Z"/><path class="b" d="M22.94,63.46A80.41,80.41,0,0,1,2.61,52.74a47.25,47.25,0,0,0,9.73,26.15A40.69,40.69,0,0,0,22.94,63.46Z"/><path class="b" d="M11.28,79.85l1.63,1.91c.35-.3.68-.61,1-.92-.54-.63-1.07-1.28-1.58-2C12,79.21,11.64,79.54,11.28,79.85Z"/><path class="b" d="M71.77,50.4a39.52,39.52,0,0,0,1.48,11.65L75,61.47a77.86,77.86,0,0,0,22.39-12A47.34,47.34,0,0,0,86.6,19.8,40.09,40.09,0,0,0,71.77,50.4Z"/><path class="b" d="M25.33,64.27A43.15,43.15,0,0,1,13.92,80.84,47.35,47.35,0,0,0,48.71,97.43V68.11A80.71,80.71,0,0,1,25.33,64.27Z"/><path class="b" d="M74,64.45A40.07,40.07,0,0,0,85.62,81.33c.8-.91,1.57-1.84,2.3-2.82h0A47.42,47.42,0,0,0,97.35,52.7,80,80,0,0,1,75.84,63.85Q74.93,64.17,74,64.45Z"/><path class="b" d="M48.71,97.43v1.46h2.52V97.44c-.45,0-.9,0-1.35,0Z"/><path class="b" d="M71.6,65.16a80.66,80.66,0,0,1-20.37,3V97.44A48.92,48.92,0,0,0,56.64,97,47.15,47.15,0,0,0,83.91,83.18,42.46,42.46,0,0,1,71.6,65.16Z"/><path class="c" d="M99.52,51.08c-.71.55-1.44,1.09-2.17,1.62a47.42,47.42,0,0,1-9.43,25.81h0c-.73,1-1.5,1.91-2.3,2.82.31.27.6.54.92.8l-1.59,2c-.36-.29-.69-.6-1-.9A47.15,47.15,0,0,1,56.64,97a48.92,48.92,0,0,1-5.41.45v1.45H48.71V97.43A47.35,47.35,0,0,1,13.92,80.84c-.33.31-.66.62-1,.92l-1.63-1.91c.36-.31.71-.64,1.06-1A47.25,47.25,0,0,1,2.61,52.74C1.87,52.2,1.14,51.66.43,51.1l0,0,1.54-2,0,0,.56.41a47.51,47.51,0,0,1,9.51-28c.37-.49.75-1,1.13-1.44-.33-.32-.66-.65-1-.95l1.67-1.9c.34.3.65.62,1,.93A47.1,47.1,0,0,1,43.32,3a46.47,46.47,0,0,1,5.39-.46V1.31h2.52V2.56A47.33,47.33,0,0,1,84.94,17.91c.35-.29.69-.58,1-.85l1.53,2c-.32.24-.61.49-.92.74A47.34,47.34,0,0,1,97.43,49.5c.17-.14.36-.27.54-.41h0a1.26,1.26,0,0,1,1.76.22,1.1,1.1,0,0,1,.22.43A48.47,48.47,0,0,0,99.46,43a50,50,0,1,0-49.58,57,51.43,51.43,0,0,0,7.12-.5,50,50,0,0,0,43-49.14A1.27,1.27,0,0,1,99.52,51.08Z"/><path class="d" d="M73.25,62.05A39.52,39.52,0,0,1,71.77,50.4,40.09,40.09,0,0,1,86.6,19.8c-.54-.64-1.09-1.27-1.66-1.89A42.61,42.61,0,0,0,69.25,50.35a41.93,41.93,0,0,0,1.59,12.41,77.42,77.42,0,0,1-19.61,2.83v-63c-.38,0-.76,0-1.15,0l-1.37,0v63a77.48,77.48,0,0,1-22.55-3.7,41.84,41.84,0,0,0,1.95-12.21,42.75,42.75,0,0,0-.24-5.06,1.26,1.26,0,1,0-2.5.27,42,42,0,0,1,.22,4.76,39.58,39.58,0,0,1-1.82,11.43A78,78,0,0,1,2.53,49.53c0,.12,0,.24,0,.36,0,1,0,1.9.09,2.85A80.41,80.41,0,0,0,22.94,63.46a40.69,40.69,0,0,1-10.6,15.43c.51.67,1,1.32,1.58,2A43.15,43.15,0,0,0,25.33,64.27a80.71,80.71,0,0,0,23.38,3.84V97.43l1.17,0c.45,0,.9,0,1.35,0V68.11a80.66,80.66,0,0,0,20.37-3,42.46,42.46,0,0,0,12.31,18c.59-.6,1.15-1.22,1.71-1.85A40.07,40.07,0,0,1,74,64.45q.92-.28,1.83-.6A80,80,0,0,0,97.35,52.7c.05-.87.09-1.73.09-2.6,0-.2,0-.4,0-.6A77.86,77.86,0,0,1,75,61.47Z"/><path class="d" d="M100,49.74c0,.2,0,.4,0,.6A1.22,1.22,0,0,0,100,49.74Z"/><path class="c" d="M85,84.08l1.59-2c-.32-.26-.61-.53-.92-.8-.56.63-1.12,1.25-1.71,1.85C84.26,83.48,84.59,83.79,85,84.08Z"/><path class="c" d="M51.23,2.56V1.31H48.71V2.55l1.37,0C50.47,2.53,50.85,2.55,51.23,2.56Z"/><path class="c" d="M87.52,19.06l-1.53-2c-.36.27-.7.56-1,.85.57.62,1.12,1.25,1.66,1.89C86.91,19.55,87.2,19.3,87.52,19.06Z"/><path class="c" d="M98,49.09h0c-.18.14-.37.27-.54.41,0,.2,0,.4,0,.6,0,.87,0,1.73-.09,2.6.73-.53,1.46-1.07,2.17-1.62a1.27,1.27,0,0,0,.44-.74c0-.2,0-.4,0-.6a1.1,1.1,0,0,0-.22-.43A1.26,1.26,0,0,0,98,49.09Z"/><path class="c" d="M48.71,97.43v1.46h2.52V97.44c-.45,0-.9,0-1.35,0Z"/><path class="c" d="M2.53,49.53,2,49.12l0,0-1.54,2,0,0c.71.56,1.44,1.1,2.18,1.64-.06-1-.09-1.89-.09-2.85C2.52,49.77,2.53,49.65,2.53,49.53Z"/><path class="c" d="M11.28,79.85l1.63,1.91c.35-.3.68-.61,1-.92-.54-.63-1.07-1.28-1.58-2C12,79.21,11.64,79.54,11.28,79.85Z"/><path class="d" d="M61.81,11.89h0A38.89,38.89,0,0,1,76.32,20,1.26,1.26,0,1,0,78,18.1,41.23,41.23,0,0,0,62.55,9.49a1.26,1.26,0,0,0-.74,2.4Z"/><path class="d" d="M54.78,10.49c.95.1,1.91.24,2.85.41l.22,0a1.25,1.25,0,0,0,1.26-1.26,1.24,1.24,0,0,0-1-1.24c-1-.18-2-.33-3-.43a1.26,1.26,0,0,0-.25,2.5Z"/><path class="d" d="M23.63,36.75a1.26,1.26,0,0,0,1.2.87h0a1.28,1.28,0,0,0,1.26-1.27A1.21,1.21,0,0,0,26,36,42,42,0,0,0,14.82,18.12c-.57.62-1.11,1.27-1.65,1.92A39.89,39.89,0,0,1,23.63,36.75Z"/><path class="c" d="M13.84,17.19l-1.67,1.9c.34.3.67.63,1,.95.54-.65,1.08-1.3,1.65-1.92C14.49,17.81,14.18,17.49,13.84,17.19Z"/></svg>