<svg xmlns="http://www.w3.org/2000/svg" viewBox="0 0 100 100"><defs><style>.a{fill:#e6e7e8;}.b{fill:none;}.c{fill:#21409a;}.d{fill:#ec008c;}</style></defs><path class="a" d="M10.94,23.1A37.67,37.67,0,0,0,2.46,45.75H6.53a37.55,37.55,0,0,1,6.75-20.36C12.47,24.66,11.69,23.9,10.94,23.1Z"/><path class="a" d="M6.53,48.19H2.46a37.65,37.65,0,0,0,8.48,22.65q1.13-1.19,2.34-2.28A37.58,37.58,0,0,1,6.53,48.19Z"/><path class="a" d="M29.32,80.49a37.91,37.91,0,0,1-14.74-9.83c-.7.65-1.38,1.33-2,2A37.83,37.83,0,0,0,33.86,84.28,36.48,36.48,0,0,1,29.32,80.49Z"/><path class="a" d="M29,13.78a35.32,35.32,0,0,1,4.87-4.11A37.76,37.76,0,0,0,12.55,21.25c.68.74,1.4,1.45,2.14,2.13A37.9,37.9,0,0,1,29,13.78Z"/><path class="a" d="M53.65,66.89A24,24,0,0,1,75.6,43c-.67-.06-1.34-.09-2-.09a24,24,0,1,0,0,48c.69,0,1.36,0,2-.09A24,24,0,0,1,53.65,66.89Z"/><path class="b" d="M16.79,48.19H2.46a37.65,37.65,0,0,0,8.48,22.65A40.71,40.71,0,0,1,19.36,64,54.26,54.26,0,0,1,16.79,48.19Z"/><polygon class="b" points="71.35 70.84 82.91 76.23 77.52 64.67 71.35 70.84"/><path class="b" d="M22.34,28.82a37.7,37.7,0,0,0,16.73,4.5V9.38C31.39,13.3,25.63,20.13,22.34,28.82Z"/><path class="b" d="M19.23,45.75H39.07v-10a40.15,40.15,0,0,1-17.53-4.6A51.59,51.59,0,0,0,19.23,45.75Z"/><polygon class="b" points="64.23 57.55 69.63 69.11 75.79 62.95 64.23 57.55"/><path class="b" d="M21.54,62.79a40,40,0,0,1,17.53-4.6v-10H19.23A51.66,51.66,0,0,0,21.54,62.79Z"/><path class="b" d="M20.2,66.36a37.47,37.47,0,0,0-7.65,6.33A37.83,37.83,0,0,0,33.86,84.28,38.59,38.59,0,0,1,20.2,66.36Z"/><path class="b" d="M39.07,84.57V60.63a37.82,37.82,0,0,0-16.73,4.49C25.63,73.82,31.39,80.64,39.07,84.57Z"/><path class="b" d="M90.84,65.67h6.69A24,24,0,0,0,74.79,42.93v6.7a1.22,1.22,0,0,1-2.44,0v-6.7A24,24,0,0,0,49.61,65.67h6.7a1.22,1.22,0,0,1,0,2.44h-6.7A24,24,0,0,0,72.35,90.85V84.16a1.22,1.22,0,0,1,2.44,0v6.69A24,24,0,0,0,97.53,68.11H90.84a1.22,1.22,0,0,1,0-2.44Zm-4.3,13.6a1.22,1.22,0,0,1-1.62.59L68.74,72.31h0a1.25,1.25,0,0,1-.59-.59L60.6,55.55a1.26,1.26,0,0,1,0-1,1.24,1.24,0,0,1,1.63-.59L78.4,61.47a1.21,1.21,0,0,1,.59.59h0l7.55,16.18A1.24,1.24,0,0,1,86.54,79.27Z"/><path class="b" d="M19.37,29.93a40.19,40.19,0,0,1-8.43-6.83A37.65,37.65,0,0,0,2.46,45.75H16.79A53.92,53.92,0,0,1,19.37,29.93Z"/><path class="b" d="M46.71,84.28a38.09,38.09,0,0,0,5.77-1.46c-.51-.68-1-1.39-1.44-2.12A34.44,34.44,0,0,1,46.71,84.28Z"/><path class="b" d="M41.51,84.57a32.57,32.57,0,0,0,8.3-6.11,26.32,26.32,0,0,1-2.07-17.14,38.33,38.33,0,0,0-6.23-.7Z"/><path class="b" d="M57.59,21.73a44.22,44.22,0,0,1,2.78,5.91h0a37.45,37.45,0,0,0,7.69-6.4A37.89,37.89,0,0,0,46.7,9.66,37.27,37.27,0,0,1,57.59,21.73Z"/><path class="b" d="M55.47,22.94a33.59,33.59,0,0,0-14-13.56V33.32h0a37.22,37.22,0,0,0,16.73-4.45A42,42,0,0,0,55.47,22.94Z"/><path class="b" d="M20.2,27.59A38.5,38.5,0,0,1,33.87,9.67,37.76,37.76,0,0,0,12.55,21.25,37.85,37.85,0,0,0,20.2,27.59Z"/><path class="b" d="M41.51,35.76v10h16.2a28.19,28.19,0,0,1,3.54-2.24A51.51,51.51,0,0,0,59,31.21,39.69,39.69,0,0,1,41.51,35.76Z"/><path class="b" d="M61.21,30A54.3,54.3,0,0,1,63.64,42.4a26.46,26.46,0,0,1,9.93-1.94,27,27,0,0,1,4.05.32,37.68,37.68,0,0,0-8-17.69A40.07,40.07,0,0,1,61.21,30Z"/><path class="b" d="M41.51,58.18a40.49,40.49,0,0,1,6.85.78A26.37,26.37,0,0,1,54.9,48.19H41.51Z"/><path class="c" d="M46.71,84.28A34.44,34.44,0,0,0,51,80.7a25.5,25.5,0,0,1-1.23-2.24,32.57,32.57,0,0,1-8.3,6.11V60.62a38.33,38.33,0,0,1,6.23.7c.17-.8.38-1.59.62-2.36a40.49,40.49,0,0,0-6.85-.78v-10H54.9a27.14,27.14,0,0,1,2.81-2.44H41.51v-10A39.69,39.69,0,0,0,59,31.21a51.51,51.51,0,0,1,2.21,12.3,24.74,24.74,0,0,1,2.39-1.11A54.3,54.3,0,0,0,61.21,30a40.07,40.07,0,0,0,8.46-6.89,37.68,37.68,0,0,1,8,17.69c.87.13,1.72.31,2.56.52A40.29,40.29,0,0,0,41.48,6.7a1.22,1.22,0,0,0-.33,0H39.44a1.22,1.22,0,0,0-.33,0,40.19,40.19,0,0,0-29,13.57l-.06.05a1,1,0,0,0-.25.3,40.21,40.21,0,0,0,0,52.71,1.18,1.18,0,0,0,.25.3l.05,0a40.21,40.21,0,0,0,29,13.59l.2,0,.16,0,.83,0h.85a1.38,1.38,0,0,0,.35,0,40,40,0,0,0,12.66-2.44c-.59-.64-1.14-1.3-1.67-2A38.09,38.09,0,0,1,46.71,84.28Zm21.35-63a37.45,37.45,0,0,1-7.69,6.4h0a44.22,44.22,0,0,0-2.78-5.91A37.27,37.27,0,0,0,46.7,9.66,37.89,37.89,0,0,1,68.06,21.24ZM41.51,33.32V9.38a33.59,33.59,0,0,1,14,13.56,42,42,0,0,1,2.77,5.93,37.22,37.22,0,0,1-16.73,4.45ZM33.87,9.67A38.5,38.5,0,0,0,20.2,27.59a37.85,37.85,0,0,1-7.65-6.34A37.76,37.76,0,0,1,33.87,9.67ZM10.94,23.1a40.19,40.19,0,0,0,8.43,6.83,53.92,53.92,0,0,0-2.58,15.82H2.46A37.65,37.65,0,0,1,10.94,23.1Zm0,47.74A37.65,37.65,0,0,1,2.46,48.19H16.79A54.26,54.26,0,0,0,19.36,64,40.71,40.71,0,0,0,10.94,70.84Zm1.61,1.85a37.47,37.47,0,0,1,7.65-6.33A38.59,38.59,0,0,0,33.86,84.28,37.83,37.83,0,0,1,12.55,72.69ZM39.07,84.57c-7.68-3.93-13.44-10.75-16.73-19.45a37.82,37.82,0,0,1,16.73-4.49Zm0-26.38a40,40,0,0,0-17.53,4.6,51.66,51.66,0,0,1-2.31-14.6H39.07Zm0-12.44H19.23a51.59,51.59,0,0,1,2.31-14.59,40.15,40.15,0,0,0,17.53,4.6Zm0-12.43a37.7,37.7,0,0,1-16.73-4.5c3.29-8.69,9.05-15.52,16.73-19.44Z"/><path class="d" d="M79,62.06h0a1.21,1.21,0,0,0-.59-.59L62.23,53.92a1.24,1.24,0,0,0-1.63.59,1.26,1.26,0,0,0,0,1l7.55,16.17a1.25,1.25,0,0,0,.59.59h0l16.18,7.55a1.22,1.22,0,0,0,1.62-.59,1.24,1.24,0,0,0,0-1ZM64.23,57.55,75.79,63l-6.16,6.16Zm7.12,13.29,6.17-6.17,5.39,11.56Z"/><path class="d" d="M80.18,41.3l.12.85a1.22,1.22,0,0,1-2.43.28c-.06-.55-.16-1.1-.25-1.65a27,27,0,0,0-4.05-.32,26.46,26.46,0,0,0-9.93,1.94c0,.59.08,1.18.1,1.77h0a1.22,1.22,0,0,1-1.16,1.28h0a1.22,1.22,0,0,1-1.22-1.17c0-.25,0-.51-.06-.77a28.19,28.19,0,0,0-3.54,2.24h.41a1.22,1.22,0,1,1,0,2.44H54.9A26.37,26.37,0,0,0,48.36,59c.37.07.75.14,1.13.23h0a1.22,1.22,0,0,1,.9,1.47,1.23,1.23,0,0,1-1.48.9c-.4-.1-.8-.17-1.2-.25a26.32,26.32,0,0,0,2.07,17.14c.2-.2.41-.38.6-.59h0a1.22,1.22,0,0,1,1.77,1.67c-.37.4-.76.79-1.15,1.16.45.73.93,1.44,1.44,2.12.53-.18,1.06-.37,1.58-.58A1.22,1.22,0,0,1,55,84.52l-.8.29A26.42,26.42,0,0,0,100,66.89h0A26.46,26.46,0,0,0,80.18,41.3ZM90.84,68.11h6.69A24,24,0,0,1,74.79,90.85V84.16a1.22,1.22,0,0,0-2.44,0v6.69A24,24,0,0,1,49.61,68.11h6.7a1.22,1.22,0,0,0,0-2.44h-6.7A24,24,0,0,1,72.35,42.93v6.7a1.22,1.22,0,0,0,2.44,0v-6.7A24,24,0,0,1,97.53,65.67H90.84a1.22,1.22,0,0,0,0,2.44Z"/><path class="d" d="M52.19,79.54a1.22,1.22,0,0,0-1.77-1.67h0c-.19.21-.4.39-.6.59A25.5,25.5,0,0,0,51,80.7C51.43,80.33,51.82,79.94,52.19,79.54Z"/><path class="d" d="M48.94,61.57a1.23,1.23,0,0,0,1.48-.9,1.22,1.22,0,0,0-.9-1.47h0c-.38-.09-.76-.16-1.13-.23-.24.77-.45,1.56-.62,2.36C48.14,61.4,48.54,61.47,48.94,61.57Z"/><path class="d" d="M61.31,44.28a1.22,1.22,0,0,0,1.22,1.17h0a1.22,1.22,0,0,0,1.16-1.28h0c0-.59-.06-1.18-.1-1.77a24.74,24.74,0,0,0-2.39,1.11C61.27,43.77,61.3,44,61.31,44.28Z"/><path class="d" d="M55.63,82.93a1.22,1.22,0,0,0-1.57-.69c-.52.21-1.05.4-1.58.58.53.69,1.08,1.35,1.67,2l.8-.29A1.23,1.23,0,0,0,55.63,82.93Z"/><path class="d" d="M58.12,48.19a1.22,1.22,0,1,0,0-2.44h-.41a27.14,27.14,0,0,0-2.81,2.44Z"/><path class="d" d="M77.87,42.43a1.22,1.22,0,0,0,2.43-.28l-.12-.85c-.84-.21-1.69-.39-2.56-.52C77.71,41.33,77.81,41.88,77.87,42.43Z"/></svg>