<svg xmlns="http://www.w3.org/2000/svg" viewBox="0 0 100 100"><defs><style>.a{fill:#e6e7e8;}.b{fill:none;}.c{fill:#21409a;}.d{fill:#ec008c;}</style></defs><path class="a" d="M58.5,92.74,54.8,78a1.5,1.5,0,0,0-1.45-1.12h0c-.55,0-13.66,0-14.55.07a6.56,6.56,0,0,1-6.73-6.37.49.49,0,0,0,0-.12V58.73a1.39,1.39,0,0,0-1.34-1.46s-.05,0-.07,0H20.07a.16.16,0,0,1-.08-.06.09.09,0,0,1,0-.1l6.88-18a1.61,1.61,0,0,0,.1-.53c0-2.61,0-6.92.05-7.37A34.23,34.23,0,0,1,37.78,8c.47-.44.94-.86,1.43-1.26A34.41,34.41,0,0,0,20.6,35.46c0,.46-.05,4.76-.05,7.37a1.61,1.61,0,0,1-.1.53l-6.88,18a.08.08,0,0,0,0,.09.1.1,0,0,0,.08.06H24.23a1.41,1.41,0,0,1,1.42,1.39.22.22,0,0,1,0,.08V74.78a6.56,6.56,0,0,0,6.63,6.48h.11c.89,0,14-.06,14.55-.06h0a1.48,1.48,0,0,1,1.45,1.11L52.09,97H82.4c-.26-1.06-.6-2.53-1-4.27Z"/><path class="b" d="M52.35,22.16a8.76,8.76,0,0,0-8.76,8.76c0,3.47,1.6,5.26,4,8l.52.59a7.73,7.73,0,0,1,2.09,4.75h4.26a7.81,7.81,0,0,1,2.1-4.75l.52-.6c2.42-2.7,4-4.49,4-8A8.76,8.76,0,0,0,52.35,22.16Z"/><path class="b" d="M82.74,49.6a.31.31,0,0,1,.06-.13A32,32,0,0,0,71.51,7.66,30.63,30.63,0,0,0,56.18,3c-.29,0-.59,0-.88,0h-.39A34.36,34.36,0,0,0,20.6,35.46c0,.46-.05,4.76-.05,7.37a1.61,1.61,0,0,1-.1.53l-6.88,18a.08.08,0,0,0,0,.09.16.16,0,0,0,.08.06H24.3A1.4,1.4,0,0,1,25.64,63V74.78s0,.08,0,.12a6.55,6.55,0,0,0,6.73,6.36c.89,0,14-.06,14.55-.06h0a1.48,1.48,0,0,1,1.45,1.11L52.09,97H82.4c-.53-2.18-1.42-6-2.23-10.58C78.47,77,77.89,69.27,78.42,63.5,78.81,59.33,82.58,50,82.74,49.6Zm-31.88-41a1.5,1.5,0,0,1,3,0V15.9a1.5,1.5,0,1,1-3,0ZM37,35H29.7a1.5,1.5,0,0,1,0-3H37a1.5,1.5,0,1,1,0,3ZM39,25.25a1.5,1.5,0,0,1-2,.55L32.11,23h0a1.5,1.5,0,1,1,1.52-2.58l4.88,2.83A1.49,1.49,0,0,1,39,25.25Zm1.35-13.34a1.5,1.5,0,0,1,2,.55l2.81,4.9a1.49,1.49,0,1,1-2.59,1.49L39.84,14A1.5,1.5,0,0,1,40.39,11.91ZM54.7,54.06H49.79a1.5,1.5,0,1,1,0-3H54.7a1.5,1.5,0,1,1,0,3ZM56,50.64H48.72a1.5,1.5,0,0,1,0-3H56a1.5,1.5,0,0,1,0,3Zm3.34-9.76-.51.58c-1.84,2.07-1.26,3.63-1.26,3.64a1.6,1.6,0,0,1,.14.61,1.51,1.51,0,0,1-1.5,1.51H48.51a1.49,1.49,0,0,1-1.3-.69,1.42,1.42,0,0,1-.07-1.41c.06-.2.5-1.69-1.25-3.66l-.51-.58c-2.57-2.87-4.78-5.35-4.78-10a11.76,11.76,0,1,1,23.51,0C64.11,35.53,61.89,38,59.33,40.88ZM65.72,14l-2.82,4.9,0,0a1.49,1.49,0,1,1-2.57-1.52l2.81-4.9A1.5,1.5,0,0,1,65.72,14Zm1.43,9.26L72,20.38A1.5,1.5,0,0,1,73.53,23L68.65,25.8a1.53,1.53,0,0,1-.75.2,1.49,1.49,0,0,1-.75-2.79ZM75.22,35H68a1.5,1.5,0,0,1,0-3h7.27a1.5,1.5,0,0,1,0,3Z"/><path class="c" d="M85.48,50.79a34.77,34.77,0,0,0-.82-33.69A34.1,34.1,0,0,0,56.29,0l-1,0A37.35,37.35,0,0,0,17.61,35.29c0,.62-.05,5.68-.05,7.26L10.77,60.31a3.1,3.1,0,0,0,2.89,4.22h9V74.78a9.53,9.53,0,0,0,9.6,9.46h.21c.62,0,8.41-.06,13.3-.08l3.71,14.71A1.51,1.51,0,0,0,50.92,100h33.4a1.5,1.5,0,0,0,1.5-1.5,1.26,1.26,0,0,0-.06-.38c-.05-.21-5.58-21.18-4.36-34.34C81.73,60.21,85.15,51.62,85.48,50.79ZM80.17,86.43C81,91,81.87,94.83,82.4,97H52.09l-3.7-14.7a1.48,1.48,0,0,0-1.45-1.11h0c-.55,0-13.66,0-14.55.06a6.55,6.55,0,0,1-6.73-6.36s0-.08,0-.12V63a1.4,1.4,0,0,0-1.34-1.47H13.66a.16.16,0,0,1-.08-.06.08.08,0,0,1,0-.09l6.88-18a1.61,1.61,0,0,0,.1-.53c0-2.61,0-6.91.05-7.37A34.36,34.36,0,0,1,54.91,3h.39c.29,0,.59,0,.88,0A30.63,30.63,0,0,1,71.51,7.66,32,32,0,0,1,82.8,49.47a.31.31,0,0,0-.06.13c-.16.39-3.93,9.73-4.32,13.9C77.89,69.27,78.47,77,80.17,86.43Z"/><path class="d" d="M52.35,17.4a1.5,1.5,0,0,0,1.5-1.5V8.61a1.5,1.5,0,0,0-3,0V15.9A1.5,1.5,0,0,0,52.35,17.4Z"/><path class="d" d="M44,19.6a1.49,1.49,0,0,0,1.29-2.24l-2.81-4.9A1.5,1.5,0,0,0,39.84,14l2.82,4.9A1.51,1.51,0,0,0,44,19.6Z"/><path class="d" d="M38.49,23.21l-4.88-2.83A1.5,1.5,0,1,0,32.09,23h0L37,25.8a1.5,1.5,0,1,0,1.5-2.59Z"/><path class="d" d="M65.17,11.91a1.5,1.5,0,0,0-2.05.55l-2.81,4.9a1.49,1.49,0,1,0,2.57,1.52l0,0L65.72,14A1.5,1.5,0,0,0,65.17,11.91Z"/><path class="d" d="M67.9,26a1.53,1.53,0,0,0,.75-.2L73.53,23A1.5,1.5,0,0,0,72,20.38l-4.88,2.83A1.49,1.49,0,0,0,67.9,26Z"/><path class="d" d="M75.22,32.05H68a1.5,1.5,0,0,0,0,3h7.27a1.5,1.5,0,0,0,0-3Z"/><path class="d" d="M37,32.05H29.7a1.5,1.5,0,0,0,0,3H37a1.5,1.5,0,1,0,0-3Z"/><path class="d" d="M52.35,19.13A11.79,11.79,0,0,0,40.6,30.92c0,4.61,2.21,7.09,4.78,10l.51.58c1.75,2,1.31,3.46,1.25,3.66a1.42,1.42,0,0,0,.07,1.41,1.49,1.49,0,0,0,1.3.69H56.2a1.51,1.51,0,0,0,1.5-1.51,1.6,1.6,0,0,0-.14-.61s-.58-1.57,1.26-3.64l.51-.58c2.56-2.87,4.78-5.35,4.78-10A11.79,11.79,0,0,0,52.35,19.13ZM57.1,38.88l-.52.6a7.81,7.81,0,0,0-2.1,4.75H50.22a7.73,7.73,0,0,0-2.09-4.75l-.52-.59c-2.42-2.71-4-4.5-4-8a8.76,8.76,0,0,1,17.52,0C61.11,34.39,59.52,36.18,57.1,38.88Z"/><path class="d" d="M56,47.65H48.72a1.5,1.5,0,0,0,0,3H56a1.5,1.5,0,0,0,0-3Z"/><path class="d" d="M54.7,51.07H49.79a1.5,1.5,0,1,0,0,3H54.7a1.5,1.5,0,1,0,0-3Z"/></svg>