<svg xmlns="http://www.w3.org/2000/svg" viewBox="0 0 100 100"><defs><style>.a{fill:#e6e7e8;}.b{fill:none;}.c{fill:#ec008c;}.d{fill:#21409a;}</style></defs><path class="a" d="M33.87,90a8.31,8.31,0,0,1-8.41-8.19V18.89H23.87c-4.64,0-8.41-1.17-8.41-5.69V89.31a8.31,8.31,0,0,0,8.41,8.19H84.54V90Z"/><path class="b" d="M56.47,56.38a1.75,1.75,0,0,1-2.64,1.51l-9-5.3-9,5.3a1.71,1.71,0,0,1-1.75,0,1.76,1.76,0,0,1-.88-1.52V20.64h-9.3a10.26,10.26,0,0,1-5.49-1.59l-1.15-.73v71a6.56,6.56,0,0,0,6.66,6.44H82.79V20.64H56.47Z"/><path class="b" d="M43.92,49.05a1.77,1.77,0,0,1,1.78,0L53,53.33V20.64H36.65V53.33Z"/><path class="b" d="M23.87,17.14H72.54V4.25H23.87a6.56,6.56,0,0,0-6.66,6.44A6.57,6.57,0,0,0,23.87,17.14Z"/><path class="c" d="M34,57.9a1.71,1.71,0,0,0,1.75,0l9-5.3,9,5.3a1.75,1.75,0,0,0,2.64-1.51V20.64H53V53.33L45.7,49.05a1.77,1.77,0,0,0-1.78,0l-7.27,4.28V20.64h-3.5V56.38A1.76,1.76,0,0,0,34,57.9Z"/><path class="d" d="M74.29.75H23.87a10.08,10.08,0,0,0-10.16,9.94V89.31a10.07,10.07,0,0,0,10.16,9.94H84.54a1.76,1.76,0,0,0,1.75-1.75V18.89a1.75,1.75,0,0,0-1.75-1.75H76V2.5A1.75,1.75,0,0,0,74.29.75ZM23.87,4.25H72.54V17.14H23.87a6.57,6.57,0,0,1-6.66-6.45A6.56,6.56,0,0,1,23.87,4.25ZM82.79,20.64V95.75H23.87a6.56,6.56,0,0,1-6.66-6.44v-71l1.15.73a10.26,10.26,0,0,0,5.49,1.59H82.79Z"/></svg>