<svg xmlns="http://www.w3.org/2000/svg" viewBox="0 0 100 100"><defs><style>.a{fill:#e6e7e8;}.b{fill:none;}.c{fill:#21409a;}.d{fill:#ec008c;}</style></defs><path class="a" d="M50,4.78,47,1.17,33.83,17.56l3.58,0v.09l.12,14.59.1,11.9L37.73,56l.05,5,5.95,0-.07-8L43.56,41l-.1-11.91-.1-11.55v-.09l-3.57,0Z"/><path class="b" d="M88.39,60.52a1.39,1.39,0,0,0-1,2.38h0a1.38,1.38,0,0,0,1,.4,1.4,1.4,0,0,0,1-.42h0a1.39,1.39,0,0,0-1-2.36Z"/><rect class="b" x="42.25" y="68.65" width="3.08" height="28.97" transform="translate(-0.7 0.37) rotate(-0.48)"/><path class="b" d="M73.48,58.94v0l0,0a9.59,9.59,0,0,1-6,0l0,0v0a9.52,9.52,0,0,1,0,6v0h0a9.45,9.45,0,0,1,6,0h0v0A9.48,9.48,0,0,1,73.48,58.94Z"/><path class="b" d="M41.84,40.58a1.19,1.19,0,0,1,1.1,2.11l-4.11,2.14.08,9.23,17-8.85L55.82,36,48.68,39.7a1.19,1.19,0,0,1-1.1-2.11l8.22-4.28-.08-9.23-17,8.85.08,9.23Z"/><path class="b" d="M55.67,18.56l-10.28.09a1.19,1.19,0,0,1,0-2.38l12.54-.11L47,3.05,36.33,16.34l4.16,0a1.19,1.19,0,1,1,0,2.38l-1.9,0,.1,11.54,17-8.85Z"/><rect class="b" x="41.18" y="62.09" width="12.7" height="4.16" transform="translate(-0.54 0.4) rotate(-0.48)"/><path class="b" d="M12.57,33a1.38,1.38,0,0,0-1-.4,1.39,1.39,0,0,0,0,2.78,1.35,1.35,0,0,0,1-.42h0a1.38,1.38,0,0,0,0-2Z"/><polygon class="b" points="38.93 56.73 38.96 59.78 56.02 59.63 55.92 47.89 38.93 56.73"/><path class="c" d="M41.15,61v1.19L53.86,62V60.84l2.38,0V62h1a1.18,1.18,0,0,0,1.18-1.2l-.36-42.26,2.39,0a1.18,1.18,0,0,0,1.18-1.2,1.21,1.21,0,0,0-.27-.75L47.91.4A1.2,1.2,0,0,0,46.23.25a1.29,1.29,0,0,0-.16.17L32.91,16.81a1.18,1.18,0,0,0,.18,1.67,1.15,1.15,0,0,0,.75.27l2.39,0L36.59,61a1.19,1.19,0,0,0,1.2,1.18h1V61ZM39,59.78l0-3,17-8.85L56,59.63Zm-.35-41.07,1.9,0a1.19,1.19,0,1,0,0-2.38l-4.16,0L47,3.05l10.9,13.11-12.54.11a1.19,1.19,0,0,0,0,2.38l10.28-.09,0,2.84-17,8.85Zm17.11,5.37.08,9.23-8.22,4.28a1.19,1.19,0,0,0,1.1,2.11L55.82,36l.08,9.23-17,8.85-.08-9.23,4.11-2.14a1.19,1.19,0,0,0-1.1-2.11l-3,1.58-.08-9.23Z"/><path class="c" d="M91,59.22a3.75,3.75,0,0,0-2.67-1.08h0a3.77,3.77,0,0,0,.07,7.54h0A3.77,3.77,0,0,0,91,59.22Zm-1.65,3.66a1.4,1.4,0,0,1-1,.42,1.38,1.38,0,0,1-1-.4h0a1.39,1.39,0,1,1,2,0Z"/><path class="c" d="M27.55,12.67l-2.21,0,0-2.22a1.21,1.21,0,0,0-1.2-1.18,1.19,1.19,0,0,0-1.18,1.2l0,2.22H20.74a1.2,1.2,0,0,0,0,2.39l2.22,0V17.3a1.2,1.2,0,0,0,2.39,0l0-2.21,2.21,0a1.19,1.19,0,0,0,1.18-1.2A1.18,1.18,0,0,0,27.55,12.67Z"/><path class="d" d="M52.3,68.58l2.8,0a1.19,1.19,0,0,0,1.18-1.2l0-5.35-2.38,0,0,4.16-12.7.11,0-4.16-2.38,0,0,5.35a1.2,1.2,0,0,0,.92,1.14L40,98.85A1.19,1.19,0,0,0,41.2,100l5.45,0a1.19,1.19,0,0,0,1.18-1.2l-.25-30.16,2.34,0c0,2.24.36,6.73,2.35,8.69a1.19,1.19,0,0,0,1.67-1.7C52.77,74.44,52.34,71.06,52.3,68.58ZM42.37,97.64l-.25-29,3.08,0,.24,29Z"/><rect class="c" x="38.77" y="60.96" width="2.38" height="1.19" transform="translate(-0.52 0.34) rotate(-0.48)"/><rect class="c" x="53.85" y="60.83" width="2.38" height="1.19" transform="translate(-0.52 0.47) rotate(-0.48)"/><path class="d" d="M72.41,87.22l-2.21,0,0-2.21A1.21,1.21,0,0,0,69,83.84a1.2,1.2,0,0,0-1.18,1.21v2.21l-2.21,0a1.19,1.19,0,1,0,0,2.38l2.21,0,0,2.21A1.19,1.19,0,0,0,69.05,93a1.18,1.18,0,0,0,1.18-1.2V89.62l2.21,0a1.19,1.19,0,1,0,0-2.38Z"/><path class="d" d="M11.57,30.17h0a3.77,3.77,0,1,0,.06,7.54h0a3.77,3.77,0,1,0-.06-7.54Zm1,4.74h0a1.35,1.35,0,0,1-1,.42,1.39,1.39,0,0,1,0-2.78,1.38,1.38,0,0,1,1,.4h0A1.38,1.38,0,0,1,12.59,34.91Z"/><path class="d" d="M75.78,64.15a7.19,7.19,0,0,1,0-4.47l.75-2.31a1.19,1.19,0,0,0-.77-1.5,1.14,1.14,0,0,0-.75,0l-2.29.78a7,7,0,0,1-4.47,0L65.9,56a1.18,1.18,0,0,0-1.49,1.51l.79,2.3a7.12,7.12,0,0,1,0,4.47l-.74,2.3a1.18,1.18,0,0,0,.76,1.5A1.23,1.23,0,0,0,66,68l2.29-.79a7.19,7.19,0,0,1,4.47,0l2.3.75a1.19,1.19,0,0,0,1.5-.76,1.23,1.23,0,0,0,0-.76ZM73.5,65a9.45,9.45,0,0,0-6,0h0v0a9.52,9.52,0,0,0,0-6v0l0,0a9.59,9.59,0,0,0,6,0l0,0v0a9.48,9.48,0,0,0,0,6v0Z"/><path class="d" d="M59.08,81l-2.66-2.61a1.19,1.19,0,0,0-1.66,1.7l2.65,2.6a1.18,1.18,0,0,0,1.68,0,1.2,1.2,0,0,0,0-1.68Z"/><path class="d" d="M61.25,74.36l-4.17.24A1.19,1.19,0,0,0,57.16,77h.05l4.17-.23a1.19,1.19,0,0,0-.13-2.38Z"/><path class="d" d="M52.3,79.11h0a1.19,1.19,0,0,0-1.31,1L50.58,84a1.19,1.19,0,0,0,2.37.25l.41-3.87A1.18,1.18,0,0,0,52.3,79.11Z"/></svg>