<svg xmlns="http://www.w3.org/2000/svg" viewBox="0 0 100 100"><defs><style>.a{fill:#e6e7e8;}.b{fill:none;}.c{fill:#21409a;}.d{fill:#ec008c;}</style></defs><path class="a" d="M26.22,94.72V21.34h2V14.23h1.42V8.13H23.58v6.1H22.15v7.11h-2V94.72a4.08,4.08,0,0,0,4.08,4.06h6.1A4.08,4.08,0,0,1,26.22,94.72Z"/><rect class="b" x="57.52" y="64.02" width="21.14" height="23.37"/><path class="b" d="M57.52,94.72v0a2.78,2.78,0,0,0,2.76,2.79H75.8a2.86,2.86,0,0,0,2.86-2.84V89.84H57.52Z"/><rect class="b" x="24.8" y="9.35" width="17.07" height="3.66"/><rect class="b" x="31.91" y="41.87" width="13.21" height="35.37"/><rect class="b" x="23.37" y="15.45" width="19.92" height="4.67"/><path class="b" d="M21.34,94.72a2.86,2.86,0,0,0,2.86,2.84H42.36a2.78,2.78,0,0,0,2.76-2.84v-15H30.76a1.25,1.25,0,0,1-1.29-1.18V40.69a1.31,1.31,0,0,1,1.29-1.26H45.12V22.56H21.34Zm1.83-64.36a1.22,1.22,0,0,1,2.44,0v2.77a1.22,1.22,0,0,1-2.44,0Zm0,6.23a1.22,1.22,0,0,1,2.44,0V63.21a1.22,1.22,0,0,1-2.44,0Z"/><path class="c" d="M22.07,13a1.14,1.14,0,0,0-1.14,1.2v5.91h-.79a1.31,1.31,0,0,0-1.24,1.3v73.3A5.3,5.3,0,0,0,24.2,100H42.36a5.22,5.22,0,0,0,5.2-5.24V21.42a1.22,1.22,0,0,0-1.13-1.3h-.7V14.21A1.2,1.2,0,0,0,44.5,13h-.19V8.15a1.28,1.28,0,0,0-1.26-1.24H23.52a1.19,1.19,0,0,0-1.16,1.22V13Zm23,64.23H31.91V41.87H45.12ZM24.8,9.35H41.87V13H24.8Zm-1.43,6.1H43.29v4.67H23.37Zm21.75,7.11V39.43H30.76a1.31,1.31,0,0,0-1.29,1.26v37.8a1.25,1.25,0,0,0,1.29,1.18H45.12v15a2.78,2.78,0,0,1-2.76,2.84H24.2a2.86,2.86,0,0,1-2.86-2.84V22.56Z"/><path class="c" d="M24.39,34.35a1.22,1.22,0,0,0,1.22-1.22V30.36a1.22,1.22,0,0,0-2.44,0v2.77A1.22,1.22,0,0,0,24.39,34.35Z"/><path class="c" d="M24.39,64.43a1.22,1.22,0,0,0,1.22-1.22V36.59a1.22,1.22,0,0,0-2.44,0V63.21A1.22,1.22,0,0,0,24.39,64.43Z"/><path class="d" d="M56.22,61.59a1.21,1.21,0,0,0-1.14,1.29V94.72A5.22,5.22,0,0,0,60.24,100H75.8a5.3,5.3,0,0,0,5.3-5.28V62.88a1.3,1.3,0,0,0-1.24-1.29H69.31V24.19h3.53a1.22,1.22,0,0,0,0-2.44H69.31V19.51h4.34a1.22,1.22,0,0,0,0-2.44H69.31V14.84h5.56a1.22,1.22,0,0,0,0-2.44H69.31V10.16h4.75a1.22,1.22,0,0,0,0-2.44H69.31v-2h2.27a1.22,1.22,0,0,0,0-2.44H69.31v-2a1.22,1.22,0,1,0-2.44,0v2H64.5a1.22,1.22,0,1,0,0,2.44h2.37v2H62a1.22,1.22,0,0,0,0,2.44h4.85V12.4H61.21a1.22,1.22,0,1,0,0,2.44h5.66v2.23H62.43a1.22,1.22,0,1,0,0,2.44h4.44v2.24H63.24a1.22,1.22,0,1,0,0,2.44h3.63v37.4ZM78.66,94.72a2.86,2.86,0,0,1-2.86,2.84H60.28a2.78,2.78,0,0,1-2.76-2.79V89.84H78.66Zm0-30.7V87.4H57.52V64Z"/></svg>