<svg xmlns="http://www.w3.org/2000/svg" viewBox="0 0 100 100"><defs><style>.a{fill:#e6e7e8;}.b{fill:none;}.c{fill:#21409a;}.d{fill:#ec008c;}</style></defs><path class="a" d="M36.89,87a16.11,16.11,0,0,1,1-31.35,16.1,16.1,0,1,0-3.1,31.9,15.71,15.71,0,0,0,3.14-.32C37.56,87.19,37.22,87.11,36.89,87Z"/><path class="a" d="M68.56,44.12a16.11,16.11,0,0,1,1-31.36,16.11,16.11,0,1,0-3.1,31.9,15.84,15.84,0,0,0,3.14-.31C69.23,44.28,68.9,44.21,68.56,44.12Z"/><path class="b" d="M20.76,79.52h0a16.11,16.11,0,1,0,5.88-22l-.17.11A16,16,0,0,0,20.76,79.52Z"/><path class="b" d="M12.54,71.48A22.15,22.15,0,1,0,23.61,52.27,22.15,22.15,0,0,0,12.54,71.48ZM34.69,52.39a19.08,19.08,0,1,1,.05,38.15,19.75,19.75,0,0,1-5-.66A18.92,18.92,0,0,1,18.2,81h0A19.07,19.07,0,0,1,34.69,52.39Z"/><path class="b" d="M13.42,41.43a1.9,1.9,0,0,1,2.59.71l4.79,8.39c.44-.28.88-.56,1.33-.82s1.18-.65,1.78-.93l-4.8-8.4a1.91,1.91,0,0,1,.71-2.6L28.13,33l-1.77-3.1-8.31,4.74h0A1.89,1.89,0,0,1,15.46,34l-4.74-8.3-3.1,1.77,4.74,8.3a1.91,1.91,0,0,1-.71,2.6l-8.3,4.74,1.76,3.1Z"/><path class="b" d="M79,50.3c-.58.34-1.16.64-1.76.93l8.86,15.52a1.45,1.45,0,0,1,.16,1.08,1.49,1.49,0,0,1-1.79,1.09L72.43,66l1.51,2.64,17.6,4.29L97,55.5l-1.52-2.67L91.79,64.56a1.46,1.46,0,0,1-.68.84,1.48,1.48,0,0,1-2-.55L80.3,49.47C79.87,49.76,79.42,50,79,50.3Z"/><path class="b" d="M58.32,14.61l-.18.1a16,16,0,0,0-5.7,21.91h0a16.11,16.11,0,1,0,5.88-22Z"/><path class="b" d="M72.11,7.14A22.17,22.17,0,1,0,87.8,34.28,22.16,22.16,0,0,0,72.11,7.14Zm-5.7,40.49A19.13,19.13,0,1,1,85.55,28.51,19.22,19.22,0,0,1,66.41,47.63Z"/><path class="c" d="M15.64,71.48A18.92,18.92,0,0,0,18.2,81h0a18.92,18.92,0,0,0,11.58,8.88,19.75,19.75,0,0,0,5,.66,19.08,19.08,0,1,0-19.1-19.06ZM26.47,57.62l.17-.11a16.11,16.11,0,1,1-5.88,22h0A16,16,0,0,1,26.47,57.62Z"/><path class="c" d="M.25,43.63l2.82,4.93a1.9,1.9,0,0,0,2.59.71L14,44.53l4.45,7.8a25.11,25.11,0,1,0,8.25-4.68l-4.46-7.82,8.3-4.75a1.9,1.9,0,0,0,.71-2.59L28.4,27.56a1.89,1.89,0,0,0-2.59-.71L17.5,31.59l-4.74-8.31a1.9,1.9,0,0,0-2.59-.71L5.23,25.39A1.9,1.9,0,0,0,4.52,28l4.75,8.31L1,41A1.91,1.91,0,0,0,.25,43.63ZM34.67,49.3a22.15,22.15,0,1,1-11.06,3A22.14,22.14,0,0,1,34.67,49.3Zm-23-11a1.91,1.91,0,0,0,.71-2.6l-4.74-8.3,3.1-1.77L15.46,34a1.89,1.89,0,0,0,2.59.71h0l8.31-4.74L28.13,33l-8.31,4.74a1.91,1.91,0,0,0-.71,2.6l4.8,8.4c-.6.28-1.19.59-1.78.93s-.89.54-1.33.82L16,42.14a1.9,1.9,0,0,0-2.59-.71L5.11,46.18l-1.76-3.1Z"/><path class="d" d="M85.51,12.25A25.13,25.13,0,1,0,59.89,52.82h0a24.89,24.89,0,0,0,14.55-.46l7.35,12.87-11-2.69a1.91,1.91,0,0,0-2.3,1.4,1.83,1.83,0,0,0,.2,1.39L71.6,70.5a1.9,1.9,0,0,0,1.2.91l19.39,4.72a1.47,1.47,0,0,0,1.76-1l6-19.19a1.9,1.9,0,0,0-.16-1.51l-3-5.18a1.91,1.91,0,0,0-2.6-.71,1.89,1.89,0,0,0-.87,1.09L90,60.43,82.69,47.67A25.13,25.13,0,0,0,85.51,12.25Zm3.58,52.6a1.48,1.48,0,0,0,2,.55,1.46,1.46,0,0,0,.68-.84l3.64-11.73L97,55.5,91.54,72.93l-17.6-4.29L72.43,66l12,2.92a1.49,1.49,0,0,0,1.79-1.09,1.45,1.45,0,0,0-.16-1.08L77.2,51.23c.6-.29,1.18-.59,1.76-.93s.91-.54,1.34-.83ZM60.66,50A22.17,22.17,0,1,1,87.8,34.28,22.2,22.2,0,0,1,60.66,50Z"/><path class="d" d="M66.43,9.38A19.13,19.13,0,1,0,85.55,28.51,19.12,19.12,0,0,0,66.43,9.38Zm8,33.12a16.11,16.11,0,0,1-22-5.88h0a16,16,0,0,1,5.7-21.91l.18-.1A16.11,16.11,0,0,1,74.45,42.5Z"/></svg>