<svg xmlns="http://www.w3.org/2000/svg" viewBox="0 0 100 100"><defs><style>.a{fill:#e6e7e8;}.b{fill:none;}.c{fill:#21409a;}.d{fill:#ec008c;}</style></defs><path class="a" d="M80,29.77a14.68,14.68,0,0,1-11.32-24A14.67,14.67,0,1,0,87.3,28.4a15,15,0,0,0,2-2A14.67,14.67,0,0,1,80,29.77Z"/><path class="a" d="M9.33,41.94c0-1.17,1.49-2.47,4-3.46a29.66,29.66,0,0,1,10-1.8h-1a30.47,30.47,0,0,0-11,1.81c-2.5,1-4,2.29-4,3.46,0,2.49,6.41,5.28,15,5.28l1,0C15.24,47,9.33,44.33,9.33,41.94Z"/><path class="a" d="M9.33,48.41V47.12a12.87,12.87,0,0,1-2-1.18v2.47c0,2.49,6.41,5.27,15,5.27h1C15.25,53.46,9.33,50.8,9.33,48.41Z"/><path class="a" d="M9.33,54.87V53.59a12.18,12.18,0,0,1-2-1.19v2.47c0,2.49,6.41,5.27,15,5.27h1C15.25,59.93,9.33,57.26,9.33,54.87Z"/><path class="a" d="M9.33,61.33V60.05a12.18,12.18,0,0,1-2-1.19v2.47c0,2.49,6.41,5.28,15,5.28l1,0C15.25,66.39,9.33,63.73,9.33,61.33Z"/><path class="a" d="M9.33,67.8V66.52a12.93,12.93,0,0,1-2-1.19V67.8c0,2.49,6.41,5.27,15,5.27h1C15.24,72.85,9.33,70.19,9.33,67.8Z"/><path class="a" d="M9.33,74.26V73a13,13,0,0,1-2-1.2v2.48c0,2.49,6.4,5.27,15,5.27h1C15.23,79.32,9.33,76.65,9.33,74.26Z"/><path class="a" d="M9.33,80.73V79.44a12.18,12.18,0,0,1-2-1.19v2.48c0,2.48,6.4,5.27,15,5.27l1,0C15.23,85.78,9.33,83.12,9.33,80.73Z"/><path class="a" d="M32.54,92.35V91.06a10.68,10.68,0,0,1-2-1.18v2.47c0,2.48,6.41,5.27,15,5.27h1C38.47,97.4,32.54,94.74,32.54,92.35Z"/><path class="a" d="M32.54,85.88V84.6a10.2,10.2,0,0,1-2-1.19v2.47c0,2.49,6.41,5.28,15,5.28l1,0C38.47,90.94,32.54,88.27,32.54,85.88Z"/><path class="a" d="M32.54,79.42V78.14a11.3,11.3,0,0,1-2-1.19v2.47c0,2.49,6.41,5.27,15,5.27h1C38.47,84.47,32.54,81.81,32.54,79.42Z"/><path class="a" d="M32.56,73c0-1.17,1.49-2.46,4-3.46a29.85,29.85,0,0,1,10-1.8h-1a30.57,30.57,0,0,0-11,1.81c-2.49,1-4,2.29-4,3.46,0,2.49,6.4,5.28,15,5.28l1,0C38.48,78,32.56,75.35,32.56,73Z"/><path class="a" d="M63.66,42.54l-.31,0A14.71,14.71,0,0,0,76.73,55.9a15.15,15.15,0,0,0-.31-2A14.71,14.71,0,0,1,63.66,42.54Z"/><path class="a" d="M63.66,64.37l-.31,0A14.69,14.69,0,0,0,76.73,77.72a15.4,15.4,0,0,0-.31-2A14.7,14.7,0,0,1,63.66,64.37Z"/><path class="a" d="M79.53,75.7a15.4,15.4,0,0,0-.31,2A14.69,14.69,0,0,0,92.6,64.33l-.31,0A14.7,14.7,0,0,1,79.53,75.7Z"/><path class="a" d="M79.53,53.88a15.15,15.15,0,0,0-.31,2A14.71,14.71,0,0,0,92.6,42.51l-.31,0A14.71,14.71,0,0,1,79.53,53.88Z"/><path class="b" d="M22.31,47.22a30.79,30.79,0,0,0,11-1.81c2.49-1,4-2.3,4-3.47,0-2.49-6.4-5.27-15-5.27a30.47,30.47,0,0,0-11,1.81c-2.5,1-4,2.29-4,3.46C7.34,44.43,13.75,47.22,22.31,47.22Z"/><path class="b" d="M22.32,53.68a30.57,30.57,0,0,0,11-1.81c2.49-1,4-2.29,4-3.46V45.94a13,13,0,0,1-3.11,1.68,33.18,33.18,0,0,1-11.88,2,33.16,33.16,0,0,1-11.87-2,14.09,14.09,0,0,1-3.1-1.68v2.47C7.34,50.9,13.75,53.68,22.32,53.68Z"/><path class="b" d="M7.34,78.25v2.48c0,2.49,6.4,5.27,15,5.27a36.23,36.23,0,0,0,5.88-.46V81.49a39.91,39.91,0,0,1-5.88.43C15.77,81.92,10.3,80.48,7.34,78.25Z"/><path class="b" d="M22.32,60.14a30.8,30.8,0,0,0,11-1.8c2.49-1,4-2.3,4-3.47V52.4a12.64,12.64,0,0,1-3.11,1.68,33,33,0,0,1-11.88,2,32.94,32.94,0,0,1-11.87-2,13.69,13.69,0,0,1-3.1-1.68v2.47C7.34,57.36,13.75,60.14,22.32,60.14Z"/><path class="b" d="M22.32,66.61a30.57,30.57,0,0,0,11-1.81c2.49-1,4-2.29,4-3.47V58.86a12.67,12.67,0,0,1-3.11,1.69,33.19,33.19,0,0,1-11.88,2,33.17,33.17,0,0,1-11.87-2,13.72,13.72,0,0,1-3.1-1.69v2.47C7.34,63.82,13.75,66.61,22.32,66.61Z"/><path class="b" d="M45.54,93.54a33.16,33.16,0,0,1-11.87-2,13,13,0,0,1-3.11-1.68v2.47c0,2.48,6.41,5.27,15,5.27a30.57,30.57,0,0,0,11-1.81c2.5-1,4-2.29,4-3.46V89.88a13.94,13.94,0,0,1-3.11,1.68A33.12,33.12,0,0,1,45.54,93.54Z"/><path class="b" d="M37.3,66.18v-.85A13,13,0,0,1,34.19,67a33,33,0,0,1-11.88,2,32.94,32.94,0,0,1-11.87-2,13.69,13.69,0,0,1-3.1-1.68V67.8c0,2.49,6.41,5.27,15,5.27a36.47,36.47,0,0,0,5.9-.46c.19-2.11,2.11-4,5.47-5.33A21.78,21.78,0,0,1,37.3,66.18Z"/><path class="b" d="M45.54,87.07a32.94,32.94,0,0,1-11.87-2,12.64,12.64,0,0,1-3.11-1.68v2.47c0,2.49,6.41,5.28,15,5.28a30.79,30.79,0,0,0,11-1.81c2.5-1,4-2.3,4-3.47V83.41a13.17,13.17,0,0,1-3.11,1.68A32.91,32.91,0,0,1,45.54,87.07Z"/><path class="b" d="M30.58,73c0,2.49,6.4,5.28,15,5.28a30.73,30.73,0,0,0,11-1.81c2.5-1,4-2.29,4-3.47,0-2.49-6.41-5.27-15-5.27a30.57,30.57,0,0,0-11,1.81C32.07,70.49,30.58,71.78,30.58,73Z"/><path class="b" d="M45.54,80.61a32.94,32.94,0,0,1-11.87-2A13,13,0,0,1,30.56,77v2.47c0,2.49,6.41,5.27,15,5.27a30.57,30.57,0,0,0,11-1.81c2.5-1,4-2.29,4-3.46V77a13.54,13.54,0,0,1-3.11,1.68A32.91,32.91,0,0,1,45.54,80.61Z"/><path class="b" d="M92.6,64.33A14.71,14.71,0,0,0,79.22,77.72,14.69,14.69,0,0,0,92.6,64.33Z"/><path class="b" d="M63.35,64.33A14.69,14.69,0,0,0,76.73,77.72,14.71,14.71,0,0,0,63.35,64.33Z"/><path class="b" d="M7.34,71.78v2.48c0,2.49,6.4,5.27,15,5.27a36.22,36.22,0,0,0,5.88-.45V75a37.36,37.36,0,0,1-5.88.43C15.77,75.45,10.3,74,7.34,71.78Z"/><path class="b" d="M92.6,42.51A14.69,14.69,0,0,0,79.22,55.9,14.71,14.71,0,0,0,92.6,42.51Z"/><path class="b" d="M92.66,17.07A14.69,14.69,0,1,0,78,31.75,14.69,14.69,0,0,0,92.66,17.07Z"/><path class="b" d="M63.35,42.51A14.71,14.71,0,0,0,76.73,55.9,14.69,14.69,0,0,0,63.35,42.51Z"/><path class="c" d="M62.1,61.9a1.19,1.19,0,0,0-1.19,1.19,17.09,17.09,0,0,0,15.87,17V98a1.2,1.2,0,0,0,2.39,0V80.11A17.09,17.09,0,0,0,95,63.09a1.19,1.19,0,0,0-1.19-1.19,17.07,17.07,0,0,0-14.68,8.38v-12A17.08,17.08,0,0,0,95,41.27a1.19,1.19,0,0,0-1.19-1.19,17,17,0,0,0-14.68,8.38V34.08a17.07,17.07,0,1,0-2.39,0V48.46A17,17,0,0,0,62.1,40.08a1.19,1.19,0,0,0-1.19,1.19,17.08,17.08,0,0,0,15.87,17v12A17.07,17.07,0,0,0,62.1,61.9Zm1.25,2.43A14.71,14.71,0,0,1,76.73,77.72,14.69,14.69,0,0,1,63.35,64.33Zm29.25,0A14.69,14.69,0,0,1,79.22,77.72,14.71,14.71,0,0,1,92.6,64.33Zm0-21.82A14.71,14.71,0,0,1,79.22,55.9,14.69,14.69,0,0,1,92.6,42.51ZM63.29,17.07A14.69,14.69,0,1,1,78,31.75,14.68,14.68,0,0,1,63.29,17.07Zm.06,25.44A14.69,14.69,0,0,1,76.73,55.9,14.71,14.71,0,0,1,63.35,42.51Z"/><path class="d" d="M34.19,36.27a32.94,32.94,0,0,0-11.87-2,32.91,32.91,0,0,0-11.87,2C6.91,37.68,5,39.7,5,41.94V80.73c0,4.36,7.45,7.65,17.34,7.65A38.59,38.59,0,0,0,28.18,88v4.4c0,2.24,1.95,4.26,5.49,5.67a32.94,32.94,0,0,0,11.87,2,32.91,32.91,0,0,0,11.87-2c3.54-1.41,5.49-3.43,5.49-5.67V73c0-2.24-1.95-4.26-5.49-5.67a32.79,32.79,0,0,0-11.85-2,38.59,38.59,0,0,0-5.88.43V41.94C39.68,39.7,37.73,37.68,34.19,36.27ZM11.33,38.48a30.47,30.47,0,0,1,11-1.81c8.57,0,15,2.78,15,5.27,0,1.17-1.49,2.47-4,3.47a30.79,30.79,0,0,1-11,1.81c-8.56,0-15-2.79-15-5.28C7.34,40.77,8.83,39.47,11.33,38.48Zm-4,7.46a14.09,14.09,0,0,0,3.1,1.68,33.16,33.16,0,0,0,11.87,2,33.18,33.18,0,0,0,11.88-2,13,13,0,0,0,3.11-1.68v2.47c0,1.17-1.5,2.46-4,3.46a30.57,30.57,0,0,1-11,1.81c-8.57,0-15-2.78-15-5.27Zm0,6.46a13.69,13.69,0,0,0,3.1,1.68,32.94,32.94,0,0,0,11.87,2,33,33,0,0,0,11.88-2A12.64,12.64,0,0,0,37.3,52.4v2.47c0,1.17-1.5,2.47-4,3.47a30.8,30.8,0,0,1-11,1.8c-8.57,0-15-2.78-15-5.27Zm0,6.46a13.72,13.72,0,0,0,3.1,1.69,33.17,33.17,0,0,0,11.87,2,33.19,33.19,0,0,0,11.88-2,12.67,12.67,0,0,0,3.11-1.69v2.47c0,1.18-1.5,2.47-4,3.47a30.57,30.57,0,0,1-11,1.81c-8.57,0-15-2.79-15-5.28ZM28.18,85.54A36.23,36.23,0,0,1,22.3,86c-8.56,0-15-2.78-15-5.27V78.25c3,2.23,8.43,3.67,15,3.67a39.91,39.91,0,0,0,5.88-.43Zm0-6.46a36.22,36.22,0,0,1-5.88.45c-8.56,0-15-2.78-15-5.27V71.78c3,2.23,8.43,3.67,15,3.67A37.36,37.36,0,0,0,28.18,75Zm0-6.47a36.47,36.47,0,0,1-5.9.46c-8.57,0-15-2.78-15-5.27V65.33A13.69,13.69,0,0,0,10.44,67a32.94,32.94,0,0,0,11.87,2,33,33,0,0,0,11.88-2,13,13,0,0,0,3.11-1.68v.85a21.78,21.78,0,0,0-3.61,1.1C30.33,68.62,28.41,70.5,28.22,72.61Zm32.3,19.74c0,1.17-1.49,2.46-4,3.46a30.57,30.57,0,0,1-11,1.81c-8.57,0-15-2.79-15-5.27V89.88a13,13,0,0,0,3.11,1.68,33.16,33.16,0,0,0,11.87,2,33.12,33.12,0,0,0,11.87-2,13.94,13.94,0,0,0,3.11-1.68Zm0-6.47c0,1.17-1.49,2.47-4,3.47a30.79,30.79,0,0,1-11,1.81c-8.57,0-15-2.79-15-5.28V83.41a12.64,12.64,0,0,0,3.11,1.68,32.94,32.94,0,0,0,11.87,2,32.91,32.91,0,0,0,11.87-2,13.17,13.17,0,0,0,3.11-1.68Zm0-6.46c0,1.17-1.49,2.47-4,3.46a30.57,30.57,0,0,1-11,1.81c-8.57,0-15-2.78-15-5.27V77a13,13,0,0,0,3.11,1.68,32.94,32.94,0,0,0,11.87,2,32.91,32.91,0,0,0,11.87-2A13.54,13.54,0,0,0,60.52,77Zm-15-11.74c8.56,0,15,2.78,15,5.27,0,1.18-1.49,2.47-4,3.47a30.73,30.73,0,0,1-11,1.81c-8.57,0-15-2.79-15-5.28,0-1.17,1.49-2.46,4-3.46A30.57,30.57,0,0,1,45.55,67.68Z"/></svg>