<svg xmlns="http://www.w3.org/2000/svg" viewBox="0 0 100 100"><defs><style>.a{fill:#e6e7e8;}.b{fill:none;}.c{fill:#21409a;}.d{fill:#ec008c;}</style></defs><path class="a" d="M7.68,83.76V30.13a8.54,8.54,0,0,1,8.55-8.54H9.82a8.54,8.54,0,0,0-8.55,8.54V83.76a8.55,8.55,0,0,0,8.55,8.55h6.41A8.55,8.55,0,0,1,7.68,83.76Z"/><path class="b" d="M18.16,36.32a1.28,1.28,0,1,1-2.56,0V22.86H9.82a7.28,7.28,0,0,0-7.26,7.27V83.76A7.27,7.27,0,0,0,9.82,91H15.6V42.2a1.28,1.28,0,0,1,2.56,0V91H81.84V22.86H18.16ZM7.69,68.59a1.28,1.28,0,0,1-2.56,0V38.89a1.28,1.28,0,0,1,2.56,0ZM7.69,35a1.28,1.28,0,0,1-2.56,0V33.55a1.28,1.28,0,1,1,2.56,0Zm26.71,19a1.28,1.28,0,0,1,1.28-1.28H45.3V43.16a1.28,1.28,0,0,1,1.28-1.28H53a1.28,1.28,0,0,1,1.28,1.28v9.62h9.62a1.28,1.28,0,0,1,1.28,1.28v6.41a1.28,1.28,0,0,1-1.28,1.28H54.27v9.62A1.28,1.28,0,0,1,53,72.65H46.58a1.28,1.28,0,0,1-1.28-1.28V61.75H35.68a1.28,1.28,0,0,1-1.28-1.28Z"/><path class="b" d="M90.18,22.86H84.4V91h5.78a7.27,7.27,0,0,0,7.26-7.27V30.13A7.28,7.28,0,0,0,90.18,22.86Z"/><path class="b" d="M68.16,14.26A5.27,5.27,0,0,0,62.91,9H37a5.27,5.27,0,0,0-5.2,5.34v6H34v-6a3.14,3.14,0,0,1,3.12-3.15H63A3.14,3.14,0,0,1,66,14.31v6h2.13v-6Z"/><path class="b" d="M47.86,60.47v9.62h3.85V60.47A1.28,1.28,0,0,1,53,59.19h9.62V55.34H53a1.28,1.28,0,0,1-1.28-1.28V44.44H47.86v9.62a1.28,1.28,0,0,1-1.28,1.28H37v3.85h9.61A1.28,1.28,0,0,1,47.86,60.47Z"/><path class="b" d="M62.91,13.68H37.09a.56.56,0,0,0-.55.63v6H63.46v-6A.56.56,0,0,0,62.91,13.68Z"/><path class="c" d="M6.41,32.26a1.28,1.28,0,0,0-1.28,1.29V35a1.28,1.28,0,0,0,2.56,0V33.55A1.28,1.28,0,0,0,6.41,32.26Z"/><path class="c" d="M6.41,37.61a1.28,1.28,0,0,0-1.28,1.28v29.7a1.28,1.28,0,0,0,2.56,0V38.89A1.28,1.28,0,0,0,6.41,37.61Z"/><path class="c" d="M90.17,20.3H70.73v1.29H68.16V20.3H66v1.29H63.46V20.3H36.54v1.29H34V20.3H31.84v1.29H29.27V20.3H9.83A9.83,9.83,0,0,0,0,30.13V83.76a9.83,9.83,0,0,0,9.83,9.83H90.17A9.83,9.83,0,0,0,100,83.76V30.13A9.83,9.83,0,0,0,90.17,20.3ZM81.84,91H18.16V42.2a1.28,1.28,0,0,0-2.56,0V91H9.82a7.27,7.27,0,0,1-7.26-7.27V30.13a7.28,7.28,0,0,1,7.26-7.27H15.6V36.32a1.28,1.28,0,1,0,2.56,0V22.86H81.84Zm15.6-7.27A7.27,7.27,0,0,1,90.18,91H84.4V22.86h5.78a7.28,7.28,0,0,1,7.26,7.27Z"/><path class="d" d="M63,11.11H37.09A3.14,3.14,0,0,0,34,14.26v6h2.57v-6a.56.56,0,0,1,.55-.63H62.91a.56.56,0,0,1,.55.63v6H66v-6A3.14,3.14,0,0,0,63,11.11Z"/><rect class="c" x="63.46" y="20.3" width="2.56" height="1.29" transform="translate(-0.05 0.16) rotate(-0.14)"/><rect class="c" x="33.97" y="20.3" width="2.56" height="1.29" transform="translate(-0.05 0.09) rotate(-0.14)"/><path class="d" d="M31.84,14.31A5.27,5.27,0,0,1,37,9H62.91a5.27,5.27,0,0,1,5.25,5.29v6h2.57v-6A7.85,7.85,0,0,0,63,6.41H37.09a7.84,7.84,0,0,0-7.82,7.86v6h2.57Z"/><rect class="c" x="29.27" y="20.3" width="2.56" height="1.29"/><rect class="c" x="68.16" y="20.3" width="2.56" height="1.29" transform="translate(-0.05 0.17) rotate(-0.14)"/><path class="d" d="M35.68,61.75H45.3v9.62a1.28,1.28,0,0,0,1.28,1.28H53a1.28,1.28,0,0,0,1.28-1.28V61.75h9.62a1.28,1.28,0,0,0,1.28-1.28V54.06a1.28,1.28,0,0,0-1.28-1.28H54.27V43.16A1.28,1.28,0,0,0,53,41.88H46.58a1.28,1.28,0,0,0-1.28,1.28v9.62H35.68a1.28,1.28,0,0,0-1.28,1.28v6.41A1.28,1.28,0,0,0,35.68,61.75ZM37,55.34h9.61a1.28,1.28,0,0,0,1.28-1.28V44.44h3.85v9.62A1.28,1.28,0,0,0,53,55.34h9.62v3.85H53a1.28,1.28,0,0,0-1.28,1.28v9.62H47.86V60.47a1.28,1.28,0,0,0-1.28-1.28H37Z"/></svg>