<svg xmlns="http://www.w3.org/2000/svg" viewBox="0 0 100 100"><defs><style>.a{fill:#e6e7e8;}.b{fill:none;}.c{fill:#21409a;}.d{fill:#ec008c;}</style></defs><path class="a" d="M16.89,43.05c0-2.53,0-6.7.05-7.14A33.15,33.15,0,0,1,46.57,4.76c-.72-.08-1.45-.13-2.19-.16l-.86,0h-.37A33.16,33.16,0,0,0,10,35.91c0,.44,0,4.61,0,7.14a1.59,1.59,0,0,1-.1.57L3.25,61h6.9l6.63-17.38A1.6,1.6,0,0,0,16.89,43.05Z"/><path class="a" d="M23.77,78.41A6,6,0,0,1,21.91,74V62.61A1.61,1.61,0,0,0,20.3,61H13.4A1.61,1.61,0,0,1,15,62.61V74a6.12,6.12,0,0,0,6.12,6.12h.18c.33,0,2.33,0,6,0A6.05,6.05,0,0,1,23.77,78.41Z"/><path class="a" d="M38.43,80.08h0l-6.26,0a6.56,6.56,0,0,1,5.79,5l2.61,10.35h6.9L44.83,85.07A6.57,6.57,0,0,0,38.43,80.08Z"/><path class="a" d="M56.66,21c1-5.3,4.05-9,8.25-10.25a13.62,13.62,0,0,0-3.54-.49C55.47,10.28,51,14.4,49.76,21,47.8,31.25,54.23,44.9,73,52.37l.09,0,.09,0c1.11-.45,2.22-.95,3.31-1.48C60.35,43.19,54.82,30.6,56.66,21Z"/><path class="b" d="M49.76,21C47.8,31.25,54.23,44.9,73,52.37l.09,0,.09,0c13.54-5.5,26-17.32,23.26-31.34-1.33-6.55-5.8-10.62-11.68-10.62-3.34,0-7,1.41-10.72,4.07a1.61,1.61,0,0,1-1.91,0c-3.72-2.77-7.34-4.18-10.77-4.18C55.47,10.28,51,14.4,49.76,21Z"/><path class="b" d="M46.6,20.42c1.21-6.37,5-11,10.23-12.64A29.82,29.82,0,0,0,44.38,4.6l-.86,0h-.37A33.15,33.15,0,0,0,10,35.91c0,.44,0,4.61,0,7.14a1.59,1.59,0,0,1-.1.57L3.25,61H13.4A1.61,1.61,0,0,1,15,62.61V74a1.09,1.09,0,0,0,0,.18,6.11,6.11,0,0,0,6.29,5.94c.44,0,3.87,0,10.2-.06h0a6.57,6.57,0,0,1,6.39,5l2.61,10.35H69.6c-.51-2.14-1.35-5.8-2.12-10.07-1.64-9.17-2.21-16.67-1.69-22.27a46.78,46.78,0,0,1,2.56-9.23C50.55,45.43,44.52,31.26,46.6,20.42Z"/><path class="c" d="M2,64a3.1,3.1,0,0,0,1.13.21h8.63V74a9.34,9.34,0,0,0,9.34,9.34h.27l10.12,0h0a3.36,3.36,0,0,1,3.28,2.55l2.91,11.57a1.6,1.6,0,0,0,1.56,1.22H71.67A1.62,1.62,0,0,0,73.28,97a1.4,1.4,0,0,0-.06-.41c0-.21-5.41-20.51-4.23-33.24a41.43,41.43,0,0,1,2.32-8.23c-1-.42-2-.85-3-1.3a46.78,46.78,0,0,0-2.56,9.23c-.52,5.6,0,13.1,1.69,22.27.77,4.27,1.61,7.93,2.12,10.07H40.54L37.93,85.07a6.57,6.57,0,0,0-6.39-5h0c-6.33,0-9.76,0-10.2.06A6.11,6.11,0,0,1,15,74.2,1.09,1.09,0,0,1,15,74V62.61A1.61,1.61,0,0,0,13.4,61H3.25L9.89,43.62a1.59,1.59,0,0,0,.1-.57c0-2.53,0-6.7,0-7.14A33.15,33.15,0,0,1,43.15,4.58h.37l.86,0A29.82,29.82,0,0,1,56.83,7.78a14.73,14.73,0,0,1,4.54-.72l.6,0A33,33,0,0,0,44.5,1.39l-.94,0A36.37,36.37,0,0,0,6.83,35.73c0,.6,0,5.45-.06,7L.21,59.94A3.15,3.15,0,0,0,2,64Z"/><path class="d" d="M60.48,10a31.32,31.32,0,0,0-3.65-2.17c-5.18,1.69-9,6.27-10.23,12.64-2.08,10.84,3.95,25,21.75,33.43.18-.48.35-1,.51-1.4l3,1.12c-.2.54-.39,1.07-.57,1.58.19.07.37.16.57.23l.08,0a3.23,3.23,0,0,0,2.29,0l.09,0c20.53-8.32,27.48-23.55,25.27-35h0C98,12.38,92.16,7.19,84.77,7.19a21.27,21.27,0,0,0-11.65,4A21.15,21.15,0,0,0,62,7.09l.35.23Zm13.57,4.53c3.67-2.66,7.38-4.07,10.72-4.07,5.88,0,10.35,4.07,11.68,10.62,2.71,14-9.72,25.84-23.26,31.34l-.09,0-.09,0C54.23,44.9,47.8,31.25,49.76,21,51,14.4,55.47,10.28,61.37,10.28c3.43,0,7.05,1.41,10.77,4.18A1.61,1.61,0,0,0,74.05,14.48Z"/><path class="d" d="M68.86,52.45c-.16.45-.33.92-.51,1.4,1,.45,1.94.88,3,1.3.18-.51.37-1,.57-1.58Z"/><path class="d" d="M56.83,7.78A31.32,31.32,0,0,1,60.48,10l1.84-2.63L62,7.09l-.6,0A14.73,14.73,0,0,0,56.83,7.78Z"/></svg>