<svg xmlns="http://www.w3.org/2000/svg" viewBox="0 0 100 100"><defs><style>.a{fill:#e6e7e8;}.b{fill:none;}.c{fill:#21409a;}.d{fill:#ec008c;}</style></defs><path class="a" d="M51.47,9.19l-3-3A27.78,27.78,0,0,0,37.68,24.59l6.21,5.9A28,28,0,0,1,51.47,9.19Z"/><path class="a" d="M39.92,62.88a25.42,25.42,0,0,1-5.73-35.51L30.63,24a25.79,25.79,0,0,0-.07,36.41,24.28,24.28,0,0,0,2.95,2.49c.45.34.91.65,1.38.94a25.43,25.43,0,0,0,10.2,3.68l6.32,0a25.26,25.26,0,0,1-10.1-3.66C40.84,63.53,40.37,63.22,39.92,62.88Z"/><path class="b" d="M48.57,50.29,43.64,56.6a6.19,6.19,0,0,0,.45,8.19,6,6,0,0,0,2.77,1.59c.54,0,1.07.05,1.58.05s1,0,1.52-.05a6.29,6.29,0,0,0,2.9-1.65,6.23,6.23,0,0,0,.56-8.2Z"/><path class="b" d="M52.16,68.74l-7.25,0a26.48,26.48,0,0,1-10.7-3.86c-.36-.23-.7-.47-1-.71l-19.23,0c-4.71,0-8.76,3.59-10.49,8.69,3.22.25,11.37.69,17.2-.6,8-1.78,12.78.44,13,.53h0a1.28,1.28,0,0,1-1.12,2.31,12.14,12.14,0,0,0-3-.77,23.19,23.19,0,0,0-8.35.42,50.92,50.92,0,0,1-10.65,1c-3.35,0-6.26-.2-7.73-.33a17.34,17.34,0,0,0-.25,3c0,7.81,5.1,14.18,11.36,14.18l64.83.08a15.14,15.14,0,0,1-3.57-3.79,29.84,29.84,0,0,1-5,.39,33.73,33.73,0,0,1-9.72-1.42,20.32,20.32,0,0,0-8.73-.68h0a1.28,1.28,0,1,1-.4-2.53,22.53,22.53,0,0,1,9.92.75,31.52,31.52,0,0,0,12.63,1.08,19.38,19.38,0,0,1-1.72-8.07c0-6,2.66-11.31,6.64-14.26l-15,0c-.32.22-.63.44-1,.66A26.44,26.44,0,0,1,52.16,68.74Zm-35.74,22H14.93a1.29,1.29,0,1,1,0-2.57h1.49a1.29,1.29,0,1,1,0,2.57Zm20.75,0H20.27a1.29,1.29,0,0,1,0-2.57h16.9a1.29,1.29,0,0,1,0,2.57Z"/><path class="b" d="M86.07,71.54c-3,0-5.39,3.08-5.39,6.87s2.41,6.87,5.39,6.87,5.38-3.08,5.38-6.87S89,71.54,86.07,71.54Z"/><path class="b" d="M86.07,64.23c-6.27,0-11.37,6.36-11.37,14.18a16.38,16.38,0,0,0,2.21,8.39c2.14,3.62,5.56,5.79,9.16,5.79,6.26,0,11.36-6.36,11.36-14.18S92.33,64.23,86.07,64.23Zm0,23.61c-4.39,0-8-4.23-8-9.43s3.57-9.44,8-9.44,8,4.23,8,9.44S90.45,87.84,86.07,87.84Z"/><path class="b" d="M35.57,62.74c.72.45,1.46.86,2.22,1.24A13.58,13.58,0,0,1,38,47.44l.06-.08A1.28,1.28,0,1,1,40,49a11,11,0,0,0,0,13.63A8.87,8.87,0,0,1,41.62,55l5.94-7.62a1.34,1.34,0,0,1,1-.53h0a1.34,1.34,0,0,1,1,.53L55.45,55a8.71,8.71,0,0,1,1.46,7.81,11,11,0,0,0,.39-13.86l-8.59-11-6.62,8.47a1.29,1.29,0,0,1-2-1.59L47.71,35a1.3,1.3,0,0,1,1-.52h0a1.3,1.3,0,0,1,1,.52l9.59,12.37a13.55,13.55,0,0,1,0,16.51c.71-.36,1.4-.75,2.08-1.18.43-.27.84-.55,1.22-.83h0a24,24,0,0,0,2.93-2.5h0a24.2,24.2,0,0,0,0-34.24L48.33,7.86a26.8,26.8,0,0,0-9.57,22.55,1.32,1.32,0,0,1-.35,1,1.29,1.29,0,0,1-1.82,0l-5.92-5.63a24.49,24.49,0,0,0-6.32,16.63,23.81,23.81,0,0,0,7.11,17,23.54,23.54,0,0,0,2.8,2.37C34.68,62.15,35.12,62.45,35.57,62.74Z"/><path class="c" d="M33.53,61.61l0,2.59h-.34c.34.24.68.48,1,.71a26.48,26.48,0,0,0,10.7,3.86l7.25,0a26.44,26.44,0,0,0,10.62-3.9c.35-.22.66-.44,1-.66h-.5l.05-2.58h3.58l.49-.46a26.79,26.79,0,0,0,0-37.87h0l-18-18a1.27,1.27,0,0,0-1.62-.16,26.43,26.43,0,0,0-6.2,6.37,29.33,29.33,0,0,0-5.38,16l-4.64-4.41a1.28,1.28,0,0,0-1.79,0,27,27,0,0,0-7.93,19.36A26.36,26.36,0,0,0,29.66,61.3l.34.32h3.53Zm19.33,3.12A6.29,6.29,0,0,1,50,66.38c-.5,0-1,.05-1.52.05s-1,0-1.58-.05a6,6,0,0,1-2.77-1.59,6.19,6.19,0,0,1-.45-8.19l4.93-6.31,4.85,6.24A6.23,6.23,0,0,1,52.86,64.73ZM24.35,42.42a24.49,24.49,0,0,1,6.32-16.63l5.92,5.63a1.29,1.29,0,0,0,1.82,0,1.32,1.32,0,0,0,.35-1A26.8,26.8,0,0,1,48.33,7.86L65.56,25.1a24.2,24.2,0,0,1,0,34.24h0a24,24,0,0,1-2.93,2.5h0c-.38.28-.79.56-1.22.83-.68.43-1.37.82-2.08,1.18a13.55,13.55,0,0,0,0-16.51L49.73,35a1.3,1.3,0,0,0-1-.52h0a1.3,1.3,0,0,0-1,.52l-7.65,9.78a1.29,1.29,0,0,0,2,1.59l6.62-8.47,8.59,11a11,11,0,0,1-.39,13.86A8.71,8.71,0,0,0,55.45,55l-5.86-7.58a1.34,1.34,0,0,0-1-.53h0a1.34,1.34,0,0,0-1,.53L41.62,55A8.87,8.87,0,0,0,40,62.65,11,11,0,0,1,40,49a1.28,1.28,0,1,0-2-1.66l-.06.08A13.58,13.58,0,0,0,37.79,64c-.76-.38-1.5-.79-2.22-1.24-.45-.29-.89-.59-1.31-.9a23.54,23.54,0,0,1-2.8-2.37A23.81,23.81,0,0,1,24.35,42.42Z"/><path class="d" d="M86.61,61.68l-19.72-.07a29,29,0,0,1-2.75,2.31l-.38.26,15,0c-4,2.95-6.64,8.24-6.64,14.26a19.38,19.38,0,0,0,1.72,8.07A31.52,31.52,0,0,1,61.22,85.4a22.53,22.53,0,0,0-9.92-.75,1.28,1.28,0,1,0,.4,2.53h0a20.32,20.32,0,0,1,8.73.68,33.73,33.73,0,0,0,9.72,1.42,29.84,29.84,0,0,0,5-.39,15.14,15.14,0,0,0,3.57,3.79l-64.83-.08c-6.26,0-11.36-6.37-11.36-14.18a17.34,17.34,0,0,1,.25-3c1.47.13,4.38.33,7.73.33a50.92,50.92,0,0,0,10.65-1,23.19,23.19,0,0,1,8.35-.42,12.14,12.14,0,0,1,3,.77,1.28,1.28,0,0,0,1.12-2.31h0c-.2-.09-5-2.31-13-.53-5.83,1.29-14,.85-17.2.6,1.73-5.1,5.78-8.69,10.49-8.69l19.23,0-.43-.28A28.51,28.51,0,0,1,30,61.62l-16.07,0C6.25,61.65,0,69.17,0,78.4S6.25,95.12,13.93,95.12H86.61C94,94.76,100,87.42,100,78.41S94,62,86.61,61.68Zm-.54,30.91c-3.6,0-7-2.17-9.16-5.79a16.38,16.38,0,0,1-2.21-8.39c0-7.82,5.1-14.18,11.37-14.18s11.36,6.36,11.36,14.18S92.33,92.59,86.07,92.59Z"/><path class="c" d="M63.26,64.18h.5l.38-.26a29,29,0,0,0,2.75-2.31H63.31Z"/><path class="c" d="M33.17,64.2h.34l0-2.59H30a28.51,28.51,0,0,0,2.74,2.3Z"/><path class="d" d="M86.07,69c-4.39,0-8,4.23-8,9.44s3.57,9.43,8,9.43,8-4.23,8-9.43S90.45,69,86.07,69Zm0,16.31c-3,0-5.39-3.09-5.39-6.87s2.41-6.87,5.39-6.87,5.38,3.08,5.38,6.87S89,85.28,86.07,85.28Z"/><path class="d" d="M16.42,88.13H14.93a1.29,1.29,0,1,0,0,2.57h1.49a1.29,1.29,0,1,0,0-2.57Z"/><path class="d" d="M37.17,88.13H20.27a1.29,1.29,0,0,0,0,2.57h16.9a1.29,1.29,0,0,0,0-2.57Z"/></svg>