<svg xmlns="http://www.w3.org/2000/svg" viewBox="0 0 100 100"><defs><style>.a{fill:#e6e7e8;}.b{fill:none;}.c{fill:#21409a;}.d{fill:#ec008c;}</style></defs><path class="a" d="M7.63,92V14.94a6.19,6.19,0,0,1,6.14-6.25H7.54a6.2,6.2,0,0,0-6.27,6.12V92A6.22,6.22,0,0,0,7.43,98.3H13.9a6.21,6.21,0,0,1-6.27-6.17Z"/><path class="b" d="M33.49,68.72a1.67,1.67,0,1,0-1.66-1.67A1.66,1.66,0,0,0,33.49,68.72Z"/><path class="b" d="M50,41.2a1.66,1.66,0,1,0-1.66-1.66A1.66,1.66,0,0,0,50,41.2Z"/><path class="b" d="M83,68.72a1.67,1.67,0,1,0-1.66-1.67A1.67,1.67,0,0,0,83,68.72Z"/><path class="b" d="M83,41.2a1.66,1.66,0,1,0-1.66-1.66A1.66,1.66,0,0,0,83,41.2Z"/><polygon class="b" points="85.17 94.81 96.37 80.93 85.17 80.93 85.17 94.81"/><path class="b" d="M26.06,4.16v0A1.22,1.22,0,0,0,24.77,3H17.85a1.15,1.15,0,0,0-1.11,1.19v10h9.32Z"/><path class="b" d="M83.26,4.16V4.07A1.15,1.15,0,0,0,82.05,3H75.2a1.23,1.23,0,0,0-1.26,1.19v10h9.32Z"/><path class="b" d="M66.51,65.39a1.67,1.67,0,0,0-1.67,1.66h0a1.67,1.67,0,1,0,3.33,0A1.66,1.66,0,0,0,66.51,65.39Z"/><path class="b" d="M66.51,41.2a1.66,1.66,0,1,0-1.67-1.66A1.66,1.66,0,0,0,66.51,41.2Z"/><path class="b" d="M71.82,61.86H61V72.67h10.8Zm-5.31,9.4a4.21,4.21,0,1,1,4.2-4.21A4.22,4.22,0,0,1,66.51,71.26Z"/><path class="b" d="M66.51,55a1.67,1.67,0,1,0-1.67-1.66A1.66,1.66,0,0,0,66.51,55Z"/><path class="b" d="M83,55a1.67,1.67,0,1,0-1.66-1.67A1.66,1.66,0,0,0,83,55Z"/><path class="b" d="M7.54,10H7.42a4.93,4.93,0,0,0-4.88,5V25H14.45a1.27,1.27,0,1,1,0,2.54H2.54V92.12a5,5,0,0,0,5,4.91H82.63V79.75a1.32,1.32,0,0,1,1.23-1.36h13.6V27.54h-76a1.27,1.27,0,0,1,0-2.54h76V14.82a4.93,4.93,0,0,0-5-4.86H85.8v5.68a1.15,1.15,0,0,1-1.2,1.1H72.69a1.22,1.22,0,0,1-1.29-1.19V10H28.6v5.59a1.22,1.22,0,0,1-1.29,1.19h-12a1.16,1.16,0,0,1-1.12-1.19V10ZM83,35.33a4.21,4.21,0,1,1-4.2,4.21A4.22,4.22,0,0,1,83,35.33Zm0,13.76a4.21,4.21,0,1,1-4.2,4.21A4.2,4.2,0,0,1,83,49.09Zm0,13.76a4.21,4.21,0,1,1-4.2,4.2A4.2,4.2,0,0,1,83,62.85ZM66.51,35.33a4.21,4.21,0,1,1-4.21,4.21A4.21,4.21,0,0,1,66.51,35.33Zm0,13.76A4.21,4.21,0,1,1,62.3,53.3,4.2,4.2,0,0,1,66.51,49.09Zm-8,11.5a1.27,1.27,0,0,1,1.27-1.27H73.09a1.27,1.27,0,0,1,1.27,1.27V73.94a1.27,1.27,0,0,1-1.27,1.27H59.74a1.27,1.27,0,0,1-1.27-1.27ZM50,35.33a4.21,4.21,0,1,1-4.21,4.21A4.21,4.21,0,0,1,50,35.33Zm0,13.76a4.21,4.21,0,1,1-4.21,4.21A4.2,4.2,0,0,1,50,49.09Zm0,13.76a4.2,4.2,0,0,1,4.2,4.2h0a4.21,4.21,0,1,1-4.2-4.2ZM50,76.6a4.21,4.21,0,0,1,4.2,4.21h0A4.21,4.21,0,1,1,50,76.6ZM33.49,35.33a4.21,4.21,0,1,1-4.2,4.21A4.23,4.23,0,0,1,33.49,35.33Zm0,13.76a4.21,4.21,0,1,1-4.2,4.21A4.22,4.22,0,0,1,33.49,49.09Zm0,13.76a4.21,4.21,0,0,1,4.21,4.2h0a4.21,4.21,0,1,1-4.21-4.2Zm0,13.75a4.23,4.23,0,0,1,4.21,4.21h0a4.21,4.21,0,1,1-4.21-4.21ZM9.32,76.49a1.27,1.27,0,1,1-2.54,0V38a1.27,1.27,0,1,1,2.54,0Zm0-42.71a1.27,1.27,0,1,1-2.54,0V33a1.27,1.27,0,1,1,2.54,0Zm11.87,47A4.21,4.21,0,1,1,17,76.6a4.21,4.21,0,0,1,4.2,4.21Zm0-13.76a4.21,4.21,0,1,1-4.2-4.2,4.2,4.2,0,0,1,4.2,4.2Zm0-13.75A4.21,4.21,0,1,1,17,49.09,4.2,4.2,0,0,1,21.19,53.3Z"/><path class="b" d="M33.49,41.2a1.66,1.66,0,1,0-1.66-1.66A1.66,1.66,0,0,0,33.49,41.2Z"/><path class="b" d="M50,82.47a1.66,1.66,0,1,0-1.67-1.66A1.66,1.66,0,0,0,50,82.47Z"/><path class="b" d="M33.49,55a1.67,1.67,0,1,0-1.66-1.66A1.66,1.66,0,0,0,33.49,55Z"/><path class="b" d="M50,68.72a1.67,1.67,0,1,0-1.67-1.67A1.66,1.66,0,0,0,50,68.72Z"/><path class="b" d="M17,65.39a1.67,1.67,0,1,0,1.67,1.66A1.66,1.66,0,0,0,17,65.39Z"/><path class="b" d="M17,79.15a1.66,1.66,0,1,0,1.67,1.66A1.66,1.66,0,0,0,17,79.15Z"/><path class="b" d="M17,55a1.67,1.67,0,1,0-1.67-1.66A1.67,1.67,0,0,0,17,55Z"/><path class="b" d="M50,55a1.67,1.67,0,1,0-1.66-1.66A1.66,1.66,0,0,0,50,55Z"/><path class="b" d="M33.49,82.47a1.66,1.66,0,1,0-1.66-1.66A1.66,1.66,0,0,0,33.49,82.47Z"/><path class="c" d="M0,14.83V92a7.51,7.51,0,0,0,7.45,7.56H83.86a1.26,1.26,0,0,0,1-.44L99.76,80.81A1.21,1.21,0,0,0,100,80V14.94a7.47,7.47,0,0,0-7.43-7.52H85.8V4.16A3.7,3.7,0,0,0,82.14.42H75.23A3.77,3.77,0,0,0,71.4,4.13V7.42H28.6V4.16A3.78,3.78,0,0,0,24.8.42H17.94a3.71,3.71,0,0,0-3.75,3.66V7.42H7.54A7.47,7.47,0,0,0,0,14.83Zm85.17,80V80.93h11.2ZM73.94,4.16A1.23,1.23,0,0,1,75.2,3h6.85a1.15,1.15,0,0,1,1.21,1.1V14.2H73.94Zm-57.2,0A1.15,1.15,0,0,1,17.85,3h6.92a1.22,1.22,0,0,1,1.29,1.16V14.2H16.74ZM15.31,16.74h12a1.22,1.22,0,0,0,1.29-1.19V10H71.4v5.59a1.22,1.22,0,0,0,1.29,1.19H84.6a1.15,1.15,0,0,0,1.2-1.1V10h6.66a4.93,4.93,0,0,1,5,4.86V25h-76a1.27,1.27,0,0,0,0,2.54h76V78.39H83.86a1.32,1.32,0,0,0-1.23,1.36V97H7.54a5,5,0,0,1-5-4.91V27.54H14.45a1.27,1.27,0,1,0,0-2.54H2.54V14.94a4.93,4.93,0,0,1,4.88-5h6.77v5.59A1.16,1.16,0,0,0,15.31,16.74Z"/><path class="c" d="M8.05,31.75A1.27,1.27,0,0,0,6.78,33v.76a1.27,1.27,0,1,0,2.54,0V33A1.27,1.27,0,0,0,8.05,31.75Z"/><path class="c" d="M8.05,36.76A1.27,1.27,0,0,0,6.78,38V76.49a1.27,1.27,0,1,0,2.54,0V38A1.27,1.27,0,0,0,8.05,36.76Z"/><path class="c" d="M59.74,75.21H73.09a1.27,1.27,0,0,0,1.27-1.27V60.59a1.27,1.27,0,0,0-1.27-1.27H59.74a1.27,1.27,0,0,0-1.27,1.27V73.94A1.27,1.27,0,0,0,59.74,75.21ZM61,61.86h10.8V72.67H61Z"/><path class="d" d="M33.49,43.75a4.21,4.21,0,1,0-4.2-4.21A4.22,4.22,0,0,0,33.49,43.75Zm0-5.87a1.66,1.66,0,1,1-1.66,1.66A1.66,1.66,0,0,1,33.49,37.88Z"/><path class="d" d="M50,43.75a4.21,4.21,0,1,0-4.21-4.21A4.21,4.21,0,0,0,50,43.75Zm0-5.87a1.66,1.66,0,1,1-1.66,1.66A1.66,1.66,0,0,1,50,37.88Z"/><path class="d" d="M66.51,43.75a4.21,4.21,0,1,0-4.21-4.21A4.21,4.21,0,0,0,66.51,43.75Zm0-5.87a1.66,1.66,0,1,1-1.67,1.66A1.66,1.66,0,0,1,66.51,37.88Z"/><path class="d" d="M83,43.75a4.21,4.21,0,1,0-4.21-4.21A4.21,4.21,0,0,0,83,43.75Zm0-5.87a1.66,1.66,0,1,1-1.67,1.66A1.66,1.66,0,0,1,83,37.88Z"/><path class="d" d="M12.78,53.3A4.21,4.21,0,1,0,17,49.09,4.2,4.2,0,0,0,12.78,53.3ZM17,51.63a1.67,1.67,0,1,1-1.67,1.67A1.67,1.67,0,0,1,17,51.63Z"/><path class="d" d="M33.49,57.5a4.21,4.21,0,1,0-4.2-4.2A4.21,4.21,0,0,0,33.49,57.5Zm0-5.87a1.67,1.67,0,1,1-1.66,1.67A1.66,1.66,0,0,1,33.49,51.63Z"/><path class="d" d="M50,57.5a4.21,4.21,0,1,0-4.21-4.2A4.2,4.2,0,0,0,50,57.5Zm0-5.87a1.67,1.67,0,1,1-1.66,1.67A1.66,1.66,0,0,1,50,51.63Z"/><path class="d" d="M66.51,57.5a4.21,4.21,0,1,0-4.21-4.2A4.2,4.2,0,0,0,66.51,57.5Zm0-5.87a1.67,1.67,0,1,1-1.67,1.67A1.66,1.66,0,0,1,66.51,51.63Z"/><path class="d" d="M83,57.5a4.21,4.21,0,1,0-4.21-4.2A4.2,4.2,0,0,0,83,57.5Zm0-5.87a1.67,1.67,0,1,1-1.67,1.66A1.66,1.66,0,0,1,83,51.63Z"/><path class="d" d="M17,62.85a4.21,4.21,0,1,0,4.2,4.2h0A4.2,4.2,0,0,0,17,62.85Zm0,5.87a1.67,1.67,0,1,1,1.66-1.67A1.67,1.67,0,0,1,17,68.72Z"/><path class="d" d="M33.49,71.26a4.21,4.21,0,0,0,4.21-4.21h0a4.21,4.21,0,1,0-4.21,4.21Zm0-5.87a1.67,1.67,0,1,1-1.66,1.66A1.66,1.66,0,0,1,33.49,65.39Z"/><path class="d" d="M50,71.26a4.2,4.2,0,0,0,4.2-4.21h0A4.21,4.21,0,1,0,50,71.26Zm0-5.87a1.67,1.67,0,0,1,0,3.33,1.67,1.67,0,1,1,0-3.33Z"/><path class="d" d="M66.51,62.85a4.21,4.21,0,1,0,4.2,4.2A4.21,4.21,0,0,0,66.51,62.85Zm0,5.87a1.67,1.67,0,0,1-1.67-1.67h0a1.67,1.67,0,1,1,1.67,1.67Z"/><path class="d" d="M83,71.26a4.21,4.21,0,1,0-4.21-4.21A4.2,4.2,0,0,0,83,71.26Zm0-5.87a1.67,1.67,0,1,1-1.67,1.66A1.66,1.66,0,0,1,83,65.39Z"/><path class="d" d="M17,76.6a4.21,4.21,0,1,0,4.2,4.21h0A4.21,4.21,0,0,0,17,76.6Zm0,5.87a1.66,1.66,0,1,1,1.66-1.66A1.66,1.66,0,0,1,17,82.47Z"/><path class="d" d="M33.49,85a4.22,4.22,0,0,0,4.21-4.21h0A4.21,4.21,0,1,0,33.49,85Zm0-5.87a1.66,1.66,0,1,1-1.66,1.66A1.65,1.65,0,0,1,33.49,79.15Z"/><path class="d" d="M50,85a4.21,4.21,0,0,0,4.2-4.21h0A4.21,4.21,0,1,0,50,85Zm0-5.87a1.66,1.66,0,1,1-1.67,1.66A1.65,1.65,0,0,1,50,79.15Z"/></svg>