<svg xmlns="http://www.w3.org/2000/svg" viewBox="0 0 100 100"><defs><style>.a{fill:#e6e7e8;}.b{fill:none;}.c{fill:#21409a;}.d{fill:#ec008c;}</style></defs><path class="a" d="M21.7,15.52A48.58,48.58,0,0,1,53.09,1.34a48.76,48.76,0,1,0,0,97.32A48.76,48.76,0,0,1,21.7,15.52Z"/><path class="b" d="M76.83,24.92A7,7,0,0,1,71,30.73l-.19.19h3.39a7.58,7.58,0,0,1,7.36,5.83l3.25,13.87a3.19,3.19,0,0,1-.59,2.75,3.34,3.34,0,0,1-1.71,1.14,3.3,3.3,0,0,1-4-2.31v0l-.74-3V78.64a4.46,4.46,0,0,1-7.69,3.08,4.46,4.46,0,0,1-7.68-3.08V54.53a3.37,3.37,0,0,1-.77.09,3.27,3.27,0,0,1-3.16-2.42v0l-.74-3V78.64A4.46,4.46,0,0,1,50,81.72a4.46,4.46,0,0,1-7.69-3.08V59.44l-4.68,4.67V78.64a4.39,4.39,0,0,1-1.38,3.23,4.46,4.46,0,0,1-6.3-.15,4.45,4.45,0,0,1-7.61-2.31l-5.06,5.06A47.53,47.53,0,0,0,84.47,17.28Z"/><path class="b" d="M21.52,52.16v0a3.36,3.36,0,0,1-1.14,1.72,3.28,3.28,0,0,1-4.61-.55,3.15,3.15,0,0,1-.58-2.76l3.23-13.84a7.6,7.6,0,0,1,7.37-5.85h8.33A7.5,7.5,0,0,1,40,33.72a7.55,7.55,0,0,1,5.87-2.8h8.32A7.55,7.55,0,0,1,60,33.72a7.53,7.53,0,0,1,5.86-2.8h1.45l.45-.46a7,7,0,1,1,8.78-8.78l6.15-6.15A47.53,47.53,0,0,0,15.53,82.72L22.26,76V49.2ZM49.91,16.9a7,7,0,1,1-7,7A7,7,0,0,1,49.91,16.9Zm-27,7a7,7,0,1,1,7,7,7,7,0,0,1-7-7Z"/><path class="b" d="M44.79,78.64v.08a2,2,0,1,0,4-.08V57.76a1.24,1.24,0,0,1,2.48,0v21a2,2,0,1,0,4-.08V46.54L44.79,57Z"/><path class="b" d="M60.82,51.54a.81.81,0,0,0,.78.61.76.76,0,0,0,.64-.3.7.7,0,0,0,.13-.24v-.43l-2.24-9.56-1.44,1.44Z"/><path class="b" d="M61.36,36.17a5.15,5.15,0,0,1,.16.56l3.19-3.19A5.12,5.12,0,0,0,61.36,36.17Z"/><polygon class="b" points="62.21 39.65 62.25 39.5 62.19 39.56 62.21 39.65"/><path class="b" d="M64.84,39.21V78.72a2,2,0,0,0,4-.08V57.76a1.24,1.24,0,1,1,2.47,0V78.7a2,2,0,1,0,4-.06V39.21a1.23,1.23,0,0,1,2.43-.3l3.18,12.63a.81.81,0,0,0,.77.61.76.76,0,0,0,.64-.3.71.71,0,0,0,.14-.64L79.18,37.33a5.13,5.13,0,0,0-5-3.94H68.36L63.75,38A1.23,1.23,0,0,1,64.84,39.21Z"/><path class="b" d="M42.31,49.2l-.74,3v0a3.27,3.27,0,0,1-3.16,2.42,3.37,3.37,0,0,1-.77-.09v6.09l4.68-4.68Z"/><path class="b" d="M49.91,28.34a4.49,4.49,0,1,0-4.49-4.48A4.49,4.49,0,0,0,49.91,28.34Z"/><path class="b" d="M29.85,28.34a4.49,4.49,0,1,0-4.48-4.48h0A4.49,4.49,0,0,0,29.85,28.34Z"/><path class="b" d="M55.21,39.21a1.24,1.24,0,0,1,2.44-.3L58,40.26l1.48-1.47-.34-1.46a5.13,5.13,0,0,0-5-3.94H45.84a5.13,5.13,0,0,0-5,4L37.63,51.18v.43a.8.8,0,0,0,.13.24.79.79,0,0,0,.64.3.81.81,0,0,0,.78-.61l3.17-12.63a1.24,1.24,0,0,1,2.44.3V53.47L55.21,43Z"/><path class="b" d="M70,19.37a4.49,4.49,0,0,0,0,9l4.53-4.53A4.48,4.48,0,0,0,70,19.37Z"/><path class="b" d="M31.18,78.64v.08a2,2,0,1,0,4-.08v-12l-4,4Z"/><path class="b" d="M24.73,78.64v.06a2,2,0,0,0,4-.06V73l-4,4Z"/><path class="b" d="M28.71,57.76a1.24,1.24,0,1,1,2.47,0v9.31l4-4V39.21a1.24,1.24,0,0,1,2.43-.31l.2.75.68-2.88a5.72,5.72,0,0,1,.17-.59,5.09,5.09,0,0,0-4.53-2.79H25.78a5.12,5.12,0,0,0-5,4L17.58,51.19a.75.75,0,0,0,.13.66.79.79,0,0,0,.64.3.8.8,0,0,0,.77-.61L22.3,38.91a1.23,1.23,0,0,1,2.43.3V73.52l4-4Z"/><polygon class="c" points="55.21 46.53 55.21 43.04 44.79 53.47 44.79 56.96 55.21 46.53"/><path class="c" d="M67.79,30.46l-.45.46h3.49l.19-.19a7.33,7.33,0,0,1-1.06.09A7.05,7.05,0,0,1,67.79,30.46Z"/><path class="c" d="M74.45,23.86s0,0,0-.05l-4.53,4.53h0A4.49,4.49,0,0,0,74.45,23.86Z"/><path class="c" d="M50,0A50,50,0,1,0,85.36,14.64,50,50,0,0,0,50,0ZM83.61,83.61a47.53,47.53,0,0,1-66.33.86l5.06-5.06a3.94,3.94,0,0,1-.08-.77V76l-6.73,6.73A47.53,47.53,0,0,1,82.72,15.53l-6.15,6.15a7.16,7.16,0,0,1,.35,2.18,7.45,7.45,0,0,1-.09,1.06l7.64-7.64A47.53,47.53,0,0,1,83.61,83.61Z"/><polygon class="c" points="24.73 73.52 24.73 77.02 28.71 73.04 28.71 69.54 24.73 73.52"/><polygon class="c" points="58.69 43.06 60.13 41.62 59.47 38.78 57.99 40.26 58.69 43.06"/><polygon class="c" points="37.63 60.62 37.63 64.11 42.31 59.44 42.31 55.94 37.63 60.62"/><path class="c" d="M62.19,39.56l.06-.06.16-.6A1.23,1.23,0,0,1,63.6,38l.15,0,4.61-4.61H65.89a5.15,5.15,0,0,0-1.18.15l-3.19,3.19v0Z"/><polygon class="c" points="31.18 67.07 31.18 70.56 35.16 66.59 35.16 63.09 31.18 67.07"/><path class="d" d="M49.91,30.82a7,7,0,1,0-7-7A7,7,0,0,0,49.91,30.82Zm0-11.45a4.49,4.49,0,1,1-4.49,4.49A4.49,4.49,0,0,1,49.91,19.37Z"/><path class="d" d="M76.83,24.92,71,30.73A7,7,0,0,0,76.83,24.92Z"/><path class="d" d="M70,16.9a7,7,0,0,0-2.17,13.56l2.12-2.12a4.49,4.49,0,1,1,4.53-4.53l2.13-2.13A7,7,0,0,0,70,16.9Z"/><path class="c" d="M74.45,23.86A4.49,4.49,0,0,1,70,28.34h0l-2.12,2.12a7.05,7.05,0,0,0,2.17.36A7.33,7.33,0,0,0,71,30.73l5.81-5.81a7.45,7.45,0,0,0,.09-1.06,7.16,7.16,0,0,0-.35-2.18l-2.13,2.13S74.45,23.84,74.45,23.86Z"/><path class="d" d="M29.85,30.82a7,7,0,1,0-7-7h0A7,7,0,0,0,29.85,30.82Zm-4.48-7a4.49,4.49,0,1,1,4.48,4.48,4.49,4.49,0,0,1-4.48-4.48Z"/><path class="d" d="M24.73,39.21a1.23,1.23,0,0,0-2.43-.3L19.12,51.54a.8.8,0,0,1-.77.61.79.79,0,0,1-.64-.3.75.75,0,0,1-.13-.66l3.24-13.85a5.12,5.12,0,0,1,5-4h8.33a5.09,5.09,0,0,1,4.53,2.79,5.72,5.72,0,0,0-.17.59l-.68,2.88-.2-.75a1.24,1.24,0,0,0-2.43.31V63.09l2.47-2.47V54.53a3.37,3.37,0,0,0,.77.09,3.27,3.27,0,0,0,3.16-2.42v0l.74-3v6.74l2.48-2.47V39.21a1.24,1.24,0,0,0-2.44-.3L39.18,51.54a.81.81,0,0,1-.78.61.79.79,0,0,1-.64-.3.8.8,0,0,1-.13-.24v-.43l3.24-13.84a5.13,5.13,0,0,1,5-4h8.32a5.13,5.13,0,0,1,5,3.94l.34,1.46,2.05-2.06a5.15,5.15,0,0,0-.16-.56,5.12,5.12,0,0,1,3.35-2.63l2.63-2.62H65.89A7.53,7.53,0,0,0,60,33.72a7.55,7.55,0,0,0-5.87-2.8H45.84A7.55,7.55,0,0,0,40,33.72a7.5,7.5,0,0,0-5.86-2.8H25.78a7.6,7.6,0,0,0-7.37,5.85L15.18,50.61a3.15,3.15,0,0,0,.58,2.76,3.28,3.28,0,0,0,4.61.55,3.36,3.36,0,0,0,1.14-1.72v0l.74-3V76l2.47-2.47Z"/><path class="d" d="M57.65,38.91a1.24,1.24,0,0,0-2.44.3V43L58,40.26Z"/><path class="d" d="M74.22,33.39a5.13,5.13,0,0,1,5,3.94l3.25,13.88a.71.71,0,0,1-.14.64.76.76,0,0,1-.64.3.81.81,0,0,1-.77-.61L77.7,38.91a1.23,1.23,0,0,0-2.43.3V78.64a2,2,0,1,1-4,.06V57.76a1.24,1.24,0,1,0-2.47,0V78.64a2,2,0,0,1-4,.08V39.21A1.23,1.23,0,0,0,63.75,38l-1.5,1.5,0,.15,0-.09-2.06,2.06,2.24,9.56v.43a.7.7,0,0,1-.13.24.76.76,0,0,1-.64.3.81.81,0,0,1-.78-.61l-2.13-8.48-3.48,3.48v32.1a2,2,0,1,1-4,.08v-21a1.24,1.24,0,0,0-2.48,0V78.64a2,2,0,1,1-4,.08V57l-2.48,2.48v19.2A4.46,4.46,0,0,0,50,81.72a4.46,4.46,0,0,0,7.69-3.08V49.2l.74,3v0a3.27,3.27,0,0,0,3.16,2.42,3.37,3.37,0,0,0,.77-.09V78.64a4.46,4.46,0,0,0,7.68,3.08,4.46,4.46,0,0,0,7.69-3.08V49.2l.74,3v0a3.3,3.3,0,0,0,4,2.31,3.34,3.34,0,0,0,1.71-1.14,3.19,3.19,0,0,0,.59-2.75L81.58,36.75a7.58,7.58,0,0,0-7.36-5.83H70.83l-2.47,2.47Z"/><path class="d" d="M26.72,83.1A4.47,4.47,0,0,0,30,81.72a4.46,4.46,0,0,0,6.3.15,4.39,4.39,0,0,0,1.38-3.23V64.11l-2.47,2.48v12a2,2,0,1,1-4,.08V70.56L28.71,73v5.6a2,2,0,0,1-4,.06V77l-2.39,2.4A4.45,4.45,0,0,0,26.72,83.1Z"/><path class="d" d="M30,56.52a1.23,1.23,0,0,0-1.24,1.24V69.54l2.47-2.47V57.76A1.23,1.23,0,0,0,30,56.52Z"/><path class="c" d="M24.73,73.52,22.26,76v2.65a3.94,3.94,0,0,0,.08.77L24.73,77Z"/><polygon class="c" points="28.71 69.54 28.71 73.04 31.18 70.56 31.18 67.07 28.71 69.54"/><polygon class="c" points="55.21 43.04 55.21 46.53 58.69 43.06 57.99 40.26 55.21 43.04"/><path class="c" d="M64.71,33.54a5.15,5.15,0,0,1,1.18-.15h2.47l2.47-2.47H67.34Z"/><path class="c" d="M62.19,39.56l-.66-2.81v0l-2.05,2.06.66,2.83Z"/><polygon class="c" points="35.16 63.09 35.16 66.59 37.63 64.11 37.63 60.62 35.16 63.09"/><polygon class="c" points="44.79 53.47 42.31 55.94 42.31 59.44 44.79 56.96 44.79 53.47"/><path class="c" d="M62.41,38.9l-.16.6,1.5-1.5-.15,0A1.23,1.23,0,0,0,62.41,38.9Z"/></svg>