<svg xmlns="http://www.w3.org/2000/svg" viewBox="0 0 100 100"><defs><style>.a{fill:#e6e7e8;}.b{fill:none;}.c{fill:#21409a;}.d{fill:#ec008c;}</style></defs><polygon class="a" points="45.76 24.94 52.12 18.48 50 16.33 41.52 24.94 41.52 45.52 45.76 41.28 45.76 24.94"/><polygon class="a" points="38.98 34.65 4.75 65.47 8.99 65.47 38.98 38.46 38.98 34.65"/><path class="a" d="M34.34,62.5h1.25v-.64l-.31.27A1.38,1.38,0,0,1,34.34,62.5Z"/><rect class="a" x="7.84" y="68.01" width="4.24" height="29.45"/><polygon class="a" points="52.12 49.5 50 47.37 38.14 59.31 38.14 97.46 42.37 97.46 42.37 59.31 52.12 49.5"/><rect class="a" x="64.41" y="68.01" width="4.24" height="29.45"/><path class="a" d="M73.57,61.72a1.27,1.27,0,0,1-1.17.78h4.24a1.27,1.27,0,0,0,.89-2.17L65.25,48.06V38.47L61,34.66v13.4L73.29,60.33A1.26,1.26,0,0,1,73.57,61.72Z"/><path class="a" d="M65.66,62.5a1.38,1.38,0,0,1-.94-.37l-.31-.27v3.61h4.23v-3Z"/><path class="a" d="M51.27,78.66a2.86,2.86,0,0,0-1.22-.27H50a2.94,2.94,0,0,0-2.92,3V97.46h2.55V81.37A3,3,0,0,1,51.27,78.66Z"/><path class="b" d="M82.84,80.73a3,3,0,0,0-3-3h-.1a3,3,0,0,0-3,3V86h6.15Z"/><path class="b" d="M92.16,97.46V68H64.41V97.46ZM72.25,86h1.9V80.73a5.57,5.57,0,0,1,5.56-5.52h.1a5.57,5.57,0,0,1,5.57,5.52V86h1.7a1.27,1.27,0,0,1,0,2.54H72.25a1.27,1.27,0,1,1,0-2.54Z"/><path class="b" d="M73.29,60.33a1.27,1.27,0,0,1-.89,2.17H65.66a1.38,1.38,0,0,1-.94-.37l-.31-.27v3.61H95.25L61,34.66v13.4Z"/><path class="b" d="M49.11,37.92a1.26,1.26,0,0,1,1.78,0l7.58,7.59V24.94L50,16.33l-8.47,8.61V45.52l7.57-7.59Z"/><path class="b" d="M50,47.36l-11.86,12V97.46h6.35V81.37h0A5.48,5.48,0,0,1,50,75.85h.12a5.48,5.48,0,0,1,5.44,5.52V97.46h6.35V59.31Zm4,12H51.27V67a1.27,1.27,0,1,1-2.54,0V59.32h-3a1.27,1.27,0,1,1,0-2.54h3V54a1.27,1.27,0,0,1,2.54,0v2.76H54a1.27,1.27,0,0,1,0,2.54Z"/><path class="b" d="M20.29,77.75h-.11a3,3,0,0,0-3,3V86h6.15V80.73A3,3,0,0,0,20.29,77.75Z"/><path class="b" d="M7.84,68V97.46H35.59V68ZM27.75,88.56H12.92a1.27,1.27,0,0,1,0-2.54h1.7V80.73a5.57,5.57,0,0,1,5.56-5.52h.11a5.57,5.57,0,0,1,5.56,5.52V86h1.9a1.27,1.27,0,1,1,0,2.54Z"/><path class="b" d="M35.28,62.13a1.38,1.38,0,0,1-.94.37H27.6a1.27,1.27,0,0,1-.89-2.17L39,48.06V34.64L4.75,65.47H35.59V61.86Z"/><path class="b" d="M30.67,60h3.14L49.1,44.67a1.27,1.27,0,0,1,1.8,0L66.19,60h3.14L50,40.63Z"/><path class="c" d="M72.25,88.56H87.08a1.27,1.27,0,0,0,0-2.54h-1.7V80.73a5.57,5.57,0,0,0-5.57-5.52h-.1a5.57,5.57,0,0,0-5.56,5.52V86h-1.9a1.27,1.27,0,1,0,0,2.54Zm4.44-7.83a3,3,0,0,1,3-3h.1a3,3,0,0,1,3,3V86H76.69Z"/><path class="c" d="M27.75,86h-1.9V80.73a5.57,5.57,0,0,0-5.56-5.52h-.11a5.57,5.57,0,0,0-5.56,5.52V86h-1.7a1.27,1.27,0,0,0,0,2.54H27.75a1.27,1.27,0,1,0,0-2.54Zm-4.44,0H17.16V80.73a3,3,0,0,1,3-3h.11a3,3,0,0,1,3,3Z"/><path class="d" d="M54,56.78H51.27V54a1.27,1.27,0,0,0-2.54,0v2.76h-3a1.27,1.27,0,1,0,0,2.54h3V67a1.27,1.27,0,1,0,2.54,0V59.32H54a1.27,1.27,0,0,0,0-2.54Z"/><path class="b" d="M53,81.35a2.94,2.94,0,0,0-2.92-3h-.12a3,3,0,0,0-2.9,3V97.46H53V81.35Z"/><path class="d" d="M50.07,75.85H50a5.48,5.48,0,0,0-5.46,5.51h0V97.46H47V81.37a3,3,0,0,1,2.9-3h.12a2.94,2.94,0,0,1,2.92,3V97.46h2.54V81.37A5.48,5.48,0,0,0,50.07,75.85Z"/><path class="c" d="M99.83,66.74a1.27,1.27,0,0,0-.42-.95L61,31.24v3.42L95.25,65.47H64.41V68H92.16V97.46H7.84V68H35.59V65.47H4.75L39,34.64V31.22L.59,65.79A1.27,1.27,0,0,0,1.44,68H5.3V98.73A1.36,1.36,0,0,0,6.67,100H93.33a1.36,1.36,0,0,0,1.37-1.27V68h3.86A1.27,1.27,0,0,0,99.83,66.74Z"/><path class="d" d="M40.93,32.89l-2,1.75V48.06L26.71,60.33a1.27,1.27,0,0,0,.89,2.17h6.74a1.38,1.38,0,0,0,.94-.37l.31-.27v3.61h1.27V68H35.59V97.46h2.55V59.31L50,47.36l11.86,12V97.46h2.55V68H63.14V65.47h1.27V61.86l.31.27a1.38,1.38,0,0,0,.94.37H72.4a1.27,1.27,0,0,0,.89-2.17L61,48.06V34.66l-2.14-1.93,1.7-1.89.44.4V29.87h2.86a1.27,1.27,0,0,0,1.27-1.27,1.29,1.29,0,0,0-.36-.89L51.27,14V6.57H54A1.27,1.27,0,0,0,54,4H51.27V1.27a1.27,1.27,0,0,0-2.54,0V4h-3a1.27,1.27,0,1,0,0,2.54h3V14L35.21,27.71a1.27,1.27,0,0,0,.91,2.16H39v1.35l.25-.22ZM69.33,60H66.19L50.9,44.67a1.27,1.27,0,0,0-1.8,0L33.81,60H30.67L50,40.63Zm-27.8-35L50,16.33l8.47,8.61V45.52l-7.58-7.59a1.26,1.26,0,0,0-1.78,0h0l-7.57,7.59Z"/><rect class="d" x="35.59" y="65.47" width="1.27" height="2.54"/><rect class="d" x="63.14" y="65.47" width="1.27" height="2.54"/><polygon class="d" points="40.93 32.89 39.23 31 38.98 31.22 38.98 34.65 40.93 32.89"/><polygon class="d" points="58.88 32.73 61.02 34.66 61.02 31.23 60.58 30.84 58.88 32.73"/></svg>