<svg xmlns="http://www.w3.org/2000/svg" viewBox="0 0 100 100"><defs><style>.a{fill:#e6e7e8;}.b{fill:none;}.c{fill:#21409a;}.d{fill:#ec008c;}</style></defs><path class="a" d="M19.22,15.89l0,0,3.71,12.59,3.21-3L23.8,17.63a41.47,41.47,0,0,1-4.58-1.74Z"/><path class="a" d="M36.87,83.58c-2.27,0-4.34,0-6.14-.07v.21l8.22,13,3-5-5.08-8Z"/><path class="b" d="M72.66,38.74h0a1.41,1.41,0,0,0-.42,1,1.44,1.44,0,1,0,1.43-1.43A1.38,1.38,0,0,0,72.66,38.74Z"/><path class="b" d="M59.34,18.33a1.38,1.38,0,0,1,.28.19l7.79,7.28,3.4-10.11a1,1,0,0,1,.17-.33,1.23,1.23,0,0,1,1.71-.28l8.6,6.19,1.82-11.2A142.11,142.11,0,0,1,59.34,18.33Z"/><path class="b" d="M53,28.41l4.72-9.53a1.18,1.18,0,0,1,.11-.19,96,96,0,0,1-11.06,1.88Z"/><path class="b" d="M85.79,73.4l8.25,3L93,67.8A44.59,44.59,0,0,1,85.79,73.4Z"/><path class="b" d="M23.53,26.28l6.41-6A45,45,0,0,1,21.09,18Z"/><path class="b" d="M33.94,20.79l4.25,7.94,5.7-7.91c-1.65.11-3.29.17-4.93.17S35.6,20.93,33.94,20.79Z"/><path class="b" d="M8.33,85.38a1.43,1.43,0,1,0,2,2h0a1.42,1.42,0,0,0,0-2h0A1.44,1.44,0,0,0,8.33,85.38Z"/><path class="b" d="M7.26,47.92l1,2.33,1.28-2.17a1.22,1.22,0,0,1,1-.61L13,47.29,11.3,45.41A1.25,1.25,0,0,1,11,44.3l.61-2.45-2.31,1a1.24,1.24,0,0,1-1.14-.08L6,41.45,6.28,44a1.21,1.21,0,0,1-.43,1L3.92,46.64l2.47.54A1.23,1.23,0,0,1,7.26,47.92Z"/><path class="b" d="M30.83,54.55A1.24,1.24,0,0,1,32,54l4.32.64,2.85-3.07A80.24,80.24,0,0,1,27.65,48l-.13,4.24,3.25,2.39Z"/><path class="b" d="M25.05,52.83l.08-2.52-2.05,1.48a1.23,1.23,0,0,1-1.13.15l-2.38-.85.77,2.4a1.24,1.24,0,0,1-.2,1.13l-1.54,2h2.52a1.27,1.27,0,0,1,1,.54l1.41,2.09.8-2.4a1.2,1.2,0,0,1,.82-.79l2.42-.71-2-1.49A1.22,1.22,0,0,1,25.05,52.83Z"/><path class="b" d="M16.76,48.24l0,0a1.22,1.22,0,0,1,1.27-.27l4.11,1.47,3.25-2.33c-1-.43-1.91-.87-2.82-1.33a50.7,50.7,0,0,1-8.14-5.09l-.9,3.6,2.9,3.26A1.19,1.19,0,0,1,16.76,48.24Z"/><path class="b" d="M68.55,60.63,66,60.86l1.71,1.85a1.22,1.22,0,0,1,.3,1.11l-.56,2.45,2.29-1a1.21,1.21,0,0,1,1.14.06l2.17,1.29-.3-2.5A1.25,1.25,0,0,1,73.2,63l1.9-1.66-2.47-.5a1.23,1.23,0,0,1-.89-.72l-1-2.31L69.51,60A1.24,1.24,0,0,1,68.55,60.63Z"/><path class="b" d="M62.06,59.32a1.3,1.3,0,0,1,.25.1,1.21,1.21,0,0,1,1-.78l4.34-.4,2-3.53H68.39c-3.54,0-7.63-.13-12-.49l1.44,4Z"/><path class="b" d="M52.53,60,50,60.07,51.61,62a1.23,1.23,0,0,1,.23,1.12l-.7,2.43,2.35-.92a1.25,1.25,0,0,1,1.14.12l2.08,1.42-.14-2.52a1.21,1.21,0,0,1,.47-1l2-1.55-2.44-.64a1.24,1.24,0,0,1-.85-.77l-.86-2.37-1.36,2.13A1.2,1.2,0,0,1,52.53,60Z"/><path class="b" d="M46.11,58.24a1.13,1.13,0,0,1,.26.16,1.24,1.24,0,0,1,1.07-.71l4.36-.14L54.05,54c-2.39-.23-4.86-.54-7.37-.94q-2.7-.44-5.25-1l.73,4.29Z"/><path class="b" d="M36.62,57.19l-2.49-.36L35.36,59a1.24,1.24,0,0,1,0,1.14l-1.11,2.26,2.47-.49a1.25,1.25,0,0,1,1.09.33L39.64,64l.3-2.5a1.23,1.23,0,0,1,.65-.94l2.23-1.17-2.28-1.06a1.23,1.23,0,0,1-.7-.91L39.42,55,37.7,56.81A1.21,1.21,0,0,1,36.62,57.19Z"/><path class="b" d="M81.5,84.38l.8-9a65.87,65.87,0,0,1-9.14,3.93Z"/><path class="b" d="M32.85,84.79l6.07,9.59,5.49-9a1.09,1.09,0,0,1,.23-.29,1.23,1.23,0,0,1,1.74.11l7.08,8,4.32-9.75a1.34,1.34,0,0,1,.18-.28,139.48,139.48,0,0,1-22.29,1.73Q34.2,84.82,32.85,84.79Z"/><path class="b" d="M59.71,82.94l8.08,6.92,2.66-9.65a97.41,97.41,0,0,1-10.92,2.61A.94.94,0,0,1,59.71,82.94Z"/><path class="b" d="M25.75,4.93a1.45,1.45,0,0,0-.42,1,1.44,1.44,0,1,0,.42-1Z"/><path class="c" d="M83.18,24.14a1.34,1.34,0,0,0,.22-.52L85.81,8.84C88.52,7.56,90.48,6.53,91.46,6A1.23,1.23,0,0,0,90.3,3.84C89.23,4.42,87,5.6,83.78,7.07,58,19,40.49,19.12,32.33,18.16a42.23,42.23,0,0,1-12.6-3.39,34.76,34.76,0,0,1-6.83-4.1,1.23,1.23,0,0,0-1.5,1.95,37.36,37.36,0,0,0,6.76,4.12l3.57,12.14a1.22,1.22,0,0,0,1.52.83,1.14,1.14,0,0,0,.49-.28l8-7.47L37,31.63a1.22,1.22,0,0,0,1,.65H38a1.23,1.23,0,0,0,1-.51l6.4-8.89,6.8,8.57a1.24,1.24,0,0,0,1.73.2,1.17,1.17,0,0,0,.34-.42l4.85-9.78,8,7.45a1.23,1.23,0,0,0,1.74-.06,1.13,1.13,0,0,0,.26-.45l3.48-10.34,8.85,6.37A1.23,1.23,0,0,0,83.18,24.14ZM23.53,26.28,21.09,18a45,45,0,0,0,8.85,2.32Zm14.66,2.45-4.25-7.94c1.66.14,3.34.21,5,.2s3.28-.06,4.93-.17Zm19.49-9.85L53,28.41l-6.23-7.84a96,96,0,0,0,11.06-1.88A1.18,1.18,0,0,0,57.68,18.88Zm15-3.8a1.23,1.23,0,0,0-1.71.28,1,1,0,0,0-.17.33L67.41,25.8l-7.79-7.28a1.38,1.38,0,0,0-.28-.19,142.11,142.11,0,0,0,23.77-8.26l-1.82,11.2Z"/><path class="c" d="M99.37,57.39a1.23,1.23,0,0,0-1.67.47h0A34.93,34.93,0,0,1,93,64.31a42.48,42.48,0,0,1-10.26,8c-7.18,4.1-23.48,10.84-52,9.92-3.38-.11-5.81-.3-7-.41a1.23,1.23,0,1,0-.22,2.45c1.08.1,3.27.28,6.31.39l8,12.66a1.24,1.24,0,0,0,1,.58h0a1.23,1.23,0,0,0,1-.6L45.65,88l7.24,8.16a1.23,1.23,0,0,0,1.74.11,1.19,1.19,0,0,0,.3-.43l4.43-10L67.66,93a1.23,1.23,0,0,0,1.73-.13,1.11,1.11,0,0,0,.25-.48l2.91-10.55,9.36,5.68a1.23,1.23,0,0,0,1.69-.42,1.1,1.1,0,0,0,.17-.52l1-10.93,10.32,3.73a1.22,1.22,0,0,0,1.57-.74,1.19,1.19,0,0,0,.07-.56L95.24,65.51a37.06,37.06,0,0,0,4.6-6.45A1.23,1.23,0,0,0,99.37,57.39Zm-41.59,26-4.32,9.75-7.08-8A1.23,1.23,0,0,0,44.64,85a1.09,1.09,0,0,0-.23.29l-5.49,9-6.07-9.59q1.35,0,2.82,0A139.48,139.48,0,0,0,58,83.09,1.34,1.34,0,0,0,57.78,83.37Zm10,6.49-8.08-6.92a.94.94,0,0,0-.18-.12,97.41,97.41,0,0,0,10.92-2.61ZM81.5,84.38l-8.34-5A65.87,65.87,0,0,0,82.3,75.4Zm4.29-11A44.59,44.59,0,0,0,93,67.8l1,8.58Z"/><path class="c" d="M73.67,35.86h0a3.89,3.89,0,0,0-.15,7.78h.15a3.89,3.89,0,1,0,.15-7.78Zm1.44,3.89a1.44,1.44,0,0,1-2.87,0,1.41,1.41,0,0,1,.42-1h0a1.38,1.38,0,0,1,1-.42A1.43,1.43,0,0,1,75.11,39.75Z"/><path class="c" d="M5.45,86.39A3.89,3.89,0,1,0,9.34,82.5,3.9,3.9,0,0,0,5.45,86.39Zm4.91-1h0a1.42,1.42,0,0,1,0,2h0a1.43,1.43,0,1,1,0-2Z"/><path class="d" d="M21,77.75a1.23,1.23,0,0,0,1.23-1.23V74.24h2.29a1.23,1.23,0,0,0,0-2.46H22.18V69.49a1.23,1.23,0,0,0-2.46,0v2.29H17.44a1.23,1.23,0,1,0,0,2.46h2.28v2.28A1.23,1.23,0,0,0,21,77.75Z"/><path class="d" d="M93.47,23a1.23,1.23,0,0,0-1.23,1.23v2.28H90a1.23,1.23,0,0,0,0,2.46h2.28v2.29a1.23,1.23,0,1,0,2.46,0V28.92H97a1.23,1.23,0,0,0,0-2.46H94.7V24.18A1.23,1.23,0,0,0,93.47,23Z"/><path class="d" d="M22.87,6a3.9,3.9,0,1,0,3.89-3.9A3.89,3.89,0,0,0,22.87,6Zm4.9,1a1.43,1.43,0,0,1-2.44-1,1.43,1.43,0,1,1,2.44,1Z"/><path class="d" d="M1,48.5l4.27.94,1.64,4a1.24,1.24,0,0,0,1,.77H8a1.23,1.23,0,0,0,1.06-.61l2.21-3.76,4.35-.31a1.26,1.26,0,0,0,.79-.38,1.27,1.27,0,0,0,.06.28l1.32,4.15-2.67,3.45a1.23,1.23,0,0,0,.22,1.73,1.3,1.3,0,0,0,.74.26l4.37,0,2.45,3.61a1.23,1.23,0,0,0,1.71.32,1.26,1.26,0,0,0,.48-.63l1.37-4.14L30.66,57a1.32,1.32,0,0,0,.57-.36l1.67,3L31,63.57a1.24,1.24,0,0,0,.55,1.65,1.27,1.27,0,0,0,.79.1l4.28-.84,3.12,3a1.22,1.22,0,0,0,1.74,0,1.19,1.19,0,0,0,.34-.71l.52-4.33,3.87-2a1.18,1.18,0,0,0,.52-.54l2.61,3.18-1.21,4.19a1.23,1.23,0,0,0,.84,1.52,1.19,1.19,0,0,0,.79,0l4.06-1.59,3.62,2.45a1.22,1.22,0,0,0,1.7-.33,1.14,1.14,0,0,0,.21-.76l-.25-4.36,3.44-2.68a1.19,1.19,0,0,0,.35-.45l2.66,2.88-1,4.25a1.24,1.24,0,0,0,.93,1.47,1.26,1.26,0,0,0,.79-.08l4-1.83L74,70a1.24,1.24,0,0,0,1.69-.43,1.21,1.21,0,0,0,.16-.77l-.51-4.34,3.28-2.88a1.23,1.23,0,0,0,.12-1.73,1.31,1.31,0,0,0-.69-.4l-4.28-.85-1.67-3.89c3.93-.09,6.88-.32,8.38-.46a1.22,1.22,0,1,0-.22-2.44h0a142.89,142.89,0,0,1-33.16-1.12,79.63,79.63,0,0,1-23.36-7.1c-7.88-4-13.72-9.29-17.37-15.8a1.23,1.23,0,0,0-2.16,1.19v0a38,38,0,0,0,8.11,9.92L8.93,40.35,5.22,38a1.23,1.23,0,0,0-1.87,1.17l.42,4.34L.44,46.36a1.22,1.22,0,0,0-.15,1.73A1.21,1.21,0,0,0,1,48.5ZM71.74,60.12a1.23,1.23,0,0,0,.89.72l2.47.5L73.2,63a1.25,1.25,0,0,0-.41,1.07l.3,2.5-2.17-1.29a1.21,1.21,0,0,0-1.14-.06l-2.29,1,.56-2.45a1.22,1.22,0,0,0-.3-1.11L66,60.86l2.51-.23a1.24,1.24,0,0,0,1-.63l1.23-2.19Zm-3.35-5.4h1.27l-2,3.53-4.34.4a1.21,1.21,0,0,0-1,.78,1.3,1.3,0,0,0-.25-.1l-4.23-1.1-1.44-4C60.76,54.59,64.85,54.72,68.39,54.72ZM55.74,59.66a1.24,1.24,0,0,0,.85.77l2.44.64-2,1.55a1.21,1.21,0,0,0-.47,1l.14,2.52-2.08-1.42a1.25,1.25,0,0,0-1.14-.12l-2.35.92.7-2.43A1.23,1.23,0,0,0,51.61,62L50,60.07,52.53,60a1.2,1.2,0,0,0,1-.56l1.36-2.13Zm-9.06-6.58c2.51.4,5,.71,7.37.94L51.8,57.55l-4.36.14a1.24,1.24,0,0,0-1.07.71,1.13,1.13,0,0,0-.26-.16l-4-1.84-.73-4.29Q44,52.65,46.68,53.08Zm-6.84,4.37a1.23,1.23,0,0,0,.7.91l2.28,1.06-2.23,1.17a1.23,1.23,0,0,0-.65.94l-.3,2.5-1.81-1.76a1.25,1.25,0,0,0-1.09-.33l-2.47.49,1.11-2.26a1.24,1.24,0,0,0,0-1.14l-1.23-2.2,2.49.36a1.21,1.21,0,0,0,1.08-.38L39.42,55ZM27.65,48A80.24,80.24,0,0,0,39.19,51.6l-2.85,3.07L32,54a1.24,1.24,0,0,0-1.19.52l-.06.1-3.25-2.39Zm-.07,7.33-2.42.71a1.2,1.2,0,0,0-.82.79l-.8,2.4-1.41-2.09a1.27,1.27,0,0,0-1-.54H18.6l1.54-2a1.24,1.24,0,0,0,.2-1.13l-.77-2.4,2.38.85a1.23,1.23,0,0,0,1.13-.15l2.05-1.48-.08,2.52a1.22,1.22,0,0,0,.5,1ZM14.46,40.66a50.7,50.7,0,0,0,8.14,5.09c.91.46,1.85.9,2.82,1.33l-3.25,2.33-4.11-1.47a1.22,1.22,0,0,0-1.27.27l0,0a1.19,1.19,0,0,0-.3-.72l-2.9-3.26ZM5.85,45a1.21,1.21,0,0,0,.43-1L6,41.45l2.15,1.33a1.24,1.24,0,0,0,1.14.08l2.31-1L11,44.3a1.25,1.25,0,0,0,.28,1.11L13,47.29l-2.51.18a1.22,1.22,0,0,0-1,.61L8.21,50.25l-1-2.33a1.23,1.23,0,0,0-.87-.74l-2.47-.54Z"/></svg>