<svg xmlns="http://www.w3.org/2000/svg" viewBox="0 0 100 100"><defs><style>.a{fill:#e6e7e8;}.b{fill:none;}.c{fill:#21409a;}.d{fill:#ec008c;}</style></defs><path class="a" d="M33.19,62.36,33,38.55a36.63,36.63,0,0,0-1-8.14,36.05,36.05,0,0,0-2.77-7.67l-6.17,0a36.56,36.56,0,0,1,2.8,7.72,36,36,0,0,1,1,8.14l.18,23.81a15.45,15.45,0,0,0,12.24,15,15.94,15.94,0,0,0,2.57.3c.27,0,.53,0,.8,0A15.41,15.41,0,0,0,45,77.45l.51-.1h-.08a15.45,15.45,0,0,1-12.25-15Z"/><path class="b" d="M70,15.89,63.89,22h8.56A11.35,11.35,0,0,0,70,15.89Z"/><path class="b" d="M36.88,12.52V51.67h1.23V11.58A4.87,4.87,0,0,0,36,7.51L29.24,2.93l-.76,1.13,6,4.05A5.37,5.37,0,0,1,36.88,12.52Z"/><path class="b" d="M71.73,31.92l.49.5A14.43,14.43,0,0,0,61.14,8.66h0A14.33,14.33,0,0,0,51.79,12l.45.44A13.82,13.82,0,0,1,71.73,31.92Z"/><path class="b" d="M59.61,19.77v-8A11.22,11.22,0,0,0,54,14.18Z"/><path class="b" d="M64.27,24.43,70,30.16a11.38,11.38,0,0,0,2.42-5.73Z"/><path class="b" d="M62.07,11.72v8.6l6.16-6.16A11.3,11.3,0,0,0,62.07,11.72Z"/><rect class="b" x="47.43" y="51.76" width="5.56" height="5.56" transform="translate(-13.02 93.24) rotate(-78.84)"/><path class="b" d="M30.11,97.21l-.45.33h25l-.45-.33h0a12,12,0,0,0-6.8-2.14H36.91A12.06,12.06,0,0,0,30.11,97.21Z"/><path class="b" d="M29.68,42.57a10.32,10.32,0,0,0,4.74,1.78V24l-9.34-.08a38,38,0,0,1,3,14.62l0,3.17C28.69,42,29.2,42.28,29.68,42.57Z"/><rect class="b" x="35.94" y="61.87" width="5.56" height="5.56" transform="translate(-15.15 11.96) rotate(-14.71)"/><path class="b" d="M42.71,78.87h-.85q-.68,0-1.29-.09V92.63h3.27V78.82C43.43,78.85,43.08,78.87,42.71,78.87Z"/><path class="b" d="M56.67,62.24l0-17.65a10.47,10.47,0,0,0-5.16-1.74,1.24,1.24,0,0,1-1.14-1.22.67.67,0,0,1,0-.2,1.19,1.19,0,0,1,1.31-1,11.84,11.84,0,0,1,5,1.37V38a37.39,37.39,0,0,1,2.61-13.74L40.57,24.1V43.62a14.85,14.85,0,0,0,2.06-1.06l1.25-.69A1.23,1.23,0,0,1,45,44.06c-.39.2-.77.41-1.16.63a13.56,13.56,0,0,1-3.28,1.55V53a1.16,1.16,0,0,1-1.19,1.1H35.46a1.11,1.11,0,0,1-1-1.17V46.82a13.15,13.15,0,0,1-6-2.14c-.08,0-.2-.09-.28-.14l.13,17.81a14.26,14.26,0,0,0,4,9.79,13.88,13.88,0,0,0,9.61,4.27h.75A14.22,14.22,0,0,0,56.67,62.24ZM43.92,68.69l-7.75,2a1.23,1.23,0,0,1-1.5-.88l-2-7.75h0a1.22,1.22,0,0,1,.87-1.5l7.75-2h0a1.23,1.23,0,0,1,1.5.88l2,7.75A1.23,1.23,0,0,1,43.92,68.69Zm1.35-9.79a1.23,1.23,0,0,1-1-1.45l1.55-7.86h0a1.23,1.23,0,0,1,1.44-1l7.87,1.56a1.22,1.22,0,0,1,1,1.44l-1.55,7.86h0a1.23,1.23,0,0,1-1.44,1L45.27,58.9Z"/><path class="c" d="M59.15,62.24l0-24.24A35,35,0,0,1,61.6,25.24l-3.44-3.45-17.59-.15V11.58a7.36,7.36,0,0,0-3.22-6.11L29.59.21A1.21,1.21,0,0,0,27.9.54h0L25.75,3.7a1.24,1.24,0,0,0,.33,1.71l7,4.73a2.89,2.89,0,0,1,1.3,2.38v9l-11.26-.09a1.29,1.29,0,0,0-1.08.58A1.21,1.21,0,0,0,22,23.23a35.44,35.44,0,0,1,3.64,15.33l.17,23.81a16.72,16.72,0,0,0,4.73,11.47,16.37,16.37,0,0,0,7.56,4.47V92.63h-1.2a14.44,14.44,0,0,0-8.19,2.59L25,97.8a1.2,1.2,0,0,0,.7,2.2H58.58a1.2,1.2,0,0,0,1.23-1.17,1.17,1.17,0,0,0-.54-1l-3.7-2.59a14.42,14.42,0,0,0-8.2-2.59H46.3V78.45A16.64,16.64,0,0,0,59.15,62.24ZM28.48,4.06l.76-1.13L36,7.51a4.87,4.87,0,0,1,2.14,4.07V51.67H36.88V12.52A5.37,5.37,0,0,0,34.5,8.11Zm-3.4,19.87,9.34.08V44.35a10.32,10.32,0,0,1-4.74-1.78c-.48-.29-1-.58-1.53-.85l0-3.17A38,38,0,0,0,25.08,23.93ZM47.37,95.08a12,12,0,0,1,6.8,2.14h0l.45.33h-25l.45-.33a12.06,12.06,0,0,1,6.8-2.13Zm-6.8-2.45V78.77q.61.08,1.29.09h.85c.37,0,.72,0,1.13-.05V92.63Zm2.08-16.21H41.9a13.88,13.88,0,0,1-9.61-4.27,14.26,14.26,0,0,1-4-9.79l-.13-17.81c.08.05.2.09.28.14a13.15,13.15,0,0,0,6,2.14V53a1.11,1.11,0,0,0,1,1.17h3.92A1.16,1.16,0,0,0,40.57,53V46.24a13.56,13.56,0,0,0,3.28-1.55c.39-.22.77-.43,1.16-.63a1.23,1.23,0,0,0-1.13-2.19l-1.25.69a14.85,14.85,0,0,1-2.06,1.06V24.1l18.74.16A37.39,37.39,0,0,0,56.7,38v3.76a11.84,11.84,0,0,0-5-1.37,1.19,1.19,0,0,0-1.31,1,.67.67,0,0,0,0,.2,1.24,1.24,0,0,0,1.14,1.22,10.47,10.47,0,0,1,5.16,1.74l0,17.65A14.22,14.22,0,0,1,42.65,76.42Z"/><path class="c" d="M54.57,59.49h0l1.55-7.86a1.22,1.22,0,0,0-1-1.44l-7.87-1.56a1.23,1.23,0,0,0-1.44,1h0L44.3,57.45a1.23,1.23,0,0,0,1,1.45h0l7.86,1.55A1.23,1.23,0,0,0,54.57,59.49ZM47,56.72,48,51.27l5.45,1.08L52.4,57.8Z"/><path class="c" d="M42.76,59.44a1.23,1.23,0,0,0-1.5-.88h0l-7.75,2a1.22,1.22,0,0,0-.87,1.5h0l2,7.75a1.23,1.23,0,0,0,1.5.88l7.75-2a1.23,1.23,0,0,0,.88-1.5Zm-6,8.6-1.41-5.38,5.37-1.41,1.41,5.38Z"/><path class="d" d="M62.22,22.39a1.22,1.22,0,0,1,.09,1.17c-.25.55-.49,1.11-.71,1.68L71.39,35a1.24,1.24,0,0,0,.87.36,1.21,1.21,0,0,0,.87-.33,16.88,16.88,0,0,0-12-28.85h0a16.78,16.78,0,0,0-12,4.9,1.16,1.16,0,0,0,0,1.63l0,0,9,9,3,0A1.25,1.25,0,0,1,62.22,22.39Zm-.15-2.07v-8.6a11.3,11.3,0,0,1,6.16,2.44ZM70,15.89A11.35,11.35,0,0,1,72.45,22H63.89Zm0,14.27-5.73-5.73h8.15A11.38,11.38,0,0,1,70,30.16ZM59.61,19.77,54,14.18a11.22,11.22,0,0,1,5.59-2.4Zm-7.37-7.31L51.79,12a14.33,14.33,0,0,1,9.35-3.36h0A14.43,14.43,0,0,1,72.22,32.42l-.49-.5A13.82,13.82,0,0,0,52.24,12.46Z"/><path class="d" d="M62.31,23.56a1.22,1.22,0,0,0-.09-1.17,1.25,1.25,0,0,0-1-.57l-3,0,3.44,3.45C61.82,24.67,62.06,24.11,62.31,23.56Z"/></svg>