<svg xmlns="http://www.w3.org/2000/svg" viewBox="0 0 100 100"><defs><style>.a{fill:#e6e7e8;}.b{fill:none;}.c{fill:#21409a;}.d{fill:#ec008c;}</style></defs><path class="a" d="M10,1.2h6V98.8H10Z"/><path class="b" d="M48.8,25.61a4.84,4.84,0,0,0,5.89-3.5H45.31A4.84,4.84,0,0,0,48.8,25.61Z"/><rect class="b" x="42.63" y="2.39" width="14.74" height="2.19"/><path class="b" d="M50,16.07a5,5,0,0,0-4.69,3.65h9.38A5,5,0,0,0,50,16.07Z"/><path class="b" d="M44.26,25.34A7.12,7.12,0,0,1,42.83,21V7h-1.3a1.34,1.34,0,0,1-1.29-1.26V2.39h-15A24.83,24.83,0,0,0,44.26,25.34Z"/><path class="b" d="M55.74,74.53a7.3,7.3,0,0,1,1.43,4.39V93h1.3a1.28,1.28,0,0,1,1.29,1.19v3.39h15A24.94,24.94,0,0,0,55.74,74.53Z"/><path class="b" d="M41.53,93h1.3V78.92a7.3,7.3,0,0,1,1.43-4.39,24.94,24.94,0,0,0-19,23.08h15V94.22A1.28,1.28,0,0,1,41.53,93Z"/><path class="b" d="M17.93,21.31a1.19,1.19,0,0,1,1.19,1.2v26.1H41.33a8.78,8.78,0,0,1,17.34,0H80.88V2.39H77.15A27.11,27.11,0,0,1,50,28.38h-.13a27.11,27.11,0,0,1-27-26H19.12V14.54a1.2,1.2,0,1,1-2.39,0V2.39H11.16V97.61h5.57V22.51A1.2,1.2,0,0,1,17.93,21.31Zm3.58-1.62a1.2,1.2,0,0,1,2.39,0v3.24a1.2,1.2,0,1,1-2.39,0Zm0,7.53a1.2,1.2,0,0,1,2.39,0v1a1.2,1.2,0,1,1-2.39,0Zm0,5.42a1.2,1.2,0,0,1,2.39,0V44.72a1.2,1.2,0,0,1-2.39,0Z"/><path class="b" d="M54.78,15.65V7H45.22v8.68A7.05,7.05,0,0,1,54.78,15.65Z"/><rect class="b" x="42.63" y="95.42" width="14.74" height="2.19"/><path class="b" d="M58.47,7h-1.3V21a7.12,7.12,0,0,1-1.43,4.33,24.82,24.82,0,0,0,19-22.95h-15V5.71A1.34,1.34,0,0,1,58.47,7Z"/><path class="b" d="M58.72,51a8.78,8.78,0,0,1-17.44,0H19.12V97.61h3.72a27.18,27.18,0,0,1,54.32,0h3.72V51Z"/><path class="b" d="M45.22,84.29V93h9.56V84.29A7.05,7.05,0,0,1,45.22,84.29Z"/><path class="b" d="M48.8,83.58a4.84,4.84,0,0,0,5.89-3.5H45.31A4.84,4.84,0,0,0,48.8,83.58Z"/><path class="b" d="M50,43.61a6.4,6.4,0,0,0-6.23,5H56.24A6.41,6.41,0,0,0,50,43.61Z"/><rect class="b" x="83.27" y="2.39" width="5.58" height="95.22"/><path class="b" d="M50,56.39A6.39,6.39,0,0,0,56.31,51H43.69A6.39,6.39,0,0,0,50,56.39Z"/><path class="b" d="M50,74a5,5,0,0,0-4.69,3.65h9.38A5,5,0,0,0,50,74Z"/><path class="c" d="M91.24,98.8V1.2A1.2,1.2,0,0,0,90,0H10a1.2,1.2,0,0,0-1.2,1.2V98.8A1.2,1.2,0,0,0,10,100H90A1.2,1.2,0,0,0,91.24,98.8Zm-2.4-1.19H83.27V98.8H80.88V97.61H77.16c0,.33,0,.66,0,1H74.79c0-.34,0-.67,0-1h-15V98.8H57.37V97.61H42.63V98.8H40.24V97.61h-15c0,.33,0,.66,0,1H22.82c0-.34,0-.67,0-1H19.12V98.8H16.73V97.61H11.16V2.39h5.57V1.2h2.39V2.39h3.73c0-.4,0-.79,0-1.19h2.39c0,.4,0,.79.05,1.19h15V1.2h2.39V2.39H57.37V1.2h2.39V2.39h15c0-.4.05-.79.05-1.19h2.39v.13c0,.35,0,.71,0,1.06h3.73V1.2h2.39V2.39h5.57Z"/><path class="d" d="M49.87,28.38H50a27.11,27.11,0,0,0,27.15-26H74.74a24.82,24.82,0,0,1-19,23A7.12,7.12,0,0,0,57.17,21V7h1.3a1.34,1.34,0,0,0,1.29-1.26V2.39H57.37V4.58H42.63V2.39H40.24V5.71A1.34,1.34,0,0,0,41.53,7h1.3V21a7.12,7.12,0,0,0,1.43,4.33,24.83,24.83,0,0,1-19-22.95H22.85A27.11,27.11,0,0,0,49.87,28.38ZM48.8,25.61a4.84,4.84,0,0,1-3.49-3.5h9.38A4.84,4.84,0,0,1,48.8,25.61Zm-3.49-5.89a4.84,4.84,0,0,1,9.38,0ZM45.22,7h9.56v8.68a7.05,7.05,0,0,0-9.56,0Z"/><path class="c" d="M25.21,1.2H22.82c0,.4,0,.79,0,1.19h2.41C25.24,2,25.21,1.6,25.21,1.2Z"/><rect class="c" x="57.37" y="1.2" width="2.39" height="1.2"/><path class="c" d="M77.18,1.33V1.2H74.79c0,.4,0,.79-.05,1.19h2.41C77.17,2,77.18,1.68,77.18,1.33Z"/><rect class="c" x="40.24" y="1.2" width="2.39" height="1.2"/><path class="d" d="M50,71.42A27.25,27.25,0,0,0,22.84,97.61h2.41a24.94,24.94,0,0,1,19-23.08,7.3,7.3,0,0,0-1.43,4.39V93h-1.3a1.28,1.28,0,0,0-1.29,1.19v3.39h2.39V95.42H57.37v2.19h2.39V94.22A1.28,1.28,0,0,0,58.47,93h-1.3V78.92a7.3,7.3,0,0,0-1.43-4.39,24.94,24.94,0,0,1,19,23.08h2.41A27.25,27.25,0,0,0,50,71.42ZM50,74a5,5,0,0,1,4.69,3.65H45.31A5,5,0,0,1,50,74Zm4.69,6a4.84,4.84,0,0,1-9.38,0Zm.09,13H45.22V84.29a7.05,7.05,0,0,0,9.56,0Z"/><path class="c" d="M74.79,98.61h2.39c0-.34,0-.67,0-1H74.75C74.76,97.94,74.79,98.27,74.79,98.61Z"/><rect class="c" x="40.24" y="97.61" width="2.39" height="1.2"/><rect class="c" x="57.37" y="97.61" width="2.39" height="1.2"/><path class="c" d="M22.82,98.61h2.39c0-.34,0-.67,0-1H22.84C22.83,97.94,22.82,98.27,22.82,98.61Z"/><path class="d" d="M22.71,45.91a1.19,1.19,0,0,0,1.19-1.19V32.64a1.2,1.2,0,0,0-2.39,0V44.72A1.19,1.19,0,0,0,22.71,45.91Z"/><path class="d" d="M22.71,24.13a1.19,1.19,0,0,0,1.19-1.2V19.69a1.2,1.2,0,0,0-2.39,0v3.24A1.2,1.2,0,0,0,22.71,24.13Z"/><path class="d" d="M22.71,29.38a1.19,1.19,0,0,0,1.19-1.2v-1a1.2,1.2,0,0,0-2.39,0v1A1.2,1.2,0,0,0,22.71,29.38Z"/><path class="d" d="M17.93,15.74a1.19,1.19,0,0,0,1.19-1.2V2.39H16.73V14.54A1.2,1.2,0,0,0,17.93,15.74Z"/><rect class="c" x="16.73" y="1.2" width="2.39" height="1.2"/><path class="d" d="M80.88,2.39V48.61H58.67a8.78,8.78,0,0,0-17.34,0H19.12V22.51a1.2,1.2,0,1,0-2.39,0v75.1h2.39V51H41.28a8.78,8.78,0,0,0,17.44,0H80.88V97.61h2.39V2.39ZM50,43.61a6.41,6.41,0,0,1,6.24,5H43.77A6.4,6.4,0,0,1,50,43.61Zm0,12.78A6.39,6.39,0,0,1,43.69,51H56.31A6.39,6.39,0,0,1,50,56.39Z"/><rect class="c" x="16.73" y="97.61" width="2.39" height="1.2"/><rect class="c" x="80.88" y="1.2" width="2.39" height="1.2"/><rect class="c" x="80.88" y="97.61" width="2.39" height="1.2"/></svg>