<svg xmlns="http://www.w3.org/2000/svg" viewBox="0 0 100 100"><defs><style>.a{fill:#e6e7e8;}.b{fill:none;}.c{fill:#21409a;}.d{fill:#ec008c;}</style></defs><path class="a" d="M30.46,43.1A26.36,26.36,0,0,1,53.22,22.2a26.31,26.31,0,1,0,.05,52.27q-1.11-.14-2.22-.36a26.3,26.3,0,0,1-20.59-31v0Z"/><path class="b" d="M13.42,38.41a2.31,2.31,0,1,0,1.8,2.74A2.33,2.33,0,0,0,13.42,38.41Z"/><path class="b" d="M50,37.36a2.12,2.12,0,0,0,1.55-.6A2.4,2.4,0,0,0,52.22,35a2.72,2.72,0,0,0-.08-.63A4.35,4.35,0,0,1,52.58,31a1.69,1.69,0,0,0,.23-.84A1.55,1.55,0,0,0,52.29,29a1.36,1.36,0,0,0-.92-.36h-.15A1.51,1.51,0,0,0,49.94,30a1.62,1.62,0,0,0,0,.22,4.43,4.43,0,0,1-1.38,3.16h0a2.36,2.36,0,0,0-.69,1.78A2.29,2.29,0,0,0,50,37.36Z"/><path class="b" d="M87,58.05a2.33,2.33,0,0,0,2.73-1.81h0A2.31,2.31,0,1,0,87,58.05Z"/><path class="b" d="M37.34,41a2,2,0,1,0-2,2A2,2,0,0,0,37.34,41Z"/><path class="b" d="M55.54,12.94a2.31,2.31,0,0,0,2.4-3.54,2.35,2.35,0,0,0-1.47-1,2.31,2.31,0,1,0-.93,4.52Z"/><path class="b" d="M40.29,58a3.77,3.77,0,1,0,3.76,3.78A3.77,3.77,0,0,0,40.29,58Z"/><path class="b" d="M23,4.37a4.13,4.13,0,0,0-2.11.57,4.2,4.2,0,1,0,4.24,7.24h0A4.19,4.19,0,0,0,23,4.37Z"/><path class="b" d="M6.63,66.08a4.25,4.25,0,0,0-1.94.48,4.2,4.2,0,1,0,6,5h0a4.16,4.16,0,0,0-.28-3.19A4.22,4.22,0,0,0,6.63,66.08Z"/><path class="b" d="M41.34,82.8a2.31,2.31,0,1,0,1.81,2.72,2.3,2.3,0,0,0-.34-1.73A2.32,2.32,0,0,0,41.34,82.8Z"/><path class="b" d="M68.85,93.38a4.21,4.21,0,0,0,5.67,1.77h0a4.19,4.19,0,0,0,1.77-5.66h0a4.21,4.21,0,0,0-5.67-1.77h0A4.2,4.2,0,0,0,68.85,93.38Z"/><path class="b" d="M97,24a4.21,4.21,0,1,0,.43,3.18h0A4.16,4.16,0,0,0,97,24Z"/><path class="b" d="M61.83,62.65a1,1,0,0,0-.21-.09,4.41,4.41,0,0,1-2.49-2.38,2.42,2.42,0,0,0-1.44-1.26A2.3,2.3,0,0,0,57,58.8a2.23,2.23,0,0,0-2.08,1.32,2,2,0,0,0,0,1.64A2.38,2.38,0,0,0,56.27,63a2.23,2.23,0,0,0,.62.14,4.38,4.38,0,0,1,3,1.58,1.64,1.64,0,0,0,.71.51,1.62,1.62,0,0,0,1.31-.08,1.35,1.35,0,0,0,.69-.89A1.48,1.48,0,0,0,61.83,62.65Z"/><path class="b" d="M66.26,38h0A3.77,3.77,0,1,0,70,41.76,3.77,3.77,0,0,0,66.26,38Z"/><path class="b" d="M50.18,23.24a25.17,25.17,0,0,0-24.62,20.1h0v0A25.14,25.14,0,1,0,50.18,23.24Zm-3.34,8.38a2.07,2.07,0,0,0,.65-1.42,4.89,4.89,0,0,1,0-.54A4,4,0,0,1,51,26.22a3.78,3.78,0,0,1,3,1,4.07,4.07,0,0,1,.74,5.12,1.93,1.93,0,0,0-.16,1.49,4.87,4.87,0,0,1-1.31,4.73A4.51,4.51,0,0,1,50,39.8h-.18a4.7,4.7,0,0,1-4.44-4.58A4.87,4.87,0,0,1,46.84,31.62ZM30.87,41a4.45,4.45,0,1,1,4.46,4.45A4.45,4.45,0,0,1,30.87,41Zm9.41,27a6.22,6.22,0,0,1,0-12.43h0a6.22,6.22,0,1,1,0,12.43ZM51.16,48.67a3.69,3.69,0,0,1-2.95,3.08,4.53,4.53,0,0,1-.74.07h0A3.66,3.66,0,0,1,44.31,50a1.22,1.22,0,0,1,2.09-1.26,1.29,1.29,0,0,0,.89.6,1.26,1.26,0,0,0,1.45-1.06,3.71,3.71,0,0,1,6.9-1.25,1.22,1.22,0,0,1-2.12,1.19,1.27,1.27,0,0,0-2.36.43ZM65,64.88a3.73,3.73,0,0,1-1.92,2.45,4,4,0,0,1-1.88.47A4.09,4.09,0,0,1,58,66.27a1.9,1.9,0,0,0-1.34-.67,4.87,4.87,0,0,1-4-2.85,4.48,4.48,0,0,1-.05-3.57,4.72,4.72,0,0,1,5.84-2.58,4.86,4.86,0,0,1,2.88,2.56,2.06,2.06,0,0,0,1.11,1.1,4.46,4.46,0,0,1,.5.22A4,4,0,0,1,65,64.88ZM66.26,48a6.21,6.21,0,1,1,6.2-6.22A6.22,6.22,0,0,1,66.26,48Z"/><path class="c" d="M73.83,36.18l.84-.5a27.51,27.51,0,0,0-19-14.32h0l-1.09-.19-.24.95L52,21.53l.16-.65a27.64,27.64,0,0,0-17.6,4.81l.67,1.12-2.09,1.25-.53-.89a27.26,27.26,0,0,0-9.24,14.89l1.06.26-.59,2.37-.93-.23a27.3,27.3,0,0,0,2,14.8l.58-.31,1.14,2.16-.66.35a27.45,27.45,0,0,0,16.3,13.23l.27-1.07,2.36.6-.27,1.07h.09a27.54,27.54,0,0,0,16.92-1.94l-.4-.74,2.16-1.15.41.77A27.5,27.5,0,0,0,77.07,54.4L76,54.14l.6-2.37.9.23a27.35,27.35,0,0,0-1.8-14.1l-.64.38Zm1,17.15a25.13,25.13,0,0,1-49.26-10v0h0a25.14,25.14,0,0,1,45.58-8.86A24.86,24.86,0,0,1,74.82,53.33Z"/><path class="c" d="M39.77,41a4.45,4.45,0,1,0-4.44,4.46A4.43,4.43,0,0,0,39.77,41Zm-6.46,0a2,2,0,1,1,2,2A2,2,0,0,1,33.31,41Z"/><path class="c" d="M40.3,55.52h0a6.22,6.22,0,1,0,6.22,6.22A6.22,6.22,0,0,0,40.29,55.52Zm0,10a3.77,3.77,0,1,1,3.78-3.76A3.77,3.77,0,0,1,40.27,65.5Z"/><path class="c" d="M66.24,35.54a6.21,6.21,0,1,0,6.22,6.2A6.21,6.21,0,0,0,66.24,35.54Zm0,10a3.77,3.77,0,0,1,0-7.54h0a3.77,3.77,0,1,1,0,7.54Z"/><path class="c" d="M49.86,39.79H50a4.51,4.51,0,0,0,3.15-1.28,4.87,4.87,0,0,0,1.31-4.73,1.93,1.93,0,0,1,.16-1.49,4.07,4.07,0,0,0-.74-5.12,3.78,3.78,0,0,0-3-1,4,4,0,0,0-3.43,3.44,4.89,4.89,0,0,0,0,.54,2.07,2.07,0,0,1-.65,1.42,4.87,4.87,0,0,0-1.42,3.59A4.7,4.7,0,0,0,49.86,39.79Zm-1.31-6.44h0a4.43,4.43,0,0,0,1.38-3.16,1.62,1.62,0,0,1,0-.22,1.51,1.51,0,0,1,1.28-1.32h.15a1.36,1.36,0,0,1,.92.36,1.55,1.55,0,0,1,.52,1.19,1.69,1.69,0,0,1-.23.84,4.35,4.35,0,0,0-.44,3.38,2.72,2.72,0,0,1,.08.63,2.4,2.4,0,0,1-.72,1.72,2.12,2.12,0,0,1-1.55.6,2.29,2.29,0,0,1-2.09-2.23A2.36,2.36,0,0,1,48.55,33.35Z"/><path class="c" d="M63,60.48a4.46,4.46,0,0,0-.5-.22,2.06,2.06,0,0,1-1.11-1.1,4.86,4.86,0,0,0-2.88-2.56,4.72,4.72,0,0,0-5.84,2.58,4.48,4.48,0,0,0,.05,3.57,4.87,4.87,0,0,0,4,2.85,1.9,1.9,0,0,1,1.34.67A4.09,4.09,0,0,0,61.2,67.8a4,4,0,0,0,1.88-.47A3.73,3.73,0,0,0,65,64.88,4,4,0,0,0,63,60.48Zm-.32,3.81a1.35,1.35,0,0,1-.69.89,1.62,1.62,0,0,1-1.31.08,1.64,1.64,0,0,1-.71-.51,4.38,4.38,0,0,0-3-1.58,2.23,2.23,0,0,1-.62-.14,2.38,2.38,0,0,1-1.37-1.27,2,2,0,0,1,0-1.64A2.23,2.23,0,0,1,57,58.8a2.3,2.3,0,0,1,.74.12,2.42,2.42,0,0,1,1.44,1.26,4.41,4.41,0,0,0,2.49,2.38,1,1,0,0,1,.21.09A1.48,1.48,0,0,1,62.63,64.29Z"/><path class="c" d="M53.52,48.24a1.22,1.22,0,0,0,2.12-1.19,3.71,3.71,0,0,0-6.9,1.25,1.26,1.26,0,0,1-1.45,1.06,1.29,1.29,0,0,1-.89-.6A1.22,1.22,0,0,0,44.31,50a3.66,3.66,0,0,0,3.16,1.8,4.53,4.53,0,0,0,.74-.07,3.69,3.69,0,0,0,2.95-3.08,1.27,1.27,0,0,1,2.36-.43Z"/><path class="d" d="M27.36,13.57A6.64,6.64,0,0,0,19.64,2.83a6.64,6.64,0,0,0,5.61,12L32.6,27.17c.63-.53,1.28-1,1.95-1.48Zm-2.23-1.39h0a4.2,4.2,0,1,1-4.24-7.24A4.13,4.13,0,0,1,23,4.37a4.19,4.19,0,0,1,2.14,7.81Z"/><path class="c" d="M35.22,26.81l-.67-1.12c-.67.46-1.32.95-1.95,1.48l.53.89Z"/><path class="d" d="M68.46,86.22a6.66,6.66,0,1,0,2.17-1.13L63.8,72.25c-.71.4-1.43.78-2.17,1.12Zm2.16,1.5h0a4.21,4.21,0,0,1,5.67,1.77h0a4.19,4.19,0,0,1-1.77,5.66h0a4.2,4.2,0,1,1-3.9-7.43Z"/><path class="c" d="M61.23,72.63l.4.74c.74-.34,1.46-.72,2.17-1.12l-.41-.77Z"/><path class="d" d="M90,20.34h0a6.63,6.63,0,0,0-2.91,8L74.67,35.68c.38.73.72,1.47,1,2.22l12.63-7.48A6.64,6.64,0,1,0,90,20.34Zm7.4,6.8a4.2,4.2,0,1,1-6.18-4.69A4.21,4.21,0,0,1,97,24a4.16,4.16,0,0,1,.43,3.18Z"/><path class="c" d="M73.83,36.18l1.24,2.1.64-.38c-.32-.75-.66-1.49-1-2.22Z"/><path class="d" d="M11.86,66.17A6.64,6.64,0,1,0,13,68.33l13-6.87c-.39-.71-.74-1.45-1.06-2.2Zm-1.21,5.36h0A4.17,4.17,0,0,1,8.59,74a4.2,4.2,0,1,1,1.78-5.66A4.16,4.16,0,0,1,10.65,71.53Z"/><path class="c" d="M25.48,59l-.58.31c.32.75.67,1.49,1.06,2.2l.66-.35Z"/><path class="d" d="M56,15.43A4.75,4.75,0,0,0,57,6h0a4.75,4.75,0,0,0-3.28,8.8l-1.52,6.06c.81.06,1.63.15,2.44.29Zm-2.3-5.21a2.32,2.32,0,0,1,2.74-1.8,2.3,2.3,0,0,1,1.81,2.72,2.32,2.32,0,0,1-4.55-.92Z"/><path class="c" d="M54.35,22.12l.24-.95c-.81-.14-1.63-.23-2.44-.29l-.16.65Z"/><path class="d" d="M40.85,80.31a4.75,4.75,0,0,0-.92,9.41h0a4.75,4.75,0,0,0,3.28-8.8l1.41-5.63c-.8-.16-1.59-.37-2.36-.6Zm2.3,5.21a2.31,2.31,0,1,1-.34-1.73A2.32,2.32,0,0,1,43.15,85.52Z"/><path class="c" d="M42.53,73.62l-.27,1.07c.77.23,1.56.44,2.36.6l.27-1.07Z"/><path class="d" d="M77.07,54.4l5.64,1.41a4.76,4.76,0,1,0,5.71-4.68h0a4.78,4.78,0,0,0-5.1,2.32L77.51,52c-.08.6-.17,1.21-.3,1.81C77.17,54,77.11,54.2,77.07,54.4Zm8.14.92a2.31,2.31,0,0,1,4.53.92h0a2.31,2.31,0,1,1-4.53-.92Z"/><path class="c" d="M76,54.14l1.06.26c0-.2.1-.39.14-.59.13-.6.22-1.21.3-1.81l-.9-.23Z"/><path class="d" d="M23.36,42.06l-5.64-1.41A4.76,4.76,0,1,0,12,45.33h0A4.75,4.75,0,0,0,17.1,43l5.8,1.45c.08-.53.16-1.07.27-1.6C23.23,42.59,23.29,42.32,23.36,42.06Zm-8.14-.91a2.31,2.31,0,1,1-1.8-2.74A2.31,2.31,0,0,1,15.22,41.15Z"/><path class="c" d="M24.42,42.32l-1.06-.26c-.07.26-.13.53-.19.8-.11.53-.19,1.07-.27,1.6l.93.23Z"/><path class="d" d="M22,33.09a1.29,1.29,0,0,0,.39.93,1.32,1.32,0,1,0-.39-.93Z"/><path class="d" d="M14,25.62l5.9,5.89a1.22,1.22,0,1,0,1.74-1.7l0,0-5.89-5.89a1.22,1.22,0,0,0-1.73,0,1.24,1.24,0,0,0,0,1.73Z"/><path class="d" d="M11.91,14a1.22,1.22,0,0,0-1.72,1.72l1.54,1.55a1.22,1.22,0,0,0,1.73-1.72Z"/><path class="d" d="M23,25l-6.29-6.3a1.23,1.23,0,0,0-1.73,0,1.21,1.21,0,0,0,0,1.71l6.29,6.29a1.22,1.22,0,0,0,1.73,0h0A1.23,1.23,0,0,0,23,25Z"/><path class="d" d="M13,84.86h0a1.32,1.32,0,1,0,0,2.64h0a1.32,1.32,0,1,0,0-2.64Z"/><path class="d" d="M22.18,76.84a1.22,1.22,0,0,0-1.73,0l-5.89,5.89a1.22,1.22,0,0,0,1.72,1.72l5.9-5.89A1.23,1.23,0,0,0,22.18,76.84Z"/><path class="d" d="M30.58,73.07,29,74.62a1.22,1.22,0,1,0,1.7,1.75l0,0,1.55-1.55a1.22,1.22,0,0,0-1.72-1.72Z"/><path class="d" d="M25.8,77.85l-6.29,6.29a1.22,1.22,0,0,0,1.7,1.75l0,0,6.3-6.29a1.22,1.22,0,0,0-1.73-1.72Z"/><path class="d" d="M78.14,65a1.33,1.33,0,0,0-1.31-1.34h0a1.32,1.32,0,0,0-1,2.23h0a1.3,1.3,0,0,0,.92.42h0A1.34,1.34,0,0,0,78.14,65Z"/><path class="d" d="M85.91,72.7l-5.72-6.06a1.22,1.22,0,1,0-1.77,1.67l5.72,6.06a1.22,1.22,0,0,0,1.77-1.67Z"/><path class="d" d="M89.92,83.22l-1.5-1.59a1.22,1.22,0,0,0-1.78,1.67l1.5,1.59a1.22,1.22,0,0,0,1.8-1.65Z"/><path class="d" d="M85.29,78.31l-6.11-6.48a1.22,1.22,0,0,0-1.72,0h0a1.22,1.22,0,0,0,0,1.72h0L83.51,80a1.22,1.22,0,1,0,1.78-1.66Z"/><path class="d" d="M83.72,14.13a1.32,1.32,0,1,0-1.32-1.32,1.31,1.31,0,0,0,1.32,1.32Z"/><path class="d" d="M75.39,22.51a1.22,1.22,0,0,0,.86-.36l5.89-5.89a1.22,1.22,0,0,0-1.71-1.74v0l-5.9,5.89a1.22,1.22,0,0,0,.87,2.08Z"/><path class="d" d="M67.9,24.3a1.28,1.28,0,0,0,.93-.38,1.32,1.32,0,1,0-1.87,0A1.37,1.37,0,0,0,67.9,24.3Z"/><path class="d" d="M71.18,21.28l0,0L77.5,15a1.22,1.22,0,0,0-1.73-1.73l-6.29,6.29a1.22,1.22,0,0,0,1.7,1.75Z"/></svg>