<svg xmlns="http://www.w3.org/2000/svg" viewBox="0 0 100 100"><defs><style>.a{fill:#e6e7e8;}.b{fill:none;}.c{fill:#ec008c;}.d{fill:#21409a;}</style></defs><path class="a" d="M17.3,76.75a6.66,6.66,0,0,1-6.66-6.65V20h-.59A6.65,6.65,0,0,0,3.4,26.66V77.34A6.66,6.66,0,0,0,10.05,84H90a6.66,6.66,0,0,0,6.65-6.66v-.59Z"/><path class="b" d="M90,20H10.05A6.65,6.65,0,0,0,3.4,26.66v.64L50,55.78,96.6,27.31v-.65A6.65,6.65,0,0,0,90,20Z"/><path class="b" d="M50,59.46a1.7,1.7,0,0,1-.88-.25L3.4,31.27V77.34A6.66,6.66,0,0,0,10.05,84H90a6.66,6.66,0,0,0,6.65-6.66V31.27L50.88,59.21A1.7,1.7,0,0,1,50,59.46Z"/><path class="c" d="M3.4,27.3v4L49.12,59.21a1.67,1.67,0,0,0,1.76,0L96.6,31.27v-4L50,55.78Z"/><path class="d" d="M100,26.66a10,10,0,0,0-10-10H10.05a10,10,0,0,0-10,10V77.34a10,10,0,0,0,10,10H90a10,10,0,0,0,10-10V26.66Zm-3.38.65v50A6.66,6.66,0,0,1,90,84H10.05A6.66,6.66,0,0,1,3.4,77.34V26.66A6.65,6.65,0,0,1,10.05,20H90a6.65,6.65,0,0,1,6.65,6.65Z"/></svg>