<svg xmlns="http://www.w3.org/2000/svg" viewBox="0 0 100 100"><defs><style>.a{fill:#e6e7e8;}.b{fill:none;}.c{fill:#21409a;}.d{fill:#ec008c;}</style></defs><path class="a" d="M24.76,84.19a2.44,2.44,0,0,1-.55-3.41h0l5.54-7.7a2.41,2.41,0,0,1,1-.79,2.45,2.45,0,0,0-3,.79l-5.55,7.7a2.45,2.45,0,0,0,.56,3.42,2.51,2.51,0,0,0,1.82.43,2.72,2.72,0,0,0,.63-.2,1.91,1.91,0,0,1-.41-.24Z"/><path class="a" d="M30.73,88.49a2.45,2.45,0,0,1-.56-3.42l4-5.58a2.5,2.5,0,0,1,1-.79,2.45,2.45,0,0,0-3,.79l-4,5.58a2.45,2.45,0,0,0,2.38,3.85,2.4,2.4,0,0,0,.63-.19,2.75,2.75,0,0,1-.41-.24Z"/><path class="a" d="M36.69,92.79a2.46,2.46,0,0,1-.55-3.42l2.77-3.85a2.5,2.5,0,0,1,1-.79,2.46,2.46,0,0,0-3,.79l-2.77,3.85a2.46,2.46,0,0,0,.55,3.42A2.49,2.49,0,0,0,37.1,93a3.38,3.38,0,0,1-.41-.24Z"/><path class="a" d="M42.66,97.09a2.45,2.45,0,0,1-.56-3.42l1.52-2.12a2.48,2.48,0,0,1,1-.79,2.45,2.45,0,0,0-3,.79l-1.52,2.12a2.44,2.44,0,0,0,3,3.65A2,2,0,0,1,42.66,97.09Z"/><path class="a" d="M16.5,69.93a.53.53,0,0,1-.21-.72L30.48,42l-2.61-1.59a.54.54,0,0,0-.28-.08l-.14,0a.55.55,0,0,0-.34.27L12.2,69.21a.54.54,0,0,0,.21.72l5.32,3a.55.55,0,0,0,.74-.21h0l.67-1.29Z"/><path class="a" d="M23.76,67.6l-1.23,2.66,2.62,2.18.57-.79a4.77,4.77,0,0,1,1.41-1.31Z"/><path class="a" d="M53.07,94.12l0,0L50.4,92a4.9,4.9,0,0,0-3.74-5.84,4.71,4.71,0,0,0-1-.11A4.89,4.89,0,0,0,41,80a4.89,4.89,0,0,0-3.63-5.89A4.08,4.08,0,0,0,36.4,74a4.9,4.9,0,0,0-8.64-4.39l-.45.63a4.89,4.89,0,0,1,7,5.8A4.9,4.9,0,0,1,39,81.14a4.16,4.16,0,0,1-.13.92A4.88,4.88,0,0,1,43.75,87a4.37,4.37,0,0,1-.13,1.08,4.9,4.9,0,0,1,4.85,5,4.79,4.79,0,0,1-.11,1L51,96.14l0,0a2.81,2.81,0,0,0,4-.29,3,3,0,0,0,.6-1.16,2.79,2.79,0,0,1-2.51-.6Z"/><path class="a" d="M39,60.62c.33-1,.71-2.06,1.12-3.06l1.7-4.12a6.43,6.43,0,0,1,4-3.62l5.56-1.75A6.34,6.34,0,0,1,55,48l5.76,1.61a13.72,13.72,0,0,0,7.4.27L67,47.49l-.65.28a.88.88,0,0,1-.23.07,13.73,13.73,0,0,1-7.43-.26L53,46a6.34,6.34,0,0,0-3.66.06l-5.56,1.76a6.38,6.38,0,0,0-4,3.61l-1.69,4.13c-.41,1-.79,2-1.13,3l-1.33,4.08a6.33,6.33,0,0,0,2.63.26Z"/><path class="a" d="M71,44.13a.54.54,0,0,1,.26-.72h0l3.87-1.53-.9-1.9a.53.53,0,0,0-.68-.27L67.78,42a.54.54,0,0,0-.31.7l0,0L81.23,71.84a.53.53,0,0,0,.7.26l1.85-.8Z"/><path class="b" d="M68.34,71.75l-.07-.06-15.15-15a5.68,5.68,0,0,0-2.44-1.42l-2.42-.68c-1.65.14-2.21,2.57-2.29,2.94a2.45,2.45,0,0,1,0,.27A8.35,8.35,0,0,1,42.22,64a8.55,8.55,0,0,1-8.25.64l-.36-.17a1.21,1.21,0,0,1-.67-1.5l1.69-5.17c.36-1.08.76-2.17,1.19-3.22l1.7-4.14a8.56,8.56,0,0,1,.64-1.24,11.08,11.08,0,0,0-4.69.23L22.53,70.26l2.62,2.18.57-.79A4.9,4.9,0,0,1,34.35,76a4.74,4.74,0,0,1,.92.13,4.89,4.89,0,0,1,3.63,5.9,4.45,4.45,0,0,1,1.09.13,4.88,4.88,0,0,1,3.63,5.89,4.8,4.8,0,0,1,1,.12A4.9,4.9,0,0,1,48.36,94L51,96.14l0,0,0,0a2.81,2.81,0,0,0,3.63-4.28l-2.17-1.87h0a1.23,1.23,0,0,1,1.62-1.85l3.93,3.4,0,0a2.81,2.81,0,0,0,3.64-4.27L57.79,84h0a1.23,1.23,0,0,1,1.62-1.85L65.11,87a2.8,2.8,0,0,0,3.67-4.23l-5.72-4.94,0,0A1.23,1.23,0,0,1,64.67,76l.81.7,7.06,6.1a2.8,2.8,0,0,0,2,.68,2.86,2.86,0,0,0,1.93-1l.07-.08a2.67,2.67,0,0,0,.64-2h0a2.69,2.69,0,0,0-.92-1.84Z"/><path class="b" d="M45,91a2.44,2.44,0,0,0-3.42.55l-1.52,2.12a2.45,2.45,0,1,0,4,2.86l1.53-2.12h0A2.43,2.43,0,0,0,45,91Z"/><path class="b" d="M40.28,85a2.44,2.44,0,0,0-3.42.55l-2.77,3.85a2.45,2.45,0,0,0,4,2.86l2.77-3.85A2.44,2.44,0,0,0,40.28,85Z"/><polygon class="b" points="67.24 42.18 67.24 42.18 81.45 72.31 88.05 69.45 74.01 39.51 67.24 42.18"/><path class="b" d="M66.39,47.77a.88.88,0,0,1-.23.07,13.73,13.73,0,0,1-7.43-.26L53,46a6.34,6.34,0,0,0-3.66.06l-5.56,1.76a6.38,6.38,0,0,0-4,3.61l-1.69,4.13c-.41,1-.79,2-1.13,3l-1.33,4.08A6.12,6.12,0,0,0,40.86,62a6,6,0,0,0,2.65-4.39c0-.09,0-.19,0-.28a.5.5,0,0,1,0-.12,8.14,8.14,0,0,1,.84-2.38,4.55,4.55,0,0,1,4-2.66,2,2,0,0,1,.34,0l2.6.73a8.2,8.2,0,0,1,3.5,2L70,69.92l4.48,3.87a9,9,0,0,0,3.46-3.24L67,47.49Z"/><path class="b" d="M34.87,84.09l1.25-1.73.06-.09a2.45,2.45,0,0,0-4-2.78l-4,5.58a2.45,2.45,0,0,0,4,2.87l2.77-3.85Z"/><path class="b" d="M65.43,20.35A34,34,0,0,1,51.23,24v8.87h16.3A43.42,43.42,0,0,0,65.43,20.35Z"/><path class="b" d="M66.72,16.81A31.82,31.82,0,0,0,72.64,12a31.64,31.64,0,0,0-16.4-8.94A32.44,32.44,0,0,1,66.72,16.81Z"/><path class="b" d="M32.47,32.89h16.3V24a34.51,34.51,0,0,1-14.22-3.61A43.34,43.34,0,0,0,32.47,32.89Z"/><path class="b" d="M51.23,2.8V21.57A31.68,31.68,0,0,0,64.57,18,29.31,29.31,0,0,0,51.23,2.8Z"/><polygon class="b" points="27.38 40.14 27.38 40.14 11.96 69.67 18.22 73.2 33.59 43.92 27.38 40.14"/><path class="b" d="M35.4,18.09a32,32,0,0,0,13.37,3.48V2.8A29.36,29.36,0,0,0,35.4,18.09Z"/><path class="b" d="M31.13,72.52a2.45,2.45,0,0,0-3.42.56l-5.55,7.7a2.45,2.45,0,0,0,4,2.86l5.54-7.7A2.46,2.46,0,0,0,31.13,72.52Z"/><path class="b" d="M32.36,19.21h0a33.77,33.77,0,0,1-6.73-5.29,31.58,31.58,0,0,0-7.27,19H30A45.73,45.73,0,0,1,32.36,19.21Z"/><path class="b" d="M70,32.89H81.64a31.54,31.54,0,0,0-7.35-19.06,33.92,33.92,0,0,1-6.68,5.31A45.59,45.59,0,0,1,70,32.89Z"/><path class="b" d="M43.76,3.07h0a31.68,31.68,0,0,0-16.48,9,31,31,0,0,0,6,4.79A32.5,32.5,0,0,1,43.76,3.07Z"/><path class="b" d="M32.47,35.34a47.16,47.16,0,0,0,.45,5.3l1.95,1.19a2.46,2.46,0,0,1,.9,3.23l-.86,1.63a12.23,12.23,0,0,1,5,.45A9,9,0,0,1,43,45.44l5.56-1.76.2,0V35.34Z"/><path class="b" d="M51.23,35.34v7.94a8.84,8.84,0,0,1,2.4.32l5.76,1.62a11.52,11.52,0,0,0,6.15.25l.45-.2-1-2.05L65,43.08a2.46,2.46,0,0,1,1.38-3.19l.88-.34c.16-1.4.27-2.8.31-4.21Z"/><path class="b" d="M18.36,35.34a31.78,31.78,0,0,0,2.7,11.6L25.21,39a.64.64,0,0,1,.08-.14A2.45,2.45,0,0,1,28.66,38l1.6,1c-.12-1.22-.21-2.45-.24-3.68Z"/><path class="b" d="M70,35.34c0,1.07-.1,2.13-.19,3.2l3.32-1.31a2.46,2.46,0,0,1,3.12,1.24l3.31,7.05a31.66,31.66,0,0,0,2.1-10.18Z"/><path class="c" d="M90.3,68.48l0-.07L80.93,48.5a1.6,1.6,0,0,1-.1.23l-2.21-1c.33-.71.63-1.43.92-2.16l-3.31-7.05a2.46,2.46,0,0,0-3.12-1.24l-3.32,1.31c-.06.68-.12,1.36-.21,2l-2.43-.32c0-.24,0-.48.07-.71l-.88.34A2.46,2.46,0,0,0,65,43.08l.06.14,1,2.05-.45.2a11.52,11.52,0,0,1-6.15-.25L53.63,43.6a8.84,8.84,0,0,0-2.4-.32V44.6H48.77v-1l-.2,0L43,45.44a9,9,0,0,0-3.07,1.7,12.23,12.23,0,0,0-5-.45l.86-1.63a2.46,2.46,0,0,0-.9-3.23l-1.95-1.19.06.55-2.42.37c-.13-.84-.22-1.69-.3-2.54l-1.6-1a2.45,2.45,0,0,0-3.37.83.64.64,0,0,0-.08.14l-4.15,7.93c.34.77.7,1.53,1.1,2.26L20,50.38l-.36-.72L9.78,68.53a2.45,2.45,0,0,0,1,3.28L17,75.33a2.42,2.42,0,0,0,1.2.32,2.32,2.32,0,0,0,.7-.1,2.45,2.45,0,0,0,1.48-1.21l1-1.86,2.34,2-3.54,4.91a4.9,4.9,0,0,0,4,7.77,5.39,5.39,0,0,0,.8-.06l.3-.07c0,.1,0,.21,0,.31a4.9,4.9,0,0,0,4.82,4.12,4.25,4.25,0,0,0,.8-.07l.3-.06a4.89,4.89,0,0,0,5.34,4.4,4.58,4.58,0,0,0,.63-.1A4.89,4.89,0,0,0,46,98l1.22-1.68L49.44,98a5.26,5.26,0,0,0,8.66-3.63,5.26,5.26,0,0,0,6.74-3.14,5,5,0,0,0,.3-1.43,5.26,5.26,0,0,0,6.74-3.14,5.49,5.49,0,0,0,.29-1.26,5.15,5.15,0,0,0,2.19.49l.4,0a5.24,5.24,0,0,0,3.61-1.82l.06-.07a5.13,5.13,0,0,0-.53-7.25h0l-1.48-1.29a11.77,11.77,0,0,0,2.69-2.39l.12.27a2.46,2.46,0,0,0,2.21,1.41,2.41,2.41,0,0,0,1-.21L89,71.7A2.45,2.45,0,0,0,90.3,68.48ZM18.22,73.2,12,69.67,27.38,40.14h0l6.21,3.78Zm7.92,10.44a2.45,2.45,0,0,1-4-2.86l5.55-7.7a2.45,2.45,0,1,1,4,2.86Zm6,4.3a2.45,2.45,0,0,1-4-2.87l4-5.58a2.45,2.45,0,0,1,4,2.78l-.06.09-1.25,1.73h0Zm6,4.29a2.45,2.45,0,0,1-4-2.86l2.77-3.85a2.45,2.45,0,0,1,4,2.86Zm7.49,2.18L44,96.53a2.45,2.45,0,1,1-4-2.86l1.52-2.12a2.45,2.45,0,0,1,4,2.86Zm31.66-14h0a2.67,2.67,0,0,1-.64,2l-.07.08a2.86,2.86,0,0,1-1.93,1,2.8,2.8,0,0,1-2-.68l-7.06-6.1-.81-.7A1.23,1.23,0,0,0,63,77.83l0,0,5.72,4.94A2.8,2.8,0,0,1,65.11,87L59.4,82.09a1.23,1.23,0,0,0-1.62,1.85h0l3.94,3.4a2.81,2.81,0,0,1-3.64,4.27l0,0-3.93-3.4A1.23,1.23,0,0,0,52.51,90h0l2.17,1.87a2.81,2.81,0,0,1-3.63,4.28l0,0,0,0L48.36,94a4.9,4.9,0,0,0-3.74-5.83,4.8,4.8,0,0,0-1-.12A4.88,4.88,0,0,0,40,82.19a4.45,4.45,0,0,0-1.09-.13,4.89,4.89,0,0,0-3.63-5.9,4.74,4.74,0,0,0-.92-.13,4.9,4.9,0,0,0-8.63-4.38l-.57.79-2.62-2.18L33.47,49.44a11.08,11.08,0,0,1,4.69-.23,8.56,8.56,0,0,0-.64,1.24l-1.7,4.14c-.43,1-.83,2.14-1.19,3.22L32.94,63a1.21,1.21,0,0,0,.67,1.5l.36.17A8.55,8.55,0,0,0,42.22,64,8.35,8.35,0,0,0,46,57.82a2.45,2.45,0,0,0,0-.27c.08-.37.64-2.8,2.29-2.94l2.42.68a5.68,5.68,0,0,1,2.44,1.42l15.15,15,.07.06,8,6.87A2.69,2.69,0,0,1,77.22,80.46Zm-2.77-6.67L70,69.92,54.84,55a8.2,8.2,0,0,0-3.5-2l-2.6-.73a2,2,0,0,0-.34,0,4.55,4.55,0,0,0-4,2.66,8.14,8.14,0,0,0-.84,2.38.5.5,0,0,0,0,.12c0,.09,0,.19,0,.28A6,6,0,0,1,40.86,62a6.12,6.12,0,0,1-5.23.68L37,58.57c.34-1,.72-2,1.13-3l1.69-4.13a6.38,6.38,0,0,1,4-3.61L49.31,46A6.34,6.34,0,0,1,53,46l5.76,1.62a13.73,13.73,0,0,0,7.43.26.88.88,0,0,0,.23-.07l.65-.28L77.91,70.55A9,9,0,0,1,74.45,73.79Zm7-1.48L67.24,42.18h0L74,39.51l14,29.94Z"/><path class="d" d="M18.36,35.34H30c0,1.23.12,2.46.24,3.68l2.66,1.62a47.16,47.16,0,0,1-.45-5.3h16.3v8.29a8.92,8.92,0,0,1,2.46-.35V35.34h16.3c0,1.41-.15,2.81-.31,4.21l2.57-1c.09-1.07.16-2.13.19-3.2H81.64a31.66,31.66,0,0,1-2.1,10.18l1.39,3a33.57,33.57,0,0,0,3.18-14.39A34.11,34.11,0,1,0,19.64,49.66l1.42-2.72A31.78,31.78,0,0,1,18.36,35.34ZM74.29,13.83a31.54,31.54,0,0,1,7.35,19.06H70a45.59,45.59,0,0,0-2.37-13.75A33.92,33.92,0,0,0,74.29,13.83ZM72.64,12a31.82,31.82,0,0,1-5.92,4.8A32.44,32.44,0,0,0,56.24,3.07,31.64,31.64,0,0,1,72.64,12ZM51.23,2.8A29.31,29.31,0,0,1,64.57,18a31.68,31.68,0,0,1-13.34,3.53Zm0,21.22a34,34,0,0,0,14.2-3.67,43.42,43.42,0,0,1,2.1,12.54H51.23Zm-2.46,8.87H32.47a43.34,43.34,0,0,1,2.08-12.48A34.51,34.51,0,0,0,48.77,24Zm0-11.32A32,32,0,0,1,35.4,18.09,29.36,29.36,0,0,1,48.77,2.8Zm-5-18.5h0A32.5,32.5,0,0,0,33.25,16.88a31,31,0,0,1-6-4.79A31.68,31.68,0,0,1,43.76,3.07ZM25.63,13.92a33.77,33.77,0,0,0,6.73,5.29h0A45.73,45.73,0,0,0,30,32.89H18.36A31.58,31.58,0,0,1,25.63,13.92Z"/><path class="c" d="M30.56,41.56,33,41.19l-.06-.55L30.26,39C30.34,39.87,30.43,40.72,30.56,41.56Z"/><path class="c" d="M48.77,43.63v1h2.46V43.28A8.92,8.92,0,0,0,48.77,43.63Z"/><path class="c" d="M67.15,40.26l2.43.32c.09-.68.15-1.36.21-2l-2.57,1C67.19,39.78,67.18,40,67.15,40.26Z"/><path class="c" d="M78.62,47.68l2.21,1a1.6,1.6,0,0,0,.1-.23l-1.39-3C79.25,46.25,79,47,78.62,47.68Z"/><path class="c" d="M22.16,49.2c-.4-.73-.76-1.49-1.1-2.26l-1.42,2.72.36.72Z"/></svg>