<svg xmlns="http://www.w3.org/2000/svg" viewBox="0 0 100 100"><defs><style>.a{fill:#e6e7e8;}.b{fill:none;}.c{fill:#21409a;}.d{fill:#ec008c;}</style></defs><polygon class="a" points="46.84 57.99 81.44 32.28 92.22 13.86 40.87 52.02 48.81 87.97 52.18 82.21 46.84 57.99"/><polygon class="a" points="75.31 21.97 90.09 10.99 6.64 31.18 15.88 36.35 75.31 21.97"/><polygon class="b" points="48.81 87.97 92.22 13.86 40.87 52.02 48.81 87.97"/><path class="b" d="M90.09,11,6.64,31.18l32.1,18ZM22.33,33.41a1.5,1.5,0,0,1-.36-3l29.49-7.2a1.5,1.5,0,1,1,.71,2.91L22.69,33.37A1.47,1.47,0,0,1,22.33,33.41Z"/><path class="c" d="M.92,32.07,37.3,52.45l9,40.75a1.78,1.78,0,0,0,2.13,1.36,1.75,1.75,0,0,0,1.16-.84L99.73,8.12a1.72,1.72,0,0,0,.26-.8,1.75,1.75,0,0,0-.32-1.17l0,0,0,0a1.79,1.79,0,0,0-1-.65,1.69,1.69,0,0,0-.33,0,1.4,1.4,0,0,0-.5.06L1.37,28.77A1.8,1.8,0,0,0,.05,30.93,1.76,1.76,0,0,0,.92,32.07ZM48.81,88,40.87,52,92.22,13.86ZM90.09,11,38.74,49.15l-32.1-18Z"/><path class="d" d="M53.27,24.35a1.49,1.49,0,0,0-1.81-1.1L22,30.45a1.5,1.5,0,0,0,.36,3,1.47,1.47,0,0,0,.36,0l29.48-7.21A1.5,1.5,0,0,0,53.27,24.35ZM22.33,31.91,51.81,24.7Z"/></svg>