<svg xmlns="http://www.w3.org/2000/svg" viewBox="0 0 100 100"><defs><style>.a{fill:#e6e7e8;}.b{fill:none;}.c{fill:#21409a;}.d{fill:#ec008c;}</style></defs><path class="a" d="M25.26,45.69c0-2.46,0-6.53,0-7a32.38,32.38,0,0,1,29-30.42c-.71-.08-1.42-.13-2.14-.16l-.84,0h-.37a32.37,32.37,0,0,0-32.33,30.6c0,.44,0,4.51-.06,7a1.54,1.54,0,0,1-.1.56l-6.48,17h6.74l6.48-17A1.54,1.54,0,0,0,25.26,45.69Z"/><path class="a" d="M46.31,81.87h0l-6.12,0a6.41,6.41,0,0,1,5.66,4.84l2.55,10.12H55.1L52.56,86.74A6.43,6.43,0,0,0,46.31,81.87Z"/><path class="a" d="M32,80.24A5.92,5.92,0,0,1,30.17,76V64.81a1.58,1.58,0,0,0-1.57-1.58H21.86a1.57,1.57,0,0,1,1.57,1.58V76a6,6,0,0,0,6,6h.17c.32,0,2.28,0,5.83,0A6,6,0,0,1,32,80.24Z"/><polygon class="a" points="51.47 22.06 56.86 22.06 56.86 19.81 46.98 19.81 46.98 49.91 51.47 49.91 51.47 22.06"/><path class="a" d="M92,34.41h4.9s0-.07,0-.11a2.14,2.14,0,0,0-2.15-2.13H90.53a1.57,1.57,0,0,0,.74,2.09A1.6,1.6,0,0,0,92,34.41Z"/><path class="a" d="M93.46,46.76H88.28A1.57,1.57,0,0,0,89.7,49h5.47a1.94,1.94,0,0,0,0-.24A2.11,2.11,0,0,0,93.46,46.76Z"/><path class="a" d="M92,41.82h4.89a1.64,1.64,0,0,0,0-.22,2,2,0,0,0-2-2H90.53a1.57,1.57,0,0,0,.74,2.09A1.6,1.6,0,0,0,92,41.82Z"/><path class="a" d="M84.2,27.45H96.82c0-.11,0-.22,0-.34A1.91,1.91,0,0,0,95,25.2H82a4.39,4.39,0,0,1-1.75-.36A4.33,4.33,0,0,0,84.2,27.45Z"/><path class="a" d="M62.25,26.78h1.57a10.58,10.58,0,0,0,8.54-4.33,32.34,32.34,0,0,0,5.7-13.93l.48-2.94a6,6,0,0,1,.59.22A4.65,4.65,0,0,0,76.3,3.33l-.49,3a32.17,32.17,0,0,1-5.7,13.92,10.52,10.52,0,0,1-8.53,4.33H60v2.25Z"/><path class="b" d="M61.32,48.79H60v2.64a1.69,1.69,0,0,1-1.67,1.62h-13a1.58,1.58,0,0,1-1.54-1.62V18.26h0a1.56,1.56,0,0,1,1.54-1.59h13A1.68,1.68,0,0,1,60,18.26v3.13h1.58a7.43,7.43,0,0,0,6-3,30,30,0,0,0,2.17-3.54A28.82,28.82,0,0,0,52.12,8.14l-.84,0h-.37a32.37,32.37,0,0,0-32.33,30.6c0,.44,0,4.51-.06,7a1.54,1.54,0,0,1-.1.56l-6.48,17h9.92a1.57,1.57,0,0,1,1.57,1.58V76.12a6,6,0,0,0,6.15,5.81c.43,0,3.78,0,10-.06h0a6.41,6.41,0,0,1,6.25,4.87l2.55,10.12H76.76c-.51-2.1-1.32-5.67-2.07-9.84-1.61-9-2.17-16.28-1.66-21.76.29-3,2.43-8.92,3.5-11.69a15.16,15.16,0,0,1-5.4-2A18.57,18.57,0,0,0,61.32,48.79Z"/><rect class="b" x="46.98" y="19.81" width="9.88" height="30.1"/><path class="b" d="M61.58,24.53H60V45.64h1.32a21.7,21.7,0,0,1,11.47,3.27c2.83,1.75,6.12,1.9,9.81,1.9H93.15a2,2,0,0,0,2-2,2.11,2.11,0,0,0-1.73-2h-6a1.57,1.57,0,0,1,0-3.14h7.36a2,2,0,0,0,0-4h-5.1a1.58,1.58,0,1,1,0-3.15h5a2.13,2.13,0,1,0,0-4.26h-5a1.58,1.58,0,1,1,0-3.15H95a1.91,1.91,0,0,0,0-3.82H82a4.31,4.31,0,0,1-4.33-3.87,15.44,15.44,0,0,1,.91-7.06,15.29,15.29,0,0,0,1-5.35V7.68A4.58,4.58,0,0,0,76.3,3.33l-.49,3a32.17,32.17,0,0,1-5.7,13.92A10.52,10.52,0,0,1,61.58,24.53Z"/><path class="c" d="M10.75,66.18a3.15,3.15,0,0,0,1.1.2h8.44V76a9.12,9.12,0,0,0,9.12,9.12h.27L39.56,85h0a3.29,3.29,0,0,1,3.2,2.5l2.85,11.3A1.56,1.56,0,0,0,47.14,100H78.77a1.57,1.57,0,0,0,1.58-1.57,1.45,1.45,0,0,0-.06-.41h0c-.05-.2-5.28-20-4.13-32.47.25-2.69,2.49-8.79,3.62-11.65l-3.19-.32h-.06c-1.07,2.77-3.21,8.65-3.5,11.69-.51,5.48,0,12.8,1.66,21.76.75,4.17,1.56,7.74,2.07,9.84H48.37L45.82,86.74a6.41,6.41,0,0,0-6.25-4.87h0c-6.18,0-9.53,0-10,.06a6,6,0,0,1-6.15-5.81V64.81a1.57,1.57,0,0,0-1.57-1.58H11.94l6.48-17a1.54,1.54,0,0,0,.1-.56c0-2.46,0-6.53.06-7A32.37,32.37,0,0,1,50.91,8.12h.37l.84,0a28.82,28.82,0,0,1,17.62,6.68,27.11,27.11,0,0,0,1.34-3A31.88,31.88,0,0,0,52.23,5l-.91,0A35.53,35.53,0,0,0,15.44,38.54c0,.59,0,5.33-.06,6.86L9,62.2A3.08,3.08,0,0,0,10.75,66.18Z"/><path class="d" d="M70.84,15.77c-.36-.33-.72-.64-1.1-.95a30,30,0,0,1-2.17,3.54,7.43,7.43,0,0,1-6,3H60V18.26a1.68,1.68,0,0,0-1.67-1.59h-13a1.56,1.56,0,0,0-1.54,1.59h0V51.43a1.58,1.58,0,0,0,1.54,1.62h13A1.69,1.69,0,0,0,60,51.43V48.79h1.32a18.57,18.57,0,0,1,9.81,2.8,15.16,15.16,0,0,0,5.4,2c0-.06,0-.12.07-.17l3.24.32-.06.18h0c.92,0,1.84,0,2.77,0H93.15a5.19,5.19,0,0,0,4.38-8,5.2,5.2,0,0,0,1.7-7.15,5.57,5.57,0,0,0-.74-.94,5.29,5.29,0,0,0,.06-7.34h0A5,5,0,0,0,95,22.06H82A1.2,1.2,0,0,1,80.74,21a12.27,12.27,0,0,1,.74-5.63,18.21,18.21,0,0,0,1.21-6.44V7.68A7.71,7.71,0,0,0,75,0a1.58,1.58,0,0,0-1.57,1.33l-.7,4.49a28.69,28.69,0,0,1-1.63,6c.65.51,1.28,1,1.88,1.6Zm-14,34.14H47V19.81h9.88Zm19-43.63.49-2.95a4.58,4.58,0,0,1,3.24,4.35V8.92a15.29,15.29,0,0,1-1,5.35,15.44,15.44,0,0,0-.91,7.06A4.31,4.31,0,0,0,82,25.2H95A1.91,1.91,0,0,1,95,29H89.71a1.58,1.58,0,1,0,0,3.15h5a2.13,2.13,0,1,1,0,4.26h-5a1.58,1.58,0,1,0,0,3.15h5.1a2,2,0,0,1,0,4H87.45a1.57,1.57,0,0,0,0,3.14h6a2.11,2.11,0,0,1,1.73,2,2,2,0,0,1-2,2H82.6c-3.69,0-7-.15-9.81-1.9a21.7,21.7,0,0,0-11.47-3.27H60V24.53h1.58a10.52,10.52,0,0,0,8.53-4.33A32.17,32.17,0,0,0,75.81,6.28Z"/><path class="d" d="M76.6,53.4c0,.05,0,.11-.07.17h.06l3.19.32.06-.18Z"/><path class="d" d="M70.84,15.77,73,13.46c-.6-.56-1.23-1.09-1.88-1.6a27.11,27.11,0,0,1-1.34,3C70.12,15.13,70.48,15.44,70.84,15.77Z"/></svg>