<svg xmlns="http://www.w3.org/2000/svg" viewBox="0 0 100 100"><defs><style>.a{fill:#e6e7e8;}.b{fill:none;}.c{fill:#21409a;}.d{fill:#ec008c;}</style></defs><path class="a" d="M32.92,98,22.18,40.75H15.82L26.56,98a.85.85,0,0,0,.83.69h6.36A.84.84,0,0,1,32.92,98Z"/><path class="a" d="M46.92,69.62a9.44,9.44,0,0,1,6.26-8.89A9.58,9.58,0,0,0,50,60.18h0a9.44,9.44,0,1,0,0,18.88h0a9.33,9.33,0,0,0,3.18-.55A9.43,9.43,0,0,1,46.92,69.62Z"/><path class="b" d="M64.65,30.51a2,2,0,0,1,.1.21A7.85,7.85,0,0,1,70.28,29a6.78,6.78,0,0,1,.9-.7h0a5.72,5.72,0,0,1,.64-2.93A12.08,12.08,0,0,1,65.3,28,6.5,6.5,0,0,1,64.65,30.51Z"/><path class="b" d="M62.77,27.64a4.62,4.62,0,0,0-.05-.65,4,4,0,0,0-7.84-.64,1.27,1.27,0,0,1-1.18.87,3,3,0,0,0,.08,6,2.64,2.64,0,0,0,.74-.1h0a1.28,1.28,0,0,1,1.55.92,3.4,3.4,0,0,0,6.69-.69v0a.57.57,0,0,0,0-.13,3.43,3.43,0,0,0-.62-2h0a1.27,1.27,0,0,1,0-1.42A4.1,4.1,0,0,0,62.77,27.64Z"/><path class="b" d="M44.86,35.53a1.27,1.27,0,0,1-.34-1.42,3,3,0,0,0-5.59-2.27,3.49,3.49,0,0,0-.2.72,1.28,1.28,0,0,1-1.45,1.07,3.29,3.29,0,0,0-1.21,0,3.4,3.4,0,1,0,1.44,6.65,1.27,1.27,0,0,1,1.32.53,4.06,4.06,0,0,0,7.05-.62v-.06l0,0h0A4.05,4.05,0,0,0,44.86,35.53Z"/><path class="b" d="M42.15,45.16a6.47,6.47,0,0,1-2.53-.52,6.4,6.4,0,0,1-2.39-1.72h-.17A5.88,5.88,0,0,1,33.61,42H32.5l.84,8a1.27,1.27,0,0,1-2.53.26L30,42H17.35l10.4,55.44h8L31.6,57.89a1.26,1.26,0,0,1,1.13-1.39,1.28,1.28,0,0,1,1.4,1.13l4.14,39.83H48.72V80.26a10.71,10.71,0,0,1,0-21.27V42h-.94A6.64,6.64,0,0,1,42.15,45.16Zm-18,17.74-.42-2.2a1.28,1.28,0,1,1,2.51-.47l.41,2.2h0a1.27,1.27,0,1,1-2.5.47ZM29,81.48a1.27,1.27,0,0,1-1.49-1L25.11,67.82a1.27,1.27,0,1,1,2.5-.47L30,80A1.26,1.26,0,0,1,29,81.48Z"/><path class="b" d="M54.65,76.34a1.27,1.27,0,1,1,1.45,2.09,10.61,10.61,0,0,1-4.83,1.83v17.2H61.73L67.5,42H51.27V59a10.72,10.72,0,0,1,8.28,15.5,1.27,1.27,0,0,1-2.27-1.16,8.16,8.16,0,1,0-2.63,3Z"/><polygon class="b" points="78.58 42.02 70.05 42.02 64.29 97.46 72.25 97.46 82.65 42.02 78.58 42.02 78.58 42.02 78.58 42.02"/><path class="b" d="M79.56,31.31a1.28,1.28,0,0,1-.09-1.58l.12-.19a3.14,3.14,0,1,0-5.8-.84,1.26,1.26,0,0,1-.66,1.41,5.43,5.43,0,0,0-1.46,1.11,1.27,1.27,0,0,1-1.14.39,5.32,5.32,0,0,0-5.26,2.25A5.94,5.94,0,0,1,54,35.78h-.22a5.56,5.56,0,0,1-1-11,6.6,6.6,0,0,1,12.16.67,9.64,9.64,0,0,0-.38-19.25,1.27,1.27,0,0,1-1.19-.89,3.92,3.92,0,0,0-7.66,1.18,3.8,3.8,0,0,0,.73,2.28,1.28,1.28,0,0,1,0,1.48,9.61,9.61,0,0,0-1.44,3,.9.9,0,0,1-.11.27,1.27,1.27,0,0,1-1.73.5A6.44,6.44,0,0,0,50,13.19a1.28,1.28,0,0,1-1.11-.63,6.61,6.61,0,0,0-1.55-1.82,6.51,6.51,0,0,0-9.16,1,1.28,1.28,0,0,1-1.42.4,3.87,3.87,0,0,0-1.3-.23,3.93,3.93,0,0,0-3.67,2.54,6.7,6.7,0,0,1,1.11.62,1.27,1.27,0,0,1-1.42,2.1,5,5,0,1,0-2.78,9.08,1.27,1.27,0,0,1,0,2.54,6.84,6.84,0,0,1-1.56-.17,6.39,6.39,0,0,0,.49,1.21,1.26,1.26,0,0,1,.15.76,1.28,1.28,0,0,1-1.42,1.11,5.06,5.06,0,0,0-.77-.05,6.41,6.41,0,0,0-1.95.3,6.52,6.52,0,0,0-4.44,7.54H31.38a6,6,0,0,1-.54-2.21,6,6,0,0,1,5.67-6.22l.08-.2a5.55,5.55,0,0,1,10.54,3.36,6.59,6.59,0,0,1,1.58,5.27H78.23a5.59,5.59,0,0,0,.9-.63A5.34,5.34,0,0,0,79.56,31.31Z"/><path class="c" d="M26.13,66.33a1.28,1.28,0,0,0-1,1.49l2.37,12.65A1.27,1.27,0,0,0,30,80L27.61,67.35A1.27,1.27,0,0,0,26.13,66.33Z"/><path class="c" d="M26.69,62.43h0l-.41-2.2a1.28,1.28,0,1,0-2.51.47l.42,2.2a1.27,1.27,0,1,0,2.5-.47Z"/><path class="c" d="M14.55,40.75a.93.93,0,0,0,0,.23L25.31,98.27A2.12,2.12,0,0,0,27.39,100H72.61a2.12,2.12,0,0,0,2.08-1.73L85.43,41a1.27,1.27,0,0,0-1.25-1.51H82a7.86,7.86,0,0,1-2.81,2.41,1.22,1.22,0,0,1-.57.13h4.07L72.25,97.46h-8L70.05,42h8.53L78,39.62l.23-.14H48.71a6.46,6.46,0,0,1-.45,1.64,1.11,1.11,0,0,1-.07.16c-.12.26-.26.5-.4.74h.94V59a10.71,10.71,0,0,0,0,21.27v17.2H38.27L34.13,57.63a1.28,1.28,0,0,0-1.4-1.13,1.26,1.26,0,0,0-1.13,1.39l4.11,39.57h-8L17.35,42H30l.86,8.29a1.27,1.27,0,0,0,2.53-.26l-.84-8h1.11a5.91,5.91,0,0,1-2.23-2.54H19.22c.05.21.1.42.16.63a1.27,1.27,0,0,1-2.42.77,9.45,9.45,0,0,1-.31-1.4h-.83A1.27,1.27,0,0,0,14.55,40.75ZM43.3,74.27a8.16,8.16,0,1,1,14-.94,1.27,1.27,0,0,0,2.27,1.16A10.72,10.72,0,0,0,51.27,59V42H67.5L61.73,97.45H51.26V80.26a10.61,10.61,0,0,0,4.83-1.83,1.27,1.27,0,1,0-1.45-2.09A8.16,8.16,0,0,1,43.3,74.27Z"/><polygon class="d" points="78.58 42.02 78.58 42.02 78.58 42.02 78.58 42.02"/><path class="d" d="M23.66,31.93a6.41,6.41,0,0,1,1.95-.3,5.06,5.06,0,0,1,.77.05,1.28,1.28,0,0,0,1.42-1.11,1.26,1.26,0,0,0-.15-.76,6.39,6.39,0,0,1-.49-1.21,6.84,6.84,0,0,0,1.56.17,1.27,1.27,0,0,0,0-2.54,5,5,0,1,1,2.78-9.08,1.27,1.27,0,0,0,1.42-2.1,6.7,6.7,0,0,0-1.11-.62,3.93,3.93,0,0,1,3.67-2.54,3.87,3.87,0,0,1,1.3.23,1.28,1.28,0,0,0,1.42-.4,6.51,6.51,0,0,1,9.16-1,6.61,6.61,0,0,1,1.55,1.82,1.28,1.28,0,0,0,1.11.63,6.44,6.44,0,0,1,3.15.82,1.27,1.27,0,0,0,1.73-.5.9.9,0,0,0,.11-.27,9.61,9.61,0,0,1,1.44-3,1.28,1.28,0,0,0,0-1.48,3.8,3.8,0,0,1-.73-2.28,3.92,3.92,0,0,1,7.66-1.18,1.27,1.27,0,0,0,1.19.89,9.64,9.64,0,0,1,.38,19.25,6.6,6.6,0,0,0-12.16-.67,5.56,5.56,0,0,0,1,11H54a5.94,5.94,0,0,0,11.27-1.92,5.32,5.32,0,0,1,5.26-2.25,1.27,1.27,0,0,0,1.14-.39,5.43,5.43,0,0,1,1.46-1.11,1.26,1.26,0,0,0,.66-1.41,3.14,3.14,0,1,1,5.8.84l-.12.19a1.28,1.28,0,0,0,.09,1.58,5.34,5.34,0,0,1-.43,7.54,5.59,5.59,0,0,1-.9.63H82a7.89,7.89,0,0,0,.64-8.2,8.11,8.11,0,0,0-.57-.94,5.67,5.67,0,0,0-7.94-7.29A12.18,12.18,0,0,0,65.47,3.69,6.47,6.47,0,0,0,53.79,9.24a1.63,1.63,0,0,0,.11.23,11.78,11.78,0,0,0-.86,1.7,8.74,8.74,0,0,0-2.31-.49,9.06,9.06,0,0,0-12.6-2.33,9.63,9.63,0,0,0-1.35,1.13,6.47,6.47,0,0,0-7.44,4.31l-.61,0a7.5,7.5,0,0,0-4.37,13.61,8.64,8.64,0,0,0,.3,1.76,9.08,9.08,0,0,0-8.07,10l.06.37h2.57A6.52,6.52,0,0,1,23.66,31.93Zm38.49-.67h0a3.43,3.43,0,0,1,.62,2,.57.57,0,0,1,0,.13v0a3.4,3.4,0,0,1-6.69.69,1.28,1.28,0,0,0-1.55-.92h0a2.64,2.64,0,0,1-.74.1,3,3,0,0,1-.08-6,1.27,1.27,0,0,0,1.18-.87,4,4,0,0,1,7.84.64,4.62,4.62,0,0,1,.05.65,4.1,4.1,0,0,1-.65,2.2A1.27,1.27,0,0,0,62.15,31.26Zm9-2.94h0a6.78,6.78,0,0,0-.9.7,7.85,7.85,0,0,0-5.53,1.7,2,2,0,0,0-.1-.21A6.5,6.5,0,0,0,65.3,28a12.08,12.08,0,0,0,6.52-2.56A5.72,5.72,0,0,0,71.18,28.32Z"/><path class="c" d="M18.56,41.69a1.27,1.27,0,0,0,.82-1.59c-.06-.21-.11-.42-.16-.63H16.65a9.45,9.45,0,0,0,.31,1.4A1.28,1.28,0,0,0,18.56,41.69Z"/><path class="c" d="M78,39.62l.58,2.4h0a1.22,1.22,0,0,0,.57-.13A7.86,7.86,0,0,0,82,39.48H78.23Z"/><path class="d" d="M47.13,34.21a5.55,5.55,0,0,0-10.54-3.36l-.08.2a6,6,0,0,0-5.67,6.22,6,6,0,0,0,.54,2.21H34V42h-.39a5.88,5.88,0,0,0,3.45.91h.17a6.4,6.4,0,0,0,2.39,1.72,6.47,6.47,0,0,0,2.53.52A6.64,6.64,0,0,0,47.79,42H47V39.48h1.67A6.59,6.59,0,0,0,47.13,34.21Zm-1.21,5.93,0,0v.06a4.06,4.06,0,0,1-7.05.62,1.27,1.27,0,0,0-1.32-.53,3.4,3.4,0,1,1-1.44-6.65,3.29,3.29,0,0,1,1.21,0,1.28,1.28,0,0,0,1.45-1.07,3.49,3.49,0,0,1,.2-.72,3,3,0,0,1,5.59,2.27,1.27,1.27,0,0,0,.34,1.42,4.05,4.05,0,0,1,1.06,4.61Z"/><path class="d" d="M34,39.48H31.38A5.91,5.91,0,0,0,33.61,42H34Z"/><path class="d" d="M47,42h.75c.14-.24.28-.48.4-.74a1.11,1.11,0,0,0,.07-.16,6.46,6.46,0,0,0,.45-1.64H47Z"/></svg>