<svg xmlns="http://www.w3.org/2000/svg" viewBox="0 0 100 100"><defs><style>.a{fill:#e6e7e8;}.b{fill:none;}.c{fill:#21409a;}.d{fill:#ec008c;}</style></defs><path class="a" d="M11.75,78.88a11.35,11.35,0,0,1,8.37-10.95,11.36,11.36,0,1,0,0,21.91A11.37,11.37,0,0,1,11.75,78.88Z"/><path class="b" d="M85.85,88a3,3,0,0,0,3.91-1.6h0A3,3,0,1,0,85.85,88Z"/><path class="b" d="M79.76,54a6.93,6.93,0,0,1-1.21,1.21,7.35,7.35,0,0,1,1.21,1.22h0A7.82,7.82,0,0,1,81,55.24,7.35,7.35,0,0,1,79.76,54Z"/><path class="b" d="M92.24,57.19a3,3,0,1,0,0,6h0a3,3,0,0,0,0-6Z"/><path class="b" d="M71.94,18.59a4.15,4.15,0,1,0,4.14,4.15A4.14,4.14,0,0,0,71.94,18.59Zm-3.39,3.13A1.28,1.28,0,1,1,69.82,23,1.27,1.27,0,0,1,68.55,21.72Zm2.21,4.72A1.27,1.27,0,1,1,72,25.17,1.27,1.27,0,0,1,70.76,26.44Zm5-2.52a1.28,1.28,0,1,1-1.28-1.28A1.28,1.28,0,0,1,75.81,23.92Z"/><path class="b" d="M84.23,91.88a7.17,7.17,0,1,0-3.83-9.39A7.18,7.18,0,0,0,84.23,91.88ZM85,80.29l.06,0a5.88,5.88,0,1,1-.06,0Z"/><path class="b" d="M58.87,51.2a2,2,0,0,0-.73.14,2,2,0,1,0,.73-.14Z"/><path class="b" d="M37.12,14.33c.2.12.4.23.61.33,0-.2-.12-.43-.2-.69Z"/><path class="b" d="M21,32.47h2.33a1.2,1.2,0,1,1,0,2.39H19.15a6.91,6.91,0,0,0-.54,2H22a1.2,1.2,0,1,1,0,2.39H18.8a5.69,5.69,0,0,0,.61,1.54s0,.06,0,.06h4.65a1.2,1.2,0,0,1,0,2.39H21.71A6.57,6.57,0,1,0,25.12,31,7.29,7.29,0,0,0,21,32.47Z"/><path class="b" d="M56.48,79.77a3,3,0,1,0,3,3h0A3,3,0,0,0,56.48,79.77Z"/><path class="b" d="M28.4,8.73a4.43,4.43,0,0,0,3.88,4.66A33,33,0,0,1,30,10.88C29.44,10.17,28.9,9.45,28.4,8.73Z"/><path class="b" d="M27.85,2.51a7.46,7.46,0,0,0,.47,1.35,6.76,6.76,0,0,1,.8-.61A7,7,0,0,0,27.85,2.51Z"/><path class="b" d="M34.43,4.82A4.45,4.45,0,0,0,29.5,6.05a29.94,29.94,0,0,0,2.38,3.32,28.4,28.4,0,0,0,3.24,3.43,4.44,4.44,0,0,0-.69-8Z"/><path class="b" d="M32.79,96.32h0A7,7,0,0,1,34,95.1a6.66,6.66,0,0,1-1.21-1.22,7,7,0,0,1-1.22,1.22A7.41,7.41,0,0,1,32.79,96.32Z"/><path class="b" d="M55,38.68h0a7,7,0,0,1-1.22,1.22A6.66,6.66,0,0,1,55,41.11a6.93,6.93,0,0,1,1.21-1.21A7.35,7.35,0,0,1,55,38.68Z"/><path class="b" d="M10.38,10.12a1.94,1.94,0,1,0-1.07,2.53h0a1.93,1.93,0,0,0,1.05-2.52Z"/><path class="b" d="M7.28,45.09h0a7,7,0,0,1,1.21-1.22,6.93,6.93,0,0,1-1.21-1.21,7.35,7.35,0,0,1-1.22,1.21A7.82,7.82,0,0,1,7.28,45.09Z"/><path class="b" d="M23.53,80.52h0a1,1,0,0,0,1-1h0a1,1,0,1,0-1,1Z"/><path class="c" d="M92.24,54.8a5.38,5.38,0,1,0,5.37,5.38A5.38,5.38,0,0,0,92.24,54.8Zm0,8.36h0a3,3,0,1,1,3-3A3,3,0,0,1,92.24,63.16Z"/><path class="c" d="M57.23,49.13a4.33,4.33,0,1,0,5.65,2.37A4.34,4.34,0,0,0,57.23,49.13Zm2.37,5.81a1.94,1.94,0,0,1-1.46-3.6,2,2,0,0,1,.73-.14,1.94,1.94,0,0,1,.73,3.74Z"/><path class="c" d="M62.57,57.23a1.3,1.3,0,0,0-.71,1.69,1.3,1.3,0,0,0,2.41-1A1.31,1.31,0,0,0,62.57,57.23Z"/><path class="c" d="M6.94,6.84a4.33,4.33,0,1,0,5.65,2.38h0A4.34,4.34,0,0,0,6.94,6.84Zm2.39,5.8h0a1.94,1.94,0,1,1,1.07-2.53h0A1.93,1.93,0,0,1,9.33,12.64Z"/><path class="c" d="M14.37,5.46a1.3,1.3,0,1,0-1,2.4,1.24,1.24,0,0,0,.5.1,1.3,1.3,0,0,0,.5-2.5Z"/><path class="c" d="M61.86,82.76h0a5.38,5.38,0,1,0-5.38,5.38A5.39,5.39,0,0,0,61.86,82.76Zm-2.39,0a3,3,0,1,1-3-3,3,3,0,0,1,3,3Z"/><path class="c" d="M58.1,73.56a1.62,1.62,0,1,0-1.62,1.61A1.62,1.62,0,0,0,58.1,73.56Z"/><path class="c" d="M54.87,92a1.61,1.61,0,1,0,1.61-1.61A1.61,1.61,0,0,0,54.87,92Z"/><path class="c" d="M45.67,82.76a1.61,1.61,0,1,0,1.61-1.61A1.61,1.61,0,0,0,45.67,82.76Z"/><path class="c" d="M67.3,82.76a1.62,1.62,0,1,0-1.62,1.61A1.62,1.62,0,0,0,67.3,82.76Z"/><path class="c" d="M50,87.65a1.62,1.62,0,1,0,1.14.47A1.65,1.65,0,0,0,50,87.65Z"/><path class="c" d="M64.6,76.26a1.65,1.65,0,0,0-.47-1.15A1.62,1.62,0,1,0,63,77.87,1.61,1.61,0,0,0,64.6,76.26Z"/><path class="c" d="M48.83,75.11a1.62,1.62,0,0,0,0,2.29,1.65,1.65,0,0,0,1.15.47h0a1.61,1.61,0,0,0,1.61-1.62,1.65,1.65,0,0,0-.47-1.14A1.62,1.62,0,0,0,48.83,75.11Z"/><path class="c" d="M64.13,90.41h0a1.61,1.61,0,0,0,0-2.27v0a1.62,1.62,0,1,0,0,2.29Z"/><path class="c" d="M83.25,50.5a1.62,1.62,0,1,0-1.62-1.61A1.61,1.61,0,0,0,83.25,50.5Z"/><path class="c" d="M57.53,7.84a1.61,1.61,0,1,0-1.62-1.61A1.61,1.61,0,0,0,57.53,7.84Z"/><path class="c" d="M9,62.69a1.62,1.62,0,1,0-3.23,0,1.62,1.62,0,0,0,3.23,0Z"/><path class="c" d="M3,30.28a1.62,1.62,0,1,0,1.62-1.62A1.61,1.61,0,0,0,3,30.28Z"/><path class="c" d="M69.71,97.4a1.62,1.62,0,1,0,1.62-1.62A1.62,1.62,0,0,0,69.71,97.4Z"/><path class="c" d="M35.63,56.41a1.62,1.62,0,1,0,1.61-1.61A1.61,1.61,0,0,0,35.63,56.41Z"/><path class="c" d="M92.92,31.74a1.62,1.62,0,1,0,1.62-1.61A1.62,1.62,0,0,0,92.92,31.74Z"/><path class="c" d="M44.71,29.44a1.61,1.61,0,1,0-1.61,1.62A1.61,1.61,0,0,0,44.71,29.44Z"/><path class="c" d="M79.39,50.4a1.2,1.2,0,0,0-.76.76,4.69,4.69,0,0,1-2.94,3,1.19,1.19,0,0,0-.75,1.51,1.16,1.16,0,0,0,.75.76,4.65,4.65,0,0,1,2.94,2.94,1.2,1.2,0,0,0,2.27,0,4.67,4.67,0,0,1,2.94-3,1.19,1.19,0,0,0,.75-1.51,1.21,1.21,0,0,0-.75-.75h0a4.67,4.67,0,0,1-2.94-3A1.19,1.19,0,0,0,79.39,50.4Zm.37,6.06h0a7.35,7.35,0,0,0-1.21-1.22A6.93,6.93,0,0,0,79.76,54,7.35,7.35,0,0,0,81,55.24,7.82,7.82,0,0,0,79.76,56.46Z"/><path class="c" d="M54.57,35.06a1.18,1.18,0,0,0-.75.76,4.67,4.67,0,0,1-2.94,2.94,1.19,1.19,0,0,0,0,2.27h0A4.71,4.71,0,0,1,53.82,44a1.19,1.19,0,0,0,2.26,0A4.71,4.71,0,0,1,59,41a1.2,1.2,0,0,0,0-2.27,4.67,4.67,0,0,1-2.94-2.94A1.19,1.19,0,0,0,54.57,35.06Zm1.59,4.84A6.93,6.93,0,0,0,55,41.11a6.66,6.66,0,0,0-1.22-1.21A7,7,0,0,0,55,38.68h0A7.35,7.35,0,0,0,56.16,39.9Z"/><path class="c" d="M2.45,44.25A1.17,1.17,0,0,0,3.2,45a4.67,4.67,0,0,1,2.94,3,1.2,1.2,0,0,0,2.27,0,4.67,4.67,0,0,1,2.94-3,1.19,1.19,0,0,0,0-2.26,4.67,4.67,0,0,1-2.94-3,1.2,1.2,0,0,0-2.27,0,4.67,4.67,0,0,1-2.94,3A1.19,1.19,0,0,0,2.45,44.25Zm4.83-1.59a6.93,6.93,0,0,0,1.21,1.21,7,7,0,0,0-1.21,1.22h0a7.82,7.82,0,0,0-1.22-1.22A7.35,7.35,0,0,0,7.28,42.66Z"/><path class="c" d="M28.71,96.23a4.67,4.67,0,0,1,2.94,3,1.2,1.2,0,0,0,2.27,0,4.67,4.67,0,0,1,2.94-3,1.19,1.19,0,0,0,.75-1.51,1.17,1.17,0,0,0-.75-.75,4.67,4.67,0,0,1-2.94-3,1.2,1.2,0,0,0-2.27,0,4.67,4.67,0,0,1-2.94,3,1.19,1.19,0,0,0,0,2.26Zm4.08-2.35A6.66,6.66,0,0,0,34,95.1a7,7,0,0,0-1.21,1.22h0a7.41,7.41,0,0,0-1.22-1.22A7,7,0,0,0,32.79,93.88Z"/><path class="d" d="M92,20.72l.17-.13a1.19,1.19,0,1,0-1.43-1.91l-.17.12A1.2,1.2,0,0,0,92,20.72Z"/><path class="d" d="M86.37,11.24a1.2,1.2,0,0,0,1.68.21l.9-.71a1.18,1.18,0,0,0,.2-1.67,1.2,1.2,0,0,0-1.68-.21l-.89.71A1.19,1.19,0,0,0,86.37,11.24Z"/><path class="d" d="M63.77,28.89a10.29,10.29,0,0,0,6.79,4,10.81,10.81,0,0,0,1.5.11A10.21,10.21,0,0,0,78.22,31l11.39-8.52a1.19,1.19,0,1,0-1.4-1.93l0,0h0L76.79,29.07a7.94,7.94,0,0,1-9.5-12.72L81.91,5.42a1.2,1.2,0,0,0-1.42-1.93h0L65.85,14.44A10.32,10.32,0,0,0,63.77,28.89Z"/><path class="d" d="M89.42,1.23,87.87,2.48a1.19,1.19,0,0,0-.17,1.68,1.18,1.18,0,0,0,1.68.18l1.54-1.26a1.19,1.19,0,0,0-1.5-1.85Z"/><path class="d" d="M82.76,8.17a1.18,1.18,0,0,0,.93.45,1.21,1.21,0,0,0,.75-.27l2.24-1.82a1.19,1.19,0,1,0-1.5-1.86L82.93,6.49A1.19,1.19,0,0,0,82.76,8.17Z"/><path class="d" d="M80,12l2-1.65a1.19,1.19,0,1,0-1.5-1.86l-2,1.65A1.2,1.2,0,0,0,80,12Z"/><path class="d" d="M96.88,8.33a1.2,1.2,0,0,0-1.69-.16l0,0-1.4,1.17a1.21,1.21,0,0,0-.15,1.69,1.2,1.2,0,0,0,1.68.15h0L96.71,10A1.19,1.19,0,0,0,96.88,8.33Z"/><path class="d" d="M88.08,17.28l4.77-4a1.2,1.2,0,0,0-1.52-1.85l0,0h0l-4.77,4a1.2,1.2,0,0,0,1.54,1.83Z"/><path class="d" d="M86,19.07a1.2,1.2,0,0,0-1.54-1.83l-.78.66A1.19,1.19,0,0,0,84.4,20a1.17,1.17,0,0,0,.76-.28Z"/><polygon class="d" points="84.4 20.01 84.4 20.01 84.39 20.01 84.4 20.01"/><path class="d" d="M95.62,2.47,89.88,7a1.19,1.19,0,1,0,1.47,1.88L97.1,4.35a1.19,1.19,0,0,0,.2-1.68h0A1.19,1.19,0,0,0,95.62,2.47Z"/><path class="d" d="M80,17.84l5.65-4.48a1.19,1.19,0,0,0,.2-1.68h0a1.19,1.19,0,0,0-1.68-.19h0L78.47,16A1.2,1.2,0,0,0,80,17.84Z"/><path class="d" d="M86.29,2.38A1.42,1.42,0,0,0,84.87,1a1.4,1.4,0,0,0-1.41,1.41h0a1.42,1.42,0,0,0,2.83,0Z"/><path class="d" d="M71.94,16.2a6.54,6.54,0,1,0,6.53,6.54A6.53,6.53,0,0,0,71.94,16.2Zm0,10.68a4.15,4.15,0,1,1,4.14-4.14A4.14,4.14,0,0,1,71.94,26.88Z"/><path class="d" d="M70.76,23.9A1.27,1.27,0,1,0,72,25.17,1.27,1.27,0,0,0,70.76,23.9Z"/><path class="d" d="M71.1,21.72A1.28,1.28,0,1,0,69.82,23,1.28,1.28,0,0,0,71.1,21.72Z"/><path class="d" d="M73.26,23.92a1.28,1.28,0,1,0,1.27-1.28A1.27,1.27,0,0,0,73.26,23.92Z"/><path class="d" d="M18.23,91.63h.07a11.89,11.89,0,0,0,8.46-3.58,12.29,12.29,0,0,0,3.62-8.56,1.18,1.18,0,0,0-1.16-1.2h0A1.2,1.2,0,0,0,28,79.48a10,10,0,0,1-9.75,9.86,1.15,1.15,0,1,0,0,2.29Z"/><path class="d" d="M8,69.85A12.45,12.45,0,0,0,8,87.39a1.23,1.23,0,0,0,.85.35,1.2,1.2,0,0,0,.85-2A10,10,0,0,1,23.78,71.52l0,0c.16.16.31.33.46.5a1.2,1.2,0,1,0,1.8-1.58c-.18-.2-.37-.41-.57-.61A12.35,12.35,0,0,0,8,69.83Z"/><path class="d" d="M7.7,92.39C12,92.39,17.89,88,22,83.88l1-1a3.31,3.31,0,0,0,.55,0,3.41,3.41,0,0,0,3.4-3.41,3.48,3.48,0,0,0-.2-1.15c3.95-5.5,4.83-9.81,2.46-12.19A5.07,5.07,0,0,0,24.3,65a1.19,1.19,0,0,0,.47,2.34c1.86-.37,2.51.28,2.73.5,1.34,1.34.42,4.6-2.39,8.64a3.4,3.4,0,0,0-4.25,5.13l-.55.57C15.64,86.86,10.58,90,7.7,90A2.28,2.28,0,0,1,6,89.4c-.65-.65-.78-1.72-.39-3.18a1.2,1.2,0,0,0-2.32-.61c-.76,2.92.13,4.59,1,5.47A4.57,4.57,0,0,0,7.7,92.39ZM23.51,78.48a1,1,0,0,1,1,1h0a1,1,0,0,1-1,1h0a1,1,0,0,1,0-2Z"/><path class="d" d="M11,82.2a1.19,1.19,0,0,0-2,1.24l0,.08a1.2,1.2,0,1,0,2-1.25h0Z"/><path class="d" d="M89,90.25a5.38,5.38,0,0,0-4-10l-.06,0a5.38,5.38,0,1,0,4.06,10Zm-4.79-6.14a3,3,0,0,1,5.51,2.32h0a3,3,0,0,1-5.51-2.31Z"/><path class="d" d="M83.3,94.08A9.56,9.56,0,0,0,95.86,81.66a9.45,9.45,0,0,0-5.15-5.2A9.56,9.56,0,1,0,83.3,94.08ZM80.4,82.49a7.17,7.17,0,1,1,3.83,9.39A7.17,7.17,0,0,1,80.4,82.49Z"/><path class="d" d="M35.28,2.59a6.93,6.93,0,0,0-3.58-.35C29.18.1,27.32-.51,26.16.43c-.36.3-1.49,1.22.08,4.63.14.3.29.6.46.92-.09.19-.18.38-.25.57a6.85,6.85,0,0,0,4,8.83,6.66,6.66,0,0,0,2.42.45,6.49,6.49,0,0,0,1.86-.27,1.88,1.88,0,0,0,.24.18,6,6,0,0,0,3.29,1.45,1.94,1.94,0,0,0,1.19-.38c1.34-1,.66-3.25-.28-5.17l.09-.23A6.84,6.84,0,0,0,35.28,2.59Zm-7.43-.08a7,7,0,0,1,1.27.74,6.76,6.76,0,0,0-.8.61A7.46,7.46,0,0,1,27.85,2.51Zm.55,6.22c.5.72,1,1.44,1.62,2.15a33,33,0,0,0,2.26,2.51A4.43,4.43,0,0,1,28.4,8.73Zm6.72,4.07a28.4,28.4,0,0,1-3.24-3.43A29.94,29.94,0,0,1,29.5,6.05,4.45,4.45,0,0,1,37,10.56,4.42,4.42,0,0,1,35.12,12.8Zm2,1.53.41-.36c.08.26.15.49.2.69C37.52,14.56,37.32,14.45,37.12,14.33Z"/><path class="d" d="M16.18,37.6a8.94,8.94,0,1,0,8.94-8.94A8.93,8.93,0,0,0,16.18,37.6Zm15.47,0a6.56,6.56,0,0,1-6.53,6.53h0a6.6,6.6,0,0,1-3.41-.93h2.38a1.2,1.2,0,0,0,0-2.39H19.44s0-.06,0-.06a5.69,5.69,0,0,1-.61-1.54H22a1.2,1.2,0,1,0,0-2.39H18.61a6.91,6.91,0,0,1,.54-2h4.16a1.2,1.2,0,1,0,0-2.39H21A7.29,7.29,0,0,1,25.12,31,6.57,6.57,0,0,1,31.65,37.63Z"/></svg>