<svg xmlns="http://www.w3.org/2000/svg" viewBox="0 0 100 100"><defs><style>.a{fill:#e6e7e8;}.b{fill:none;}.c{fill:#21409a;}.d{fill:#ec008c;}</style></defs><path class="a" d="M26.72,83.4A47.22,47.22,0,0,1,55.48,3c-1.55-.15-3.1-.23-4.64-.23a47.23,47.23,0,0,0,0,94.46c1.55,0,3.09-.08,4.62-.22A46.94,46.94,0,0,1,26.72,83.4Z"/><path class="b" d="M39,61.9a16.84,16.84,0,1,0,0-23.81A16.83,16.83,0,0,0,39,61.9Z"/><path class="b" d="M17.47,83.42A47.26,47.26,0,0,0,96,64a13.69,13.69,0,0,1-10.06-12.1,17.6,17.6,0,0,1-5.78-27.72h0A13.63,13.63,0,0,1,80,20.84H76.85a1.39,1.39,0,0,1,0-2.78h3.68a13.65,13.65,0,0,1,1.59-3.48A47,47,0,0,0,57.92,3.3a47.9,47.9,0,0,0-7.08-.53,47.39,47.39,0,0,0-18.4,3.75,7,7,0,0,1-1.16,8.33L17.51,28.62a2.26,2.26,0,1,0,3.2,3.19L31.88,20.64l0,0A5,5,0,1,1,39,27.76l-7.73,7.73a2.26,2.26,0,1,0,3.2,3.2L37,36.14h0a19.65,19.65,0,1,1-4.08,6,5,5,0,0,1-3.63-8.59L37,25.8a2.26,2.26,0,0,0-3.19-3.2L22.67,33.77a5,5,0,1,1-7.12-7.11L29.32,12.89a4.22,4.22,0,0,0,.59-5.2A47.2,47.2,0,0,0,17.47,83.42ZM47.82,13.2H43.24a1.39,1.39,0,1,1,0-2.77h4.58a1.39,1.39,0,1,1,0,2.77ZM53,26.32a1.39,1.39,0,1,1-2.77,0V21.74a1.39,1.39,0,0,1,2.77,0ZM56,7.8a1.38,1.38,0,0,1,2,0l2.29,2.29a1.39,1.39,0,0,1-2,2L56,9.74A1.38,1.38,0,0,1,56,7.8Zm1.12,8.59A1.38,1.38,0,0,1,58.52,15h6.11a1.39,1.39,0,0,1,0,2.77H58.52A1.39,1.39,0,0,1,57.13,16.39Zm12.3,12.44-3.06,3.06,0,0a1.39,1.39,0,1,1-1.93-2l3.06-3.06,0,0a1.39,1.39,0,0,1,1.94,2Zm14.15,51a1.39,1.39,0,1,1-2.77,0V73.68a1.39,1.39,0,0,1,2.77,0Zm5.49-15.9a1.39,1.39,0,0,1,0,2.78H84.49a1.39,1.39,0,1,1,0-2.78Zm-10.15-5.7,3.72-3.71a1.39,1.39,0,1,1,2,2l-3.72,3.71,0,0a1.39,1.39,0,0,1-1.93-2Zm-5.34-8.4,1.52-1.53a1.39,1.39,0,1,1,2,2l-1.52,1.53,0,0a1.38,1.38,0,1,1-1.93-2Z"/><path class="c" d="M29.32,12.89,15.55,26.66a5,5,0,1,0,7.12,7.11L33.84,22.6A2.26,2.26,0,0,1,37,25.8L29.3,33.53a5,5,0,0,0,3.63,8.59,19.34,19.34,0,0,1,4.08-6l-2.55,2.55a2.26,2.26,0,1,1-3.2-3.2L39,27.76a5,5,0,1,0-7.07-7.16l0,0L20.71,31.81a2.26,2.26,0,1,1-3.2-3.19L31.28,14.85a7,7,0,0,0,1.16-8.33c-.85.36-1.69.75-2.53,1.17A4.22,4.22,0,0,1,29.32,12.89Z"/><path class="c" d="M66,16.39A1.38,1.38,0,0,0,64.63,15H58.52a1.39,1.39,0,1,0,0,2.77h6.11A1.38,1.38,0,0,0,66,16.39Z"/><path class="c" d="M80.85,60.18l0,0,3.72-3.71a1.39,1.39,0,1,0-2-2l-3.72,3.71a1.39,1.39,0,0,0,1.93,2Z"/><path class="c" d="M47.82,10.43H43.24a1.39,1.39,0,1,0,0,2.77h4.58a1.39,1.39,0,1,0,0-2.77Z"/><path class="c" d="M51.64,20.36a1.38,1.38,0,0,0-1.38,1.38v4.58a1.39,1.39,0,1,0,2.77,0V21.74A1.38,1.38,0,0,0,51.64,20.36Z"/><path class="c" d="M67.49,26.85l0,0-3.06,3.06a1.39,1.39,0,1,0,1.93,2l0,0,3.06-3.06a1.39,1.39,0,0,0-1.94-2Z"/><path class="c" d="M75.46,19.45a1.39,1.39,0,0,0,1.39,1.39H80a14.61,14.61,0,0,1,.5-2.78H76.85A1.39,1.39,0,0,0,75.46,19.45Z"/><path class="c" d="M82.19,72.3a1.38,1.38,0,0,0-1.38,1.38v6.11a1.39,1.39,0,1,0,2.77,0V73.68A1.38,1.38,0,0,0,82.19,72.3Z"/><path class="c" d="M83.1,65.28a1.39,1.39,0,0,0,1.39,1.39h4.58a1.39,1.39,0,0,0,0-2.78H84.49A1.39,1.39,0,0,0,83.1,65.28Z"/><path class="c" d="M75.51,51.77l0,0,1.52-1.53a1.39,1.39,0,1,0-2-2l-1.52,1.53a1.38,1.38,0,1,0,1.93,2Z"/><path class="c" d="M59.28,12.43a1.39,1.39,0,0,0,1-2.36L58,7.78a1.39,1.39,0,0,0-2,2L58.3,12A1.38,1.38,0,0,0,59.28,12.43Z"/><path class="d" d="M5.58,71.16a50,50,0,0,0,93.51-7.88,1.39,1.39,0,0,0-1-1.7,1,1,0,0,0-.17,0,10.91,10.91,0,0,1-9.28-10.63,1.37,1.37,0,0,0-.88-1.27,14.82,14.82,0,0,1-5.15-24.1A1.38,1.38,0,0,0,83,24.28a10.89,10.89,0,0,1,2-9,1.38,1.38,0,0,0-.15-1.86A50,50,0,0,0,5.58,71.16ZM17.45,16.62A47,47,0,0,1,29.91,7.69a4,4,0,0,0-.59-.77,1.37,1.37,0,0,1,0-1.93,1.39,1.39,0,0,1,2,0,6.66,6.66,0,0,1,1.16,1.56,47.39,47.39,0,0,1,18.4-3.75,47.9,47.9,0,0,1,7.08.53,47,47,0,0,1,24.2,11.28,13.65,13.65,0,0,0-1.59,3.48h.14a1.39,1.39,0,0,1,0,2.78H80a13.63,13.63,0,0,0,.13,3.31h0a17.6,17.6,0,0,0,5.78,27.72A13.69,13.69,0,0,0,96,64,47.24,47.24,0,1,1,17.45,16.62Z"/><path class="d" d="M31.28,5a1.39,1.39,0,0,0-2,0,1.37,1.37,0,0,0,0,1.93,4,4,0,0,1,.59.77c.84-.42,1.68-.81,2.53-1.17A6.66,6.66,0,0,0,31.28,5Z"/><path class="d" d="M80.67,20.84a1.39,1.39,0,0,0,0-2.78h-.14a14.61,14.61,0,0,0-.5,2.78Z"/><path class="d" d="M38.93,36.13a1.39,1.39,0,0,1,0,2l-2.56,2.56,0,0a5,5,0,0,1-3.46,1.45,19.59,19.59,0,1,0,4.08-6h0A1.4,1.4,0,0,1,38.93,36.13Zm23.86,2a16.84,16.84,0,1,1-23.8,0A16.88,16.88,0,0,1,62.79,38.09Z"/><path class="d" d="M36.39,40.67l0,0L39,38.09a1.39,1.39,0,0,0-2-2h0a19.34,19.34,0,0,0-4.08,6A5,5,0,0,0,36.39,40.67Z"/></svg>