<svg xmlns="http://www.w3.org/2000/svg" viewBox="0 0 100 100"><defs><style>.a{fill:#e6e7e8;}.b{fill:none;}.c{fill:#21409a;}.d{fill:#ec008c;}</style></defs><path class="a" d="M20.94,50.72a18.69,18.69,0,0,1,8.22-15.47,17.75,17.75,0,0,1,8.37-23.66c.34-.16.7-.32,1-.46A17.75,17.75,0,0,0,16,35.25,18.67,18.67,0,0,0,26.43,69.39H39.61A18.67,18.67,0,0,1,20.94,50.72Z"/><path class="b" d="M84.56,35a1.88,1.88,0,0,1-1.22-1.76v-.1A25.87,25.87,0,0,0,41,13.15a1.9,1.9,0,0,1-2,.23,15.68,15.68,0,0,0-7-1.63A15.89,15.89,0,0,0,16.14,27.6a15.72,15.72,0,0,0,1.54,6.84A1.89,1.89,0,0,1,17,36.81,16.78,16.78,0,0,0,26.43,67.5H78.75A16.76,16.76,0,0,0,95.48,50.72,17,17,0,0,0,84.56,35Z"/><path class="c" d="M87.49,32.14l-.4-.19,0-.44A29.65,29.65,0,0,0,39.91,9.25l-.34.24-.38-.15A19.45,19.45,0,0,0,32,8H32A19.64,19.64,0,0,0,13.48,34.13l.17.49-.4.33c-.47.4-.92.81-1.35,1.24A20.55,20.55,0,0,0,26.43,71.28H78.7A20.55,20.55,0,0,0,99.25,50.74,20.78,20.78,0,0,0,87.49,32.14Zm3.08,30.45A16.76,16.76,0,0,1,78.75,67.5H26.43A16.78,16.78,0,0,1,17,36.81a1.89,1.89,0,0,0,.64-2.37,15.72,15.72,0,0,1-1.54-6.84A15.89,15.89,0,0,1,32,11.75a15.68,15.68,0,0,1,7,1.63,1.9,1.9,0,0,0,2-.23,25.87,25.87,0,0,1,42.31,20v.1A1.88,1.88,0,0,0,84.56,35a16.79,16.79,0,0,1,6,27.6Z"/><path class="d" d="M6.64,90.59a1.9,1.9,0,0,0-2.67,0H4L1.3,93.25A1.89,1.89,0,1,0,4,95.92l2.67-2.67A1.89,1.89,0,0,0,6.64,90.59Z"/><path class="d" d="M17.3,94.59a1.88,1.88,0,0,0,3.21,1.33l2.68-2.67a1.89,1.89,0,0,0-2.67-2.67l-2.67,2.67A1.87,1.87,0,0,0,17.3,94.59Z"/><path class="d" d="M34.4,95.92a1.89,1.89,0,0,0,2.67,0l2.66-2.67a1.87,1.87,0,0,0,0-2.66,1.88,1.88,0,0,0-2.66,0h0L34.4,93.25A1.88,1.88,0,0,0,34.4,95.92Z"/><path class="d" d="M51,95.92a1.87,1.87,0,0,0,2.66,0l2.67-2.67a1.88,1.88,0,0,0-2.66-2.67L51,93.25A1.88,1.88,0,0,0,51,95.92Z"/><path class="d" d="M67,95.1a1.92,1.92,0,0,0,1.34,1.35,1.9,1.9,0,0,0,1.84-.51l2.69-2.69A1.88,1.88,0,0,0,72,90.07a1.84,1.84,0,0,0-.47-.06,1.89,1.89,0,0,0-1.36.57h0L67.5,93.25A1.9,1.9,0,0,0,67,95.1Z"/><path class="d" d="M18.28,78.56A1.84,1.84,0,0,0,17,78a1.87,1.87,0,0,0-1.33.55L13,81.23a1.89,1.89,0,0,0,1.34,3.22h0a1.9,1.9,0,0,0,1.33-.55l2.67-2.67a1.9,1.9,0,0,0,0-2.67Z"/><path class="d" d="M33.5,78a1.87,1.87,0,0,0-1.33.55L29.5,81.23a1.93,1.93,0,0,0-.57,1.34,1.89,1.89,0,0,0,3.21,1.36l2.7-2.7a1.9,1.9,0,0,0,0-2.67A1.88,1.88,0,0,0,33.5,78Z"/><path class="d" d="M50.05,78a1.85,1.85,0,0,0-1.33.55l-2.67,2.67a1.89,1.89,0,0,0,2.67,2.67l2.66-2.67a1.87,1.87,0,0,0,0-2.67A1.85,1.85,0,0,0,50.05,78Z"/><path class="d" d="M66.6,78a1.85,1.85,0,0,0-1.33.55L62.6,81.23a1.9,1.9,0,0,0,0,2.67,1.93,1.93,0,0,0,2.66,0l2.67-2.67a1.88,1.88,0,0,0,0-2.67A1.85,1.85,0,0,0,66.6,78Z"/></svg>