<svg xmlns="http://www.w3.org/2000/svg" viewBox="0 0 100 100"><defs><style>.a{fill:#e6e7e8;}.b{fill:none;}.c{fill:#21409a;}.d{fill:#ec008c;}</style></defs><path class="a" d="M22.57,44.58V37.4h-6.1v7.18a13,13,0,0,0,13,12.94h6.14a13,13,0,0,1-13-12.9Z"/><path class="b" d="M58.46,58.74H41.54s0,.06,0,.08l-8.7,15.76H67.18l-8.7-15.76S58.47,58.74,58.46,58.74Z"/><rect class="b" x="32.32" y="25.21" width="3.45" height="3.45"/><path class="b" d="M70.54,56.3A11.74,11.74,0,0,0,82.3,44.58v-.47H31.92a1.22,1.22,0,0,1,0-2.44H82.3V38.62H17.69v3.05h9.15a1.22,1.22,0,1,1,0,2.44H17.69v.47h0A11.76,11.76,0,0,0,29.48,56.3H70.54Zm-34.76-.81h-6.3a10.94,10.94,0,0,1-10.16-6.8v0A1.19,1.19,0,0,1,20,47.12h0a1.21,1.21,0,0,1,1.59.65,8.47,8.47,0,0,0,7.9,5.28h6.3a1.22,1.22,0,0,1,0,2.44Zm5.69,0H39.23a1.22,1.22,0,0,1,0-2.44h2.24a1.22,1.22,0,0,1,0,2.44Z"/><rect class="b" x="54.67" y="25.21" width="3.45" height="3.45"/><rect class="b" x="17.29" y="25.01" width="1.83" height="3.66"/><path class="b" d="M2.44,26.84a1.82,1.82,0,0,0,1.82,1.83H14.85V25H4.26A1.82,1.82,0,0,0,2.44,26.84Z"/><rect class="b" x="43.5" y="25.21" width="3.45" height="3.45"/><rect class="b" x="53.05" y="12.82" width="3.45" height="3.45"/><rect class="b" x="64.22" y="12.82" width="3.45" height="3.45"/><rect class="b" x="80.88" y="12.82" width="1.83" height="3.66"/><rect class="b" x="41.87" y="12.82" width="3.45" height="3.45"/><path class="b" d="M95.73,12.82H85.15v3.66H95.73a1.83,1.83,0,0,0,0-3.66Z"/><path class="c" d="M84.74,44.59h0V37.46a1.27,1.27,0,0,0-1.22-1.28h-67a1.27,1.27,0,0,0-1.21,1.28v7.12A14.18,14.18,0,0,0,29.47,58.74h9.29L23.08,87.18H18.91a1.22,1.22,0,1,0,0,2.44h10a1.22,1.22,0,1,0,0-2.44h-3L31.47,77H68.52l5.62,10.16h-3a1.22,1.22,0,0,0,0,2.44h10a1.22,1.22,0,1,0,0-2.44H76.92L61.24,58.74h9.28A14.19,14.19,0,0,0,84.74,44.59Zm-17.56,30H32.82l8.7-15.76s0-.08,0-.08H58.46s0,.06,0,.08ZM29.48,56.3A11.76,11.76,0,0,1,17.69,44.59h0v-.47h9.15a1.22,1.22,0,1,0,0-2.44H17.69V38.62H82.3v3.05H31.92a1.22,1.22,0,0,0,0,2.44H82.3v.47A11.74,11.74,0,0,1,70.54,56.3H29.48Z"/><path class="c" d="M35.78,53.05h-6.3a8.47,8.47,0,0,1-7.9-5.28A1.21,1.21,0,0,0,20,47.12h0a1.19,1.19,0,0,0-.68,1.55v0a10.94,10.94,0,0,0,10.16,6.8h6.3a1.22,1.22,0,0,0,0-2.44Z"/><path class="c" d="M41.47,53.05H39.23a1.22,1.22,0,0,0,0,2.44h2.24a1.22,1.22,0,0,0,0-2.44Z"/><path class="d" d="M95.73,10.38H79.6a1.17,1.17,0,0,0-1.16,1.18v1.87H70.11V11.64a1.32,1.32,0,0,0-1.3-1.26H62.92a1.19,1.19,0,0,0-1.14,1.26v1.79H58.94V11.64a1.26,1.26,0,0,0-1.23-1.26H51.82a1.24,1.24,0,0,0-1.21,1.26v1.79H47.76V11.64a1.2,1.2,0,0,0-1.15-1.26H40.72a1.31,1.31,0,0,0-1.29,1.26v1.79H31.88a1.22,1.22,0,1,0,0,2.44h7.55v1.66a1.24,1.24,0,0,0,1.29,1.18h5.89a1.12,1.12,0,0,0,1.15-1.1.22.22,0,0,0,0-.08V15.87h2.85v1.66a1.17,1.17,0,0,0,1.17,1.18h5.93a1.19,1.19,0,0,0,1.23-1.15V15.87h2.84v1.66a1.12,1.12,0,0,0,1,1.18h6a1.25,1.25,0,0,0,1.3-1.18V15.87h8.33v1.79a1.19,1.19,0,0,0,1.16,1.25H95.73a4.27,4.27,0,1,0,0-8.53Zm-50.4,5.89H41.87V12.82h3.46Zm11.17,0H53.05V12.82H56.5Zm11.17,0H64.22V12.82h3.45Zm15,.21H80.88V12.82h1.83Zm13,0H85.15V12.82H95.73a1.83,1.83,0,0,1,0,3.66Z"/><path class="d" d="M20.44,22.57H4.26a4.27,4.27,0,0,0,0,8.53H20.4a1.19,1.19,0,0,0,1.15-1.25V28.06h8.33v1.75a1.35,1.35,0,0,0,1.3,1.29h5.9a1.21,1.21,0,0,0,1.13-1.29V28.06h2.85v1.75a1.29,1.29,0,0,0,1.22,1.29h5.9a1.27,1.27,0,0,0,1.21-1.29V28.06h2.84v1.75a1.22,1.22,0,0,0,1.16,1.29h5.89a1.33,1.33,0,0,0,1.28-1.29V28.06h7.56a1.22,1.22,0,0,0,0-2.44H60.56v-1.7a1.22,1.22,0,0,0-1.28-1.15H53.39a1.12,1.12,0,0,0-1.16,1.05v1.8H49.39v-1.7a1.15,1.15,0,0,0-1.16-1.15H42.28a1.17,1.17,0,0,0-1.22,1.1v1.75H38.21v-1.7a1.09,1.09,0,0,0-1-1.15h-6a1.24,1.24,0,0,0-1.3,1.15v1.7H21.55V23.79A1.16,1.16,0,0,0,20.44,22.57Zm-5.59,6.1H4.26a1.83,1.83,0,0,1,0-3.66H14.85Zm4.27,0H17.29V25h1.83Zm35.55-3.46h3.46v3.46H54.67Zm-11.17,0H47v3.46H43.5Zm-11.18,0h3.46v3.46H32.32Z"/></svg>