<svg xmlns="http://www.w3.org/2000/svg" viewBox="0 0 100 100"><defs><style>.a{fill:#e6e7e8;}.b{fill:none;}.c{fill:#21409a;}.d{fill:#ec008c;}</style></defs><path class="a" d="M25.63,50a31.24,31.24,0,0,1,27.78-31A31.22,31.22,0,0,0,46.51,81a31.42,31.42,0,0,0,6.9,0A31.24,31.24,0,0,1,25.63,50Z"/><path class="b" d="M50,20a30,30,0,1,0,30,30A30,30,0,0,0,50,20ZM38.9,26.08c.58-.27,1.18-.53,1.78-.75a1.25,1.25,0,1,1,.89,2.34c-.55.21-1.09.44-1.62.68a1.18,1.18,0,0,1-.53.12,1.25,1.25,0,0,1-.52-2.39ZM26.14,50a1.26,1.26,0,1,1-2.51,0A26.32,26.32,0,0,1,35.3,28.1a1.25,1.25,0,0,1,1.4,2.08A23.82,23.82,0,0,0,26.14,50Zm38,14.41a20.24,20.24,0,1,1-28.4-28.84l.12-.1a1.25,1.25,0,0,1,1.75.24h0a1.24,1.24,0,0,1-.12,1.64,17.81,17.81,0,1,0,5.54-3.7,1.26,1.26,0,0,1-1.5-.39h0a1.82,1.82,0,0,1-.15-.27,1.24,1.24,0,0,1,.66-1.64,20.17,20.17,0,0,1,9-1.58h0A20.24,20.24,0,0,1,64.17,64.38Z"/><polygon class="b" points="4.04 57.71 11.91 57.71 11.57 51.85 4.37 51.85 4.04 57.71"/><path class="b" d="M2.84,78.54a5,5,0,0,0,1.39,3.79l.21.21a5.14,5.14,0,0,0,7.27-.21,5,5,0,0,0,1.4-3.79L12.05,60.21H3.89Z"/><path class="b" d="M88.1,58.54l-1.46,22A5.07,5.07,0,0,0,88,84.37a1.36,1.36,0,0,0,.24.24,5.08,5.08,0,0,0,8.54-4.08l-1.46-22Z"/><path class="b" d="M96.52,54.15H86.9a.94.94,0,1,0,0,1.88h9.62a.94.94,0,0,0,0-1.88Z"/><path class="b" d="M94.9,20.68a6.3,6.3,0,0,0-2.3-4.82V51.64h2.3Z"/><path class="b" d="M90.09,14.37A7.25,7.25,0,0,0,88.63,14V51.64h1.46Z"/><path class="c" d="M82.44,50A32.48,32.48,0,1,0,50,82.45,32.52,32.52,0,0,0,82.44,50ZM50,79.94a30,30,0,1,1,30-30A30,30,0,0,1,50,79.94Z"/><path class="c" d="M39.42,28.47a1.18,1.18,0,0,0,.53-.12c.53-.24,1.07-.47,1.62-.68a1.25,1.25,0,1,0-.89-2.34c-.6.22-1.2.48-1.78.75a1.25,1.25,0,0,0,.52,2.39Z"/><path class="c" d="M36.7,30.18a1.25,1.25,0,0,0-1.4-2.08A26.32,26.32,0,0,0,23.63,50a1.26,1.26,0,1,0,2.51,0A23.82,23.82,0,0,1,36.7,30.18Z"/><path class="c" d="M51,29.75h0a20.17,20.17,0,0,0-9,1.58A1.24,1.24,0,0,0,41.41,33a1.82,1.82,0,0,0,.15.27h0a1.26,1.26,0,0,0,1.5.39,17.78,17.78,0,1,1-5.54,3.7,1.24,1.24,0,0,0,.12-1.64h0a1.25,1.25,0,0,0-1.75-.24l-.12.1A20.24,20.24,0,1,0,51,29.75Z"/><path class="d" d="M6.69,34.54v14.8H3.19a1.22,1.22,0,0,0-1.25,1.15L.33,78.38a7.65,7.65,0,0,0,7.2,8.06l.44,0a7.66,7.66,0,0,0,7.65-7.66c0-.15,0-.29,0-.44L14,50.49a1.24,1.24,0,0,0-1.26-1.15H9.2V34.54a8.23,8.23,0,0,0,6.9-7.94v-12a1.26,1.26,0,0,0-1.26-1.26h0a1.25,1.25,0,0,0-1.25,1.26v12A5.57,5.57,0,0,1,9.2,32V14.65a1.26,1.26,0,1,0-2.51,0V32A5.38,5.38,0,0,1,2.51,26.6v-12a1.26,1.26,0,1,0-2.51,0v12A8,8,0,0,0,6.69,34.54Zm6.42,44a5,5,0,0,1-1.4,3.79,5.14,5.14,0,0,1-7.27.21l-.21-.21a5,5,0,0,1-1.39-3.79L3.89,60.21h8.16ZM11.57,51.85l.34,5.86H4l.33-5.86Z"/><path class="d" d="M97.41,51.8V20.68c0-5-4.46-9.17-9.69-9.17h-.41a1.14,1.14,0,0,0-1.19,1.11V51.8a3.3,3.3,0,0,0-2.64,3.34,3.45,3.45,0,0,0,2.14,3.21l-1.48,22a7.59,7.59,0,0,0,15.15,1,8.68,8.68,0,0,0,0-1l-1.46-22a3.45,3.45,0,0,0-.42-6.55ZM92.6,15.86a6.3,6.3,0,0,1,2.3,4.82v31H92.6Zm-4-1.85a7.25,7.25,0,0,1,1.46.36V51.64H88.63Zm6.79,70.36a5.08,5.08,0,0,1-7.18.24,1.36,1.36,0,0,1-.24-.24,5.07,5.07,0,0,1-1.36-3.84l1.46-22h7.22l1.46,22A5.07,5.07,0,0,1,95.42,84.37ZM96.52,56H86.9a.94.94,0,1,1,0-1.88h9.62a.94.94,0,0,1,0,1.88Z"/></svg>