<svg xmlns="http://www.w3.org/2000/svg" viewBox="0 0 100 100"><defs><style>.a{fill:#e6e7e8;}.b{fill:none;}.c{fill:#21409a;}.d{fill:#ec008c;}</style></defs><polygon class="a" points="12.29 64.44 8.63 34.4 3.44 34.4 7.67 69.06 24.85 69.06 23.44 64.44 12.29 64.44"/><path class="a" d="M89.91,33.91,81.4,38.5l-7,4.83a1.61,1.61,0,0,1-1.33.91l-7.73,5.31A19.52,19.52,0,0,1,53.39,51.2L36.13,48a8,8,0,0,0-5.84.79l-.08,0-6.82,4.31L25,58.27l7.58-4.79.07,0a8,8,0,0,1,5.84-.79L55.7,55.82a19.52,19.52,0,0,0,11.92-1.65L96,34.66A5.31,5.31,0,0,0,89.91,33.91Z"/><path class="b" d="M24.85,69.06,14.28,34.4H3.44L7.67,69.06Zm-9.3-9.4a4.39,4.39,0,1,1-4.39,4.39A4.39,4.39,0,0,1,15.55,59.66Z"/><path class="b" d="M15.55,65.2a1.16,1.16,0,0,0,0-2.31,1.16,1.16,0,1,0,0,2.31Z"/><path class="b" d="M73.82,38.91l.34-.18,10.94-5.9a3.92,3.92,0,0,0-4.1-.71l-8.42,4.53A10,10,0,0,1,73.82,38.91Z"/><path class="b" d="M32.6,53.43a8,8,0,0,1,5.84-.79L55.7,55.82a19.52,19.52,0,0,0,11.92-1.65L96,34.66a5.31,5.31,0,0,0-6.12-.75L75.68,41.58l-1.16.62c0,.14,0,.28,0,.43a1.63,1.63,0,0,1-1.62,1.62h-.07L63,43.8a46.25,46.25,0,0,0-8.56.4A1.62,1.62,0,0,1,54,41a49.91,49.91,0,0,1,9.14-.42l7.92.36a7,7,0,0,0-6.73-5.25H52.84a15.4,15.4,0,0,1-6.67-1.52L45,33.58a17.49,17.49,0,0,0-18.13,1.74L24,37.83a12.89,12.89,0,0,1-4.52,2.61L25,58.27l7.57-4.79Z"/><path class="b" d="M75.23,31.55a6.27,6.27,0,0,0-5.83.22l0,0-2,1.1a10,10,0,0,1,2.82,1.38Z"/><path class="c" d="M15.55,68.44a4.39,4.39,0,1,0-4.39-4.39A4.4,4.4,0,0,0,15.55,68.44Zm0-5.55a1.16,1.16,0,1,1-1.16,1.16A1.15,1.15,0,0,1,15.55,62.89Z"/><path class="c" d="M0,33,4.63,70.87A1.62,1.62,0,0,0,6.24,72.3H27a1.63,1.63,0,0,0,1.62-1.62,1.84,1.84,0,0,0-.07-.47l-2.67-8.73-1,.66a1.62,1.62,0,0,1-1.73-2.74L25,58.27,19.51,40.44a13.94,13.94,0,0,1-1.69.43,1.62,1.62,0,0,1-.59-3.18,11.81,11.81,0,0,0,1.33-.35l-1.53-5a1.63,1.63,0,0,0-1.55-1.15H1.62A1.62,1.62,0,0,0,0,32.78,1.34,1.34,0,0,0,0,33ZM14.28,34.4,24.85,69.06H7.67L3.44,34.4Z"/><path class="d" d="M24,37.83l2.82-2.51A17.49,17.49,0,0,1,45,33.58l1.19.58a15.4,15.4,0,0,0,6.67,1.52H64.35a7,7,0,0,1,6.73,5.25l-7.92-.36A49.91,49.91,0,0,0,54,41a1.62,1.62,0,0,0,.44,3.21A46.25,46.25,0,0,1,63,43.8l9.82.44h.07a1.63,1.63,0,0,0,1.62-1.62c0-.15,0-.29,0-.43l1.16-.62,14.23-7.67a5.31,5.31,0,0,1,6.12.75L67.62,54.17A19.52,19.52,0,0,1,55.7,55.82L38.44,52.64a8,8,0,0,0-5.84.79l-.08,0L25,58.27l1,3.21,8.29-5.24a4.77,4.77,0,0,1,3.49-.45l.11,0L55.12,59a22.76,22.76,0,0,0,14-2,1.32,1.32,0,0,0,.2-.12L99.3,36.35a1.63,1.63,0,0,0,.47-2.17,8.55,8.55,0,0,0-11.39-3.12l-.28.15a7.34,7.34,0,0,0-8.58-2l0,0-1,.54A9.48,9.48,0,0,0,67.8,29l-6.41,3.49H52.84a12.13,12.13,0,0,1-5.26-1.2l-1.19-.58a20.71,20.71,0,0,0-21.54,2.1l-.1.09-2.87,2.55a9.81,9.81,0,0,1-3.32,1.93l1,3.1A12.89,12.89,0,0,0,24,37.83Zm57-5.71a3.92,3.92,0,0,1,4.1.71l-10.94,5.9-.34.18a10,10,0,0,0-1.24-2.26ZM69.36,31.8l0,0a6.27,6.27,0,0,1,5.83-.22l-5.07,2.73a10,10,0,0,0-2.82-1.38Z"/><path class="c" d="M16,39.58a1.62,1.62,0,0,0,1.87,1.29,13.94,13.94,0,0,0,1.69-.43l-1-3.1a11.81,11.81,0,0,1-1.33.35A1.6,1.6,0,0,0,16,39.58Z"/><path class="c" d="M23.15,59.4a1.62,1.62,0,0,0,1.73,2.74l1-.66-1-3.21Z"/></svg>