<svg xmlns="http://www.w3.org/2000/svg" viewBox="0 0 100 100"><defs><style>.a{fill:#e6e7e8;}.b{fill:none;}.c{fill:#21409a;}.d{fill:#ec008c;}</style></defs><path class="a" d="M16.26,90.32V40.22H9.92V28.44A8.42,8.42,0,0,1,18.34,20H9.92A8.42,8.42,0,0,0,1.5,28.44V40.22H7.84v50.1a8.42,8.42,0,0,0,8.42,8.42h8.42A8.42,8.42,0,0,1,16.26,90.32Z"/><path class="b" d="M38.73,68.65A1.29,1.29,0,0,1,37.6,68L35,62.83,29.37,64a1.3,1.3,0,0,1-.8-.1A1.27,1.27,0,0,1,28,62.18l4.24-8.74a36.71,36.71,0,0,1-8.38,2.14,1.25,1.25,0,0,1-1.39-1,70.33,70.33,0,0,1-1.36-13.1H9.1V90.32a7.16,7.16,0,0,0,7.16,7.15H39.42v-29a1.24,1.24,0,0,1-.68.21ZM17.58,89a1.27,1.27,0,0,1-2.53,0V67.75a1.27,1.27,0,1,1,2.53,0Zm0-25.08a1.27,1.27,0,0,1-2.53,0V62.42a1.27,1.27,0,0,1,2.53,0Z"/><path class="b" d="M76.15,55.58a36.76,36.76,0,0,1-8.37-2.14L72,62.18a1.3,1.3,0,0,1,.1.8,1.26,1.26,0,0,1-1.49,1L65,62.83,62.39,68a1.26,1.26,0,0,1-1.12.69h0a1.24,1.24,0,0,1-.68-.21V76a1.27,1.27,0,0,1-2.53,0V63.64l-7.22-14.9A2.88,2.88,0,0,1,50,48.3a2.88,2.88,0,0,1-.83.44L42,63.64V97.47h16.1V82.27a1.27,1.27,0,0,1,2.53,0v15.2H83.74a7.16,7.16,0,0,0,7.16-7.15V41.48h-12a70.33,70.33,0,0,1-1.36,13.1A1.25,1.25,0,0,1,76.15,55.58Z"/><path class="b" d="M43.84,47.4a82.68,82.68,0,0,1-8.07,4.51L31.37,61l4.08-.83a1.26,1.26,0,0,1,1.38.67l1.88,3.71,7.56-15.61A2.93,2.93,0,0,1,43.84,47.4Z"/><path class="b" d="M76.4,40.24a68.12,68.12,0,0,0-1.1-11.67c-7,1.17-13.13,4.68-18.8,8.27v.6l3.07-.91h0a1.26,1.26,0,0,1,.7,2.43L56.5,40.07v1.27l5.06,1.16A1.26,1.26,0,0,1,61,45l-4.5-1v.7a80.94,80.94,0,0,0,9.22,5.19l0,0a.2.2,0,0,1,.08,0l0,0a36.88,36.88,0,0,0,9.42,3,67.9,67.9,0,0,0,1.1-12.16v-.5Z"/><path class="b" d="M90.08,21.29H9.92a7.16,7.16,0,0,0-7.16,7.15V39H21.12A69.78,69.78,0,0,1,22.45,26.9a1.27,1.27,0,0,1,1.4-1,36.18,36.18,0,0,1,6.72,1.55,1.26,1.26,0,0,1-.8,2.4,33,33,0,0,0-5.07-1.27,68.1,68.1,0,0,0-1.1,11.66v.51A67.9,67.9,0,0,0,24.7,52.9a36.81,36.81,0,0,0,9.41-3l.1,0,.06,0a85,85,0,0,0,9.23-5.2v-.7L39,45h0a1.27,1.27,0,1,1-.52-2.48l5.06-1.15V40.07L39.72,39h0a1.26,1.26,0,0,1,.72-2.42l3.07.91v-.6a86.88,86.88,0,0,0-8.82-5,1.27,1.27,0,0,1,1.08-2.29A80.85,80.85,0,0,1,43.64,34a2.9,2.9,0,0,1,2.76-2h1.7a3.13,3.13,0,0,1,1.9.64,3.13,3.13,0,0,1,1.9-.64h1.7a2.9,2.9,0,0,1,2.76,2c5.9-3.67,12.3-7.1,19.79-8.06a1.26,1.26,0,0,1,1.4,1A69.78,69.78,0,0,1,78.88,39H97.24V28.44A7.16,7.16,0,0,0,90.08,21.29Z"/><path class="b" d="M56.16,47.4a2.93,2.93,0,0,1-2.43,1.53l7.56,15.61,1.88-3.71a1.26,1.26,0,0,1,1.38-.67l4.08.83-4.4-9.08A82.68,82.68,0,0,1,56.16,47.4Z"/><path class="b" d="M54,46V34.82a.37.37,0,0,0-.37-.37H51.9a.65.65,0,0,0-.64.64V45.77a.64.64,0,0,0,.57.63H53.6A.37.37,0,0,0,54,46Z"/><path class="b" d="M48.1,34.45H46.4a.37.37,0,0,0-.37.37V46a.37.37,0,0,0,.37.37h1.76a.65.65,0,0,0,.58-.63V35.09A.65.65,0,0,0,48.1,34.45Z"/><path class="c" d="M90.08,18.76H52.36L69,2.16A1.27,1.27,0,0,0,67.18.37L50,17.55,32.82.37A1.27,1.27,0,0,0,31,2.16l16.61,16.6H9.92A9.69,9.69,0,0,0,.24,28.44V40.22A1.25,1.25,0,0,0,1.5,41.48H6.58V90.32A9.69,9.69,0,0,0,16.26,100H83.74a9.69,9.69,0,0,0,9.68-9.68V41.48H98.5a1.25,1.25,0,0,0,1.26-1.26V28.44A9.69,9.69,0,0,0,90.08,18.76ZM97.24,39H78.88c0,.42,0,.83,0,1.25v.53c0,.25,0,.49,0,.74h12V90.32a7.16,7.16,0,0,1-7.16,7.15H60.58V82.27a1.27,1.27,0,0,0-2.53,0v15.2H42V63.64l-2.08,4.3a1.21,1.21,0,0,1-.45.5v29H16.26A7.16,7.16,0,0,1,9.1,90.32V41.48h12c0-.25,0-.49,0-.74s0-.36,0-.53c0-.42,0-.84,0-1.25H2.76V28.44a7.16,7.16,0,0,1,7.16-7.15H90.08a7.16,7.16,0,0,1,7.16,7.15Z"/><path class="c" d="M59.31,77.21A1.26,1.26,0,0,0,60.58,76V68.44a1.21,1.21,0,0,1-.45-.5l-2.08-4.3V76A1.26,1.26,0,0,0,59.31,77.21Z"/><path class="c" d="M16.32,61.16a1.27,1.27,0,0,0-1.27,1.26v1.45a1.27,1.27,0,0,0,2.53,0V62.42A1.27,1.27,0,0,0,16.32,61.16Z"/><path class="c" d="M16.32,66.48a1.27,1.27,0,0,0-1.27,1.27V89a1.27,1.27,0,0,0,2.53,0V67.75A1.27,1.27,0,0,0,16.32,66.48Z"/><path class="d" d="M76.15,25.89c-7.49,1-13.89,4.39-19.79,8.06a2.9,2.9,0,0,0-2.76-2H51.9a3.13,3.13,0,0,0-1.9.64,3.13,3.13,0,0,0-1.9-.64H46.4a2.9,2.9,0,0,0-2.76,2,80.85,80.85,0,0,0-7.88-4.4,1.27,1.27,0,0,0-1.08,2.29,86.88,86.88,0,0,1,8.82,5v.6l-3.07-.91A1.26,1.26,0,0,0,39.71,39h0l3.78,1.11v1.27l-5.06,1.15A1.27,1.27,0,1,0,39,45h0l4.5-1v.7a85,85,0,0,1-9.23,5.2l-.06,0-.1,0a36.81,36.81,0,0,1-9.41,3,67.9,67.9,0,0,1-1.1-12.16v-.51a68.1,68.1,0,0,1,1.1-11.66,33,33,0,0,1,5.07,1.27,1.26,1.26,0,0,0,.8-2.4,36.18,36.18,0,0,0-6.72-1.55,1.27,1.27,0,0,0-1.4,1A69.78,69.78,0,0,0,21.12,39h1.3v2.52H21.09a70.33,70.33,0,0,0,1.36,13.1,1.25,1.25,0,0,0,1.39,1,36.71,36.71,0,0,0,8.38-2.14L28,62.18a1.27,1.27,0,0,0,.59,1.69,1.3,1.3,0,0,0,.8.1L35,62.83,37.6,68a1.29,1.29,0,0,0,1.13.69h0a1.24,1.24,0,0,0,.68-.21V63.38H42v.26l7.22-14.9A2.88,2.88,0,0,0,50,48.3a2.88,2.88,0,0,0,.83.44l7.22,14.9v-.26h2.53v5.06a1.24,1.24,0,0,0,.68.21h0A1.26,1.26,0,0,0,62.39,68L65,62.83,70.63,64a1.26,1.26,0,0,0,1.49-1,1.3,1.3,0,0,0-.1-.8l-4.24-8.74a36.76,36.76,0,0,0,8.37,2.14,1.25,1.25,0,0,0,1.4-1,70.33,70.33,0,0,0,1.36-13.1H77.74V39h1.14A69.78,69.78,0,0,0,77.55,26.9,1.26,1.26,0,0,0,76.15,25.89ZM38.71,64.54l-1.88-3.71a1.26,1.26,0,0,0-1.38-.67L31.37,61l4.4-9.08a82.68,82.68,0,0,0,8.07-4.51,2.93,2.93,0,0,0,2.43,1.53Zm10-18.77a.65.65,0,0,1-.58.63H46.4A.37.37,0,0,1,46,46V34.82a.37.37,0,0,1,.37-.37h1.7a.65.65,0,0,1,.64.64Zm3.16.64h-.07a.64.64,0,0,1-.57-.63V35.09a.65.65,0,0,1,.64-.64h1.7a.37.37,0,0,1,.37.37V46a.37.37,0,0,1-.37.37ZM68.63,61l-4.08-.83a1.26,1.26,0,0,0-1.38.67l-1.88,3.71L53.73,48.93a2.93,2.93,0,0,0,2.43-1.53,82.68,82.68,0,0,0,8.07,4.51ZM75.3,52.9a36.88,36.88,0,0,1-9.42-3l0,0a.2.2,0,0,0-.08,0l0,0a80.94,80.94,0,0,1-9.22-5.19v-.7L61,45a1.26,1.26,0,0,0,.56-2.46L56.5,41.34V40.07L60.28,39a1.26,1.26,0,0,0-.7-2.43h0l-3.07.91v-.6c5.67-3.59,11.79-7.1,18.8-8.27a68.12,68.12,0,0,1,1.1,11.67h0v.5A67.9,67.9,0,0,1,75.3,52.9Z"/><path class="d" d="M39.42,63.38v5.06a1.21,1.21,0,0,0,.45-.5L42,63.64v-.26Z"/><path class="d" d="M77.74,41.48h1.17c0-.25,0-.49,0-.74v-.53c0-.42,0-.83,0-1.25H77.74Z"/><path class="d" d="M22.42,39h-1.3c0,.41,0,.83,0,1.25,0,.17,0,.35,0,.53s0,.49,0,.74h1.33Z"/><path class="d" d="M60.58,68.44V63.38H58.05v.26l2.08,4.3A1.21,1.21,0,0,0,60.58,68.44Z"/></svg>