<svg xmlns="http://www.w3.org/2000/svg" viewBox="0 0 100 100"><defs><style>.a{fill:#e6e7e8;}.b{fill:none;}.c{fill:#21409a;}.d{fill:#ec008c;}</style></defs><path class="a" d="M7,23.31l.11,0a3,3,0,0,0,.52.05,2.46,2.46,0,0,0,2.43-2A2.55,2.55,0,0,0,8.12,18.5,2.47,2.47,0,1,0,7,23.31Zm.61-2.47h0a.08.08,0,1,1-.09.06A.07.07,0,0,1,7.59,20.84Z"/><path class="a" d="M31.14,23.41a2.48,2.48,0,0,0-.52,4.9,2.24,2.24,0,0,0,.52.06,2.48,2.48,0,0,0,0-5Z"/><path class="a" d="M43.76,41.24h0a2.22,2.22,0,0,0,.51.06,2.45,2.45,0,0,0,2.42-2,2.55,2.55,0,0,0-1.91-2.93,2.47,2.47,0,0,0-1,4.83Zm.44-2.43h0a.07.07,0,0,1,.07-.06h0a.08.08,0,0,1,.06.1.09.09,0,0,1-.09.06.08.08,0,0,1-.06-.1Z"/><path class="a" d="M60,54.31a2.24,2.24,0,0,0,.52,0,2.45,2.45,0,1,0-.52,0Zm.44-2.43h0a.08.08,0,1,1,.15,0,.1.1,0,0,1,0,.05,0,0,0,0,1,0,0,.07.07,0,0,1-.06-.09Z"/><path class="a" d="M95.69,62A2.36,2.36,0,0,0,93.83,59h0a2.47,2.47,0,1,0-1,4.83,2.61,2.61,0,0,0,.48.05A2.4,2.4,0,0,0,95.69,62Zm-2.26-.5h0a.08.08,0,0,1-.09.06.07.07,0,0,1-.06-.09.07.07,0,0,1,.07-.06h0a.08.08,0,0,1,.06.09Z"/><path class="a" d="M61,74.3a3.05,3.05,0,0,0,.52,0,2.42,2.42,0,1,0-.52,0Zm.47-2.48,0,0h0a.1.1,0,0,1,0,0,.07.07,0,0,1,0,.06h0a.08.08,0,0,1-.09.06.1.1,0,0,1-.05,0A.08.08,0,0,1,61.43,71.82Z"/><path class="a" d="M94.31,80.91a2.47,2.47,0,1,0-3,2.42,3.05,3.05,0,0,0,.52,0A2.47,2.47,0,0,0,94.31,80.91ZM91.82,81a.1.1,0,0,1,0,0,0,0,0,0,1,0,0h0a.08.08,0,0,1,.07-.07h0a.08.08,0,1,1,0,.15Z"/><path class="a" d="M25.9,26a1.2,1.2,0,0,0,.25-2.37L13,20.82a1.2,1.2,0,0,0-.52,2.34h0L25.65,26Z"/><path class="a" d="M64.58,52.6a1.21,1.21,0,0,0,.74,1.53h0l22.39,7.34a1.19,1.19,0,0,0,.74-2.27L66.11,51.87A1.2,1.2,0,0,0,64.58,52.6Z"/><path class="a" d="M87.73,80.19A1.19,1.19,0,0,0,87,78.67l-19.9-6.81a1.19,1.19,0,0,0-.77,2.26l19.9,6.82A1.19,1.19,0,0,0,87.73,80.19Z"/><path class="a" d="M34.06,28.15A1.2,1.2,0,0,0,34,29.84l0,0,6,6.21a1.2,1.2,0,0,0,1.73-1.65l-6-6.21A1.2,1.2,0,0,0,34.06,28.15Z"/><path class="a" d="M56.31,47.92h0l-7.88-6.16a1.2,1.2,0,0,0-1.49,1.87h0l7.88,6.16a1.2,1.2,0,1,0,1.48-1.88Z"/><path class="a" d="M60.62,56a1.2,1.2,0,0,0-1.12,1.27l.59,9.49a1.19,1.19,0,0,0,1.19,1.12h.08a1.2,1.2,0,0,0,1.12-1.27h0l-.59-9.49A1.2,1.2,0,0,0,60.62,56Z"/><path class="a" d="M93,76.87a1.18,1.18,0,0,0,1.1-1.27l-.64-9.25a1.19,1.19,0,0,0-1.26-1.12,1.2,1.2,0,0,0-1.13,1.26v0l.64,9.25a1.19,1.19,0,0,0,1.19,1.11H93Z"/><path class="b" d="M61.12,70.68h0a.13.13,0,0,0,0-.06.05.05,0,0,0,0,0H61a.09.09,0,0,0,0,.11.09.09,0,0,0,.05,0A.08.08,0,0,0,61.12,70.68Z"/><path class="b" d="M60.11,50.74l0,0a.08.08,0,0,0-.16,0s0,.09.06.09S60.1,50.76,60.11,50.74Z"/><path class="b" d="M31.78,45.05a.39.39,0,0,0,0,.77.39.39,0,1,0,0-.77Z"/><path class="b" d="M16.38,3a.39.39,0,0,0,.39.38.38.38,0,1,0,0-.76A.39.39,0,0,0,16.38,3Z"/><path class="b" d="M7.24,19.71a.08.08,0,0,0-.06-.09h0a.07.07,0,0,0-.07.06.07.07,0,0,0,.06.09A.08.08,0,0,0,7.24,19.71Z"/><path class="b" d="M73.39,38.85a7.65,7.65,0,0,1,1.53-1.53,7.92,7.92,0,0,1-1.53-1.53,7.87,7.87,0,0,1-1.52,1.53A7.6,7.6,0,0,1,73.39,38.85Z"/><path class="b" d="M92.92,60.16s-.07,0-.07.06a.07.07,0,0,0,.05.09.08.08,0,0,0,.1-.06.08.08,0,0,0-.06-.09Z"/><polygon class="b" points="93 60.25 93 60.25 93 60.25 93 60.25"/><path class="b" d="M89.08,95.75a5.3,5.3,0,0,1-.67-.67,6.06,6.06,0,0,1-.67.67,7.06,7.06,0,0,1,.67.67A6.06,6.06,0,0,1,89.08,95.75Z"/><path class="b" d="M91.4,79.62a.08.08,0,0,0-.06.12.09.09,0,0,0,0,0,.08.08,0,1,0,0-.15Z"/><path class="b" d="M40.87,4.25a6.06,6.06,0,0,1,.67.67,5.3,5.3,0,0,1,.67-.67,6.06,6.06,0,0,1-.67-.67A7.06,7.06,0,0,1,40.87,4.25Z"/><path class="b" d="M62.42,5.69a.18.18,0,1,0,.18.18A.18.18,0,0,0,62.42,5.69Z"/><path class="b" d="M38.15,68.77a7.06,7.06,0,0,1-.67-.67,6.06,6.06,0,0,1-.67.67,5.3,5.3,0,0,1,.67.67A6.06,6.06,0,0,1,38.15,68.77Z"/><path class="b" d="M43.92,37.63a.09.09,0,0,0-.06-.09h0a.08.08,0,0,0-.08.07h0a.08.08,0,0,0,.06.09A.08.08,0,0,0,43.92,37.63Z"/><path class="c" d="M68.71,29.83a1.81,1.81,0,1,0,1.8,1.81A1.81,1.81,0,0,0,68.71,29.83Z"/><path class="c" d="M56.11,24.74a1.61,1.61,0,1,0-1.6,1.6A1.6,1.6,0,0,0,56.11,24.74Z"/><path class="c" d="M84,23.32a1.4,1.4,0,1,0,1.4-1.4A1.4,1.4,0,0,0,84,23.32Z"/><path class="c" d="M31.78,43.43a2,2,0,1,0,2,2A2,2,0,0,0,31.78,43.43Zm0,2.39a.39.39,0,0,1,0-.77.39.39,0,1,1,0,.77Z"/><circle class="c" cx="30.77" cy="50.3" r="1.4"/><path class="c" d="M53.49,87.46a1.8,1.8,0,0,0-1.8,1.8h0a1.81,1.81,0,1,0,1.8-1.8Z"/><circle class="c" cx="31.98" cy="65.32" r="1.4"/><path class="c" d="M9.26,63.47a2,2,0,1,0,0-4h0a2,2,0,1,0,0,4Z"/><path class="c" d="M90.62,47.44a2,2,0,1,0-2-2A2,2,0,0,0,90.62,47.44Z"/><path class="c" d="M37.67,9.5a1.4,1.4,0,1,0-1.4-1.4A1.4,1.4,0,0,0,37.67,9.5Z"/><path class="c" d="M21.31,87.53A2.41,2.41,0,1,0,18.9,90,2.41,2.41,0,0,0,21.31,87.53Z"/><path class="c" d="M83.11,92.28a1.4,1.4,0,1,0-1.39-1.4A1.4,1.4,0,0,0,83.11,92.28Z"/><path class="c" d="M14.76,3a2,2,0,1,0,2-2A2,2,0,0,0,14.76,3Zm2.39,0a.38.38,0,0,1-.38.38.38.38,0,1,1,0-.76A.38.38,0,0,1,17.15,3Z"/><path class="c" d="M62.42,3.66a2.21,2.21,0,1,0,2.21,2.21A2.21,2.21,0,0,0,62.42,3.66Zm0,2.39a.18.18,0,1,1,.18-.18A.18.18,0,0,1,62.42,6.05Z"/><path class="c" d="M67.29,7.92a1.4,1.4,0,1,0,1.4,1.4A1.4,1.4,0,0,0,67.29,7.92Z"/><path class="c" d="M11.92,5.87a1.4,1.4,0,1,0,1.4-1.4A1.4,1.4,0,0,0,11.92,5.87Z"/><path class="c" d="M8.65,38.31a1.6,1.6,0,1,0-1.6-1.6A1.6,1.6,0,0,0,8.65,38.31Z"/><path class="c" d="M91.82,7.7a1.61,1.61,0,1,0-1.61,1.6A1.6,1.6,0,0,0,91.82,7.7Z"/><path class="c" d="M34.06,69.9a3.66,3.66,0,0,1,2.29,2.3,1.2,1.2,0,0,0,2.27,0,3.65,3.65,0,0,1,2.28-2.3,1.2,1.2,0,0,0,0-2.27,3.61,3.61,0,0,1-2.28-2.29,1.19,1.19,0,0,0-2.27,0,3.62,3.62,0,0,1-2.29,2.29,1.2,1.2,0,0,0-.82,1.14A1.19,1.19,0,0,0,34.06,69.9Zm3.42-1.8a7.06,7.06,0,0,0,.67.67,6.06,6.06,0,0,0-.67.67,5.3,5.3,0,0,0-.67-.67A6.06,6.06,0,0,0,37.48,68.1Z"/><path class="c" d="M85,96.89a3.62,3.62,0,0,1,2.29,2.29,1.2,1.2,0,0,0,2.27,0,3.62,3.62,0,0,1,2.29-2.29,1.2,1.2,0,0,0,.75-1.52,1.17,1.17,0,0,0-.75-.75,3.66,3.66,0,0,1-2.29-2.3,1.2,1.2,0,0,0-2.27,0A3.66,3.66,0,0,1,85,94.62a1.2,1.2,0,0,0,0,2.27Zm3.43-1.81a5.3,5.3,0,0,0,.67.67,6.06,6.06,0,0,0-.67.67,7.06,7.06,0,0,0-.67-.67A6.06,6.06,0,0,0,88.41,95.08Z"/><path class="c" d="M42.67,7.68A3.66,3.66,0,0,1,45,5.38a1.2,1.2,0,0,0,0-2.27A3.62,3.62,0,0,1,42.67.82a1.2,1.2,0,0,0-2.27,0,3.61,3.61,0,0,1-2.28,2.29,1.19,1.19,0,0,0,0,2.27,3.65,3.65,0,0,1,2.28,2.3,1.2,1.2,0,0,0,1.52.75A1.19,1.19,0,0,0,42.67,7.68ZM41.54,4.92a6.06,6.06,0,0,0-.67-.67,7.06,7.06,0,0,0,.67-.67,6.06,6.06,0,0,0,.67.67A5.3,5.3,0,0,0,41.54,4.92Z"/><path class="c" d="M72.26,32.87A5.26,5.26,0,0,1,69,36.19a1.19,1.19,0,0,0,0,2.26,5.26,5.26,0,0,1,3.3,3.32,1.19,1.19,0,0,0,1.51.75,1.21,1.21,0,0,0,.76-.75,5.26,5.26,0,0,1,3.3-3.32,1.2,1.2,0,0,0,.76-1.51,1.16,1.16,0,0,0-.76-.75,5.26,5.26,0,0,1-3.3-3.32A1.2,1.2,0,0,0,73,32.12,1.16,1.16,0,0,0,72.26,32.87Zm1.13,2.92a7.92,7.92,0,0,0,1.53,1.53,7.65,7.65,0,0,0-1.53,1.53,7.6,7.6,0,0,0-1.52-1.53A7.87,7.87,0,0,0,73.39,35.79Z"/><path class="c" d="M15.65,90a1.6,1.6,0,1,0,1.6,1.6A1.6,1.6,0,0,0,15.65,90Z"/><path class="d" d="M6.55,22.09l.11,0a2.24,2.24,0,0,0,.52.06,2.45,2.45,0,0,0,2.42-2,2.55,2.55,0,0,0-1.91-2.93,2.47,2.47,0,1,0-1.14,4.81Zm.61-2.47h0a.08.08,0,0,1,0,.15.07.07,0,0,1-.06-.09A.07.07,0,0,1,7.16,19.62Z"/><path class="d" d="M30.71,22.2a2.48,2.48,0,0,0-.52,4.9,3,3,0,0,0,.52,0,2.48,2.48,0,0,0,0-4.95Z"/><path class="d" d="M43.33,40h0a2.94,2.94,0,0,0,.51,0,2.45,2.45,0,0,0,2.42-2,2.54,2.54,0,0,0-1.91-2.92,2.47,2.47,0,0,0-1,4.83Zm.43-2.43h0a.08.08,0,0,1,.08-.07h0a.09.09,0,0,1,.06.09.08.08,0,0,1-.1.06.08.08,0,0,1-.06-.09Z"/><path class="d" d="M59.56,53.09a2.24,2.24,0,0,0,.52.06,2.51,2.51,0,1,0-.52-.06ZM60,50.66h0a.08.08,0,0,1,.16,0l0,0s0,0-.06,0-.06,0-.06-.09Z"/><polygon class="d" points="59.99 50.66 59.99 50.66 59.99 50.66 59.99 50.66"/><path class="d" d="M95.26,60.75a2.36,2.36,0,0,0-1.87-2.93h0a2.47,2.47,0,0,0-1,4.83,2,2,0,0,0,.48.06A2.4,2.4,0,0,0,95.26,60.75ZM93,60.25h0a.08.08,0,0,1-.1.06.07.07,0,0,1-.05-.09s0-.06.07-.06h0a.08.08,0,0,1,.06.09Z"/><path class="d" d="M60.53,73.08a3.05,3.05,0,0,0,.52,0A2.46,2.46,0,1,0,59,72,2.5,2.5,0,0,0,60.53,73.08ZM61,70.6h.06a.05.05,0,0,1,0,0,.13.13,0,0,1,0,.06h0a.08.08,0,0,1-.09.06.09.09,0,0,1-.05,0A.09.09,0,0,1,61,70.6Z"/><path class="d" d="M93.88,79.69a2.47,2.47,0,1,0-3,2.42,2.24,2.24,0,0,0,.52,0A2.47,2.47,0,0,0,93.88,79.69Zm-2.49.08a.09.09,0,0,1,0,0,.07.07,0,0,1,0-.06h0a.07.07,0,0,1,.07-.06h0a.08.08,0,1,1,0,.15Z"/><polygon class="d" points="91.33 79.68 91.33 79.68 91.33 79.68 91.33 79.68"/><path class="d" d="M25.47,24.77a1.2,1.2,0,0,0,.25-2.37l-13.2-2.79A1.19,1.19,0,1,0,12,21.94h0l13.2,2.79A1.07,1.07,0,0,0,25.47,24.77Z"/><path class="d" d="M64.15,51.39a1.21,1.21,0,0,0,.74,1.52h0l22.39,7.35A1.2,1.2,0,0,0,88.06,58L65.67,50.65A1.19,1.19,0,0,0,64.15,51.39Z"/><path class="d" d="M87.3,79a1.18,1.18,0,0,0-.74-1.51l-19.9-6.82a1.19,1.19,0,1,0-.77,2.26l19.9,6.82A1.19,1.19,0,0,0,87.3,79Z"/><path class="d" d="M33.63,26.94a1.2,1.2,0,0,0-.05,1.69l0,0,6,6.21A1.2,1.2,0,0,0,41.3,33.2l-6-6.21A1.19,1.19,0,0,0,33.63,26.94Z"/><path class="d" d="M55.88,46.71h0L48,40.54a1.2,1.2,0,0,0-1.48,1.88h0l7.88,6.15a1.19,1.19,0,0,0,1.68-.2A1.18,1.18,0,0,0,55.88,46.71Z"/><path class="d" d="M60.19,54.73A1.2,1.2,0,0,0,59.07,56l.59,9.49a1.19,1.19,0,0,0,1.19,1.12h.08a1.2,1.2,0,0,0,1.12-1.27h0l-.6-9.49A1.19,1.19,0,0,0,60.19,54.73Z"/><path class="d" d="M92.59,75.66a1.2,1.2,0,0,0,1.11-1.28l-.64-9.24a1.2,1.2,0,0,0-2.39.13v0l.65,9.25a1.19,1.19,0,0,0,1.19,1.11h.08Z"/></svg>