<svg xmlns="http://www.w3.org/2000/svg" viewBox="0 0 100 100"><defs><style>.a{fill:#e6e7e8;}.b{fill:none;}.c{fill:#21409a;}.d{fill:#ec008c;}</style></defs><path class="a" d="M60.54,24.75a6.06,6.06,0,0,0,.84-.32l-4.47-7.95h0a6,6,0,0,1-2.81,1.83,57.63,57.63,0,0,0-30.35,21.9A56.87,56.87,0,0,0,13.08,75a6.1,6.1,0,0,1-.2,1.76l.15,0,6.49,1.32A56.93,56.93,0,0,1,30.19,46.66,57.68,57.68,0,0,1,60.54,24.75Z"/><path class="b" d="M47,54.77A9.16,9.16,0,1,0,44.82,42h0l0,0A9.12,9.12,0,0,0,47,54.77Zm5.22-.92h0a2.15,2.15,0,0,1-1.93-3,1.13,1.13,0,0,1,.12-.21l.82-1.2a1.24,1.24,0,0,1,.37-.35,1.29,1.29,0,0,1,1.78.39l.78,1.23a1.51,1.51,0,0,1,.11.22,2.12,2.12,0,0,1,.15.78A2.16,2.16,0,0,1,52.2,53.85Zm3.69-8.47a2.15,2.15,0,1,1-.07,4,.94.94,0,0,1-.22-.12l-1.19-.82a1.29,1.29,0,0,1-.56-1.09,1.28,1.28,0,0,1,.6-1.06l1.22-.78A1.51,1.51,0,0,1,55.89,45.38Zm-5.5-3.33a2.15,2.15,0,1,1,4,1.72,1.13,1.13,0,0,1-.12.21l-.82,1.18a1.25,1.25,0,0,1-1.06.54h0a1.21,1.21,0,0,1-1.06-.58l-.78-1.2-.11-.22A2.14,2.14,0,0,1,50.39,42.05Zm-4,3.62a2.15,2.15,0,0,1,2.36-.43l.22.12,1.19.83a1.16,1.16,0,0,1,.36.37,1.29,1.29,0,0,1-.4,1.78l-1.22.78-.22.11a2.13,2.13,0,0,1-.79.15h0a2.14,2.14,0,0,1-1.55-.66A2.16,2.16,0,0,1,46.39,45.67Z"/><path class="b" d="M41.76,39.88l0,0a12.9,12.9,0,1,0,10.6-5.48A12.86,12.86,0,0,0,41.74,39.91ZM59,37.77a11.69,11.69,0,1,1-16.31,2.8A11.71,11.71,0,0,1,59,37.77Z"/><path class="b" d="M39.05,26.94a1.3,1.3,0,0,1-1.64-.16l-.15-.18a1.29,1.29,0,0,1,.33-1.79,58,58,0,0,1,16.14-7.74A4.61,4.61,0,0,0,56.83,14a4.7,4.7,0,0,0-.37-3.58l-.21-.4a4.58,4.58,0,0,0-2.56-2.2,4.79,4.79,0,0,0-1.54-.26A4.61,4.61,0,0,0,50.28,8C35.91,14.28,24.9,22.74,17.54,33.11A81.76,81.76,0,0,0,2.59,75a4.48,4.48,0,0,0,.8,2.88,4.59,4.59,0,0,0,6.39,1.2,4.64,4.64,0,0,0,2-4,58.13,58.13,0,0,1,10.9-35.61,60,60,0,0,1,8-9.14l0,0a1.29,1.29,0,0,1,1.72,1.92A56.93,56.93,0,0,0,24.8,41,55.56,55.56,0,0,0,14.37,75a6.66,6.66,0,0,1,0,.78l37.39,7.59a11.45,11.45,0,0,1,21.9,4.45l22.81,4.62a1,1,0,0,0,.8-.4.92.92,0,0,0,.11-.88l-4.3-7.66-.44.23a6.91,6.91,0,0,1-6.33-12.29L56.57,18.51a7.14,7.14,0,0,1-2.11,1A55.19,55.19,0,0,0,39.05,26.94ZM8.42,68.09c-.18.87-.35,1.75-.5,2.63a1.29,1.29,0,0,1-2.56-.23,1.64,1.64,0,0,1,0-.22c.16-.9.33-1.81.52-2.71a1.29,1.29,0,1,1,2.52.53ZM21.84,37.4A82.08,82.08,0,0,0,9.73,62.73a1.29,1.29,0,0,1-2.53-.35,1.34,1.34,0,0,1,0-.35A84.37,84.37,0,0,1,19.74,35.91a1.29,1.29,0,0,1,2.1,1.49ZM30,73.89a5.29,5.29,0,0,1-7.39,1.21h0a5.29,5.29,0,0,1,6.13-8.63l.05,0A5.3,5.3,0,0,1,30,73.89Zm0-16.3a3.6,3.6,0,0,1-4.1-3l-.78-5a3.59,3.59,0,0,1,7.09-1.1l.78,5A3.58,3.58,0,0,1,30,57.59ZM47.21,74.82a3.71,3.71,0,1,1-5.11-4.56h0a3.71,3.71,0,0,1,5.11,4.56ZM71.36,61.67a3.59,3.59,0,0,1,5,.61l3.14,4a3.59,3.59,0,0,1-5.65,4.43l-3.13-4A3.58,3.58,0,0,1,71.36,61.67Zm-6.53-5.43a15.43,15.43,0,1,1-3.69-21.51A15.42,15.42,0,0,1,64.83,56.24Z"/><path class="b" d="M57,80.81a8.7,8.7,0,0,0-2.69,3.09L71,87.29a8.85,8.85,0,0,0-14-6.48Z"/><path class="b" d="M85.71,79.4a4.34,4.34,0,0,0,5.79,2l.3-.16-4.24-7.56A4.35,4.35,0,0,0,85.71,79.4Z"/><path class="b" d="M25.7,68.07a2.73,2.73,0,0,0-2.23,1.15h0a2.71,2.71,0,1,0,4.44,3.11,2.67,2.67,0,0,0,.5-1.57A2.7,2.7,0,0,0,25.7,68.07Z"/><path class="b" d="M29.3,48.2a1,1,0,0,0-1.41.22,1,1,0,0,0-.18.76l.78,5a1,1,0,0,0,1.15.84,1,1,0,0,0,.85-1.15l-.79-5A1,1,0,0,0,29.3,48.2Z"/><path class="b" d="M44.08,72.53h0a1.13,1.13,0,1,0,.7,1.44A1.14,1.14,0,0,0,44.08,72.53Z"/><path class="b" d="M75.92,69.11a1,1,0,0,0,1.59-1.24l-3.14-4a1,1,0,0,0-.67-.38,1,1,0,0,0-1.13.88,1.05,1.05,0,0,0,.21.75Z"/><path class="c" d="M28.79,66.5l-.05,0a5.29,5.29,0,0,0-6.13,8.63h0a5.29,5.29,0,1,0,6.17-8.6Zm-.89,5.84a2.71,2.71,0,1,1-4.44-3.11h0a2.73,2.73,0,0,1,2.23-1.15,2.7,2.7,0,0,1,2.7,2.7A2.67,2.67,0,0,1,27.9,72.34Z"/><path class="c" d="M99.7,90.07l0-.11L58.44,16.57a7,7,0,0,1-1.87,1.94L86.29,71.44a6.91,6.91,0,0,0,6.33,12.29l.44-.23,4.3,7.66a.92.92,0,0,1-.11.88,1,1,0,0,1-.8.4L73.64,87.82a11.45,11.45,0,0,0-21.9-4.45L14.35,75.78a7.11,7.11,0,0,1-.65,2.5L96,95l.14,0h.32A3.53,3.53,0,0,0,100,91.48a3.47,3.47,0,0,0-.3-1.41Zm-8.2-8.66a4.33,4.33,0,0,1-3.94-7.72l4.24,7.56ZM54.35,83.9A8.7,8.7,0,0,1,57,80.81a8.85,8.85,0,0,1,14,6.48Z"/><path class="c" d="M39.63,38.43a15.43,15.43,0,1,0,21.51-3.7A15.43,15.43,0,0,0,39.63,38.43Zm25.56,8.84a12.9,12.9,0,1,1-23.45-7.36l0,0a12.9,12.9,0,0,1,23.43,7.39Z"/><path class="c" d="M54.1,50.69l-.78-1.23a1.29,1.29,0,0,0-1.78-.39,1.24,1.24,0,0,0-.37.35l-.82,1.2a1.13,1.13,0,0,0-.12.21,2.15,2.15,0,0,0,1.93,3h0a2.16,2.16,0,0,0,2.16-2.16,2.12,2.12,0,0,0-.15-.78A1.51,1.51,0,0,0,54.1,50.69Z"/><path class="c" d="M50.47,43.92l.78,1.2a1.21,1.21,0,0,0,1.06.58h0a1.25,1.25,0,0,0,1.06-.54L54.22,44a1.13,1.13,0,0,0,.12-.21,2.15,2.15,0,1,0-4-.07Z"/><path class="c" d="M53.85,47.33a1.29,1.29,0,0,0,.56,1.09l1.19.82a.94.94,0,0,0,.22.12,2.15,2.15,0,1,0,.07-4,1.51,1.51,0,0,0-.22.11l-1.22.78A1.28,1.28,0,0,0,53.85,47.33Z"/><path class="c" d="M47.89,49.38h0a2.13,2.13,0,0,0,.79-.15l.22-.11,1.22-.78a1.29,1.29,0,0,0,.4-1.78,1.16,1.16,0,0,0-.36-.37L49,45.36l-.22-.12a2.16,2.16,0,1,0-.86,4.14Z"/><path class="c" d="M73.89,70.71a3.59,3.59,0,0,0,5.65-4.43l-3.14-4a3.59,3.59,0,1,0-5.64,4.43Zm-.19-7.22a1,1,0,0,1,.67.38l3.14,4a1,1,0,0,1-1.59,1.24l-3.14-4a1.05,1.05,0,0,1-.21-.75A1,1,0,0,1,73.7,63.49Z"/><path class="c" d="M32.25,48.47a3.59,3.59,0,0,0-7.09,1.1l.78,5A3.59,3.59,0,1,0,33,53.49ZM29.64,55a1,1,0,0,1-1.15-.84l-.78-5a1,1,0,0,1,.18-.76,1,1,0,0,1,1.81.44l.79,5A1,1,0,0,1,29.64,55Z"/><path class="c" d="M44.93,70.1a3.7,3.7,0,0,0-2.83.16h0a3.71,3.71,0,1,0,2.83-.16ZM44.78,74a1.13,1.13,0,1,1-.7-1.44h0A1.14,1.14,0,0,1,44.78,74Z"/><path class="c" d="M42.69,40.57A11.7,11.7,0,1,0,59,37.77,11.68,11.68,0,0,0,42.69,40.57ZM44.82,42A9.14,9.14,0,1,1,47,54.77,9.19,9.19,0,0,1,44.82,42l0,0Z"/><path class="d" d="M13.29,75.57l1.06.21a6.66,6.66,0,0,0,0-.78A55.56,55.56,0,0,1,24.8,41a56.93,56.93,0,0,1,7.66-8.75,1.29,1.29,0,0,0-1.72-1.92l0,0a60,60,0,0,0-8,9.14,58.13,58.13,0,0,0-10.9,35.61,4.64,4.64,0,0,1-2,4,4.59,4.59,0,0,1-6.39-1.2A4.48,4.48,0,0,1,2.59,75a81.76,81.76,0,0,1,15-41.89C24.9,22.74,35.91,14.28,50.28,8a4.61,4.61,0,0,1,1.87-.39,4.79,4.79,0,0,1,1.54.26A4.58,4.58,0,0,1,56.25,10l.21.4A4.7,4.7,0,0,1,56.83,14a4.61,4.61,0,0,1-3.1,3.07,58,58,0,0,0-16.14,7.74,1.29,1.29,0,0,0-.33,1.79l.15.18a1.3,1.3,0,0,0,1.64.16,55.19,55.19,0,0,1,15.41-7.4,7.14,7.14,0,0,0,2.11-1l-.78-1.4L58,15.85l.41.72a7,7,0,0,0,.74-1.47,7.35,7.35,0,0,0-.46-5.91l-.19-.37a7.23,7.23,0,0,0-9.29-3.23c-14.8,6.52-26.17,15.28-33.8,26A84.36,84.36,0,0,0,0,74.82,7.18,7.18,0,0,0,13.7,78.28l-.93-.19Z"/><path class="d" d="M55.79,17.11l.78,1.4a7,7,0,0,0,1.87-1.94L58,15.85Z"/><path class="d" d="M13.29,75.57l-.52,2.52.93.19a7.11,7.11,0,0,0,.65-2.5Z"/><path class="d" d="M7.42,66.56a1.29,1.29,0,0,0-1.52,1c-.19.9-.36,1.81-.52,2.71a1.64,1.64,0,0,0,0,.22,1.29,1.29,0,0,0,2.56.23c.15-.88.32-1.76.5-2.63A1.29,1.29,0,0,0,7.42,66.56Z"/><path class="d" d="M19.74,35.91A84.37,84.37,0,0,0,7.25,62a1.34,1.34,0,0,0,0,.35,1.29,1.29,0,0,0,2.53.35A82.08,82.08,0,0,1,21.84,37.4a1.29,1.29,0,0,0-2.1-1.49Z"/></svg>