<svg xmlns="http://www.w3.org/2000/svg" viewBox="0 0 100 100"><defs><style>.a{fill:#e6e7e8;}.b{fill:none;}.c{fill:#ec008c;}.d{fill:#21409a;}</style></defs><polygon class="a" points="10.2 2.97 38.73 44.52 45.09 44.52 16.56 2.97 10.2 2.97"/><polygon class="a" points="58.17 28.3 75.57 2.97 69.21 2.97 51.81 28.3 62.11 43.28 65.29 38.65 58.17 28.3"/><path class="b" d="M63.55,46.42a1,1,0,0,1-.09.22,1.75,1.75,0,0,1-1.41.85H38a1.5,1.5,0,0,1-1.22-.67l-.68-1a2.59,2.59,0,0,0-.89,1.94V48a2.72,2.72,0,0,0,2.68,2.67H61.42A2.64,2.64,0,0,0,64,48v-.26a2.64,2.64,0,0,0-.4-1.39Z"/><polygon class="b" points="59.32 44.52 30.79 2.97 10.2 2.97 38.73 44.52 59.32 44.52"/><path class="b" d="M49.52,56.73c.59,0,1.17,0,1.75.07V53.64H47.88v3.15C48.42,56.75,49,56.73,49.52,56.73Z"/><path class="b" d="M30.93,78.37A18.59,18.59,0,1,0,49.52,59.7,18.65,18.65,0,0,0,30.93,78.37Zm32.83,0v0A14.29,14.29,0,1,1,49.52,64.08,14.29,14.29,0,0,1,63.76,78.41Z"/><path class="b" d="M38.15,78.41A11.32,11.32,0,0,0,49.52,89.68h0A11.3,11.3,0,0,0,60.79,78.37v-.05a11.32,11.32,0,0,0-22.64.09Z"/><polygon class="b" points="51.81 28.3 62.11 43.28 89.8 2.97 69.21 2.97 51.81 28.3"/><path class="c" d="M51.27,56.8c-.58,0-1.16-.07-1.75-.07s-1.1,0-1.64.06V53.64h-3v3.59a21.55,21.55,0,1,0,9.33,0V53.64h-3ZM68.11,78.37A18.59,18.59,0,1,1,49.52,59.7,18.65,18.65,0,0,1,68.11,78.37Z"/><path class="d" d="M93.47.26A1.52,1.52,0,0,0,92.62,0H68.43A1.49,1.49,0,0,0,67.2.63L50,25.67,32.8.64A1.5,1.5,0,0,0,31.57,0H7.38A1.48,1.48,0,0,0,5.89,1.46a1.46,1.46,0,0,0,.27.85l28.21,41a5.57,5.57,0,0,0-2.18,4.39V48a5.73,5.73,0,0,0,5.65,5.64H61.42A5.61,5.61,0,0,0,67,48v-.26a5.6,5.6,0,0,0-1.62-3.94L93.84,2.3A1.45,1.45,0,0,0,93.47.26ZM10.2,3H30.79L59.32,44.52H38.73ZM64,48a2.64,2.64,0,0,1-2.57,2.67H37.84A2.72,2.72,0,0,1,35.16,48v-.26a2.59,2.59,0,0,1,.89-1.94l.68,1a1.5,1.5,0,0,0,1.22.67h24.1a1.75,1.75,0,0,0,1.41-.85,1,1,0,0,0,.09-.22l0-.07a2.64,2.64,0,0,1,.4,1.39Zm-1.88-4.72-10.3-15L69.21,3H89.8Z"/><path class="c" d="M35.19,78.32a14.29,14.29,0,1,0,28.57.09v0a14.29,14.29,0,0,0-28.57-.05Zm25.6,0v.05A11.3,11.3,0,0,1,49.52,89.68h0A11.32,11.32,0,1,1,60.79,78.32Z"/></svg>