<svg xmlns="http://www.w3.org/2000/svg" viewBox="0 0 100 100"><defs><style>.a{fill:#e6e7e8;}.b{fill:none;}.c{fill:#21409a;}.d{fill:#ec008c;}</style></defs><path class="a" d="M25.55,44.16a24.41,24.41,0,0,0,7.92,18,17.19,17.19,0,0,1,4.1,5.77,17.68,17.68,0,0,1,1.43,7v2.16h6.36V74.89a17.68,17.68,0,0,0-1.43-7,17.19,17.19,0,0,0-4.1-5.77A24.45,24.45,0,0,1,53.18,19.92,24.46,24.46,0,0,0,25.55,44.16Z"/><polygon class="b" points="44.09 97.46 55.91 97.46 56.79 93.85 43.21 93.85 44.09 97.46"/><path class="b" d="M59.51,88.67h-19a1.32,1.32,0,0,0,0,2.64h19a1.31,1.31,0,0,0,.93-.39h0a1.3,1.3,0,0,0,.38-.93A1.32,1.32,0,0,0,59.51,88.67Z"/><path class="b" d="M48.52,55a3,3,0,0,1-2.37,1.19,3.5,3.5,0,0,1-2.92-2c-.45-.68-.61-.83-.81-.83a1.28,1.28,0,1,1,0-2.55,3.49,3.49,0,0,1,2.92,2c.45.67.61.82.81.82s.36-.15.81-.82a3.16,3.16,0,0,1,5.85,0c.45.67.6.82.81.82s.36-.15.81-.82a3.49,3.49,0,0,1,2.92-2h0a1.27,1.27,0,1,1,0,2.54c-.2,0-.36.15-.81.83a3.5,3.5,0,0,1-2.92,2,3.11,3.11,0,0,1-2.56-1.43V75.77h8.67v-.88a18.94,18.94,0,0,1,6.06-13.77A23.17,23.17,0,0,0,50.22,21H50A23.17,23.17,0,0,0,34.33,61.23a18.14,18.14,0,0,1,4.4,6.21,18.55,18.55,0,0,1,1.54,7.45v.88h8.25ZM45.79,24.77a21.36,21.36,0,0,1,2.51-.36h0a1.27,1.27,0,1,1,.2,2.53,20.45,20.45,0,0,0-2.2.32,1.15,1.15,0,0,1-.26,0h0a1.27,1.27,0,0,1-.26-2.52ZM31.88,45.05a1.28,1.28,0,0,1-2.55,0A20.77,20.77,0,0,1,41.44,26.2a1.27,1.27,0,0,1,1.69.62h0a1.28,1.28,0,0,1-.63,1.69A18.22,18.22,0,0,0,31.88,45.05Z"/><path class="b" d="M38.37,78.32a1.32,1.32,0,0,0,0,2.63h5a1.28,1.28,0,0,1,0,2.55h-4a1.32,1.32,0,0,0,0,2.63H60.57a1.32,1.32,0,0,0,0-2.63H48.94a1.28,1.28,0,1,1,0-2.55H61.63a1.31,1.31,0,0,0,.93-.39h0a1.32,1.32,0,0,0-.93-2.25Z"/><path class="c" d="M24.28,44.16a25.7,25.7,0,0,0,8.33,19,15.64,15.64,0,0,1,3.79,5.34,16.18,16.18,0,0,1,1.33,6.44v1a3.39,3.39,0,0,1,.64-.07h1.9v-.88a18.55,18.55,0,0,0-1.54-7.45,18.14,18.14,0,0,0-4.4-6.21A23.17,23.17,0,0,1,50,21h.22A23.17,23.17,0,0,1,65.79,61.12a18.94,18.94,0,0,0-6.06,13.77v.88h1.9a3.39,3.39,0,0,1,.64.07v-1A16.38,16.38,0,0,1,67.53,63a25.77,25.77,0,0,0,8.18-19.5h0a25.77,25.77,0,0,0-25.47-25H50A25.73,25.73,0,0,0,24.28,44.16Z"/><path class="c" d="M51.27,10.58V1.27a1.27,1.27,0,0,0-2.54,0v9.31a1.27,1.27,0,0,0,2.54,0Z"/><path class="c" d="M94.35,46.89a1.27,1.27,0,1,0,0-2.54H85a1.27,1.27,0,0,0,0,2.54Z"/><path class="c" d="M16.23,45.62A1.27,1.27,0,0,0,15,44.35H5.65a1.27,1.27,0,1,0,0,2.54H15A1.27,1.27,0,0,0,16.23,45.62Z"/><path class="c" d="M83.62,12a1.27,1.27,0,0,0-1.8,0l-7.26,7.26a1.28,1.28,0,0,0,1.78,1.83l0,0,7.26-7.26a1.27,1.27,0,0,0,0-1.8Z"/><path class="c" d="M25.44,19.26,18.18,12a1.27,1.27,0,0,0-1.8,1.8l7.26,7.26a1.27,1.27,0,1,0,1.82-1.77Z"/><path class="c" d="M53.62,56.14a3.5,3.5,0,0,0,2.92-2c.45-.68.61-.83.81-.83a1.27,1.27,0,1,0,0-2.54h0a3.49,3.49,0,0,0-2.92,2c-.45.67-.6.82-.81.82s-.36-.15-.81-.82a3.16,3.16,0,0,0-5.85,0c-.45.67-.6.82-.81.82s-.36-.15-.81-.82a3.49,3.49,0,0,0-2.92-2,1.28,1.28,0,1,0,0,2.55c.2,0,.36.15.81.83a3.5,3.5,0,0,0,2.92,2A3,3,0,0,0,48.52,55V75.77h2.54V54.71A3.11,3.11,0,0,0,53.62,56.14Z"/><path class="c" d="M43.13,26.82h0a1.27,1.27,0,0,0-1.69-.62A20.77,20.77,0,0,0,29.33,45.05a1.28,1.28,0,0,0,2.55,0A18.22,18.22,0,0,1,42.5,28.51,1.28,1.28,0,0,0,43.13,26.82Z"/><path class="c" d="M46.05,27.29h0a1.15,1.15,0,0,0,.26,0,20.45,20.45,0,0,1,2.2-.32,1.27,1.27,0,1,0-.2-2.53h0a21.36,21.36,0,0,0-2.51.36,1.27,1.27,0,0,0,.26,2.52Z"/><path class="d" d="M59.73,77V75.77H51.06v1.16H48.52V75.77H40.27V77H37.73V75.84a3.85,3.85,0,0,0-1.58,7A3.84,3.84,0,0,0,37.21,88a3.86,3.86,0,0,0,3.28,5.89h.1L41.86,99a1.27,1.27,0,0,0,1.23,1H56.91a1.27,1.27,0,0,0,1.23-1l1.27-5.18h.1A3.85,3.85,0,0,0,62.79,88a4.15,4.15,0,0,0,.51-.43,3.88,3.88,0,0,0,1.13-2.73,3.82,3.82,0,0,0-.58-2,4.15,4.15,0,0,0,.51-.43,3.85,3.85,0,0,0-2.09-6.52V77ZM55.91,97.46H44.09l-.88-3.61H56.79Zm4.53-6.54h0a1.31,1.31,0,0,1-.93.39h-19a1.32,1.32,0,0,1,0-2.64h19A1.32,1.32,0,0,1,60.82,90,1.3,1.3,0,0,1,60.44,90.92Zm2.5-11.29a1.32,1.32,0,0,1-.38.94h0a1.31,1.31,0,0,1-.93.39H48.94a1.28,1.28,0,1,0,0,2.55H60.57a1.32,1.32,0,0,1,0,2.63H39.43a1.32,1.32,0,0,1,0-2.63h4a1.28,1.28,0,0,0,0-2.55h-5a1.32,1.32,0,0,1,0-2.63H61.63A1.31,1.31,0,0,1,62.94,79.63Z"/><path class="d" d="M59.73,75.77V77h2.54V75.84a3.39,3.39,0,0,0-.64-.07Z"/><path class="d" d="M40.27,77V75.77h-1.9a3.39,3.39,0,0,0-.64.07V77Z"/><rect class="d" x="48.52" y="75.77" width="2.54" height="1.15"/></svg>