<svg xmlns="http://www.w3.org/2000/svg" viewBox="0 0 100 100"><defs><style>.a{fill:#e6e7e8;}.b{fill:none;}.c{fill:#21409a;}.d{fill:#ec008c;}</style></defs><path class="a" d="M7.32,50A48.77,48.77,0,0,1,53.05,1.32c-1-.06-2-.1-3-.1a48.78,48.78,0,0,0,0,97.56c1,0,2,0,3-.1A48.77,48.77,0,0,1,7.32,50Z"/><path class="b" d="M42.31,43.66a1.23,1.23,0,0,1,.16,1.52A8.94,8.94,0,1,0,50,41a10.39,10.39,0,0,0-4.94,1.46,1.25,1.25,0,0,1-1.76-.34c-.15-.15-.37-.33-.65-.61l-2.29-2.27-6.92-6.92L23.37,22.28a.81.81,0,0,0-1.15,1.15ZM48.5,49A2,2,0,0,1,52,50.41a2.06,2.06,0,0,1-.53,1.37,2,2,0,0,1-3-2.74Z"/><path class="b" d="M68.67,65.74l.08.05a5,5,0,1,0-.08-.05ZM71.2,60a1.63,1.63,0,1,1-1.63,1.63A1.62,1.62,0,0,1,71.2,60Z"/><path class="b" d="M83.63,83.63a47.56,47.56,0,1,0-67.26,0A47.57,47.57,0,0,0,83.63,83.63ZM50,94.88a2,2,0,1,1,2-2A2,2,0,0,1,50,94.88ZM92.56,48.25a2,2,0,1,1-2,2A2,2,0,0,1,92.56,48.25Zm-26.42,0a2,2,0,1,1-2,2A2,2,0,0,1,66.14,48.25ZM50,5.69a2,2,0,1,1-2,2A2,2,0,0,1,50,5.69Zm0,12.2a2,2,0,1,1-2,2A2,2,0,0,1,50,17.89Zm0,14.22a2,2,0,1,1-2,2A2,2,0,0,1,50,32.11ZM7.44,52.32a2,2,0,1,1,2-2A2,2,0,0,1,7.44,52.32ZM21.05,25.7l-.56-.55a3.26,3.26,0,0,1,4.61-4.6c6,6,16.72,16.72,19.47,19.45a11.38,11.38,0,1,1-4.65,4.72l-8.3-8.36A23.16,23.16,0,0,0,66.2,67.05a.46.46,0,0,1,.07-.07,2.73,2.73,0,0,1-.25-.23,7.32,7.32,0,0,1,6.66-12.34A23.06,23.06,0,0,0,66.2,34.28a1.22,1.22,0,0,1,1.72-1.72A25.51,25.51,0,0,1,75,55.33a7.12,7.12,0,0,1,1.37,1.07h0a7.32,7.32,0,0,1-8,11.92c-.14.15-.29.31-.44.45a25.59,25.59,0,0,1-38-34.15l-7.12-7.18A35.36,35.36,0,1,0,75,25l0,0a1.22,1.22,0,1,1,1.75-1.7A37.81,37.81,0,1,1,21.05,25.7ZM52,66.42a2,2,0,1,1-2-2A2,2,0,0,1,52,66.42ZM35.89,50.28a2,2,0,1,1-2-2A2,2,0,0,1,35.89,50.28Zm42.44,0a2,2,0,1,1,2,2A2,2,0,0,1,78.33,50.28ZM52,80a2,2,0,1,1-2-2A2,2,0,0,1,52,80ZM22.28,50.28a2,2,0,1,1-2-2A2,2,0,0,1,22.28,50.28Z"/><path class="c" d="M85.36,85.36a50,50,0,1,0-70.72,0A50,50,0,0,0,85.36,85.36Zm-69-69a47.56,47.56,0,1,1,0,67.26A47.57,47.57,0,0,1,16.37,16.37Z"/><path class="c" d="M50,87.8A37.8,37.8,0,0,0,76.73,23.27,1.22,1.22,0,1,0,75,25l0,0a35.38,35.38,0,1,1-52.24,2.45L21.05,25.7A37.79,37.79,0,0,0,50,87.8Z"/><path class="c" d="M31.71,68.77a25.6,25.6,0,0,0,36.21,0c.15-.14.3-.3.44-.45a7.32,7.32,0,0,0,8-11.92h0A7.12,7.12,0,0,0,75,55.33a25.51,25.51,0,0,0-7.08-22.77,1.22,1.22,0,0,0-1.72,1.72,23.06,23.06,0,0,1,6.48,20.13A7.32,7.32,0,0,0,66,66.75a2.73,2.73,0,0,0,.25.23.46.46,0,0,0-.07.07A23.16,23.16,0,0,1,31.62,36.36l-1.73-1.74A25.61,25.61,0,0,0,31.71,68.77ZM67,59a4.88,4.88,0,1,1,1.71,6.75l-.08-.05A4.88,4.88,0,0,1,67,59Z"/><path class="c" d="M50,36.18a2,2,0,1,0-2-2A2,2,0,0,0,50,36.18Z"/><path class="c" d="M50,9.76a2,2,0,1,0-2-2A2,2,0,0,0,50,9.76Z"/><path class="c" d="M50,22a2,2,0,1,0-2-2A2,2,0,0,0,50,22Z"/><path class="c" d="M50,90.81a2,2,0,1,0,2,2A2,2,0,0,0,50,90.81Z"/><path class="c" d="M48,80a2,2,0,1,0,2-2A2,2,0,0,0,48,80Z"/><path class="c" d="M48,66.42a2,2,0,1,0,2-2A2,2,0,0,0,48,66.42Z"/><path class="c" d="M66.14,52.32a2,2,0,1,0-2-2A2,2,0,0,0,66.14,52.32Z"/><path class="c" d="M92.56,52.32a2,2,0,1,0-2-2A2,2,0,0,0,92.56,52.32Z"/><path class="c" d="M80.36,52.32a2,2,0,1,0-2-2A2,2,0,0,0,80.36,52.32Z"/><path class="c" d="M7.44,48.25a2,2,0,1,0,2,2A2,2,0,0,0,7.44,48.25Z"/><path class="c" d="M18.21,50.28a2,2,0,1,0,2-2A2,2,0,0,0,18.21,50.28Z"/><circle class="c" cx="33.86" cy="50.28" r="2.03"/><path class="c" d="M71.2,63.2a1.63,1.63,0,1,0-1.63-1.62A1.62,1.62,0,0,0,71.2,63.2Z"/><path class="d" d="M51.5,51.78a2,2,0,0,0-.13-2.87,2,2,0,1,0,.13,2.87Z"/><path class="d" d="M23.61,26.45c-.29.33-.56.66-.84,1l7.12,7.18c.25-.3.47-.62.73-.91l1.83,1.62c-.3.33-.56.68-.83,1l8.3,8.36A11.38,11.38,0,1,0,44.57,40C41.82,37.27,31.06,26.52,25.1,20.55a3.26,3.26,0,0,0-4.61,4.6l.56.55.74-.87Zm-1.39-4.17a.81.81,0,0,1,1.15,0L33.44,32.34l6.92,6.92,2.29,2.27c.28.28.5.46.65.61a1.25,1.25,0,0,0,1.76.34A10.39,10.39,0,0,1,50,41a9,9,0,1,1-7.53,4.16,1.23,1.23,0,0,0-.16-1.52L22.22,23.43A.81.81,0,0,1,22.22,22.28Z"/><path class="d" d="M23.61,26.45l-1.82-1.62-.74.87,1.72,1.74C23.05,27.11,23.32,26.78,23.61,26.45Z"/><path class="d" d="M30.62,33.71c-.26.29-.48.61-.73.91l1.73,1.74c.27-.35.53-.7.83-1Z"/></svg>