<svg xmlns="http://www.w3.org/2000/svg" viewBox="0 0 100 100"><defs><style>.a{fill:#e6e7e8;}.b{fill:none;}.c{fill:#21409a;}.d{fill:#ec008c;}</style></defs><path class="a" d="M45.14,84.25a28.17,28.17,0,0,1,0-52.66c.16-.14.3-.28.46-.4H40.39a28.18,28.18,0,0,0,8.94,54.9,6.21,6.21,0,0,1-4.19-1.84Z"/><path class="b" d="M22.77,30.35a1.44,1.44,0,0,0,0-2,1.37,1.37,0,0,0-1-.4,1.41,1.41,0,0,0-1.41,1.41,1.43,1.43,0,0,0,2.42,1Z"/><path class="b" d="M27.72,89.45a1.39,1.39,0,0,0-1,.4,1.41,1.41,0,0,0,2,2,1.42,1.42,0,0,0,0-2A1.4,1.4,0,0,0,27.72,89.45Z"/><path class="b" d="M69.1,44.5a1.4,1.4,0,0,1-.56.57,1.19,1.19,0,0,1-1.61-.55l-1.15-2.29a7.55,7.55,0,0,0-3.36-3.37l-2.3-1.14a1.21,1.21,0,0,1,0-2.16l2.3-1.15.08,0a26.3,26.3,0,0,0-4.37-1.94H55.94a25.47,25.47,0,0,1,3.62,7.07A46.24,46.24,0,0,1,61.27,46c6,1.11,11,3,14.26,5.42a26.51,26.51,0,0,0-4.8-10,8.06,8.06,0,0,0-.48.8Z"/><path class="b" d="M56.86,8.66V7.45H50.2A1.21,1.21,0,0,1,50.2,5H76.9a3.22,3.22,0,0,0,3.16-2.61H18.6A3.21,3.21,0,0,0,21.76,5H44a1.21,1.21,0,1,1,0,2.42H41.82V8.66a3.1,3.1,0,0,0,3.1,3.1h8.84A3.1,3.1,0,0,0,56.86,8.66Z"/><path class="b" d="M63.39,36.63l.12.06a10,10,0,0,1,4.43,4.43l.06.12.06-.12a9.89,9.89,0,0,1,4.43-4.43l.12-.06-.12-.06a9.89,9.89,0,0,1-4.43-4.43L68,32l-.06.12a10,10,0,0,1-4.43,4.43Z"/><path class="b" d="M42.75,32.38H40.59a26.82,26.82,0,0,0-11.84,8.08,27.27,27.27,0,0,0-5.42,10.22,40,40,0,0,1,14.1-4.85C38.54,40.11,40.41,35.4,42.75,32.38Z"/><path class="b" d="M39.52,48a65.87,65.87,0,0,0-.76,9.92,61.8,61.8,0,0,0,1.05,11.44,69.39,69.39,0,0,0,9.12.61,69.91,69.91,0,0,0,10-.73,61.17,61.17,0,0,0,1-11.32,64.28,64.28,0,0,0-.74-9.8,64.48,64.48,0,0,0-10.27-.77A65.84,65.84,0,0,0,39.52,48Z"/><rect class="b" x="41.62" y="24.93" width="15.55" height="5.03"/><path class="b" d="M52.67,32.4H46c-2.58,2.24-4.77,7-6.06,13.07a71.43,71.43,0,0,1,18.76.12,40.17,40.17,0,0,0-1.45-5.34C56,36.63,54.45,33.93,52.67,32.4Z"/><path class="b" d="M48.91,72.37a72.71,72.71,0,0,1-8.6-.52c1.95,7.85,5.48,13,9,13s7.11-5.22,9-13.13A71.34,71.34,0,0,1,48.91,72.37Z"/><path class="b" d="M55.23,84.23A27,27,0,0,0,75,66.27c-3.37,2.26-8.24,4-14.06,5.08C59.7,77,57.67,81.49,55.23,84.23Z"/><path class="b" d="M36.32,57.89A64.67,64.67,0,0,1,37,48.37c-6.35,1.17-11.52,3.28-14.4,5.86a26.92,26.92,0,0,0,.28,9c3,2.52,8.12,4.53,14.36,5.66A62.8,62.8,0,0,1,36.32,57.89Z"/><path class="b" d="M61.71,48.55a65,65,0,0,1,.65,9.34,65.36,65.36,0,0,1-.91,10.9c6.67-1.31,12-3.69,14.5-6.49a27.14,27.14,0,0,0,.36-4.41c0-.86,0-1.75-.12-2.61C73.82,52.4,68.48,49.94,61.71,48.55Z"/><path class="b" d="M90.83,65.26a1.41,1.41,0,0,0,2,2,1.53,1.53,0,0,0,.42-1,1.47,1.47,0,0,0-.42-1A1.44,1.44,0,0,0,90.83,65.26Z"/><path class="b" d="M23.9,66.92A26.92,26.92,0,0,0,43.45,84.21C41,81.49,39,77.1,37.75,71.47A40.93,40.93,0,0,1,23.9,66.92Z"/><path class="c" d="M72.4,39.62a7.47,7.47,0,0,0-.8.69,8.41,8.41,0,0,0-.87,1.1,26.51,26.51,0,0,1,4.8,10c-3.28-2.4-8.26-4.31-14.26-5.42a46.24,46.24,0,0,0-1.71-6.54,25.47,25.47,0,0,0-3.62-7.07h2.19a26.3,26.3,0,0,1,4.37,1.94,7.33,7.33,0,0,0,2.07-1.59,29.48,29.48,0,0,0-5-2.42V23.76a1.21,1.21,0,0,0-1.21-1.21H50.56v1.19l-2.42,0V22.55H40.37a1.22,1.22,0,0,0-1.21,1.21v6.59A29.39,29.39,0,1,0,78.71,57.91a32,32,0,0,0-.18-3.38A28.91,28.91,0,0,0,72.4,39.62ZM59.94,57.91a61.17,61.17,0,0,1-1,11.32,69.91,69.91,0,0,1-10,.73,69.39,69.39,0,0,1-9.12-.61,61.8,61.8,0,0,1-1.05-11.44A65.87,65.87,0,0,1,39.52,48a65.84,65.84,0,0,1,9.41-.65,64.48,64.48,0,0,1,10.27.77A64.28,64.28,0,0,1,59.94,57.91ZM57.28,40.25a40.17,40.17,0,0,1,1.45,5.34A71.43,71.43,0,0,0,40,45.47c1.29-6,3.48-10.83,6.06-13.07h6.64C54.45,33.93,56,36.63,57.28,40.25ZM41.62,24.93H57.16v5H41.62ZM28.75,40.46a26.82,26.82,0,0,1,11.84-8.08h2.16c-2.34,3-4.21,7.73-5.32,13.45a40,40,0,0,0-14.1,4.85A27.27,27.27,0,0,1,28.75,40.46ZM22.61,54.23c2.88-2.58,8.05-4.69,14.4-5.86a64.67,64.67,0,0,0-.69,9.52,62.8,62.8,0,0,0,.93,11C31,67.8,25.87,65.79,22.89,63.27A26.92,26.92,0,0,1,22.61,54.23ZM23.9,66.92a40.93,40.93,0,0,0,13.85,4.55c1.27,5.63,3.26,10,5.7,12.74A26.92,26.92,0,0,1,23.9,66.92Zm25.43,18c-3.54,0-7.07-5.18-9-13a72.71,72.71,0,0,0,8.6.52,71.34,71.34,0,0,0,9.46-.62C56.44,79.66,52.89,84.88,49.33,84.88Zm5.9-.65C57.67,81.49,59.7,77,61,71.35c5.82-1,10.69-2.82,14.06-5.08A27,27,0,0,1,55.23,84.23ZM76,62.3c-2.52,2.8-7.83,5.18-14.5,6.49a65.36,65.36,0,0,0,.91-10.9,65,65,0,0,0-.65-9.34c6.77,1.39,12.11,3.85,14.48,6.73.08.86.12,1.75.12,2.61A27.14,27.14,0,0,1,76,62.3Z"/><path class="d" d="M49.33,92.33a1.21,1.21,0,0,0-1.21,1.21v5.25a1.21,1.21,0,1,0,2.42,0V93.54A1.21,1.21,0,0,0,49.33,92.33Z"/><path class="d" d="M13.59,48.31a1.21,1.21,0,1,0,0-2.42H8.31a1.21,1.21,0,1,0,0,2.42Z"/><path class="d" d="M83.87,47.1a1.21,1.21,0,0,0,1.2,1.21h5.26a1.21,1.21,0,1,0,0-2.42H85.07A1.21,1.21,0,0,0,83.87,47.1Z"/><path class="d" d="M82.6,78.65a1.23,1.23,0,0,0-1.71,0,1.21,1.21,0,0,0,0,1.72l3.72,3.72a1.23,1.23,0,0,0,1.71,0,1.2,1.2,0,0,0,0-1.71Z"/><path class="d" d="M16.08,78.65l-3.72,3.73a1.21,1.21,0,0,0,0,1.71,1.2,1.2,0,0,0,1.71,0l0,0,3.73-3.72a1.24,1.24,0,0,0,0-1.72A1.21,1.21,0,0,0,16.08,78.65Z"/><path class="d" d="M50.56,14.16h3.22A5.53,5.53,0,0,0,59.3,8.64V7.43H76.9v0a5.63,5.63,0,0,0,5.64-5.64v-.6A1.21,1.21,0,0,0,81.33,0h-64a1.21,1.21,0,0,0-1.21,1.21v.6a5.63,5.63,0,0,0,5.64,5.64H39.4V8.66a5.53,5.53,0,0,0,5.52,5.52h3.22v8.37h2.42Zm-5.64-2.4a3.1,3.1,0,0,1-3.1-3.1V7.45H44A1.21,1.21,0,1,0,44,5H21.76A3.21,3.21,0,0,1,18.6,2.42H80.06A3.22,3.22,0,0,1,76.9,5H50.2a1.21,1.21,0,0,0,0,2.42h6.66V8.66a3.1,3.1,0,0,1-3.1,3.1Z"/><polygon class="c" points="50.56 23.74 50.56 22.55 48.14 22.55 48.14 23.76 50.56 23.74"/><path class="d" d="M13.67,63.39a1.22,1.22,0,0,0-1.21-1.21H10.2V59.93a1.21,1.21,0,1,0-2.41,0v2.25H5.55a1.21,1.21,0,0,0,0,2.42H7.81v2.23a1.21,1.21,0,1,0,2.41,0V64.6h2.24A1.21,1.21,0,0,0,13.67,63.39Z"/><path class="d" d="M82.19,32.26V30h2.24a1.21,1.21,0,1,0,0-2.41H82.17V25.33a1.21,1.21,0,1,0-2.41,0v2.26H77.5a1.21,1.21,0,1,0,0,2.41h2.26v2.26A1.21,1.21,0,0,0,81,33.47,1.23,1.23,0,0,0,82.19,32.26Z"/><path class="d" d="M24.48,32.06a3.83,3.83,0,1,0-5.42,0A3.84,3.84,0,0,0,24.48,32.06Zm-4.13-2.72a1.41,1.41,0,0,1,1.41-1.41,1.37,1.37,0,0,1,1,.4,1.44,1.44,0,0,1,0,2,1.43,1.43,0,0,1-2.42-1Z"/><path class="d" d="M89.12,63.55a3.83,3.83,0,1,0,5.42,0A3.84,3.84,0,0,0,89.12,63.55Zm3.71,3.71a1.41,1.41,0,1,1,0-2,1.47,1.47,0,0,1,.42,1A1.53,1.53,0,0,1,92.83,67.26Z"/><path class="d" d="M75.69,91.93H73.43V89.69a1.21,1.21,0,1,0-2.41,0v2.24H68.78a1.21,1.21,0,1,0,0,2.41H71V96.6a1.21,1.21,0,1,0,2.41,0V94.34h2.26a1.21,1.21,0,1,0,0-2.41Z"/><path class="d" d="M64.11,35.32c-.52-.34-1.06-.66-1.61-1l-.08,0-2.3,1.15a1.21,1.21,0,0,0,0,2.16l2.3,1.14a7.55,7.55,0,0,1,3.36,3.37l1.15,2.29a1.19,1.19,0,0,0,1.61.55,1.4,1.4,0,0,0,.56-.57l1.15-2.29a8.06,8.06,0,0,1,.48-.8c-.3-.39-.6-.77-.92-1.14l0,0,1.83-1.59,0,0c.27.31.51.64.76,1a7.15,7.15,0,0,1,1.2-.76l2.29-1.14a1.18,1.18,0,0,0,.54-1.61,1.15,1.15,0,0,0-.54-.55L73.6,34.41a7.55,7.55,0,0,1-3.37-3.36l-1.15-2.29a1.19,1.19,0,0,0-1.61-.55,1.15,1.15,0,0,0-.54.55l-1.15,2.29a7.32,7.32,0,0,1-1.21,1.72l.85.52Zm3.83-3.18L68,32l.06.12a9.89,9.89,0,0,0,4.43,4.43l.12.06-.12.06a9.89,9.89,0,0,0-4.43,4.43l-.06.12-.06-.12a10,10,0,0,0-4.43-4.43l-.12-.06.12-.06A10,10,0,0,0,67.94,32.14Z"/><path class="d" d="M71.62,38.64l-1.83,1.59,0,0c.32.37.62.75.92,1.14a8.41,8.41,0,0,1,.87-1.1,7.47,7.47,0,0,1,.8-.69c-.25-.32-.49-.65-.76-1Z"/><path class="d" d="M62.5,34.36c.55.3,1.09.62,1.61,1l1.31-2-.85-.52A7.33,7.33,0,0,1,62.5,34.36Z"/><path class="d" d="M25,88.14a3.83,3.83,0,0,0,2.7,6.54,3.84,3.84,0,0,0,2.72-6.54A3.84,3.84,0,0,0,25,88.14Zm3.73,3.7a1.41,1.41,0,0,1-2-2,1.44,1.44,0,0,1,2,0A1.42,1.42,0,0,1,28.71,91.84Z"/></svg>