<svg xmlns="http://www.w3.org/2000/svg" viewBox="0 0 100 100"><defs><style>.a{fill:#e6e7e8;}.b{fill:none;}.c{fill:#21409a;}.d{fill:#ec008c;}</style></defs><polygon class="a" points="50 20.79 37.87 20.79 33.12 34.65 50 34.65 50 20.79"/><polygon class="a" points="50 55.45 25.99 55.45 21.24 69.31 50 69.31 50 55.45"/><polygon class="b" points="25.99 55.45 21.24 69.31 78.76 69.31 74.01 55.45 25.99 55.45"/><path class="c" d="M75.25,55.45H74l4.75,13.86h2.43a1.73,1.73,0,0,1,1.64,1.17L76.89,53.15a1.77,1.77,0,0,1,.09.56A1.74,1.74,0,0,1,75.25,55.45Z"/><path class="c" d="M18.81,69.31h2.43L26,55.45H24.75a1.78,1.78,0,0,1-.56-.1,1.74,1.74,0,0,1-1.08-2.2L17.17,70.48A1.73,1.73,0,0,1,18.81,69.31Z"/><path class="b" d="M90.35,93.32a3.22,3.22,0,0,0-3.22-3.22H12.87a3.22,3.22,0,0,0-3.22,3.22v3.21h80.7Z"/><polygon class="b" points="20.05 72.77 15.3 86.63 84.7 86.63 79.95 72.77 20.05 72.77"/><path class="d" d="M15.3,86.63l4.75-13.86H18.81a1.77,1.77,0,0,1-.56-.09,1.73,1.73,0,0,1-1.08-2.2L11.59,86.76a6.69,6.69,0,0,1,1.28-.13Z"/><path class="d" d="M81.19,72.77H80L84.7,86.63h2.43a6.69,6.69,0,0,1,1.28.13L82.83,70.48a1.77,1.77,0,0,1,.09.56A1.72,1.72,0,0,1,81.19,72.77Z"/><path class="d" d="M18.25,72.68a1.77,1.77,0,0,0,.56.09H81.19A1.72,1.72,0,0,0,82.92,71a1.77,1.77,0,0,0-.09-.56,1.73,1.73,0,0,0-1.64-1.17H18.81a1.73,1.73,0,0,0-.56,3.37Z"/><path class="c" d="M92.08,100a1.73,1.73,0,0,0,1.73-1.73v-5a6.72,6.72,0,0,0-6.68-6.69H12.87a6.72,6.72,0,0,0-6.68,6.69v5A1.73,1.73,0,0,0,7.92,100ZM9.65,93.32a3.22,3.22,0,0,1,3.22-3.22H87.13a3.22,3.22,0,0,1,3.22,3.22v3.21H9.65Z"/><polygon class="b" points="37.87 20.79 33.12 34.65 66.88 34.65 62.13 20.79 37.87 20.79"/><polygon class="b" points="31.93 38.12 27.18 51.98 72.82 51.98 68.07 38.12 31.93 38.12"/><path class="d" d="M24.75,52h2.43l4.75-13.86H30.69a1.77,1.77,0,0,1-.56-.09,1.75,1.75,0,0,1-1.08-2.21L23.11,53.15A1.73,1.73,0,0,1,24.75,52Z"/><path class="d" d="M69.31,38.12H68.07L72.82,52h2.43a1.73,1.73,0,0,1,1.64,1.17L71,35.82a1.79,1.79,0,0,1,.09.57A1.74,1.74,0,0,1,69.31,38.12Z"/><path class="d" d="M24.19,55.35a1.78,1.78,0,0,0,.56.1h50.5A1.74,1.74,0,0,0,77,53.71a1.77,1.77,0,0,0-.09-.56A1.73,1.73,0,0,0,75.25,52H24.75a1.73,1.73,0,0,0-.56,3.37Z"/><path class="d" d="M30.13,38a1.77,1.77,0,0,0,.56.09H69.31A1.74,1.74,0,0,0,71,36.39a1.79,1.79,0,0,0-.09-.57,1.73,1.73,0,0,0-1.64-1.17H30.69A1.74,1.74,0,0,0,30.13,38Z"/><path class="b" d="M53.89,3.47H46.11a3.21,3.21,0,0,0-3,2.17l-4,11.69H60.94l-4-11.69A3.21,3.21,0,0,0,53.89,3.47Z"/><path class="c" d="M30.69,34.65h2.43l4.75-13.86H36.63a1.77,1.77,0,0,1-.56-.09A1.74,1.74,0,0,1,35,18.5L29.05,35.82A1.73,1.73,0,0,1,30.69,34.65Z"/><path class="c" d="M63.37,20.79H62.13l4.75,13.86h2.43A1.73,1.73,0,0,1,71,35.82L65,18.5a1.77,1.77,0,0,1,.09.56A1.73,1.73,0,0,1,63.37,20.79Z"/><path class="d" d="M36.63,17.33h2.43l4-11.69a3.21,3.21,0,0,1,3-2.17h7.78a3.21,3.21,0,0,1,3,2.17l4,11.69h2.43A1.73,1.73,0,0,1,65,18.5l-4.8-14A6.66,6.66,0,0,0,53.89,0H46.11a6.66,6.66,0,0,0-6.32,4.52L35,18.5A1.73,1.73,0,0,1,36.63,17.33Z"/><path class="d" d="M36.07,20.7a1.77,1.77,0,0,0,.56.09H63.37a1.73,1.73,0,0,0,1.73-1.73A1.77,1.77,0,0,0,65,18.5a1.73,1.73,0,0,0-1.64-1.17H36.63a1.73,1.73,0,0,0-.56,3.37Z"/></svg>