<svg xmlns="http://www.w3.org/2000/svg" viewBox="0 0 100 100"><defs><style>.a{fill:#e6e7e8;}.b{fill:none;}.c{fill:#21409a;}.d{fill:#ec008c;}</style></defs><path class="a" d="M90.94,93H18.16a9.09,9.09,0,0,1-9.1-9.1V45.65L4.51,41.77V88.45a9.09,9.09,0,0,0,9.1,9.1H86.39a9.12,9.12,0,0,0,8.3-5.36A9,9,0,0,1,90.94,93Z"/><polygon class="b" points="93.04 39.95 78.89 27.97 78.89 51.95 93.04 39.95"/><path class="b" d="M28.55,70.78A1.6,1.6,0,0,1,30.83,73L9.05,95.28a7.43,7.43,0,0,0,4.55,1.53H86.4a7.38,7.38,0,0,0,4.54-1.53L69.05,73a1.59,1.59,0,1,1,2.27-2.23L93,92.85a7.56,7.56,0,0,0,.89-3.54V43.39L78.31,56.61,56.93,74.75a10.66,10.66,0,0,1-13.83,0L21.69,56.62,6.09,43.42V89.31A7.37,7.37,0,0,0,7,92.84Z"/><path class="b" d="M65,19.5h8.47L59.39,5.43v8.45A5.63,5.63,0,0,0,65,19.5Z"/><polygon class="b" points="6.96 39.98 21.11 51.96 21.11 27.98 6.96 39.98"/><path class="b" d="M65,22.69a8.82,8.82,0,0,1-8.81-8.81V3.19H29.91a5.62,5.62,0,0,0-5.62,5.62V54.66L45.16,72.33a7.48,7.48,0,0,0,9.71,0L75.71,54.65v-32ZM51,58.85l-.1,0a2.54,2.54,0,0,1-1.8,0l-.09,0C35.78,53.6,31.3,43.68,32.74,36.19c1-5.4,4.9-8.88,9.87-8.88A13.33,13.33,0,0,1,50,29.8a13.71,13.71,0,0,1,7.34-2.41c4.94,0,8.83,3.44,9.91,8.78h0C68.7,43.6,64.23,53.49,51,58.85Z"/><path class="b" d="M57.35,30.57A11.33,11.33,0,0,0,50.93,33a1.58,1.58,0,0,1-1.88,0,11.11,11.11,0,0,0-6.44-2.52c-3.42,0-6,2.41-6.74,6.29C34.68,43,38.6,51.22,50,55.82c8.24-3.41,15.77-10.58,14.13-19C63.35,33,60.76,30.57,57.35,30.57Z"/><path class="c" d="M2.91,39.91v49.4A10.7,10.7,0,0,0,13.6,100H86.4A10.7,10.7,0,0,0,97.09,89.31V39.91a1.56,1.56,0,0,0-.82-1.4L78.89,23.8V28L93,40,78.89,52l-3.18,2.7L54.87,72.32a7.48,7.48,0,0,1-9.71,0L24.29,54.66,21.11,52,7,40,21.11,28V23.8L3.82,38.46A1.59,1.59,0,0,0,2.91,39.91Zm3.18,3.51,15.6,13.2L43.1,74.76a10.66,10.66,0,0,0,13.83,0L78.31,56.61l15.6-13.22V89.31A7.56,7.56,0,0,1,93,92.85L71.32,70.78A1.59,1.59,0,1,0,69.05,73L90.94,95.28a7.38,7.38,0,0,1-4.54,1.53H13.6a7.43,7.43,0,0,1-4.55-1.53L30.83,73a1.6,1.6,0,0,0-2.28-2.23L7,92.84a7.37,7.37,0,0,1-.89-3.53Z"/><path class="d" d="M67.26,36.17c-1.08-5.34-5-8.78-9.91-8.78A13.71,13.71,0,0,0,50,29.8a13.33,13.33,0,0,0-7.4-2.49c-5,0-8.85,3.48-9.87,8.88C31.3,43.68,35.78,53.6,49,58.85l.09,0a2.54,2.54,0,0,0,1.8,0l.1,0C64.23,53.49,68.7,43.6,67.26,36.18ZM50,55.82c-11.4-4.6-15.32-12.86-14.13-19,.74-3.88,3.32-6.29,6.74-6.29A11.11,11.11,0,0,1,49.05,33a1.58,1.58,0,0,0,1.88,0,11.33,11.33,0,0,1,6.42-2.45c3.41,0,6,2.39,6.78,6.22C65.77,45.24,58.24,52.41,50,55.82Z"/><path class="d" d="M21.11,52l3.18,2.7V8.81a5.62,5.62,0,0,1,5.62-5.62h26.3V13.88A8.82,8.82,0,0,0,65,22.69H75.71v32L78.89,52V21.05a1.6,1.6,0,0,0-.46-1.13L59,.5h0A1.6,1.6,0,0,0,57.8,0H29.91a8.82,8.82,0,0,0-8.8,8.81V52ZM59.39,5.43,73.49,19.5H65a5.63,5.63,0,0,1-5.63-5.62Z"/></svg>