<svg xmlns="http://www.w3.org/2000/svg" viewBox="0 0 100 100"><defs><style>.a{fill:#e6e7e8;}.b{fill:none;}.c{fill:#21409a;}.d{fill:#ec008c;}</style></defs><path class="a" d="M80.3,22V28.1H78.51v3.14a6.24,6.24,0,0,1-2.71,5.12A13.6,13.6,0,0,0,70,47.52V81a2.34,2.34,0,0,0,2.34,2.34h5.49A2.34,2.34,0,0,1,75.49,81h0V47.52A13.63,13.63,0,0,1,81.3,36.36,6.29,6.29,0,0,0,84,31.24V28.1h.36V22Z"/><rect class="b" x="2.44" y="45.73" width="8.65" height="28.06"/><path class="b" d="M17,66.81h0a1.22,1.22,0,0,1,2.38-.55,9.37,9.37,0,0,0,9.17,7.27H54a1.92,1.92,0,0,0,0-3.83H43.16a1.22,1.22,0,0,1,0-2.44H60.3a1.92,1.92,0,0,0,0-3.84H40A1.22,1.22,0,0,1,40,61H63.4a1.92,1.92,0,0,0,0-3.83H40a1.23,1.23,0,0,1,0-2.45H58.69a1.92,1.92,0,1,0,0-3.83H36.43a7,7,0,0,1-4.08,5.21,1.22,1.22,0,0,1-1-2.24,4.61,4.61,0,0,0,2.74-4.19,1.21,1.21,0,0,1,1.22-1.22h7.54a5.3,5.3,0,0,0,5.29-5.29A.11.11,0,0,0,48,43H27.31a8.2,8.2,0,0,0-8.19,8.19,1.22,1.22,0,0,1-2.44,0,10.67,10.67,0,0,1,.26-2.33H13.53V69.54H18A11.91,11.91,0,0,1,17,66.81Z"/><path class="b" d="M83.42,71.07H97.56V67.41H87.09a1.22,1.22,0,0,1,0-2.44H97.56V62.22H87.09a1.22,1.22,0,0,1,0-2.44H97.56V57.34H87.09a1.22,1.22,0,1,1,0-2.44H97.56V51.23H83.42Z"/><path class="b" d="M62.67,25.08l-3.4,4.59a4.23,4.23,0,1,0,6.8,0Z"/><rect class="b" x="82.97" y="15.44" width="2.83" height="5.31"/><rect class="b" x="81.52" y="23.19" width="5.73" height="3.69"/><path class="b" d="M72.34,82.08h24.1A1.13,1.13,0,0,0,97.56,81V73.51H82.2A1.22,1.22,0,0,1,81,72.29V50a1.23,1.23,0,0,1,1.22-1.23H97.56V47.52a12.3,12.3,0,0,0-3.64-8.77,11.87,11.87,0,0,0-1.67-1.41A7.46,7.46,0,0,1,89,31.24V29.33H79.73v1.91a7.49,7.49,0,0,1-3.23,6.12,12.43,12.43,0,0,0-5.28,10.16V81A1.13,1.13,0,0,0,72.34,82.08Zm3.81-9a1.23,1.23,0,0,1-2.45,0V54.66a1.23,1.23,0,0,1,2.45,0ZM74.82,48.71a1.35,1.35,0,0,1,1.33,1.35v0a1.36,1.36,0,1,1-1.33-1.38Z"/><path class="c" d="M72.34,84.52h24.1A3.57,3.57,0,0,0,100,81V47.52A14.78,14.78,0,0,0,95.65,37a15.43,15.43,0,0,0-2-1.68,5,5,0,0,1-2.16-4.1V28.1a1.22,1.22,0,0,0-1.22-1.22h-.57V22a1.22,1.22,0,0,0-1.22-1.22h-.22V15.44h7.12a1.22,1.22,0,0,0,0-2.44H69.51a8.78,8.78,0,0,0-6.16,2.51l-1.7,1.67a1.22,1.22,0,1,0,1.69,1.76h0l1.71-1.67a6.35,6.35,0,0,1,4.45-1.82h11v5.31H80.3A1.22,1.22,0,0,0,79.08,22v4.91h-.57a1.22,1.22,0,0,0-1.22,1.22v3.14a5,5,0,0,1-2.19,4.12,14.91,14.91,0,0,0-6.33,12.16V81A3.58,3.58,0,0,0,72.34,84.52ZM97.56,54.9H87.09a1.22,1.22,0,1,0,0,2.44H97.56v2.44H87.09a1.22,1.22,0,0,0,0,2.44H97.56V65H87.09a1.22,1.22,0,0,0,0,2.44H97.56v3.66H83.42V51.23H97.56ZM83,15.44H85.8v5.31H83Zm-1.45,7.75h5.73v3.69H81.52ZM71.22,47.52A12.43,12.43,0,0,1,76.5,37.36a7.49,7.49,0,0,0,3.23-6.12V29.33H89v1.91a7.46,7.46,0,0,0,3.21,6.1,11.87,11.87,0,0,1,1.67,1.41,12.3,12.3,0,0,1,3.64,8.77v1.27H82.2A1.23,1.23,0,0,0,81,50V72.29a1.22,1.22,0,0,0,1.22,1.22H97.56V81a1.13,1.13,0,0,1-1.12,1.13H72.34A1.13,1.13,0,0,1,71.22,81Z"/><path class="c" d="M69.34,32.19a6.68,6.68,0,0,0-1.31-4L63.65,22.3A1.21,1.21,0,0,0,62,22a1.07,1.07,0,0,0-.26.26l-4.38,5.92a6.66,6.66,0,0,0,1.4,9.32,6.55,6.55,0,0,0,4,1.3A6.66,6.66,0,0,0,69.34,32.19Zm-4.16,3.39a4.23,4.23,0,0,1-5.91-5.91l3.4-4.59,3.4,4.59A4.23,4.23,0,0,1,65.18,35.58Z"/><path class="c" d="M74.76,51.41a1.35,1.35,0,0,0,1.39-1.32v0a1.36,1.36,0,1,0-1.39,1.35Z"/><path class="c" d="M74.92,53.44a1.22,1.22,0,0,0-1.22,1.22V73.09a1.23,1.23,0,0,0,2.45,0V54.66A1.23,1.23,0,0,0,74.92,53.44Z"/><path class="d" d="M1.22,76.23H12.31A1.22,1.22,0,0,0,13.53,75V72h6.13a11.81,11.81,0,0,0,8.88,4H54a4.33,4.33,0,0,0,3.9-6.27h2.37a4.36,4.36,0,0,0,3.88-6.35,4.36,4.36,0,0,0-.74-8.65h-.8a4.35,4.35,0,0,0-3.91-6.27H48.49a7.7,7.7,0,0,0,2.1-5.29A2.55,2.55,0,0,0,48,40.58H27.31a10.64,10.64,0,0,0-9.49,5.85H13.53V44.51a1.22,1.22,0,0,0-1.22-1.22H1.22A1.22,1.22,0,0,0,0,44.51V75A1.22,1.22,0,0,0,1.22,76.23ZM13.53,48.88h3.41a10.67,10.67,0,0,0-.26,2.33,1.22,1.22,0,0,0,2.44,0A8.2,8.2,0,0,1,27.31,43H48a.11.11,0,0,1,.11.11,5.3,5.3,0,0,1-5.29,5.29H35.32a1.21,1.21,0,0,0-1.22,1.22,4.61,4.61,0,0,1-2.74,4.19,1.22,1.22,0,0,0,1,2.24,7,7,0,0,0,4.08-5.21H58.69a1.92,1.92,0,1,1,0,3.83H40a1.23,1.23,0,0,0,0,2.45H63.4a1.92,1.92,0,0,1,0,3.83H40a1.22,1.22,0,0,0,0,2.44H60.26a1.92,1.92,0,0,1,0,3.84H43.16a1.22,1.22,0,0,0,0,2.44H54a1.92,1.92,0,0,1,0,3.83H28.54a9.37,9.37,0,0,1-9.17-7.27A1.22,1.22,0,0,0,17,66.8h0a11.91,11.91,0,0,0,1,2.73H13.53ZM2.44,45.73h8.65V73.79H2.44Z"/><circle class="d" cx="8.77" cy="30.95" r="1.32"/><path class="d" d="M21.89,30.84a1.22,1.22,0,0,0-1.22-1.22H12.33a1.22,1.22,0,0,0,0,2.44h8.34A1.22,1.22,0,0,0,21.89,30.84Z"/><path class="d" d="M13.55,35a1.32,1.32,0,1,0,1.32-1.32A1.32,1.32,0,0,0,13.55,35Z"/><path class="d" d="M31.91,33.69a1.22,1.22,0,1,0,0,2.44H34.1a1.22,1.22,0,0,0,0-2.44Z"/><path class="d" d="M18.43,36.13h8.91a1.22,1.22,0,0,0,0-2.44H18.43a1.22,1.22,0,0,0,0,2.44Z"/><circle class="d" cx="62.48" cy="85.68" r="1.32"/><path class="d" d="M50.58,87h8.34a1.22,1.22,0,0,0,0-2.44H50.58a1.22,1.22,0,0,0,0,2.44Z"/><path class="d" d="M57.7,81.61a1.32,1.32,0,1,0-1.32,1.32A1.32,1.32,0,0,0,57.7,81.61Z"/><path class="d" d="M37.15,80.49a1.22,1.22,0,0,0,0,2.44h2.19a1.22,1.22,0,1,0,0-2.44Z"/><path class="d" d="M54,81.71a1.22,1.22,0,0,0-1.22-1.22H43.91a1.22,1.22,0,0,0,0,2.44h8.91A1.22,1.22,0,0,0,54,81.71Z"/></svg>