<svg xmlns="http://www.w3.org/2000/svg" viewBox="0 0 100 100"><defs><style>.a{fill:#e6e7e8;}.b{fill:none;}.c{fill:#21409a;}.d{fill:#ec008c;}</style></defs><path class="a" d="M88.5,75.65a7.58,7.58,0,0,1-5.8,2.86v0l-.07,0V76.42a14.63,14.63,0,0,0,4.16-3.21,15.81,15.81,0,0,0,3-4.89l.22,1A7.58,7.58,0,0,1,88.5,75.65Z"/><path class="a" d="M26.62,36.7A13,13,0,0,0,11.8,47.48a13.5,13.5,0,0,0-.15,2v6a.61.61,0,0,0,.08-.26L12,50a1.42,1.42,0,0,1,1.48-1.34h0s.88,0,2.26,0A13,13,0,0,1,26.62,36.7Z"/><path class="a" d="M16.86,65.61l0-.14L16.12,63A1.42,1.42,0,0,0,15,61.9a2.21,2.21,0,0,1-1.78-2.56l0-.14a1.28,1.28,0,0,1,.76-.89,3.33,3.33,0,0,0,4.35-1.82,3.26,3.26,0,0,0,.25-1.11L18.73,52,18,51.42c-1.32.09-2.44.11-3.25.11l-.17,3.85a3.33,3.33,0,0,1-3.47,3.18A3.15,3.15,0,0,1,10,58.31a1.26,1.26,0,0,0-.76.89,2.2,2.2,0,0,0,1.61,2.67l.14,0A1.39,1.39,0,0,1,12.08,63l.72,2.45,0,.14A12,12,0,0,0,26.61,75.2,12,12,0,0,1,16.86,65.61Z"/><path class="a" d="M28.63,78.19c.32,0,.63,0,.94,0v-.83a15,15,0,0,1-3,.72A15.12,15.12,0,0,0,28.63,78.19Z"/><path class="a" d="M23.65,80.08V78.16a15,15,0,0,1-4-.83v2.75a12.08,12.08,0,0,0,7,.9A11.91,11.91,0,0,1,23.65,80.08Z"/><path class="a" d="M28.63,84a15,15,0,0,0,4.74-.77l-2.25-.73a14.8,14.8,0,0,1-4.51,1.36A15.12,15.12,0,0,0,28.63,84Z"/><path class="a" d="M8,90.09a1.05,1.05,0,0,1,.06-.24,6.07,6.07,0,0,1,4-4.13l7.76-2.52a13.18,13.18,0,0,1-1.79-.73l-10,3.25a6.11,6.11,0,0,0-4,4.13L4,90.09a5.54,5.54,0,0,0-.13,1.29v5.8h4v-5.8A5.54,5.54,0,0,1,8,90.09Z"/><path class="a" d="M66.33,50.16A13.11,13.11,0,0,1,77.41,37.23a12.41,12.41,0,0,0-2-.16A13.11,13.11,0,0,0,62.3,50.16v4.38l0,0a.79.79,0,0,0,.91.15.76.76,0,0,0,.37-.36,3.1,3.1,0,0,1,2.53-1.85h.18Z"/><path class="a" d="M70.15,71.31a13,13,0,0,1-3.36-8.63,1.41,1.41,0,0,0-1.16-1.39,1.88,1.88,0,0,1-1.56-1.85,1.74,1.74,0,0,1,.06-.45,1.08,1.08,0,0,1,1-.82,1.38,1.38,0,0,0,1.05-.62,3.62,3.62,0,0,0,4-1.95.86.86,0,0,1,.2-.26,23.41,23.41,0,0,0,8-1.62c-.53-.4-1-.82-1.53-1.27a21.69,21.69,0,0,1-10.52,2.89.86.86,0,0,0-.2.26,3.62,3.62,0,0,1-4.05,1.95,1.38,1.38,0,0,1-1,.62,1.08,1.08,0,0,0-1,.82,1.74,1.74,0,0,0-.06.45,1.88,1.88,0,0,0,1.56,1.85,1.41,1.41,0,0,1,1.16,1.39,13,13,0,0,0,3.36,8.63,10.76,10.76,0,0,0,8,3.74h2.53q.38,0,.75,0A10.86,10.86,0,0,1,70.15,71.31Z"/><path class="a" d="M64.09,75.61a7.63,7.63,0,0,1-1.37-4.06,16.16,16.16,0,0,1-1.59-3l-.18.67a7.59,7.59,0,0,0,5.38,9.3,7.23,7.23,0,0,0,1,.21l.76-.26A7.59,7.59,0,0,1,64.09,75.61Z"/><path class="a" d="M62.42,84.81,65,83.94l-1-1-5.52,1.88A5.5,5.5,0,0,0,54.64,90v7.15h4V90A5.51,5.51,0,0,1,62.42,84.81Z"/><polygon class="a" points="70.47 82.47 69.21 81.14 66.92 81.91 68.26 83.22 70.47 82.47"/><path class="a" d="M73,78.93V77.82a12.41,12.41,0,0,1-2-.34v1.45l4.4,4.4,1-1Z"/><path class="a" d="M46,32a3.13,3.13,0,0,0-3.1-2.56h-2a3.57,3.57,0,0,1-3.57-3.57V6.4a3.57,3.57,0,0,1,3.57-3.58h-4A3.57,3.57,0,0,0,33.27,6.4V25.84a3.57,3.57,0,0,0,3.57,3.57h2A3.13,3.13,0,0,1,42,32a9.27,9.27,0,0,0,3.16,5.85,13.35,13.35,0,0,1,1.17-4.57C46.18,32.83,46.08,32.4,46,32Z"/><path class="b" d="M4,89.85,4,90.09a5.54,5.54,0,0,0-.13,1.29v5.8H45.36v-5.8a5.68,5.68,0,0,0-.13-1.3l-.06-.23a6.07,6.07,0,0,0-4-4.13l-10-3.25a14.94,14.94,0,0,1-13,0l-10,3.25A6.11,6.11,0,0,0,4,89.85Z"/><path class="b" d="M67.38,78.78l.79-.27V76.42A14.73,14.73,0,0,1,64,73.21a15.92,15.92,0,0,1-2.89-4.61l-.18.67a7.61,7.61,0,0,0,1.13,6.34h0A7.58,7.58,0,0,0,67.38,78.78Z"/><path class="b" d="M62.35,54.58a.79.79,0,0,0,.91.15.76.76,0,0,0,.37-.36,3.1,3.1,0,0,1,2.53-1.85h0c3.47-.2,10.69-.6,15.7-9.46a1.41,1.41,0,1,1,2.46,1.39,23,23,0,0,1-5.13,6.32,16.27,16.27,0,0,0,9.22,3.83l0-4.35v-.09a13.09,13.09,0,0,0-26.18,0v4.38Z"/><path class="b" d="M36.36,65.61a.74.74,0,0,1,0-.14L37.11,63a1.39,1.39,0,0,1,1.14-1.12l.14,0A2.22,2.22,0,0,0,40,59.2a1.31,1.31,0,0,0-1-1h0c-.52,0-12.51.4-21.05-6.82-1.32.09-2.44.11-3.25.11l-.17,3.85a3.51,3.51,0,0,1-.25,1.11A3.33,3.33,0,0,1,10,58.31a1.26,1.26,0,0,0-.76.89l0,.14a2.2,2.2,0,0,0,1.78,2.56A1.39,1.39,0,0,1,12.08,63l.72,2.45,0,.14h0a12,12,0,0,0,23.53,0Z"/><path class="b" d="M19.62,77.33v2.75a12.15,12.15,0,0,0,10,0V77.33a14.82,14.82,0,0,1-9.95,0Z"/><path class="b" d="M58.39,84.8A5.52,5.52,0,0,0,54.64,90v7.15H74V92.72L63.91,82.93Z"/><path class="b" d="M22.12,51A30.54,30.54,0,0,0,34.4,55.13a19.1,19.1,0,0,1-8.7-4.87C24.57,50.54,23.37,50.77,22.12,51Z"/><path class="b" d="M12,50h0a1.42,1.42,0,0,1,1.49-1.34c.12,0,12.75.57,19.78-4.82a1.41,1.41,0,0,1,1.71,2.24,22.15,22.15,0,0,1-6.08,3.21,17.52,17.52,0,0,0,8.69,3.57v-3.4a13,13,0,1,0-25.9,0v6a.79.79,0,0,0,.08-.26Z"/><path class="b" d="M73.24,2.82H36.84A3.57,3.57,0,0,0,33.27,6.4V25.84a3.57,3.57,0,0,0,3.57,3.57h2A3.13,3.13,0,0,1,42,32a9.27,9.27,0,0,0,3.16,5.85,13,13,0,0,1,1.26-4.76,7,7,0,0,1,6.53-3.65H73.24a3.59,3.59,0,0,0,3.58-3.57V6.4A3.59,3.59,0,0,0,73.24,2.82ZM38.09,8.51H59a1.41,1.41,0,1,1,0,2.82H38.09a1.41,1.41,0,0,1,0-2.82Zm0,6.23h4.4a1.42,1.42,0,0,1,0,2.83h-4.4a1.42,1.42,0,0,1,0-2.83ZM53.72,23.8H38.09a1.41,1.41,0,0,1,0-2.82H53.72a1.41,1.41,0,1,1,0,2.82Zm18.43,0H58.07a1.41,1.41,0,0,1,0-2.82H72.15a1.41,1.41,0,0,1,0,2.82Zm0-6.23H46.84a1.42,1.42,0,0,1,0-2.83H72.15a1.42,1.42,0,0,1,0,2.83Zm0-6.24h-9a1.41,1.41,0,1,1,0-2.82h9a1.41,1.41,0,0,1,0,2.82Z"/><path class="b" d="M76.8,92.74v4.44H96.17V90a5.51,5.51,0,0,0-3.75-5.22l-5.53-1.88ZM80,95.37H78.57a1.42,1.42,0,0,1,0-2.83H80a1.42,1.42,0,0,1,0,2.83Z"/><path class="b" d="M89.79,68.32a15.81,15.81,0,0,1-3,4.89,14.63,14.63,0,0,1-4.16,3.21v2.09l.07,0v0A7.62,7.62,0,0,0,90,69.36Z"/><polygon class="b" points="66.92 81.91 73.98 88.78 73.98 85.89 69.21 81.14 66.92 81.91"/><path class="b" d="M79.81,77.48a12.8,12.8,0,0,1-3.14.39H74.14A12.74,12.74,0,0,1,71,77.48v1.45l4.4,4.4,4.41-4.4Z"/><polygon class="b" points="76.8 88.81 83.89 81.91 81.6 81.14 76.8 85.92 76.8 88.81"/><path class="b" d="M89.74,58.17a1.38,1.38,0,0,1-1.11-.73,19,19,0,0,1-11.74-5,21.69,21.69,0,0,1-10.52,2.89.73.73,0,0,0-.2.26,3.62,3.62,0,0,1-4.05,1.94,1.41,1.41,0,0,1-1,.63,1.06,1.06,0,0,0-1,.82,1.74,1.74,0,0,0-.06.45,1.88,1.88,0,0,0,1.55,1.85,1.41,1.41,0,0,1,1.17,1.39,13,13,0,0,0,3.36,8.63,10.8,10.8,0,0,0,8,3.74h2.53a10.8,10.8,0,0,0,8-3.74A12.92,12.92,0,0,0,88,62.7a1.44,1.44,0,0,1,1.17-1.41l.12,0A1.88,1.88,0,0,0,90.71,59,1.07,1.07,0,0,0,89.74,58.17Z"/><path class="c" d="M7.19,83A8.9,8.9,0,0,0,1.3,89.11c0,.11-.06.22-.08.33A8,8,0,0,0,1,91.38v7.21A1.41,1.41,0,0,0,2.42,100H46.77a1.42,1.42,0,0,0,1.42-1.41V91.38A9,9,0,0,0,48,89.44l-.09-.33A8.9,8.9,0,0,0,42,83l-9.6-3.11V76a14.82,14.82,0,0,0,6.73-9.76l.51-1.77a5,5,0,0,0,3.11-5.9,4.09,4.09,0,0,0-2.37-2.81V49.49a15.78,15.78,0,0,0-31.56-.11v6.34a4.07,4.07,0,0,0-2.37,2.81,5,5,0,0,0,3.1,5.9l.52,1.77A14.76,14.76,0,0,0,16.8,76v4Zm4.46-33.54a12.95,12.95,0,1,1,25.9,0v3.4a17.52,17.52,0,0,1-8.69-3.57,22.15,22.15,0,0,0,6.08-3.21,1.41,1.41,0,0,0-1.71-2.24c-7,5.39-19.66,4.82-19.78,4.82A1.42,1.42,0,0,0,12,50h0l-.23,5.22a.79.79,0,0,1-.08.26ZM34.4,55.13A30.54,30.54,0,0,1,22.12,51c1.25-.2,2.45-.43,3.58-.71A19.1,19.1,0,0,0,34.4,55.13ZM12.83,65.61h0l0-.14L12.08,63a1.39,1.39,0,0,0-1.14-1.12,2.2,2.2,0,0,1-1.78-2.56l0-.14a1.26,1.26,0,0,1,.76-.89,3.33,3.33,0,0,0,4.35-1.82,3.51,3.51,0,0,0,.25-1.11l.17-3.85c.81,0,1.93,0,3.25-.11C26.51,58.64,38.5,58.26,39,58.24h0a1.31,1.31,0,0,1,1,1,2.22,2.22,0,0,1-1.62,2.67l-.14,0A1.39,1.39,0,0,0,37.11,63l-.71,2.45a.74.74,0,0,0,0,.14,12,12,0,0,1-23.53,0ZM29.57,77.33v2.75a12.15,12.15,0,0,1-9.95,0V77.33a14.82,14.82,0,0,0,10,0Zm-11.5,5.14a14.94,14.94,0,0,0,13.05,0l10,3.25a6.07,6.07,0,0,1,4,4.13l.06.23a5.68,5.68,0,0,1,.13,1.3v5.8H3.83v-5.8A5.54,5.54,0,0,1,4,90.09L4,89.85a6.11,6.11,0,0,1,4-4.13Z"/><path class="c" d="M80,92.54H78.57a1.42,1.42,0,0,0,0,2.83H80a1.42,1.42,0,0,0,0-2.83Z"/><path class="c" d="M75.5,34.24a15.91,15.91,0,0,0-16,15.8v5.12l0,.55a3.84,3.84,0,0,0-2.16,2.61,4.73,4.73,0,0,0,2.21,5.19l-1.34,5a10.44,10.44,0,0,0,4.83,11.7l-5.57,1.89A8.35,8.35,0,0,0,51.81,90v8.56A1.42,1.42,0,0,0,53.23,100H97.58A1.41,1.41,0,0,0,99,98.59V90a8.34,8.34,0,0,0-5.66-7.9l-5.91-2a10.43,10.43,0,0,0,5.35-11.34l-1.14-5.53a4.7,4.7,0,0,0,1.82-4.94,3.84,3.84,0,0,0-2.17-2.62l0-5.44A15.91,15.91,0,0,0,75.5,34.24Zm-.11,2.83A13.09,13.09,0,0,1,88.48,50.16v.09l0,4.35a16.27,16.27,0,0,1-9.22-3.83,23,23,0,0,0,5.13-6.32,1.41,1.41,0,1,0-2.46-1.39c-5,8.86-12.23,9.26-15.7,9.46h0a3.1,3.1,0,0,0-2.53,1.85.76.76,0,0,1-.37.36.79.79,0,0,1-.91-.15l0,0V50.16A13.11,13.11,0,0,1,75.39,37.07ZM62.08,75.61h0A7.61,7.61,0,0,1,61,69.27l.18-.67A15.92,15.92,0,0,0,64,73.21a14.73,14.73,0,0,0,4.15,3.21v2.09l-.79.27A7.58,7.58,0,0,1,62.08,75.61ZM74,97.18H54.64V90a5.52,5.52,0,0,1,3.75-5.23l5.52-1.87L74,92.72Zm0-8.4-7.06-6.87,2.29-.77L74,85.89Zm-3-9.85V77.48a12.74,12.74,0,0,0,3.14.39h2.53a12.8,12.8,0,0,0,3.14-.39v1.45l-4.41,4.4Zm10.6,2.21,2.29.77-7.09,6.9V85.92Zm10.82,3.67A5.51,5.51,0,0,1,96.17,90v7.15H76.8V92.74l10.09-9.81ZM88.5,75.65a7.58,7.58,0,0,1-5.8,2.86v0l-.07,0V76.42a14.63,14.63,0,0,0,4.16-3.21,15.81,15.81,0,0,0,3-4.89l.22,1A7.58,7.58,0,0,1,88.5,75.65Zm.83-14.38-.12,0A1.44,1.44,0,0,0,88,62.7a12.92,12.92,0,0,1-3.35,8.61,10.8,10.8,0,0,1-8,3.74H74.14a10.8,10.8,0,0,1-8-3.74,13,13,0,0,1-3.36-8.63,1.41,1.41,0,0,0-1.17-1.39A1.88,1.88,0,0,1,60,59.44,1.74,1.74,0,0,1,60.1,59a1.06,1.06,0,0,1,1-.82,1.41,1.41,0,0,0,1-.63,3.62,3.62,0,0,0,4.05-1.94.73.73,0,0,1,.2-.26,21.69,21.69,0,0,0,10.52-2.89,19,19,0,0,0,11.74,5,1.38,1.38,0,0,0,1.11.73,1.07,1.07,0,0,1,1,.82A1.88,1.88,0,0,1,89.33,61.27Z"/><path class="d" d="M73.24,0H36.84a6.41,6.41,0,0,0-6.4,6.4V25.84a6.42,6.42,0,0,0,6.4,6.4h2a.31.31,0,0,1,.32.22c1.14,6.45,5.37,8.47,6.37,8.86a1.4,1.4,0,0,0,.66.16h.21a1.5,1.5,0,0,0,1.22-1.13,10.1,10.1,0,0,0,.22-1.56c.32-3.45,1-6.54,5.05-6.54H73.24a6.42,6.42,0,0,0,6.4-6.4V6.4A6.41,6.41,0,0,0,73.24,0Zm3.58,25.84a3.59,3.59,0,0,1-3.58,3.57H52.92a7,7,0,0,0-6.53,3.65,13,13,0,0,0-1.26,4.76A9.27,9.27,0,0,1,42,32a3.13,3.13,0,0,0-3.1-2.56h-2a3.57,3.57,0,0,1-3.57-3.57V6.4a3.57,3.57,0,0,1,3.57-3.58h36.4A3.59,3.59,0,0,1,76.82,6.4Z"/><path class="d" d="M72.15,14.74H46.84a1.42,1.42,0,0,0,0,2.83H72.15a1.42,1.42,0,0,0,0-2.83Z"/><path class="d" d="M38.09,17.57h4.4a1.42,1.42,0,0,0,0-2.83h-4.4a1.42,1.42,0,0,0,0,2.83Z"/><path class="d" d="M72.15,8.51h-9a1.41,1.41,0,1,0,0,2.82h9a1.41,1.41,0,0,0,0-2.82Z"/><path class="d" d="M38.09,11.33H59a1.41,1.41,0,1,0,0-2.82H38.09a1.41,1.41,0,0,0,0,2.82Z"/><path class="d" d="M72.15,21H58.07a1.41,1.41,0,0,0,0,2.82H72.15a1.41,1.41,0,0,0,0-2.82Z"/><path class="d" d="M53.72,21H38.09a1.41,1.41,0,0,0,0,2.82H53.72a1.41,1.41,0,1,0,0-2.82Z"/></svg>