<svg xmlns="http://www.w3.org/2000/svg" viewBox="0 0 100 100"><defs><style>.a{fill:#e6e7e8;}.b{fill:none;}.c{fill:#21409a;}.d{fill:#ec008c;}</style></defs><path class="a" d="M43.15,39.11a30.77,30.77,0,0,0,11-2.13A38.3,38.3,0,0,0,59,34.69,19.83,19.83,0,0,1,57,32.88,39.18,39.18,0,0,1,49.09,37a31.86,31.86,0,0,1-8.45,2C41.47,39.07,42.31,39.11,43.15,39.11Z"/><path class="a" d="M37.2,44.57v0a1.77,1.77,0,0,0-1.46-1.73A3.35,3.35,0,0,1,33,39a2,2,0,0,1,0-.24c0-.1.06-.2.1-.3a25.35,25.35,0,0,1-3.7-1.2A2.06,2.06,0,0,0,28,38.71a3.35,3.35,0,0,0,2.46,4l.23.05a1.78,1.78,0,0,1,1.47,1.73v0A18.37,18.37,0,0,0,50.58,62.86a19.4,19.4,0,0,0,2.52-.17A18.36,18.36,0,0,1,37.2,44.57Z"/><path class="a" d="M48.08,68.91V64.7a23,23,0,0,1-5.38-1.19v5.4a20.34,20.34,0,0,0,10.49,1.38A20.45,20.45,0,0,1,48.08,68.91Z"/><path class="a" d="M34.75,76.18l9.41-4a22.8,22.8,0,0,1-2.69-1l-11.76,5a9,9,0,0,0-4.9,7.16V98.28h5.05V83.34A9,9,0,0,1,34.75,76.18Z"/><path class="b" d="M57.22,29.81H72.08V27.18H27.6v2.63h29A1.63,1.63,0,0,1,57.22,29.81Z"/><path class="b" d="M31.66,34.82c5.07,2,10.61,1.85,16.5-.4A31.2,31.2,0,0,0,52,32.65H31.51Z"/><path class="b" d="M67.94,34.58l.13-1.93h-7.6A8.77,8.77,0,0,0,67.94,34.58Z"/><path class="b" d="M65,12.69A20,20,0,0,0,60.17,8v.34a14.25,14.25,0,0,1-9.62,13.48,1.39,1.39,0,0,1-.9,0l-.29-.09A14.25,14.25,0,0,1,39.51,8.19V8a20,20,0,0,0-4.86,4.68,21.73,21.73,0,0,0-4.16,11.65h38.7A21.65,21.65,0,0,0,65,12.69Z"/><path class="b" d="M50.06,19A11.42,11.42,0,0,0,57.34,8.36V6.43a18.28,18.28,0,0,0-2.77-1,1.42,1.42,0,0,1-1-1.52l.11-1.09H46.05l.11,1.09a1.42,1.42,0,0,1-1,1.52,18.28,18.28,0,0,0-2.77,1V8.19A11.39,11.39,0,0,0,50.06,19ZM47.55,6.62h5.07a1.42,1.42,0,1,1,0,2.83H47.55a1.42,1.42,0,0,1,0-2.83Zm0,4.67h5.07a1.42,1.42,0,1,1,0,2.83H47.55a1.42,1.42,0,0,1,0-2.83Z"/><path class="c" d="M47.55,14.12h5.07a1.42,1.42,0,1,0,0-2.83H47.55a1.42,1.42,0,0,0,0,2.83Z"/><path class="c" d="M47.55,9.45h5.07a1.42,1.42,0,1,0,0-2.83H47.55a1.42,1.42,0,0,0,0,2.83Z"/><path class="b" d="M42.76,68.72a17.87,17.87,0,0,0,14.16,0v-5.3a20.29,20.29,0,0,1-14.16,0Z"/><polygon class="b" points="64.98 81.28 64.98 73.97 63.51 73.34 63.51 81.28 64.98 81.28"/><path class="b" d="M49.79,61.88A17.49,17.49,0,0,0,67.26,44.41v0A1.42,1.42,0,0,1,68.43,43a3.36,3.36,0,0,0,2.79-3.33,3.1,3.1,0,0,0-.1-.81,2.17,2.17,0,0,0-1.92-1.68,10,10,0,0,1-3.07.49c-4.39,0-7.84-2.93-9.41-4.56A35.76,35.76,0,0,1,49.26,37a28.47,28.47,0,0,1-10.19,2,23.14,23.14,0,0,1-9-1.8,2.14,2.14,0,0,0-1.59,1.61,3.1,3.1,0,0,0-.1.81A3.37,3.37,0,0,0,31.15,43a1.42,1.42,0,0,1,1.17,1.4v0A17.49,17.49,0,0,0,49.79,61.88Z"/><path class="b" d="M30.38,50.37,26,64.32a53.56,53.56,0,0,0,8.38.72l.77-3.21a1.41,1.41,0,1,1,2.75.66L37.26,65c.86,0,1.75-.09,2.66-.17V62.15A20.42,20.42,0,0,1,30.38,50.37Z"/><path class="b" d="M59.76,62.09v2.69c1.76.15,3.84.2,4.93.21l1.8-2.62a1.37,1.37,0,0,1,.65-.51,1.42,1.42,0,0,1,1.84.79l.87,2.21h0c1.82-.15,3.29-.37,4.28-.54L69.44,49.53A20.39,20.39,0,0,1,59.76,62.09Z"/><path class="b" d="M60.68,81.28V72.13l-2.27-1a20.75,20.75,0,0,1-17.14,0l-2.27,1v9.15Z"/><path class="b" d="M68.55,81.28A1.41,1.41,0,0,1,70,82.7V97.17h4.27V82.85a8.73,8.73,0,0,0-4.72-6.95l-1.7-.72v6.1Z"/><polygon class="b" points="36.17 81.28 36.17 73.34 34.7 73.97 34.7 81.28 36.17 81.28"/><path class="b" d="M32.55,84.11V97.17H67.13V84.11Zm4.3,3.32a1.42,1.42,0,1,1-2.83,0V86.14a1.42,1.42,0,1,1,2.83,0Zm28.81,0a1.42,1.42,0,1,1-2.83,0V86.14a1.42,1.42,0,1,1,2.83,0Z"/><path class="c" d="M64.25,84.72a1.41,1.41,0,0,0-1.42,1.42v1.29a1.42,1.42,0,1,0,2.83,0V86.14A1.41,1.41,0,0,0,64.25,84.72Z"/><path class="c" d="M35.43,84.72A1.41,1.41,0,0,0,34,86.14v1.29a1.42,1.42,0,1,0,2.83,0V86.14A1.41,1.41,0,0,0,35.43,84.72Z"/><path class="b" d="M29.71,82.7a1.42,1.42,0,0,1,1.42-1.42h.74v-6.1l-1.7.72a8.73,8.73,0,0,0-4.72,6.95V97.17h4.26Z"/><path class="d" d="M31.13,81.28a1.42,1.42,0,0,0-1.42,1.42V97.17h2.84V84.11H67.13V97.17H70V82.7a1.41,1.41,0,0,0-1.41-1.42h-.74v-6.1L65,74v7.31H63.51V73.34l-2.83-1.21v9.15H39V72.13l-2.83,1.21v7.94H34.7V74l-2.83,1.21v6.1Z"/><path class="c" d="M24,100h51.6a1.41,1.41,0,0,0,1.42-1.42V82.79a.49.49,0,0,0,0-.12,11.53,11.53,0,0,0-6.31-9.32l-.07,0L59.76,68.66v-1c2.56.2,5.52.2,5.67.2a1.43,1.43,0,0,0,1.17-.61l.72-1,.27.7a1.42,1.42,0,0,0,1.41.89,45.18,45.18,0,0,0,7.3-1,1.42,1.42,0,0,0,1-1.72l0-.09L71,45a6.24,6.24,0,0,0,2.9-6.86,5,5,0,0,0-3.11-3.52l.14-2H68.07l-.13,1.93a8.77,8.77,0,0,1-7.47-1.93H52a31.2,31.2,0,0,1-3.85,1.77c-5.89,2.25-11.43,2.38-16.5.4l-.15-2.17H28.67l.14,2a5,5,0,0,0-3.12,3.52A6.23,6.23,0,0,0,29,45.25L22.77,65a1.42,1.42,0,0,0,.93,1.78l.09,0a50.12,50.12,0,0,0,11.08,1.11c1.57,0,3.27-.06,5.05-.22v1L29,73.31l-.07,0a11.56,11.56,0,0,0-6.32,9.32V98.58A1.41,1.41,0,0,0,24,100ZM74.13,64.32c-1,.17-2.46.39-4.28.54h0L69,62.65a1.42,1.42,0,0,0-1.84-.79,1.37,1.37,0,0,0-.65.51L64.69,65c-1.09,0-3.17-.06-4.93-.21V62.09a20.39,20.39,0,0,0,9.68-12.56Zm-34.21.51c-.91.08-1.8.14-2.66.17l.59-2.51a1.41,1.41,0,1,0-2.75-.66L34.33,65A53.56,53.56,0,0,1,26,64.32l4.43-13.95a20.42,20.42,0,0,0,9.54,11.78Zm-7.6-20.42v0A1.42,1.42,0,0,0,31.15,43a3.37,3.37,0,0,1-2.8-3.33,3.1,3.1,0,0,1,.1-.81A2.14,2.14,0,0,1,30,37.23a23.14,23.14,0,0,0,9,1.8,28.47,28.47,0,0,0,10.19-2,35.76,35.76,0,0,0,7.46-3.95c1.57,1.63,5,4.56,9.41,4.56a10,10,0,0,0,3.07-.49,2.17,2.17,0,0,1,1.92,1.68,3.1,3.1,0,0,1,.1.81A3.36,3.36,0,0,1,68.43,43a1.42,1.42,0,0,0-1.17,1.4v0A17.49,17.49,0,0,1,49.79,61.88h0A17.49,17.49,0,0,1,32.32,44.41Zm24.6,19v5.3a17.87,17.87,0,0,1-14.16,0V63.46A20.29,20.29,0,0,0,56.92,63.42ZM25.45,82.85a8.73,8.73,0,0,1,4.72-6.95l1.7-.72L34.7,74l1.47-.63L39,72.13l2.27-1a20.75,20.75,0,0,0,17.14,0l2.27,1,2.83,1.21L65,74l2.83,1.21,1.7.72a8.73,8.73,0,0,1,4.72,6.95V97.17H70v1.44H67.13V97.17H32.55v1.44H29.71V97.17H25.45Z"/><path class="c" d="M56.56,29.81h.66A1.63,1.63,0,0,0,56.56,29.81Z"/><rect class="d" x="67.13" y="97.17" width="2.83" height="1.44"/><rect class="d" x="29.71" y="97.17" width="2.83" height="1.44"/><path class="d" d="M31.41,31.13l.1,1.52H52a31.86,31.86,0,0,0,4-2.57l0,0a1.38,1.38,0,0,1,.5-.25h-29V27.18H72.08v2.63H57.22a1.38,1.38,0,0,1,.83.51,14.58,14.58,0,0,0,2.42,2.33h7.6l.1-1.52,2.83.2-.09,1.32h2.58a1.41,1.41,0,0,0,1.42-1.42V25.77a1.41,1.41,0,0,0-1.42-1.42H72A24.56,24.56,0,0,0,67.31,11,22.31,22.31,0,0,0,56.46,3.05l.16-1.49A1.42,1.42,0,0,0,55.35,0H44.47a1.41,1.41,0,0,0-1.41,1.42v.14l.16,1.49a22.28,22.28,0,0,0-10.85,8,24.66,24.66,0,0,0-4.72,13.33H26.19a1.41,1.41,0,0,0-1.42,1.42v5.46a1.41,1.41,0,0,0,1.42,1.42h2.48l-.09-1.32ZM42.34,6.43a18.28,18.28,0,0,1,2.77-1,1.42,1.42,0,0,0,1-1.52l-.11-1.09h7.58l-.11,1.09a1.42,1.42,0,0,0,1,1.52,18.28,18.28,0,0,1,2.77,1V8.36A11.42,11.42,0,0,1,50.06,19,11.39,11.39,0,0,1,42.34,8.19ZM34.65,12.7A20,20,0,0,1,39.51,8v.17a14.25,14.25,0,0,0,9.85,13.57l.29.09a1.39,1.39,0,0,0,.9,0A14.25,14.25,0,0,0,60.17,8.36V8A20,20,0,0,1,65,12.69a21.65,21.65,0,0,1,4.16,11.66H30.49A21.73,21.73,0,0,1,34.65,12.7Z"/><path class="d" d="M58.05,30.32a1.38,1.38,0,0,0-.83-.51h-.66a1.38,1.38,0,0,0-.5.25l0,0a31.86,31.86,0,0,1-4,2.57h8.46A14.58,14.58,0,0,1,58.05,30.32Z"/><polygon class="d" points="31.41 31.13 28.58 31.33 28.67 32.65 31.52 32.65 31.41 31.13"/><polygon class="d" points="68.17 31.13 68.07 32.65 70.91 32.65 71 31.33 68.17 31.13"/></svg>