<svg xmlns="http://www.w3.org/2000/svg" viewBox="0 0 100 100"><defs><style>.a{fill:#e6e7e8;}.b{fill:none;}.c{fill:#21409a;}.d{fill:#ec008c;}</style></defs><path class="a" d="M70.44,76.88A12.17,12.17,0,0,1,82.59,64.72a12,12,0,0,1,5.55,1.35A12.15,12.15,0,1,0,71.78,82.43,11.93,11.93,0,0,1,70.44,76.88Z"/><path class="a" d="M15.8,91.24A12.16,12.16,0,0,1,28,79.09a11.93,11.93,0,0,1,5.55,1.34A12.16,12.16,0,1,0,17.14,96.79,12.18,12.18,0,0,1,15.8,91.24Z"/><path class="b" d="M77.31,61.3a10.29,10.29,0,1,0,0,20.57h0a10.29,10.29,0,0,0,0-20.57Z"/><path class="b" d="M22.69,75.69a10.29,10.29,0,0,0,0,20.57h0a10.29,10.29,0,0,0,0-20.57Z"/><path class="c" d="M91.33,12.4a12.24,12.24,0,0,0-4.51-9.56h0A12.3,12.3,0,0,0,79,0a13,13,0,0,0-2.39.23L43,6.76A12.48,12.48,0,0,0,33,18.93V76.46a14,14,0,0,1,3.73,8.84s0,0,0-.08V18.93a8.67,8.67,0,0,1,7-8.49L77.29,3.92a8.64,8.64,0,0,1,10.3,8.48V62.13a14,14,0,0,1,3.71,9,2.3,2.3,0,0,0,0-.26Z"/><path class="d" d="M89.46,72.72a1.87,1.87,0,0,1-1.87-1.87V62.13a14,14,0,1,0,3.74,9.48c0-.17,0-.33,0-.5A1.86,1.86,0,0,1,89.46,72.72ZM77.31,81.87h0A10.29,10.29,0,1,1,87.59,71.59,10.29,10.29,0,0,1,77.31,81.87Z"/><path class="d" d="M87.59,70.85a1.86,1.86,0,0,0,3.71.26,14,14,0,0,0-3.71-9Z"/><path class="d" d="M34.82,87.08A1.87,1.87,0,0,1,33,85.22V76.46A14,14,0,1,0,36.72,86c0-.23,0-.45,0-.68A1.87,1.87,0,0,1,34.82,87.08ZM22.7,96.26h0A10.29,10.29,0,1,1,33,86,10.29,10.29,0,0,1,22.69,96.26Z"/><path class="d" d="M33,85.22a1.87,1.87,0,0,0,3.73.08A14,14,0,0,0,33,76.46Z"/></svg>