<svg xmlns="http://www.w3.org/2000/svg" viewBox="0 0 100 100"><defs><style>.a{fill:#e6e7e8;}.b{fill:none;}.c{fill:#21409a;}.d{fill:#ec008c;}</style></defs><path class="a" d="M26.5,23.29H21.37V13.57a2.73,2.73,0,0,1,2.81-2.67h4.49l2.76-7.74A2.8,2.8,0,0,1,34,1.28H27.62A2.8,2.8,0,0,0,25,3.16L22.26,10.9H17.77A2.73,2.73,0,0,0,15,13.57v9.72h5.13l1.2,15.17H27.7Z"/><path class="a" d="M24.32,76.71l1.75,22h6.41l-1.75-22Z"/><path class="b" d="M50,71.13A14.56,14.56,0,0,1,41,67.74H22.41l.6,7.69H77l.61-7.69H58.93A14.58,14.58,0,0,1,50,71.13Z"/><path class="b" d="M57.64,51A12.12,12.12,0,0,0,50,47.88,12.09,12.09,0,0,0,42.31,51a1.32,1.32,0,0,1-.83.3H21.1l1.1,13.89H41.48a1.32,1.32,0,0,1,.83.3A12.09,12.09,0,0,0,50,68.57a12.12,12.12,0,0,0,7.67-3.1,1.3,1.3,0,0,1,.83-.3H77.8l1.11-13.89H58.47A1.3,1.3,0,0,1,57.64,51Z"/><polygon class="b" points="72.51 97.44 74.36 77.99 25.61 77.99 27.27 97.44 72.51 97.44"/><path class="b" d="M20.89,48.72H41A14.49,14.49,0,0,1,50,45.32a14.54,14.54,0,0,1,9,3.4H79.11l.72-9H20.17Z"/><path class="b" d="M74,3.67a1.56,1.56,0,0,0-1.4-1.11H27.62a1.58,1.58,0,0,0-1.4,1.08L24,9.83H76Z"/><path class="b" d="M83.76,13.78a1.46,1.46,0,0,0-1.53-1.39H17.77a1.46,1.46,0,0,0-1.53,1.39V22H83.76ZM23.81,17.52H22.9a1.28,1.28,0,1,1,0-2.56h.91a1.28,1.28,0,1,1,0,2.56Zm21.59,0H27.87a1.28,1.28,0,1,1,0-2.56H45.4a1.28,1.28,0,1,1,0,2.56Z"/><polygon class="b" points="78.61 24.57 21.39 24.57 22.43 37.18 77.57 37.18 78.61 24.57"/><path class="c" d="M72.51,97.44H27.27L25.61,78H23l1.79,20.8A1.31,1.31,0,0,0,26.09,100H73.68A1.31,1.31,0,0,0,75,98.79l2-20.8H74.36Z"/><path class="c" d="M85,24.57a1.28,1.28,0,0,0,1.33-1.23V13.78a4,4,0,0,0-4.09-3.95H78.71l-2.31-7A4.12,4.12,0,0,0,72.57,0H27.62a4.15,4.15,0,0,0-3.81,2.77l-2.5,7.06H17.77a4,4,0,0,0-4.09,3.95v9.56A1.28,1.28,0,0,0,15,24.57h3.8l1,12.61h2.58l-1-12.61H78.61l-1,12.61h2.57l1-12.61ZM26.22,3.64a1.58,1.58,0,0,1,1.4-1.08H72.57A1.56,1.56,0,0,1,74,3.67l2,6.16H24ZM16.24,22V13.78a1.46,1.46,0,0,1,1.53-1.39H82.23a1.46,1.46,0,0,1,1.53,1.39V22Z"/><path class="c" d="M23.81,15H22.9a1.28,1.28,0,1,0,0,2.56h.91a1.28,1.28,0,1,0,0-2.56Z"/><path class="c" d="M45.4,15H27.87a1.28,1.28,0,1,0,0,2.56H45.4a1.28,1.28,0,1,0,0-2.56Z"/><path class="d" d="M77.49,38.16l.08-1H22.43l.09,1.15L20,38.55l-.12-1.37H18.78a1.25,1.25,0,0,0-1.28,1.2v.15l3.05,38.25A1.3,1.3,0,0,0,21.83,78H23l-.11-1.35,2.55-.2L25.61,78H74.36l.14-1.47,2.55.21L76.93,78h1.24a1.31,1.31,0,0,0,1.28-1.22l3-38.22a1.34,1.34,0,0,0-.34-1,1.25,1.25,0,0,0-.94-.39H80.14L80,38.36ZM77,75.43H23l-.6-7.69H41A14.56,14.56,0,0,0,50,71.13a14.58,14.58,0,0,0,9-3.39H77.6Zm.81-10.26H58.47a1.3,1.3,0,0,0-.83.3A12.12,12.12,0,0,1,50,68.57a12.09,12.09,0,0,1-7.66-3.1,1.32,1.32,0,0,0-.83-.3H22.2L21.1,51.28H41.48a1.32,1.32,0,0,0,.83-.3A12.09,12.09,0,0,1,50,47.88,12.12,12.12,0,0,1,57.64,51a1.3,1.3,0,0,0,.83.3H78.91Zm1.31-16.45H58.93a14.54,14.54,0,0,0-9-3.4A14.49,14.49,0,0,0,41,48.72H20.89l-.72-9H79.83Z"/><polygon class="d" points="25.47 76.44 22.92 76.64 23.03 77.99 25.61 77.99 25.47 76.44"/><polygon class="d" points="74.5 76.52 74.36 77.99 76.93 77.99 77.05 76.73 74.5 76.52"/><polygon class="d" points="22.52 38.33 22.43 37.18 19.85 37.18 19.97 38.55 22.52 38.33"/><polygon class="d" points="77.49 38.16 80.04 38.36 80.14 37.18 77.57 37.18 77.49 38.16"/></svg>