<svg xmlns="http://www.w3.org/2000/svg" viewBox="0 0 100 100"><defs><style>.a{fill:#e6e7e8;}.b{fill:none;}.c{fill:#21409a;}.d{fill:#ec008c;}</style></defs><path class="a" d="M28.05,66.55c-.09-.2-.19-.4-.29-.59v0a3.8,3.8,0,0,1-.18-.74A90.14,90.14,0,0,1,26.7,49c.09-2.6.29-5.06.56-7.37a7.38,7.38,0,0,1,5-6.12,74.43,74.43,0,0,1,18.68-3.67c.58,0,1.14-.07,1.71-.09a67.84,67.84,0,0,0-7.81.09,74.27,74.27,0,0,0-18.67,3.67,7.37,7.37,0,0,0-5,6.12c-.28,2.31-.48,4.77-.57,7.37a90.14,90.14,0,0,0,.87,16.25,3.22,3.22,0,0,0,.19.74v0l.3.59a3.5,3.5,0,0,0,2,1.54,92.11,92.11,0,0,0,25.67,3.66c1.06,0,2.09,0,3.09,0a92.07,92.07,0,0,1-22.66-3.61,3.49,3.49,0,0,1-2-1.54Z"/><path class="b" d="M3.79,30.35c-1.83,1.51-1.64,6.38-.31,10,1.27,3.41,3.46,5.34,5.77,7.37l1.12,1a53.65,53.65,0,0,1,9.27,11.16,93.06,93.06,0,0,1-.26-11c.09-2.49.28-5,.58-7.47a8.34,8.34,0,0,1,1.36-3.7C13.3,30.66,6.17,28.4,3.79,30.35Z"/><path class="b" d="M76.16,40.91a6.19,6.19,0,0,0-3.81-4,64.89,64.89,0,0,0-22.73-4c-1.51,0-3.08,0-4.71.16a73,73,0,0,0-18.37,3.61,6.17,6.17,0,0,0-4.16,5.1c-.29,2.41-.47,4.85-.56,7.27a89.65,89.65,0,0,0,.86,16,2.11,2.11,0,0,0,.12.48L23,66a2.31,2.31,0,0,0,1.3,1,90.85,90.85,0,0,0,25.33,3.61h.07A78.64,78.64,0,0,0,72.78,67.2,4.75,4.75,0,0,0,76,64a40.85,40.85,0,0,0,1.89-13.1A38,38,0,0,0,76.16,40.91Zm-46.32,1a105.15,105.15,0,0,1,39.38,0,1.22,1.22,0,0,1-.46,2.39,103.25,103.25,0,0,0-38.47,0,1.22,1.22,0,1,1-.45-2.39ZM69.28,62.8A82.56,82.56,0,0,1,50,65.18h-.46A82.62,82.62,0,0,1,29.78,62.8h0a1.22,1.22,0,0,1,.6-2.36A81,81,0,0,0,50,62.75,81.44,81.44,0,0,0,68.7,60.44a1.22,1.22,0,1,1,.58,2.36Zm-.29-9H30.07a1.22,1.22,0,0,1,0-2.44H69a1.22,1.22,0,0,1,0,2.44Z"/><path class="b" d="M88.77,30.37a36.38,36.38,0,0,0-11.53,7.31,8.54,8.54,0,0,1,1.25,2.53,39.79,39.79,0,0,1,1.84,10.63A38.7,38.7,0,0,1,80,57.47a46.14,46.14,0,0,1,9.47-9.95,32.36,32.36,0,0,1,2.94-2,6.9,6.9,0,0,0,2.38-2A14.86,14.86,0,0,0,97.53,36c.2-2.53-.34-4.69-1.42-5.64C94.81,29.18,92.07,29.2,88.77,30.37Z"/><path class="c" d="M30.29,44.25a103.25,103.25,0,0,1,38.47,0,1.22,1.22,0,0,0,.46-2.39,105.15,105.15,0,0,0-39.38,0,1.22,1.22,0,1,0,.45,2.39Z"/><path class="c" d="M69,51.32H30.07a1.22,1.22,0,0,0,0,2.44H69a1.22,1.22,0,0,0,0-2.44Z"/><path class="c" d="M68.7,60.44A81.44,81.44,0,0,1,50,62.75a81,81,0,0,1-19.62-2.31,1.22,1.22,0,0,0-.6,2.36h0a82.62,82.62,0,0,0,19.75,2.39H50A82.56,82.56,0,0,0,69.28,62.8a1.22,1.22,0,1,0-.58-2.36Z"/><path class="d" d="M75.55,35.92a8.67,8.67,0,0,0-2.38-1.32,67.69,67.69,0,0,0-28.42-4,75.84,75.84,0,0,0-19,3.73,8.7,8.7,0,0,0-2.84,1.61C14.44,28.42,6,25.36,2.24,28.46-1,31.12-.15,37.52,1.2,41.18c1.47,4,4,6.21,6.44,8.36l1.09,1a53.78,53.78,0,0,1,11.85,16,4.87,4.87,0,0,0,.28.56l0,.06h0a4.68,4.68,0,0,0,2.74,2.11,93.07,93.07,0,0,0,26,3.71h.07a81,81,0,0,0,23.75-3.43,7.18,7.18,0,0,0,4.57-4s0,0,0,0a45.78,45.78,0,0,1,12.85-16,30,30,0,0,1,2.74-1.86,9.31,9.31,0,0,0,3-2.61c3.94-5.16,4.46-13.49,1-16.5C93.64,24.91,84.23,28.1,75.55,35.92ZM20,41.44c-.3,2.47-.49,5-.58,7.47a93.06,93.06,0,0,0,.26,11A53.65,53.65,0,0,0,10.37,48.7l-1.12-1c-2.31-2-4.5-4-5.77-7.37-1.33-3.6-1.52-8.47.31-10,2.38-2,9.51.31,17.53,7.39A8.34,8.34,0,0,0,20,41.44ZM76,64a4.75,4.75,0,0,1-3.23,3.19,78.64,78.64,0,0,1-23.06,3.33h-.07a90.85,90.85,0,0,1-25.33-3.61A2.31,2.31,0,0,1,23,66l-.22-.44a2.11,2.11,0,0,1-.12-.48,89.65,89.65,0,0,1-.86-16c.09-2.42.27-4.86.56-7.27a6.17,6.17,0,0,1,4.16-5.1A73,73,0,0,1,44.91,33c1.63-.11,3.2-.16,4.71-.16a64.89,64.89,0,0,1,22.73,4,6.19,6.19,0,0,1,3.81,4,38,38,0,0,1,1.74,10A40.85,40.85,0,0,1,76,64ZM97.53,36a14.86,14.86,0,0,1-2.78,7.55,6.9,6.9,0,0,1-2.38,2,32.36,32.36,0,0,0-2.94,2A46.14,46.14,0,0,0,80,57.47a38.7,38.7,0,0,0,.37-6.63,39.79,39.79,0,0,0-1.84-10.63,8.54,8.54,0,0,0-1.25-2.53,36.38,36.38,0,0,1,11.53-7.31c3.3-1.17,6-1.19,7.34-.05C97.19,31.27,97.73,33.43,97.53,36Z"/></svg>