<svg xmlns="http://www.w3.org/2000/svg" viewBox="0 0 100 100"><defs><style>.a{fill:#e6e7e8;}.b{fill:none;}.c{fill:#21409a;}.d{fill:#ec008c;}</style></defs><path class="a" d="M62.81,78.88H37.19v7.61h4.24V78.88Z"/><path class="a" d="M41.43,92.29V89H37.19v3.26a5.18,5.18,0,0,0,5.17,5.17H46.6A5.18,5.18,0,0,1,41.43,92.29Z"/><path class="a" d="M33.41,55.2a30.48,30.48,0,0,1-9.57-23.43,30.12,30.12,0,0,1,8.67-20A30.58,30.58,0,0,1,52.07,2.61a33,33,0,0,0-4,0A30.47,30.47,0,0,0,29.17,55.2a22.22,22.22,0,0,1,6.61,19.18l-.25,2h4.23l.26-2A22.25,22.25,0,0,0,33.41,55.2Z"/><path class="b" d="M35.72,28.64a21.69,21.69,0,0,0-6.53-.31,11.62,11.62,0,0,1,2.1,4.83c.12.65.17,1.29.23,1.92,0,.44.08.86.14,1.27A6.1,6.1,0,0,0,32.07,38a5.09,5.09,0,0,0,4.49,3.09,6.1,6.1,0,0,0,5-1.91,39.84,39.84,0,0,0-9-7l-.08,0a1.27,1.27,0,0,1-.4-1.75,1.29,1.29,0,0,1,1.76-.4,43.42,43.42,0,0,1,8.94,6.85A5.93,5.93,0,0,0,42,32.2C40.56,30,37.79,29.07,35.72,28.64Z"/><path class="b" d="M70.89,10.87A30.44,30.44,0,1,0,29.17,55.2a22.22,22.22,0,0,1,6.61,19.18l-.25,2H49.05a45.38,45.38,0,0,0,1.71-16A38.36,38.36,0,0,0,49.46,53a1.12,1.12,0,0,1-.08-.26,33,33,0,0,0-6.13-11.68,8.63,8.63,0,0,1-6.19,2.56l-.7,0A7.68,7.68,0,0,1,29.72,39a8.91,8.91,0,0,1-.58-2.27c-.07-.47-.11-.94-.15-1.39,0-.6-.11-1.16-.2-1.7a9.08,9.08,0,0,0-3-5.19,1.2,1.2,0,0,1-.41-.69,1.26,1.26,0,0,1,1-1.51,24,24,0,0,1,9.87-.07c3.64.75,6.36,2.36,7.88,4.64a8.49,8.49,0,0,1,.62,8.1,35.23,35.23,0,0,1,5.79,9.46c.23-.57.51-1.18.83-1.82a9.88,9.88,0,0,1-1.24-2.7,10.76,10.76,0,0,1,3.35-11c2.69-2.28,6.64-3.28,11.42-2.9a31.33,31.33,0,0,1,12.35,3.66,1.26,1.26,0,0,1,.56.6,1.28,1.28,0,0,1-.64,1.68,12.33,12.33,0,0,0-5.88,5.68c-.33.66-.61,1.37-.9,2.11-.22.56-.44,1.13-.69,1.7A11.45,11.45,0,0,1,68.17,48a9.55,9.55,0,0,1-7.52,3.54,11,11,0,0,1-2.21-.23,11.31,11.31,0,0,1-5.27-2.64,17.65,17.65,0,0,0-1.23,3.81,40,40,0,0,1,1.36,7.82,48,48,0,0,1-1.59,16.07H64.44l-.2-4a21.79,21.79,0,0,1,6.61-17.18c.43-.41.85-.83,1.25-1.25h0A30.48,30.48,0,0,0,70.89,10.87Z"/><path class="b" d="M52.88,44a22.48,22.48,0,0,1,14.23-9,1.27,1.27,0,1,1,.53,2.49c-5.85,1.24-10.27,4.16-13.14,8.69l-.09.14A8.73,8.73,0,0,0,59,48.79a7.14,7.14,0,0,0,7.24-2.42,8.63,8.63,0,0,0,1.18-2c.23-.51.43-1,.65-1.58a24.37,24.37,0,0,1,1-2.32,14.75,14.75,0,0,1,4.91-5.63,28.82,28.82,0,0,0-9.22-2.32c-.54,0-1.12-.07-1.73-.07-2.6,0-5.63.49-7.85,2.37h0a8.28,8.28,0,0,0-2.54,8.32A6.41,6.41,0,0,0,52.88,44Z"/><path class="b" d="M37.19,92.29a5.18,5.18,0,0,0,5.17,5.17H57.64a5.18,5.18,0,0,0,5.17-5.17V89H37.19Z"/><rect class="b" x="37.19" y="78.88" width="25.62" height="7.62"/><path class="c" d="M74,55.71a33,33,0,1,0-46.52,1.34,19.68,19.68,0,0,1,5.83,17l-.34,2.61a1.74,1.74,0,0,0,.3,1.43,1.9,1.9,0,0,0,1.43.79V92.29A7.71,7.71,0,0,0,42.36,100H57.64a7.72,7.72,0,0,0,7.72-7.71V78.83A2.07,2.07,0,0,0,67,76.75v0l-.24-4.46h0A19.25,19.25,0,0,1,72.6,57.06Q73.29,56.4,74,55.71ZM62.81,92.29a5.18,5.18,0,0,1-5.17,5.17H42.36a5.18,5.18,0,0,1-5.17-5.17V89H62.81Zm0-5.8H37.19V78.88H62.81ZM72.1,54c-.4.42-.82.84-1.25,1.25a21.79,21.79,0,0,0-6.61,17.18l.2,4H51.71c-.28,1-.48,1.55-.51,1.64a1.27,1.27,0,0,1-2.39-.87s.1-.29.24-.77H35.53l.25-2A22.22,22.22,0,0,0,29.17,55.2,30.51,30.51,0,0,1,19.6,31.77a30.47,30.47,0,0,1,51.29-20.9A30.48,30.48,0,0,1,72.11,54Z"/><path class="d" d="M53.3,60.27a40,40,0,0,0-1.36-7.82,17.65,17.65,0,0,1,1.23-3.81,11.31,11.31,0,0,0,5.27,2.64,11,11,0,0,0,2.21.23A9.55,9.55,0,0,0,68.17,48a11.45,11.45,0,0,0,1.52-2.57c.25-.57.47-1.14.69-1.7.29-.74.57-1.45.9-2.11a12.33,12.33,0,0,1,5.88-5.68,1.28,1.28,0,0,0,.64-1.68,1.26,1.26,0,0,0-.56-.6A31.33,31.33,0,0,0,64.89,30c-4.78-.38-8.73.62-11.42,2.9a10.76,10.76,0,0,0-3.35,11,9.88,9.88,0,0,0,1.24,2.7c-.32.64-.6,1.25-.83,1.82a35.23,35.23,0,0,0-5.79-9.46,8.49,8.49,0,0,0-.62-8.1c-1.52-2.28-4.24-3.89-7.88-4.64a24,24,0,0,0-9.87.07,1.26,1.26,0,0,0-1,1.51,1.2,1.2,0,0,0,.41.69,9.08,9.08,0,0,1,3,5.19c.09.54.15,1.1.2,1.7,0,.45.08.92.15,1.39A8.91,8.91,0,0,0,29.72,39a7.68,7.68,0,0,0,6.64,4.64l.7,0a8.63,8.63,0,0,0,6.19-2.56,33,33,0,0,1,6.13,11.68,1.12,1.12,0,0,0,.08.26,38.36,38.36,0,0,1,1.3,7.36,45.38,45.38,0,0,1-1.71,16h2.66A48,48,0,0,0,53.3,60.27Zm1.81-25.46h0c2.22-1.88,5.25-2.37,7.85-2.37.61,0,1.19,0,1.73.07a28.82,28.82,0,0,1,9.22,2.32A14.75,14.75,0,0,0,69,40.46a24.37,24.37,0,0,0-1,2.32c-.22.55-.42,1.07-.65,1.58a8.63,8.63,0,0,1-1.18,2A7.14,7.14,0,0,1,59,48.79a8.73,8.73,0,0,1-4.54-2.49l.09-.14c2.87-4.53,7.29-7.45,13.14-8.69A1.27,1.27,0,1,0,67.11,35a22.48,22.48,0,0,0-14.23,9,6.41,6.41,0,0,1-.31-.87A8.28,8.28,0,0,1,55.11,34.81Zm-12.33,2a43.42,43.42,0,0,0-8.94-6.85,1.29,1.29,0,0,0-1.76.4,1.27,1.27,0,0,0,.4,1.75l.08,0a39.84,39.84,0,0,1,9,7,6.1,6.1,0,0,1-5,1.91A5.09,5.09,0,0,1,32.07,38a6.1,6.1,0,0,1-.41-1.63c-.06-.41-.1-.83-.14-1.27-.06-.63-.11-1.27-.23-1.92a11.62,11.62,0,0,0-2.1-4.83,21.69,21.69,0,0,1,6.53.31c2.07.43,4.84,1.39,6.28,3.56A5.93,5.93,0,0,1,42.78,36.77Z"/><path class="c" d="M48.81,77.11A1.27,1.27,0,0,0,51.2,78c0-.09.23-.67.51-1.64H49.05C48.91,76.82,48.81,77.09,48.81,77.11Z"/></svg>