<svg xmlns="http://www.w3.org/2000/svg" viewBox="0 0 100 100"><defs><style>.a{fill:#e6e7e8;}.b{fill:none;}.c{fill:#21409a;}.d{fill:#ec008c;}</style></defs><path class="a" d="M52.27,15.82A34.23,34.23,0,1,0,86.5,50.05,34.26,34.26,0,0,0,52.27,15.82Zm0,64.91A30.68,30.68,0,1,1,83,50.05,30.71,30.71,0,0,1,52.27,80.73Z"/><path class="b" d="M50,42.45h0A7.55,7.55,0,1,0,57.55,50,7.56,7.56,0,0,0,50,42.45Z"/><path class="b" d="M51.78,19.38v8.91a1.78,1.78,0,0,1-3.56,0V19.38A30.71,30.71,0,0,0,19.38,48.22h8.91a1.78,1.78,0,0,1,0,3.56H19.38A30.71,30.71,0,0,0,48.22,80.62V71.71a1.78,1.78,0,1,1,3.56,0v8.91A30.71,30.71,0,0,0,80.62,51.78H71.71a1.78,1.78,0,0,1,0-3.56h8.91A30.71,30.71,0,0,0,51.78,19.38ZM50,61.1A11.1,11.1,0,1,1,61.1,50,11.11,11.11,0,0,1,50,61.1Z"/><path class="c" d="M51.78,15.81v-14a1.78,1.78,0,0,0-3.56,0v14c.59,0,1.18,0,1.78,0S51.19,15.78,51.78,15.81Z"/><path class="c" d="M50,30.07a1.78,1.78,0,0,0,1.78-1.78V19.38c-.59,0-1.18-.06-1.78-.06s-1.19,0-1.78.06v8.91A1.78,1.78,0,0,0,50,30.07Z"/><path class="c" d="M50,69.93a1.78,1.78,0,0,0-1.78,1.78v8.91c.59,0,1.18.06,1.78.06s1.19,0,1.78-.06V71.71A1.78,1.78,0,0,0,50,69.93Z"/><path class="c" d="M48.22,84.19v14a1.78,1.78,0,0,0,3.56,0v-14c-.59,0-1.18,0-1.78,0S48.81,84.22,48.22,84.19Z"/><path class="c" d="M69.93,50a1.78,1.78,0,0,0,1.78,1.78h8.91c0-.59.06-1.18.06-1.78s0-1.19-.06-1.78H71.71A1.78,1.78,0,0,0,69.93,50Z"/><path class="c" d="M98.22,48.22h-14c0,.59,0,1.18,0,1.78s0,1.19,0,1.78h14a1.78,1.78,0,0,0,0-3.56Z"/><path class="c" d="M30.07,50a1.78,1.78,0,0,0-1.78-1.78H19.38c0,.59-.06,1.18-.06,1.78s0,1.19.06,1.78h8.91A1.78,1.78,0,0,0,30.07,50Z"/><path class="c" d="M15.81,48.22h-14a1.78,1.78,0,0,0,0,3.56h14c0-.59,0-1.18,0-1.78S15.78,48.81,15.81,48.22Z"/><path class="c" d="M50,38.9A11.1,11.1,0,1,0,61.1,50,11.11,11.11,0,0,0,50,38.9Zm0,18.65a7.55,7.55,0,0,1,0-15.1h0a7.55,7.55,0,0,1,0,15.1Z"/><path class="d" d="M51.78,80.62v3.57A34.29,34.29,0,0,0,84.19,51.78H80.62A30.71,30.71,0,0,1,51.78,80.62Z"/><path class="d" d="M19.38,51.78H15.81A34.29,34.29,0,0,0,48.22,84.19V80.62A30.71,30.71,0,0,1,19.38,51.78Z"/><path class="d" d="M48.22,19.38V15.81A34.29,34.29,0,0,0,15.81,48.22h3.57A30.71,30.71,0,0,1,48.22,19.38Z"/><path class="d" d="M80.62,48.22h3.57A34.29,34.29,0,0,0,51.78,15.81v3.57A30.71,30.71,0,0,1,80.62,48.22Z"/><path class="d" d="M50,19.32c.6,0,1.19,0,1.78.06V15.81c-.59,0-1.18,0-1.78,0s-1.19,0-1.78,0v3.57C48.81,19.34,49.4,19.32,50,19.32Z"/><path class="d" d="M50,80.68c-.6,0-1.19,0-1.78-.06v3.57c.59,0,1.18,0,1.78,0s1.19,0,1.78,0V80.62C51.19,80.66,50.6,80.68,50,80.68Z"/><path class="d" d="M84.19,48.22H80.62c0,.59.06,1.18.06,1.78s0,1.19-.06,1.78h3.57c0-.59,0-1.18,0-1.78S84.22,48.81,84.19,48.22Z"/><path class="d" d="M19.32,50c0-.6,0-1.19.06-1.78H15.81c0,.59,0,1.18,0,1.78s0,1.19,0,1.78h3.57C19.34,51.19,19.32,50.6,19.32,50Z"/></svg>