<svg xmlns="http://www.w3.org/2000/svg" viewBox="0 0 100 100"><defs><style>.a{fill:#e6e7e8;}.b{fill:none;}.c{fill:#21409a;}.d{fill:#ec008c;}</style></defs><path class="a" d="M17.6,47.19a1.38,1.38,0,0,0,2,.06l.06-.06,11-11.74a17.91,17.91,0,0,0,3.84-6.11,16.56,16.56,0,0,0,1-6.87,17.65,17.65,0,0,0-5.1-11.29,16.65,16.65,0,0,0-23.54,0l0,0a17.65,17.65,0,0,0-5.1,11.29,16.72,16.72,0,0,0,1,6.87,18.06,18.06,0,0,0,3.84,6.11ZM4.49,22.66a14.93,14.93,0,0,1,4.3-9.52,13.86,13.86,0,0,1,19.61,0l0,0a14.88,14.88,0,0,1,4.3,9.52,14,14,0,0,1-.85,5.73,15.15,15.15,0,0,1-3.25,5.16l-10,10.66L8.6,33.55a15,15,0,0,1-3.26-5.16A14,14,0,0,1,4.49,22.66Z"/><path class="b" d="M82.39,90.93a3.24,3.24,0,1,0-3.24-3.24A3.24,3.24,0,0,0,82.39,90.93Z"/><path class="b" d="M17.61,55.07a3.24,3.24,0,1,0,3.24,3.24A3.24,3.24,0,0,0,17.61,55.07Z"/><path class="b" d="M16.92,27.83a5.45,5.45,0,0,0,0-10.9,5.45,5.45,0,0,0,0,10.9Z"/><path class="b" d="M6.91,33.55l10,10.66,10-10.66a15.15,15.15,0,0,0,3.25-5.16A14,14,0,0,0,31,22.66a14.88,14.88,0,0,0-4.3-9.52l0,0a13.86,13.86,0,0,0-19.61,0,14.93,14.93,0,0,0-4.3,9.52,14,14,0,0,0,.85,5.73A15,15,0,0,0,6.91,33.55Zm10-19.4a8.23,8.23,0,0,1,0,16.45,8.23,8.23,0,0,1,0-16.45Z"/><path class="b" d="M83.08,46.89a5.45,5.45,0,0,0,0,10.9h0a5.45,5.45,0,0,0,0-10.9Z"/><path class="b" d="M92.87,43.07a13.87,13.87,0,0,0-19.61,0A14.88,14.88,0,0,0,69,52.62a14,14,0,0,0,.84,5.73,15.33,15.33,0,0,0,3.26,5.16l10,10.67,10-10.67a15,15,0,0,0,3.26-5.16,13.81,13.81,0,0,0,.84-5.73A14.87,14.87,0,0,0,92.9,43.1Zm-9.79,17.5a8.23,8.23,0,1,1,8-8.23A8.15,8.15,0,0,1,83.08,60.57Z"/><path class="c" d="M16.92,30.6a8.23,8.23,0,0,0,0-16.45,8.23,8.23,0,0,0,0,16.45Zm0-13.67a5.45,5.45,0,0,1,0,10.9,5.45,5.45,0,0,1,0-10.9Z"/><path class="c" d="M4.88,35.45l11,11.74a1.38,1.38,0,0,0,2,.06l.06-.06L29,35.45a17.91,17.91,0,0,0,3.84-6.11,16.56,16.56,0,0,0,1-6.87,17.65,17.65,0,0,0-5.1-11.29,16.65,16.65,0,0,0-23.54,0l0,0A17.7,17.7,0,0,0,0,22.47a16.72,16.72,0,0,0,1,6.87A17.91,17.91,0,0,0,4.88,35.45ZM2.8,22.66a14.93,14.93,0,0,1,4.3-9.52,13.86,13.86,0,0,1,19.61,0l0,0A14.88,14.88,0,0,1,31,22.66a14,14,0,0,1-.85,5.73,15.15,15.15,0,0,1-3.25,5.16l-10,10.66-10-10.66a15,15,0,0,1-3.26-5.16A14,14,0,0,1,2.8,22.66Z"/><path class="c" d="M18.43,52.34a6,6,0,1,0,4.13,9.38L76.39,87.19c0,.16,0,.33,0,.5a6,6,0,1,0,.9-3.16h0l-53.7-25.4A6,6,0,0,0,18.43,52.34Zm-.82,9.21a3.24,3.24,0,1,1,3.24-3.24A3.24,3.24,0,0,1,17.61,61.55Zm64.78,22.9a3.24,3.24,0,1,1-3.24,3.24A3.24,3.24,0,0,1,82.39,84.45Z"/><path class="d" d="M83.08,44.12a8.23,8.23,0,1,0,8,8.22A8.15,8.15,0,0,0,83.08,44.12Zm0,13.67h0a5.45,5.45,0,1,1,5.27-5.45A5.36,5.36,0,0,1,83.08,57.79Z"/><path class="d" d="M71.33,41.1l0,0a17.67,17.67,0,0,0-5.1,11.3,16.54,16.54,0,0,0,1,6.86A17.81,17.81,0,0,0,71,65.41l11,11.74a1.39,1.39,0,0,0,2,.07l.06-.07,11-11.74A17.81,17.81,0,0,0,99,59.3a16.7,16.7,0,0,0,1-6.86,17.68,17.68,0,0,0-5.11-11.3A16.63,16.63,0,0,0,71.33,41.1Zm25,17.25a15,15,0,0,1-3.26,5.16l-10,10.67-10-10.67a15.33,15.33,0,0,1-3.26-5.16A14,14,0,0,1,69,52.62a14.88,14.88,0,0,1,4.3-9.52,13.87,13.87,0,0,1,19.61,0l0,0a14.87,14.87,0,0,1,4.29,9.52A13.81,13.81,0,0,1,96.35,58.35Z"/></svg>