<svg xmlns="http://www.w3.org/2000/svg" viewBox="0 0 100 100"><defs><style>.a{fill:#e6e7e8;}.b{fill:none;}.c{fill:#21409a;}.d{fill:#ec008c;}</style></defs><path class="a" d="M53.08,1.46A20.7,20.7,0,0,0,29.32,21.91V76.67a.82.82,0,0,0,.82.82H36.3a.82.82,0,0,1-.82-.82V21.91A20.68,20.68,0,0,1,53.08,1.46Z"/><path class="b" d="M69.45,30.55H67.83a2.17,2.17,0,0,0-2.16,2.16,4.63,4.63,0,1,1-9.25,0V27.35a2,2,0,0,0-4.07,0V47a5.11,5.11,0,1,1-10.21,0V40.79a1.23,1.23,0,0,1,2.46,0V47a2.65,2.65,0,0,0,5.29,0V27.35a4.5,4.5,0,0,1,9,0v5.36a2.17,2.17,0,1,0,4.33,0,4.63,4.63,0,0,1,4.62-4.62h1.62V21.91a19.45,19.45,0,0,0-38.9,0V35.63h2.07a2.88,2.88,0,0,0,2.87-2.87V30.83A4.55,4.55,0,0,1,40,26.28h0a4.55,4.55,0,0,1,4.55,4.55v5a1.23,1.23,0,0,1-2.46,0v-5a2.1,2.1,0,0,0-2.09-2.09h0A2.1,2.1,0,0,0,38,30.83v1.93a5.33,5.33,0,0,1-5.33,5.33H30.55V76.26h38.9ZM46.22,5.13A17.79,17.79,0,0,1,50,4.72a1.23,1.23,0,0,1,0,2.46,14.76,14.76,0,0,0-3.24.36h0a1.23,1.23,0,0,1-.53-2.41Zm-2.5,3.45a14.83,14.83,0,0,0-8.45,13.33,1.23,1.23,0,0,1-2.46,0A17.28,17.28,0,0,1,42.67,6.36l0,0a1.23,1.23,0,1,1,1,2.24ZM37.08,69a1.23,1.23,0,0,1-2.46,0V54.47a1.23,1.23,0,0,1,2.46,0Zm0-18.28a1.23,1.23,0,1,1-2.46,0V49.28a1.23,1.23,0,1,1,2.46,0Z"/><path class="b" d="M46.08,93.62a3.92,3.92,0,0,0,7.84,0V78.72H46.08Z"/><path class="c" d="M46.08,77.49v1.23h7.84V77.49h2.46v1.23H69.86a2.05,2.05,0,0,0,2-2V21.91a21.91,21.91,0,0,0-43.82,0V76.67a2.05,2.05,0,0,0,2.05,2H43.62V77.49ZM30.55,38.09h2.07A5.33,5.33,0,0,0,38,32.76V30.83A2.1,2.1,0,0,1,40,28.74h0a2.1,2.1,0,0,1,2.09,2.09v5a1.23,1.23,0,0,0,2.46,0v-5a4.55,4.55,0,0,0-4.55-4.55h0a4.55,4.55,0,0,0-4.55,4.55v1.93a2.88,2.88,0,0,1-2.87,2.87H30.55V21.91a19.45,19.45,0,0,1,38.9,0v6.18H67.83a4.63,4.63,0,0,0-4.62,4.62,2.17,2.17,0,1,1-4.33,0V27.35a4.5,4.5,0,0,0-9,0V47a2.65,2.65,0,0,1-5.29,0V40.79a1.23,1.23,0,0,0-2.46,0V47a5.11,5.11,0,1,0,10.21,0V27.35a2,2,0,0,1,4.07,0v5.36a4.63,4.63,0,1,0,9.25,0,2.17,2.17,0,0,1,2.16-2.16h1.62V76.26H30.55Z"/><path class="c" d="M35.85,48.05a1.23,1.23,0,0,0-1.23,1.23v1.41a1.23,1.23,0,1,0,2.46,0V49.28A1.23,1.23,0,0,0,35.85,48.05Z"/><path class="c" d="M35.85,53.24a1.23,1.23,0,0,0-1.23,1.23V69a1.23,1.23,0,0,0,2.46,0V54.47A1.23,1.23,0,0,0,35.85,53.24Z"/><path class="c" d="M42.71,6.34l0,0a17.28,17.28,0,0,0-9.86,15.55,1.23,1.23,0,0,0,2.46,0A14.83,14.83,0,0,1,43.72,8.58a1.23,1.23,0,1,0-1-2.24Z"/><path class="c" d="M46.75,7.54h0A14.76,14.76,0,0,1,50,7.18a1.23,1.23,0,0,0,0-2.46,17.79,17.79,0,0,0-3.78.41,1.23,1.23,0,0,0,.53,2.41Z"/><path class="d" d="M50,100a6.38,6.38,0,0,0,6.38-6.38V78.72H53.92v14.9a3.92,3.92,0,0,1-7.84,0V78.72H43.62v14.9A6.38,6.38,0,0,0,50,100Z"/><rect class="c" x="43.62" y="77.49" width="2.46" height="1.23"/><rect class="c" x="53.92" y="77.49" width="2.46" height="1.23"/></svg>