<svg xmlns="http://www.w3.org/2000/svg" viewBox="0 0 100 100"><defs><style>.a{fill:#e6e7e8;}.b{fill:none;}.c{fill:#ec008c;}.d{fill:#21409a;}</style></defs><path class="a" d="M14.84,70.15a17.67,17.67,0,0,1,7.77-14.63,16.77,16.77,0,0,1,7.91-22.36l.5-.23A16.77,16.77,0,0,0,9.17,55.52a17.65,17.65,0,0,0,9.88,32.27H32.48A17.64,17.64,0,0,1,14.84,70.15Z"/><path class="a" d="M83.44,34.53A21.18,21.18,0,0,1,89.2,46.11,21.27,21.27,0,0,0,53.36,27.58l0,.16a26.09,26.09,0,0,1,6.38,2.1A21.27,21.27,0,0,1,83.44,34.53Z"/><path class="b" d="M82.4,29a19.91,19.91,0,0,0-26.2-2,28.38,28.38,0,0,1,4,1.51A27.6,27.6,0,0,1,76,52.19l0,.46.42.2A18.9,18.9,0,0,1,82.16,57,19.9,19.9,0,0,0,82.4,29Z"/><path class="b" d="M3.52,74.9A16.15,16.15,0,0,0,19.05,86.39H68.5a16.24,16.24,0,0,0,5.63-31.46,1.46,1.46,0,0,1-.91-1.42A24.83,24.83,0,0,0,32.61,34.34a1.42,1.42,0,0,1-1.52.17,15.18,15.18,0,0,0-6.75-1.58h0A15.4,15.4,0,0,0,8.94,48.29a15.23,15.23,0,0,0,1.5,6.63A1.43,1.43,0,0,1,10,56.69,16.16,16.16,0,0,0,3.52,74.9Z"/><path class="c" d="M82.4,29A19.9,19.9,0,0,1,82.16,57,19.65,19.65,0,0,1,84,59.14l0,0a22.7,22.7,0,0,0,.47-32.06l.55-.54h0l-.55.53a22.76,22.76,0,0,0-31.52-1l.23.24a26.83,26.83,0,0,1,3,.72A19.91,19.91,0,0,1,82.4,29Z"/><path class="d" d="M1.1,76.54a19.1,19.1,0,0,0,18,12.66H68.46A19,19,0,0,0,84,59.14,19.65,19.65,0,0,0,82.16,57a18.9,18.9,0,0,0-5.72-4.11l-.42-.2,0-.46A27.6,27.6,0,0,0,60.19,28.52a28.38,28.38,0,0,0-4-1.51,26.83,26.83,0,0,0-3-.72,27.58,27.58,0,0,0-21.29,5.06l-.35.26-.4-.17a17.81,17.81,0,0,0-6.76-1.32H24.3A18.22,18.22,0,0,0,6.13,48.29a18,18,0,0,0,1.1,6.25l.19.51L7,55.39A19.07,19.07,0,0,0,1.1,76.54ZM10,56.69a1.43,1.43,0,0,0,.48-1.77,15.23,15.23,0,0,1-1.5-6.63A15.4,15.4,0,0,1,24.3,32.93h0a15.18,15.18,0,0,1,6.75,1.58,1.42,1.42,0,0,0,1.52-.17A24.83,24.83,0,0,1,73.22,53.51a1.46,1.46,0,0,0,.91,1.42A16.24,16.24,0,0,1,68.5,86.39H19.05A16.24,16.24,0,0,1,10,56.69Z"/><path class="c" d="M91.24,20.46a1.4,1.4,0,0,0-2,0L87.68,22a1.4,1.4,0,0,0,0,2h0a1.39,1.39,0,0,0,2,0l1.57-1.52A1.41,1.41,0,0,0,91.24,20.46Z"/><path class="c" d="M74.72,16.19a1.4,1.4,0,0,0,1.74-1l.6-2.11a1.41,1.41,0,0,0-2.71-.77l-.59,2.11a1.39,1.39,0,0,0,1,1.73Z"/><path class="c" d="M59.6,11.14h0a1.41,1.41,0,0,0-1,1.71L59.11,15a1.41,1.41,0,0,0,2.73-.68l-.54-2.13A1.4,1.4,0,0,0,59.6,11.14Z"/><path class="c" d="M45.19,19.17h0a1.42,1.42,0,0,0,0,2l1.53,1.57a1.41,1.41,0,0,0,2,0h0a1.4,1.4,0,0,0,0-2L47.18,19.2A1.42,1.42,0,0,0,45.19,19.17Z"/><path class="c" d="M89.17,66.5a1.41,1.41,0,1,0,2-2L89.66,63a1.39,1.39,0,0,0-2,0h0a1.41,1.41,0,0,0,0,2Z"/><path class="c" d="M96.54,50a1.41,1.41,0,0,0-.77,2.71l2.11.59a1.4,1.4,0,1,0,.77-2.7Z"/><path class="c" d="M97.57,33.85l-2.12.53a1.41,1.41,0,0,0,.68,2.73l2.13-.54a1.4,1.4,0,0,0-.69-2.72Z"/></svg>