<svg xmlns="http://www.w3.org/2000/svg" viewBox="0 0 100 100"><defs><style>.a{fill:#e6e7e8;}.b{fill:none;}.c{fill:#21409a;}.d{fill:#ec008c;}</style></defs><path class="a" d="M62.12,34.74l1,6.15a24.19,24.19,0,0,1,4.6,4h0l1.38-.35-1-10.81Z"/><path class="a" d="M10.26,41.29l6,1.06L18,30.7l-6-1.06Z"/><path class="a" d="M52.76,41.83a19.2,19.2,0,1,0,0,37.93,19.2,19.2,0,0,1,0-37.93Z"/><path class="b" d="M55.14,59.12a4.84,4.84,0,0,0,0,9.68h0a4.84,4.84,0,0,0,0-9.68Z"/><path class="b" d="M49.78,42.79a18,18,0,1,0,0,36h0a18,18,0,0,0,0-36Zm5.36,28.4A7.23,7.23,0,1,1,62.37,64,7.23,7.23,0,0,1,55.14,71.19Z"/><path class="b" d="M60.91,40.92A22.77,22.77,0,0,0,38.65,80.66a1.17,1.17,0,0,1,.65.26l.18.18a22.71,22.71,0,0,0,20.59,0,1.2,1.2,0,0,1,.84-.44h0a22.79,22.79,0,0,0,0-39.74ZM49.78,81.19A20.4,20.4,0,1,1,70.17,60.8,20.39,20.39,0,0,1,49.78,81.19Z"/><path class="b" d="M28.17,21.47c3.14.34,4.56.05,5-.17-.25-.43-1.26-1.47-4.05-3a63.16,63.16,0,0,0-10.56-4.21A61.66,61.66,0,0,0,7.48,11.7c-3.15-.34-4.57,0-5,.17.25.43,1.26,1.47,4.06,3A62.68,62.68,0,0,0,17.07,19,61.75,61.75,0,0,0,28.17,21.47Z"/><rect class="b" x="42.23" y="28.5" width="15.14" height="1.39"/><path class="b" d="M92.51,11.7a62.81,62.81,0,0,0-11.1,2.43,61.81,61.81,0,0,0-10.55,4.22c-2.79,1.48-3.8,2.52-4,2.95.45.22,1.87.51,5,.17A61.75,61.75,0,0,0,82.92,19a62.68,62.68,0,0,0,10.55-4.21h0c2.8-1.49,3.81-2.53,4.06-3C97.08,11.66,95.66,11.36,92.51,11.7Z"/><path class="b" d="M35.41,35,13.5,31.12h0a.5.5,0,0,0-.55.41l-1.24,8.24a.59.59,0,0,0,.47.65l19.06,3.4a26,26,0,0,1,4-3.51l.7-4.63A.59.59,0,0,0,35.41,35Z"/><path class="b" d="M68.18,43.64l18.25-3a.55.55,0,0,0,.44-.62l-1.21-7.39a.53.53,0,0,0-.61-.44L64,35.64a.54.54,0,0,0-.43.61l.64,4A24.8,24.8,0,0,1,68.18,43.64Z"/><path class="c" d="M12.16,40.41a.59.59,0,0,1-.47-.65l1.24-8.24a.5.5,0,0,1,.55-.41h0L35.41,35a.59.59,0,0,1,.48.65l-.7,4.63a26,26,0,0,1,2.67-1.67l.39-2.6a3,3,0,0,0-2.46-3.37l-16.86-3V22.09a57.35,57.35,0,0,0,9.69,1.83c.77.07,1.49,0,2.12,0,2.84,0,4.38-.65,4.79-2h0c.5-1.6-1-3.32-4.63-5.38a62,62,0,0,0-11.64-4.73A62,62,0,0,0,7,9.24C2.79,8.89.6,9.49.1,11.14s1,3.37,4.63,5.43a61.66,61.66,0,0,0,11.59,4.76c.09,0,.22.05.22.08v7.83l-2.66-.48a2.77,2.77,0,0,0-2.16.5,2.84,2.84,0,0,0-1.16,1.91L9.33,39.4a3,3,0,0,0,2.38,3.37l4.83.86V73.58L3.84,83.9a1.19,1.19,0,0,0-.16,1.68h0a1.18,1.18,0,0,0,.94.45,1.1,1.1,0,0,0,.71-.27l11.2-9.1v13a1.2,1.2,0,1,0,2.39,0v-13l11.28,9.1A1.26,1.26,0,0,0,31,86a1.18,1.18,0,0,0,.94-.45,1.2,1.2,0,0,0-.21-1.68L18.93,73.58V44.06l10.56,1.87a25.36,25.36,0,0,1,1.73-2.12ZM6.52,14.83c-2.8-1.49-3.81-2.53-4.06-3,.45-.21,1.87-.51,5-.17a61.66,61.66,0,0,1,11.09,2.43,63.16,63.16,0,0,1,10.56,4.21c2.79,1.49,3.8,2.53,4.05,3-.45.22-1.87.51-5,.17A61.75,61.75,0,0,1,17.07,19,62.68,62.68,0,0,1,6.52,14.83Z"/><path class="c" d="M93,9.25a62.34,62.34,0,0,0-12.3,2.59A62.14,62.14,0,0,0,69.08,16.6c-3.67,2.06-5.14,3.78-4.64,5.43.46,1.47,2.45,2,5,2,3.69,0,8.49-1.13,11.67-1.94v8.36L63.68,33.28a2.94,2.94,0,0,0-2.43,3.36l.31,1.92a25.13,25.13,0,0,1,2.67,1.64l-.64-4a.54.54,0,0,1,.43-.61l21-3.44a.53.53,0,0,1,.61.44L86.87,40a.55.55,0,0,1-.44.62l-18.25,3A24.48,24.48,0,0,1,70,45.77L81.06,44V73.58L68.28,83.9a1.19,1.19,0,0,0-.2,1.68A1.18,1.18,0,0,0,69,86a1.35,1.35,0,0,0,.79-.27l11.27-9.1v13a1.2,1.2,0,1,0,2.39,0v-13l11.19,9.1a1.2,1.2,0,0,0,1.52-1.85h0L83.45,73.58v-30L86.86,43a2.9,2.9,0,0,0,2.39-3.35h0L88,32.25a3,3,0,0,0-1.19-1.9,2.79,2.79,0,0,0-2.13-.51l-1.26.21V21.41s.15-.06.22-.08a61.9,61.9,0,0,0,11.61-4.76c3.67-2.06,5.13-3.78,4.62-5.43S97.2,8.9,93,9.25Zm.46,5.58h0A62.68,62.68,0,0,1,82.92,19a61.75,61.75,0,0,1-11.1,2.43c-3.14.34-4.56.05-5-.17.25-.43,1.26-1.47,4-2.95a61.81,61.81,0,0,1,10.55-4.22,62.81,62.81,0,0,1,11.1-2.43c3.15-.34,4.57,0,5,.17C97.28,12.3,96.27,13.34,93.47,14.83Z"/><path class="d" d="M49.78,40.4A20.4,20.4,0,1,0,70.17,60.8,20.4,20.4,0,0,0,49.78,40.4Zm0,38.4h0a18,18,0,1,1,18-18A18,18,0,0,1,49.78,78.8Z"/><path class="d" d="M55.14,56.73A7.23,7.23,0,1,0,62.37,64,7.23,7.23,0,0,0,55.14,56.73Zm0,12.07h0A4.84,4.84,0,1,1,60,64,4.84,4.84,0,0,1,55.14,68.8Z"/><path class="d" d="M67.54,43.74l.64-.1a24.8,24.8,0,0,0-4-3.44l.09.5L62,41.08l-.4-2.52A25.23,25.23,0,0,0,51,35.66V32.28h6.58a2.14,2.14,0,0,0,2.18-2.1V28.24a2.16,2.16,0,0,0-2.18-2.13H42a2.15,2.15,0,0,0-2.14,2.13v1.94A2.12,2.12,0,0,0,42,32.28H48.6v3.38a25.16,25.16,0,0,0-10.74,3l-.38,2.52-2.36-.35.07-.5a26,26,0,0,0-4,3.51l.63.11-.44,2.35-1.92-.34a25.14,25.14,0,0,0,7.18,36.33L34,85.53A1.2,1.2,0,0,0,35.8,87.1l0-.06,2.95-3.61a25.14,25.14,0,0,0,22,0l3,3.61a1.2,1.2,0,0,0,1.69.17,1.19,1.19,0,0,0,.16-1.68l-2.67-3.27a25.15,25.15,0,0,0,8.38-34.57c-.41-.66-.85-1.3-1.31-1.92l-2,.33ZM42.23,29.89V28.5H57.36v1.39Zm27.41,42a22.77,22.77,0,0,1-8.73,8.74h0a1.2,1.2,0,0,0-.84.44,22.71,22.71,0,0,1-20.59,0l-.18-.18a1.17,1.17,0,0,0-.65-.26,22.77,22.77,0,1,1,31-8.74Z"/><path class="d" d="M31.85,43.92l-.63-.11a25.36,25.36,0,0,0-1.73,2.12l1.92.34Z"/><path class="d" d="M35.12,40.8l2.36.35.38-2.52a26,26,0,0,0-2.67,1.67Z"/><path class="d" d="M67.54,43.74,68,46.1l2-.33a24.48,24.48,0,0,0-1.78-2.13Z"/><path class="d" d="M64.32,40.7l-.09-.5a25.13,25.13,0,0,0-2.67-1.64l.4,2.52Z"/></svg>