<svg xmlns="http://www.w3.org/2000/svg" viewBox="0 0 100 100"><defs><style>.a{fill:#e6e7e8;}.b{fill:none;}.c{fill:#ec008c;}.d{fill:#21409a;}</style></defs><path class="a" d="M34.16,7.63A18.47,18.47,0,0,0,13.77,24a17.15,17.15,0,0,0-.11,2v9.18a1.28,1.28,0,0,0,.53-.15,1.2,1.2,0,0,0,.65-1l.33-7.22a1.42,1.42,0,0,1,1.48-1.35h0s.4,0,1.05,0A18.5,18.5,0,0,1,34.16,7.63Z"/><path class="a" d="M19.35,48.4l0-.14-1-3.42a1.43,1.43,0,0,0-1.16-1.15,3.58,3.58,0,0,1-2.9-4.16,1.74,1.74,0,0,1,.05-.22,2.27,2.27,0,0,1,1.59-1.69,4.08,4.08,0,0,0,5.43-2,3.93,3.93,0,0,0,.38-1.55L22,28.28h1.35l-.19-.16c-2.21.16-4,.18-5.21.17l-.27,5.83a4.07,4.07,0,0,1-5.81,3.51,2.27,2.27,0,0,0-1.59,1.69,3.58,3.58,0,0,0,2.63,4.33l.22,0a1.43,1.43,0,0,1,1.16,1.15l1,3.42,0,.14A17.09,17.09,0,0,0,34.15,62.23,17.15,17.15,0,0,1,19.35,48.4Z"/><path class="a" d="M28.75,68.69V64.9a20.16,20.16,0,0,1-4.05-1.15v4.94a17.38,17.38,0,0,0,9.45,1.55A17.25,17.25,0,0,1,28.75,68.69Z"/><path class="a" d="M7.08,82.07l.09-.34a9,9,0,0,1,5.95-6.09l11.73-3.81c-.58-.22-1.15-.47-1.72-.75L9.07,75.64a9,9,0,0,0-5.95,6.09L3,82.07A8.79,8.79,0,0,0,2.83,84v8.57H6.88V84A8.79,8.79,0,0,1,7.08,82.07Z"/><polygon class="b" points="86.36 69.48 89.33 70.49 87.15 68.52 86.36 69.48"/><path class="b" d="M87.23,62.66A15.19,15.19,0,0,1,82.87,66V68.3l.62.21,2.4-2.94,0-.06a1.42,1.42,0,0,1,2-.1l3.37,3,1.39-.17L90.44,57.37A16.57,16.57,0,0,1,87.23,62.66Z"/><polygon class="b" points="76.76 76 76.76 79.19 84.36 71.8 81.83 70.94 76.76 76"/><path class="b" d="M63.86,81l.12.45A10.94,10.94,0,0,1,64.25,84v3.89h9.67V83.11L63.34,72.82l-4.41,1.49A11.63,11.63,0,0,1,63.86,81Z"/><path class="b" d="M14.84,34l.33-7.22h0a1.42,1.42,0,0,1,1.49-1.34c.18,0,17.85.81,27.74-6.78a1.42,1.42,0,0,1,1.73,2.25A31.09,31.09,0,0,1,37,25.54,24.94,24.94,0,0,0,50.6,31.3V25.87A18.47,18.47,0,1,0,13.66,26v9.19a1.47,1.47,0,0,0,.53-.16A1.2,1.2,0,0,0,14.84,34Z"/><path class="b" d="M33.83,26.46a56.1,56.1,0,0,1-6.58,1.24c8.7,6.09,19.58,6.93,23.35,7v-.58C41,33.15,35.6,28.33,33.83,26.46Z"/><path class="b" d="M49,48.4l0-.14,1-3.42a1.4,1.4,0,0,1,1.15-1.15l.22,0A3.57,3.57,0,0,0,54,39.31a2.29,2.29,0,0,0-1.82-1.75h-.09c-.7,0-17.25.54-28.92-9.46-2.21.16-4,.18-5.21.17l-.27,5.83a4,4,0,0,1-.38,1.55,4.08,4.08,0,0,1-5.43,2,2.27,2.27,0,0,0-1.59,1.69,1.74,1.74,0,0,0,0,.22,3.58,3.58,0,0,0,2.9,4.16,1.43,1.43,0,0,1,1.16,1.15l1,3.42,0,.14h0A17.12,17.12,0,0,0,49,48.4Z"/><path class="b" d="M61.64,43.24a.88.88,0,0,0,1,.17.86.86,0,0,0,.42-.4,3.18,3.18,0,0,1,2.59-1.91h.06c3.64-.21,11.23-.63,16.49-9.94v0a1.42,1.42,0,0,1,2.46,1.41,27.16,27.16,0,0,1-2,3c1.59,1.77,3,2.67,6.4,3.5v-.51a13.77,13.77,0,1,0-27.54,0l0,4.61Z"/><path class="b" d="M61.13,81.73a8.92,8.92,0,0,0-6-6.09L41.12,71.08a20.25,20.25,0,0,1-18,0L9.07,75.64a9,9,0,0,0-5.95,6.09L3,82.07A8.79,8.79,0,0,0,2.83,84v8.57H61.42V84a8.21,8.21,0,0,0-.2-1.91Z"/><path class="b" d="M24.7,63.75v4.94a17.32,17.32,0,0,0,14.85,0V63.75a19.86,19.86,0,0,1-14.85,0Z"/><path class="b" d="M80,67.1a13,13,0,0,1-3.35.43H74a13,13,0,0,1-3.35-.43v1.63l4.68,4.66L80,68.73Z"/><path class="b" d="M79.28,39.2a17,17,0,0,0,9.81,4.08V42c-4-.93-6.12-2-8.24-4.25C80.36,38.25,79.83,38.74,79.28,39.2Z"/><path class="b" d="M93.2,74.79l-5.83-2L76.76,83.14v4.73H97.17V80.33A5.86,5.86,0,0,0,93.2,74.79ZM80.12,85.85H78.67a1.42,1.42,0,1,1,0-2.83h1.45a1.42,1.42,0,1,1,0,2.83Z"/><path class="c" d="M80.12,83H78.67a1.42,1.42,0,1,0,0,2.83h1.45a1.42,1.42,0,1,0,0-2.83Z"/><polygon class="b" points="66.35 71.8 73.92 79.16 73.92 75.97 68.88 70.94 66.35 71.8"/><path class="b" d="M60.88,50.29a1.42,1.42,0,0,1,1.18,1.39v0a13.65,13.65,0,0,0,3.52,9.06A11.38,11.38,0,0,0,74,64.7h2.65a11.38,11.38,0,0,0,8.45-3.94,13.66,13.66,0,0,0,3.53-9.06v0a1.41,1.41,0,0,1,1.17-1.39l.13,0a2,2,0,0,0,1.49-2.46,1.18,1.18,0,0,0-1.08-.9,1.4,1.4,0,0,1-1.13-.77,19.82,19.82,0,0,1-12.32-5.24,22.64,22.64,0,0,1-11,3h0a.92.92,0,0,0-.24.31,3.71,3.71,0,0,1-4.21,2,1.44,1.44,0,0,1-1.08.67,1.19,1.19,0,0,0-1.08.9h0a.59.59,0,0,0,0,.13A2,2,0,0,0,60.88,50.29Z"/><path class="b" d="M62.16,69.11,60.6,70.75l1.63-.55s0-.07,0-.11Z"/><path class="b" d="M67.85,68.3V66a15.1,15.1,0,0,1-4.37-3.37,16.57,16.57,0,0,1-3.09-5L57.54,68.4l1.22.18,3.61-3.82a1.42,1.42,0,0,1,2.45.9l.15,3h.14l1.58,0Z"/><path class="c" d="M94.11,72.11l-2.46-.83,2.92-.36a1.42,1.42,0,0,0,1.23-1.58.36.36,0,0,0,0-.11l-3.5-17a4.87,4.87,0,0,0,1.92-5.13,4,4,0,0,0-2.28-2.72l0-3.56h0V38.67a16.6,16.6,0,1,0-33.2-.16V43.8l0,.62a4,4,0,0,0-2.26,2.71,4.87,4.87,0,0,0,2.32,5.39L54.41,69.15a1.42,1.42,0,0,0,1,1.73h0a29,29,0,0,0,3.21.53l-2,.69a9.5,9.5,0,0,0-1.31.58l.77.25a12.86,12.86,0,0,1,2.87,1.37l4.41-1.49L73.92,83.11v4.76H64.25V90.7H98.58A1.41,1.41,0,0,0,100,89.29v-9A8.68,8.68,0,0,0,94.11,72.11ZM92.7,68.29l-1.39.17-3.37-3a1.42,1.42,0,0,0-2,.1l0,.06-2.4,2.94-.62-.21V66a15.19,15.19,0,0,0,4.36-3.37,16.57,16.57,0,0,0,3.21-5.29Zm-3.37,2.2-3-1,.79-1Zm-5,1.31-7.6,7.39V76l5.07-5.06Zm-9-47A13.77,13.77,0,0,1,89.11,38.57v.51c-3.37-.83-4.81-1.73-6.4-3.5a27.16,27.16,0,0,0,2-3,1.42,1.42,0,0,0-2.46-1.41v0C77,40.47,69.37,40.89,65.73,41.1h-.06A3.18,3.18,0,0,0,63.08,43a.86.86,0,0,1-.42.4.88.88,0,0,1-1-.17l0-.06,0-4.61A13.79,13.79,0,0,1,75.34,24.8ZM89.1,42v1.29a17,17,0,0,1-9.81-4.08c.55-.46,1.08-1,1.58-1.46C83,40,85.07,41.06,89.1,42ZM59.24,47.93a.59.59,0,0,1,0-.13h0a1.19,1.19,0,0,1,1.08-.9,1.44,1.44,0,0,0,1.08-.67,3.71,3.71,0,0,0,4.21-2,.92.92,0,0,1,.24-.31h0a22.64,22.64,0,0,0,11-3,19.82,19.82,0,0,0,12.32,5.24,1.4,1.4,0,0,0,1.13.77,1.18,1.18,0,0,1,1.08.9A2,2,0,0,1,90,50.26l-.13,0a1.41,1.41,0,0,0-1.17,1.39v0a13.66,13.66,0,0,1-3.53,9.06,11.38,11.38,0,0,1-8.45,3.94H74a11.38,11.38,0,0,1-8.45-3.94,13.65,13.65,0,0,1-3.52-9.06v0a1.42,1.42,0,0,0-1.18-1.39A2,2,0,0,1,59.24,47.93ZM60.6,70.75l1.56-1.64.05,1s0,.08,0,.11ZM65,68.64l-.15-3a1.42,1.42,0,0,0-2.45-.9l-3.61,3.82-1.22-.18,2.85-10.72a16.57,16.57,0,0,0,3.09,5A15.1,15.1,0,0,0,67.85,66V68.3l-1.16.39-1.58,0Zm9,10.52L66.35,71.8l2.53-.86,5,5ZM70.68,68.73V67.1a13,13,0,0,0,3.35.43h2.65A13,13,0,0,0,80,67.1v1.63l-4.67,4.66ZM97.17,87.87H76.76V83.14L87.37,72.82l5.83,2a5.86,5.86,0,0,1,4,5.54Z"/><path class="d" d="M64.25,84A10.94,10.94,0,0,0,64,81.43L63.86,81a11.63,11.63,0,0,0-4.93-6.67,12.86,12.86,0,0,0-2.87-1.37l-.77-.25-12.9-4.18V62.33A19.91,19.91,0,0,0,51.72,49l.8-2.73a6.44,6.44,0,0,0,4.22-7.63A5.13,5.13,0,0,0,53.44,35V26a21.31,21.31,0,1,0-42.62-.13V35a5.11,5.11,0,0,0-3.3,3.65,6.43,6.43,0,0,0,4.22,7.63L12.53,49a20,20,0,0,0,9.33,13.34v6.18L8.2,72.94A11.77,11.77,0,0,0,.39,81c0,.15-.08.3-.11.45A11,11,0,0,0,0,84V94a1.42,1.42,0,0,0,1.42,1.42H62.84A1.42,1.42,0,0,0,64.25,94V84ZM13.66,26a18.47,18.47,0,1,1,36.94-.12V31.3A24.94,24.94,0,0,1,37,25.54a31.09,31.09,0,0,0,9.14-4.66,1.42,1.42,0,0,0-1.73-2.25c-9.89,7.59-27.56,6.79-27.74,6.78a1.42,1.42,0,0,0-1.49,1.34h0L14.84,34a1.2,1.2,0,0,1-.65,1,1.47,1.47,0,0,1-.53.16ZM50.6,34.15v.58c-3.77-.1-14.65-.94-23.35-7a56.1,56.1,0,0,0,6.58-1.24C35.6,28.33,41,33.15,50.6,34.15ZM15.3,48.4h0l0-.14-1-3.42a1.43,1.43,0,0,0-1.16-1.15,3.58,3.58,0,0,1-2.9-4.16,1.74,1.74,0,0,1,0-.22,2.27,2.27,0,0,1,1.59-1.69,4.08,4.08,0,0,0,5.43-2,4,4,0,0,0,.38-1.55l.27-5.83c1.17,0,3,0,5.21-.17,11.67,10,28.22,9.48,28.92,9.46h.09A2.29,2.29,0,0,1,54,39.31a3.57,3.57,0,0,1-2.63,4.33l-.22,0A1.4,1.4,0,0,0,50,44.84l-1,3.42,0,.14a17.12,17.12,0,0,1-33.65,0ZM39.55,63.75v4.94a17.32,17.32,0,0,1-14.85,0V63.75a19.86,19.86,0,0,0,14.85,0Zm21.87,28.8H2.83V84A8.79,8.79,0,0,1,3,82.07l.09-.34a9,9,0,0,1,6-6.09l14.06-4.56a20.25,20.25,0,0,0,18,0l14.06,4.56a8.92,8.92,0,0,1,6,6.09l.09.34a8.21,8.21,0,0,1,.2,1.91Z"/></svg>