<svg xmlns="http://www.w3.org/2000/svg" viewBox="0 0 100 100"><defs><style>.a{fill:#e6e7e8;}.b{fill:none;}.c{fill:#21409a;}.d{fill:#ec008c;}</style></defs><path class="a" d="M26.21,35.61a13.18,13.18,0,0,0-15.06,11A12.91,12.91,0,0,0,11,48.63v6.11a.5.5,0,0,0,.08-.26l.24-5.3a1.43,1.43,0,0,1,1.5-1.37h0s.9,0,2.3,0A13.2,13.2,0,0,1,26.21,35.61Z"/><path class="a" d="M16.29,65l0-.13-.73-2.5a1.43,1.43,0,0,0-1.16-1.14,2.24,2.24,0,0,1-1.81-2.6.7.7,0,0,1,0-.14,1.25,1.25,0,0,1,.77-.9,3.4,3.4,0,0,0,4.68-3l.15-3.4c-.26-.2-.51-.41-.77-.63-1.34.1-2.48.12-3.31.12l-.17,3.91a3.39,3.39,0,0,1-3.53,3.24,3.54,3.54,0,0,1-1.15-.25,1.29,1.29,0,0,0-.78.9,2.24,2.24,0,0,0,1.65,2.71l.14,0a1.43,1.43,0,0,1,1.16,1.14l.73,2.5,0,.13a12.17,12.17,0,0,0,14,9.76A12.18,12.18,0,0,1,16.29,65Z"/><path class="a" d="M28.26,77.81q.48,0,1,0v-.84a15.37,15.37,0,0,1-3,.73A14.13,14.13,0,0,0,28.26,77.81Z"/><path class="a" d="M23.2,79.74v-2a15.11,15.11,0,0,1-4.1-.84v2.8a12.32,12.32,0,0,0,7.11.91A12.17,12.17,0,0,1,23.2,79.74Z"/><path class="a" d="M28.26,83.69a15.16,15.16,0,0,0,4.82-.78l-2.28-.74a15.14,15.14,0,0,1-4.59,1.39A15.68,15.68,0,0,0,28.26,83.69Z"/><path class="a" d="M7.27,89.91l.06-.23a6.19,6.19,0,0,1,4.12-4.21l7.89-2.56a13.61,13.61,0,0,1-1.82-.74L7.34,85.47a6.2,6.2,0,0,0-4.11,4.21l-.06.24A5.77,5.77,0,0,0,3,91.23v5.9h4.1v-5.9A5.91,5.91,0,0,1,7.27,89.91Z"/><path class="a" d="M66.62,49.3A13.32,13.32,0,0,1,77.88,36.15a12.87,12.87,0,0,0-2-.16A13.34,13.34,0,0,0,62.51,49.3l0,4.46,0,0a.84.84,0,0,0,.93.16.83.83,0,0,0,.37-.37,3.18,3.18,0,0,1,2.57-1.89h.19Z"/><path class="a" d="M70.49,70.82A13.29,13.29,0,0,1,67.08,62a1.43,1.43,0,0,0-1.18-1.41,1.9,1.9,0,0,1-1.58-1.89,1.73,1.73,0,0,1,.05-.45,1.09,1.09,0,0,1,1-.83,1.44,1.44,0,0,0,1.07-.64,3.7,3.7,0,0,0,4.12-2,.79.79,0,0,1,.2-.27,23.85,23.85,0,0,0,8.16-1.65c-.54-.4-1.06-.83-1.56-1.28a22.14,22.14,0,0,1-10.7,2.93.79.79,0,0,0-.2.27,3.7,3.7,0,0,1-4.12,2,1.44,1.44,0,0,1-1.07.64,1.09,1.09,0,0,0-1,.83,1.73,1.73,0,0,0-.05.45,1.9,1.9,0,0,0,1.57,1.89A1.43,1.43,0,0,1,63,62a13.29,13.29,0,0,0,3.41,8.78,11,11,0,0,0,8.17,3.8h2.56c.26,0,.52,0,.77,0A11.12,11.12,0,0,1,70.49,70.82Z"/><path class="a" d="M64.34,75.19a7.69,7.69,0,0,1-1.4-4.13,15.81,15.81,0,0,1-1.62-3l-.18.68a7.72,7.72,0,0,0,5.47,9.46,6.53,6.53,0,0,0,1.07.21l.78-.26A7.66,7.66,0,0,1,64.34,75.19Z"/><path class="a" d="M62.63,84.54l2.58-.87-1.06-1-5.62,1.9a5.62,5.62,0,0,0-3.81,5.32v7.27h4.1V89.86A5.62,5.62,0,0,1,62.63,84.54Z"/><polygon class="a" points="70.82 82.17 69.54 80.81 67.21 81.6 68.58 82.93 70.82 82.17"/><path class="a" d="M73.41,78.57V77.44a12.9,12.9,0,0,1-2-.34v1.47L75.84,83l1-1Z"/><path class="a" d="M37.08,17.89A15,15,0,0,1,50,3.06a15,15,0,0,0-4.1,29.66,15.08,15.08,0,0,0,4.1,0A15,15,0,0,1,37.08,17.89Z"/><path class="b" d="M11.31,49.17h0a1.44,1.44,0,0,1,1.51-1.36c.13,0,13,.58,20.12-4.9a1.42,1.42,0,0,1,2,.26,1.45,1.45,0,0,1-.27,2,22.29,22.29,0,0,1-6.18,3.25,17.77,17.77,0,0,0,8.84,3.64V48.63a13.18,13.18,0,1,0-26.35,0v6.11a.61.61,0,0,0,.08-.26Z"/><path class="b" d="M53.15,31.92a1.33,1.33,0,0,1,.74-.06l6.93,1.21-1.7-4a1.42,1.42,0,0,1,.23-1.49,15.09,15.09,0,1,0-6.2,4.34ZM40.49,18.17a1.44,1.44,0,0,1,2,0l2.63,2.63,8.23-8.23h0a1.44,1.44,0,0,1,2,2l-9.25,9.25h0a1.44,1.44,0,0,1-2,0l-3.64-3.64A1.45,1.45,0,0,1,40.49,18.17Z"/><path class="b" d="M21.64,50.12a31,31,0,0,0,12.5,4.24,19.47,19.47,0,0,1-8.86-5C24.13,49.69,22.92,49.93,21.64,50.12Z"/><path class="b" d="M36.13,65l0-.13.73-2.5a1.43,1.43,0,0,1,1.16-1.14l.14,0a2.23,2.23,0,0,0,1.64-2.71,1.3,1.3,0,0,0-1-1h0c-.53,0-12.72.4-21.41-6.94-1.34.1-2.48.12-3.31.12l-.17,3.91a3.63,3.63,0,0,1-.25,1.13A3.4,3.4,0,0,1,9.26,57.6a1.29,1.29,0,0,0-.78.9.68.68,0,0,0,0,.14,2.24,2.24,0,0,0,1.81,2.6,1.43,1.43,0,0,1,1.16,1.14l.73,2.5,0,.13h0a12.18,12.18,0,0,0,23.94,0Z"/><path class="b" d="M45.28,91.23a5.85,5.85,0,0,0-.13-1.32l-.06-.23A6.19,6.19,0,0,0,41,85.47L30.8,82.17a15.24,15.24,0,0,1-13.28,0L7.34,85.47a6.2,6.2,0,0,0-4.11,4.21l-.06.23A5.91,5.91,0,0,0,3,91.23v5.9H45.28Z"/><path class="b" d="M19.1,76.94v2.8a12.32,12.32,0,0,0,10.12,0v-2.8a15.15,15.15,0,0,1-10.12,0Z"/><path class="b" d="M58.53,84.54a5.62,5.62,0,0,0-3.81,5.32v7.27H74.39V92.59l-10.24-10Z"/><polygon class="b" points="67.21 81.6 74.39 88.59 74.39 85.65 69.54 80.81 67.21 81.6"/><path class="b" d="M67.68,78.41l.81-.27V76a15,15,0,0,1-4.23-3.27,16.26,16.26,0,0,1-2.94-4.69l-.18.68a7.78,7.78,0,0,0,1.14,6.45h0A7.72,7.72,0,0,0,67.68,78.41Z"/><polygon class="b" points="77.26 88.61 84.47 81.6 82.14 80.81 77.26 85.68 77.26 88.61"/><path class="b" d="M80.32,77.1a13.22,13.22,0,0,1-3.2.39H74.56a13.22,13.22,0,0,1-3.2-.39v1.47L75.84,83l4.48-4.47Z"/><path class="b" d="M62.53,53.76l0,0a.84.84,0,0,0,.93.16.83.83,0,0,0,.37-.37,3.17,3.17,0,0,1,2.57-1.89h.06c3.53-.2,10.87-.61,16-9.62A1.44,1.44,0,0,1,85,43.49a23.34,23.34,0,0,1-5.22,6.43,16.45,16.45,0,0,0,9.38,3.9l0-4.43V49.3a13.32,13.32,0,0,0-26.63,0Z"/><path class="b" d="M66.65,54.57a.68.68,0,0,0-.2.27,3.68,3.68,0,0,1-4.12,2,1.42,1.42,0,0,1-1.07.64,1.09,1.09,0,0,0-1,.84,1.74,1.74,0,0,0-.06.45,1.92,1.92,0,0,0,1.58,1.89A1.43,1.43,0,0,1,63,62a13.24,13.24,0,0,0,3.41,8.78,11,11,0,0,0,8.17,3.8h2.56a11,11,0,0,0,8.17-3.8,13.24,13.24,0,0,0,3.41-8.76,1.46,1.46,0,0,1,1.19-1.43l.11,0a1.91,1.91,0,0,0,1.41-2.31,1.09,1.09,0,0,0-1-.84,1.42,1.42,0,0,1-1.13-.74,19.38,19.38,0,0,1-11.94-5.07A22.14,22.14,0,0,1,66.65,54.57Z"/><path class="b" d="M77.26,92.62v4.51H97V89.86a5.62,5.62,0,0,0-3.81-5.32l-5.62-1.9Zm3.21,2.67H79.06a1.44,1.44,0,1,1,0-2.87h1.41a1.44,1.44,0,0,1,0,2.87Z"/><path class="b" d="M90.48,67.77a16.29,16.29,0,0,1-3.06,5A15,15,0,0,1,83.19,76v2.12l.08,0v0a7.75,7.75,0,0,0,7.43-9.31Z"/><path class="c" d="M1.6,100H46.72a1.43,1.43,0,0,0,1.43-1.44V91.23a8.2,8.2,0,0,0-.21-2c0-.11,0-.23-.09-.34a9,9,0,0,0-6-6.18l-9.77-3.17v-4a15,15,0,0,0,6.85-9.94l.52-1.79a5.11,5.11,0,0,0,3.16-6A4.15,4.15,0,0,0,40.21,55V48.63a16,16,0,1,0-32.09-.12V55A4.11,4.11,0,0,0,5.7,57.82a5.11,5.11,0,0,0,3.16,6l.52,1.79a15.06,15.06,0,0,0,6.84,9.94v4L6.46,82.74a9.07,9.07,0,0,0-6,6.18c0,.11-.06.23-.08.34a8.75,8.75,0,0,0-.22,2v7.33A1.44,1.44,0,0,0,1.6,100ZM11,48.63a13.18,13.18,0,1,1,26.35,0v3.45a17.77,17.77,0,0,1-8.84-3.64,22.29,22.29,0,0,0,6.18-3.25,1.45,1.45,0,0,0,.27-2,1.42,1.42,0,0,0-2-.26c-7.15,5.48-20,4.9-20.12,4.9a1.44,1.44,0,0,0-1.51,1.36h0l-.24,5.31a.61.61,0,0,1-.08.26Zm23.15,5.73a31,31,0,0,1-12.5-4.24c1.28-.19,2.49-.43,3.64-.72A19.47,19.47,0,0,0,34.14,54.36ZM12.19,65h0l0-.13-.73-2.5a1.43,1.43,0,0,0-1.16-1.14,2.24,2.24,0,0,1-1.81-2.6.68.68,0,0,1,0-.14,1.29,1.29,0,0,1,.78-.9,3.4,3.4,0,0,0,4.43-1.86,3.63,3.63,0,0,0,.25-1.13l.17-3.91c.83,0,2,0,3.31-.12,8.69,7.34,20.88,7,21.41,6.94h0a1.3,1.3,0,0,1,1,1,2.23,2.23,0,0,1-1.64,2.71l-.14,0a1.43,1.43,0,0,0-1.16,1.14l-.73,2.5,0,.13a12.18,12.18,0,0,1-23.94,0Zm17,11.93v2.8a12.32,12.32,0,0,1-10.12,0v-2.8a15.15,15.15,0,0,0,10.12,0ZM3,91.23a5.91,5.91,0,0,1,.13-1.32l.06-.23a6.2,6.2,0,0,1,4.11-4.21l10.18-3.3a15.24,15.24,0,0,0,13.28,0L41,85.47a6.19,6.19,0,0,1,4.12,4.21l.06.23a5.85,5.85,0,0,1,.13,1.32v5.9H3Z"/><path class="c" d="M80.47,92.42H79.06a1.44,1.44,0,1,0,0,2.87h1.41a1.44,1.44,0,0,0,0-2.87Z"/><path class="c" d="M59.64,49.18v.13l0,5v.58a3.94,3.94,0,0,0-2.19,2.66,4.81,4.81,0,0,0,2.24,5.28L58.36,68a10.61,10.61,0,0,0,4.91,11.9l-5.66,1.92a8.47,8.47,0,0,0-5.76,8v8.7A1.43,1.43,0,0,0,53.28,100H98.4a1.44,1.44,0,0,0,1.44-1.44v-8.7a8.49,8.49,0,0,0-5.77-8l-6-2a10.64,10.64,0,0,0,5.45-11.54l-1.16-5.62a4.81,4.81,0,0,0,1.85-5A3.9,3.9,0,0,0,92,54.94l0-5.54a16.19,16.19,0,0,0-32.37-.22Zm2.64,26h0a7.78,7.78,0,0,1-1.14-6.45l.18-.68a16.26,16.26,0,0,0,2.94,4.69A15,15,0,0,0,68.49,76v2.12l-.81.27A7.72,7.72,0,0,1,62.28,75.19ZM74.39,97.13H54.72V89.86a5.62,5.62,0,0,1,3.81-5.32l5.62-1.9,10.24,10Zm0-8.54-7.18-7,2.33-.79,4.85,4.84Zm-3-10V77.1a13.22,13.22,0,0,0,3.2.39h2.56a13.22,13.22,0,0,0,3.2-.39v1.47L75.84,83Zm10.78,2.24,2.33.79-7.21,7V85.68Zm11,3.73A5.62,5.62,0,0,1,97,89.86v7.27H77.26V92.62l10.27-10Zm-4-9.31a7.7,7.7,0,0,1-5.89,2.91v0l-.08,0V76a15,15,0,0,0,4.23-3.27,16.29,16.29,0,0,0,3.06-5l.22,1.06A7.76,7.76,0,0,1,89.16,75.23Zm1.26-17.78a1.09,1.09,0,0,1,1,.84A1.91,1.91,0,0,1,90,60.6l-.11,0a1.46,1.46,0,0,0-1.19,1.43,13.24,13.24,0,0,1-3.41,8.76,11,11,0,0,1-8.17,3.8H74.56a11,11,0,0,1-8.17-3.8A13.24,13.24,0,0,1,63,62a1.43,1.43,0,0,0-1.19-1.41,1.92,1.92,0,0,1-1.58-1.89,1.74,1.74,0,0,1,.06-.45,1.09,1.09,0,0,1,1-.84,1.42,1.42,0,0,0,1.07-.64,3.68,3.68,0,0,0,4.12-2,.68.68,0,0,1,.2-.27,22.14,22.14,0,0,0,10.7-2.93,19.38,19.38,0,0,0,11.94,5.07A1.42,1.42,0,0,0,90.42,57.45ZM75.83,36A13.31,13.31,0,0,1,89.14,49.3v.09l0,4.43a16.45,16.45,0,0,1-9.38-3.9A23.34,23.34,0,0,0,85,43.49a1.44,1.44,0,0,0-2.5-1.41c-5.1,9-12.44,9.42-16,9.62h-.06a3.17,3.17,0,0,0-2.57,1.89.83.83,0,0,1-.37.37.84.84,0,0,1-.93-.16l0,0,0-4.46A13.34,13.34,0,0,1,75.83,36Z"/><path class="d" d="M47.9,35.73a18,18,0,0,0,5.87-1l9.15,1.6.25,0a1.44,1.44,0,0,0,1.44-1.43,1.39,1.39,0,0,0-.12-.57L62.1,28.74a17.65,17.65,0,0,0,3.69-10.85A17.87,17.87,0,1,0,47.9,35.73ZM42.59,3.65A15.09,15.09,0,0,1,59.35,27.58a1.42,1.42,0,0,0-.23,1.49l1.7,4-6.93-1.21a1.33,1.33,0,0,0-.74.06A15.09,15.09,0,1,1,42.59,3.65Z"/><path class="d" d="M44.13,23.85a1.44,1.44,0,0,0,2,0h0l9.25-9.25a1.44,1.44,0,0,0-2-2h0L45.15,20.8l-2.63-2.63a1.44,1.44,0,0,0-2,2Z"/></svg>