<svg xmlns="http://www.w3.org/2000/svg" viewBox="0 0 100 100"><defs><style>.a{fill:#e6e7e8;}.b{fill:none;}.c{fill:#21409a;}.d{fill:#ec008c;}</style></defs><path class="a" d="M7.68,67.91a15.48,15.48,0,0,1-.59-4.12V62.6H1.18v1.19a16,16,0,0,0,16,15.92,15,15,0,0,0,2.91-.28A15.93,15.93,0,0,1,7.68,67.91Z"/><path class="b" d="M42.12,22.24H26.43a5.57,5.57,0,0,0-4.89,3.06,5,5,0,0,1-8.89,0A5.64,5.64,0,0,0,10,22.8a.78.78,0,0,0-.74.05.75.75,0,0,0-.35.64.77.77,0,0,0,.41.7A4.1,4.1,0,0,1,11.28,26a6.51,6.51,0,0,0,11.63,0,4,4,0,0,1,3.52-2.2H42.12a7.69,7.69,0,0,1,0-.83C42.08,22.74,42.1,22.64,42.12,22.24Z"/><polygon class="b" points="28.57 61.42 17.15 34.14 5.74 61.42 28.57 61.42"/><rect class="b" x="38.58" y="80.71" width="22.83" height="3.74"/><rect class="b" x="32.68" y="86.81" width="34.45" height="4.33"/><path class="b" d="M51.18,15.2V8.86H48.82V15.2A7.78,7.78,0,0,1,51.18,15.2Z"/><rect class="b" x="46.65" y="70.28" width="6.69" height="8.07"/><path class="b" d="M2.36,63.79a15.24,15.24,0,0,0,.35,2.94H31.59a14.45,14.45,0,0,0,.3-2.94H2.36Z"/><path class="b" d="M17.15,78.53A14.77,14.77,0,0,0,30.9,69.09H3.41A14.75,14.75,0,0,0,17.15,78.53Z"/><path class="b" d="M68.11,63.79a14.45,14.45,0,0,0,.3,2.94H97.29a15.24,15.24,0,0,0,.35-2.94H68.11Z"/><path class="b" d="M50,17.47A5.56,5.56,0,1,0,55.56,23,5.56,5.56,0,0,0,50,17.47Zm0,9.64A4.08,4.08,0,1,1,54.08,23,4.08,4.08,0,0,1,50,27.11Z"/><path class="b" d="M50,21.32a1.71,1.71,0,0,0,0,3.42h0a1.71,1.71,0,0,0,0-3.42Z"/><path class="b" d="M48.82,30.86V67.91h2.36v-37A7.78,7.78,0,0,1,48.82,30.86Z"/><polygon class="b" points="82.85 34.14 71.43 61.42 94.26 61.42 82.85 34.14"/><path class="b" d="M82.85,78.53a14.75,14.75,0,0,0,13.74-9.44H69.1A14.77,14.77,0,0,0,82.85,78.53Z"/><path class="b" d="M88.72,26a4.12,4.12,0,0,1,1.93-1.85.77.77,0,0,0,.41-.7A.77.77,0,0,0,90,22.8a5.64,5.64,0,0,0-2.62,2.53,5,5,0,0,1-8.87,0,5.57,5.57,0,0,0-4.89-3.06H57.88c0,.4,0,.5,0,.75a7.69,7.69,0,0,1,0,.83H73.59A4,4,0,0,1,77.11,26a6.49,6.49,0,0,0,11.61,0Z"/><path class="c" d="M15.56,31.83,3.18,61.42H1.24A1.22,1.22,0,0,0,0,62.59v1.2a17.13,17.13,0,0,0,34.25,0v-1.2a1.17,1.17,0,0,0-1.17-1.17H31.13L18.74,31.81A8.94,8.94,0,0,1,15.56,31.83Zm1.59,46.7A14.75,14.75,0,0,1,3.41,69.09H30.9A14.77,14.77,0,0,1,17.15,78.53ZM31.89,63.78h0a14.45,14.45,0,0,1-.3,2.94H2.71a15.24,15.24,0,0,1-.35-2.94H31.89Zm-3.32-2.36H5.74L17.15,34.14Z"/><path class="c" d="M98.76,61.42H96.82L84.45,31.84a8.77,8.77,0,0,1-3.19,0L68.87,61.42H66.93a1.16,1.16,0,0,0-1.18,1.16h0v1.2a17.13,17.13,0,0,0,34.25,0v-1.2A1.22,1.22,0,0,0,98.76,61.42ZM82.85,34.14,94.26,61.42H71.43Zm0,44.39A14.77,14.77,0,0,1,69.1,69.09H96.59A14.75,14.75,0,0,1,82.85,78.53ZM97.64,63.79a15.24,15.24,0,0,1-.35,2.94H68.41a14.45,14.45,0,0,1-.3-2.94H97.64Z"/><path class="d" d="M50,19A4.08,4.08,0,1,0,54.08,23,4.08,4.08,0,0,0,50,19Zm0,5.79h0A1.71,1.71,0,1,1,51.71,23,1.7,1.7,0,0,1,50,24.74Z"/><path class="d" d="M82.4,30a1.18,1.18,0,0,1,1.54.64l.51,1.22a8.91,8.91,0,0,0,6.36-4.71,1.72,1.72,0,0,1,.81-.79A3.13,3.13,0,0,0,92,20.86h0a3.11,3.11,0,0,0-3-.2,8,8,0,0,0-3.73,3.59,2.59,2.59,0,0,1-4.67,0,7.91,7.91,0,0,0-7-4.34H57.29a8.13,8.13,0,0,0-3.75-3.94V7.64A1.16,1.16,0,0,0,52.35,6.5H47.66a1.16,1.16,0,0,0-1.2,1.13h0v8.3a8.13,8.13,0,0,0-3.75,3.94H26.43a7.89,7.89,0,0,0-7,4.33A2.6,2.6,0,0,1,16,25.43a2.56,2.56,0,0,1-1.21-1.2A8,8,0,0,0,11,20.66a3.13,3.13,0,1,0-2.65,5.68,1.73,1.73,0,0,1,.8.78,8.87,8.87,0,0,0,6.38,4.71l.5-1.21a1.18,1.18,0,0,1,2.18,0l.5,1.19A8.49,8.49,0,0,0,21.12,31,8.81,8.81,0,0,0,25,27.11a1.63,1.63,0,0,1,1.42-.93H42.75a8,8,0,0,0,3.71,3.94V67.91h-1a1.22,1.22,0,0,0-1.22,1.18v9.26H37.45a1.28,1.28,0,0,0-1.23,1.25v4.85H31.46a1.09,1.09,0,0,0-1.14,1s0,.05,0,.07v6.8a1.13,1.13,0,0,0,1.11,1.14H68.34a1.12,1.12,0,0,0,1.15-1.09V85.56a1.09,1.09,0,0,0-1.08-1.11H63.78V79.6a1.28,1.28,0,0,0-1.23-1.25H55.71V69.09a1.22,1.22,0,0,0-1.22-1.18h-1V30.12a8,8,0,0,0,3.71-3.94H73.59a1.62,1.62,0,0,1,1.42.94,8.87,8.87,0,0,0,6.25,4.69l.5-1.19A1.18,1.18,0,0,1,82.4,30Zm-56-6.16A4,4,0,0,0,22.91,26a6.51,6.51,0,0,1-11.63,0,4.1,4.1,0,0,0-1.93-1.84.77.77,0,0,1-.41-.7.75.75,0,0,1,.35-.64A.78.78,0,0,1,10,22.8a5.64,5.64,0,0,1,2.62,2.53,5,5,0,0,0,8.89,0,5.57,5.57,0,0,1,4.89-3.06H42.12c0,.4,0,.5,0,.75a7.69,7.69,0,0,0,0,.83Zm22.39-15h2.36V15.2a7.78,7.78,0,0,0-2.36,0Zm18.31,78v4.33H32.68V86.81Zm-5.71-6.1v3.74H38.58V80.71ZM53.35,70.28v8.07h-6.7V70.28Zm-4.53-2.37v-37a7.78,7.78,0,0,0,2.36,0V67.91ZM50,28.58A5.56,5.56,0,1,1,55.56,23,5.55,5.55,0,0,1,50,28.58ZM77.11,26a4,4,0,0,0-3.52-2.21H57.88a7.69,7.69,0,0,0,0-.83c0-.25,0-.35,0-.75H73.59a5.57,5.57,0,0,1,4.89,3.06,5,5,0,0,0,8.87,0A5.64,5.64,0,0,1,90,22.8a.77.77,0,0,1,1.09.69.77.77,0,0,1-.41.7A4.12,4.12,0,0,0,88.72,26a6.49,6.49,0,0,1-11.61,0Z"/><path class="d" d="M16.7,30a1.18,1.18,0,0,0-.64.64l-.5,1.21a8.94,8.94,0,0,0,3.18,0l-.5-1.19A1.18,1.18,0,0,0,16.7,30Z"/><path class="d" d="M84.45,31.84l-.51-1.22a1.18,1.18,0,0,0-2.18,0l-.5,1.19A8.77,8.77,0,0,0,84.45,31.84Z"/></svg>