<svg xmlns="http://www.w3.org/2000/svg" viewBox="0 0 100 100"><defs><style>.a{fill:#e6e7e8;}.b{fill:none;}.c{fill:#21409a;}.d{fill:#ec008c;}</style></defs><path class="a" d="M24.05,91.65V68.07L27,57.94H22.75L19.84,68.07V91.65a5.39,5.39,0,0,0,5.39,5.4h4.21A5.39,5.39,0,0,1,24.05,91.65Z"/><path class="a" d="M23.9,53.68a1.32,1.32,0,0,1,1.31-1.32H21A1.32,1.32,0,0,0,21,55h4.24A1.32,1.32,0,0,1,23.9,53.68Z"/><path class="a" d="M63.4,91.74V37a1.48,1.48,0,0,0-1-1.38,18,18,0,0,1-10.5-23.12c.11-.28.21-.55.33-.81L52.3,4a17.82,17.82,0,0,0-7.82,14.8A18,18,0,0,0,56.13,35.63,1.46,1.46,0,0,1,57.08,37V91.74A5.31,5.31,0,0,0,65.55,96,5.31,5.31,0,0,1,63.4,91.74Z"/><path class="b" d="M22.75,57.94,19.84,68.07V91.65a5.39,5.39,0,0,0,5.39,5.4h5.5a5.4,5.4,0,0,0,5.4-5.4V68.07L33.22,57.94Zm3.64,31.23a1.48,1.48,0,1,1-2.95,0V72.7a1.48,1.48,0,0,1,2.95,0Zm6.14,0a1.48,1.48,0,1,1-3,0V72.7a1.48,1.48,0,0,1,3,0Z"/><path class="b" d="M29.44,16.3l2-4.21-2.37-9H26.89l-2.37,9,2,4.21a1.38,1.38,0,0,1,.14.63V49.41H29.3V16.93A1.52,1.52,0,0,1,29.44,16.3Z"/><path class="b" d="M21,55H35a1.32,1.32,0,1,0,0-2.64H21A1.32,1.32,0,0,0,21,55Z"/><path class="b" d="M72.52,4.06V12.6a1.47,1.47,0,0,1-.66,1.23l-8.59,5.72a1.49,1.49,0,0,1-1.67,0l-8.7-6.1a1.46,1.46,0,0,1-.63-1.21L52.3,4a17.82,17.82,0,0,0-7.82,14.8A18,18,0,0,0,56.13,35.63,1.46,1.46,0,0,1,57.08,37V91.74a5.32,5.32,0,0,0,10.63,0V37a1.46,1.46,0,0,1,1-1.38A18,18,0,0,0,80.31,18.84,17.8,17.8,0,0,0,72.52,4.06ZM64.82,83H60a1.48,1.48,0,0,1,0-3h4.85a1.48,1.48,0,0,1,0,3Zm0-8.24H60a1.48,1.48,0,0,1,0-2.95h4.85a1.48,1.48,0,0,1,0,2.95Zm0-8.24H60a1.48,1.48,0,0,1,0-3h4.85a1.48,1.48,0,0,1,0,3Z"/><path class="c" d="M31.05,71.23a1.47,1.47,0,0,0-1.47,1.47V89.17a1.48,1.48,0,1,0,3,0V72.7A1.47,1.47,0,0,0,31.05,71.23Z"/><path class="c" d="M24.91,71.23a1.47,1.47,0,0,0-1.47,1.47V89.17a1.48,1.48,0,1,0,2.95,0V72.7A1.47,1.47,0,0,0,24.91,71.23Z"/><path class="c" d="M26.66,16.93a1.38,1.38,0,0,0-.14-.63l-2-4.21,2.37-9h2.19l2.37,9-2,4.21a1.52,1.52,0,0,0-.14.63V49.41h2.95V17.27l2.09-4.39a1.47,1.47,0,0,0,.09-1L31.64,1.22A1.47,1.47,0,0,0,30.22.12H25.75a1.48,1.48,0,0,0-1.43,1.1L21.53,11.87a1.48,1.48,0,0,0,.1,1l2.09,4.39V49.41h2.94Z"/><path class="c" d="M81.55,10.58A20.84,20.84,0,0,0,71.7.17a1.47,1.47,0,0,0-2.13,1.32V11.82l-7.1,4.72-7.25-5.07,0-10A1.47,1.47,0,0,0,53.78,0a1.52,1.52,0,0,0-.66.15,20.87,20.87,0,0,0,1,37.86V91.74a8.26,8.26,0,1,0,16.52,0V38A20.88,20.88,0,0,0,81.55,10.58ZM68.67,35.63a1.46,1.46,0,0,0-1,1.38V91.74a5.32,5.32,0,0,1-10.63,0V37a1.46,1.46,0,0,0-.95-1.38A18,18,0,0,1,44.48,18.84,17.82,17.82,0,0,1,52.3,4l0,8.19a1.46,1.46,0,0,0,.63,1.21l8.7,6.1a1.49,1.49,0,0,0,1.67,0l8.59-5.72a1.47,1.47,0,0,0,.66-1.23V4.06a17.8,17.8,0,0,1,7.79,14.78A18,18,0,0,1,68.67,35.63Z"/><path class="d" d="M64.82,63.55H60a1.48,1.48,0,0,0,0,3h4.85a1.48,1.48,0,0,0,0-3Z"/><path class="d" d="M64.82,71.79H60a1.48,1.48,0,0,0,0,2.95h4.85a1.48,1.48,0,0,0,0-2.95Z"/><path class="d" d="M64.82,80H60a1.48,1.48,0,0,0,0,3h4.85a1.48,1.48,0,0,0,0-3Z"/><path class="d" d="M16.89,67.86V91.65A8.36,8.36,0,0,0,25.23,100h5.5a8.36,8.36,0,0,0,8.35-8.35V67.86a1.39,1.39,0,0,0-.06-.4l-2.79-9.71A4.27,4.27,0,0,0,35,49.41H32.25v.17a1.48,1.48,0,0,1-2.95,0v-.17H26.66v.17a1.47,1.47,0,1,1-2.94,0v-.17H21a4.27,4.27,0,0,0-1.26,8.34L17,67.46A1.39,1.39,0,0,0,16.89,67.86ZM36.13,91.65a5.4,5.4,0,0,1-5.4,5.4h-5.5a5.39,5.39,0,0,1-5.39-5.4V68.07l2.91-10.13H33.22l2.91,10.13ZM19.67,53.7A1.32,1.32,0,0,1,21,52.36H35A1.32,1.32,0,1,1,35,55H21A1.32,1.32,0,0,1,19.67,53.7Z"/><path class="d" d="M25.19,51.05a1.47,1.47,0,0,0,1.47-1.47v-.17H23.72v.17A1.47,1.47,0,0,0,25.19,51.05Z"/><path class="d" d="M29.3,49.58a1.48,1.48,0,0,0,2.95,0v-.17H29.3Z"/></svg>