<svg xmlns="http://www.w3.org/2000/svg" viewBox="0 0 100 100"><defs><style>.a{fill:#e6e6e6;}.b{fill:none;}.c{fill:#ec008c;}.d{fill:#21409a;}</style></defs><path class="a" d="M51.77,96.34c.78,0,1.56-.12,2.33-.22V38.32H51.77Z"/><path class="a" d="M61.46,36.55a1.77,1.77,0,0,1-1.77,1.77H62a1.78,1.78,0,0,0,0-3.55H59.69A1.78,1.78,0,0,1,61.46,36.55Z"/><path class="a" d="M62.19,11.06a12.22,12.22,0,0,1-9.81,13.22l-.61.12V34.77H54.1V24.4l.61-.12A12.26,12.26,0,0,0,52.32,0c-.39,0-.78,0-1.16.05A12.22,12.22,0,0,1,62.19,11.06Z"/><path class="b" d="M43.62,12.26a8.7,8.7,0,0,0,7.54,8.61,8.69,8.69,0,0,0,0-17.23A8.71,8.71,0,0,0,43.62,12.26Z"/><path class="a" d="M43.62,12.26a8.71,8.71,0,0,1,7.54-8.62A8.94,8.94,0,0,0,50,3.55,8.71,8.71,0,0,0,50,21a8.94,8.94,0,0,0,1.17-.09A8.7,8.7,0,0,1,43.62,12.26Z"/><path class="c" d="M51.16,96.36l-.61,0v-58H48.22v58c.58,0,1.18,0,1.77,0C50.38,96.39,50.77,96.37,51.16,96.36Z"/><path class="c" d="M50.55,24.4l-.62-.12A12.26,12.26,0,0,1,51.16.05c-.39,0-.77,0-1.17,0A12.26,12.26,0,0,0,47.6,24.28l.62.12V34.77h2.33Z"/><path class="c" d="M58.7,12.26a8.7,8.7,0,0,1-7.54,8.61,8.92,8.92,0,0,0,1.16.09,8.71,8.71,0,1,0,0-17.41,8.92,8.92,0,0,0-1.16.09A8.71,8.71,0,0,1,58.7,12.26Z"/><path class="c" d="M40.85,36.55a1.78,1.78,0,0,1,1.78-1.78H40.3a1.78,1.78,0,1,0,0,3.55h2.33A1.78,1.78,0,0,1,40.85,36.55Z"/><path class="c" d="M50.55,96.34l.61,0,.61,0v-58h7.92a1.78,1.78,0,0,0,0-3.55H51.77V24.4l.61-.12A12.26,12.26,0,0,0,51.16.05a12.26,12.26,0,0,0-1.23,24.23l.62.12V34.77H42.63a1.78,1.78,0,1,0,0,3.55h7.92ZM50,21A8.71,8.71,0,0,1,50,3.55a8.94,8.94,0,0,1,1.17.09,8.92,8.92,0,0,1,1.16-.09,8.71,8.71,0,1,1,0,17.41,8.92,8.92,0,0,1-1.16-.09A8.94,8.94,0,0,1,50,21Z"/><path class="d" d="M25.94,67.51A1.78,1.78,0,0,0,25.77,65l-9.14-7.78-1.17-.07-.7.39L6.16,65a1.78,1.78,0,0,0,2.33,2.68l5.68-4.92v1.66a35.81,35.81,0,0,0,71.62,0V62.75l5.69,4.92A1.78,1.78,0,0,0,93.83,65h0l-8.64-7.47-.09-.07L85,57.36l-.11-.06-.27-.12-.1,0-.06,0-.16,0a2.06,2.06,0,0,0-.42,0l-.64.19-.38.26L74.23,65a1.82,1.82,0,0,0-.61,1.21,1.79,1.79,0,0,0,.43,1.29,1.78,1.78,0,0,0,2.51.18l5.71-4.93,0,1.68A32.37,32.37,0,0,1,54.1,96.12v.22c-.59,0-1.18,0-1.78,0-.39,0-.77,0-1.16,0s-.78,0-1.17,0c-.59,0-1.19,0-1.77,0A32.37,32.37,0,0,1,17.73,64.42V62.74l5.71,4.93A1.78,1.78,0,0,0,25.94,67.51Z"/><path class="d" d="M51.16,96.36c.39,0,.77,0,1.16,0,.6,0,1.19,0,1.78,0v-.22c-.77.1-1.55.18-2.33.22Z"/></svg>