<svg xmlns="http://www.w3.org/2000/svg" viewBox="0 0 100 100"><defs><style>.a{fill:#e6e7e8;}.b{fill:none;}.c{fill:#21409a;}.d{fill:#ec008c;}</style></defs><path class="a" d="M30,40l-4.2,4.19,1.27,1.27-23.6,21a6.52,6.52,0,0,0-.54,9.2,6.45,6.45,0,0,0,2.27,1.64,6.52,6.52,0,0,1,1.64-7.46l23.72-21.1.11-.11L29.37,47.4l4-4Z"/><rect class="b" x="30.96" y="41" width="3.4" height="10.98" transform="translate(-23.31 36.71) rotate(-45)"/><path class="b" d="M54.2,56.55a1.44,1.44,0,0,0,2,0L73,39.76h0a1.44,1.44,0,0,0,0-2l-1.9-1.89L52.31,54.66Z"/><rect class="b" x="25.33" y="18.93" width="22.12" height="1.97" transform="translate(-3.43 31.56) rotate(-45)"/><path class="b" d="M4.29,67.45a4.36,4.36,0,0,0-.43.43,5.25,5.25,0,1,0,7.84,7L32.11,51.92,27.23,47Z"/><path class="b" d="M41.42,6.13a1.42,1.42,0,0,0-2,0L22.6,22.92a1.42,1.42,0,0,0,0,2l1.89,1.89L43.31,8Z"/><rect class="b" x="48.18" y="41.78" width="22.12" height="1.97" transform="translate(-12.89 54.41) rotate(-45)"/><rect class="b" x="34.86" y="39.55" width="5.41" height="4.07" transform="translate(-18.41 38.74) rotate(-45)"/><path class="b" d="M45.42,15.85,32.32,29,50.2,46.82,63.3,33.73ZM47,23.21a1.26,1.26,0,0,1-1.79,0L44,22a1.28,1.28,0,0,1,0-1.78,1.26,1.26,0,0,1,1.79,0L47,21.42A1.27,1.27,0,0,1,47,23.21ZM56.35,34.4l-8.5-8.5a1.27,1.27,0,0,1,0-1.79,1.26,1.26,0,0,1,1.79,0l8.5,8.5h0a1.25,1.25,0,0,1,0,1.77A1.26,1.26,0,0,1,56.35,34.4Z"/><rect class="b" x="37.56" y="82.27" width="52.74" height="4.22"/><path class="b" d="M92.88,89h-58a4.55,4.55,0,0,0-4.48,4.61v.66H97.47v-.66A4.61,4.61,0,0,0,92.88,89Z"/><path class="c" d="M49.63,55.56l2.78,2.78a4,4,0,0,0,5.61,0h0l16.8-16.79a4,4,0,0,0,0-5.61L72,33.15a1.27,1.27,0,0,0-1.79,0l-.7.7-2.29-2.29a1.27,1.27,0,0,0-1.79,0h0l-.37.38L47.21,14.06l.38-.37a1.27,1.27,0,0,0,0-1.79L45.3,9.61l.7-.7a1.27,1.27,0,0,0,0-1.79L43.21,4.33a4,4,0,0,0-5.61,0L20.81,21.13a4,4,0,0,0,0,5.61l2.78,2.78a1.26,1.26,0,0,0,1.79,0l.7-.69,2.29,2.29a1.27,1.27,0,0,0,1.79,0l.38-.38,5.7,5.71-3.82,3.82-1.55-1.54a1.26,1.26,0,0,0-1.79,0h0l-4.19,4.19a1.27,1.27,0,0,0,0,1.79l.54.54L2.61,65.56A7.78,7.78,0,0,0,7.77,79.15H8a7.72,7.72,0,0,0,5.58-2.61L33.9,53.72l.54.54a1.27,1.27,0,0,0,1.79,0l4.2-4.19a1.27,1.27,0,0,0,0-1.79l-1.55-1.55,3.82-3.82,5.71,5.7L48,49a1.27,1.27,0,0,0,0,1.79l2.29,2.29-.69.7A1.26,1.26,0,0,0,49.63,55.56Zm21.5-19.72L73,37.73a1.44,1.44,0,0,1,0,2h0L56.23,56.55a1.44,1.44,0,0,1-2,0l-1.89-1.89Zm-4.77-1.59,1.39,1.39L52.11,51.28l-1.39-1.4ZM24.49,26.84,22.6,25a1.42,1.42,0,0,1,0-2L39.39,6.13a1.42,1.42,0,0,1,2,0L43.31,8Zm4.77,1.59L27.87,27,43.51,11.4l1.39,1.39ZM11.7,74.86a5.25,5.25,0,1,1-7.84-7,4.36,4.36,0,0,1,.43-.43L27.23,47l4.88,4.88ZM35.34,51.57l-7.77-7.76L30,41.41l7.76,7.76Zm1.75-6.63-2.88-2.88L38,38.24l2.88,2.88ZM50.2,46.82,32.32,29l13.1-13.1L63.3,33.73Z"/><path class="c" d="M45.76,20.23a1.26,1.26,0,0,0-1.79,0A1.28,1.28,0,0,0,44,22l1.2,1.19a1.26,1.26,0,0,0,1.79,0,1.27,1.27,0,0,0,0-1.79Z"/><path class="c" d="M58.14,32.61h0l-8.5-8.5a1.26,1.26,0,0,0-1.79,0,1.27,1.27,0,0,0,0,1.79l8.5,8.5a1.26,1.26,0,0,0,1.79,0A1.25,1.25,0,0,0,58.14,32.61Z"/><path class="d" d="M92.88,86.49h0V81a1.27,1.27,0,0,0-1.33-1.21H36.28A1.22,1.22,0,0,0,35,80.9v5.59H34.9a7.08,7.08,0,0,0-7,7.11v2A1.21,1.21,0,0,0,29,96.82H98.74A1.28,1.28,0,0,0,100,95.55V93.63A7.13,7.13,0,0,0,92.88,86.49ZM37.56,82.27H90.3v4.22H37.56Zm59.91,12H30.38v-.66A4.55,4.55,0,0,1,34.86,89h58a4.61,4.61,0,0,1,4.59,4.61Z"/></svg>