<svg xmlns="http://www.w3.org/2000/svg" viewBox="0 0 100 100"><defs><style>.a{fill:#e6e7e8;}.b{fill:none;}.c{fill:#21409a;}.d{fill:#ec008c;}</style></defs><path class="a" d="M30.41,57.74A35.32,35.32,0,0,1,20.24,28.91a35.36,35.36,0,0,0,7.81,38.26l50.05-50a33.85,33.85,0,0,0-3.79-3.29Z"/><path class="a" d="M9.65,11.23A5.93,5.93,0,0,1,4.1,7.37a5.93,5.93,0,1,0,8.75,2.92A5.92,5.92,0,0,1,9.65,11.23Z"/><path class="b" d="M7.29,16.94a4.57,4.57,0,1,0-4.57-4.57h0A4.59,4.59,0,0,0,7.29,16.94Z"/><path class="c" d="M7.29,19.67A7.3,7.3,0,1,0,0,12.37,7.33,7.33,0,0,0,7.29,19.67Zm0-11.87a4.57,4.57,0,1,1-4.57,4.57h0A4.58,4.58,0,0,1,7.29,7.8Z"/><path class="b" d="M27.32,19.93a34,34,0,0,0,.21,44.7l.53.61,8.09-8.09A40.92,40.92,0,0,1,27.32,19.93Z"/><path class="b" d="M68.78,24.52l7.38-7.38-.6-.54a33.75,33.75,0,0,0-22.4-8.49h-.09a34.07,34.07,0,0,0-21.26,7.52,41,41,0,0,1,37,8.89Z"/><path class="b" d="M30.84,18.7l-.39.12-.12.4a38.37,38.37,0,0,0,7.75,36L66.85,26.45A38.26,38.26,0,0,0,30.84,18.7Z"/><path class="d" d="M30.33,19.22l.12-.4.39-.12a38.26,38.26,0,0,1,36,7.75l1.93-1.93a41,41,0,0,0-37-8.89,33.17,33.17,0,0,0-4.49,4.3,40.92,40.92,0,0,0,8.83,37.22l1.93-1.93A38.37,38.37,0,0,1,30.33,19.22Z"/><path class="c" d="M89.57,76.72,55,42.15,79.06,18.09a1.36,1.36,0,0,0,0-1.93A36.74,36.74,0,0,0,53.16,5.39H53a36.52,36.52,0,0,0-24,9l-.54.47-1.73-1.73a1.38,1.38,0,0,0-1.32-.37,1.36,1.36,0,0,0-.61,2.29l1.71,1.71-.49.54a36.65,36.65,0,0,0,1.12,50.81h0a1.37,1.37,0,0,0,1.93,0L53.08,44.08,87.23,78.23A7.91,7.91,0,0,0,89.75,77,1.16,1.16,0,0,0,89.57,76.72ZM38.08,55.22l-1.93,1.93-8.09,8.09-.53-.61a34,34,0,0,1-.21-44.7,33.17,33.17,0,0,1,4.49-4.3A34.07,34.07,0,0,1,53.07,8.11h.09a33.75,33.75,0,0,1,22.4,8.49l.6.54-7.38,7.38-1.93,1.93Z"/><path class="d" d="M98.64,73.07a11.16,11.16,0,0,0-7.73,3c-.39.31-.77.61-1.16.89a1.31,1.31,0,0,1,.22.69,1.35,1.35,0,0,1-.4,1,1.4,1.4,0,0,1-1.92,0l-.42-.42a8.47,8.47,0,0,1-2.35.31c-3,0-4.38-1.13-6-2.44a11.36,11.36,0,0,0-15.45,0c-1.65,1.31-3.07,2.44-6,2.44s-4.38-1.13-6-2.44a11.36,11.36,0,0,0-15.45,0c-1.65,1.31-3.07,2.44-6,2.44s-4.39-1.13-6-2.44a11.16,11.16,0,0,0-7.73-3,1.36,1.36,0,0,0,0,2.72c3,0,4.39,1.13,6,2.44a11.36,11.36,0,0,0,15.45,0c1.65-1.31,3.07-2.44,6-2.44s4.39,1.13,6,2.44a11.36,11.36,0,0,0,15.45,0c1.65-1.31,3.07-2.44,6-2.44s4.39,1.13,6,2.44a11.38,11.38,0,0,0,15.46,0c1.64-1.31,3.06-2.44,6-2.44a1.36,1.36,0,0,0,0-2.72Z"/><path class="d" d="M89.57,78.65a1.35,1.35,0,0,0,.4-1,1.31,1.31,0,0,0-.22-.69,7.91,7.91,0,0,1-2.52,1.24l.42.42A1.4,1.4,0,0,0,89.57,78.65Z"/><path class="d" d="M98.64,86.73a11.16,11.16,0,0,0-7.73,3c-1.64,1.31-3.06,2.44-6,2.44s-4.38-1.13-6-2.44a11.36,11.36,0,0,0-15.45,0c-1.65,1.31-3.07,2.44-6,2.44s-4.38-1.13-6-2.44a11.36,11.36,0,0,0-15.45,0c-1.65,1.31-3.07,2.44-6,2.44s-4.39-1.13-6-2.44a11.16,11.16,0,0,0-7.73-3,1.37,1.37,0,0,0,0,2.73c3,0,4.39,1.13,6,2.43a11.38,11.38,0,0,0,15.45,0c1.65-1.31,3.07-2.44,6-2.44s4.39,1.13,6,2.43a11.38,11.38,0,0,0,15.45,0c1.65-1.31,3.07-2.44,6-2.44s4.39,1.13,6,2.43a11.39,11.39,0,0,0,15.46,0c1.64-1.31,3.06-2.44,6-2.44a1.37,1.37,0,0,0,0-2.73Z"/></svg>