<svg xmlns="http://www.w3.org/2000/svg" viewBox="0 0 100 100"><defs><style>.a{fill:#e6e7e8;}.b{fill:none;}.c{fill:#21409a;}.d{fill:#ec008c;}</style></defs><path class="a" d="M66.14,87.1a.75.75,0,0,1-.79-.73v0c0-.31,0-.61,0-.91a13,13,0,0,0-1.84-5.78,12,12,0,0,0-1.42-1.89,13.86,13.86,0,0,1-2.19-3.27,1.18,1.18,0,0,0-1.08-.69H56.1a.13.13,0,0,1-.15-.12h0V67.06H54.12c-.09,0-.15,0-.15.08v8.52a.13.13,0,0,0,.13.14h2.71a1.23,1.23,0,0,1,1.08.7,13,13,0,0,0,2.19,3.26,12.38,12.38,0,0,1,1.41,1.89,12.81,12.81,0,0,1,1.84,5.78c0,.31,0,.6,0,.91a.77.77,0,0,0,.77.76h2.78a.8.8,0,0,0,.79-.8,3.27,3.27,0,0,1,.23-1.19Z"/><path class="a" d="M84.33,95a.4.4,0,0,1-.4-.4V83.33h-.6a.39.39,0,0,0-.39.4V95.64a.39.39,0,0,0,.39.39H97.22a.4.4,0,0,0,.4-.39V95Z"/><rect class="b" x="41.07" y="42.86" width="3.37" height="28.57"/><path class="b" d="M75.67,39.29H62.43a2.35,2.35,0,0,0-2.19,2.49A2.4,2.4,0,0,0,62.45,44h.16A2.36,2.36,0,0,0,65,41.64h0a1.17,1.17,0,0,1,1.19-1.15h6a1.16,1.16,0,0,1,1.17,1.16,2.37,2.37,0,0,0,4.07,1.63,2.29,2.29,0,0,0,.67-1.7A2.41,2.41,0,0,0,75.67,39.29Z"/><path class="b" d="M49.34,39.29H36.1a2.35,2.35,0,0,0-2.19,2.49A2.4,2.4,0,0,0,36.12,44a2.36,2.36,0,0,0,2.52-2.34v0a1.17,1.17,0,0,1,1.19-1.15h6A1.17,1.17,0,0,1,47,41.65a2.37,2.37,0,1,0,4.74-.08A2.41,2.41,0,0,0,49.34,39.29Z"/><path class="b" d="M38.69,45.74a5.1,5.1,0,0,1-2.39.63l-.33,0a4.77,4.77,0,0,1-3.74-7.26H27.1a5,5,0,0,1,.73,2.38,4.73,4.73,0,0,1-1.34,3.46,4.66,4.66,0,0,1-3.4,1.44,4.71,4.71,0,0,1-2.65-.82V71.43h1.15a1.17,1.17,0,0,1,1.08.62l1.19,2.33a1.28,1.28,0,0,1,.15.53v1.28H35.12V74.91a1,1,0,0,1,.11-.51l1.16-2.35a1.14,1.14,0,0,1,1.07-.62h1.23Z"/><polygon class="b" points="37.5 75.19 37.5 76.19 48.02 76.19 48.02 75.19 47.19 73.81 38.19 73.81 37.5 75.19"/><path class="b" d="M83.33,31.84,42.86,14.24,2.38,31.84v4.87h81ZM52.75,27.38h-1.9a8.1,8.1,0,0,1-16,0H32.94a1.19,1.19,0,1,1,0-2.38h1.88a8.1,8.1,0,0,1,16,0h1.9a1.19,1.19,0,0,1,0,2.38Z"/><path class="b" d="M42.84,20.51a5.72,5.72,0,1,0,5.72,5.72A5.72,5.72,0,0,0,42.84,20.51Zm0,7.81a1.9,1.9,0,1,1,1.9-1.9A1.9,1.9,0,0,1,42.84,28.32Z"/><path class="b" d="M42.84,25.94a.48.48,0,0,0-.48.48.47.47,0,0,0,.48.48.48.48,0,0,0,.48-.48h0A.49.49,0,0,0,42.84,25.94Z"/><path class="b" d="M4.76,82.34H59.1a10.84,10.84,0,0,0-.79-1,14.4,14.4,0,0,1-2-2.77H4.76Z"/><path class="b" d="M62.56,46.37l-.26,0a4.77,4.77,0,0,1-3.74-7.26H53.43a5.1,5.1,0,0,1,.74,2.38,4.76,4.76,0,0,1-1.33,3.46,4.63,4.63,0,0,1-3.39,1.44,4.18,4.18,0,0,1-2.62-.82V71.43h1.09a1.18,1.18,0,0,1,1.09.62l1.21,2.33a1.29,1.29,0,0,1,.18.53v1.28h1.25a2.33,2.33,0,0,1-.06-.53V67.09a2.47,2.47,0,0,1,2.53-2.41h1.94l.65-1.06a19,19,0,0,1,8.61-7.32,10.4,10.4,0,0,0-.44-3.55l-.2-.65a1,1,0,0,1-.05-.35,1.17,1.17,0,0,1,.25-.7V45.74A4.23,4.23,0,0,1,62.56,46.37Z"/><path class="b" d="M48.4,6.86a1.16,1.16,0,0,1,0-1.36l.91-1.33H44.05V7.79l5.05,0Z"/><path class="b" d="M67.26,42.86v7.82a8.92,8.92,0,0,1,3.37,1.25V42.86Z"/><path class="b" d="M12.31,41.63a1.17,1.17,0,0,1,1.19-1.15h6a1.17,1.17,0,0,1,1.18,1.17v0a2.37,2.37,0,1,0,4.74-.12A2.41,2.41,0,0,0,23,39.29H9.77a2.34,2.34,0,0,0-2.19,2.49A2.4,2.4,0,0,0,9.79,44a2.36,2.36,0,0,0,1.77-.64h0a2.31,2.31,0,0,0,.75-1.7Z"/><polygon class="b" points="21.63 75.19 20.85 73.81 11.86 73.81 11.11 75.19 11.11 76.19 21.63 76.19 21.63 75.19"/><path class="b" d="M85.91,78.79V81h8.73V78.79a4.37,4.37,0,0,0-8.73,0Z"/><rect class="b" x="14.68" y="42.86" width="3.37" height="28.57"/><path class="b" d="M83.53,81V78.79a6.75,6.75,0,0,1,6.74-6.69,6.88,6.88,0,0,1,2.86.62,10.56,10.56,0,0,0,.05-1.13c0-8.27-7.48-15-16.68-15-.66,0-1.33,0-2,.09a9.33,9.33,0,0,1,.54,3.13,1.19,1.19,0,0,1-2.38,0,6.84,6.84,0,0,0-.91-3.42s0-.08-.07-.13a6.81,6.81,0,0,0-4.27-3.12,12.74,12.74,0,0,1,.2,4.13,1.19,1.19,0,0,1-.45.81,1.14,1.14,0,0,1-.34.19,16.52,16.52,0,0,0-8.12,6.6l-1,1.6a1.19,1.19,0,0,1-1,.59h-2.6c-.09,0-.15,0-.15.08v8.54a.13.13,0,0,0,.15.11h2.69a1.23,1.23,0,0,1,1.08.7,13,13,0,0,0,2.19,3.26,12.38,12.38,0,0,1,1.41,1.89,12.81,12.81,0,0,1,1.84,5.78c0,.31,0,.6,0,.91v0a.78.78,0,0,0,.79.74h2.76a.8.8,0,0,0,.79-.8,3.17,3.17,0,0,1,3.17-3.17H76a3.17,3.17,0,0,1,3.17,3.17.79.79,0,0,0,.79.8h.59V83.66A2.77,2.77,0,0,1,83.39,81ZM65.31,68.39a3.47,3.47,0,0,1-3.47-3.47,1.19,1.19,0,1,1,2.38,0,1.1,1.1,0,0,0,2.19,0,1.19,1.19,0,0,1,2.38,0A3.47,3.47,0,0,1,65.31,68.39Z"/><rect class="b" x="82.94" y="83.33" width="14.68" height="12.7" rx="0.4"/><path class="c" d="M59.1,82.34H4.76V78.57H56.3c-.08-.13-.15-.26-.22-.39h-2a2.51,2.51,0,0,1-2.46-2H50.4V74.91a1.29,1.29,0,0,0-.18-.53L49,72.05a1.18,1.18,0,0,0-1.09-.62H46.83V45.55a4.18,4.18,0,0,0,2.62.82,4.63,4.63,0,0,0,3.39-1.44,4.76,4.76,0,0,0,1.33-3.46,5.1,5.1,0,0,0-.74-2.38h5.13a4.77,4.77,0,0,0,3.74,7.26l.26,0a4.23,4.23,0,0,0,2.32-.63v5.31a1.18,1.18,0,0,1,.94-.49h.39a8.88,8.88,0,0,1,1.05.11V42.86h3.37v9.07A9,9,0,0,1,73,54V45.55a4.84,4.84,0,0,0,2.69.82,4.75,4.75,0,0,0,4.77-4.75v-.15a4.9,4.9,0,0,0-.72-2.38h4.75A1.17,1.17,0,0,0,85.71,38h0V31.06A1.2,1.2,0,0,0,85,30L44.05,12.16v-2l7.45-.07a1.19,1.19,0,0,0,.93-1.91L50.8,6.07l1.67-2.52a1.12,1.12,0,0,0,.06-1.18,1.16,1.16,0,0,0-1.05-.58H42.84a1.11,1.11,0,0,0-1.17,1v9.33L.72,30A1.19,1.19,0,0,0,0,31.06v6.88a1.15,1.15,0,0,0,1.14,1.15H5.9a4.77,4.77,0,0,0,3.74,7.26l.3,0a5,5,0,0,0,2.36-.63V71.43H11.13a1.14,1.14,0,0,0-1.07.62L8.87,74.4a1,1,0,0,0-.14.51v1.28H3.49a1,1,0,0,0-1.11,1v6.38a1.11,1.11,0,0,0,1,1.17h56.9a11,11,0,0,0-.86-1.84C59.35,82.7,59.22,82.52,59.1,82.34ZM44.05,4.17h5.21L48.35,5.5a1.16,1.16,0,0,0,0,1.36l.7.9-5.05,0ZM36.39,72.05,35.23,74.4a1,1,0,0,0-.11.51v1.28H24V74.91a1.28,1.28,0,0,0-.15-.53l-1.19-2.33a1.17,1.17,0,0,0-1.08-.62H20.44V45.55a4.71,4.71,0,0,0,2.65.82,4.66,4.66,0,0,0,3.4-1.44,4.73,4.73,0,0,0,1.34-3.46,5,5,0,0,0-.73-2.38h5.13A4.77,4.77,0,0,0,36,46.35l.33,0a5.1,5.1,0,0,0,2.39-.63V71.43H37.46A1.14,1.14,0,0,0,36.39,72.05Zm10.79,1.76L48,75.19v1H37.5v-1l.69-1.38Zm-6.11-2.38V42.86h3.37V71.43Zm10-28.16A2.37,2.37,0,0,1,47,41.65a1.17,1.17,0,0,0-1.17-1.17h-6a1.17,1.17,0,0,0-1.19,1.15v0A2.36,2.36,0,0,1,36.12,44a2.4,2.4,0,0,1-2.21-2.21,2.35,2.35,0,0,1,2.19-2.49H49.34a2.41,2.41,0,0,1,2.44,2.28A2.33,2.33,0,0,1,51.11,43.27Zm26.33,0a2.37,2.37,0,0,1-4.07-1.63,1.16,1.16,0,0,0-1.17-1.16h-6A1.17,1.17,0,0,0,65,41.63h0A2.36,2.36,0,0,1,62.61,44h-.16a2.4,2.4,0,0,1-2.21-2.21,2.35,2.35,0,0,1,2.19-2.49H75.67a2.41,2.41,0,0,1,2.44,2.28A2.29,2.29,0,0,1,77.44,43.27ZM2.38,36.71V31.84l40.48-17.6,40.47,17.6v4.87Zm9.18,6.64h0A2.36,2.36,0,0,1,9.79,44a2.4,2.4,0,0,1-2.21-2.21,2.34,2.34,0,0,1,2.19-2.49H23a2.41,2.41,0,0,1,2.45,2.28,2.37,2.37,0,1,1-4.74.12v0a1.17,1.17,0,0,0-1.18-1.17h-6a1.17,1.17,0,0,0-1.19,1.15v0A2.31,2.31,0,0,1,11.56,43.35Zm6.5-.49V71.43H14.68V42.86ZM11.11,75.19l.75-1.38h9l.78,1.38v1H11.11Z"/><path class="c" d="M52.75,25h-1.9a8.1,8.1,0,0,0-16,0H32.94a1.19,1.19,0,1,0,0,2.38h1.88a8.1,8.1,0,0,0,16,0h1.9a1.19,1.19,0,0,0,0-2.38Zm-9.91,7a5.72,5.72,0,1,1,5.72-5.72A5.72,5.72,0,0,1,42.84,32Z"/><path class="c" d="M42.84,24.52a1.9,1.9,0,1,0,1.9,1.9A1.9,1.9,0,0,0,42.84,24.52Zm.48,1.9a.48.48,0,0,1-.48.48.47.47,0,0,1-.48-.48.48.48,0,0,1,.48-.48.49.49,0,0,1,.48.48Z"/><path class="d" d="M67.6,63.73a1.19,1.19,0,0,0-1.19,1.19,1.1,1.1,0,0,1-2.19,0,1.19,1.19,0,1,0-2.38,0,3.48,3.48,0,0,0,7,0A1.19,1.19,0,0,0,67.6,63.73Z"/><path class="d" d="M97.29,81H97V78.79a6.65,6.65,0,0,0-1.69-4.43,16.11,16.11,0,0,0,.24-2.77v-.13a5.08,5.08,0,0,0,4-5,1.19,1.19,0,1,0-2.38,0,2.69,2.69,0,0,1-1.86,2.56C94,60.66,86.07,54.21,76.5,54.21a22.28,22.28,0,0,0-3.16.22A4.47,4.47,0,0,0,73,54v.49c0,.65-2.39.65-2.39,0V51.93a8.92,8.92,0,0,0-3.37-1.25v.67a1.19,1.19,0,1,1-2.38,0v-.3a1.17,1.17,0,0,0-.25.7,1,1,0,0,0,.05.35l.2.65a10.4,10.4,0,0,1,.44,3.55,19,19,0,0,0-8.61,7.32l-.65,1.06H54.12a2.47,2.47,0,0,0-2.53,2.41v8.57a2.33,2.33,0,0,0,.06.53h5.29v2.38H56.3a14.4,14.4,0,0,0,2,2.77,10.84,10.84,0,0,1,.79,1h2.41v2.38H60.32A10.54,10.54,0,0,1,61,87.6c0,.25,0,.48,0,.73a3.16,3.16,0,0,0,3.16,3.14h2.77a3.18,3.18,0,0,0,3.17-3.18.79.79,0,0,1,.79-.79H76a.8.8,0,0,1,.79.79A3.18,3.18,0,0,0,80,91.47h.59v4a2.75,2.75,0,0,0,2.83,2.69H97.24A2.69,2.69,0,0,0,100,95.58V83.66A2.71,2.71,0,0,0,97.29,81Zm-2.65-2.16V81H85.91V78.79a4.37,4.37,0,0,1,8.73,0ZM80.56,83.66v5.43H80a.79.79,0,0,1-.79-.8A3.17,3.17,0,0,0,76,85.12H70.87a3.17,3.17,0,0,0-3.17,3.17.8.8,0,0,1-.79.8H64.15a.78.78,0,0,1-.79-.74v0c0-.31,0-.6,0-.91a12.81,12.81,0,0,0-1.84-5.78,12.38,12.38,0,0,0-1.41-1.89,13,13,0,0,1-2.19-3.26,1.23,1.23,0,0,0-1.08-.7H54.12a.13.13,0,0,1-.15-.11V67.14c0-.09.06-.08.15-.08h2.6a1.19,1.19,0,0,0,1-.59l1-1.6a16.52,16.52,0,0,1,8.12-6.6,1.14,1.14,0,0,0,.34-.19,1.19,1.19,0,0,0,.45-.81,12.74,12.74,0,0,0-.2-4.13,6.81,6.81,0,0,1,4.27,3.12c0,.05,0,.09.07.13a6.84,6.84,0,0,1,.91,3.42,1.19,1.19,0,0,0,2.38,0,9.33,9.33,0,0,0-.54-3.13c.65-.06,1.32-.09,2-.09,9.2,0,16.68,6.73,16.68,15a10.56,10.56,0,0,1-.05,1.13,6.88,6.88,0,0,0-2.86-.62,6.75,6.75,0,0,0-6.74,6.69V81h-.14A2.77,2.77,0,0,0,80.56,83.66Zm17.06,12a.4.4,0,0,1-.4.39H83.33a.39.39,0,0,1-.39-.39V83.73a.39.39,0,0,1,.39-.4H97.22a.4.4,0,0,1,.4.4Z"/><path class="d" d="M70.63,51.93v2.58c0,.65,2.39.65,2.39,0V54A9,9,0,0,0,70.63,51.93Z"/><path class="d" d="M61.51,82.34H59.1c.12.18.25.36.36.54a11,11,0,0,1,.86,1.84h1.19Z"/><path class="d" d="M65.82,50.56a1.18,1.18,0,0,0-.94.49v.3a1.19,1.19,0,1,0,2.38,0v-.67a8.88,8.88,0,0,0-1.05-.11Z"/><path class="d" d="M54.11,78.18h2c.07.13.14.26.22.39h.64V76.19H51.65A2.51,2.51,0,0,0,54.11,78.18Z"/></svg>