<svg xmlns="http://www.w3.org/2000/svg" viewBox="0 0 100 100"><defs><style>.a{fill:#e6e7e8;}.b{fill:none;}.c{fill:#21409a;}.d{fill:#ec008c;}</style></defs><path class="a" d="M31.49,30.51l-1.94-1.94L24.7,33.43a5.86,5.86,0,0,0-.81,7.36h0c.65,1,1.32,1.94,2,2.9l5.5-5.5A5.44,5.44,0,0,0,31.49,30.51Z"/><path class="a" d="M76.52,77.32a29.75,29.75,0,0,1-37.8,3.85l-5.87-4A81.49,81.49,0,0,1,11.72,56l-4-5.86A28.83,28.83,0,0,1,3.16,39.27a29.15,29.15,0,0,0,4.53,22l4,5.87A81.64,81.64,0,0,0,32.85,88.28l5.87,4a29.75,29.75,0,0,0,37.8-3.85l2.66-2.67a5.28,5.28,0,0,0,.09-7.47l-1.88-1.88Z"/><path class="b" d="M9,60.37l4,5.86A79.35,79.35,0,0,0,33.77,86.94l5.86,4a27.32,27.32,0,0,0,15.51,4.78,28.48,28.48,0,0,0,20.23-8.44L78,84.66a3.69,3.69,0,0,0,.1-5.19L67.77,69.11a3.68,3.68,0,0,0-5.16.11L56.1,75.73a7.39,7.39,0,0,1-9.22,1A82.55,82.55,0,0,1,23.28,53.1a7.39,7.39,0,0,1,1-9.21l6.49-6.49a3.68,3.68,0,0,0,.1-5.19L20.52,21.87h0a3.67,3.67,0,0,0-5.16.11l-2.67,2.66A28.13,28.13,0,0,0,9,60.37Z"/><path class="c" d="M10.39,22.34a31.37,31.37,0,0,0-4,39.86l4,5.87A82.55,82.55,0,0,0,31.93,89.62l5.87,4a31.38,31.38,0,0,0,39.87-4l2.66-2.67A7,7,0,0,0,82.39,82a6.7,6.7,0,0,0-2-4.86L70.08,66.83a6.74,6.74,0,0,0-4.8-2h-.06a7,7,0,0,0-4.91,2.06l-6.5,6.51a4.13,4.13,0,0,1-5,.64L48.68,74A79.15,79.15,0,0,1,26,51.3a4.14,4.14,0,0,1,.59-5.12l6.5-6.49a6.91,6.91,0,0,0,.09-9.77L22.83,19.58a6.75,6.75,0,0,0-4.8-2,7,7,0,0,0-5,2.07Zm10.13-.48h0L30.87,32.21a3.68,3.68,0,0,1-.1,5.19l-6.49,6.49a7.39,7.39,0,0,0-1,9.21,82.55,82.55,0,0,0,23.6,23.61,7.39,7.39,0,0,0,9.22-1l6.51-6.51a3.68,3.68,0,0,1,5.16-.11L78.12,79.47a3.69,3.69,0,0,1-.1,5.19l-2.65,2.65a28.48,28.48,0,0,1-20.23,8.44A27.32,27.32,0,0,1,39.63,91l-5.86-4A79.35,79.35,0,0,1,13.06,66.23L9,60.37a28.13,28.13,0,0,1,3.66-35.74L15.36,22A3.67,3.67,0,0,1,20.52,21.86Z"/><path class="d" d="M96.74,56a1.62,1.62,0,0,0,1.78-.35A1.64,1.64,0,0,0,99,54.52,52.65,52.65,0,0,0,45.48,1a1.63,1.63,0,0,0-1.59,1.65,1.64,1.64,0,0,0,1.64,1.59h.61A49.42,49.42,0,0,1,95.75,54.48,1.62,1.62,0,0,0,96.74,56Z"/><path class="d" d="M78.67,54.69a1.62,1.62,0,0,0,2.77,1.16,1.64,1.64,0,0,0,.48-1.12v-1.2h0A36.06,36.06,0,0,0,45.28,18.08a1.64,1.64,0,0,0-1.62,1.66,1.59,1.59,0,0,0,.49,1.14,1.74,1.74,0,0,0,1.16.45h1.13A32.85,32.85,0,0,1,78.67,54.69Z"/><path class="d" d="M45.06,36.78a1.64,1.64,0,0,0-1.62,1.65A1.66,1.66,0,0,0,45.09,40h.51A14.65,14.65,0,0,1,60,54.91a1.63,1.63,0,0,0,3.25,0v-.59A18,18,0,0,0,45.35,36.78Z"/></svg>