<svg xmlns="http://www.w3.org/2000/svg" viewBox="0 0 100 100"><defs><style>.a{fill:#e6e7e8;}.b{fill:none;}.c{fill:#21409a;}.d{fill:#ec008c;}</style></defs><path class="a" d="M57.29,59.74a1.42,1.42,0,0,0-1.41-1.38H52.39a1.36,1.36,0,0,1,.19.67l.76,30.32,4.31-15Z"/><path class="a" d="M49.94,30l2-18L34.25,57.66h5Z"/><path class="b" d="M51.17,57.66A1.41,1.41,0,0,1,52.58,59l.76,30.32L65.93,45.42H49.65a1.4,1.4,0,0,1-1.24-1.56L51.92,12,34.25,57.66Z"/><path class="c" d="M56.46,14.15a1.42,1.42,0,0,0,1,1.64,33.89,33.89,0,0,1,3.81,65,1.41,1.41,0,0,0,.93,2.66h0A36.7,36.7,0,0,0,58.12,13,1.4,1.4,0,0,0,56.46,14.15Z"/><path class="c" d="M44.83,15.35a1.41,1.41,0,1,0-.4-2.8h0A36.69,36.69,0,0,0,47,85.39h.11a1.41,1.41,0,0,0,.12-2.82,33.87,33.87,0,0,1-2.39-67.23Z"/><path class="c" d="M47.4,5.15h0a43.75,43.75,0,0,0-.21,87.33h.1a1.41,1.41,0,0,0,.08-2.82A40.93,40.93,0,0,1,47.55,8a1.41,1.41,0,0,0-.15-2.82Z"/><path class="c" d="M57.14,7.05a1.41,1.41,0,0,0,1.08,1.68h0a40.94,40.94,0,0,1,.92,80,1.41,1.41,0,1,0,.63,2.75,43.76,43.76,0,0,0-1-85.5h0A1.4,1.4,0,0,0,57.14,7.05Z"/><path class="d" d="M54.67,0A1.42,1.42,0,0,0,53.19.9L30.87,58.56a1.4,1.4,0,0,0,.81,1.82,1.25,1.25,0,0,0,.51.1H49.8l1,38.14a1.41,1.41,0,0,0,2.77.36L69.16,44.4a1.41,1.41,0,0,0-1-1.75,1.2,1.2,0,0,0-.38,0H51.38l4.53-41A1.4,1.4,0,0,0,54.67,0ZM48.41,43.85a1.4,1.4,0,0,0,1.24,1.56H65.93L53.34,89.35,52.58,59a1.41,1.41,0,0,0-1.41-1.37H34.25L51.92,12Z"/></svg>