<svg xmlns="http://www.w3.org/2000/svg" viewBox="0 0 100 100"><defs><style>.a{fill:#e6e7e8;}.b{fill:none;}.c{fill:#21409a;}.d{fill:#ec008c;}</style></defs><path class="a" d="M88.19,20.07a29,29,0,0,0-6.83,12c-.8,2.85-1.17,5.86-1.85,8.74a22.15,22.15,0,0,1-1.93,5.36C72,56.5,58.78,57.91,49.81,52.29a17.55,17.55,0,0,0,1.06,1.54c8,10.45,26.11,11.07,32.88-1.49A21.71,21.71,0,0,0,85.67,47c.69-2.88,1.06-5.89,1.86-8.74A29,29,0,0,1,98.7,22.48,64,64,0,0,0,88.19,20.07Z"/><path class="a" d="M20.78,61.23A16.57,16.57,0,0,1,19,57.32c-.71-2.12-1.2-4.36-2-6.46A21.92,21.92,0,0,0,9.64,41.2,48.79,48.79,0,0,0,1.3,43.87,22,22,0,0,1,10.79,55c.8,2.1,1.29,4.34,2,6.47a17.1,17.1,0,0,0,1.82,3.9c5.45,8.23,17.31,7.5,23.35.87C32,68.44,24.7,67.16,20.78,61.23Z"/><path class="b" d="M50.65,51.31l.73-1.3C55.8,42,64,31.92,78.16,28.35a.72.72,0,0,1,.88.55L79.28,30a.7.7,0,0,1-.52.83A36.92,36.92,0,0,0,62.2,40a47.24,47.24,0,0,0-9.58,13.2l-.24.46.35.39a19.53,19.53,0,0,0,14.63,6.37c.53,0,1.07,0,1.61-.06a16.6,16.6,0,0,0,13.64-8.64,20.13,20.13,0,0,0,1.8-5c.29-1.18.51-2.37.75-3.66.32-1.69.65-3.44,1.13-5.13a30.06,30.06,0,0,1,8.56-14l1-1-1.36-.34a63.22,63.22,0,0,0-22-1.55c-6.37.69-15,2.83-20.17,9.16A19.25,19.25,0,0,0,50,50Z"/><path class="b" d="M12,54.51c.48,1.26.85,2.55,1.21,3.82.26.94.52,1.82.8,2.68a15.45,15.45,0,0,0,1.68,3.62,12.24,12.24,0,0,0,10.43,5.43h.51a14.71,14.71,0,0,0,11.16-5.67l.4-.54-.48-.47A61.48,61.48,0,0,0,17.41,50.5a.7.7,0,0,1-.41-.9l.41-1.09a.72.72,0,0,1,.94-.42A64.45,64.45,0,0,1,38.58,60.63l.91.85.34-1.19A14.3,14.3,0,0,0,36.5,46.76c-4.23-4.34-10.83-5.34-15.61-5.42A47.09,47.09,0,0,0,5.44,43.7l-1.31.43L5.19,45A23.14,23.14,0,0,1,12,54.51Z"/><path class="c" d="M.65,45A20.85,20.85,0,0,1,9.58,55.43c.44,1.17.8,2.41,1.14,3.6.26.93.53,1.88.84,2.82a17.61,17.61,0,0,0,2,4.21,14.81,14.81,0,0,0,13.18,6.57,17.14,17.14,0,0,0,12.74-6.18l.57-.69.59.67a52.72,52.72,0,0,1,3.86,5,43,43,0,0,1,5.11,9.86.7.7,0,0,0,.84.45l1-.25a.75.75,0,0,0,.63-1,45.6,45.6,0,0,0-5-9.88l-.17-.25,0-.23A65.55,65.55,0,0,1,50.78,57.2l.4-1L52,57a22.54,22.54,0,0,0,15.38,6c.59,0,1.2,0,1.81-.07A19.15,19.15,0,0,0,84.88,53a22.34,22.34,0,0,0,2.05-5.67c.3-1.25.54-2.54.77-3.78.33-1.73.63-3.33,1.08-4.92a28,28,0,0,1,10.67-15,1.29,1.29,0,0,0-.35-2.29h0a65.15,65.15,0,0,0-26.82-2.74c-9.82,1-17.4,4.54-21.9,10.09a21.82,21.82,0,0,0-2.53,22.83,19,19,0,0,0,1.28,2.19l.24.35-.14.32a68.53,68.53,0,0,0-4,11.72v0a.71.71,0,0,1-1.24.29c-.71-.87-1.45-1.72-2.21-2.54l-.32-.36.2-.45c.1-.22.2-.45.28-.67A16.64,16.64,0,0,0,38.35,45c-3.84-3.93-9.86-6.08-17.42-6.2A49.39,49.39,0,0,0,.79,42.68,1.29,1.29,0,0,0,0,43.8,1.32,1.32,0,0,0,.65,45ZM52.39,30.24c5.13-6.33,13.8-8.47,20.17-9.16a63.22,63.22,0,0,1,22,1.55l1.36.34-1,1a30.06,30.06,0,0,0-8.56,14c-.48,1.69-.81,3.44-1.13,5.13-.24,1.29-.46,2.48-.75,3.66a20.13,20.13,0,0,1-1.8,5A16.6,16.6,0,0,1,69,60.36c-.54,0-1.08.06-1.61.06a19.53,19.53,0,0,1-14.63-6.37l-.35-.39.24-.46A47.24,47.24,0,0,1,62.2,40a36.92,36.92,0,0,1,16.56-9.14.7.7,0,0,0,.52-.83L79,28.9a.72.72,0,0,0-.88-.55C64,31.92,55.8,42,51.38,50l-.73,1.3L50,50A19.25,19.25,0,0,1,52.39,30.24ZM5.44,43.7a47.09,47.09,0,0,1,15.45-2.36c4.78.08,11.38,1.08,15.61,5.42a14.3,14.3,0,0,1,3.33,13.53l-.34,1.19-.91-.85A64.45,64.45,0,0,0,18.35,48.09a.72.72,0,0,0-.94.42L17,49.6a.7.7,0,0,0,.41.9,61.48,61.48,0,0,1,20.3,12.87l.48.47-.4.54a14.71,14.71,0,0,1-11.16,5.67h-.51a12.24,12.24,0,0,1-10.43-5.43A15.45,15.45,0,0,1,14,61c-.28-.86-.54-1.74-.8-2.68-.36-1.27-.73-2.56-1.21-3.82A23.14,23.14,0,0,0,5.19,45l-1.06-.88Z"/><path class="d" d="M0,28.21a.68.68,0,0,0,0,.14V28.1A.43.43,0,0,0,0,28.21Z"/><path class="d" d="M100,28.35a.68.68,0,0,0,0-.14.43.43,0,0,0,0-.11Z"/><path class="d" d="M41.65,32.77h-.07a1.48,1.48,0,0,1-1.43-1.56c.53-12,10.75-18.49,11.18-18.76A1.5,1.5,0,1,1,52.91,15c-.13.08-9.31,5.94-9.76,16.34A1.51,1.51,0,0,1,41.65,32.77Z"/><path class="d" d="M34.55,33.62a1.52,1.52,0,0,1-1.42-1c-1.86-5.46-.89-15-.84-15.38a1.49,1.49,0,0,1,1.64-1.34,1.5,1.5,0,0,1,1.34,1.65c0,.09-.94,9.27.7,14.1A1.5,1.5,0,0,1,35,33.54,1.67,1.67,0,0,1,34.55,33.62Z"/></svg>