<svg xmlns="http://www.w3.org/2000/svg" viewBox="0 0 100 100"><defs><style>.a{fill:#e6e7e8;}.b{fill:none;}.c{fill:#21409a;}.d{fill:#ec008c;}</style></defs><path class="a" d="M29.9,9.88a38.49,38.49,0,0,1,7-6.41A40.76,40.76,0,0,0,14.32,15.83a41.5,41.5,0,0,0,3.17,3A41,41,0,0,1,29.9,9.88Z"/><path class="a" d="M9.43,45h-6a40.53,40.53,0,0,0,9.07,24.24A43.75,43.75,0,0,1,16,65.89,40.43,40.43,0,0,1,9.43,45Z"/><path class="a" d="M12.47,18A40.55,40.55,0,0,0,3.4,42.21h6A40.44,40.44,0,0,1,16,21.33,42.09,42.09,0,0,1,12.47,18Z"/><path class="a" d="M30.61,78.17a41,41,0,0,1-13.44-9.55c-1,.88-1.94,1.8-2.85,2.78A40.76,40.76,0,0,0,36.85,83.75,38.91,38.91,0,0,1,30.61,78.17Z"/><path class="b" d="M24,60.56a43.58,43.58,0,0,1,18.8-4.92V45H21.5A56.48,56.48,0,0,0,24,60.56Z"/><path class="b" d="M62.09,72.3A39.85,39.85,0,0,1,51.46,83.76,40.52,40.52,0,0,0,66,78.11,14.74,14.74,0,0,1,62.09,72.3Z"/><path class="b" d="M57.84,62.41A4.08,4.08,0,0,1,58.51,61a39.88,39.88,0,0,0-12.93-2.53V84.08A36.87,36.87,0,0,0,61,68.55l-.08-.26A5,5,0,0,1,57.84,62.41Z"/><path class="b" d="M80.89,83.89V81.14a14.57,14.57,0,0,1-9.92,0v2.75A12.08,12.08,0,0,0,80.89,83.89Z"/><path class="b" d="M64.17,69.33l0,.13h0a11.93,11.93,0,0,0,23.46,0l0-.13.71-2.45a1.42,1.42,0,0,1,1.14-1.12,2.17,2.17,0,0,0,1.81-2.16,2.31,2.31,0,0,0-.06-.52,1.28,1.28,0,0,0-1-1h0c-.52,0-12.67.4-21.19-7a16.08,16.08,0,0,1-2-.21L65.9,59.45a3.27,3.27,0,0,1-.23.92,3.33,3.33,0,0,1-4.34,1.82,1.24,1.24,0,0,0-.76.89,2.31,2.31,0,0,0-.06.52,2.17,2.17,0,0,0,1.81,2.16,1.42,1.42,0,0,1,1.14,1.12l.38,1.33a1.42,1.42,0,0,1,.07.22Z"/><path class="b" d="M42.76,84.08V58.46a40.78,40.78,0,0,0-17.87,4.8C28.42,72.55,34.57,79.85,42.76,84.08Z"/><path class="b" d="M22.43,64.69a40.8,40.8,0,0,0-8.11,6.71A40.76,40.76,0,0,0,36.85,83.75,41.69,41.69,0,0,1,22.43,64.69Z"/><path class="b" d="M75.93,40.49A12.91,12.91,0,0,0,63,53.4v6a.44.44,0,0,0,.08-.25,1.77,1.77,0,0,1,0-.32l1.66-5.94a.14.14,0,0,1,0-.06,1.4,1.4,0,0,1,1.77-.9A13.13,13.13,0,0,0,78.66,49a1.4,1.4,0,1,1,1.84,2.12,16,16,0,0,1-7.17,3.66c5.78,3.73,12.65,4.4,15.52,4.51V53.4A12.91,12.91,0,0,0,75.93,40.49Z"/><path class="b" d="M63.08,16.57a46.42,46.42,0,0,1,2.82,6h0A40.21,40.21,0,0,0,74,15.83,40.82,40.82,0,0,0,51.46,3.47,40.24,40.24,0,0,1,63.08,16.57Z"/><path class="b" d="M21.46,62a58.76,58.76,0,0,1-2.77-17H3.4a40.53,40.53,0,0,0,9.07,24.24A43.79,43.79,0,0,1,21.46,62Z"/><path class="b" d="M21.46,25.25a43.51,43.51,0,0,1-9-7.29A40.55,40.55,0,0,0,3.4,42.21H18.69A58.7,58.7,0,0,1,21.46,25.25Z"/><path class="b" d="M21.51,42.21H42.76V31.58A43.44,43.44,0,0,1,24,26.66,56.16,56.16,0,0,0,21.51,42.21Z"/><path class="b" d="M22.43,22.54A41.67,41.67,0,0,1,36.86,3.47,40.76,40.76,0,0,0,14.32,15.83,40.8,40.8,0,0,0,22.43,22.54Z"/><path class="b" d="M24.89,24a40.78,40.78,0,0,0,17.87,4.8V3.15C34.57,7.38,28.42,14.68,24.89,24Z"/><path class="b" d="M60.62,18a36.67,36.67,0,0,0-15-14.8V28.78A40.29,40.29,0,0,0,63.44,24,44,44,0,0,0,60.62,18Z"/><path class="b" d="M84.84,40.45a40.55,40.55,0,0,0-9-22.48,43.24,43.24,0,0,1-9,7.33,58.64,58.64,0,0,1,2.64,13.76,15.61,15.61,0,0,1,15.33,1.39Z"/><path class="b" d="M62.64,45H45.58V55.63a42.9,42.9,0,0,1,14.63,3V53.4A15.68,15.68,0,0,1,62.64,45Z"/><path class="b" d="M64.37,26.72a43.07,43.07,0,0,1-18.79,4.87V42.21H64.89a15.73,15.73,0,0,1,1.88-1.58A55.72,55.72,0,0,0,64.37,26.72Z"/><path class="b" d="M69.43,86.28l-10,3.23a6.08,6.08,0,0,0-4,4.12l-.06.23a5.65,5.65,0,0,0-.13,1.29v2h41.4v-2a5.59,5.59,0,0,0-.13-1.29l-.06-.23a6.08,6.08,0,0,0-4-4.12l-10-3.23A14.9,14.9,0,0,1,69.43,86.28Z"/><path class="c" d="M11.41,72.41q.93,1.05,1.92,2A43.29,43.29,0,0,0,42.87,87.21l.23,0,.16,0,.91,0h1.07l.23,0A43.4,43.4,0,0,0,68.15,80v-.26A14.39,14.39,0,0,1,66,78.11a40.52,40.52,0,0,1-14.5,5.65A39.85,39.85,0,0,0,62.09,72.3a13.44,13.44,0,0,1-.64-2.25L61,68.55A36.87,36.87,0,0,1,45.58,84.08V58.45A39.88,39.88,0,0,1,58.51,61a4.12,4.12,0,0,1,1.7-1.38v-1a42.9,42.9,0,0,0-14.63-3V45H62.64a16.13,16.13,0,0,1,2.25-2.81H45.58V31.59a43.07,43.07,0,0,0,18.79-4.87,55.72,55.72,0,0,1,2.4,13.91,15.8,15.8,0,0,1,2.74-1.57A58.64,58.64,0,0,0,66.87,25.3a43.24,43.24,0,0,0,9-7.33,40.55,40.55,0,0,1,9,22.48,15.22,15.22,0,0,1,2.93,2.62A43.27,43.27,0,0,0,77.05,15a.86.86,0,0,0-.13-.14c-.61-.7-1.25-1.38-1.91-2.05A43.33,43.33,0,0,0,45.46,0a1.53,1.53,0,0,0-.37,0H43.24a1.45,1.45,0,0,0-.36,0A43.33,43.33,0,0,0,13.33,12.77c-.66.67-1.3,1.35-1.92,2.05a1,1,0,0,0-.13.15,43.62,43.62,0,0,0,0,57.29ZM74,15.83a40.21,40.21,0,0,1-8.12,6.76h0a46.42,46.42,0,0,0-2.82-6A40.24,40.24,0,0,0,51.46,3.47,40.82,40.82,0,0,1,74,15.83ZM45.58,3.15a36.67,36.67,0,0,1,15,14.8A44,44,0,0,1,63.44,24a40.29,40.29,0,0,1-17.86,4.76ZM14.32,71.4a40.8,40.8,0,0,1,8.11-6.71A41.69,41.69,0,0,0,36.85,83.75,40.76,40.76,0,0,1,14.32,71.4ZM42.76,84.08c-8.19-4.23-14.34-11.53-17.87-20.82a40.78,40.78,0,0,1,17.87-4.8Zm0-28.44A43.58,43.58,0,0,0,24,60.56,56.48,56.48,0,0,1,21.5,45H42.76Zm0-13.43H21.51A56.16,56.16,0,0,1,24,26.66a43.44,43.44,0,0,0,18.8,4.92Zm0-13.44A40.78,40.78,0,0,1,24.89,24c3.53-9.29,9.68-16.59,17.87-20.82Zm-5.9-25.3A41.67,41.67,0,0,0,22.43,22.54a40.8,40.8,0,0,1-8.11-6.71A40.76,40.76,0,0,1,36.86,3.47ZM12.47,18a43.51,43.51,0,0,0,9,7.29,58.7,58.7,0,0,0-2.77,17H3.4A40.55,40.55,0,0,1,12.47,18ZM18.69,45a58.76,58.76,0,0,0,2.77,17,43.79,43.79,0,0,0-9,7.28A40.53,40.53,0,0,1,3.4,45Z"/><path class="c" d="M63.84,68.21l.07.22A1.42,1.42,0,0,0,63.84,68.21Z"/><path class="d" d="M86.37,45A1.41,1.41,0,0,1,85,43.61c0-1.06,0-2.11-.13-3.16a15.61,15.61,0,0,0-15.33-1.39c0,.73.09,1.47.11,2.2a1.41,1.41,0,0,1-1.35,1.46h-.06a1.41,1.41,0,0,1-1.4-1.36c0-.24,0-.48,0-.73a15.73,15.73,0,0,0-1.88,1.58h.59a1.41,1.41,0,1,1,0,2.81H62.64a15.68,15.68,0,0,0-2.43,8.38v5.21q1,.39,2,.84A1.41,1.41,0,1,1,61,62c-.83-.37-1.67-.71-2.52-1a4.08,4.08,0,0,0-.67,1.43,5,5,0,0,0,3.09,5.88l.08.26.27-.48v0a1.41,1.41,0,0,1,1.91-.58,1.36,1.36,0,0,1,.64.74l-.38-1.33a1.42,1.42,0,0,0-1.14-1.12,2.17,2.17,0,0,1-1.81-2.16,2.31,2.31,0,0,1,.06-.52,1.24,1.24,0,0,1,.76-.89,3.33,3.33,0,0,0,4.34-1.82,3.27,3.27,0,0,0,.23-.92l1.26-4.52a16.08,16.08,0,0,0,2,.21c8.52,7.38,20.67,7,21.19,7h0a1.28,1.28,0,0,1,1,1,2.31,2.31,0,0,1,.06.52,2.17,2.17,0,0,1-1.81,2.16,1.42,1.42,0,0,0-1.14,1.12l-.71,2.45,0,.13a11.93,11.93,0,0,1-23.46,0h0l0-.13-.26-.9a1.36,1.36,0,0,1-.14.94c-.52,1-1.09,2-1.68,2.93A14.74,14.74,0,0,0,66,78.11c.53-.34,1.05-.68,1.56-1a1.41,1.41,0,0,1,1.62,2.31l-1,.66v3.69l-9.57,3.1a8.88,8.88,0,0,0-5.87,6.06l-.09.33a9,9,0,0,0-.21,1.93v3.44A1.41,1.41,0,0,0,53.82,100H98a1.41,1.41,0,0,0,1.4-1.41V95.15a8.32,8.32,0,0,0-.2-1.93l-.09-.33a8.88,8.88,0,0,0-5.87-6.06l-9.57-3.1V79.79a14.77,14.77,0,0,0,6.7-9.74l.51-1.76A5,5,0,0,0,94,62.41a4,4,0,0,0-2.36-2.8V53.4a15.61,15.61,0,0,0-3.89-10.33c0,.18,0,.36,0,.54A1.41,1.41,0,0,1,86.37,45ZM71,81.14a14.57,14.57,0,0,0,9.92,0v2.75a12.08,12.08,0,0,1-9.92,0Zm21.44,8.37a6.08,6.08,0,0,1,4,4.12l.06.23a5.59,5.59,0,0,1,.13,1.29v2H55.23v-2a5.65,5.65,0,0,1,.13-1.29l.06-.23a6.08,6.08,0,0,1,4-4.12l10-3.23a14.9,14.9,0,0,0,13,0ZM88.85,59.29c-2.87-.11-9.74-.78-15.52-4.51a16,16,0,0,0,7.17-3.66A1.4,1.4,0,1,0,78.66,49,13.13,13.13,0,0,1,66.6,51.92a1.4,1.4,0,0,0-1.77.9.14.14,0,0,0,0,.06l-1.66,5.94a1.77,1.77,0,0,0,0,.32.44.44,0,0,1-.08.25v-6a12.92,12.92,0,0,1,25.83,0Z"/><path class="d" d="M62.89,61.31a1.41,1.41,0,0,0-.7-1.86q-1-.45-2-.84v1A4.12,4.12,0,0,0,58.51,61c.85.32,1.69.66,2.52,1A1.41,1.41,0,0,0,62.89,61.31Z"/><path class="d" d="M66.89,43.61a1.41,1.41,0,0,0-1.41-1.4h-.59A16.13,16.13,0,0,0,62.64,45h2.84A1.41,1.41,0,0,0,66.89,43.61Z"/><path class="d" d="M68.21,42.72h.06a1.41,1.41,0,0,0,1.35-1.46c0-.73-.06-1.47-.11-2.2a15.8,15.8,0,0,0-2.74,1.57c0,.25,0,.49,0,.73A1.41,1.41,0,0,0,68.21,42.72Z"/><path class="d" d="M63.91,68.43l-.07-.22a1.36,1.36,0,0,0-.64-.74,1.41,1.41,0,0,0-1.91.58v0l-.27.48.44,1.5a13.44,13.44,0,0,0,.64,2.25c.59-1,1.16-1.92,1.68-2.93A1.36,1.36,0,0,0,63.91,68.43Z"/><path class="d" d="M84.84,40.45c.08,1,.13,2.1.13,3.16a1.41,1.41,0,1,0,2.81,0c0-.18,0-.36,0-.54A15.22,15.22,0,0,0,84.84,40.45Z"/><path class="d" d="M69.48,77.42a1.41,1.41,0,0,0-2-.35c-.51.36-1,.7-1.56,1a14.39,14.39,0,0,0,2.19,1.67V80l1-.66A1.41,1.41,0,0,0,69.48,77.42Z"/></svg>