<svg xmlns="http://www.w3.org/2000/svg" viewBox="0 0 100 100"><defs><style>.a{fill:#e6e7e8;}.b{fill:none;}.c{fill:#21409a;}.d{fill:#ec008c;}</style></defs><path class="a" d="M14.4,53.82a47.46,47.46,0,0,1,59-46A47.46,47.46,0,1,0,38.47,95.11,47.43,47.43,0,0,1,14.4,53.82Z"/><path class="b" d="M92.71,65.78h0A46,46,0,1,0,65.89,92.08a2,2,0,0,1,.61-.1h.24l24.64,4.3L84.63,80.43a1.59,1.59,0,0,1,.26-1.67A45.58,45.58,0,0,0,92.71,65.78ZM29.76,57a7,7,0,1,1,7-7A7,7,0,0,1,29.76,57ZM50,57a7,7,0,1,1,7-7A7,7,0,0,1,50,57Zm20.24,0a7,7,0,1,1,7-7A7,7,0,0,1,70.24,57Z"/><path class="b" d="M29.76,46.25a3.75,3.75,0,0,0,0,7.5h0a3.75,3.75,0,0,0,0-7.5Z"/><path class="b" d="M70.24,46.25a3.75,3.75,0,0,0,0,7.5h0a3.75,3.75,0,0,0,0-7.5Z"/><path class="b" d="M50,46.25a3.75,3.75,0,0,0,0,7.5h0a3.75,3.75,0,0,0,0-7.5Z"/><path class="c" d="M99.07,49.08A49.13,49.13,0,1,0,66.43,95.3l.19-.07.19,0L93.75,100H94a1.63,1.63,0,0,0,1.36-.73,1.59,1.59,0,0,0,.14-1.51L88,80.09l.29-.36A48.77,48.77,0,0,0,99.07,49.08ZM84.63,80.43l6.75,15.86L66.74,92H66.5a2,2,0,0,0-.61.1A45.31,45.31,0,0,1,50,95,45.86,45.86,0,1,1,92.71,65.77h0a45.58,45.58,0,0,1-7.82,13A1.59,1.59,0,0,0,84.63,80.43Z"/><path class="d" d="M70.24,43a7,7,0,1,0,7,7A7,7,0,0,0,70.24,43Zm0,10.73h0A3.75,3.75,0,1,1,74,50,3.75,3.75,0,0,1,70.24,53.75Z"/><path class="d" d="M50,43a7,7,0,1,0,7,7A7,7,0,0,0,50,43Zm0,10.73h0A3.75,3.75,0,1,1,53.75,50,3.75,3.75,0,0,1,50,53.75Z"/><path class="d" d="M29.76,43a7,7,0,1,0,7,7A7,7,0,0,0,29.76,43Zm0,10.73h0A3.75,3.75,0,1,1,33.51,50,3.75,3.75,0,0,1,29.76,53.75Z"/></svg>