<svg xmlns="http://www.w3.org/2000/svg" viewBox="0 0 100 100"><defs><style>.a{fill:#e6e7e8;}.b{fill:none;}.c{fill:#21409a;}.d{fill:#ec008c;}</style></defs><path class="a" d="M5.39,73.43a7,7,0,0,1,5.77-6.89A7,7,0,1,0,8.7,80.31a6.78,6.78,0,0,0,2.46,0A7,7,0,0,1,5.39,73.43Z"/><path class="a" d="M84,12.13,90.35,6.8l-1-1.2-7.83,6.53,14.36,1.3-.2-.24Z"/><path class="b" d="M86.32,70.72h0a7,7,0,1,0,7,7A7,7,0,0,0,86.32,70.72Z"/><path class="b" d="M9.94,80.42a7,7,0,0,0,7-7h0a7,7,0,1,0-7,7Z"/><polygon class="b" points="89.35 5.6 81.52 12.13 95.88 13.43 89.35 5.6"/><path class="c" d="M.26,75.69a9.93,9.93,0,0,0,19.58-1.6h.71C29,74.1,46,72.63,62,62.37a59.37,59.37,0,0,0,18.46-18.5,66.41,66.41,0,0,0,9.41-28l7.91.72a2,2,0,0,0,1.74-3.32L90.68,2.62a1.45,1.45,0,0,0-2.05-.24l0,0L78,11.28a2,2,0,0,0,1.12,3.57l7.88.72a63.6,63.6,0,0,1-9,26.74A56.47,56.47,0,0,1,60.43,59.9c-16,10.26-33.11,11.37-40.83,11.25A9.93,9.93,0,0,0,.26,75.69ZM81.52,12.13,89.35,5.6l6.53,7.83ZM9.94,66.43a7,7,0,0,1,7,7h0a7,7,0,1,1-7-7Z"/><path class="d" d="M96.25,77.71a9.93,9.93,0,1,0-9.93,9.93A9.94,9.94,0,0,0,96.25,77.71Zm-9.93,7a7,7,0,1,1,0-14h0a7,7,0,1,1,0,14Z"/><path class="d" d="M22.94,11h0a1.47,1.47,0,0,0-2.07,0l-5,4.95L11,11A1.47,1.47,0,1,0,8.9,13.08L13.85,18,8.9,23A1.47,1.47,0,1,0,11,25.06v0l4.95-4.94,5,4.94A1.46,1.46,0,0,0,22.94,23L18,18l4.94-4.94A1.48,1.48,0,0,0,22.94,11Z"/><path class="d" d="M39.43,42.58a1.47,1.47,0,0,0,2.06,0h0l4.95-4.94,4.94,4.94a1.47,1.47,0,0,0,2.08-2.07l-5-4.95,5-4.94a1.47,1.47,0,0,0-2.08-2.08l-4.94,5-4.95-5A1.47,1.47,0,1,0,39.4,30.6l0,0,4.94,4.94-4.94,4.95A1.47,1.47,0,0,0,39.43,42.58Z"/><path class="d" d="M40.43,97.49a1.46,1.46,0,0,0,2.07,0l0,0,4.95-4.94,4.94,4.94a1.47,1.47,0,0,0,2.08-2.07l-5-5,5-5a1.47,1.47,0,0,0-2.08-2.07l-4.94,5-4.95-5a1.47,1.47,0,0,0-2.07,0,1.45,1.45,0,0,0,0,2l4.94,5-4.94,5A1.46,1.46,0,0,0,40.43,97.49Z"/></svg>