<svg xmlns="http://www.w3.org/2000/svg" viewBox="0 0 100 100"><defs><style>.a{fill:#e6e7e8;}.b{fill:none;}.c{fill:#21409a;}.d{fill:#ec008c;}</style></defs><path class="a" d="M34.63,70.47A29.28,29.28,0,0,1,26.44,50,29.67,29.67,0,0,1,53.12,20.58,29.58,29.58,0,0,0,33.47,74.5V74s0-.06,0-.1A7.3,7.3,0,0,1,34.63,70.47Z"/><path class="a" d="M68.61,68l-.12,0L63,66c.16-.07.33-.14.48-.22a6.46,6.46,0,0,0,3.15-3.73,6.05,6.05,0,0,0,1.53-.13,6.59,6.59,0,0,0,.87-.24,6.45,6.45,0,0,0,4.28-6.08,6.86,6.86,0,0,0-2.46-4.9,4,4,0,0,0,.61-2.13,4.44,4.44,0,0,0-.11-1,3.38,3.38,0,0,0-2.53-2.48l.2-3a13.12,13.12,0,0,0-12.18-14c-.3,0-.61,0-.91,0a13,13,0,0,0-3,.34,13.13,13.13,0,0,1,10.1,13.68l-.21,3a3.38,3.38,0,0,1,2.53,2.47,4,4,0,0,1-.5,3.11,6.87,6.87,0,0,1,2.47,4.9,6.46,6.46,0,0,1-6.45,6.46h-.23a6.53,6.53,0,0,1-3.15,3.73l-.48.22,5.45,2,.12,0a7.24,7.24,0,0,1,3.94,5.85s0,.07,0,.1v.67a30.28,30.28,0,0,0,4.89-4.07A7.12,7.12,0,0,0,68.61,68Z"/><path class="b" d="M33.47,74.5V74s0-.06,0-.1A7.21,7.21,0,0,1,37.38,68l.13,0,5.42-2a5.4,5.4,0,0,1-.49-.23,6.46,6.46,0,0,1-3.15-3.73,6.46,6.46,0,0,1-1.52-.12,6.91,6.91,0,0,1-1.7-.61,6.33,6.33,0,0,1-2-1.65A6.45,6.45,0,0,1,35,50.59a4.14,4.14,0,0,1-.54-2,3.89,3.89,0,0,1,.12-1,3.35,3.35,0,0,1,2.54-2.47l-.21-3a10.82,10.82,0,0,1,0-1.8,13.12,13.12,0,1,1,26.18,1.8l-.21,3a3.38,3.38,0,0,1,2.53,2.47,4,4,0,0,1-.5,3.11,6.87,6.87,0,0,1,2.47,4.9,6.46,6.46,0,0,1-4.29,6.08,6.2,6.2,0,0,1-.87.24,6,6,0,0,1-1.52.13,6.51,6.51,0,0,1-3.16,3.73l-.47.22,5.45,2,.12,0a7.24,7.24,0,0,1,3.94,5.85s0,.07,0,.1v.67A29.6,29.6,0,1,0,20.47,50,29.23,29.23,0,0,0,33.47,74.5Z"/><path class="b" d="M62.35,70.71A5.21,5.21,0,0,0,60.56,74v3.7a16.8,16.8,0,0,0,3.58-1.64V74A4.45,4.45,0,0,0,62.35,70.71Z"/><path class="b" d="M56.22,42.64A6.33,6.33,0,0,0,60.49,45l.2-3a9.14,9.14,0,0,0,0-1.48,10.73,10.73,0,0,0-21.41,1.48l.09,1.3a6.68,6.68,0,0,1,4-1.31A8.44,8.44,0,0,0,50,38.7h0L53,35a1.19,1.19,0,0,1,2.08,1S54.25,40,56.22,42.64Z"/><path class="b" d="M56.43,63.66a4,4,0,0,0,2.15-3.08s0-.07,0-.1A1.19,1.19,0,0,1,60,59.57a4.08,4.08,0,0,0,5-4,4.68,4.68,0,0,0-1.9-3.31,3.38,3.38,0,0,1-.7.23A12.34,12.34,0,0,1,58.69,60,12,12,0,0,1,55,62.51V64.1a2.7,2.7,0,0,0,.41-.06,3.24,3.24,0,0,0,.53-.16h0A3.74,3.74,0,0,0,56.43,63.66Z"/><path class="b" d="M51.2,71.55v8.07a28.4,28.4,0,0,0,7-1.11V74s0-.06,0-.1h0a7.23,7.23,0,0,1,1.87-4.23l-5.9-2.14Z"/><path class="b" d="M52.59,63.27a12.73,12.73,0,0,1-5.18,0V65.7L50,69.15l2.59-3.45Z"/><path class="b" d="M39.16,47.19l0,0-.1.07,0,0-.11,0,0,0-.14,0h0l-.11,0H38.4s0,0,0,0v0h-.09a.79.79,0,0,1-.22,0l-.2,0h0a.94.94,0,0,0-1,.71,1.74,1.74,0,0,0,0,.39h0a1.66,1.66,0,0,0,1.68,1.65h.2a1.2,1.2,0,0,1,1.19,1.17,10.08,10.08,0,0,0,20.15,0,1.22,1.22,0,0,1,1.2-1.18h.2a1.67,1.67,0,0,0,1.67-1.66,1.74,1.74,0,0,0-.05-.39,1,1,0,0,0-1.18-.73h-.31l0,0s0,0,0,0c-3.25-.19-5.69-1.34-7.22-3.4a9.27,9.27,0,0,1-1.71-4.75l-.73.89a10.84,10.84,0,0,1-8.52,4.11,4.26,4.26,0,0,0-3.87,2.47h0l-.08.13,0,0-.07.09,0,0h0Z"/><path class="b" d="M35,55.6a4,4,0,0,0,3.25,4,4.11,4.11,0,0,0,1.71,0l.1,0a1.2,1.2,0,0,1,1.34,1,4.07,4.07,0,0,0,2.15,3.09,4.47,4.47,0,0,0,1.06.38,1.92,1.92,0,0,0,.41,0V62.51A12.18,12.18,0,0,1,41.3,60a12.4,12.4,0,0,1-3.7-7.48,4.35,4.35,0,0,1-.83-.3A4.1,4.1,0,0,0,35,55.6Z"/><path class="b" d="M39.94,69.64a7.22,7.22,0,0,1,1.86,4.23s0,.07,0,.1v4.48a29,29,0,0,0,7,1.16V71.55l-3-4Z"/><path class="b" d="M37.65,70.71A4.42,4.42,0,0,0,35.86,74v2a38.81,38.81,0,0,0,3.58,1.67V74A5.21,5.21,0,0,0,37.65,70.71Z"/><path class="c" d="M18.05,50A32,32,0,0,0,33.87,77.61a1.05,1.05,0,0,0,.29.17,32.06,32.06,0,0,0,31.7.13,1.18,1.18,0,0,0,.29-.16A32,32,0,1,0,18.05,50Zm21.39,27.6A38.81,38.81,0,0,1,35.86,76V74a4.42,4.42,0,0,1,1.79-3.31A5.21,5.21,0,0,1,39.44,74Zm9.36,2a29,29,0,0,1-7-1.16V74s0-.06,0-.1a7.22,7.22,0,0,0-1.86-4.23l5.86-2.12,3,4Zm-12-27.38h0a4.35,4.35,0,0,0,.83.3A12.4,12.4,0,0,0,41.3,60,12.18,12.18,0,0,0,45,62.51V64.1a1.92,1.92,0,0,1-.41,0,4.47,4.47,0,0,1-1.06-.38,4.07,4.07,0,0,1-2.15-3.09,1.2,1.2,0,0,0-1.34-1l-.1,0a4.11,4.11,0,0,1-1.71,0,4,4,0,0,1-3.25-4,4.1,4.1,0,0,1,1.77-3.37ZM54.23,34.59A1.2,1.2,0,0,0,53,35l-3,3.69h0a8.44,8.44,0,0,1-6.66,3.22,6.68,6.68,0,0,0-4,1.31l-.09-1.3a10.73,10.73,0,0,1,21.41-1.48,9.14,9.14,0,0,1,0,1.48l-.2,3a6.33,6.33,0,0,1-4.27-2.31c-2-2.62-1.1-6.58-1.1-6.61A1.2,1.2,0,0,0,54.23,34.59Zm-15,12.5,0,0,.07-.09,0,0,.08-.13h0a4.26,4.26,0,0,1,3.87-2.47,10.84,10.84,0,0,0,8.52-4.11l.73-.89a9.27,9.27,0,0,0,1.71,4.75c1.53,2.06,4,3.21,7.22,3.4,0,0,0,0,0,0l0,0h.31a1,1,0,0,1,1.18.73,1.74,1.74,0,0,1,.05.39,1.67,1.67,0,0,1-1.67,1.66h-.2a1.22,1.22,0,0,0-1.2,1.18,10.08,10.08,0,0,1-20.15,0,1.2,1.2,0,0,0-1.19-1.17h-.2a1.66,1.66,0,0,1-1.68-1.65h0a1.74,1.74,0,0,1,0-.39.94.94,0,0,1,1-.71h0l.2,0a.79.79,0,0,0,.22,0h.09v0s0,0,0,0h.18l.11,0h0l.14,0,0,0,.11,0,0,0,.1-.07,0,0,.1-.09ZM55.39,64a2.7,2.7,0,0,1-.41.06V62.51A12,12,0,0,0,58.69,60a12.34,12.34,0,0,0,3.69-7.49,3.38,3.38,0,0,0,.7-.23A4.68,4.68,0,0,1,65,55.6a4.08,4.08,0,0,1-5,4,1.19,1.19,0,0,0-1.43.91s0,.07,0,.1a4,4,0,0,1-2.15,3.08,3.74,3.74,0,0,1-.51.22h0A3.24,3.24,0,0,1,55.39,64Zm-8,1.66V63.26a12.73,12.73,0,0,0,5.18,0V65.7L50,69.15Zm10.81,8.17h0s0,.07,0,.1v4.54a28.4,28.4,0,0,1-7,1.11V71.55l3-4,5.9,2.14A7.23,7.23,0,0,0,58.22,73.87Zm5.92,2.21a16.8,16.8,0,0,1-3.58,1.64V74a5.21,5.21,0,0,1,1.79-3.31A4.45,4.45,0,0,1,64.14,74Zm-14-55.65a29.56,29.56,0,0,1,16.4,54.21V74s0-.06,0-.1A7.24,7.24,0,0,0,62.63,68l-.12,0-5.45-2,.47-.22a6.51,6.51,0,0,0,3.16-3.73,6,6,0,0,0,1.52-.13,6.2,6.2,0,0,0,.87-.24,6.46,6.46,0,0,0,4.29-6.08,6.87,6.87,0,0,0-2.47-4.9,4,4,0,0,0,.5-3.11,3.38,3.38,0,0,0-2.53-2.47l.21-3a13.12,13.12,0,1,0-26.18-1.8,10.82,10.82,0,0,0,0,1.8l.21,3a3.35,3.35,0,0,0-2.54,2.47,3.89,3.89,0,0,0-.12,1,4.14,4.14,0,0,0,.54,2,6.45,6.45,0,0,0-.94,9.08,6.33,6.33,0,0,0,2,1.65,6.91,6.91,0,0,0,1.7.61,6.46,6.46,0,0,0,1.52.12,6.46,6.46,0,0,0,3.15,3.73,5.4,5.4,0,0,0,.49.23l-5.42,2-.13,0a7.21,7.21,0,0,0-3.93,5.85s0,.07,0,.1v.53A29.23,29.23,0,0,1,20.47,50,29.67,29.67,0,0,1,50.13,20.43Z"/><polygon class="c" points="36.77 52.23 36.77 52.23 36.77 52.23 36.77 52.23"/><path class="d" d="M56.24,7.43a1.21,1.21,0,0,0,0-1.69L50.85.35a1.2,1.2,0,0,0-1.7,0L43.76,5.74a1.2,1.2,0,0,0,1.69,1.69l3.16-3.16V14.35a1.2,1.2,0,0,0,2.39,0V4.05c0-.06,0-.12,0-.17l3.56,3.55A1.19,1.19,0,0,0,56.24,7.43Z"/><path class="d" d="M43.76,92.57a1.21,1.21,0,0,0,0,1.69l5.4,5.39A1.19,1.19,0,0,0,50,100a1.23,1.23,0,0,0,.85-.35l5.39-5.39a1.2,1.2,0,1,0-1.69-1.69l-3.16,3.16V85.65a1.2,1.2,0,0,0-2.39,0V96c0,.06,0,.12,0,.17l-3.55-3.55A1.2,1.2,0,0,0,43.76,92.57Z"/><path class="d" d="M7.43,43.76a1.21,1.21,0,0,0-1.69,0L.35,49.16a1.19,1.19,0,0,0,0,1.69l5.39,5.39a1.2,1.2,0,0,0,1.69-1.69L4.27,51.39H14.35a1.2,1.2,0,0,0,0-2.39H3.88l3.55-3.56A1.19,1.19,0,0,0,7.43,43.76Z"/><path class="d" d="M84.46,49.8A1.19,1.19,0,0,0,85.65,51H96.12l-3.55,3.55a1.2,1.2,0,1,0,1.69,1.7l5.39-5.4a1.19,1.19,0,0,0,0-1.69l-5.39-5.39a1.2,1.2,0,1,0-1.69,1.69l3.16,3.16H85.65A1.19,1.19,0,0,0,84.46,49.8Z"/><path class="d" d="M24.31,15.54a1.19,1.19,0,0,0-1.19-1.2H15.49a1.12,1.12,0,0,0-1.15,1.09v7.69a1.2,1.2,0,0,0,2.39,0V18.65l7.11,7.12a1.13,1.13,0,0,0,.83.35,1.16,1.16,0,0,0,.84-.35,1.21,1.21,0,0,0,0-1.69l-7.29-7.25s-.09-.1-.14-.1h5A1.19,1.19,0,0,0,24.31,15.54Z"/><path class="d" d="M75.69,84.46h0a1.19,1.19,0,0,0,1.19,1.2h7.63a1.12,1.12,0,0,0,1.15-1.09V76.88a1.2,1.2,0,0,0-2.39,0v4.47l-7.11-7.12a1.17,1.17,0,0,0-1.67,0h0a1.19,1.19,0,0,0,0,1.69l7.28,7.25s.1.1.15.1h-5A1.19,1.19,0,0,0,75.69,84.46Z"/><path class="d" d="M74.22,25.51a1.23,1.23,0,0,0,.85.35,1.2,1.2,0,0,0,.85-.36l7.25-7.28s.1-.09.1-.14v5a1.2,1.2,0,0,0,2.39,0h0V15.49a1.12,1.12,0,0,0-1.09-1.15H76.88a1.2,1.2,0,0,0,0,2.39h4.47l-7.12,7.11A1.17,1.17,0,0,0,74.22,25.51Z"/><path class="d" d="M25.78,74.49h0a1.19,1.19,0,0,0-1.69,0h0l-7.25,7.28s-.1.09-.1.14v-5a1.2,1.2,0,0,0-2.39,0v7.63a1.12,1.12,0,0,0,1.09,1.15h7.69a1.2,1.2,0,0,0,0-2.39H18.65l7.12-7.11A1.17,1.17,0,0,0,25.78,74.49Z"/></svg>