<svg xmlns="http://www.w3.org/2000/svg" viewBox="0 0 100 100"><defs><style>.a{fill:#e6e7e8;}.b{fill:none;}.c{fill:#21409a;}.d{fill:#ec008c;}</style></defs><path class="a" d="M28.56,83.63A47.56,47.56,0,0,1,56.1,2.83a47.56,47.56,0,0,0-39.73,80.8A47.22,47.22,0,0,0,50,97.56a47.93,47.93,0,0,0,6.1-.39A47.19,47.19,0,0,1,28.56,83.63Z"/><path class="b" d="M68.11,42.79V55.2h1.21a1.22,1.22,0,0,1,1.22,1.22v16.1A30.5,30.5,0,0,0,77.06,36C75.85,40.08,72.79,42.45,68.11,42.79Z"/><path class="b" d="M31.8,57.64V83.35a1.12,1.12,0,0,0,1.12,1.12h.19a1.12,1.12,0,0,0,1.12-1.12V78.13a.22.22,0,0,0,0-.08V57.64Z"/><path class="b" d="M29.36,72.43v-16a1.22,1.22,0,0,1,1.22-1.22H31.8V42.69A10.76,10.76,0,0,1,23,35.76,30.5,30.5,0,0,0,29.36,72.43Z"/><path class="b" d="M43.87,20.15V32a10.77,10.77,0,0,1-9.64,10.69V55.2h1.22a1.22,1.22,0,0,1,1.22,1.22v21a30.52,30.52,0,0,0,26.56,0v-21a1.21,1.21,0,0,1,1.22-1.21h1.22V42.79c-6.17-.45-9.54-4.41-9.54-11.26a27.38,27.38,0,0,1,2.38-10.79A30.61,30.61,0,0,0,43.87,20.15Z"/><path class="b" d="M75.2,31.53a24.78,24.78,0,0,0-2.66-10.84c-1.66-3.24-3.73-5.1-5.65-5.1s-4,1.86-5.66,5.1a24.78,24.78,0,0,0-2.66,10.84c0,5.88,2.8,8.87,8.32,8.87S75.2,37.41,75.2,31.53Z"/><path class="b" d="M16.37,16.37a47.56,47.56,0,1,0,67.26,0A47.57,47.57,0,0,0,16.37,16.37Zm19.07-2.06a1.22,1.22,0,1,1,2.43,0V33.13a1.22,1.22,0,1,1-2.43,0Zm-7.09,0a1.22,1.22,0,1,1,2.44,0V33.13a1.22,1.22,0,0,1-2.44,0ZM70.54,75.72v7.63A3.56,3.56,0,0,1,67,86.91h-.19a3.56,3.56,0,0,1-3.56-3.56V80.16A32.53,32.53,0,0,1,50,82.93a33,33,0,0,1-13.33-2.82v3.24a3.56,3.56,0,0,1-3.56,3.56h-.19a3.56,3.56,0,0,1-3.56-3.56V75.64a32.92,32.92,0,0,1-7-43.53V14.31a1.22,1.22,0,0,1,2.44,0V32a8.32,8.32,0,0,0,16.63,0V14.31a1.22,1.22,0,0,1,2.44,0v3.35a33.09,33.09,0,0,1,15.78.87c2-3.47,4.58-5.38,7.24-5.38,2.91,0,5.69,2.28,7.82,6.42a27.3,27.3,0,0,1,2.93,12c0,.19,0,.37,0,.56A32.91,32.91,0,0,1,70.54,75.72Z"/><path class="b" d="M65.67,83.35a1.12,1.12,0,0,0,1.12,1.12H67a1.13,1.13,0,0,0,1.13-1.12V57.64H65.67Z"/><path class="c" d="M34.87,79.25a1.23,1.23,0,0,1-.64-1.12v5.22a1.12,1.12,0,0,1-1.12,1.12h-.19a1.12,1.12,0,0,1-1.12-1.12V57.64h2.43V78.05a1.3,1.3,0,0,1,.14-.45A1.21,1.21,0,0,1,36,77.1l.66.31v-21a1.22,1.22,0,0,0-1.22-1.22H34.23V42.71A10.77,10.77,0,0,0,43.87,32V20.15c-.31.06-.63.11-.94.19A1.22,1.22,0,0,1,42.37,18c.5-.12,1-.2,1.5-.3V14.31a1.22,1.22,0,0,0-2.44,0V32A8.32,8.32,0,0,1,24.8,32V14.31a1.22,1.22,0,0,0-2.44,0v17.8l.21-.33a1.22,1.22,0,1,1,2,1.35C24,34,23.51,34.87,23,35.76a10.76,10.76,0,0,0,8.76,6.93V55.2H30.58a1.22,1.22,0,0,0-1.22,1.22v16c.63.58,1.28,1.14,2,1.67h0A1.22,1.22,0,0,1,29.83,76l-.47-.39v7.71a3.56,3.56,0,0,0,3.56,3.56h.19a3.56,3.56,0,0,0,3.56-3.56V80.11c-.6-.26-1.19-.54-1.78-.85Z"/><path class="c" d="M29.57,34.35a1.22,1.22,0,0,0,1.22-1.22V14.31a1.22,1.22,0,1,0-2.44,0V33.13A1.22,1.22,0,0,0,29.57,34.35Z"/><path class="c" d="M36.66,34.35a1.22,1.22,0,0,0,1.21-1.22V14.31a1.22,1.22,0,1,0-2.43,0V33.13A1.22,1.22,0,0,0,36.66,34.35Z"/><path class="c" d="M70.05,76.12a1.22,1.22,0,0,1-1.47-2c.69-.52,1.34-1.08,2-1.65V56.42a1.22,1.22,0,0,0-1.22-1.22H68.11V42.79c4.68-.34,7.74-2.71,9-6.83q-.75-1.44-1.65-2.82h0a1.21,1.21,0,0,1,.34-1.69h0a1.22,1.22,0,0,1,1.69.34l.18.3c0-.19,0-.37,0-.56a27.3,27.3,0,0,0-2.93-12c-2.13-4.14-4.91-6.42-7.82-6.42-2.66,0-5.2,1.91-7.24,5.38.32.1.65.18,1,.29a1.23,1.23,0,0,1,.76,1.55,1.22,1.22,0,0,1-1.55.76c-.44-.15-.88-.27-1.32-.39a27.38,27.38,0,0,0-2.38,10.79c0,6.85,3.37,10.81,9.54,11.26V55.21H64.45a1.21,1.21,0,0,0-1.22,1.21v21l.66-.31A1.22,1.22,0,0,1,65,79.32q-.87.45-1.77.84v3.19a3.56,3.56,0,0,0,3.56,3.56H67a3.56,3.56,0,0,0,3.56-3.56V75.72l-.47.38ZM58.57,31.53a24.78,24.78,0,0,1,2.66-10.84c1.67-3.24,3.73-5.1,5.66-5.1s4,1.86,5.65,5.1A24.78,24.78,0,0,1,75.2,31.53c0,5.88-2.8,8.87-8.31,8.87S58.57,37.41,58.57,31.53Zm9.54,51.82A1.13,1.13,0,0,1,67,84.47h-.19a1.12,1.12,0,0,1-1.12-1.12V57.64h2.44Z"/><path class="d" d="M77.06,36a30.5,30.5,0,0,1-6.52,36.56v3.2a32.91,32.91,0,0,0,7.08-43.63A15.22,15.22,0,0,1,77.06,36Z"/><path class="c" d="M68.58,74.17a1.22,1.22,0,0,0,1.47,2l0,0,.47-.38v-3.2C69.92,73.09,69.27,73.65,68.58,74.17Z"/><path class="c" d="M75.75,31.45h0a1.21,1.21,0,0,0-.34,1.69h0q.9,1.38,1.65,2.82a15.22,15.22,0,0,0,.56-3.87l-.18-.3A1.22,1.22,0,0,0,75.75,31.45Z"/><path class="d" d="M58.51,20.74c.17-.4.35-.79.55-1.17s.39-.7.59-1a33.09,33.09,0,0,0-15.78-.87v2.49A30.61,30.61,0,0,1,58.51,20.74Z"/><path class="c" d="M41.46,19.43a1.23,1.23,0,0,0,1.47.91c.31-.08.63-.13.94-.19V17.66c-.5.1-1,.18-1.5.3A1.23,1.23,0,0,0,41.46,19.43Z"/><path class="c" d="M58.51,20.74c.44.12.88.24,1.32.39a1.22,1.22,0,0,0,1.55-.76,1.23,1.23,0,0,0-.76-1.55c-.32-.11-.65-.19-1-.29-.2.34-.4.67-.59,1S58.68,20.34,58.51,20.74Z"/><path class="d" d="M23,35.76a10.56,10.56,0,0,1-.68-3.65,32.92,32.92,0,0,0,7,43.53V72.43A30.5,30.5,0,0,1,23,35.76Z"/><path class="c" d="M31.54,75.81a1.21,1.21,0,0,0-.22-1.71h0c-.68-.53-1.33-1.09-2-1.67v3.21l.47.39A1.22,1.22,0,0,0,31.54,75.81Z"/><path class="c" d="M24.6,33.13a1.22,1.22,0,1,0-2-1.35l-.21.33A10.56,10.56,0,0,0,23,35.76C23.51,34.87,24,34,24.6,33.13Z"/><path class="d" d="M36.67,77.41v2.7A33,33,0,0,0,50,82.93a32.53,32.53,0,0,0,13.23-2.77v-2.7A30.52,30.52,0,0,1,36.67,77.41Z"/><path class="d" d="M34.23,78.13v-.08A.22.22,0,0,1,34.23,78.13Z"/><path class="c" d="M36,77.1a1.21,1.21,0,0,0-1.64.5,1.3,1.3,0,0,0-.14.45v.08a1.23,1.23,0,0,0,.64,1.12h0c.59.31,1.18.59,1.78.85v-2.7Z"/><path class="c" d="M65.52,77.67a1.22,1.22,0,0,0-1.63-.52l-.66.31v2.7q.9-.39,1.77-.84A1.23,1.23,0,0,0,65.52,77.67Z"/><path class="d" d="M50,0A50,50,0,1,0,85.36,14.64,50,50,0,0,0,50,0ZM83.63,83.63a47.56,47.56,0,1,1,0-67.26A47.57,47.57,0,0,1,83.63,83.63Z"/></svg>