<svg xmlns="http://www.w3.org/2000/svg" viewBox="0 0 100 100"><defs><style>.a{fill:#e6e7e8;}.b{fill:none;}.c{fill:#21409a;}.d{fill:#ec008c;}</style></defs><path class="a" d="M50.27,5.68A6.37,6.37,0,0,1,53.5,1.9a6.73,6.73,0,0,0-3-.7,6.45,6.45,0,0,0-6.22,4.48C41.9,12.85,40.68,14.46,40.68,22V59.76h6V22C46.66,14.46,47.88,12.85,50.27,5.68Z"/><path class="b" d="M74.7,52.38a8.55,8.55,0,0,0-8.54-8.54,6.91,6.91,0,0,1-4.61-1.73V58.57H74.7Z"/><rect class="b" x="61.55" y="60.96" width="13.15" height="1.59"/><rect class="b" x="72.31" y="64.94" width="2.39" height="1.59"/><path class="b" d="M48.41,87.29a5.08,5.08,0,0,1-10.16,0v-.74a2,2,0,0,0-4-.38,6.71,6.71,0,0,1,.4,1,1.21,1.21,0,0,1-.76,1.51,1.19,1.19,0,0,1-1.51-.76,4.7,4.7,0,0,0-9.17,1.45l0,.8a5,5,0,0,1,1.63,2.74A1.19,1.19,0,0,1,24,94.3a1.21,1.21,0,0,1-1.43-.9,2.72,2.72,0,0,0-.49-1.08,2.8,2.8,0,0,0-3.91-.53,6.26,6.26,0,0,1,.57.45A1.2,1.2,0,0,1,17.11,94,4.71,4.71,0,0,0,9.25,97.6l81.21-.55a4.16,4.16,0,0,0-7.15-1,1.2,1.2,0,0,1-1.9-1.45,6.51,6.51,0,0,1,3.09-2.23A4.7,4.7,0,0,0,76.56,89a.08.08,0,0,1,0,0,1.19,1.19,0,1,1-1.6-1.77c.15-.15.32-.28.48-.42a3.71,3.71,0,0,0-3.66-3.09A3.66,3.66,0,0,0,69,84.94a3.59,3.59,0,0,0-.65.94,1.2,1.2,0,0,1-2.16-1,6.21,6.21,0,0,1,.6-1,2.16,2.16,0,0,0-1.92-1.27,2.13,2.13,0,0,0-2.15,2.1v2.61a5.08,5.08,0,0,1-10.16,0V61H48.41Z"/><rect class="b" x="61.55" y="64.94" width="2.39" height="1.59"/><rect class="b" x="26.29" y="64.94" width="2.39" height="1.59"/><path class="b" d="M59.16,35.06V22c0-5.88-.77-8-2.29-12.31-.37-1.05-.81-2.25-1.28-3.65a5.36,5.36,0,0,0-10.17,0c-.47,1.4-.91,2.6-1.28,3.65C42.62,14,41.83,16.14,41.83,22V52.19H59.16Zm-2-16.45a1.19,1.19,0,0,1-1.51-.76,5.36,5.36,0,0,0-10.17,0,1.19,1.19,0,0,1-1.51.76h0a1.2,1.2,0,0,1-.76-1.52,7.75,7.75,0,0,1,14.71,0A1.21,1.21,0,0,1,57.11,18.61Z"/><path class="b" d="M26.29,52.38v6.19H39.44V42.11a6.91,6.91,0,0,1-4.61,1.73A8.55,8.55,0,0,0,26.29,52.38Z"/><rect class="b" x="41.83" y="54.58" width="17.33" height="3.98"/><rect class="b" x="37.25" y="64.94" width="2.19" height="1.59"/><rect class="b" x="26.29" y="60.96" width="13.15" height="1.59"/><path class="c" d="M90.91,93.67a6.45,6.45,0,0,0-4-1.6,7.07,7.07,0,0,0-7.41-6.73,7.17,7.17,0,0,0-1.89.35,6.1,6.1,0,0,0-7.62-4,6.26,6.26,0,0,0-1.3.57,4.53,4.53,0,0,0-8.3,2.47v2.61a2.69,2.69,0,1,1-5.38,0V61H52.59V87.29a5.08,5.08,0,0,0,10.16,0V84.68a2.13,2.13,0,0,1,2.15-2.1,2.16,2.16,0,0,1,1.92,1.27,6.21,6.21,0,0,0-.6,1,1.2,1.2,0,0,0,2.16,1,3.59,3.59,0,0,1,.65-.94,3.66,3.66,0,0,1,2.71-1.17,3.71,3.71,0,0,1,3.66,3.09c-.16.14-.33.27-.48.42a1.19,1.19,0,1,0,1.6,1.77.08.08,0,0,0,0,0,4.7,4.7,0,0,1,7.94,3.4,6.51,6.51,0,0,0-3.09,2.23,1.2,1.2,0,0,0,1.9,1.45,4.16,4.16,0,0,1,7.15,1L9.25,97.6A4.71,4.71,0,0,1,17.11,94a1.2,1.2,0,0,0,1.6-1.78,6.26,6.26,0,0,0-.57-.45,2.8,2.8,0,0,1,3.91.53,2.72,2.72,0,0,1,.49,1.08,1.21,1.21,0,0,0,1.43.9,1.19,1.19,0,0,0,.9-1.43,5,5,0,0,0-1.63-2.74l0-.8a4.7,4.7,0,0,1,9.17-1.45,1.19,1.19,0,0,0,1.51.76,1.21,1.21,0,0,0,.76-1.51,6.71,6.71,0,0,0-.4-1,2,2,0,0,1,4,.38v.74a5.08,5.08,0,0,0,10.16,0V61H46V87.29a2.69,2.69,0,0,1-5.38,0v-.74a4.41,4.41,0,0,0-8-2.51,7.1,7.1,0,0,0-11.79,4.89,5.16,5.16,0,0,0-5,1.75A7.09,7.09,0,0,0,7,99.07,1.19,1.19,0,0,0,8.2,100h0L92,99.43a1.19,1.19,0,0,0,1.19-1.2.17.17,0,0,0,0-.07A6.5,6.5,0,0,0,90.91,93.67Z"/><path class="c" d="M58.16,81A1.17,1.17,0,0,0,57,82.12v.06h0a1.15,1.15,0,0,0,1.12,1.19h0a1.19,1.19,0,0,0,1.18-1.19h0A1.17,1.17,0,0,0,58.16,81Z"/><path class="c" d="M59.36,70.84a1.2,1.2,0,0,0-2.39,0v8a1.2,1.2,0,0,0,2.39,0Z"/><path class="c" d="M41.83,82.18a1.2,1.2,0,0,0,2.39,0V74.33a1.2,1.2,0,1,0-2.39,0Z"/><path class="c" d="M43,72.13a1.19,1.19,0,0,0,1.19-1.2v-.09a1.2,1.2,0,0,0-2.39,0v.09A1.2,1.2,0,0,0,43,72.13Z"/><path class="d" d="M48.41,60v1h4.18V60H55v1h4.18v6.87a1.1,1.1,0,0,0,1.18,1.09h4.72a1.18,1.18,0,0,0,1.27-1.09V64.94h3.59v2.89a1.14,1.14,0,0,0,1.23,1.09h4.72a1.13,1.13,0,0,0,1.22-1.09V52.38A11,11,0,0,0,66.16,41.45a4.62,4.62,0,0,1-4.61-4.6V22A31.6,31.6,0,0,0,59.13,8.91c-.38-1-.8-2.23-1.26-3.61a7.75,7.75,0,0,0-14.71,0c-.46,1.38-.9,2.57-1.27,3.61C40.33,13.3,39.44,15.72,39.44,22V36.85a4.6,4.6,0,0,1-4.61,4.6A11,11,0,0,0,23.9,52.38V67.83a1.17,1.17,0,0,0,1.26,1.09h4.72a1.11,1.11,0,0,0,1.2-1.09V64.94h3.78v2.89a1.06,1.06,0,0,0,1,1.1h4.84a1.06,1.06,0,0,0,1.14-1.09V61H46V60ZM74.7,66.53H72.31V64.94H74.7ZM61.55,42.11a6.91,6.91,0,0,0,4.61,1.73,8.55,8.55,0,0,1,8.54,8.54v6.19H61.55Zm0,18.85H74.7v1.59H61.55Zm0,4h2.39v1.59H61.55ZM28.69,66.53h-2.4V64.94h2.4Zm10.75,0H37.25V64.94h2.19Zm0-4H26.29V61H39.44Zm0-4H26.29V52.38a8.55,8.55,0,0,1,8.54-8.54,6.91,6.91,0,0,0,4.61-1.73ZM41.83,22c0-5.88.79-8,2.31-12.31.37-1.05.81-2.25,1.28-3.65a5.36,5.36,0,0,1,10.17,0c.47,1.4.91,2.6,1.28,3.65C58.39,14,59.16,16.14,59.16,22V52.19H41.83Zm0,32.56H59.16v4H41.83Z"/><rect class="d" x="46.02" y="59.96" width="2.39" height="1"/><rect class="d" x="52.59" y="59.96" width="2.39" height="1"/><path class="d" d="M48.06,12.19a7.76,7.76,0,0,0-4.9,4.9,1.2,1.2,0,0,0,.76,1.52h0a1.19,1.19,0,0,0,1.51-.76,5.36,5.36,0,0,1,10.17,0,1.19,1.19,0,0,0,1.51.76,1.21,1.21,0,0,0,.76-1.52A7.76,7.76,0,0,0,48.06,12.19Z"/></svg>