<svg xmlns="http://www.w3.org/2000/svg" viewBox="0 0 100 100"><defs><style>.a{fill:#e6e7e8;}.b{fill:none;}.c{fill:#21409a;}.d{fill:#ec008c;}</style></defs><path class="a" d="M16.86,61.62C16.44,58.3,13,50.52,13,50.52c-9.57-17,1-38.3,19.89-41a29.46,29.46,0,0,0-5.39-.25l-.77,0C6.58,10.7-5.09,32.91,4.81,50.52c0,0,3.44,7.78,3.86,11.1,1.4,11.26-2.77,29.1-2.77,29.1l8.26-.26c.49-2.21,4-18.37,2.7-28.84Z"/><path class="b" d="M5.94,50c.14.33,3.51,8,3.94,11.45.6,4.78.31,11.21-.85,19.1-.57,3.81-1.21,7.06-1.59,8.88l25.24-.79,2-9.07a5.51,5.51,0,0,1,5.24-4.33c3.73-.1,8.27-.22,8.74-.22h.16A5.41,5.41,0,0,0,54,69.47L53.72,55.9a1.23,1.23,0,0,1,1.19-1.25l8.79-.28a.09.09,0,0,0,.08,0h0a.14.14,0,0,0,0-.06L57.66,43.33a1.21,1.21,0,0,1-.16-.56c-.07-2.17-.2-5.75-.23-6.12A28.59,28.59,0,0,0,28.79,10.51l-2,.06A25.92,25.92,0,0,0,5.69,24.22a26.46,26.46,0,0,0,.2,25.7Z"/><path class="b" d="M97.22,67.87h0a.52.52,0,0,0-.53-.52.52.52,0,0,0-.52.52.52.52,0,0,0,.52.53A.53.53,0,0,0,97.22,67.87Z"/><path class="b" d="M70.29,76.6a.32.32,0,1,0,.31.31.31.31,0,0,0-.31-.31Z"/><path class="b" d="M86.66,78.73a.17.17,0,0,0-.16-.17.17.17,0,0,0-.17.17.16.16,0,0,0,.17.16A.16.16,0,0,0,86.66,78.73Z"/><path class="b" d="M79.29,53.24a0,0,0,0,0,0,0,0,0,0,0,0,0,0s.08,0,.08,0Z"/><path class="c" d="M7.45,61.77c1.36,10.91-2.7,28.5-2.74,28.67a1.23,1.23,0,0,0,.92,1.48,1.24,1.24,0,0,0,.27,0h0l27.77-.87a1.22,1.22,0,0,0,1.17-1l2.18-10a3,3,0,0,1,2.9-2.4l8.68-.22a7.86,7.86,0,0,0,7.85-7.87,1.77,1.77,0,0,0,0-.23l-.27-12.33,7.57-.24a2.54,2.54,0,0,0,2.47-2.63,2.6,2.6,0,0,0-.19-.91h0a.83.83,0,0,0-.07-.13L60,42.39c0-1.39-.18-5.46-.23-6A31.05,31.05,0,0,0,27.46,8.08l-.8,0A28.34,28.34,0,0,0,3.53,23.05a28.93,28.93,0,0,0,.18,28C4.67,53.23,7.13,59.21,7.45,61.77ZM5.69,24.22A25.92,25.92,0,0,1,26.82,10.57l2-.06A28.59,28.59,0,0,1,57.27,36.65c0,.37.16,4,.23,6.12a1.21,1.21,0,0,0,.16.56L63.8,54.27a.14.14,0,0,1,0,.06h0a.09.09,0,0,1-.08,0l-8.79.28a1.23,1.23,0,0,0-1.19,1.25L54,69.47A5.41,5.41,0,0,1,48.8,75h-.16c-.47,0-5,.12-8.74.22a5.51,5.51,0,0,0-5.24,4.33l-2,9.07-25.24.79c.38-1.82,1-5.07,1.59-8.88,1.16-7.89,1.45-14.32.85-19.1C9.45,58,6.08,50.35,5.94,50l-.05-.1A26.46,26.46,0,0,1,5.69,24.22Z"/><path class="d" d="M91.83,67.38h0a4.87,4.87,0,0,0-3.45-1.44H60.08a1.23,1.23,0,1,0,0,2.46h28.3a2.43,2.43,0,0,1,1.71.71,1.71,1.71,0,0,1,0,2.42h0a1.12,1.12,0,0,1-1.59,0,.65.65,0,0,1-.14-.7,1.23,1.23,0,1,0-2.28-.91,3.11,3.11,0,0,0,.69,3.35,3.59,3.59,0,0,0,5.06,0A4.18,4.18,0,0,0,91.83,67.38Z"/><path class="d" d="M78.91,74.74a.25.25,0,0,1-.08-.16,1.23,1.23,0,0,0-1.35-1.09,1.22,1.22,0,0,0-1.09,1.35,2.69,2.69,0,0,0,.78,1.64,3.1,3.1,0,0,0,4.37,0,3.57,3.57,0,0,0,0-5,4.13,4.13,0,0,0-2.91-1.21H65.18a1.23,1.23,0,1,0,0,2.45H78.62a1.72,1.72,0,0,1,1.19.5,1.1,1.1,0,0,1,0,1.56A.63.63,0,0,1,78.91,74.74Z"/><path class="d" d="M70.23,58.72a1.22,1.22,0,0,0,1.22,1.22H85.34a4.1,4.1,0,0,0,2.9-1.21,3.55,3.55,0,0,0,0-5h0a3.1,3.1,0,0,0-4.37,0h0a2.72,2.72,0,0,0-.74,2.51,1.24,1.24,0,0,0,1.47.94,1.22,1.22,0,0,0,.93-1.46.29.29,0,0,1,.07-.25.67.67,0,0,1,.91,0,1.1,1.1,0,0,1,0,1.56,1.71,1.71,0,0,1-1.18.5H71.45A1.23,1.23,0,0,0,70.23,58.72Z"/><path class="d" d="M93.35,56.37a3.27,3.27,0,0,0,0,4.63,1.23,1.23,0,1,0,1.76-1.71l0,0a.82.82,0,0,1,0-1.16,1.33,1.33,0,0,1,1.88,0,2,2,0,0,1,0,2.78,2.77,2.77,0,0,1-1.94.82H63.33a1.23,1.23,0,1,0,0,2.45H95a5.18,5.18,0,0,0,3.67-1.53,4.44,4.44,0,0,0,0-6.26A3.81,3.81,0,0,0,93.35,56.37Z"/><path class="d" d="M70.29,74.77a2.15,2.15,0,1,0,2.14,2.14,2.15,2.15,0,0,0-2.14-2.14Zm.31,2.14a.32.32,0,1,1-.31-.31h0A.31.31,0,0,1,70.6,76.91Z"/><path class="d" d="M81.66,53.24a2.42,2.42,0,1,0-4.83,0h0a2.42,2.42,0,1,0,4.83,0Zm-2.45,0a0,0,0,0,1,0,0,0,0,0,0,1,0,0h0S79.21,53.28,79.21,53.24Z"/><path class="d" d="M89.12,78.73a2.63,2.63,0,1,0-2.62,2.62A2.62,2.62,0,0,0,89.12,78.73Zm-2.79,0a.17.17,0,0,1,.17-.17.17.17,0,0,1,.16.17.16.16,0,0,1-.16.16A.16.16,0,0,1,86.33,78.73Z"/><path class="d" d="M98.63,67.87a1.94,1.94,0,1,0-1.94,1.93A1.94,1.94,0,0,0,98.63,67.87Zm-2.46,0a.52.52,0,0,1,.52-.52.52.52,0,0,1,.53.52h0a.53.53,0,0,1-.53.53A.52.52,0,0,1,96.17,67.87Z"/></svg>