<svg xmlns="http://www.w3.org/2000/svg" viewBox="0 0 100 100"><defs><style>.a{fill:#e6e7e8;}.b{fill:none;}.c{fill:#ec008c;}.d{fill:#21409a;}</style></defs><path class="a" d="M11.93,63V17A10.15,10.15,0,0,0,1.78,27.15v46A10.15,10.15,0,0,0,11.93,83.26H88.07A10.15,10.15,0,0,0,98.22,73.11H22.08A10.15,10.15,0,0,1,11.93,63Z"/><path class="b" d="M3.55,73.11a8.45,8.45,0,0,0,8.38,8.49H88.07a8.45,8.45,0,0,0,8.38-8.49v-27H3.55Zm19-19.58a10.06,10.06,0,0,1,5.42,1.58,10,10,0,0,1,5.41-1.58,10.17,10.17,0,1,1-5.42,18.75,10.16,10.16,0,1,1-5.41-18.75Z"/><path class="b" d="M30.66,69.73a6.51,6.51,0,0,0,2.68.57,6.61,6.61,0,1,0,0-13.22h0a6.62,6.62,0,0,0-2.67.57,10.06,10.06,0,0,1,0,12.08Z"/><path class="b" d="M27.93,67.47a6.58,6.58,0,0,0,0-7.55,6.54,6.54,0,0,0,0,7.55Z"/><path class="b" d="M25.19,57.65a6.67,6.67,0,0,0-2.68-.57h0a6.61,6.61,0,0,0,0,13.22,6.51,6.51,0,0,0,2.68-.57,10.08,10.08,0,0,1,0-12.08Z"/><path class="c" d="M22.51,73.86a10.11,10.11,0,0,0,5.41-1.58,10.36,10.36,0,0,1-2.73-2.55,6.51,6.51,0,0,1-2.68.57,6.61,6.61,0,0,1,0-13.22h0a6.67,6.67,0,0,1,2.68.57,10.21,10.21,0,0,1,2.74-2.54,10.06,10.06,0,0,0-5.42-1.58,10.17,10.17,0,0,0,0,20.33Z"/><path class="c" d="M27.93,67.47a6.61,6.61,0,0,0,2.73,2.26,10.06,10.06,0,0,0,0-12.08,6.6,6.6,0,0,0-2.74,2.27,6.58,6.58,0,0,1,0,7.55Z"/><path class="c" d="M27.93,67.47a6.54,6.54,0,0,1,0-7.55,6.73,6.73,0,0,0-2.74-2.27,10.08,10.08,0,0,0,0,12.08A6.7,6.7,0,0,0,27.93,67.47Z"/><path class="c" d="M30.67,57.65a6.62,6.62,0,0,1,2.67-.57h0a6.61,6.61,0,1,1,0,13.22,6.51,6.51,0,0,1-2.68-.57,10.4,10.4,0,0,1-2.74,2.55,10.16,10.16,0,1,0,5.42-18.75,10,10,0,0,0-5.41,1.58A10.2,10.2,0,0,1,30.67,57.65Z"/><path class="c" d="M25.19,57.65a6.73,6.73,0,0,1,2.74,2.27,6.6,6.6,0,0,1,2.74-2.27,10.2,10.2,0,0,0-2.74-2.54A10.21,10.21,0,0,0,25.19,57.65Z"/><path class="c" d="M30.66,69.73a6.61,6.61,0,0,1-2.73-2.26,6.7,6.7,0,0,1-2.74,2.26,10.36,10.36,0,0,0,2.73,2.55A10.4,10.4,0,0,0,30.66,69.73Z"/><rect class="b" x="3.55" y="32.16" width="92.89" height="10.36"/><path class="b" d="M96.45,27.15a8.45,8.45,0,0,0-8.38-8.5H11.93a8.45,8.45,0,0,0-8.38,8.5V28.6h92.9Z"/><path class="d" d="M98.22,32.16H96.45V42.51H3.55V32.16H1.78A1.78,1.78,0,0,1,0,30.38V73A11.94,11.94,0,0,0,11.93,84.9H88.07A11.94,11.94,0,0,0,100,73V30.38A1.78,1.78,0,0,1,98.22,32.16Zm-1.77,41a8.45,8.45,0,0,1-8.38,8.49H11.93a8.45,8.45,0,0,1-8.38-8.49v-27h92.9Z"/><rect class="c" x="3.55" y="28.6" width="92.89" height="3.55"/><path class="d" d="M88.07,15.1H11.93A11.94,11.94,0,0,0,0,27v3.35a1.78,1.78,0,0,0,1.78,1.78H3.55v-5a8.45,8.45,0,0,1,8.38-8.5H88.07a8.45,8.45,0,0,1,8.38,8.5v5h1.77A1.78,1.78,0,0,0,100,30.38V27A11.94,11.94,0,0,0,88.07,15.1Z"/></svg>