<svg xmlns="http://www.w3.org/2000/svg" viewBox="0 0 100 100"><defs><style>.a{fill:#e6e7e8;}.b{fill:none;}.c{fill:#21409a;}.d{fill:#ec008c;}</style></defs><path class="a" d="M7.69,79.49v-59A6.41,6.41,0,0,1,14.1,14.1H7.69a6.41,6.41,0,0,0-6.41,6.41h0v59A6.41,6.41,0,0,0,7.69,85.9H14.1a6.41,6.41,0,0,1-6.41-6.41Z"/><path class="b" d="M68,74.15H32a4.88,4.88,0,0,0-4.59,3.22l-2.62,7.25H75.17L72.6,77.39A4.88,4.88,0,0,0,68,74.15Z"/><path class="b" d="M9.07,22.4a.62.62,0,1,0-.62-.62A.62.62,0,0,0,9.07,22.4Z"/><path class="b" d="M9.07,77.6a.62.62,0,1,0,.62.62A.62.62,0,0,0,9.07,77.6Z"/><path class="b" d="M73,50.66a4.59,4.59,0,1,0-4.59-4.59A4.59,4.59,0,0,0,73,50.66Z"/><path class="b" d="M90.78,77.6a.62.62,0,0,0,0,1.24.62.62,0,0,0,0-1.24Z"/><path class="b" d="M90.78,21.16a.62.62,0,0,0,0,1.24.62.62,0,1,0,0-1.24Z"/><path class="b" d="M92.31,15.38H7.68a5.12,5.12,0,0,0-5.12,5.1v59a5.14,5.14,0,0,0,5.13,5.13H22L25,76.5a7.47,7.47,0,0,1,7-4.92H68a7.47,7.47,0,0,1,7,5l2.87,8.09H92.31a5.14,5.14,0,0,0,5.13-5.13v-59h0A5.12,5.12,0,0,0,92.31,15.38ZM9.07,18.6a3.18,3.18,0,1,1-3.18,3.18A3.18,3.18,0,0,1,9.07,18.6Zm0,62.8a3.18,3.18,0,1,1,3.18-3.18A3.18,3.18,0,0,1,9.07,81.4Zm2-18.15A1.28,1.28,0,0,1,9.83,62V30.13a1.28,1.28,0,0,1,1.28-1.28H88.89a1.28,1.28,0,0,1,1.28,1.28V62a1.28,1.28,0,0,1-1.28,1.28ZM90.78,81.4A3.18,3.18,0,1,1,94,78.22,3.18,3.18,0,0,1,90.78,81.4Zm0-56.44A3.18,3.18,0,1,1,94,21.78,3.18,3.18,0,0,1,90.78,25Z"/><path class="b" d="M27,50.66a4.59,4.59,0,1,0-4.6-4.59A4.59,4.59,0,0,0,27,50.66Z"/><path class="b" d="M12.39,60.68H87.61V31.41H12.39Zm15-22.22H72.63a7.7,7.7,0,0,1,0,15.39H27.37a7.7,7.7,0,0,1,0-15.39Z"/><path class="b" d="M68.12,51.28h0L68,51.16A7.17,7.17,0,0,1,67.9,41H32.1l.12.13a7.15,7.15,0,0,1-.34,10.12Z"/><path class="c" d="M92.31,12.82H7.69A7.69,7.69,0,0,0,0,20.51v59a7.69,7.69,0,0,0,7.69,7.69H92.31A7.69,7.69,0,0,0,100,79.49v-59A7.69,7.69,0,0,0,92.31,12.82ZM24.76,84.62l2.62-7.25A4.88,4.88,0,0,1,32,74.15H68a4.88,4.88,0,0,1,4.59,3.24l2.57,7.23Zm72.68-5.13a5.14,5.14,0,0,1-5.13,5.13H77.89L75,76.53a7.47,7.47,0,0,0-7-5H32a7.47,7.47,0,0,0-7,4.92L22,84.62H7.69a5.14,5.14,0,0,1-5.13-5.13v-59a5.12,5.12,0,0,1,5.12-5.1H92.31a5.12,5.12,0,0,1,5.13,5.09h0Z"/><path class="c" d="M9.07,25a3.18,3.18,0,1,0-3.18-3.18A3.18,3.18,0,0,0,9.07,25Zm0-3.8a.62.62,0,1,1-.62.62A.62.62,0,0,1,9.07,21.16Z"/><path class="c" d="M9.07,75a3.18,3.18,0,1,0,3.18,3.18A3.18,3.18,0,0,0,9.07,75Zm0,3.8a.62.62,0,1,1,.62-.62A.62.62,0,0,1,9.07,78.84Z"/><path class="c" d="M90.78,18.6A3.18,3.18,0,1,0,94,21.78,3.18,3.18,0,0,0,90.78,18.6Zm0,3.8a.62.62,0,0,1,0-1.24.62.62,0,1,1,0,1.24Z"/><path class="c" d="M90.78,75A3.18,3.18,0,1,0,94,78.22,3.18,3.18,0,0,0,90.78,75Zm0,3.8a.62.62,0,0,1,0-1.24.62.62,0,0,1,0,1.24Z"/><path class="d" d="M27.37,53.85H72.63a7.7,7.7,0,0,0,0-15.39H27.37a7.7,7.7,0,0,0,0,15.39ZM73,41.48a4.59,4.59,0,1,1-4.59,4.59A4.59,4.59,0,0,1,73,41.48Zm-40.78-.32L32.1,41H67.9A7.17,7.17,0,0,0,68,51.16l.13.12H31.88A7.15,7.15,0,0,0,32.22,41.16ZM27,41.48a4.59,4.59,0,1,1-4.6,4.59A4.59,4.59,0,0,1,27,41.48Z"/><path class="d" d="M90.17,62V30.13a1.28,1.28,0,0,0-1.28-1.28H11.11a1.28,1.28,0,0,0-1.28,1.28V62a1.28,1.28,0,0,0,1.28,1.28H88.89A1.28,1.28,0,0,0,90.17,62Zm-2.56-1.29H12.39V31.41H87.61Z"/></svg>