<svg xmlns="http://www.w3.org/2000/svg" viewBox="0 0 100 100"><defs><style>.a{fill:#e6e7e8;}.b{fill:none;}.c{fill:#21409a;}.d{fill:#ec008c;}</style></defs><path class="a" d="M27.81,37.49c-2.68-3.53-4.17-6.11-4-7.17h0L19.72,42.7l-2.78,8.52L13.37,62.16l-3.58,11L6.22,84.07,1.44,98.72l7.14-2.33,4-12.31h0l3.56-10.94h0l3.57-11h0l3.57-10.94.68-2.1-.16-.23Z"/><path class="b" d="M84,20.59a8.48,8.48,0,0,1,0-4.47,8.48,8.48,0,0,1-4.47,0,8.48,8.48,0,0,1,0,4.47A8.48,8.48,0,0,1,84,20.59Z"/><path class="b" d="M51.64,2.55a1.84,1.84,0,0,0-1.83,1.84h0a1.83,1.83,0,1,0,1.83-1.84Z"/><path class="b" d="M43.22,25.73a8.48,8.48,0,0,1,0-4.47,8.44,8.44,0,0,1-4.46,0,8.48,8.48,0,0,1,0,4.47A8.44,8.44,0,0,1,43.22,25.73Z"/><path class="b" d="M49,51.21a214.17,214.17,0,0,0-16-14.63h0c-4.28-3.44-6.51-4.74-7.59-5.23.49,1.08,1.78,3.31,5.23,7.59A214.17,214.17,0,0,0,45.19,55a214.17,214.17,0,0,0,16,14.63c4.28,3.45,6.51,4.74,7.59,5.23-.49-1.08-1.79-3.31-5.23-7.59A214.17,214.17,0,0,0,49,51.21Z"/><path class="b" d="M89.1,55.3a1.84,1.84,0,1,0,1.83,1.83A1.84,1.84,0,0,0,89.1,55.3Z"/><path class="b" d="M43.38,56.78a214.71,214.71,0,0,1-15-16.45,57.24,57.24,0,0,1-4.51-6.28l-2.77,8.48c1.15,1.85,3,4.61,5.46,7.92A117.28,117.28,0,0,0,35.8,61.27c.45.48.94,1,1.53,1.57a117,117,0,0,0,10.5,9.28A104.66,104.66,0,0,0,57.67,79l8.43-2.75a58.35,58.35,0,0,1-6.27-4.51A214.71,214.71,0,0,1,43.38,56.78Zm-4.67,1.06a1.28,1.28,0,0,1-1.81-.05c-3.51-3.68-6.77-7.31-9.42-10.5h0a1.28,1.28,0,0,1,2-1.62c2.61,3.15,5.82,6.73,9.3,10.37h0A1.28,1.28,0,0,1,38.71,57.84ZM43,62.14a1.3,1.3,0,0,1-1.81,0L39.83,60.8A1.27,1.27,0,0,1,41.64,59c.44.44.87.88,1.32,1.32A1.28,1.28,0,0,1,43,62.14Z"/><path class="b" d="M76.94,55a8.48,8.48,0,0,1-4.47,0,8.48,8.48,0,0,1,0,4.47,8.48,8.48,0,0,1,4.47,0A8.48,8.48,0,0,1,76.94,55Z"/><path class="b" d="M20.1,45.68l-1.4,4.26H23C21.87,48.33,20.89,46.9,20.1,45.68Z"/><path class="b" d="M10.72,74.41,8,82.81h9.68a1.28,1.28,0,1,1,0,2.55H7.14L3.43,96.73,38.26,85.36H25.1a1.28,1.28,0,0,1,0-2.55h21l8.44-2.76c-2.13-1.38-4.84-3.26-7.91-5.64Z"/><path class="b" d="M35.52,64.64l-1.17-1.19H24.15a1.28,1.28,0,1,1,0-2.55H32c-2.44-2.67-4.79-5.49-7-8.4H17.87l-2.74,8.4h3.8a1.28,1.28,0,1,1,0,2.55H14.29l-2.74,8.4H43.43C40.66,69.55,38,67.13,35.52,64.64Z"/><path class="c" d="M66.41,66.7A207.51,207.51,0,0,0,50.76,49.4a207.51,207.51,0,0,0-17.3-15.65,49.2,49.2,0,0,0-6-4.18c-1.48-.83-3.32-1.63-4.43-.52a1.81,1.81,0,0,0-.49.95L.22,98.33A1.28,1.28,0,0,0,1,99.94a1.33,1.33,0,0,0,.79,0L70.16,77.63a1.88,1.88,0,0,0,1-.49h0c1.1-1.11.3-3-.53-4.43A48.09,48.09,0,0,0,66.41,66.7Zm-46.31-21c.79,1.22,1.77,2.65,2.93,4.26H18.7ZM14.29,63.45h4.64a1.28,1.28,0,1,0,0-2.55h-3.8l2.74-8.4h7.06c2.23,2.91,4.58,5.73,7,8.4h-7.8a1.28,1.28,0,1,0,0,2.55h10.2l1.17,1.19c2.49,2.49,5.14,4.91,7.91,7.21H11.55ZM46.08,82.81h-21a1.28,1.28,0,0,0,0,2.55H38.26L3.43,96.73,7.14,85.36H17.65a1.28,1.28,0,1,0,0-2.55H8l2.75-8.4H46.61c3.07,2.38,5.78,4.26,7.91,5.64ZM57.67,79a104.66,104.66,0,0,1-9.84-6.9,117,117,0,0,1-10.5-9.28c-.59-.6-1.08-1.09-1.53-1.57a117.28,117.28,0,0,1-9.22-10.82c-2.5-3.31-4.31-6.07-5.46-7.92l2.77-8.48a57.24,57.24,0,0,0,4.51,6.28,214.71,214.71,0,0,0,15,16.45,214.71,214.71,0,0,0,16.45,15,58.35,58.35,0,0,0,6.27,4.51Zm3.55-9.42A214.17,214.17,0,0,1,45.19,55a214.17,214.17,0,0,1-14.63-16c-3.45-4.28-4.74-6.51-5.23-7.59,1.08.49,3.31,1.79,7.59,5.23h0A214.17,214.17,0,0,1,49,51.21a214.17,214.17,0,0,1,14.63,16c3.44,4.28,4.74,6.51,5.23,7.59C67.73,74.34,65.5,73.05,61.22,69.6Z"/><path class="c" d="M38.75,56c-3.48-3.64-6.69-7.22-9.3-10.37a1.28,1.28,0,0,0-2,1.62h0c2.65,3.19,5.91,6.82,9.42,10.5A1.28,1.28,0,0,0,38.76,56Z"/><path class="c" d="M41.64,59a1.27,1.27,0,0,0-1.81,1.79l1.32,1.34a1.3,1.3,0,0,0,1.81,0,1.28,1.28,0,0,0,0-1.81C42.51,59.89,42.08,59.45,41.64,59Z"/><path class="d" d="M84.58,42.71h0L82.87,41a11.35,11.35,0,0,0-16,0l-5,5a1.28,1.28,0,0,0,1.81,1.8l5-5a8.78,8.78,0,0,1,12.4,0l1.72,1.72a1.28,1.28,0,1,0,1.8-1.81Z"/><path class="d" d="M54.12,38.35l5.05-5a11.35,11.35,0,0,0,0-16l-1.72-1.71a1.28,1.28,0,1,0-1.8,1.81h0l1.71,1.72a8.78,8.78,0,0,1,0,12.4l-5,5a1.28,1.28,0,0,0,1.8,1.81Z"/><path class="d" d="M55.46,44.87a1.27,1.27,0,0,0,1.8,0l16.4-16.39a1.28,1.28,0,0,0-1.81-1.81L55.46,43.06a1.28,1.28,0,0,0,0,1.81Z"/><path class="d" d="M79.49,59.06a5.82,5.82,0,0,1,0-3.69l.66-2a1.27,1.27,0,0,0-.81-1.61,1.22,1.22,0,0,0-.8,0l-2,.66a6,6,0,0,1-3.69,0l-2-.66a1.27,1.27,0,0,0-1.62.8,1.25,1.25,0,0,0,0,.81l.66,2a5.82,5.82,0,0,1,0,3.69l-.66,2a1.28,1.28,0,0,0,.81,1.62,1.25,1.25,0,0,0,.81,0l2-.66a5.82,5.82,0,0,1,3.69,0l2,.66a1.27,1.27,0,0,0,1.61-.81,1.25,1.25,0,0,0,0-.81Zm-7,.39a8.48,8.48,0,0,0,0-4.47,8.48,8.48,0,0,0,4.47,0,8.48,8.48,0,0,0,0,4.47A8.48,8.48,0,0,0,72.47,59.45Z"/><path class="d" d="M35.54,27.32a1.28,1.28,0,0,0,.81,1.62,1.25,1.25,0,0,0,.81,0l2-.66a5.85,5.85,0,0,1,3.7,0l2,.66a1.27,1.27,0,0,0,1.61-.81,1.22,1.22,0,0,0,0-.8l-.66-2a6,6,0,0,1,0-3.69l.67-2a1.28,1.28,0,0,0-.81-1.62,1.25,1.25,0,0,0-.81,0l-2,.66a5.82,5.82,0,0,1-3.69,0l-2-.66a1.28,1.28,0,0,0-1.62.81,1.32,1.32,0,0,0,0,.81l.66,2a5.82,5.82,0,0,1,0,3.69Zm3.22-6.06a8.44,8.44,0,0,0,4.46,0h0a8.48,8.48,0,0,0,0,4.47,8.44,8.44,0,0,0-4.46,0A8.48,8.48,0,0,0,38.76,21.26Z"/><path class="d" d="M76.36,22.18a1.29,1.29,0,0,0,.81,1.62,1.4,1.4,0,0,0,.81,0l2-.66a5.85,5.85,0,0,1,3.7,0l2,.66A1.27,1.27,0,0,0,87.25,23a1.25,1.25,0,0,0,0-.81l-.66-2a6,6,0,0,1,0-3.7l.66-2a1.27,1.27,0,0,0-1.61-1.61l-2,.66a5.85,5.85,0,0,1-3.7,0l-2-.66a1.27,1.27,0,0,0-1.62.8,1.4,1.4,0,0,0,0,.81l.66,2a5.85,5.85,0,0,1,0,3.7Zm3.21-6.06a8.48,8.48,0,0,0,4.47,0,8.48,8.48,0,0,0,0,4.47,8.48,8.48,0,0,0-4.47,0A8.48,8.48,0,0,0,79.57,16.12Z"/><path class="d" d="M99.47,31a1.28,1.28,0,0,0-1.8,0l0,0-2,2-2-2a1.28,1.28,0,0,0-1.81,1.8l2,2-2,2a1.28,1.28,0,0,0,1.79,1.82h0l2-2,2,2a1.29,1.29,0,0,0,1.81,0,1.27,1.27,0,0,0,0-1.79l-2-2,2-2A1.27,1.27,0,0,0,99.47,31Z"/><path class="d" d="M56,4.39a4.39,4.39,0,1,0-4.38,4.38A4.37,4.37,0,0,0,56,4.39ZM51.64,6.22a1.83,1.83,0,0,1-1.83-1.83h0a1.83,1.83,0,1,1,1.83,1.83Z"/><path class="d" d="M89.1,52.75a4.39,4.39,0,1,0,4.38,4.38A4.38,4.38,0,0,0,89.1,52.75Zm0,6.22a1.84,1.84,0,1,1,1.83-1.84A1.84,1.84,0,0,1,89.1,59Z"/></svg>