<svg xmlns="http://www.w3.org/2000/svg" viewBox="0 0 100 100"><defs><style>.a{fill:#e6e7e8;}.b{fill:none;}.c{fill:#21409a;}.d{fill:#ec008c;}</style></defs><path class="a" d="M74.5,26.85v0H59a9.11,9.11,0,0,1-9.11-9.11v-6.9h.25V2.53Z"/><path class="a" d="M86.23,43.34l3.12,3.55L61,71.71l-1.85,8.73-5.1.29,2.39-11.29Z"/><path class="a" d="M59.15,80.44l-5.1.29Z"/><path class="a" d="M50.11,2.53v8.36h-.25V2.32h0Z"/><path class="a" d="M49.86,2.32v8.57l-7.06-.05H22.21A9.11,9.11,0,0,0,13.1,20V97.7a9.09,9.09,0,0,1-8.65-9.09V11.41A9.11,9.11,0,0,1,13.56,2.3H49.4Z"/><path class="a" d="M13.1,1.73l37,.05v.75l-.2-.21h0l-.46,0H13.56a9.11,9.11,0,0,0-9.11,9.11v77.2a9.11,9.11,0,0,0,8.65,9.09V98A9.11,9.11,0,0,1,4,88.86v-78A9.11,9.11,0,0,1,13.1,1.73Z"/><polygon class="b" points="57.81 70.25 55.94 79.1 65.12 78.58 93.37 53.82 86.07 45.49 57.81 70.25"/><path class="b" d="M59,25.39H70.85L51.39,6V17.81A7.61,7.61,0,0,0,59,25.39Z"/><path class="c" d="M2.92,11.41v77.2A10.61,10.61,0,0,0,13,99.23H65.39A10.65,10.65,0,0,0,76,88.61V84.54a1.58,1.58,0,0,0-.44-1.1A1.54,1.54,0,0,0,74.5,83h0A1.54,1.54,0,0,0,73,84.52v4.07a7.61,7.61,0,0,1-7.58,7.58H13.22A7.55,7.55,0,0,1,6,88.59V11.39a7.61,7.61,0,0,1,7.58-7.58H48.33v14A10.67,10.67,0,0,0,59,28.45H73V41.27a1.53,1.53,0,0,0,3.06,0V26.87a1.6,1.6,0,0,0-.45-1.09L51,1.21A1.54,1.54,0,0,0,49.89.75h0l-.09,0H13.56A10.67,10.67,0,0,0,2.92,11.41ZM51.39,6,70.85,25.39H59a7.61,7.61,0,0,1-7.58-7.58Z"/><path class="c" d="M97.08,54.07a1.54,1.54,0,0,0-.39-1.1l-9.3-10.64a1.46,1.46,0,0,0-1-.52h-.1a1.5,1.5,0,0,0-1,.39L55.43,68.29a1.47,1.47,0,0,0-.48.83l-2.4,11.29a1.59,1.59,0,0,0,.35,1.32,1.53,1.53,0,0,0,1.15.53h.14l11.64-.66a1.44,1.44,0,0,0,.9-.38l29.82-26.1A1.55,1.55,0,0,0,97.08,54.07Zm-32,24.51-9.18.52,1.87-8.85L86.07,45.49l7.3,8.33Z"/><path class="d" d="M19.27,38.67H38.4a1.53,1.53,0,1,0,0-3.05H19.27a1.53,1.53,0,0,0,0,3.05Z"/><path class="d" d="M61.34,52.13a1.54,1.54,0,0,0-1.53-1.53H19.27a1.53,1.53,0,0,0,0,3.06H59.81A1.54,1.54,0,0,0,61.34,52.13Z"/><path class="d" d="M47,65.59H19.27a1.53,1.53,0,0,0,0,3H47a1.53,1.53,0,1,0,0-3Z"/><path class="d" d="M47,80.57H19.27a1.53,1.53,0,0,0,0,3.06H47a1.53,1.53,0,0,0,0-3.06Z"/></svg>