<svg xmlns="http://www.w3.org/2000/svg" viewBox="0 0 100 100"><defs><style>.a{fill:#e6e7e8;}.b{fill:none;}.c{fill:#21409a;}.d{fill:#ec008c;}</style></defs><polygon class="a" points="12.36 72.13 19.71 72.13 18.96 69.67 10.1 69.67 13.52 97.54 15.47 97.54 12.36 72.13"/><path class="a" d="M64.71,77.48l-6.47-.31a40.24,40.24,0,0,0-5.38.11c-.55,0-1.09.11-1.63.19h-.17l-.17,0a1.22,1.22,0,0,0,.34,2.42h0a38.78,38.78,0,0,1,6.9-.32L66,80h.06a1.23,1.23,0,0,0,1.22-1.23c0-.13,0-.26,0-.39l1-.51,11.45-6.18a4.31,4.31,0,0,1,3.07-.4l2-1.38a4.36,4.36,0,0,0-5.08-.68L68.28,75.37l-1,.51c0,.13,0,.26,0,.39a1.23,1.23,0,0,1-1.23,1.23h0l-1.33-.06S64.7,77.47,64.71,77.48Z"/><path class="a" d="M26.7,74.81l2.27-2a14.12,14.12,0,0,1,14.67-1.41l1,.5a12.32,12.32,0,0,0,5.33,1.27H59.2A5.6,5.6,0,0,1,63.35,75l1.36.06A5.63,5.63,0,0,0,59.2,70.7H49.93a12.32,12.32,0,0,1-5.33-1.27l-1-.5A14.12,14.12,0,0,0,29,70.34l-2.27,2A10.23,10.23,0,0,1,23,74.46l.67,2.21A10,10,0,0,0,26.7,74.81Z"/><path class="a" d="M48.77,22.53a1.23,1.23,0,0,1,.84.19,1.22,1.22,0,0,0-.84-2.23,38.71,38.71,0,0,1-6.89.32L34,20.45a1.22,1.22,0,0,0-1.28,1.17v.06c0,.13,0,.26,0,.39l-1,.51L20.27,28.76a4.34,4.34,0,0,1-3.49.28L15.2,30.13a4.34,4.34,0,0,0,5.07.68l11.45-6.18,1-.51c0-.13,0-.26,0-.39a1.23,1.23,0,0,1,1.22-1.23H34l7.91.35A36.92,36.92,0,0,0,48.77,22.53Z"/><path class="a" d="M73.3,25.59l-2.27,2A14.12,14.12,0,0,1,56.36,29l-1-.5a12.32,12.32,0,0,0-5.33-1.27H40.81A5.66,5.66,0,0,1,36.28,25l-1-.05a5.63,5.63,0,0,0,5.52,4.32h9.26a12.32,12.32,0,0,1,5.33,1.27l1,.5A14.12,14.12,0,0,0,71,29.66l2.27-2A10.31,10.31,0,0,1,77,25.54l-.56-1.85A10.17,10.17,0,0,0,73.3,25.59Z"/><polygon class="a" points="86.48 2.46 84.68 2.46 87.85 28.28 80.41 28.28 81.04 30.33 89.9 30.33 86.48 2.46"/><path class="a" d="M49.7,60a12,12,0,0,1-9.46-19.44A12,12,0,1,0,55,59.48a12.29,12.29,0,0,0,2.07-2.07A11.93,11.93,0,0,1,49.7,60Z"/><path class="b" d="M80.08,5.49a1,1,0,1,0,1,1A1,1,0,0,0,80.08,5.49Z"/><path class="b" d="M89.9,30.33,86.48,2.46h-14L81,30.33ZM76.62,6.49A3.46,3.46,0,1,1,80.08,10,3.46,3.46,0,0,1,76.62,6.49Z"/><path class="b" d="M20.27,30.81l11.45-6.18,1-.51c0-.13,0-.26,0-.39v-.06A1.22,1.22,0,0,1,34,22.5l7.91.35a36.92,36.92,0,0,0,6.89-.32,1.23,1.23,0,0,1,1.38,1,1.21,1.21,0,0,1-1,1.38,40.1,40.1,0,0,1-7.35.33L35.29,25a5.63,5.63,0,0,0,5.52,4.32h9.26a12.32,12.32,0,0,1,5.33,1.27l1,.5A14.12,14.12,0,0,0,71,29.66l2.27-2A10.31,10.31,0,0,1,77,25.54L72.56,11l-6.18,3.9-.06,0a6.38,6.38,0,0,1-4.65.63L47.78,13a15.76,15.76,0,0,0-9.65,1.34L15.2,30.13A4.34,4.34,0,0,0,20.27,30.81Z"/><path class="b" d="M33.22,26.62l-.34.18L24,31.6a3.28,3.28,0,0,0,3.46.65l6.85-3.69A8.17,8.17,0,0,1,33.22,26.62Z"/><path class="b" d="M35.62,50a12,12,0,1,0,12-12A12,12,0,0,0,35.62,50Z"/><path class="b" d="M31.9,32.64a5.09,5.09,0,0,0,4.88-.12h0l1.78-1a8.1,8.1,0,0,1-2.46-1.18Z"/><path class="b" d="M19.92,94.51a1,1,0,1,0-1-1A1,1,0,0,0,19.92,94.51Z"/><path class="b" d="M27.51,97.54,19,69.67H10.1l3.42,27.87Zm-7.59-7.49h0a3.46,3.46,0,1,1-3.46,3.46A3.46,3.46,0,0,1,19.92,90.05Z"/><path class="b" d="M33.62,85.07l.06,0a6.39,6.39,0,0,1,4.65-.63L52.22,87a15.75,15.75,0,0,0,9.65-1.34L84.8,69.87a4.34,4.34,0,0,0-5.07-.68L68.28,75.37l-1,.51c0,.13,0,.26,0,.39a1.23,1.23,0,0,1-1.22,1.23H66l-7.9-.35a37,37,0,0,0-6.9.32,1.23,1.23,0,0,1-1.38-1,1.21,1.21,0,0,1,1-1.38,39.27,39.27,0,0,1,7.35-.33l6.47.31A5.63,5.63,0,0,0,59.2,70.7H49.93a12.32,12.32,0,0,1-5.33-1.27l-1-.5A14.12,14.12,0,0,0,29,70.34l-2.27,2A10.23,10.23,0,0,1,23,74.46L27.44,89Z"/><path class="b" d="M66.78,73.38l.34-.18L76,68.4a3.26,3.26,0,0,0-3.46-.65l-6.85,3.69A7.84,7.84,0,0,1,66.78,73.38Z"/><path class="b" d="M68.1,67.36a5.07,5.07,0,0,0-4.88.12h0l-1.78,1a8.1,8.1,0,0,1,2.46,1.18Z"/><path class="c" d="M7.49,68.3a.81.81,0,0,0,0,.22L11.21,99a1.19,1.19,0,0,0,1.22,1H29.17a1.17,1.17,0,0,0,1.23-1.12,1.13,1.13,0,0,0,0-.41L28.19,91.4l6.72-4.24a4,4,0,0,1,2.86-.37l.08,0,13.93,2.57A18.28,18.28,0,0,0,63,87.79l.15-.09,24.1-16.54a1.23,1.23,0,0,0,.35-1.65A6.8,6.8,0,0,0,78.56,67l-.27.15a5.86,5.86,0,0,0-6.86-1.62l0,0-.86.46A7.55,7.55,0,0,0,62,65.38l-5.17,2.86h-6.9a10,10,0,0,1-4.26-1l-1-.48a16.57,16.57,0,0,0-17.26,1.67l-.07.06-2.31,2a7.68,7.68,0,0,1-2.77,1.59L21.05,68a1.2,1.2,0,0,0-1.18-.83H8.71A1.16,1.16,0,0,0,7.49,68.3Zm65.07-.55A3.26,3.26,0,0,1,76,68.4l-8.9,4.8-.34.18a7.84,7.84,0,0,0-1.07-1.94Zm-9.37-.26h0a5.07,5.07,0,0,1,4.88-.12l-4.23,2.28a8.1,8.1,0,0,0-2.46-1.18ZM26.7,72.36l2.27-2a14.12,14.12,0,0,1,14.67-1.41l1,.5a12.32,12.32,0,0,0,5.33,1.27H59.2A5.63,5.63,0,0,1,64.71,75l-6.47-.31a39.27,39.27,0,0,0-7.35.33,1.21,1.21,0,0,0-1,1.38,1.23,1.23,0,0,0,1.38,1,37,37,0,0,1,6.9-.32l7.9.35h.06a1.23,1.23,0,0,0,1.22-1.23c0-.13,0-.26,0-.39l1-.51,11.45-6.18a4.34,4.34,0,0,1,5.07.68L61.87,85.62A15.75,15.75,0,0,1,52.22,87L38.33,84.4a6.39,6.39,0,0,0-4.65.63l-.06,0L27.44,89,23,74.46A10.23,10.23,0,0,0,26.7,72.36ZM19,69.67l8.55,27.87h-14L10.1,69.67Z"/><path class="c" d="M19.92,97a3.46,3.46,0,1,0,0-6.92h0a3.46,3.46,0,0,0,0,6.92Zm0-4.46a1,1,0,1,1-1,1A1,1,0,0,1,19.92,92.51Z"/><path class="c" d="M12.37,30.49A6.8,6.8,0,0,0,21.44,33l.27-.15A6.17,6.17,0,0,0,26.3,35a4.86,4.86,0,0,0,2.27-.53h0l.86-.46a7.45,7.45,0,0,0,8.55.66l5.17-2.86h6.9a10,10,0,0,1,4.26,1l1,.48a16.55,16.55,0,0,0,17.26-1.67l.08-.06,2.3-2.05a7.76,7.76,0,0,1,2.77-1.59L79,32a1.2,1.2,0,0,0,1.18.83H91.29a1.23,1.23,0,0,0,.92-.37,1.16,1.16,0,0,0,.3-.92L88.79,1a1.19,1.19,0,0,0-1.22-1H70.83A1.17,1.17,0,0,0,69.6,1.12a1.13,1.13,0,0,0,.06.41L71.81,8.6l-6.72,4.24a4,4,0,0,1-2.86.37l-.08,0L48.22,10.62A18.28,18.28,0,0,0,37,12.21l-.15.09L12.72,28.84A1.23,1.23,0,0,0,12.37,30.49Zm15.07,1.76A3.28,3.28,0,0,1,24,31.6l8.9-4.8.34-.18a8.17,8.17,0,0,0,1.07,1.94Zm9.37.26h0a5.09,5.09,0,0,1-4.88.12l4.23-2.28a8.1,8.1,0,0,0,2.46,1.18Zm49.67-30L89.9,30.33H81L72.49,2.46ZM38.13,14.38A15.76,15.76,0,0,1,47.78,13L61.67,15.6A6.38,6.38,0,0,0,66.32,15l.06,0L72.56,11,77,25.54a10.31,10.31,0,0,0-3.68,2.1l-2.27,2a14.12,14.12,0,0,1-14.67,1.41l-1-.5a12.32,12.32,0,0,0-5.33-1.27H40.81A5.63,5.63,0,0,1,35.29,25l6.47.31A40.1,40.1,0,0,0,49.11,25a1.21,1.21,0,0,0,1-1.38,1.23,1.23,0,0,0-1.38-1,36.92,36.92,0,0,1-6.89.32L34,22.5a1.22,1.22,0,0,0-1.28,1.17v.06c0,.13,0,.26,0,.39l-1,.51L20.27,30.81a4.34,4.34,0,0,1-5.07-.68Z"/><path class="c" d="M83.54,6.49A3.46,3.46,0,1,0,80.08,10,3.46,3.46,0,0,0,83.54,6.49Zm-3.46,1a1,1,0,1,1,1-1A1,1,0,0,1,80.08,7.49Z"/><path class="d" d="M33.16,50A14.49,14.49,0,1,0,47.65,35.51,14.49,14.49,0,0,0,33.16,50Zm26.51,0a12,12,0,1,1-12-12A12,12,0,0,1,59.67,50Z"/></svg>