<svg xmlns="http://www.w3.org/2000/svg" viewBox="0 0 100 100"><defs><style>.a{fill:#e6e7e8;}.b{fill:none;}.c{fill:#21409a;}.d{fill:#ec008c;}</style></defs><path class="a" d="M32.18,12.19V28.5h-.29a4,4,0,1,0,0,8h.29V48.64a11.08,11.08,0,0,0,7.94,10.63V55a11,11,0,0,1-2-6.33V36.46h-.29a4,4,0,0,1-3.32-6.17,4.31,4.31,0,0,1,.51-.62,3.94,3.94,0,0,1,2.81-1.17h.29V12.19A11.09,11.09,0,0,1,49.22,1.11H43.27A11.08,11.08,0,0,0,32.18,12.19Z"/><path class="b" d="M53.22,12a.5.5,0,1,0-.49-.49h0A.49.49,0,0,0,53.22,12Z"/><path class="b" d="M56.45,19.29A.49.49,0,1,0,56,18.8h0A.49.49,0,0,0,56.45,19.29Z"/><path class="b" d="M61.11,57.53a10.1,10.1,0,0,0,5.56-8.89V37.7H61.11Z"/><path class="b" d="M51.19,58.53h5.54a9.61,9.61,0,0,0,2-.19V37.7H51.19Z"/><path class="b" d="M41.27,58.34a9.61,9.61,0,0,0,2,.19h5.54V37.7H41.27Z"/><path class="b" d="M43.55,19.29a.49.49,0,1,0-.49-.49A.49.49,0,0,0,43.55,19.29Z"/><path class="b" d="M46.78,12a.5.5,0,0,0,0-1,.51.51,0,0,0-.5.5h0A.51.51,0,0,0,46.78,12Z"/><path class="b" d="M50,19.29a.49.49,0,1,0-.49-.49h0A.49.49,0,0,0,50,19.29Z"/><path class="b" d="M69.05,37.62v11A12.32,12.32,0,0,1,56.73,60.91H43.27A12.32,12.32,0,0,1,31,48.64v-11a5.2,5.2,0,0,1-3-1.71H23.81v5.31a26.19,26.19,0,0,0,52.38,0V35.91H72A5.2,5.2,0,0,1,69.05,37.62Z"/><path class="b" d="M73.2,33.53h3v-2h-3a4.65,4.65,0,0,1,0,2Z"/><path class="b" d="M33.33,48.64a10.1,10.1,0,0,0,5.56,8.89V37.7H33.33Z"/><path class="b" d="M26.79,31.55h-3v2h3a4.65,4.65,0,0,1,0-2Z"/><path class="b" d="M82.34,41.22V25a1.89,1.89,0,0,0-3.77,0V41.22a28.57,28.57,0,1,1-57.14,0V25a1.89,1.89,0,0,0-3.77,0V41.22a32.34,32.34,0,0,0,64.68,0Z"/><path class="b" d="M50,75.88c-1,0-2,0-2.78-.11v9.55h5.56V75.77C52,75.84,51,75.88,50,75.88Z"/><path class="b" d="M37.24,92.86H62.76a5.57,5.57,0,0,0-5.44-5.16H42.68A5.57,5.57,0,0,0,37.24,92.86Z"/><rect class="b" x="37.3" y="95.24" width="25.4" height="2.38"/><path class="b" d="M32,35.32H68.24a2.77,2.77,0,0,0,2.66-2.9A2.84,2.84,0,0,0,68,29.76H43.25a1.19,1.19,0,1,1,0-2.38H66.67V12.19a9.87,9.87,0,0,0-9.94-9.81H43.27a9.87,9.87,0,0,0-9.94,9.81V27.38h2a1.19,1.19,0,0,1,0,2.38H31.76a2.79,2.79,0,0,0-2.66,2.91A2.84,2.84,0,0,0,32,35.32ZM59.32,18.8a2.87,2.87,0,1,1-2.87-2.87A2.87,2.87,0,0,1,59.32,18.8ZM53.22,8.62a2.88,2.88,0,1,1-2.87,2.88A2.88,2.88,0,0,1,53.22,8.62ZM52.87,18.8A2.87,2.87,0,1,1,50,15.93,2.86,2.86,0,0,1,52.87,18.8Zm-9-7.3a2.88,2.88,0,1,1,2.88,2.87A2.88,2.88,0,0,1,43.9,11.5Zm-.35,4.43a2.87,2.87,0,1,1-2.87,2.87A2.86,2.86,0,0,1,43.55,15.93ZM36.31,9.28a1.19,1.19,0,1,1,2.38,0v1.11a1.19,1.19,0,1,1-2.38,0Zm0,12.62V14a1.19,1.19,0,1,1,2.38,0V21.9a1.19,1.19,0,0,1-2.38,0Z"/><path class="c" d="M43.55,21.67a2.87,2.87,0,1,0-2.87-2.87A2.86,2.86,0,0,0,43.55,21.67Zm0-3.36a.49.49,0,1,1-.49.49A.49.49,0,0,1,43.55,18.31Z"/><path class="c" d="M47.13,18.8A2.87,2.87,0,1,0,50,15.93,2.86,2.86,0,0,0,47.13,18.8Zm2.38,0a.49.49,0,1,1,.49.49.49.49,0,0,1-.49-.49Z"/><path class="c" d="M53.58,18.8a2.87,2.87,0,1,0,2.87-2.87A2.86,2.86,0,0,0,53.58,18.8Zm2.38,0a.49.49,0,1,1,.49.49A.49.49,0,0,1,56,18.8Z"/><path class="c" d="M46.78,14.37A2.88,2.88,0,1,0,43.9,11.5h0A2.89,2.89,0,0,0,46.78,14.37Zm-.5-2.87a.51.51,0,0,1,.5-.5.5.5,0,0,1,0,1,.51.51,0,0,1-.5-.49Z"/><path class="c" d="M53.22,14.37a2.88,2.88,0,1,0-2.87-2.87A2.88,2.88,0,0,0,53.22,14.37Zm-.49-2.87a.5.5,0,1,1,.49.49.49.49,0,0,1-.49-.49Z"/><path class="c" d="M37.5,23.09a1.19,1.19,0,0,0,1.19-1.19V14a1.19,1.19,0,1,0-2.38,0V21.9A1.19,1.19,0,0,0,37.5,23.09Z"/><path class="c" d="M37.5,11.58a1.19,1.19,0,0,0,1.19-1.19V9.28a1.19,1.19,0,1,0-2.38,0v1.11A1.19,1.19,0,0,0,37.5,11.58Z"/><path class="c" d="M28.57,31.55H26.79a4.65,4.65,0,0,0,0,2h1.77v2.38H28a5.2,5.2,0,0,0,3,1.71v11A12.32,12.32,0,0,0,43.27,60.91H56.73A12.32,12.32,0,0,0,69.05,48.64v-11a5.2,5.2,0,0,0,3-1.71h-.58V33.53H73.2a4.65,4.65,0,0,0,0-2H71.43V29.17H72a5.15,5.15,0,0,0-3-1.69V12.19A12.25,12.25,0,0,0,56.73,0H43.27A12.25,12.25,0,0,0,31,12.19V27.48a5.15,5.15,0,0,0-3,1.69h.61Zm10.32,26a10.1,10.1,0,0,1-5.56-8.89V37.7h5.56Zm9.92,1H43.27a9.61,9.61,0,0,1-2-.19V37.7h7.54Zm9.92-.19a9.61,9.61,0,0,1-2,.19H51.19V37.7h7.54Zm7.94-9.7a10.1,10.1,0,0,1-5.56,8.89V37.7h5.56ZM31.76,29.76h3.56a1.19,1.19,0,0,0,0-2.38h-2V12.19a9.87,9.87,0,0,1,9.94-9.81H56.73a9.87,9.87,0,0,1,9.94,9.81V27.38H43.25a1.19,1.19,0,1,0,0,2.38H68a2.84,2.84,0,0,1,2.86,2.65,2.77,2.77,0,0,1-2.66,2.9H32a2.84,2.84,0,0,1-2.86-2.65A2.79,2.79,0,0,1,31.76,29.76Z"/><path class="d" d="M84.72,41.22V25a4.27,4.27,0,0,0-8.53,0v4.22H72a5.13,5.13,0,0,1,1.17,2.38h3v2h-3A5.07,5.07,0,0,1,72,35.91h4.18v5.31a26.19,26.19,0,0,1-52.38,0V35.91H28a5.07,5.07,0,0,1-1.19-2.38h-3v-2h3A5.13,5.13,0,0,1,28,29.17H23.81V25a4.27,4.27,0,1,0-8.53,0V41.22A34.71,34.71,0,0,0,44.84,75.49v9.83H42.68a7.82,7.82,0,0,0-7.76,7.88v5.69a1.06,1.06,0,0,0,1,1.11H64a1.06,1.06,0,0,0,1.11-1V93.2a7.82,7.82,0,0,0-7.76-7.88H55.16V75.49A34.71,34.71,0,0,0,84.72,41.22Zm-22,56.4H37.3V95.24H62.7ZM57.32,87.7a5.57,5.57,0,0,1,5.44,5.16H37.24a5.57,5.57,0,0,1,5.44-5.16Zm-10.1-2.38V75.77c.8.07,1.82.11,2.78.11s2,0,2.78-.11v9.55ZM50,73.56A32.34,32.34,0,0,1,17.66,41.22V25a1.89,1.89,0,0,1,3.77,0V41.22a28.57,28.57,0,1,0,57.14,0V25a1.89,1.89,0,0,1,3.77,0V41.22A32.34,32.34,0,0,1,50,73.56Z"/><path class="c" d="M28.57,33.53H26.8A5.07,5.07,0,0,0,28,35.91h.58Z"/><path class="c" d="M26.79,31.55h1.78V29.17H28A5.13,5.13,0,0,0,26.79,31.55Z"/><path class="c" d="M71.43,31.55h1.78A5.13,5.13,0,0,0,72,29.17h-.61Z"/><path class="c" d="M71.43,35.91H72a5.07,5.07,0,0,0,1.19-2.38H71.43Z"/></svg>