<svg xmlns="http://www.w3.org/2000/svg" viewBox="0 0 100 100"><defs><style>.a{fill:#e6e7e8;}.b{fill:none;}.c{fill:#21409a;}.d{fill:#ec008c;}</style></defs><path class="a" d="M21.75,42.11a16.64,16.64,0,0,1,4.89-11.8,17,17,0,0,1,2.45-2A15.85,15.85,0,0,1,36.57,7.15c.31-.15.62-.29.94-.41A15.85,15.85,0,0,0,17.32,28.28a16.68,16.68,0,0,0,9.34,30.5h9.13l0-.2A16.68,16.68,0,0,1,21.75,42.11Z"/><path class="b" d="M38.22,44.47H53.37l.28,0a1.6,1.6,0,0,1,1,.66,1.57,1.57,0,0,1,.26,1.19L53,57.19H73.36a15.16,15.16,0,0,0,14.12-9.82A15.08,15.08,0,0,0,78.62,28a1.63,1.63,0,0,1-1-1.58A23.19,23.19,0,0,0,56.63,3.3a23,23,0,0,0-17,5.17,1.63,1.63,0,0,1-1.72.2A14.25,14.25,0,0,0,17.37,21.45a14.11,14.11,0,0,0,1.39,6.15,1.61,1.61,0,0,1-.54,2,15.08,15.08,0,0,0,8.43,27.58h7.82l2.18-11.43A1.6,1.6,0,0,1,38.22,44.47Z"/><path class="b" d="M34.45,74.29H44.74a1.6,1.6,0,0,1,1.39,1.77L44.31,91,57.16,69.2H49.52a1.27,1.27,0,0,1-.28,0,1.56,1.56,0,0,1-1-.66A1.62,1.62,0,0,1,48,67.32l3.52-19.67H39.54Z"/><path class="c" d="M26.66,60.37h7.2l.61-3.18H26.65a15.07,15.07,0,0,1-8.43-27.58,1.61,1.61,0,0,0,.54-2,14.11,14.11,0,0,1-1.39-6.15A14.25,14.25,0,0,1,37.92,8.67a1.63,1.63,0,0,0,1.72-.2A23.21,23.21,0,0,1,72.3,11.65a23.26,23.26,0,0,1,5.28,14.74,1.63,1.63,0,0,0,1,1.58,15.09,15.09,0,0,1-5.26,29.22H53l-.57,3.18H73.35A18.28,18.28,0,0,0,91.61,42.12,18.46,18.46,0,0,0,81.16,25.59l-.41-.2,0-.45a26.39,26.39,0,0,0-42-19.81l-.34.25L38,5.22A17.27,17.27,0,0,0,31.67,4h-.05A17.48,17.48,0,0,0,14.18,21.48a17.71,17.71,0,0,0,1,5.77l.18.5-.41.34c-.41.35-.82.72-1.2,1.1A18.26,18.26,0,0,0,26.66,60.37Z"/><path class="d" d="M51.86,57.19H53l1.94-10.85a1.57,1.57,0,0,0-.26-1.19,1.6,1.6,0,0,0-1-.66l-.28,0H38.22a1.6,1.6,0,0,0-1.57,1.29L34.47,57.19H35v3.18H33.86L31,75.58a1.58,1.58,0,0,0,1.26,1.86,1.53,1.53,0,0,0,.3,0H42.75L40.22,98.21a1.61,1.61,0,0,0,.33,1.18,1.59,1.59,0,0,0,2.62-.17L61.32,68.41a1.59,1.59,0,0,0-.56-2.18A1.67,1.67,0,0,0,60,66H51.42l1-5.64h-.57ZM48,67.32a1.62,1.62,0,0,0,.26,1.19,1.56,1.56,0,0,0,1,.66,1.27,1.27,0,0,0,.28,0h7.64L44.31,91l1.82-14.94a1.6,1.6,0,0,0-1.39-1.77H34.45l5.09-26.64H51.47Z"/><polygon class="d" points="35.03 57.19 34.47 57.19 33.86 60.38 35.03 60.38 35.03 57.19"/><polygon class="d" points="51.86 57.19 51.86 60.37 52.43 60.37 53 57.19 51.86 57.19"/></svg>