<svg xmlns="http://www.w3.org/2000/svg" viewBox="0 0 100 100"><defs><style>.a{fill:#e6e7e8;}.b{fill:none;}.c{fill:#21409a;}.d{fill:#ec008c;}</style></defs><path class="a" d="M14.06,31.74a1.2,1.2,0,0,0-.66-.61,10.8,10.8,0,0,1,1.87-20.68A10.8,10.8,0,0,0,9.34,31.13a1.18,1.18,0,0,1,.65.61l3.25,6.8,2-4.26Z"/><path class="a" d="M50.69,31.74a1.2,1.2,0,0,0-.66-.61A10.8,10.8,0,0,1,51.9,10.45,10.8,10.8,0,0,0,46,31.13a1.23,1.23,0,0,1,.66.61l3.24,6.8,2-4.26Z"/><path class="a" d="M87.32,31.74a1.2,1.2,0,0,0-.66-.61,10.8,10.8,0,0,1,1.87-20.68A10.8,10.8,0,0,0,82.6,31.13a1.23,1.23,0,0,1,.66.61l3.24,6.8,2-4.26Z"/><path class="b" d="M49.87,10.25h0A10.81,10.81,0,0,0,46,31.13a1.23,1.23,0,0,1,.66.61l3.24,6.8,3.25-6.8a1.21,1.21,0,0,1,.65-.61,10.81,10.81,0,0,0-3.9-20.88Zm4.87,14.09A1.22,1.22,0,0,1,53,26.06l-3.14-3.14-3.14,3.14a1.22,1.22,0,0,1-1.73,0h0a1.21,1.21,0,0,1,0-1.72l3.15-3.14L45,18.05a1.22,1.22,0,1,1,1.73-1.72l3.14,3.14L53,16.33a1.22,1.22,0,1,1,1.73,1.72L51.59,21.2Z"/><path class="b" d="M56.66,61.32V54.11l-.44.17a6.79,6.79,0,0,1-6-.67,4.37,4.37,0,0,0-3-.65l-4.17.59v7.77a6.79,6.79,0,0,0,13.58,0Z"/><path class="b" d="M51.52,51.57a4.39,4.39,0,0,0,3.86.42l1-.36a6.82,6.82,0,0,0-6.47-4.72H43.08v4.17l3.83-.53A6.69,6.69,0,0,1,51.52,51.57Z"/><path class="b" d="M23,79a4.89,4.89,0,0,0-4.88-4.88H8.32A4.88,4.88,0,0,0,3.44,79V89.75H23Zm-3.6,1.69H17.25a1.22,1.22,0,0,1,0-2.44h2.19a1.22,1.22,0,0,1,0,2.44Z"/><path class="b" d="M20,53.47v-.92h-.75A2.17,2.17,0,0,0,20,53.47Z"/><path class="b" d="M10.14,53a2.92,2.92,0,0,1,2.91-2.91h8.21a3.59,3.59,0,0,0-3.38-2.37,8,8,0,0,1-2.38-.36,9.17,9.17,0,0,0-2.26-.47,6.8,6.8,0,0,0-6.79,6.8V55.5H7.66A2.48,2.48,0,0,0,10.14,53Z"/><path class="b" d="M20,61.32V56.13a4.63,4.63,0,0,1-3.29-3.58H13.05a.47.47,0,0,0-.47.47,4.92,4.92,0,0,1-4.92,4.92H6.45v3.38h0a6.79,6.79,0,0,0,13.58,0Z"/><path class="b" d="M13.24,10.26a10.8,10.8,0,0,0-3.9,20.87,1.18,1.18,0,0,1,.65.61l3.25,6.8,3.24-6.8a1.23,1.23,0,0,1,.66-.61,10.8,10.8,0,0,0-3.9-20.87Zm5.87,8.46L12.43,25.4a1.23,1.23,0,0,1-1.72,0L7.37,22.06a1.22,1.22,0,0,1,1.72-1.73l2.48,2.48L17.39,17a1.22,1.22,0,1,1,1.72,1.73Z"/><path class="b" d="M90.4,11a10.8,10.8,0,1,0-7.8,20.14,1.23,1.23,0,0,1,.66.61l3.24,6.8,3.25-6.8a1.21,1.21,0,0,1,.65-.61A10.8,10.8,0,0,0,90.4,11ZM86.5,29.32a8.23,8.23,0,1,1,8.23-8.23A8.23,8.23,0,0,1,86.5,29.32Z"/><path class="b" d="M95,78a4.88,4.88,0,0,0-4.88-4.87H80.32A4.88,4.88,0,0,0,75.44,78V88.75H95Zm-3.59,1.7h-2.2a1.22,1.22,0,0,1,0-2.44h2.2a1.22,1.22,0,0,1,0,2.44Z"/><path class="b" d="M54.79,74.16H45A4.88,4.88,0,0,0,40.07,79V89.75h19.6V79A4.88,4.88,0,0,0,54.79,74.16Zm1.29,6.57h-2.2a1.22,1.22,0,0,1,0-2.44h2.2a1.22,1.22,0,0,1,0,2.44Z"/><path class="b" d="M88.24,54.49A15,15,0,0,1,79,57.73h-.52v2.59a6.79,6.79,0,0,0,13.58,0V57.8C90.37,57.53,89.07,56,88.24,54.49Z"/><path class="b" d="M85.24,47.92a6.79,6.79,0,0,0-6.79,6.79v.58H79a12.53,12.53,0,0,0,8.83-3.67,1.16,1.16,0,0,1,.46-.29,1.21,1.21,0,0,1,1.55.74C90,52.71,91,54.69,92,55.24v-.53A6.8,6.8,0,0,0,85.24,47.92Z"/><path class="b" d="M94.47,54.71V58a3.48,3.48,0,0,0-.39-6.93h-.35A9.29,9.29,0,0,1,94.47,54.71Z"/><path class="b" d="M86.5,15.29a5.79,5.79,0,0,0-4.9,8.87l8-8A5.78,5.78,0,0,0,86.5,15.29Z"/><path class="b" d="M83.3,25.91a5.79,5.79,0,0,0,8-8Z"/><path class="c" d="M8,8.9A13.23,13.23,0,0,0,8,33.21l4.14,8.69a1.21,1.21,0,0,0,1.62.57,1.19,1.19,0,0,0,.58-.57l4.14-8.69A13.24,13.24,0,1,0,8,8.9Zm9.14,22.23a1.23,1.23,0,0,0-.66.61l-3.24,6.8L10,31.74a1.18,1.18,0,0,0-.65-.61,10.8,10.8,0,1,1,7.8,0Z"/><path class="c" d="M44.63,8.9a13.23,13.23,0,0,0,0,24.31l4.14,8.69a1.21,1.21,0,0,0,1.62.57A1.19,1.19,0,0,0,51,41.9l4.14-8.69A13.24,13.24,0,1,0,44.63,8.9Zm9.14,22.23a1.21,1.21,0,0,0-.65.61l-3.25,6.8-3.24-6.8a1.23,1.23,0,0,0-.66-.61,10.81,10.81,0,0,1,3.9-20.88h0a10.81,10.81,0,0,1,3.9,20.88Z"/><path class="c" d="M86.5,7.82a13.23,13.23,0,0,0-5.24,25.39L85.4,41.9a1.22,1.22,0,0,0,2.2,0l4.14-8.69A13.23,13.23,0,0,0,86.5,7.82ZM96.57,25a10.8,10.8,0,0,1-6.17,6.17,1.21,1.21,0,0,0-.65.61l-3.25,6.8-3.24-6.8a1.23,1.23,0,0,0-.66-.61,10.8,10.8,0,1,1,14-6.17Z"/><path class="c" d="M17.39,17l-5.82,5.82L9.09,20.33a1.22,1.22,0,0,0-1.72,1.73l3.34,3.34a1.23,1.23,0,0,0,1.72,0l6.68-6.68A1.22,1.22,0,1,0,17.39,17Z"/><path class="c" d="M54.74,16.33a1.22,1.22,0,0,0-1.73,0l-3.14,3.14-3.14-3.14A1.22,1.22,0,1,0,45,18.05l3.15,3.15L45,24.34a1.21,1.21,0,0,0,0,1.72h0a1.22,1.22,0,0,0,1.73,0l3.14-3.14L53,26.06a1.22,1.22,0,0,0,1.73-1.72L51.59,21.2l3.15-3.15A1.21,1.21,0,0,0,54.74,16.33Z"/><path class="c" d="M86.5,12.86a8.23,8.23,0,1,0,8.23,8.23A8.22,8.22,0,0,0,86.5,12.86Zm-3.08,3.32a5.77,5.77,0,0,1,6.16,0l-8,8A5.78,5.78,0,0,1,83.42,16.18Zm6.29,9.73a5.78,5.78,0,0,1-6.41,0l8-8A5.8,5.8,0,0,1,89.71,25.91Z"/><path class="d" d="M59.1,61.32V53.71a9.23,9.23,0,0,0-9.23-9.23h-8a1.21,1.21,0,0,0-1.22,1.21V61.32a9.23,9.23,0,0,0,18.46,0Zm-16-14.41h6.79a6.82,6.82,0,0,1,6.47,4.72l-1,.36a4.39,4.39,0,0,1-3.86-.42,6.69,6.69,0,0,0-4.61-1l-3.83.53Zm0,14.41V53.55L47.25,53a4.37,4.37,0,0,1,3,.65,6.79,6.79,0,0,0,6,.67l.44-.17v7.21a6.79,6.79,0,0,1-13.58,0Z"/><path class="d" d="M62.11,91V79a7.33,7.33,0,0,0-7.32-7.32H45A7.33,7.33,0,0,0,37.63,79V91a1.22,1.22,0,0,0,1.22,1.22h22A1.22,1.22,0,0,0,62.11,91Zm-2.44-1.22H40.07V79A4.88,4.88,0,0,1,45,74.16h9.84A4.88,4.88,0,0,1,59.67,79Z"/><path class="d" d="M56.08,78.29h-2.2a1.22,1.22,0,0,0,0,2.44h2.2a1.22,1.22,0,0,0,0-2.44Z"/><path class="d" d="M1,79V91a1.22,1.22,0,0,0,1.22,1.22h22A1.22,1.22,0,0,0,25.48,91V79a7.33,7.33,0,0,0-7.32-7.32H8.32A7.33,7.33,0,0,0,1,79Zm2.44,0a4.88,4.88,0,0,1,4.88-4.88h9.84A4.89,4.89,0,0,1,23,79V89.75H3.44Z"/><path class="d" d="M19.44,78.29H17.25a1.22,1.22,0,0,0,0,2.44h2.19a1.22,1.22,0,0,0,0-2.44Z"/><path class="d" d="M22.47,61.32V52.55h.23a1.21,1.21,0,0,0,1.21-1.22,6,6,0,0,0-6-6,5.87,5.87,0,0,1-1.67-.25,11,11,0,0,0-3-.57A9.23,9.23,0,0,0,4,53.71v7.61a9.23,9.23,0,0,0,18.46,0ZM20,53.47a2.17,2.17,0,0,1-.75-.92H20Zm-13.58.24a6.8,6.8,0,0,1,6.79-6.8,9.17,9.17,0,0,1,2.26.47,8,8,0,0,0,2.38.36,3.59,3.59,0,0,1,3.38,2.37H13.05A2.92,2.92,0,0,0,10.14,53,2.48,2.48,0,0,1,7.66,55.5H6.45Zm0,7.61h0V57.94H7.66A4.92,4.92,0,0,0,12.58,53a.47.47,0,0,1,.47-.47h3.69A4.63,4.63,0,0,0,20,56.13v5.19a6.79,6.79,0,0,1-13.58,0Z"/><path class="d" d="M73,90a1.22,1.22,0,0,0,1.22,1.22h22A1.22,1.22,0,0,0,97.48,90V78a7.33,7.33,0,0,0-7.32-7.31H80.32A7.33,7.33,0,0,0,73,78ZM75.44,78a4.88,4.88,0,0,1,4.88-4.87h9.84A4.88,4.88,0,0,1,95,78V88.75H75.44Z"/><path class="d" d="M91.45,77.29h-2.2a1.22,1.22,0,0,0,0,2.44h2.2a1.22,1.22,0,0,0,0-2.44Z"/><path class="d" d="M92.18,48.63A9.23,9.23,0,0,0,76,54.71v5.61a9.23,9.23,0,0,0,18.46.13,5.91,5.91,0,0,0-.39-11.81h-1.9ZM92,60.32a6.79,6.79,0,0,1-13.58,0V57.73H79a15,15,0,0,0,9.27-3.24c.83,1.52,2.13,3,3.79,3.31Zm0-5.08c-1.08-.55-2-2.53-2.23-3.17a1.21,1.21,0,0,0-1.55-.74,1.16,1.16,0,0,0-.46.29A12.53,12.53,0,0,1,79,55.29h-.52v-.58a6.8,6.8,0,0,1,13.59,0Zm2-4.17A3.48,3.48,0,0,1,94.47,58h0V54.71a9.29,9.29,0,0,0-.74-3.64Z"/><polygon class="d" points="94.47 58 94.47 58 94.47 58 94.47 58"/></svg>