<svg xmlns="http://www.w3.org/2000/svg" viewBox="0 0 100 100"><defs><style>.a{fill:#e6e7e8;}.b{fill:none;}.c{fill:#21409a;}.d{fill:#ec008c;}</style></defs><path class="a" d="M21.88,10.45,59.51,27.08a1.49,1.49,0,0,0,1.65-.31l2.7-2.7L28.24,8.32C23.1,6.05,20.1,4.86,18.13,6.82L16.59,8.35A46.05,46.05,0,0,1,21.88,10.45Z"/><path class="a" d="M34.29,91,30.66,74.4A1.51,1.51,0,0,1,31.14,73L56.67,50.84,56,50a1.5,1.5,0,0,0-2.09-.22l0,0L24.78,75.08a1.48,1.48,0,0,0-.48,1.44l1.58,7.25,7.73,12.81.39-.39c1.14-1.14,1-2.16.42-4.56C34.38,91.43,34.34,91.23,34.29,91Z"/><path class="a" d="M91.38,72.45,74.79,34.54a1.47,1.47,0,0,1,.31-1.65L93.77,14.22c3.3-3.31,4.28-7.91,2.14-10a4.77,4.77,0,0,0-4.33-1,10.33,10.33,0,0,0-4.44,2.05,4,4,0,0,1,2.41,1.1C91.69,8.43,90.71,13,87.4,16.34L68.73,35a1.5,1.5,0,0,0-.31,1.65L85,74.58l.74,1.66c.27.59.51,1.14.73,1.64L91.43,84c.43-.41.93-.92,1.44-1.49,2-2.17,1.19-4.15-.74-8.41C91.88,73.59,91.63,73,91.38,72.45Z"/><path class="b" d="M95.91,4.17a4.75,4.75,0,0,0-4.32-1,11,11,0,0,0-5.73,3.16L67.52,24.65a1.49,1.49,0,0,1-1.65.31L28.24,8.32C23.1,6.05,20.1,4.86,18.13,6.82l-1.6,1.59,36,28.93,0,0a1.49,1.49,0,0,1,.14,2.1L27,68.81a1.5,1.5,0,0,1-1.43.47L8.91,65.65l-.6-.13c-2.4-.54-3.42-.72-4.56.42l-.39.4,15.47,9.37a1.49,1.49,0,0,1,.51,2l-4.43,7.51,7.57-4.31a1.48,1.48,0,0,1,2,.52l9.13,15.13.39-.39c1.14-1.14,1-2.16.42-4.56,0-.2-.09-.4-.13-.6L30.66,74.4A1.51,1.51,0,0,1,31.14,73L60.26,47.73l0,0a1.49,1.49,0,0,1,2.09.22l29,36.1c.42-.41.93-.92,1.44-1.49,2-2.17,1.19-4.15-.74-8.41-.25-.53-.5-1.09-.75-1.67L74.79,34.54a1.47,1.47,0,0,1,.31-1.65L93.77,14.22C97.07,10.91,98.05,6.31,95.91,4.17Z"/><path class="c" d="M98,2.07A7.62,7.62,0,0,0,91.07.22a14,14,0,0,0-7.31,4L66.14,21.83,29.44,5.61c-5.09-2.25-9.9-4.38-13.4-.9L13.26,7.48a1.48,1.48,0,0,0,0,2.1l.12.11,36.06,29L25.32,66.19,9.55,62.75,9,62.62c-2.44-.55-5-1.12-7.31,1.22l-1,1a2.32,2.32,0,0,0,.44,3.64l14.91,9-5.7,9.67A1.9,1.9,0,0,0,11,89.77a1.93,1.93,0,0,0,1.92,0l9.77-5.56,8.79,14.58a2.31,2.31,0,0,0,1.72,1.11l.29,0a2.34,2.34,0,0,0,1.64-.68l1-1C38.44,96,37.87,93.42,37.32,91c0-.19-.08-.39-.13-.59L33.75,74.63,61,51,90.12,87.13a1.49,1.49,0,0,0,2.09.23l0,0a37.38,37.38,0,0,0,2.83-2.8c3.34-3.71,1.6-7.55-.25-11.62l-.73-1.64-16.19-37,18-18C100.39,11.8,101.35,5.41,98,2.07ZM75.1,32.89a1.47,1.47,0,0,0-.31,1.65L91.38,72.45c.25.58.5,1.14.75,1.67,1.93,4.26,2.7,6.24.74,8.41-.51.57-1,1.08-1.44,1.49l-29-36.1a1.49,1.49,0,0,0-2.09-.22l0,0L31.14,73a1.51,1.51,0,0,0-.48,1.44L34.29,91c0,.2.09.4.13.6.54,2.4.72,3.42-.42,4.56l-.39.39L24.48,81.45a1.48,1.48,0,0,0-2-.52l-7.57,4.31,4.43-7.51a1.49,1.49,0,0,0-.51-2L3.36,66.34l.39-.4c1.14-1.14,2.16-1,4.56-.42l.6.13,16.63,3.63A1.5,1.5,0,0,0,27,68.81L52.69,39.48a1.49,1.49,0,0,0-.14-2.1l0,0-36-28.93,1.6-1.59c2-2,5-.77,10.11,1.5L65.87,25a1.49,1.49,0,0,0,1.65-.31L85.86,6.31a11,11,0,0,1,5.73-3.16,4.75,4.75,0,0,1,4.32,1c2.14,2.14,1.16,6.74-2.14,10.05Z"/><line class="d" x1="17.91" y1="26.31" x2="11.28" y2="32.94"/><path class="d" d="M11.28,34.44a1.5,1.5,0,0,1-1.06-2.56l6.63-6.63A1.5,1.5,0,0,1,19,27.37L12.34,34A1.51,1.51,0,0,1,11.28,34.44Z"/><line class="d" x1="26.25" y1="32.84" x2="11.96" y2="47.13"/><path class="d" d="M12,48.63a1.53,1.53,0,0,1-1.06-.44,1.51,1.51,0,0,1,0-2.12L25.19,31.78a1.51,1.51,0,0,1,2.12,0,1.49,1.49,0,0,1,0,2.12L13,48.19A1.53,1.53,0,0,1,12,48.63Z"/><line class="d" x1="65.51" y1="67.69" x2="51.22" y2="81.97"/><path class="d" d="M51.22,83.47a1.5,1.5,0,0,1-1.06-2.56L64.45,66.63a1.5,1.5,0,0,1,2.12,2.12L52.29,83A1.52,1.52,0,0,1,51.22,83.47Z"/><line class="d" x1="72.16" y1="76.88" x2="64.47" y2="84.58"/><path class="d" d="M64.47,86.08a1.5,1.5,0,0,1-1.06-2.56l7.69-7.7a1.5,1.5,0,0,1,2.12,2.12l-7.69,7.7A1.51,1.51,0,0,1,64.47,86.08Z"/></svg>