<svg xmlns="http://www.w3.org/2000/svg" viewBox="0 0 100 100"><defs><style>.a{fill:#e6e7e8;}.b{fill:none;}.c{fill:#21409a;}.d{fill:#ec008c;}</style></defs><path class="a" d="M49.79,43.88V31.65H45.57V43.88a2.32,2.32,0,0,1-2.32,2.32h4.22A2.32,2.32,0,0,0,49.79,43.88Z"/><path class="a" d="M47.47,54.22H43.25a2.32,2.32,0,0,1,2.32,2.32V69.2h4.22V56.54A2.32,2.32,0,0,0,47.47,54.22Z"/><rect class="a" x="30.8" y="46.2" width="4.22" height="8.02"/><polygon class="b" points="25.45 84.45 29.16 94.67 35.67 80.75 25.45 84.45"/><path class="b" d="M53.8,43.88V31.65H45.57V43.88a2.32,2.32,0,0,1-2.32,2.32H30.8v8H43.25a2.32,2.32,0,0,1,2.32,2.32V69.2H53.8V56.54a2.32,2.32,0,0,1,2.32-2.32H68.35v-8H56.12A2.32,2.32,0,0,1,53.8,43.88Z"/><polygon class="b" points="74.55 15.55 70.84 5.33 64.33 19.25 74.55 15.55"/><path class="c" d="M54.43,28.69H44.94A2.32,2.32,0,0,0,42.62,31V43.25H30.17a2.32,2.32,0,0,0-2.32,2.32v9.28a2.32,2.32,0,0,0,2.32,2.32H42.62V69.83a2.32,2.32,0,0,0,2.32,2.32h9.49a2.32,2.32,0,0,0,2.32-2.32V57.17H69a2.32,2.32,0,0,0,2.32-2.32V45.57A2.32,2.32,0,0,0,69,43.25H56.75V31A2.32,2.32,0,0,0,54.43,28.69ZM68.35,46.2v8H56.12a2.32,2.32,0,0,0-2.32,2.32V69.2H45.57V56.54a2.32,2.32,0,0,0-2.32-2.32H30.8v-8H43.25a2.32,2.32,0,0,0,2.32-2.32V31.65H53.8V43.88a2.32,2.32,0,0,0,2.32,2.32Z"/><polygon class="d" points="18.16 80.16 18.16 80.16 18.16 80.16 18.16 80.16"/><path class="d" d="M20.25,80.18a1.48,1.48,0,0,0,0-2.08l0,0A40.7,40.7,0,0,1,64.55,11.82l-4.4,9.41a1.47,1.47,0,0,0,.71,2,1.43,1.43,0,0,0,1.13,0l14.95-5.42a1.47,1.47,0,0,0,.89-1.89h0L72.41,1A1.48,1.48,0,0,0,69.68.85L65.8,9.14a43.65,43.65,0,0,0-47.64,71A1.48,1.48,0,0,0,20.25,80.18ZM70.84,5.33l3.71,10.22-10.22,3.7Z"/><path class="d" d="M35.45,88.18l4.4-9.41a1.47,1.47,0,0,0-1.84-2L23.06,82.18a1.47,1.47,0,0,0-.89,1.89h0l5.42,15a1.5,1.5,0,0,0,1.33,1H29a1.47,1.47,0,0,0,1.34-.85l3.88-8.29a43.65,43.65,0,0,0,47.63-71h0a1.47,1.47,0,1,0-2.11,2.05v0A40.7,40.7,0,0,1,35.45,88.18Zm-6.29,6.49L25.45,84.45l10.22-3.7Z"/></svg>