<svg xmlns="http://www.w3.org/2000/svg" viewBox="0 0 100 100"><defs><style>.a{fill:#e6e7e8;}.b{fill:none;}.c{fill:#21409a;}.d{fill:#ec008c;}</style></defs><path class="a" d="M61.26,38.05A17.85,17.85,0,0,0,36,38l-.07.07a18,18,0,0,0,0,25.38A17.79,17.79,0,0,0,48.6,68.69h0a17.79,17.79,0,0,0,12.66-5.26A18,18,0,0,0,61.26,38.05Zm-2.1,23.29a14.89,14.89,0,0,1-21,0l-.06,0a15.05,15.05,0,0,1,0-21.2,14.88,14.88,0,0,1,21.05-.06l.06.06A15.05,15.05,0,0,1,59.16,61.34Z"/><path class="a" d="M24.69,10.5a39.75,39.75,0,0,1,17.58,7.14,27,27,0,0,1,2.29,1.83A45,45,0,0,0,38,13.4,40,40,0,0,0,20.45,6.26L13.79,46.72c1.2.07,2.92.21,4.85.46Z"/><polygon class="a" points="13.98 24.96 14.38 24.96 15.08 20.73 9.74 20.73 3.08 60.94 8.01 60.94 13.98 24.96"/><path class="a" d="M58.45,17.63a40.26,40.26,0,0,1,16.86-7.09l6,36.69c2.12-.31,3.9-.46,4.84-.52L79.55,6.31a40.19,40.19,0,0,0-16.86,7.08,66.91,66.91,0,0,0-8.4,7.74A46.12,46.12,0,0,1,58.45,17.63Z"/><polygon class="a" points="86.45 24.96 92.41 60.94 96.92 60.94 90.26 20.73 84.91 20.73 85.61 24.96 86.45 24.96"/><polygon class="b" points="82.72 87.3 85.03 84.98 69.78 69.67 67.47 71.99 82.72 87.3"/><path class="b" d="M61.82,70.48l.57.57a1,1,0,0,0,.66.19h0a2.46,2.46,0,0,0,1.68-.7l3.8-3.81a1.46,1.46,0,0,0,.19-2l-.53-.53A24.08,24.08,0,0,1,61.82,70.48Z"/><path class="b" d="M32,33.79a23.53,23.53,0,0,1,16.55-6.87V24.2c-1.17-1.52-6-7.57-10.48-10.8A40,40,0,0,0,20.45,6.26L13.79,46.71a61,61,0,0,1,11.27,1.7,23.76,23.76,0,0,1,6.82-14.53Z"/><path class="b" d="M72.29,49.5c5.07-2,11.73-2.65,13.91-2.79L79.55,6.31a40.19,40.19,0,0,0-16.86,7.08C58,16.81,52.86,22.65,51.48,24.24V27.1A23.65,23.65,0,0,1,72.29,49.5Z"/><path class="b" d="M12.93,49.64a2.32,2.32,0,0,1-1.69-.85A2.3,2.3,0,0,1,10.75,47l4.33-26.24H9.74L3.08,60.94h24.2A24,24,0,0,1,25,51.47,57.43,57.43,0,0,0,12.93,49.64Z"/><path class="b" d="M59.16,40.14l-.06-.06a14.88,14.88,0,0,0-21.05.06,15.05,15.05,0,0,0,0,21.2l.06,0a14.89,14.89,0,0,0,21,0A15.05,15.05,0,0,0,59.16,40.14Z"/><path class="b" d="M63.31,36l-.08-.08A20.69,20.69,0,0,0,34,36a20.9,20.9,0,0,0,0,29.45l.08.08a20.68,20.68,0,0,0,29.25-.08A20.9,20.9,0,0,0,63.31,36ZM48.6,68.69A17.79,17.79,0,0,1,36,63.43a18,18,0,0,1,0-25.38L36,38A17.92,17.92,0,1,1,48.6,68.69Z"/><path class="b" d="M83.46,92.2l1,1,6.34-6.36-1-1a.75.75,0,0,0-.57-.23,1.89,1.89,0,0,0-1.25.63l-3.8,3.82C83.35,90.86,83.17,91.92,83.46,92.2Z"/><path class="b" d="M96.92,60.94,90.26,20.73H84.91L89.24,47a2.23,2.23,0,0,1-.49,1.81,2.36,2.36,0,0,1-1.7.86c-3.31.14-10.44,1-14.81,3.13A23.89,23.89,0,0,1,70,60.94Z"/><path class="c" d="M100,61.27,93.09,19.68a2.29,2.29,0,0,0-2.3-1.91H84.42l-2-12.52A2.34,2.34,0,0,0,79.76,3.3,43.07,43.07,0,0,0,60.93,11,78.68,78.68,0,0,0,50.06,21.37c-.58-.72-1.44-1.77-2.47-2.94A48,48,0,0,0,39.77,11,42.47,42.47,0,0,0,20.16,3.25a2.36,2.36,0,0,0-2.53,2L15.57,17.77H9.21a2.29,2.29,0,0,0-2.3,1.91L0,61.29a2.24,2.24,0,0,0,.52,1.84,2.28,2.28,0,0,0,1.78.77h26.6a23.92,23.92,0,0,1-1.65-3H3.08L9.74,20.73h5.34L10.75,47a2.3,2.3,0,0,0,.49,1.82,2.32,2.32,0,0,0,1.69.85A57.43,57.43,0,0,1,25,51.47a26.05,26.05,0,0,1,.07-3.06,61,61,0,0,0-11.27-1.7L20.45,6.26A40,40,0,0,1,38,13.4c4.51,3.23,9.31,9.28,10.48,10.8v2.72a22.51,22.51,0,0,1,3,.18V24.24c1.38-1.59,6.54-7.43,11.21-10.85A40.19,40.19,0,0,1,79.55,6.31l6.65,40.4c-2.18.14-8.84.75-13.91,2.79a22.16,22.16,0,0,1-.05,3.26c4.37-2.14,11.5-3,14.81-3.13a2.36,2.36,0,0,0,1.7-.86A2.23,2.23,0,0,0,89.24,47L84.91,20.73h5.35l6.66,40.21H70c-.09.19-.17.39-.27.59l1.07,1.07a4.2,4.2,0,0,1,.84,1.3h26a2.32,2.32,0,0,0,1.78-.78A2.27,2.27,0,0,0,100,61.27Z"/><path class="d" d="M68.62,60.94H70a23.89,23.89,0,0,0,2.22-8.18l-.68.35,0,0a1.48,1.48,0,0,1-1.4-2.61,19.06,19.06,0,0,1,2.18-1A23.65,23.65,0,0,0,51.48,27.1v1.33a1.48,1.48,0,0,1-3,0V26.92A23.53,23.53,0,0,0,32,33.79l-.09.09a23.76,23.76,0,0,0-6.82,14.53c.62.17,1.23.35,1.83.55A1.48,1.48,0,0,1,26,51.77l-1-.3a24,24,0,0,0,2.29,9.47h2.41v3h-.76A23.69,23.69,0,0,0,59.17,72l1.12,1.15a3.85,3.85,0,0,0,2.76,1.1,5.55,5.55,0,0,0,2-.45L80.88,89.66a4,4,0,0,0,.48,4.64l2,2a1.48,1.48,0,0,0,2.1,0h0l8.43-8.45a1.5,1.5,0,0,0,0-2.1l-2-2a3.76,3.76,0,0,0-2.67-1.11,4.32,4.32,0,0,0-1.89.46L71.63,67.34a4.25,4.25,0,0,0,0-3.44h-3ZM34.06,65.5,34,65.42A20.9,20.9,0,0,1,34,36a20.69,20.69,0,0,1,29.25-.08l.08.08a20.9,20.9,0,0,1,0,29.45A20.68,20.68,0,0,1,34.06,65.5ZM88,86.23a1.89,1.89,0,0,1,1.25-.63.75.75,0,0,1,.57.23l1,1-6.34,6.36-1-1c-.29-.28-.11-1.34.7-2.15ZM85,85l-2.31,2.31L67.47,72l2.3-2.32ZM68.72,64.69a1.46,1.46,0,0,1-.19,2l-3.8,3.81a2.46,2.46,0,0,1-1.68.7h0a1,1,0,0,1-.66-.19l-.57-.57a24.08,24.08,0,0,0,6.37-6.32Z"/><path class="d" d="M27.82,50.81A1.48,1.48,0,0,0,26.89,49c-.6-.2-1.21-.38-1.83-.55A26.05,26.05,0,0,0,25,51.47l1,.3A1.47,1.47,0,0,0,27.82,50.81Z"/><path class="d" d="M50,29.91a1.48,1.48,0,0,0,1.48-1.48V27.1a22.51,22.51,0,0,0-3-.18v1.51A1.48,1.48,0,0,0,50,29.91Z"/><path class="d" d="M69.51,52.53a1.46,1.46,0,0,0,2,.61l0,0,.68-.35a22.16,22.16,0,0,0,.05-3.26,19.06,19.06,0,0,0-2.18,1A1.47,1.47,0,0,0,69.51,52.53Z"/><path class="d" d="M29.69,60.94H27.28a23.92,23.92,0,0,0,1.65,3h.76Z"/><path class="d" d="M69.75,61.53c.1-.2.18-.4.27-.59h-1.4v3h3a4.2,4.2,0,0,0-.84-1.3Z"/><path class="d" d="M61.26,38.05A17.85,17.85,0,0,0,36,38l-.07.07a18,18,0,0,0,0,25.38,17.85,17.85,0,0,0,25.31,0A18,18,0,0,0,61.26,38.05Zm-2.1,23.29a14.89,14.89,0,0,1-21,0l-.06,0a15.05,15.05,0,0,1,0-21.2,14.88,14.88,0,0,1,21.05-.06l.06.06A15.05,15.05,0,0,1,59.16,61.34Z"/></svg>