<svg xmlns="http://www.w3.org/2000/svg" viewBox="0 0 100 100"><defs><style>.a{fill:#e6e7e8;}.b{fill:none;}.c{fill:#21409a;}.d{fill:#ec008c;}</style></defs><path class="a" d="M37.14,55.49a15.84,15.84,0,0,1-1.4-5.44l-.26,0L11.57,78.29A7.59,7.59,0,0,0,13.11,88.9a7.8,7.8,0,0,0,.77.5,7.55,7.55,0,0,1,.89-7.51Z"/><path class="b" d="M62.21,38.32a14.77,14.77,0,0,0-8.12-4.14L66.35,46.44A14.77,14.77,0,0,0,62.21,38.32Z"/><path class="b" d="M94.86,36.12a2.23,2.23,0,1,0,2.24,2.23h0A2.23,2.23,0,0,0,94.86,36.12Z"/><path class="b" d="M97,20a.52.52,0,0,0-.17-.38.46.46,0,0,0-.39-.1l-11.4,2.31a.53.53,0,0,0-.44.48v3.44L97,23.24Z"/><path class="b" d="M72.83,2.89a.47.47,0,0,0-.19-.38.53.53,0,0,0-.42-.1L60.84,4.71a.52.52,0,0,0-.41.48V8.64l12.4-2.5Z"/><path class="b" d="M70.62,19a2.23,2.23,0,1,0,2.23,2.23A2.22,2.22,0,0,0,70.62,19Z"/><path class="b" d="M80.07,31.78A2.23,2.23,0,1,0,82.31,34,2.23,2.23,0,0,0,80.07,31.78Z"/><path class="b" d="M55.82,14.67a2.23,2.23,0,1,0,2.24,2.23h0A2.23,2.23,0,0,0,55.82,14.67Z"/><path class="b" d="M61.32,60.11,40.43,39.23a15.72,15.72,0,0,0-1.74,2.52l20.1,20.1A14.6,14.6,0,0,0,61.32,60.11Z"/><path class="b" d="M64.75,55.89l-20.1-20.1a14.16,14.16,0,0,0-2.52,1.74L63,58.42A14.6,14.6,0,0,0,64.75,55.89Z"/><path class="b" d="M66.49,50,50.55,34a14.31,14.31,0,0,0-3.53.73L65.77,53.52A14.37,14.37,0,0,0,66.49,50Z"/><polygon class="b" points="27.07 83.23 17.26 73.42 16 74.9 25.59 84.48 27.07 83.23"/><path class="b" d="M47.93,65.61a17.17,17.17,0,0,1-13-13l-16.11,19,10.1,10.1ZM29.08,69.75l4.69-4.68h0a1.2,1.2,0,1,1,1.68,1.71l-4.68,4.68h0a1.2,1.2,0,0,1-1.69-1.71Z"/><path class="b" d="M20.25,88.66l-8.43-8.43a6.43,6.43,0,0,0,1.32,7.11A6.34,6.34,0,0,0,20.25,88.66Z"/><polygon class="b" points="23.75 86.03 14.45 76.73 13.19 78.21 22.27 87.28 23.75 86.03"/><path class="b" d="M41.24,59.29a14.69,14.69,0,0,0,8.09,4.14L37.11,51.22A14.78,14.78,0,0,0,41.24,59.29Z"/><path class="b" d="M52.87,63.59a15.54,15.54,0,0,0,3.55-.72L37.68,44.12A14.54,14.54,0,0,0,37,47.67Z"/><path class="c" d="M2.23,100,12.38,89.85a8.73,8.73,0,0,0,10.94-.31L51.17,66l.55,0A17.24,17.24,0,1,0,34.51,49.37L11,77.14a8.84,8.84,0,0,0-.27,11L.53,98.3ZM36.36,42.81l1.7-1.69.63.63a15.72,15.72,0,0,1,1.74-2.52l-.9-.91,1.69-1.69.91.9a14.16,14.16,0,0,1,2.52-1.74L44,35.16l1.69-1.7L47,34.77A14.31,14.31,0,0,1,50.55,34l-.4-.4L51.85,32l2.24,2.23A14.76,14.76,0,0,1,66.35,46.44l2.23,2.23-1.7,1.7L66.49,50a14.37,14.37,0,0,1-.72,3.54l1.29,1.29-1.69,1.7-.62-.62A14.6,14.6,0,0,1,63,58.42l.89.88L62.2,61l-.88-.89a14.6,14.6,0,0,1-2.53,1.74l.62.61-1.7,1.7-1.29-1.29a15.54,15.54,0,0,1-3.55.72l.4.39-1.7,1.69-2.24-2.24A14.77,14.77,0,0,1,37.11,51.22L34.85,49l1.69-1.7.42.42a14.54,14.54,0,0,1,.72-3.55Zm-1.44,9.78a17.17,17.17,0,0,0,13,13l-19,16.07-10.1-10.1ZM17.26,73.42l9.81,9.81-1.48,1.25L16,74.9Zm-2.81,3.31,9.3,9.3-1.49,1.25-9.07-9.07Zm-2.63,3.5,8.43,8.43a6.34,6.34,0,0,1-7.11-1.32A6.43,6.43,0,0,1,11.82,80.23Z"/><path class="c" d="M30.77,71.46h0l4.68-4.68a1.2,1.2,0,1,0-1.68-1.71h0l-4.69,4.68a1.2,1.2,0,0,0,1.69,1.71Z"/><path class="c" d="M96.6,17.1a3.08,3.08,0,0,0-.61.06L84.57,19.47a2.93,2.93,0,0,0-2.35,2.83V30A4.29,4.29,0,0,0,80,29.38a4.63,4.63,0,1,0,4.59,4.67V28.19L97,25.69v8.59a4.3,4.3,0,0,0-2.18-.56,4.63,4.63,0,1,0,4.63,4.63h0c0-.18-.06-.36-.06-.53V20A2.86,2.86,0,0,0,96.6,17.1ZM80.07,36.24A2.23,2.23,0,1,1,82.31,34,2.23,2.23,0,0,1,80.07,36.24Zm4.55-10.5V22.3a.53.53,0,0,1,.44-.48l11.4-2.31a.46.46,0,0,1,.39.1A.52.52,0,0,1,97,20v3.25ZM97.1,38.35a2.24,2.24,0,1,1-2.24-2.23,2.24,2.24,0,0,1,2.24,2.23Z"/><path class="d" d="M62.21,59.3a11,11,0,0,0,.8-.88L42.13,37.53c-.3.25-.6.51-.88.79s-.56.6-.82.91L61.32,60.11C61.62,59.85,61.92,59.59,62.21,59.3Z"/><path class="c" d="M42.13,37.53l-.91-.9-1.69,1.69.9.91c.26-.31.53-.62.82-.91S41.83,37.78,42.13,37.53Z"/><path class="c" d="M61.32,60.11l.88.89,1.7-1.7L63,58.42a11,11,0,0,1-.8.88C61.92,59.59,61.62,59.85,61.32,60.11Z"/><path class="d" d="M66.35,46.44,54.09,34.18A15,15,0,0,0,50.55,34L66.49,50A14.47,14.47,0,0,0,66.35,46.44Z"/><path class="c" d="M54.09,34.18,51.85,32l-1.7,1.69.4.4A15,15,0,0,1,54.09,34.18Z"/><path class="c" d="M66.49,50l.39.39,1.7-1.7-2.23-2.23A14.47,14.47,0,0,1,66.49,50Z"/><path class="d" d="M65.77,53.52,47,34.77a13.77,13.77,0,0,0-2.37,1l20.1,20.1A15,15,0,0,0,65.77,53.52Z"/><path class="c" d="M45.71,33.46,44,35.16l.63.63a13.77,13.77,0,0,1,2.37-1Z"/><path class="c" d="M65.37,56.51l1.69-1.7-1.29-1.29a15,15,0,0,1-1,2.37Z"/><path class="d" d="M58.79,61.85l-20.1-20.1a15.34,15.34,0,0,0-1,2.37L56.42,62.87A15.39,15.39,0,0,0,58.79,61.85Z"/><path class="c" d="M38.06,41.12l-1.7,1.69,1.32,1.31a15.34,15.34,0,0,1,1-2.37Z"/><path class="c" d="M57.71,64.16l1.7-1.7-.62-.61a15.39,15.39,0,0,1-2.37,1Z"/><path class="d" d="M37.11,51.22,49.33,63.43a15,15,0,0,0,3.54.16L37,47.67A15.1,15.1,0,0,0,37.11,51.22Z"/><path class="c" d="M49.33,63.43l2.24,2.24L53.27,64l-.4-.39A15,15,0,0,1,49.33,63.43Z"/><path class="c" d="M37,47.67l-.42-.42L34.85,49l2.26,2.27A15.1,15.1,0,0,1,37,47.67Z"/><path class="d" d="M72.32,0a2.76,2.76,0,0,0-.57.06L60.36,2.36A2.92,2.92,0,0,0,58,5.19v7.66a4.4,4.4,0,0,0-2.21-.58,4.63,4.63,0,1,0,4.61,4.65V11.09l12.4-2.51v8.59a4.5,4.5,0,0,0-2.21-.55,4.63,4.63,0,1,0,4.63,4.63c0-.18,0-.36,0-.53V2.89A2.91,2.91,0,0,0,72.32,0ZM58.06,16.9a2.24,2.24,0,1,1-2.24-2.23,2.23,2.23,0,0,1,2.24,2.23Zm2.37-8.26V5.19a.52.52,0,0,1,.41-.48l11.38-2.3a.53.53,0,0,1,.42.1.47.47,0,0,1,.19.38V6.14ZM70.62,23.48a2.23,2.23,0,1,1,2.23-2.23A2.23,2.23,0,0,1,70.62,23.48Z"/></svg>