<svg xmlns="http://www.w3.org/2000/svg" viewBox="0 0 100 100"><defs><style>.a{fill:#e6e7e8;}.b{fill:none;}.c{fill:#21409a;}.d{fill:#ec008c;}</style></defs><path class="a" d="M51.32,53.68a7.52,7.52,0,1,0-5.07,14.15,7.6,7.6,0,0,0,5.07,0,7.52,7.52,0,0,1,0-14.15Z"/><path class="a" d="M36.8,20.58H30.71a3.26,3.26,0,0,0-3.25,3.25v1.93A3.25,3.25,0,0,0,30.71,29h5.42l.31,0a3.25,3.25,0,0,1-2.89-3.23V23.83A3.26,3.26,0,0,1,36.8,20.58Z"/><path class="b" d="M36.13,27.86A1.29,1.29,0,0,0,37.29,27a3.73,3.73,0,0,1,3.43-2.4h3.09a1.43,1.43,0,0,0,0-2.85H30.71a2.06,2.06,0,0,0-2,2.06v1.93a2.09,2.09,0,0,0,2,2.1Z"/><polygon class="b" points="32.34 32.73 34.37 32.63 34.37 30.3 32.34 30.3 32.34 32.73"/><path class="b" d="M18.78,81.64h0A16.36,16.36,0,0,0,35.11,65.87L33.92,66A15.16,15.16,0,1,1,26.59,52.3l.87-.86a16.33,16.33,0,1,0-8.68,30.2Z"/><path class="b" d="M6.13,64.23a12.7,12.7,0,1,0,25.32,2.11l-12.2,1.55a2.73,2.73,0,0,1-.41,0,3.3,3.3,0,0,1-2.33-5.65l8.28-8.19A12.71,12.71,0,0,0,6.13,64.23Z"/><path class="b" d="M64.87,65.29A16.32,16.32,0,1,0,81.22,49h-.08l.23,1.19a15.17,15.17,0,1,1-6.46,1.37l-.23-1.2A16.34,16.34,0,0,0,64.87,65.29Z"/><polygon class="b" points="84.11 22.86 76.35 24.32 77.14 28.39 84.11 29.85 84.11 22.86"/><path class="b" d="M68.51,64.65A12.72,12.72,0,1,0,81.85,52.59l1.74,8.9a3.33,3.33,0,0,1-1.06,3.12,2.8,2.8,0,0,1-.74.49,3.32,3.32,0,0,1-3.5-.39h0a3.36,3.36,0,0,1-1.2-2L75.39,54A12.73,12.73,0,0,0,68.51,64.65Z"/><path class="b" d="M28.1,60.11l2.17-.28a12.81,12.81,0,0,0-.66-1.21Z"/><path class="b" d="M31.38,56.87a15.19,15.19,0,0,1,1.41,2.64L34,59.35A16.41,16.41,0,0,0,32.23,56Z"/><path class="b" d="M46.55,74.49A.48.48,0,0,0,47,75H50.4a.48.48,0,0,0,.41-.48v-.74H46.55Z"/><path class="b" d="M47.36,66.73V61.29a1.22,1.22,0,0,1,2.44,0v5.48a6.09,6.09,0,0,0,5.11-6.09h0a6.19,6.19,0,1,0-12.37,0A6.29,6.29,0,0,0,47.36,66.73Z"/><path class="b" d="M34,54.28A18.67,18.67,0,0,1,36.49,59l3.89-.5v0l-3.91-6.7Z"/><path class="b" d="M72.17,37.42,36.73,39.14,44.82,53a8.57,8.57,0,0,1,9.06.76L72.36,38.41Z"/><path class="c" d="M84.11,22.86v7l-7-1.46.5,2.59,7.51,1.56a1.06,1.06,0,0,0,.25,0,1.08,1.08,0,0,0,.73-.27,1.13,1.13,0,0,0,.41-.94v-10a1.16,1.16,0,0,0-1.38-1.2l-9.28,1.74.47,2.38Z"/><path class="c" d="M42.19,65l-.88.11a8.6,8.6,0,0,0,6,4.13v2.1h-2a1.16,1.16,0,0,0-1.22,1.1v2.08A2.91,2.91,0,0,0,47,77.4H50.4a2.91,2.91,0,0,0,2.85-2.91v-2a1.16,1.16,0,0,0-1.17-1.15H49.8V69.24a8.63,8.63,0,0,0,7.49-9.62s0-.06,0-.09l-.5.41-1.56-1.87L56.52,57a7.9,7.9,0,0,0-.91-1.5l-.93.78-1.56-1.88.76-.63A8.57,8.57,0,0,0,44.82,53l.63,1.09-2.1,1.23-.53-.91a8.38,8.38,0,0,0-1.2,1.39l1.16,2-1.46.86.28,2.2L40.12,61a8.2,8.2,0,0,0,.24,1.72l1.52-.2Zm8.62,8.78v.74a.48.48,0,0,1-.41.48H47a.48.48,0,0,1-.4-.48v-.74ZM48.72,54.49a6.19,6.19,0,0,1,6.19,6.19h0a6.09,6.09,0,0,1-5.11,6.09V61.29a1.22,1.22,0,0,0-2.44,0v5.44a6.29,6.29,0,0,1-4.82-6.05A6.19,6.19,0,0,1,48.72,54.49Z"/><path class="c" d="M40.4,58.54v0Z"/><path class="c" d="M32.33,29.08V30.3h2V29.08H36.8v1.14a3.74,3.74,0,0,0,2.76-2.32,1.31,1.31,0,0,1,1.16-.85h3.09a3.86,3.86,0,0,0,0-7.71H30.71a4.49,4.49,0,0,0-4.47,4.49v1.93a4.56,4.56,0,0,0,3.66,4.46V29.08Zm-3.65-3.32V23.83a2.06,2.06,0,0,1,2-2.06h13.1a1.43,1.43,0,0,1,0,2.85H40.72A3.73,3.73,0,0,0,37.29,27a1.29,1.29,0,0,1-1.16.84H30.71A2.09,2.09,0,0,1,28.68,25.76Z"/><path class="d" d="M73.8,45.8l.4,2.07a18.78,18.78,0,1,0,7-1.36h0l-.55,0L77.64,31l-1.81-.38.47-2.38.84.17-.79-4.07-1.28.24-.41-2.39,1.22-.23-.65-3.35a3.3,3.3,0,0,0-3.3-2.67l-10.69.17a3.43,3.43,0,0,0-2.4,1,3.3,3.3,0,0,0,2.42,5.6l8-.13,1.57,8.3-21.32,1a1.22,1.22,0,0,0,.06,2.43h.06l22.72-1.1a1.23,1.23,0,0,0,1.17-1.45L71.47,21.1a1.21,1.21,0,0,0-1.22-1l-9,.14a.86.86,0,0,1-.88-.85.88.88,0,0,1,.33-.69,1,1,0,0,1,.56-.19L72,18.35a.87.87,0,0,1,.87.7l8.35,42.87a.92.92,0,0,1-.62,1,.85.85,0,0,1-.87-.26.87.87,0,0,1-.21-.43L75.81,43.36a1.31,1.31,0,0,0-.51-.81,1.22,1.22,0,0,0-1.47.07L56.52,57a8.6,8.6,0,0,1,.76,2.54ZM75.39,54l1.7,8.7a3.36,3.36,0,0,0,1.2,2h0a3.32,3.32,0,0,0,3.5.39,2.8,2.8,0,0,0,.74-.49,3.33,3.33,0,0,0,1.06-3.12l-1.74-8.9A12.71,12.71,0,1,1,75.39,54Zm-.71-3.67.23,1.2a15.16,15.16,0,1,0,6.46-1.37L81.14,49h.08a16.35,16.35,0,0,1,0,32.69h0a16.35,16.35,0,0,1-6.54-31.33Z"/><polygon class="d" points="75.07 24.56 76.35 24.32 75.88 21.94 74.66 22.17 75.07 24.56"/><polygon class="d" points="76.3 28.22 75.83 30.6 77.64 30.98 77.14 28.39 76.3 28.22"/><path class="c" d="M56.78,59.94l.5-.41A8.6,8.6,0,0,0,56.52,57l-1.3,1.08Z"/><path class="d" d="M25.17,43.76a22.29,22.29,0,0,0-2.66-.62,1.22,1.22,0,0,0-.4,2.41,18.77,18.77,0,0,1,2.36.54,1.22,1.22,0,1,0,.71-2.33Z"/><path class="d" d="M5.56,50.25a20.05,20.05,0,0,1,13.22-5,1.22,1.22,0,1,0,0-2.44A22.48,22.48,0,0,0,4,48.42a1.22,1.22,0,0,0,.81,2.14h0A1.18,1.18,0,0,0,5.56,50.25Z"/><path class="d" d="M18.78,84.07A18.78,18.78,0,0,0,37.56,65.56l3.75-.48a8.34,8.34,0,0,1-1-2.33L19,65.48A.87.87,0,0,1,18.23,64l17.2-17a1.21,1.21,0,0,0,.19-1.48l-5.2-8.93a.89.89,0,0,1-.12-.71.8.8,0,0,1,.75-.64l10.48-.51a1.22,1.22,0,1,0-.12-2.44l-4.61.23v-2.3a3.72,3.72,0,0,1-.67.08H34.36v2.33l-2,.1V30.3H30.71a4.28,4.28,0,0,1-.81-.08V33a3.3,3.3,0,0,0-2,2.23,3.41,3.41,0,0,0,.38,2.57L33,45.93l-3.81,3.76A18.78,18.78,0,1,0,18.78,84.07Zm-2.27-21.8a3.3,3.3,0,0,0,2.33,5.65,2.73,2.73,0,0,0,.41,0l12.2-1.55a12.7,12.7,0,1,1-6.66-12.26ZM18.78,49a16.25,16.25,0,0,1,8.68,2.49l-.87.86A15.16,15.16,0,1,0,33.92,66l1.19-.15A16.36,16.36,0,0,1,18.78,81.64h0a16.35,16.35,0,0,1,0-32.69Z"/><path class="c" d="M42.19,65l-.31-2.42-1.52.2a8.34,8.34,0,0,0,1,2.33Z"/><path class="c" d="M34.36,29.08V30.3h1.77a3.72,3.72,0,0,0,.67-.08V29.08Z"/><path class="c" d="M32.33,30.3V29.08H29.9v1.14a4.28,4.28,0,0,0,.81.08Z"/><path class="d" d="M36.73,39.14l35.44-1.72.19,1L53.88,53.76a8.34,8.34,0,0,1,1.73,1.73L74.47,39.83a1.2,1.2,0,0,0,.42-1.17l-.53-2.74a1.21,1.21,0,0,0-1.26-1L34.61,36.81a1.21,1.21,0,0,0-1,1.83l9.2,15.77a8.59,8.59,0,0,1,2-1.41Z"/><path class="c" d="M45.45,54.09,44.82,53a8.59,8.59,0,0,0-2,1.41l.53.91Z"/><path class="c" d="M53.88,53.76l-.76.63,1.56,1.88.93-.78A8.34,8.34,0,0,0,53.88,53.76Z"/><path class="d" d="M40.38,58.54l-3.89.5A18.67,18.67,0,0,0,34,54.28l2.49-2.46,3.91,6.7a8.4,8.4,0,0,1,1.23-2.72l-3.83-6.56a1.22,1.22,0,0,0-.89-.6,1.24,1.24,0,0,0-1,.34L23.82,60.9a1.23,1.23,0,0,0,0,1.73,1.2,1.2,0,0,0,.86.36h.15L40.12,61c0-.13,0-.25,0-.38A9.17,9.17,0,0,1,40.38,58.54ZM28.1,60.11l1.51-1.49a12.81,12.81,0,0,1,.66,1.21Zm4.69-.6a15.19,15.19,0,0,0-1.41-2.64l.85-.85A16.41,16.41,0,0,1,34,59.35Z"/><path class="c" d="M41.32,58.64l1.46-.86-1.16-2a8.4,8.4,0,0,0-1.23,2.72v0h0a9.17,9.17,0,0,0-.28,2.11c0,.13,0,.25,0,.38l1.48-.19Z"/></svg>