<svg xmlns="http://www.w3.org/2000/svg" viewBox="0 0 100 100"><defs><style>.a{fill:#e6e7e8;}.b{fill:none;}.c{fill:#21409a;}.d{fill:#ec008c;}</style></defs><path class="a" d="M22.72,52.42,4,42.69,1.18,48.16,19.37,58.34a1.6,1.6,0,0,0,2.18-.62l0,0,2.79-5.3A1.61,1.61,0,0,1,22.72,52.42Z"/><path class="b" d="M23.84,64.76a1.89,1.89,0,0,0,.44,2.65l.42.3a1.9,1.9,0,0,0,2.65-.43l5.35-7.42h0a1.91,1.91,0,0,0-.43-2.66l-.42-.3a1.91,1.91,0,0,0-2.66.43l-5.34,7.42Z"/><path class="b" d="M40.55,79.14l.42.3A1.91,1.91,0,0,0,43.63,79l1.69-2.35h0A1.89,1.89,0,0,0,44.88,74l-.42-.31a1.9,1.9,0,0,0-2.65.44l-1.69,2.34A1.91,1.91,0,0,0,40.55,79.14Z"/><path class="b" d="M29.7,71.32l.42.3a1.91,1.91,0,0,0,2.66-.43l4-5.5A1.89,1.89,0,0,0,36.3,63l-.42-.3a1.89,1.89,0,0,0-2.65.43l-4,5.49A1.91,1.91,0,0,0,29.7,71.32Z"/><rect class="b" x="33.54" y="69.71" width="8.63" height="4.32" rx="1.9" transform="translate(-42.58 60.56) rotate(-54.21)"/><path class="b" d="M33.66,30.66,16.74,20.93l-14,26.76,16.92,9.47h0a.73.73,0,0,0,1-.31L33.94,31.6h0A.71.71,0,0,0,33.66,30.66ZM18,31.71,11.83,43.37a1.19,1.19,0,0,1-2.09-1.12L16,30.59h0A1.19,1.19,0,0,1,18,31.71Zm2.41-4.53-.74,1.39a1.18,1.18,0,1,1-2.09-1.11l.74-1.39a1.18,1.18,0,1,1,2.09,1.11Z"/><path class="b" d="M66.31,28.88a1.29,1.29,0,0,0-.64.58,1.32,1.32,0,0,0,0,1.22l11.77,25a1.24,1.24,0,0,0,.68.61,1.2,1.2,0,0,0,.91,0l18.25-8.54-12.7-27.1Z"/><path class="c" d="M40.11,33.84a11.15,11.15,0,0,0-4.46-.42l.51-1a2.79,2.79,0,0,0-1-3.68l0,0L16.86,18.26a1.18,1.18,0,0,0-1.62.44l0,0L.13,47.61a1.19,1.19,0,0,0,.48,1.58L18.78,59.37a2.86,2.86,0,0,0,1.37.36,2.61,2.61,0,0,0,.79-.12,2.75,2.75,0,0,0,1.68-1.38l.17-.32,1.78,1.79L26,57.76l-2-2L34.27,36.06a9.86,9.86,0,0,1,4.12-.21A7.91,7.91,0,0,1,40.11,33.84ZM33.94,31.6,20.67,56.86a.73.73,0,0,1-1,.31h0L2.76,47.69l14-26.76,16.92,9.73a.71.71,0,0,1,.28.94Z"/><path class="c" d="M20,25.58a1.18,1.18,0,0,0-1.6.49l-.74,1.39a1.18,1.18,0,1,0,2.09,1.11l.74-1.39A1.18,1.18,0,0,0,20,25.58Z"/><path class="c" d="M17.55,30.11a1.19,1.19,0,0,0-1.6.48h0L9.74,42.25a1.19,1.19,0,0,0,2.09,1.12L18,31.71A1.18,1.18,0,0,0,17.55,30.11Z"/><path class="c" d="M46.76,78.7l2,1.56a4.85,4.85,0,0,0,8-3.26,4.85,4.85,0,0,0,6.16-3,4.52,4.52,0,0,0,.24-1.16,4.85,4.85,0,0,0,6.16-3,4.75,4.75,0,0,0,.23-1,4.79,4.79,0,0,0,1.94.41l.37,0a4.8,4.8,0,0,0,3.33-1.68l.06-.07a4.69,4.69,0,0,0,1.12-3.61,4.88,4.88,0,0,0-1.69-3.14l-6.49-5.6q-.65-.55-1.26-1.17l-6.94-6.86a.75.75,0,0,0-1.06,0,.73.73,0,0,0-.22.52,4.28,4.28,0,0,0,1.09,2.61l5.5,5.44c.41.4.82.78,1.26,1.16l6.65,5.75A2.33,2.33,0,0,1,74,64.29,2.44,2.44,0,0,1,73.34,66v0a2.53,2.53,0,0,1-1.72.86,2.43,2.43,0,0,1-1.8-.59l-7.12-6.16A1.22,1.22,0,0,0,61,60.2a1.17,1.17,0,0,0,.07,1.67l0,0h0l5.18,4.49a2.48,2.48,0,1,1-3.25,3.75l-5.19-4.49a1.19,1.19,0,0,0-1.58,1.77l0,0,3.58,3.1a2.48,2.48,0,1,1-3.22,3.77l0,0L53.1,71.23a1.22,1.22,0,0,0-1.68.07A1.18,1.18,0,0,0,51.49,73l0,0,2,1.7a2.48,2.48,0,0,1-3.25,3.76L47.9,76.59a4.26,4.26,0,0,1-.66,1.46Z"/><path class="d" d="M25.28,60.42l-.71-.72-2.64,3.67a4.27,4.27,0,0,0,1,6l.42.3a4.22,4.22,0,0,0,2.49.8,4.15,4.15,0,0,0,.79-.07s0,.07,0,.1a4.25,4.25,0,0,0,1.72,2.78l.42.3a4.32,4.32,0,0,0,3.28.73.34.34,0,0,0,0,.1,4.24,4.24,0,0,0,1.71,2.78l.42.3a4.29,4.29,0,0,0,2.49.8,4.15,4.15,0,0,0,.79-.07,4.29,4.29,0,0,0,1.73,2.88l.42.3a4.28,4.28,0,0,0,6-1l1.21-1.69-1-.77,1.48-1.85.63.51a4.24,4.24,0,0,0-1.63-4.5l-.42-.31a4.27,4.27,0,0,0-2.2-.78A4.29,4.29,0,0,0,42,66.6l-.42-.3a4.29,4.29,0,0,0-2.2-.79,4.28,4.28,0,0,0-1.67-4.39l-.42-.3A4.26,4.26,0,0,0,35.22,60a4.25,4.25,0,0,0-1.57-4.75L33.23,55a4.28,4.28,0,0,0-6,1L26,57.76l1,1ZM41.81,74.14a1.9,1.9,0,0,1,2.65-.44l.42.31a1.89,1.89,0,0,1,.44,2.65h0L43.63,79a1.91,1.91,0,0,1-2.66.43l-.42-.3a1.91,1.91,0,0,1-.43-2.66Zm-4.29-5.49a1.9,1.9,0,0,1,2.65-.43l.42.3A1.91,1.91,0,0,1,41,71.18L38.2,75.1a1.9,1.9,0,0,1-2.65.43l-.42-.3a1.9,1.9,0,0,1-.43-2.66Zm-4.29-5.48a1.89,1.89,0,0,1,2.65-.43l.42.3a1.89,1.89,0,0,1,.44,2.65l-4,5.5a1.91,1.91,0,0,1-2.66.43l-.42-.3a1.91,1.91,0,0,1-.43-2.66Zm-4-5.84a1.91,1.91,0,0,1,2.66-.43l.42.3a1.91,1.91,0,0,1,.43,2.66h0l-5.35,7.42a1.9,1.9,0,0,1-2.65.43l-.42-.3a1.89,1.89,0,0,1-.44-2.65h0Z"/><polygon class="d" points="25.28 60.41 26.95 58.75 25.97 57.76 24.57 59.7 25.28 60.41"/><path class="d" d="M45.79,77.93l1,.77.48-.65a4.26,4.26,0,0,0,.66-1.46l-.63-.51Z"/><path class="d" d="M86.19,18.52a1.2,1.2,0,0,0-1.57-.58L64.56,27.07A2.8,2.8,0,0,0,63,30.71l.06.14.63,1.33-.35.14a10.31,10.31,0,0,1-5.55-.22l-5.23-1.48a8.09,8.09,0,0,0-4.65.08l-5,1.6a8,8,0,0,0-2.78,1.54,6.34,6.34,0,0,1,.83.32l-.54,1.05-.54,1.06a5.78,5.78,0,0,0-1.47-.42,7.88,7.88,0,0,0-.54,1L33.68,48.3a1.17,1.17,0,0,0,.64,1.44l.33.15a7.8,7.8,0,0,0,7.57-.58,7.7,7.7,0,0,0,3.43-5.69h0a2.61,2.61,0,0,1,.11-.61,3.35,3.35,0,0,1,1.47-2.13,1.05,1.05,0,0,1,.7,0l1.93.54a5.16,5.16,0,0,1,2.19,1.28L55,45.57c.7.69,1.39.76,1.86.39a1.18,1.18,0,0,0,.21-1.66,1.27,1.27,0,0,0-.1-.12L53.72,41a7.44,7.44,0,0,0-3.22-1.87l-2.37-.67a1.13,1.13,0,0,0-.32,0,4.21,4.21,0,0,0-3.71,2.45,7.66,7.66,0,0,0-.73,2,2.32,2.32,0,0,0-.06.38l0,.21a5.36,5.36,0,0,1-2.38,3.94,5.52,5.52,0,0,1-4.63.64L40,37.8a5.74,5.74,0,0,1,3.57-3.24l5-1.6A5.79,5.79,0,0,1,52,32.9l5.23,1.48a12.7,12.7,0,0,0,6.8.23l.75-.29L74.57,55.2a8.11,8.11,0,0,1-3,2.86l1.89,1.63a10.63,10.63,0,0,0,2.32-2.07A2.77,2.77,0,0,0,78.11,59a2.67,2.67,0,0,0,1.11-.24h0l20.07-9.39a1.19,1.19,0,0,0,.68-1.13,1.14,1.14,0,0,0-.13-.47ZM79,56.22a1.2,1.2,0,0,1-.91,0,1.24,1.24,0,0,1-.68-.61l-11.77-25a1.32,1.32,0,0,1,0-1.22,1.29,1.29,0,0,1,.64-.58l18.23-8.3,12.7,27.1Z"/><path class="d" d="M40.4,35.21l.54-1.05a6.34,6.34,0,0,0-.83-.32,7.91,7.91,0,0,0-1.72,2,5.78,5.78,0,0,1,1.47.42Z"/></svg>