<svg xmlns="http://www.w3.org/2000/svg" viewBox="0 0 100 100"><defs><style>.a{fill:#e6e7e8;}.b{fill:none;}.c{fill:#21409a;}.d{fill:#ec008c;}</style></defs><polygon class="a" points="34.86 73.97 36.33 73.34 36.33 81.28 34.86 81.28 34.86 73.97"/><path class="a" d="M36.53,44.41v0A1.42,1.42,0,0,0,35.36,43a3.37,3.37,0,0,1-2.8-3.33,4.32,4.32,0,0,1,0-.62l-2-1a3,3,0,0,1-.85-.66,2.09,2.09,0,0,0-1.19,1.47,3.39,3.39,0,0,0,2.49,4.1l.21.05a1.4,1.4,0,0,1,1.17,1.39v0A17.45,17.45,0,0,0,49.9,61.88,18.13,18.13,0,0,0,52,61.76,17.5,17.5,0,0,1,36.53,44.41Z"/><path class="a" d="M37,39.19a1.82,1.82,0,0,0,2.43-.78,1.88,1.88,0,0,0,.19-.68L40,32.65H35.94l-.41,5.08a1.84,1.84,0,0,1-.17.64Z"/><path class="a" d="M47,68.72V64.49a20.05,20.05,0,0,1-4-1v5.26A17.73,17.73,0,0,0,52,70.06,17.39,17.39,0,0,1,47,68.72Z"/><path class="a" d="M43.55,72a20.24,20.24,0,0,1-2.12-.83l-2.27,1v9.15h4.05V72.13Z"/><path class="a" d="M32,77.66V75.18l-1.7.72a8.73,8.73,0,0,0-4.72,6.95V97.17h4.05V82.85A8.75,8.75,0,0,1,32,77.66Z"/><path class="b" d="M57.08,68.72v-5.3a20.29,20.29,0,0,1-14.16,0v5.26A17.87,17.87,0,0,0,57.08,68.72Z"/><polygon class="b" points="65.14 73.97 63.67 73.34 63.67 81.28 65.14 81.28 65.14 73.97"/><polygon class="b" points="36.33 73.34 34.86 73.97 34.86 81.28 36.33 81.28 36.33 73.34"/><path class="b" d="M60.84,72.13l-2.27-1a20.75,20.75,0,0,1-17.14,0l-2.27,1v9.15H60.84Z"/><path class="b" d="M65.19,12.69A20,20,0,0,0,60.33,8v.34a14.25,14.25,0,0,1-9.62,13.48,1.39,1.39,0,0,1-.9,0l-.29-.09A14.25,14.25,0,0,1,39.67,8.19V8a20,20,0,0,0-4.86,4.68,21.73,21.73,0,0,0-4.16,11.65h38.7A21.65,21.65,0,0,0,65.19,12.69Z"/><path class="b" d="M50.22,19A11.42,11.42,0,0,0,57.5,8.36V6.43a18.28,18.28,0,0,0-2.77-1,1.42,1.42,0,0,1-1-1.52l.11-1.09H46.21l.11,1.09a1.42,1.42,0,0,1-1,1.52,18.28,18.28,0,0,0-2.77,1V8.19A11.39,11.39,0,0,0,50.22,19ZM47.71,6.62h5.07a1.42,1.42,0,1,1,0,2.83H47.71a1.42,1.42,0,0,1,0-2.83Zm0,4.67h5.07a1.42,1.42,0,1,1,0,2.83H47.71a1.42,1.42,0,0,1,0-2.83Z"/><rect class="b" x="27.76" y="27.18" width="44.47" height="2.63"/><path class="b" d="M70.12,82.7V97.17h4.27V82.85a8.73,8.73,0,0,0-4.72-6.95L68,75.18v6.1h.74A1.41,1.41,0,0,1,70.12,82.7Z"/><path class="b" d="M67.29,84.11H32.71v13H67.29ZM37,87.43a1.42,1.42,0,1,1-2.83,0V86.14a1.42,1.42,0,1,1,2.83,0Zm28.81,0a1.42,1.42,0,1,1-2.83,0V86.14a1.42,1.42,0,1,1,2.83,0Z"/><path class="b" d="M29.88,82.7a1.41,1.41,0,0,1,1.41-1.42H32v-6.1l-1.7.72a8.73,8.73,0,0,0-4.72,6.95V97.16h4.27Z"/><path class="b" d="M66.82,34.34l.63,1.9.42-.39A.52.52,0,0,0,68,35.5l.2-2.85H66.32C66.47,33.22,66.63,33.78,66.82,34.34Z"/><path class="b" d="M31.86,35.39a.15.15,0,0,0,.08.11l.89.46.26-3.31H31.67Z"/><path class="b" d="M35.53,37.73a1.8,1.8,0,0,1-2.62,1.46L30.65,38a3,3,0,0,1-.85-.66,2.11,2.11,0,0,0-1.19,1.47,1.6,1.6,0,0,0-.05.21A3.38,3.38,0,0,0,31.31,43a1.42,1.42,0,0,1,1.17,1.4v0a17.47,17.47,0,1,0,34.94,0v0A1.42,1.42,0,0,1,68.59,43l.21,0a3.4,3.4,0,0,0,2.49-4.11,2.13,2.13,0,0,0-1.06-1.39,3.89,3.89,0,0,1-.43.48L68.21,39.4a1.75,1.75,0,0,1-1.22.49,1.63,1.63,0,0,1-.45-.06,1.78,1.78,0,0,1-1.27-1.18l-1.14-3.42c-.28-.84-.51-1.71-.72-2.58H35.94Z"/><path class="c" d="M64.41,84.72A1.41,1.41,0,0,0,63,86.14v1.29a1.42,1.42,0,1,0,2.83,0V86.14A1.41,1.41,0,0,0,64.41,84.72Z"/><path class="c" d="M35.59,84.72a1.41,1.41,0,0,0-1.41,1.42v1.29a1.42,1.42,0,1,0,2.83,0V86.14A1.41,1.41,0,0,0,35.59,84.72Z"/><path class="c" d="M24.2,100H75.8a1.41,1.41,0,0,0,1.42-1.42V82.67a11.56,11.56,0,0,0-6.32-9.32l-.07,0L59.92,68.66V62.09A20.34,20.34,0,0,0,70.23,45.46,6.24,6.24,0,0,0,74,38.16a5,5,0,0,0-3.11-3.51l.14-2H68.23L68,35.5a.52.52,0,0,1-.16.35l-.42.39-.63-1.9c-.19-.56-.35-1.12-.5-1.69H63.41c.21.87.44,1.74.72,2.58l1.14,3.42a1.78,1.78,0,0,0,1.27,1.18,1.63,1.63,0,0,0,.45.06,1.75,1.75,0,0,0,1.22-.49l1.59-1.48a3.89,3.89,0,0,0,.43-.48,2.13,2.13,0,0,1,1.06,1.39,3.4,3.4,0,0,1-2.49,4.11l-.21,0a1.42,1.42,0,0,0-1.17,1.4v0a17.47,17.47,0,1,1-34.94,0v0A1.42,1.42,0,0,0,31.31,43a3.38,3.38,0,0,1-2.75-3.93,1.6,1.6,0,0,1,.05-.21,2.11,2.11,0,0,1,1.19-1.47,3,3,0,0,0,.85.66l2.26,1.16a1.8,1.8,0,0,0,2.62-1.46l.41-5.08H33.09L32.83,36l-.89-.46a.15.15,0,0,1-.08-.11l-.19-2.74H28.83l.14,2a5,5,0,0,0-3.12,3.52,6.23,6.23,0,0,0,3.83,7.3,20.32,20.32,0,0,0,10.4,16.69v6.51L29.17,73.31l-.07,0a11.56,11.56,0,0,0-6.32,9.32V98.58A1.41,1.41,0,0,0,24.2,100ZM68,75.18l1.7.72a8.73,8.73,0,0,1,4.72,6.95V97.17H70.12V82.7a1.41,1.41,0,0,0-1.41-1.42H68Zm-4.3-1.84,1.47.63v7.31H63.67ZM42.92,63.46a20.29,20.29,0,0,0,14.16,0v5.3a17.87,17.87,0,0,1-14.16,0Zm-3.76,8.67,2.27-1a20.75,20.75,0,0,0,17.14,0l2.27,1v9.15H39.16ZM34.86,74l1.47-.63v7.94H34.86ZM32.71,84.11H67.29v13H32.71Zm-7.1-1.26a8.73,8.73,0,0,1,4.72-6.95l1.7-.72v6.1h-.74a1.41,1.41,0,0,0-1.41,1.42V97.16H25.61Z"/><path class="d" d="M31.57,31.13l.1,1.52h1.42l.13-1.53,2.82.23-.1,1.3H63.41c-.1-.43-.21-.87-.29-1.3l2.79-.53c.11.62.25,1.23.41,1.83h1.91l.1-1.52,2.83.2-.09,1.32h2.58a1.42,1.42,0,0,0,1.42-1.42V25.76a1.41,1.41,0,0,0-1.42-1.41H72.19A24.56,24.56,0,0,0,67.47,11,22.24,22.24,0,0,0,56.62,3.05l.16-1.49A1.42,1.42,0,0,0,55.51,0H44.63a1.41,1.41,0,0,0-1.41,1.42v.14l.16,1.49a22.28,22.28,0,0,0-10.85,8,24.66,24.66,0,0,0-4.72,13.33H26.35a1.41,1.41,0,0,0-1.42,1.42v5.46a1.41,1.41,0,0,0,1.42,1.42h2.48l-.09-1.32ZM42.5,6.43a18.28,18.28,0,0,1,2.77-1,1.42,1.42,0,0,0,1-1.52l-.11-1.09h7.58l-.11,1.09a1.42,1.42,0,0,0,1,1.52,18.28,18.28,0,0,1,2.77,1V8.36A11.42,11.42,0,0,1,50.22,19,11.39,11.39,0,0,1,42.5,8.19ZM34.81,12.7A20,20,0,0,1,39.67,8v.17a14.25,14.25,0,0,0,9.85,13.57l.29.09a1.39,1.39,0,0,0,.9,0A14.25,14.25,0,0,0,60.33,8.36V8a20,20,0,0,1,4.86,4.67,21.65,21.65,0,0,1,4.16,11.66H30.65A21.73,21.73,0,0,1,34.81,12.7Zm-7,14.48H72.24v2.64H27.76Z"/><polygon class="d" points="33.22 31.12 33.09 32.65 35.94 32.65 36.04 31.34 33.22 31.12"/><polygon class="d" points="31.57 31.13 28.74 31.33 28.83 32.65 31.67 32.65 31.57 31.13"/><polygon class="d" points="68.33 31.13 68.23 32.65 71.07 32.65 71.16 31.33 68.33 31.13"/><path class="d" d="M63.12,31.35c.08.43.19.87.29,1.3h2.91c-.16-.6-.3-1.21-.41-1.83Z"/><path class="d" d="M47.71,14.12h5.07a1.42,1.42,0,1,0,0-2.83H47.71a1.42,1.42,0,0,0,0,2.83Z"/><path class="d" d="M47.71,9.45h5.07a1.42,1.42,0,1,0,0-2.83H47.71a1.42,1.42,0,0,0,0,2.83Z"/></svg>