<svg xmlns="http://www.w3.org/2000/svg" viewBox="0 0 100 100"><defs><style>.a{fill:#e6e7e8;}.b{fill:none;}.c{fill:#21409a;}.d{fill:#ec008c;}</style></defs><path class="a" d="M17.43,94.37A13.26,13.26,0,0,1,20,73.84l7.94-4.93,3.48-2.12a20.34,20.34,0,0,1,7-2.05A20.32,20.32,0,0,0,23.25,66l-3.48,2.11L1.22,79.62a32.55,32.55,0,0,0,11.6,17l.36.27,4.37-2.44Z"/><path class="b" d="M81.05,74,70.84,77.28A10.53,10.53,0,0,1,72,80.8l14.15-4.58A4.83,4.83,0,0,0,81.05,74Z"/><path class="b" d="M44.93,23.68l2.9,2.89a13.22,13.22,0,0,0-12.11-10A13.22,13.22,0,0,0,46.22,28.4l-3-3h0a1.22,1.22,0,1,1,1.74-1.71Z"/><path class="b" d="M52.43,17.44l1-3.13a1.22,1.22,0,0,1,2.31.77l-1.37,4.11a12.83,12.83,0,0,0,5.35-5.91,12.39,12.39,0,0,0,.44-9,12.88,12.88,0,0,0-6.77,6.62h0A12.4,12.4,0,0,0,52.43,17.44Z"/><path class="b" d="M57,59.6a28,28,0,0,0-4.79-2.19A18.72,18.72,0,0,0,41.32,57l-.35.09c-3.18,1.06-4.82,2.75-6.46,5.65a21.38,21.38,0,0,1,10.56,4l1.12.82a1.22,1.22,0,1,1-1.43,2l-1.13-.82A19,19,0,0,0,32.53,65a19.26,19.26,0,0,0-8.69,2l-3.43,2.09-17.76,11A31.53,31.53,0,0,0,13.29,95.47L26.59,88a.88.88,0,0,1,.2-.09,8,8,0,0,1,5.9.27L50.1,94.83a21.32,21.32,0,0,0,2.69.81,20.46,20.46,0,0,0,12.86-1.36l31.49-14.1A6.12,6.12,0,0,0,90,77.54L72.06,83.35c0,.25-.06.5-.11.74a.13.13,0,0,1,0,.06,1.22,1.22,0,0,1-1.46.91L60.32,82.73a49.81,49.81,0,0,0-9.09-1.23h0a1.22,1.22,0,1,1,.11-2.43,52.75,52.75,0,0,1,9.53,1.28l8.82,2a7.85,7.85,0,0,0-6.45-7.87l-12-2.19a15,15,0,0,1-2.28-.6h0a1.22,1.22,0,1,1,.79-2.3,14.26,14.26,0,0,0,1.92.5l12,2.19a10.3,10.3,0,0,1,5.67,3.1l4.32-1.4-9.32-8.75A40.44,40.44,0,0,0,57,59.6ZM42.58,61.78H40.33a1.22,1.22,0,0,1,0-2.43h2.25a1.22,1.22,0,1,1,0,2.43Zm4.56,3.11H45.36a1.22,1.22,0,0,1,0-2.44h1.78a1.22,1.22,0,0,1,0,2.44Zm1.93-5.14H47.2a1.22,1.22,0,0,1,0-2.44h1.87a1.22,1.22,0,0,1,0,2.44Zm4.7,3.68H52A1.22,1.22,0,0,1,52,61h1.76a1.22,1.22,0,0,1,0,2.44Zm6.43,2.11H58.39a1.22,1.22,0,0,1,0-2.44H60.2a1.22,1.22,0,1,1,0,2.44Z"/><path class="b" d="M54.25,40.32a1.22,1.22,0,1,1,1.18,2.13l-3.74,2.1A13.22,13.22,0,0,0,65.06,36h0a13.35,13.35,0,0,0-14.7,6.48l3.88-2.18Z"/><path class="c" d="M89.25,75.22l-.71.23a7.31,7.31,0,0,0-8.2-3.81h0l-1.61.52a9.91,9.91,0,0,0-6.94-3.49l5.07,4.76-1.66,1.78-1.51-1.41-4.32,1.4a10.3,10.3,0,0,0-5.67-3.1l-12-2.19a14.26,14.26,0,0,1-1.92-.5,1.22,1.22,0,1,0-.79,2.3h0a15,15,0,0,0,2.28.6l12,2.19a7.85,7.85,0,0,1,6.45,7.87l-8.82-2a52.75,52.75,0,0,0-9.53-1.28,1.22,1.22,0,1,0-.11,2.43h0a49.81,49.81,0,0,1,9.09,1.23l10.16,2.33a1.22,1.22,0,0,0,1.46-.91.13.13,0,0,0,0-.06c0-.24.08-.49.11-.74L90,77.54a6.12,6.12,0,0,1,7.14,2.64L65.65,94.28a20.46,20.46,0,0,1-12.86,1.36,21.32,21.32,0,0,1-2.69-.81L32.69,88.22a8,8,0,0,0-5.9-.27.88.88,0,0,0-.2.09l-13.3,7.43A31.53,31.53,0,0,1,2.65,80.16l17.76-11L23.84,67a19.26,19.26,0,0,1,8.69-2,19,19,0,0,1,11.1,3.68l1.13.82a1.22,1.22,0,1,0,1.43-2l-1.12-.82a21.38,21.38,0,0,0-10.56-4c-.29.51-.58,1.05-.88,1.65,0,0,0,0,0,0l0,.08L31.44,63.3v0l0,0,.33-.65a21.65,21.65,0,0,0-9.09,2.27l-.08,0-3.49,2.12L.58,78.58A1.21,1.21,0,0,0,.05,80a33.93,33.93,0,0,0,12,17.67l.37.27a1.21,1.21,0,0,0,1.33.09l13.9-7.76a5.58,5.58,0,0,1,4,.23l.07,0L49.24,97.1a22.53,22.53,0,0,0,3,.91,21.69,21.69,0,0,0,4.89.55,23.51,23.51,0,0,0,9.52-2L99.28,81.89a1.21,1.21,0,0,0,.64-1.54A8.56,8.56,0,0,0,89.25,75.22ZM72,80.8a10.53,10.53,0,0,0-1.18-3.52L81.05,74a4.83,4.83,0,0,1,5.12,2.25Z"/><path class="d" d="M32.56,62.6c.65,0,1.31,0,1.95.12,1.64-2.9,3.28-4.59,6.46-5.65l.35-.09a18.72,18.72,0,0,1,10.89.43A28,28,0,0,1,57,59.6a40.44,40.44,0,0,1,7.34,5.46l9.32,8.75L76.14,73l-4.42-4.32h0L66,63.29a42.79,42.79,0,0,0-3.73-3.12,41.76,41.76,0,0,0-4.06-2.67A29.94,29.94,0,0,0,53,55.11a21.2,21.2,0,0,0-3.42-.88l-.43-.07-.07-7.53a16.59,16.59,0,0,0,3.52.4,15.6,15.6,0,0,0,15-11l.16-.53A1.23,1.23,0,0,0,67,34h0l-.55-.16A15.83,15.83,0,0,0,49.08,40a39.2,39.2,0,0,1,1.61-9.56,29.92,29.92,0,0,1,5.51-3.75l6.25,1.24A1.22,1.22,0,0,0,63,25.5h0L60.49,25a10.87,10.87,0,0,1,3-.28,1.22,1.22,0,0,0,.13-2.44,16.57,16.57,0,0,0-8.16,2,28.89,28.89,0,0,0-3.43,2l1.31-3.93A15.31,15.31,0,0,0,62,14.27a14.77,14.77,0,0,0,.26-11.54L62,2.21a1.22,1.22,0,0,0-1.56-.69l-.53.2A15.35,15.35,0,0,0,51.2,9.87a14.82,14.82,0,0,0-.26,11.54l.09.22L49.91,25A15.66,15.66,0,0,0,35,14.1h-.56a1.22,1.22,0,0,0-1.22,1.22v.16A15.64,15.64,0,0,0,48,31.08a41.85,41.85,0,0,0-1.18,6.66,36.14,36.14,0,0,0-5.66-2.68L41,35l-1.46-3.08a1.22,1.22,0,0,0-2.2,1l.49,1a36.35,36.35,0,0,0-4.25-.86,1.22,1.22,0,0,0-.37,2.41h0a34.3,34.3,0,0,1,6.47,1.57l.56.2a33.49,33.49,0,0,1,6.34,3.16c0,.39,0,.77,0,1.16L46.72,54a21,21,0,0,0-6,.67l-.39.1-.08,0c-4.31,1.43-6.37,3.9-8.45,7.88l.56,0ZM65.06,36h0a13.22,13.22,0,0,1-13.37,8.52l3.74-2.1a1.22,1.22,0,1,0-1.18-2.13h0l-3.88,2.18A13.35,13.35,0,0,1,65.06,36ZM53.43,10.86A12.88,12.88,0,0,1,60.2,4.24a12.39,12.39,0,0,1-.44,9,12.83,12.83,0,0,1-5.35,5.91l1.37-4.11a1.22,1.22,0,0,0-2.31-.77l-1,3.13a12.4,12.4,0,0,1,1-6.58ZM43.19,25.39h0l3,3a13.22,13.22,0,0,1-10.5-11.85,13.22,13.22,0,0,1,12.11,10l-2.9-2.89a1.22,1.22,0,1,0-1.74,1.71Z"/><path class="c" d="M31.43,63.32v0l2.14,1.18,0-.08s0,0,0,0c.3-.6.59-1.14.88-1.65-.64-.07-1.3-.11-1.95-.12h-.21l-.56,0-.33.65Z"/><path class="c" d="M76.14,73l-2.48.81,1.51,1.41,1.66-1.78-5.07-4.76h0Z"/><path class="d" d="M42.58,59.35H40.33a1.22,1.22,0,0,0,0,2.43h2.25a1.22,1.22,0,1,0,0-2.43Z"/><path class="d" d="M49.07,57.31H47.2a1.22,1.22,0,0,0,0,2.44h1.87a1.22,1.22,0,0,0,0-2.44Z"/><path class="d" d="M47.14,62.45H45.36a1.22,1.22,0,0,0,0,2.44h1.78a1.22,1.22,0,0,0,0-2.44Z"/><path class="d" d="M60.2,63.1H58.39a1.22,1.22,0,0,0,0,2.44H60.2a1.22,1.22,0,1,0,0-2.44Z"/><path class="d" d="M53.77,61H52a1.22,1.22,0,0,0,0,2.44h1.76a1.22,1.22,0,0,0,0-2.44Z"/></svg>