<svg xmlns="http://www.w3.org/2000/svg" viewBox="0 0 100 100"><defs><style>.a{fill:#e6e7e8;}.b{fill:none;}.c{fill:#21409a;}.d{fill:#ec008c;}</style></defs><path class="a" d="M44.92,17.26,8.09,76.41a6,6,0,0,0,5.09,9.15h6a6,6,0,0,1-5.09-9.15L50.91,17.26a5.87,5.87,0,0,1,2.09-2,6,6,0,0,0-8.08,2Z"/><path class="b" d="M59.15,14.73a10.78,10.78,0,0,0-18.3,0L4,73.88a10.77,10.77,0,0,0,9.15,16.47H86.83a10.78,10.78,0,0,0,9.42-5.54h0A10.8,10.8,0,0,0,96,73.88Zm27.68,72H31.25a1.2,1.2,0,1,1,0-2.4H86.73A4.88,4.88,0,0,0,90.94,82a4.75,4.75,0,0,0,0-5L54.07,17.9a4.72,4.72,0,0,0-1.54-1.54,4.79,4.79,0,0,0-6.6,1.54L9.11,77a4.75,4.75,0,0,0,0,5,4.9,4.9,0,0,0,4.22,2.33h10a1.2,1.2,0,0,1,0,2.4H13.18a7.19,7.19,0,0,1-6.1-11L43.9,16.63a7.19,7.19,0,0,1,12.2,0L92.93,75.77a7.2,7.2,0,0,1-6.1,11Zm-63-22.49a1.2,1.2,0,0,1-2-1.27l10.4-16.7a1.21,1.21,0,0,1,1.65-.39h0a1.2,1.2,0,0,1,.39,1.65Zm10.88-22,1.62-2.6a1.2,1.2,0,0,1,2,1.27l-1.61,2.6a1.21,1.21,0,0,1-1,.56,1.16,1.16,0,0,1-.63-.18A1.19,1.19,0,0,1,34.68,42.25ZM51.19,66.94a1.2,1.2,0,0,1-2.38,0L46.08,41.46a3.94,3.94,0,1,1,7.84,0Zm2.21,6.6a3.23,3.23,0,0,1-3.23,3.23h0a3.24,3.24,0,1,1,3.23-3.23Z"/><path class="b" d="M49.33,73.54a.84.84,0,1,0,.84-.84A.84.84,0,0,0,49.33,73.54Z"/><path class="b" d="M48.85,40h0a1.5,1.5,0,0,0-.39,1.2L50,55.58l1.54-14.37A1.55,1.55,0,0,0,48.85,40Z"/><path class="c" d="M61.18,13.47A13.16,13.16,0,0,0,43,9.25a13,13,0,0,0-4.22,4.22L2,72.61A13.17,13.17,0,0,0,13.18,92.75H86.83A13.18,13.18,0,0,0,98,72.61ZM96.25,84.81h0a10.78,10.78,0,0,1-9.42,5.54H13.18A10.77,10.77,0,0,1,4,73.88L40.85,14.73a10.78,10.78,0,0,1,18.3,0L96,73.88A10.8,10.8,0,0,1,96.25,84.81Z"/><path class="c" d="M35.7,44.08a1.21,1.21,0,0,0,1-.56l1.61-2.6a1.2,1.2,0,0,0-2-1.27l-1.62,2.6a1.19,1.19,0,0,0,.39,1.65A1.16,1.16,0,0,0,35.7,44.08Z"/><path class="c" d="M33.81,45.91h0a1.21,1.21,0,0,0-1.65.39L21.76,63a1.2,1.2,0,0,0,2,1.27L34.2,47.56A1.2,1.2,0,0,0,33.81,45.91Z"/><path class="c" d="M56.1,16.63a7.19,7.19,0,0,0-12.2,0L7.08,75.77a7.19,7.19,0,0,0,6.1,11H23.26a1.2,1.2,0,0,0,0-2.4h-10A4.9,4.9,0,0,1,9.06,82a4.75,4.75,0,0,1,0-5L45.93,17.9a4.79,4.79,0,0,1,6.6-1.54,4.72,4.72,0,0,1,1.54,1.54L90.89,77a4.75,4.75,0,0,1,0,5,4.88,4.88,0,0,1-4.21,2.33H31.25a1.2,1.2,0,1,0,0,2.4H86.83a7.2,7.2,0,0,0,6.1-11Z"/><path class="d" d="M50.42,37.12a3.94,3.94,0,0,0-4.34,4.34l2.73,25.48a1.2,1.2,0,0,0,2.38,0l2.73-25.48A3.93,3.93,0,0,0,50.42,37.12ZM50,55.58,48.46,41.21a1.5,1.5,0,0,1,.39-1.2h0a1.55,1.55,0,0,1,2.69,1.2Z"/><path class="d" d="M46.93,73.54a3.24,3.24,0,0,0,3.24,3.23h0a3.24,3.24,0,1,0-3.24-3.23Zm4.08,0a.84.84,0,1,1-1.68,0,.84.84,0,0,1,1.68,0Z"/></svg>