<svg xmlns="http://www.w3.org/2000/svg" viewBox="0 0 100 100"><defs><style>.a{fill:#e6e7e8;}.b{fill:none;}.c{fill:#21409a;}.d{fill:#ec008c;}</style></defs><path class="a" d="M26.32,70.53,13.23,76.94l-1.14.51a23.4,23.4,0,0,0-7,4.9c-.78.79-1.53,1.61-2.19,2.4s-1.25,1.52-1.7,2.14l6.89-.1c.44-.6,1-1.31,1.63-2s1.41-1.61,2.19-2.4a23.4,23.4,0,0,1,7-4.9L20,76.94l8-3.89a22.17,22.17,0,0,1-1.63-2.45.25.25,0,0,1,0-.07Z"/><path class="a" d="M55.38,59,51,58.55l-.78,3.18Z"/><path class="b" d="M49.12,66.05a1.21,1.21,0,0,1-2.34-.59l3.09-12.52L31,48.14,27.09,63.82c-.34,1.54.12,3.42,1.35,5.58A24.75,24.75,0,0,0,34,75.81,30.5,30.5,0,0,0,39.86,74c2.46-1.07,5.52-2.86,6.14-5.32a1.21,1.21,0,0,1,2.34.59c-1.67,6.59-13.75,9-14.69,9h0c-.26,0-.91-.07-3.25-2.45A27.52,27.52,0,0,1,27,71.55L13.75,78h0l-1.13.52A22,22,0,0,0,6,83.19c-.74.75-1.48,1.56-2.14,2.33a1.47,1.47,0,0,1-.1.13l89.8-1.29a4.24,4.24,0,0,0,3.88-3.11,4.39,4.39,0,0,0-1.64-4.91l-3.94-2.88a28.5,28.5,0,0,0-13.54-5.3l-4-.45A4.51,4.51,0,0,1,73,67.35a4.37,4.37,0,0,1-1.13-.73,24.26,24.26,0,0,0-13.63-6.06l-7.54-.83L49.12,66Zm-5.93-.65-.31,1.27h0a1.19,1.19,0,0,1-1.46.87,1.21,1.21,0,0,1-.87-1.46l.31-1.27h0a1.21,1.21,0,0,1,2.34.58Zm2.66-10.15-1.84,7v0a1.2,1.2,0,1,1-2.32-.63l1.83-7v0a1.21,1.21,0,0,1,2.33.64ZM17.43,83.67H11.94a1.21,1.21,0,0,1,0-2.41h5.49a1.21,1.21,0,1,1,0,2.41Zm10.24-1.2a1.21,1.21,0,0,1-2.41,0V81a1.21,1.21,0,0,1,2.41,0Zm-1.2-4.33H24.18a1.21,1.21,0,0,1,0-2.41h2.29a1.21,1.21,0,0,1,0,2.41Zm67.29,1h1a1.21,1.21,0,0,1,0,2.41h-1a1.21,1.21,0,1,1,0-2.41Zm-7.24-5.3h2a1.2,1.2,0,0,1,0,2.4h-2a1.2,1.2,0,0,1,0-2.4ZM81,78.1a1.21,1.21,0,0,1-1.2,1.21H77.41a1.21,1.21,0,0,1,0-2.41h2.41A1.2,1.2,0,0,1,81,78.1Zm-6.21-7.52L77.09,70a1.2,1.2,0,1,1,.64,2.32l-2.29.62A1.19,1.19,0,0,1,74,72.06,1.2,1.2,0,0,1,74.81,70.58ZM37.87,83.67H34.4a1.21,1.21,0,1,1,0-2.41h3.47a1.21,1.21,0,0,1,0,2.41Zm19.9-4.36h-1a1.21,1.21,0,0,1,0-2.41h1a1.21,1.21,0,0,1,0,2.41Zm9.88-12.7a1.2,1.2,0,0,1,1.47.86l.33,1.22a1.06,1.06,0,0,1,0,.31,1.21,1.21,0,0,1-2.37.31l-.32-1.22v0A1.19,1.19,0,0,1,67.65,66.61ZM67.4,79.83h1.9a1.2,1.2,0,1,1,0,2.4H67.4a1.2,1.2,0,0,1,0-2.4ZM61,71.74A1.21,1.21,0,0,1,59.79,73h-3a1.21,1.21,0,0,1,0-2.41h3A1.21,1.21,0,0,1,61,71.74Zm-7.76-8.59a1.21,1.21,0,0,1,1.6-.58l2.94,1.33a1.21,1.21,0,0,1,.59,1.6,1.19,1.19,0,0,1-1.59.59l-2.94-1.33h0A1.21,1.21,0,0,1,53.24,63.15ZM50,80.05a1.19,1.19,0,0,1-1.47.84l-2.21-.6A1.2,1.2,0,0,1,46.94,78l2.21.6A1.2,1.2,0,0,1,50,80.05Z"/><path class="b" d="M49,14.44a3.61,3.61,0,0,0-3.86,1.41l6.7,1.7A3.9,3.9,0,0,0,49,14.44Z"/><polygon class="b" points="51.61 19.96 44.37 18.13 43.76 20.66 51.01 22.5 51.61 19.96"/><polygon class="b" points="50.45 24.84 43.2 23 42.6 25.53 49.84 27.37 50.45 24.84"/><polygon class="b" points="45.27 36.06 42.59 35.38 39.52 47.84 42.21 48.51 45.27 36.06"/><polygon class="b" points="49.28 29.71 42.04 27.88 40.95 32.48 48.19 34.31 49.28 29.71"/><path class="c" d="M97.17,74.4h0l-3.93-2.88a30.94,30.94,0,0,0-14.7-5.75l-4-.46a1.67,1.67,0,0,1-.58-.16,1.91,1.91,0,0,1-.51-.32,26.72,26.72,0,0,0-15-6.67l-7.22-.79-.58,2.36,7.54.83a24.26,24.26,0,0,1,13.63,6.06,4.37,4.37,0,0,0,1.13.73,4.51,4.51,0,0,0,1.29.36l4,.45a28.5,28.5,0,0,1,13.54,5.3l3.94,2.88a4.39,4.39,0,0,1,1.64,4.91,4.24,4.24,0,0,1-3.88,3.11L3.71,85.65a1.47,1.47,0,0,0,.1-.13c.66-.77,1.4-1.58,2.14-2.33a22,22,0,0,1,6.65-4.64L13.73,78h0L27,71.55c-.2-.31-.41-.63-.6-1s-.42-.76-.6-1.14l-13,6.39-1.12.51a24.51,24.51,0,0,0-7.36,5.15C3.45,82.3,2.68,83.15,2,84S.71,85.51.23,86.19A1.2,1.2,0,0,0,.5,87.87a1.26,1.26,0,0,0,.7.22h0l92.35-1.32h.05a6.68,6.68,0,0,0,6.08-4.84A6.81,6.81,0,0,0,97.17,74.4Z"/><path class="c" d="M17.43,81.26H11.94a1.21,1.21,0,0,0,0,2.41h5.49a1.21,1.21,0,1,0,0-2.41Z"/><path class="c" d="M26.47,75.73H24.18a1.21,1.21,0,0,0,0,2.41h2.29a1.21,1.21,0,0,0,0-2.41Z"/><path class="c" d="M37.87,81.26H34.4a1.21,1.21,0,1,0,0,2.41h3.47a1.21,1.21,0,0,0,0-2.41Z"/><path class="c" d="M57.77,76.9h-1a1.21,1.21,0,0,0,0,2.41h1a1.21,1.21,0,0,0,0-2.41Z"/><path class="c" d="M55.59,71.74A1.21,1.21,0,0,0,56.79,73h3a1.21,1.21,0,1,0,0-2.41h-3A1.2,1.2,0,0,0,55.59,71.74Z"/><path class="c" d="M66.8,68.09l.32,1.22A1.21,1.21,0,0,0,69.49,69a1.06,1.06,0,0,0,0-.31l-.33-1.22a1.2,1.2,0,0,0-2.33.6Z"/><path class="c" d="M67.4,82.23h1.9a1.2,1.2,0,1,0,0-2.4H67.4a1.2,1.2,0,0,0,0,2.4Z"/><path class="c" d="M93.76,81.55h1a1.21,1.21,0,0,0,0-2.41h-1a1.21,1.21,0,1,0,0,2.41Z"/><path class="c" d="M86.52,76.24h2a1.2,1.2,0,0,0,0-2.4h-2a1.2,1.2,0,0,0,0,2.4Z"/><path class="c" d="M75.44,72.9l2.29-.62A1.2,1.2,0,1,0,77.09,70l-2.28.62A1.2,1.2,0,0,0,74,72.06,1.19,1.19,0,0,0,75.44,72.9Z"/><path class="c" d="M26.47,79.83A1.21,1.21,0,0,0,25.26,81v1.44a1.21,1.21,0,0,0,2.41,0V81A1.2,1.2,0,0,0,26.47,79.83Z"/><path class="c" d="M53.83,64.75h0l2.94,1.33a1.19,1.19,0,0,0,1.59-.59,1.21,1.21,0,0,0-.59-1.6l-2.94-1.33a1.2,1.2,0,1,0-1,2.18Z"/><path class="c" d="M45.47,78.82a1.19,1.19,0,0,0,.84,1.47l2.21.6A1.19,1.19,0,0,0,50,80.05a1.2,1.2,0,0,0-.84-1.48L46.94,78A1.19,1.19,0,0,0,45.47,78.82Z"/><path class="c" d="M76.21,78.1a1.21,1.21,0,0,0,1.2,1.21h2.41a1.21,1.21,0,0,0,0-2.41H77.41A1.2,1.2,0,0,0,76.21,78.1Z"/><path class="d" d="M42.31,64a1.21,1.21,0,0,0-1.46.87h0l-.31,1.27a1.21,1.21,0,0,0,.87,1.46,1.19,1.19,0,0,0,1.46-.87h0l.31-1.27A1.2,1.2,0,0,0,42.31,64Z"/><path class="d" d="M45,53.77a1.2,1.2,0,0,0-1.48.84v0l-1.83,7a1.2,1.2,0,1,0,2.32.63v0l1.84-7A1.21,1.21,0,0,0,45,53.77Z"/><path class="d" d="M28,71.06l0,0-1,.47a27.52,27.52,0,0,0,3.42,4.26c2.34,2.38,3,2.43,3.25,2.45h0c.94,0,13-2.45,14.69-9A1.21,1.21,0,0,0,46,68.63c-.62,2.46-3.68,4.25-6.14,5.32A30.5,30.5,0,0,1,34,75.81a24.75,24.75,0,0,1-5.51-6.41c-1.23-2.16-1.69-4-1.35-5.58L31,48.14l18.92,4.8L46.78,65.46a1.21,1.21,0,0,0,2.34.59v0l1.55-6.3-1.05-.11h0l.27-2.39h0l1.36.15,1.24-5a1.2,1.2,0,0,0-.88-1.45l-7.07-1.79,3.07-12.46,1.17.3.3,0a1.21,1.21,0,0,0,1.17-.92l4.09-17.89a6.27,6.27,0,0,0-4.71-6.07,6,6,0,0,0-7.3,4.23l-4,16.75a1.2,1.2,0,0,0,.88,1.44l1,.27L37.19,47.24l-6.82-1.72a1.2,1.2,0,0,0-1.47.87h0L24.75,63.26v0a9.45,9.45,0,0,0,1,6.18l1.14-.55ZM49,14.44a3.9,3.9,0,0,1,2.84,3.11l-6.7-1.7A3.61,3.61,0,0,1,49,14.44Zm-4.67,3.69L51.61,20,51,22.5l-7.25-1.84ZM43.2,23l7.25,1.84-.61,2.53L42.6,25.53ZM42,27.88l7.24,1.83-1.09,4.6-7.25-1.83Zm.55,7.5,2.69.68L42.21,48.51l-2.69-.68Z"/><polygon class="d" points="49.87 57.22 49.6 59.61 49.62 59.62 50.67 59.73 51.25 57.37 49.89 57.23 49.87 57.22"/><path class="d" d="M27,71.55l1-.47,0,0L26.9,68.91l-1.14.55q.27.57.6,1.14C26.55,70.92,26.76,71.24,27,71.55Z"/></svg>