<svg xmlns="http://www.w3.org/2000/svg" viewBox="0 0 100 100"><defs><style>.a{fill:#e6e7e8;}.b{fill:none;}.c{fill:#21409a;}.d{fill:#ec008c;}</style></defs><path class="a" d="M32.36,68.61a40.77,40.77,0,0,1-8.77-13.9,38.14,38.14,0,0,1-2.28-15.55c1.2-18,14.57-34.1,33.48-36.45A38.37,38.37,0,0,0,50,2.42c-21.4,0-37,17.25-38.27,36.76A37.94,37.94,0,0,0,14,54.73a41,41,0,0,0,8.77,13.9L50,97.63l4.79-5.11Z"/><path class="b" d="M50,95.18,76,67.47a39.29,39.29,0,0,0,8.43-13.34,36.26,36.26,0,0,0,2.2-14.88A38.53,38.53,0,0,0,75.5,14.61a36,36,0,0,0-51,0A38.48,38.48,0,0,0,13.37,39.25a35.75,35.75,0,0,0,2.18,14.88A39.13,39.13,0,0,0,24,67.47ZM50,20.3a18.38,18.38,0,1,1-18,18.38A18.19,18.19,0,0,1,50,20.3Z"/><path class="b" d="M50,53.76A14.89,14.89,0,0,0,64.64,38.68a14.65,14.65,0,1,0-29.29,0A14.89,14.89,0,0,0,50,53.76Z"/><path class="c" d="M48.79,98.72a1.67,1.67,0,0,0,1.21.53h0a1.59,1.59,0,0,0,1.17-.52l27.23-29a42.27,42.27,0,0,0,9.12-14.45A38.87,38.87,0,0,0,89.91,39,41.85,41.85,0,0,0,77.84,12.3a39.34,39.34,0,0,0-55.69,0A41.8,41.8,0,0,0,10.08,39a39.5,39.5,0,0,0,2.37,16.22,42.21,42.21,0,0,0,9.12,14.46ZM13.37,39.25A38.48,38.48,0,0,1,24.49,14.62a36,36,0,0,1,51,0A38.53,38.53,0,0,1,86.62,39.25a36.26,36.26,0,0,1-2.2,14.88A39.29,39.29,0,0,1,76,67.47L50,95.18,24,67.47a39.13,39.13,0,0,1-8.43-13.34A35.75,35.75,0,0,1,13.37,39.25Z"/><path class="d" d="M50,57.05a18.38,18.38,0,1,0-18-18.37A18.18,18.18,0,0,0,50,57.05ZM50,23.6A14.88,14.88,0,0,1,64.64,38.68a14.65,14.65,0,1,1-29.29,0A14.88,14.88,0,0,1,50,23.6Z"/></svg>