<?xml version="1.0" encoding="UTF-8"?>
<svg xmlns="http://www.w3.org/2000/svg" xmlns:xlink="http://www.w3.org/1999/xlink" width="841.89pt" height="595.28pt" viewBox="0 0 841.89 595.28" version="1.1">
<g id="surface1">
<path style=" stroke:none;fill-rule:nonzero;fill:rgb(26.670837%,25.335693%,25.666809%);fill-opacity:1;" d="M 407.785156 248.921875 L 377.351562 279.355469 L 346.921875 248.921875 Z M 407.785156 248.921875 "/>
<path style=" stroke:none;fill-rule:nonzero;fill:rgb(26.670837%,25.335693%,25.666809%);fill-opacity:1;" d="M 346.929688 243.523438 L 377.363281 213.089844 L 407.792969 243.523438 Z M 346.929688 243.523438 "/>
<path style=" stroke:none;fill-rule:nonzero;fill:rgb(26.670837%,25.335693%,25.666809%);fill-opacity:1;" d="M 409.476562 241.921875 L 379.074219 211.460938 L 409.535156 181.058594 Z M 409.476562 241.921875 "/>
<path style=" stroke:none;fill-rule:nonzero;fill:rgb(26.670837%,25.335693%,25.666809%);fill-opacity:1;" d="M 414.828125 181.058594 L 445.289062 211.460938 L 414.886719 241.921875 Z M 414.828125 181.058594 "/>
<path style=" stroke:none;fill-rule:nonzero;fill:rgb(26.670837%,25.335693%,25.666809%);fill-opacity:1;" d="M 414.886719 250.609375 L 445.320312 281.039062 L 414.886719 311.472656 Z M 414.886719 250.609375 "/>
<path style=" stroke:none;fill-rule:nonzero;fill:rgb(26.670837%,25.335693%,25.666809%);fill-opacity:1;" d="M 409.476562 311.472656 L 379.046875 281.039062 L 409.476562 250.609375 Z M 409.476562 311.472656 "/>
<path style=" stroke:none;fill-rule:nonzero;fill:rgb(26.670837%,25.335693%,25.666809%);fill-opacity:1;" d="M 477.429688 248.921875 L 447 279.355469 L 416.566406 248.921875 Z M 477.429688 248.921875 "/>
<path style=" stroke:none;fill-rule:nonzero;fill:rgb(26.670837%,25.335693%,25.666809%);fill-opacity:1;" d="M 416.566406 243.523438 L 447 213.089844 L 477.429688 243.523438 Z M 416.566406 243.523438 "/>
<path style=" stroke:none;fill-rule:nonzero;fill:rgb(26.670837%,25.335693%,25.666809%);fill-opacity:1;" d="M 548.351562 366.609375 L 525.617188 345.757812 L 545.945312 328.410156 L 551.417969 328.410156 L 551.417969 324.46875 L 533.414062 324.46875 L 533.414062 328.367188 L 540.074219 328.367188 L 520.273438 345.058594 L 520.710938 301.601562 L 505.730469 301.601562 L 505.730469 305.675781 L 515.847656 305.675781 L 515.457031 366.609375 L 507.964844 366.609375 L 507.964844 370.550781 L 527.371094 370.550781 L 527.371094 366.609375 L 520.273438 366.609375 L 520.230469 346.984375 L 542.089844 366.609375 L 535.605469 366.609375 L 535.605469 370.550781 L 553.347656 370.550781 L 553.347656 366.609375 Z M 492.773438 310.277344 C 494 310.277344 495.019531 309.839844 495.839844 308.960938 C 496.65625 308.085938 497.066406 306.886719 497.066406 305.371094 C 497.066406 304.171875 496.671875 303.179688 495.882812 302.390625 C 495.09375 301.601562 494.117188 301.207031 492.949219 301.207031 C 491.691406 301.207031 490.640625 301.636719 489.792969 302.5 C 488.945312 303.363281 488.523438 304.464844 488.523438 305.808594 C 488.523438 307.089844 488.929688 308.160156 489.75 309.003906 C 490.566406 309.851562 491.574219 310.277344 492.773438 310.277344 M 496.277344 324.46875 L 482.082031 324.46875 L 482.082031 328.410156 L 491.5 328.410156 L 490.886719 366.609375 L 482.566406 366.609375 L 482.566406 370.550781 L 503.589844 370.550781 L 503.589844 366.609375 L 495.707031 366.609375 Z M 466.453125 348.5625 C 456.40625 348.796875 450.082031 349.511719 447.484375 350.710938 C 443.980469 352.316406 442.226562 354.929688 442.226562 358.550781 C 442.226562 361.121094 443.113281 363.238281 444.878906 364.902344 C 446.644531 366.566406 449.089844 367.398438 452.214844 367.398438 C 455.28125 367.398438 457.953125 366.546875 460.234375 364.835938 C 462.511719 363.128906 464.082031 361.078125 464.941406 358.679688 C 465.800781 356.289062 466.304688 352.914062 466.453125 348.5625 M 470.527344 366.609375 L 478.0625 366.609375 L 478.0625 370.550781 L 466.058594 370.550781 L 466.671875 360.960938 C 465.707031 363.179688 464.800781 364.828125 463.957031 365.910156 C 462.757812 367.488281 461.128906 368.816406 459.070312 369.894531 C 457.011719 370.976562 454.507812 371.515625 451.558594 371.515625 C 447.003906 371.515625 443.5 370.347656 441.042969 368.011719 C 438.589844 365.675781 437.367188 362.625 437.367188 358.855469 C 437.367188 356.722656 437.746094 354.863281 438.503906 353.269531 C 439.261719 351.679688 440.378906 350.308594 441.855469 349.152344 C 443.332031 348 445.207031 347.101562 447.484375 346.460938 C 449.792969 345.816406 452.726562 345.378906 456.289062 345.144531 L 466.582031 344.664062 C 466.640625 342.96875 466.671875 341.699219 466.671875 340.851562 C 466.671875 337.929688 466.484375 335.742188 466.101562 334.28125 C 465.695312 332.792969 465.042969 331.585938 464.152344 330.667969 C 463.261719 329.746094 461.96875 328.980469 460.277344 328.367188 C 458.582031 327.753906 456.566406 327.449219 454.230469 327.449219 C 452.566406 327.449219 450.777344 327.617188 448.863281 327.953125 C 446.953125 328.289062 445.238281 328.777344 443.71875 329.417969 L 443.5 337.128906 L 439.117188 337.128906 L 439.292969 326.484375 C 441.746094 325.402344 444.34375 324.601562 447.089844 324.074219 C 449.835938 323.546875 452.332031 323.285156 454.582031 323.285156 C 458.027344 323.285156 460.933594 323.789062 463.296875 324.796875 C 465.664062 325.804688 467.378906 327.015625 468.445312 328.433594 C 469.511719 329.847656 470.234375 331.390625 470.613281 333.054688 C 471.023438 334.71875 471.226562 337.027344 471.226562 339.976562 C 471.226562 341.992188 470.996094 350.871094 470.527344 366.609375 M 423.53125 349.109375 C 422.394531 348.160156 420.800781 347.320312 418.757812 346.589844 C 417.382812 346.125 415.035156 345.554688 411.703125 344.882812 C 408.375 344.210938 406.023438 343.597656 404.652344 343.042969 C 402.871094 342.371094 401.554688 341.472656 400.707031 340.347656 C 399.859375 339.222656 399.4375 337.84375 399.4375 336.210938 C 399.4375 333.609375 400.386719 331.464844 402.285156 329.769531 C 404.183594 328.074219 407.015625 327.226562 410.785156 327.226562 C 412.742188 327.226562 414.65625 327.449219 416.523438 327.886719 C 417.515625 328.121094 418.683594 328.558594 420.027344 329.199219 L 420.464844 336.601562 L 424.714844 336.601562 L 424.453125 326.089844 C 422.554688 325.183594 420.386719 324.484375 417.949219 323.988281 C 415.507812 323.492188 413.179688 323.242188 410.960938 323.242188 C 405.058594 323.242188 400.707031 324.789062 397.90625 327.886719 C 395.742188 330.28125 394.664062 333.203125 394.664062 336.644531 C 394.664062 340.382812 396.066406 343.304688 398.867188 345.410156 C 400.855469 346.898438 404.460938 348.167969 409.691406 349.21875 C 412.988281 349.890625 415.078125 350.359375 415.953125 350.621094 C 417.53125 351.089844 418.78125 351.652344 419.699219 352.308594 C 420.621094 352.964844 421.328125 353.753906 421.824219 354.671875 C 422.320312 355.59375 422.570312 356.769531 422.570312 358.199219 C 422.570312 361.53125 421.167969 364.070312 418.363281 365.824219 C 416.378906 367.078125 413.675781 367.707031 410.257812 367.707031 C 408.125 367.707031 406.234375 367.53125 404.585938 367.179688 C 402.933594 366.828125 401.175781 366.246094 399.304688 365.425781 L 399 357.542969 L 394.621094 357.542969 L 394.925781 368.714844 C 399.859375 370.726562 404.988281 371.738281 410.300781 371.738281 C 415.96875 371.738281 420.21875 370.457031 423.050781 367.902344 C 425.882812 365.347656 427.300781 361.996094 427.300781 357.847656 C 427.300781 355.777344 426.957031 354.039062 426.269531 352.636719 C 425.582031 351.234375 424.671875 350.058594 423.53125 349.109375 M 382.667969 345.539062 C 382.667969 343.816406 382.339844 341.78125 381.683594 339.429688 C 381.027344 337.078125 380.0625 335.003906 378.792969 333.207031 C 377.523438 331.414062 375.871094 329.964844 373.84375 328.871094 C 371.8125 327.777344 369.425781 327.226562 366.679688 327.226562 C 361.800781 327.226562 357.789062 328.988281 354.632812 332.507812 C 351.480469 336.027344 349.902344 341.1875 349.902344 347.992188 C 349.902344 354.359375 351.414062 359.207031 354.4375 362.535156 C 357.457031 365.867188 361.453125 367.53125 366.417969 367.53125 C 368.257812 367.53125 369.929688 367.304688 371.433594 366.851562 C 372.9375 366.398438 374.308594 365.714844 375.550781 364.792969 C 376.792969 363.875 377.996094 362.550781 379.164062 360.828125 C 380.332031 359.105469 381.207031 357.113281 381.792969 354.847656 C 382.378906 352.585938 382.667969 350.546875 382.667969 348.738281 Z M 384.992188 334.390625 C 386.714844 338.085938 387.574219 341.902344 387.574219 345.847656 C 387.574219 354.433594 385.472656 361.089844 381.265625 365.824219 C 377.703125 369.824219 372.695312 371.824219 366.242188 371.824219 C 359.875 371.824219 354.734375 369.734375 350.824219 365.558594 C 346.910156 361.382812 344.953125 355.570312 344.953125 348.125 C 344.953125 340.296875 347.046875 334.136719 351.238281 329.636719 C 355.429688 325.140625 360.664062 322.890625 366.941406 322.890625 C 371 322.890625 374.59375 323.882812 377.71875 325.871094 C 380.84375 327.855469 383.265625 330.695312 384.992188 334.390625 M 334.5625 366.609375 L 342.199219 366.609375 L 342.199219 370.550781 L 322.898438 370.550781 L 322.980469 366.609375 L 329.949219 366.609375 L 329.988281 316.144531 L 308.921875 370.550781 L 304.601562 370.550781 L 283.871094 317.109375 L 283.160156 366.609375 L 290.796875 366.609375 L 290.710938 370.550781 L 271.324219 370.550781 L 271.324219 366.609375 L 278.667969 366.609375 L 279.71875 311.808594 L 271.324219 311.808594 L 271.324219 307.867188 L 285.214844 307.867188 L 306.953125 364.464844 L 328.5625 307.867188 L 342.117188 307.867188 L 342.117188 311.808594 L 334.269531 311.808594 Z M 334.5625 366.609375 "/>
<path style=" stroke:none;fill-rule:nonzero;fill:rgb(26.670837%,25.335693%,25.666809%);fill-opacity:1;" d="M 412.335938 532.640625 C 282.550781 532.640625 177.335938 427.425781 177.335938 297.640625 C 177.335938 167.851562 282.550781 62.640625 412.335938 62.640625 C 542.125 62.640625 647.335938 167.851562 647.335938 297.640625 C 647.335938 427.425781 542.125 532.640625 412.335938 532.640625 M 412.335938 58.148438 C 280.066406 58.148438 172.84375 165.371094 172.84375 297.640625 C 172.84375 429.910156 280.066406 537.132812 412.335938 537.132812 C 544.605469 537.132812 651.828125 429.910156 651.828125 297.640625 C 651.828125 165.371094 544.605469 58.148438 412.335938 58.148438 "/>
<path style=" stroke:none;fill-rule:nonzero;fill:rgb(26.670837%,25.335693%,25.666809%);fill-opacity:1;" d="M 223.710938 224.222656 L 216.179688 228.574219 L 211.832031 221.042969 L 219.363281 216.695312 Z M 223.710938 224.222656 "/>
<path style=" stroke:none;fill-rule:nonzero;fill:rgb(26.670837%,25.335693%,25.666809%);fill-opacity:1;" d="M 613.027344 220.761719 L 609.144531 228.390625 L 601.515625 224.503906 L 605.398438 216.878906 Z M 613.027344 220.761719 "/>
<path style=" stroke:none;fill-rule:nonzero;fill:rgb(26.670837%,25.335693%,25.666809%);fill-opacity:1;" d="M 412.335938 477.304688 C 313.109375 477.304688 232.671875 396.867188 232.671875 297.640625 C 232.671875 198.414062 313.109375 117.976562 412.335938 117.976562 C 511.5625 117.976562 592 198.414062 592 297.640625 C 592 396.867188 511.5625 477.304688 412.335938 477.304688 M 412.335938 115.152344 C 311.550781 115.152344 229.847656 196.855469 229.847656 297.640625 C 229.847656 398.425781 311.550781 480.125 412.335938 480.125 C 513.121094 480.125 594.824219 398.425781 594.824219 297.640625 C 594.824219 196.855469 513.121094 115.152344 412.335938 115.152344 "/>
<path style=" stroke:none;fill-rule:nonzero;fill:rgb(26.670837%,25.335693%,25.666809%);fill-opacity:1;" d="M 221.746094 251.675781 L 218.71875 267.242188 L 216.503906 266.808594 L 219.058594 253.675781 L 211.707031 252.246094 L 209.421875 263.996094 L 207.207031 263.566406 L 209.492188 251.8125 L 201.953125 250.347656 L 199.371094 263.636719 L 197.15625 263.207031 L 200.210938 247.488281 Z M 221.746094 251.675781 "/>
<path style=" stroke:none;fill-rule:nonzero;fill:rgb(26.670837%,25.335693%,25.666809%);fill-opacity:1;" d="M 200.683594 270.191406 L 210.40625 271.257812 L 210.652344 269.015625 L 212.769531 269.246094 L 212.523438 271.492188 L 217.386719 272.023438 L 217.121094 274.421875 L 212.261719 273.890625 L 211.699219 279 L 209.582031 278.769531 L 210.140625 273.65625 L 200.730469 272.625 C 198.769531 272.410156 197.933594 273.421875 197.757812 275.042969 C 197.667969 275.851562 197.746094 276.554688 198.058594 277.441406 L 196.003906 277.214844 C 195.660156 276.324219 195.511719 275.394531 195.636719 274.242188 C 195.921875 271.65625 197.414062 269.832031 200.683594 270.191406 "/>
<path style=" stroke:none;fill-rule:nonzero;fill:rgb(26.670837%,25.335693%,25.666809%);fill-opacity:1;" d="M 210.917969 292.328125 L 210.957031 294.742188 L 208.136719 294.785156 C 209.90625 295.824219 211.347656 297.492188 211.390625 300.285156 C 211.453125 304.199219 208.855469 306.53125 205.003906 306.59375 L 194.941406 306.753906 L 194.902344 304.339844 L 204.367188 304.191406 C 207.378906 304.140625 209.230469 302.480469 209.1875 299.628906 C 209.140625 296.839844 207.070312 294.804688 204.03125 294.851562 L 194.753906 295 L 194.714844 292.585938 Z M 210.917969 292.328125 "/>
<path style=" stroke:none;fill-rule:nonzero;fill:rgb(26.670837%,25.335693%,25.666809%);fill-opacity:1;" d="M 205.527344 323.976562 C 208.433594 323.417969 210.8125 321.464844 210.472656 318.253906 C 210.175781 315.449219 207.613281 313.574219 204.429688 313.59375 Z M 203.238281 311.261719 L 203.300781 311.257812 C 207.945312 310.765625 212.03125 313.644531 212.503906 318.101562 C 213.007812 322.871094 209.496094 326.015625 204.789062 326.511719 C 204.476562 326.546875 204.289062 326.566406 204.003906 326.566406 L 202.652344 313.785156 C 199.199219 314.496094 197.496094 317.164062 197.796875 320.035156 C 198.03125 322.246094 199.101562 323.710938 200.613281 324.875 L 199.429688 326.511719 C 197.449219 325.082031 196.027344 323.246094 195.703125 320.191406 C 195.234375 315.765625 198.25 311.789062 203.238281 311.261719 "/>
<path style=" stroke:none;fill-rule:nonzero;fill:rgb(26.670837%,25.335693%,25.666809%);fill-opacity:1;" d="M 202.132812 332.628906 L 211.75 330.855469 L 211.339844 328.636719 L 213.4375 328.25 L 213.84375 330.472656 L 218.652344 329.585938 L 219.089844 331.957031 L 214.28125 332.84375 L 215.214844 337.898438 L 213.117188 338.285156 L 212.1875 333.230469 L 202.878906 334.941406 C 200.9375 335.300781 200.425781 336.511719 200.722656 338.113281 C 200.867188 338.914062 201.148438 339.5625 201.703125 340.324219 L 199.667969 340.695312 C 199.082031 339.945312 198.671875 339.097656 198.460938 337.957031 C 197.988281 335.398438 198.898438 333.222656 202.132812 332.628906 "/>
<path style=" stroke:none;fill-rule:nonzero;fill:rgb(26.670837%,25.335693%,25.666809%);fill-opacity:1;" d="M 215.628906 340.316406 L 216.3125 342.894531 L 204.707031 351.609375 L 219.113281 353.46875 L 219.777344 355.984375 L 202.183594 353.347656 L 201.640625 351.289062 Z M 215.628906 340.316406 "/>
<path style=" stroke:none;fill-rule:nonzero;fill:rgb(26.670837%,25.335693%,25.666809%);fill-opacity:1;" d="M 222.167969 382.871094 C 224.816406 381.558594 226.589844 379.046875 225.421875 376.070312 C 224.378906 373.414062 221.414062 372.289062 218.351562 373.15625 Z M 213.507812 373.171875 C 214.246094 372.476562 215.101562 371.90625 216.128906 371.4375 C 215.984375 370.214844 215.742188 368.65625 215.089844 366.996094 C 214.011719 364.253906 212.179688 363.1875 210.28125 363.933594 L 210.226562 363.957031 C 208.355469 364.6875 207.902344 366.785156 208.691406 368.800781 C 209.5625 371.015625 211.382812 372.390625 213.507812 373.171875 M 209.242188 361.714844 L 209.300781 361.691406 C 212.480469 360.441406 215.203125 362.402344 216.660156 366.109375 C 217.382812 367.945312 217.625 369.332031 217.773438 370.824219 L 218.296875 370.617188 C 221.011719 369.550781 221.792969 367.425781 220.703125 364.65625 C 220.027344 362.933594 219.046875 361.804688 217.851562 360.65625 L 219.425781 359.261719 C 220.839844 360.628906 221.929688 361.949219 222.777344 364.109375 C 223.902344 366.96875 223.578125 369.316406 221.71875 370.925781 C 224.230469 371.316406 226.367188 372.902344 227.34375 375.382812 C 229.085938 379.816406 226.542969 383.8125 222.140625 385.542969 C 221.847656 385.65625 221.660156 385.695312 221.386719 385.769531 L 216.699219 373.839844 C 213.546875 375.414062 212.625 378.46875 213.667969 381.125 C 214.492188 383.226562 215.902344 384.320312 217.664062 385.042969 L 216.960938 386.9375 C 214.683594 386.113281 212.8125 384.691406 211.691406 381.835938 C 210.738281 379.410156 211.007812 376.75 212.375 374.660156 C 210.082031 373.710938 207.882812 372.050781 206.78125 369.25 C 205.636719 366.332031 206.152344 362.929688 209.242188 361.714844 "/>
<path style=" stroke:none;fill-rule:nonzero;fill:rgb(26.670837%,25.335693%,25.666809%);fill-opacity:1;" d="M 231.886719 385.925781 L 233 388.066406 L 229.242188 390.019531 C 232.183594 389.832031 234.992188 391.023438 236.296875 393.808594 L 233.988281 395.003906 L 233.902344 394.839844 C 232.269531 391.695312 228.6875 390.308594 224.347656 392.5625 L 218.617188 395.539062 L 217.503906 393.398438 Z M 231.886719 385.925781 "/>
<path style=" stroke:none;fill-rule:nonzero;fill:rgb(26.670837%,25.335693%,25.666809%);fill-opacity:1;" d="M 243.414062 393.472656 L 244.683594 395.527344 L 231.257812 403.839844 L 243.613281 406.472656 L 245.195312 409.03125 L 235.703125 406.910156 L 231.539062 417.742188 L 230.019531 415.292969 L 233.390625 406.386719 L 228.832031 405.339844 L 225.238281 407.566406 L 223.964844 405.515625 Z M 243.414062 393.472656 "/>
<path style=" stroke:none;fill-rule:nonzero;fill:rgb(26.670837%,25.335693%,25.666809%);fill-opacity:1;" d="M 251.589844 434.105469 L 252.800781 433.113281 C 252.3125 431.972656 251.5625 430.519531 250.308594 428.996094 C 248.375 426.644531 246.28125 426.175781 244.710938 427.46875 L 244.660156 427.511719 C 243.089844 428.804688 243.363281 431.011719 244.757812 432.707031 C 246.648438 435.007812 249.605469 435.738281 251.589844 434.105469 M 243.035156 425.683594 L 243.085938 425.640625 C 245.722656 423.472656 248.917969 424.496094 251.527344 427.667969 C 252.839844 429.261719 253.558594 430.582031 254.160156 431.953125 L 254.597656 431.59375 C 256.847656 429.742188 256.875 427.40625 254.941406 425.058594 C 253.726562 423.582031 252.382812 422.738281 250.894531 422.015625 L 251.960938 420.207031 C 253.726562 421.066406 255.253906 422.082031 256.746094 423.898438 C 258.199219 425.664062 258.855469 427.398438 258.691406 429.074219 C 258.542969 430.621094 257.691406 432.050781 256.09375 433.363281 L 248.445312 439.65625 L 246.972656 437.867188 L 248.859375 436.3125 C 247.007812 436.378906 244.792969 435.761719 242.984375 433.558594 C 241.070312 431.238281 240.472656 427.792969 243.035156 425.683594 "/>
<path style=" stroke:none;fill-rule:nonzero;fill:rgb(26.670837%,25.335693%,25.666809%);fill-opacity:1;" d="M 263.417969 435.117188 L 261.886719 433.507812 L 263.40625 432.058594 L 264.941406 433.671875 L 265.964844 432.699219 C 267.304688 431.425781 268.667969 430.816406 269.953125 430.847656 C 271.105469 430.875 272.246094 431.433594 273.261719 432.503906 C 274.039062 433.320312 274.46875 433.949219 274.804688 434.714844 L 273.28125 436.160156 C 272.859375 435.351562 272.519531 434.765625 271.957031 434.179688 C 270.660156 432.816406 269.195312 432.910156 267.515625 434.511719 L 266.5625 435.417969 L 270.105469 439.140625 L 268.605469 440.566406 L 265.082031 436.867188 L 254.890625 446.566406 L 253.226562 444.820312 Z M 263.417969 435.117188 "/>
<path style=" stroke:none;fill-rule:nonzero;fill:rgb(26.670837%,25.335693%,25.666809%);fill-opacity:1;" d="M 283.554688 460.589844 C 285.238281 458.160156 285.574219 455.105469 283.089844 453.046875 C 280.914062 451.246094 277.777344 451.699219 275.515625 453.941406 Z M 273.035156 453.105469 L 273.074219 453.058594 C 276.050781 449.460938 280.984375 448.660156 284.433594 451.515625 C 288.128906 454.574219 287.816406 459.277344 284.800781 462.921875 C 284.601562 463.160156 284.480469 463.308594 284.277344 463.503906 L 274.378906 455.316406 C 272.40625 458.238281 273.054688 461.335938 275.277344 463.175781 C 276.992188 464.59375 278.777344 464.890625 280.671875 464.667969 L 280.96875 466.664062 C 278.554688 467.027344 276.257812 466.707031 273.890625 464.75 C 270.464844 461.914062 269.839844 456.96875 273.035156 453.105469 "/>
<path style=" stroke:none;fill-rule:nonzero;fill:rgb(26.670837%,25.335693%,25.666809%);fill-opacity:1;" d="M 291.339844 457.59375 L 293.53125 459.109375 L 290.371094 473.273438 L 302.53125 465.328125 L 304.667969 466.808594 L 289.582031 476.234375 L 287.828125 475.023438 Z M 291.339844 457.59375 "/>
<path style=" stroke:none;fill-rule:nonzero;fill:rgb(26.670837%,25.335693%,25.666809%);fill-opacity:1;" d="M 311.277344 482.449219 L 312.054688 481.089844 C 311.195312 480.199219 309.976562 479.105469 308.261719 478.128906 C 305.625 476.621094 303.5 476.921875 302.492188 478.691406 L 302.460938 478.746094 C 301.449219 480.511719 302.492188 482.480469 304.394531 483.566406 C 306.980469 485.046875 310.003906 484.679688 311.277344 482.449219 M 300.289062 477.613281 L 300.320312 477.558594 C 302.015625 474.59375 305.367188 474.414062 308.933594 476.453125 C 310.726562 477.476562 311.867188 478.453125 312.914062 479.523438 L 313.195312 479.03125 C 314.640625 476.503906 313.835938 474.308594 311.199219 472.804688 C 309.539062 471.855469 307.984375 471.542969 306.335938 471.394531 L 306.691406 469.324219 C 308.644531 469.503906 310.433594 469.910156 312.472656 471.078125 C 314.457031 472.210938 315.6875 473.597656 316.128906 475.222656 C 316.539062 476.71875 316.25 478.359375 315.222656 480.15625 L 310.3125 488.753906 L 308.296875 487.601562 L 309.511719 485.480469 C 307.800781 486.199219 305.515625 486.410156 303.039062 484.996094 C 300.425781 483.503906 298.644531 480.5 300.289062 477.613281 "/>
<path style=" stroke:none;fill-rule:nonzero;fill:rgb(26.670837%,25.335693%,25.666809%);fill-opacity:1;" d="M 322.734375 476.945312 L 324.933594 477.945312 L 323.765625 480.511719 C 325.460938 479.355469 327.585938 478.773438 330.125 479.925781 C 333.691406 481.546875 334.6875 484.890625 333.089844 488.402344 L 328.929688 497.558594 L 326.730469 496.5625 L 330.648438 487.945312 C 331.894531 485.207031 331.1875 482.820312 328.589844 481.636719 C 326.050781 480.484375 323.324219 481.484375 322.066406 484.25 L 318.226562 492.699219 L 316.03125 491.699219 Z M 322.734375 476.945312 "/>
<path style=" stroke:none;fill-rule:nonzero;fill:rgb(26.670837%,25.335693%,25.666809%);fill-opacity:1;" d="M 350.214844 495.796875 L 350.234375 495.738281 C 351.304688 492.59375 349.269531 489.617188 346.359375 488.628906 C 343.453125 487.640625 340.363281 488.839844 339.292969 491.988281 L 339.273438 492.046875 C 338.222656 495.132812 339.960938 498.105469 342.808594 499.074219 C 345.71875 500.0625 349.164062 498.882812 350.214844 495.796875 M 333.867188 502.589844 L 335.511719 501.164062 C 336.828125 503.035156 338.558594 504.382812 340.753906 505.128906 C 344.136719 506.277344 346.96875 505.15625 348.1875 501.566406 L 348.804688 499.753906 C 346.863281 501.082031 344.5 501.902344 341.679688 500.941406 C 338 499.691406 335.40625 495.730469 336.90625 491.308594 L 336.929688 491.25 C 338.449219 486.769531 342.949219 485.21875 346.601562 486.457031 C 349.480469 487.4375 350.867188 489.496094 351.546875 491.582031 L 352.484375 488.820312 L 354.769531 489.601562 L 350.464844 502.273438 C 349.65625 504.648438 348.328125 506.214844 346.660156 507.035156 C 344.828125 507.9375 342.550781 507.925781 340.117188 507.097656 C 337.566406 506.230469 335.433594 504.710938 333.867188 502.589844 "/>
<path style=" stroke:none;fill-rule:nonzero;fill:rgb(26.670837%,25.335693%,25.666809%);fill-opacity:1;" d="M 369.644531 500.699219 C 370.070312 497.769531 369.007812 494.882812 365.867188 494.144531 C 363.121094 493.5 360.507812 495.304688 359.480469 498.3125 Z M 356.886719 498.671875 L 356.898438 498.609375 C 357.964844 494.0625 362.027344 491.152344 366.394531 492.175781 C 371.0625 493.269531 372.875 497.625 371.792969 502.230469 C 371.722656 502.539062 371.679688 502.71875 371.585938 502.988281 L 359.074219 500.054688 C 358.605469 503.550781 360.566406 506.039062 363.375 506.695312 C 365.539062 507.207031 367.273438 506.675781 368.871094 505.636719 L 370.027344 507.292969 C 368.027344 508.6875 365.824219 509.429688 362.832031 508.726562 C 358.5 507.710938 355.742188 503.554688 356.886719 498.671875 "/>
<path style=" stroke:none;fill-rule:nonzero;fill:rgb(26.670837%,25.335693%,25.666809%);fill-opacity:1;" d="M 379.023438 488.292969 L 381.402344 488.6875 L 377.660156 511.257812 L 375.28125 510.859375 Z M 379.023438 488.292969 "/>
<path style=" stroke:none;fill-rule:nonzero;fill:rgb(26.670837%,25.335693%,25.666809%);fill-opacity:1;" d="M 386.582031 489.914062 L 389.316406 490.257812 L 388.988281 492.898438 L 386.25 492.558594 Z M 385.96875 496.09375 L 388.363281 496.390625 L 386.359375 512.46875 L 383.964844 512.171875 Z M 385.96875 496.09375 "/>
<path style=" stroke:none;fill-rule:nonzero;fill:rgb(26.670837%,25.335693%,25.666809%);fill-opacity:1;" d="M 394.1875 490.390625 L 396.597656 490.535156 L 395.640625 506.300781 L 404.921875 497.726562 L 407.921875 497.90625 L 400.714844 504.441406 L 407.164062 514.089844 L 404.285156 513.917969 L 398.953125 506.03125 L 395.46875 509.148438 L 395.214844 513.367188 L 392.804688 513.222656 Z M 394.1875 490.390625 "/>
<path style=" stroke:none;fill-rule:nonzero;fill:rgb(26.670837%,25.335693%,25.666809%);fill-opacity:1;" d="M 421.945312 507.878906 L 421.910156 506.3125 C 420.710938 505.996094 419.105469 505.6875 417.128906 505.738281 C 414.09375 505.8125 412.433594 507.167969 412.480469 509.203125 L 412.484375 509.265625 C 412.53125 511.304688 414.441406 512.449219 416.636719 512.394531 C 419.609375 512.320312 422.011719 510.445312 421.945312 507.878906 M 410.042969 509.421875 L 410.039062 509.355469 C 409.957031 505.941406 412.734375 504.058594 416.835938 503.957031 C 418.902344 503.90625 420.382812 504.152344 421.832031 504.523438 L 421.820312 503.960938 C 421.75 501.050781 419.925781 499.589844 416.886719 499.660156 C 414.976562 499.710938 413.484375 500.246094 412 500.972656 L 411.230469 499.015625 C 412.996094 498.15625 414.738281 497.582031 417.085938 497.527344 C 419.375 497.472656 421.144531 498.023438 422.363281 499.183594 C 423.484375 500.253906 424.085938 501.808594 424.136719 503.875 L 424.378906 513.773438 L 422.0625 513.828125 L 422 511.386719 C 420.910156 512.886719 419.0625 514.246094 416.210938 514.316406 C 413.203125 514.390625 410.121094 512.742188 410.042969 509.421875 "/>
<path style=" stroke:none;fill-rule:nonzero;fill:rgb(26.670837%,25.335693%,25.666809%);fill-opacity:1;" d="M 428.570312 490.460938 L 430.972656 490.246094 L 432.988281 513.035156 L 430.585938 513.25 Z M 428.570312 490.460938 "/>
<path style=" stroke:none;fill-rule:nonzero;fill:rgb(26.670837%,25.335693%,25.666809%);fill-opacity:1;" d="M 449.828125 501.714844 C 449.128906 498.839844 447.058594 496.5625 443.871094 497.054688 C 441.082031 497.488281 439.335938 500.136719 439.511719 503.316406 Z M 437.238281 504.617188 L 437.230469 504.558594 C 436.515625 499.941406 439.191406 495.71875 443.617188 495.03125 C 448.359375 494.296875 451.671875 497.652344 452.394531 502.328125 C 452.445312 502.640625 452.472656 502.824219 452.484375 503.109375 L 439.785156 505.078125 C 440.664062 508.496094 443.414062 510.066406 446.265625 509.625 C 448.464844 509.285156 449.875 508.148438 450.964844 506.582031 L 452.65625 507.683594 C 451.324219 509.730469 449.558594 511.238281 446.523438 511.710938 C 442.125 512.394531 438.007812 509.574219 437.238281 504.617188 "/>
<path style=" stroke:none;fill-rule:nonzero;fill:rgb(26.670837%,25.335693%,25.666809%);fill-opacity:1;" d="M 464.992188 496.601562 L 473.371094 494.214844 L 474.066406 496.65625 L 465.6875 499.042969 Z M 464.992188 496.601562 "/>
<path style=" stroke:none;fill-rule:nonzero;fill:rgb(26.670837%,25.335693%,25.666809%);fill-opacity:1;" d="M 500.914062 486.453125 L 500.890625 486.394531 C 499.375 482.882812 495.988281 481.679688 493.167969 482.898438 C 490.402344 484.089844 488.792969 487.554688 490.257812 490.949219 L 490.28125 491.007812 C 491.773438 494.460938 495.386719 495.632812 498.148438 494.4375 C 501.023438 493.195312 502.464844 490.050781 500.914062 486.453125 M 484.933594 484.472656 L 487.152344 483.515625 L 488.441406 486.507812 C 488.882812 484.203125 489.976562 481.917969 492.714844 480.738281 C 496.28125 479.199219 501.039062 480.492188 503.148438 485.382812 L 503.175781 485.441406 C 505.273438 490.304688 503.003906 494.699219 499.40625 496.25 C 496.644531 497.441406 494.214844 496.71875 492.34375 495.542969 L 495.558594 503 L 493.34375 503.953125 Z M 484.933594 484.472656 "/>
<path style=" stroke:none;fill-rule:nonzero;fill:rgb(26.670837%,25.335693%,25.666809%);fill-opacity:1;" d="M 517.578125 476.625 C 515.933594 474.167969 513.210938 472.734375 510.386719 474.292969 C 507.917969 475.65625 507.183594 478.742188 508.441406 481.664062 Z M 506.753906 483.667969 L 506.722656 483.613281 C 504.46875 479.527344 505.53125 474.644531 509.457031 472.480469 C 513.652344 470.164062 517.914062 472.179688 520.199219 476.320312 C 520.351562 476.597656 520.441406 476.761719 520.550781 477.023438 L 509.304688 483.230469 C 511.300781 486.136719 514.421875 486.667969 516.945312 485.273438 C 518.894531 484.199219 519.828125 482.648438 520.3125 480.804688 L 522.28125 481.257812 C 521.730469 483.636719 520.59375 485.660156 517.902344 487.144531 C 514.007812 489.292969 509.175781 488.058594 506.753906 483.667969 "/>
<path style=" stroke:none;fill-rule:nonzero;fill:rgb(26.670837%,25.335693%,25.666809%);fill-opacity:1;" d="M 519.636719 466.996094 L 521.628906 465.640625 L 523.21875 467.972656 C 523.109375 465.921875 523.71875 463.804688 526.023438 462.238281 C 529.261719 460.035156 532.632812 460.925781 534.800781 464.109375 L 540.457031 472.429688 L 538.460938 473.785156 L 533.140625 465.960938 C 531.449219 463.472656 529.042969 462.835938 526.6875 464.4375 C 524.378906 466.007812 523.816406 468.855469 525.527344 471.367188 L 530.742188 479.035156 L 528.746094 480.394531 Z M 519.636719 466.996094 "/>
<path style=" stroke:none;fill-rule:nonzero;fill:rgb(26.670837%,25.335693%,25.666809%);fill-opacity:1;" d="M 543.34375 464.753906 L 537.230469 457.121094 L 535.46875 458.53125 L 534.136719 456.867188 L 535.898438 455.457031 L 532.839844 451.640625 L 534.726562 450.132812 L 537.78125 453.949219 L 541.792969 450.734375 L 543.125 452.398438 L 539.113281 455.613281 L 545.03125 463 C 546.265625 464.539062 547.570312 464.417969 548.84375 463.398438 C 549.480469 462.890625 549.917969 462.335938 550.324219 461.488281 L 551.617188 463.101562 C 551.230469 463.976562 550.679688 464.738281 549.773438 465.464844 C 547.742188 467.089844 545.398438 467.320312 543.34375 464.753906 "/>
<path style=" stroke:none;fill-rule:nonzero;fill:rgb(26.670837%,25.335693%,25.666809%);fill-opacity:1;" d="M 558.179688 445.609375 C 555.992188 443.625 553 442.894531 550.636719 445.09375 C 548.574219 447.015625 548.613281 450.1875 550.539062 452.71875 Z M 549.390625 455.074219 L 549.347656 455.027344 C 546.164062 451.605469 546.015625 446.613281 549.296875 443.558594 C 552.808594 440.292969 557.429688 441.214844 560.65625 444.679688 C 560.867188 444.910156 560.996094 445.046875 561.164062 445.273438 L 551.753906 454.027344 C 554.398438 456.363281 557.558594 456.121094 559.667969 454.160156 C 561.296875 452.640625 561.828125 450.910156 561.851562 449.003906 L 563.871094 448.964844 C 563.914062 451.40625 563.300781 453.644531 561.050781 455.738281 C 557.792969 458.769531 552.804688 458.746094 549.390625 455.074219 "/>
<path style=" stroke:none;fill-rule:nonzero;fill:rgb(26.670837%,25.335693%,25.666809%);fill-opacity:1;" d="M 552.878906 431.292969 L 554.492188 429.5 L 566.230469 440.070312 L 565.304688 427.472656 L 567.316406 425.234375 L 567.9375 434.941406 L 579.5 435.910156 L 577.570312 438.054688 L 568.082031 437.308594 L 568.347656 441.976562 L 571.492188 444.808594 L 569.875 446.601562 Z M 552.878906 431.292969 "/>
<path style=" stroke:none;fill-rule:nonzero;fill:rgb(26.670837%,25.335693%,25.666809%);fill-opacity:1;" d="M 583.582031 417.34375 L 583.527344 417.304688 C 580.746094 415.21875 576.902344 415.585938 574.851562 418.316406 C 572.746094 421.125 573.578125 424.769531 576.3125 426.820312 L 576.359375 426.855469 C 579.144531 428.945312 582.941406 428.582031 584.992188 425.851562 C 587.101562 423.042969 586.3125 419.394531 583.582031 417.34375 M 574.925781 428.875 L 574.875 428.835938 C 571.214844 426.089844 570.25 420.898438 573.183594 416.988281 C 576.101562 413.101562 581.304688 412.539062 584.964844 415.285156 L 585.015625 415.324219 C 588.675781 418.070312 589.621094 423.285156 586.6875 427.199219 C 583.769531 431.082031 578.585938 431.621094 574.925781 428.875 "/>
<path style=" stroke:none;fill-rule:nonzero;fill:rgb(26.670837%,25.335693%,25.666809%);fill-opacity:1;" d="M 592.039062 415.558594 L 591.222656 413.613281 C 593.265625 412.816406 594.933594 411.566406 595.941406 409.941406 C 596.96875 408.292969 596.859375 406.566406 595.53125 405.738281 L 595.476562 405.703125 C 594.09375 404.84375 592.550781 406.132812 590.921875 407.628906 C 588.96875 409.40625 586.730469 411.335938 584.203125 409.761719 L 584.148438 409.730469 C 581.78125 408.257812 581.4375 405.308594 583.125 402.597656 C 584.167969 400.917969 585.914062 399.421875 587.722656 398.589844 L 588.6875 400.484375 C 587.066406 401.246094 585.648438 402.394531 584.820312 403.726562 C 583.8125 405.347656 584.019531 406.917969 585.164062 407.628906 L 585.214844 407.664062 C 586.519531 408.472656 588.085938 407.082031 589.785156 405.59375 C 591.75 403.863281 594 402.089844 596.472656 403.628906 L 596.527344 403.664062 C 599.136719 405.285156 599.308594 408.382812 597.605469 411.125 C 596.378906 413.09375 594.25 414.796875 592.039062 415.558594 "/>
<path style=" stroke:none;fill-rule:nonzero;fill:rgb(26.670837%,25.335693%,25.666809%);fill-opacity:1;" d="M 599.453125 398.847656 L 590.816406 394.257812 L 589.757812 396.253906 L 587.878906 395.253906 L 588.933594 393.257812 L 584.617188 390.964844 L 585.75 388.832031 L 590.066406 391.128906 L 592.480469 386.589844 L 594.363281 387.589844 L 591.949219 392.128906 L 600.308594 396.570312 C 602.054688 397.496094 603.207031 396.867188 603.96875 395.425781 C 604.351562 394.707031 604.539062 394.027344 604.574219 393.085938 L 606.402344 394.058594 C 606.390625 395.011719 606.1875 395.929688 605.640625 396.957031 C 604.421875 399.253906 602.359375 400.394531 599.453125 398.847656 "/>
<path style=" stroke:none;fill-rule:nonzero;fill:rgb(26.670837%,25.335693%,25.666809%);fill-opacity:1;" d="M 607.996094 377.242188 L 606.558594 376.613281 C 605.765625 377.566406 604.808594 378.894531 604.015625 380.703125 C 602.796875 383.488281 603.324219 385.566406 605.191406 386.386719 L 605.25 386.410156 C 607.113281 387.226562 608.960938 385.980469 609.839844 383.972656 C 611.035156 381.242188 610.351562 378.273438 607.996094 377.242188 M 604.351562 388.6875 L 604.296875 388.664062 C 601.167969 387.292969 600.632812 383.976562 602.277344 380.21875 C 603.109375 378.320312 603.957031 377.085938 604.910156 375.929688 L 604.394531 375.699219 C 601.722656 374.53125 599.628906 375.566406 598.40625 378.351562 C 597.640625 380.101562 597.496094 381.679688 597.523438 383.335938 L 595.425781 383.207031 C 595.394531 381.242188 595.613281 379.421875 596.554688 377.265625 C 597.472656 375.171875 598.722656 373.800781 600.292969 373.1875 C 601.738281 372.621094 603.398438 372.734375 605.296875 373.5625 L 614.367188 377.535156 L 613.4375 379.660156 L 611.199219 378.679688 C 612.097656 380.304688 612.546875 382.554688 611.402344 385.171875 C 610.195312 387.925781 607.398438 390.019531 604.351562 388.6875 "/>
<path style=" stroke:none;fill-rule:nonzero;fill:rgb(26.670837%,25.335693%,25.666809%);fill-opacity:1;" d="M 595.015625 363.871094 L 595.835938 361.601562 L 617.347656 369.386719 L 616.527344 371.65625 Z M 595.015625 363.871094 "/>
<path style=" stroke:none;fill-rule:nonzero;fill:rgb(26.670837%,25.335693%,25.666809%);fill-opacity:1;" d="M 614.183594 349.34375 C 611.285156 348.769531 608.347656 349.683594 607.453125 352.78125 C 606.667969 355.492188 608.335938 358.191406 611.289062 359.371094 Z M 611.511719 361.980469 L 611.453125 361.960938 C 606.96875 360.667969 604.269531 356.460938 605.511719 352.15625 C 606.84375 347.550781 611.28125 345.960938 615.828125 347.277344 C 616.128906 347.363281 616.308594 347.414062 616.570312 347.523438 L 613.003906 359.867188 C 616.472656 360.507812 619.054688 358.679688 619.855469 355.910156 C 620.472656 353.773438 620.035156 352.015625 619.078125 350.367188 L 620.789062 349.296875 C 622.082031 351.367188 622.707031 353.601562 621.855469 356.550781 C 620.621094 360.828125 616.332031 363.371094 611.511719 361.980469 "/>
<path style=" stroke:none;fill-rule:nonzero;fill:rgb(26.670837%,25.335693%,25.666809%);fill-opacity:1;" d="M 604.042969 331.011719 L 604.390625 328.621094 L 620.019531 330.90625 L 612.257812 320.9375 L 612.695312 317.960938 L 618.59375 325.695312 L 628.757812 320.085938 L 628.339844 322.9375 L 620.027344 327.582031 L 622.839844 331.320312 L 627.023438 331.929688 L 626.675781 334.320312 Z M 604.042969 331.011719 "/>
<path style=" stroke:none;fill-rule:nonzero;fill:rgb(26.670837%,25.335693%,25.666809%);fill-opacity:1;" d="M 612.898438 314.21875 L 613.089844 311.816406 L 629.242188 313.125 L 629.042969 315.53125 Z M 606.699219 313.875 L 606.921875 311.125 L 609.578125 311.34375 L 609.355469 314.089844 Z M 606.699219 313.875 "/>
<path style=" stroke:none;fill-rule:nonzero;fill:rgb(26.670837%,25.335693%,25.666809%);fill-opacity:1;" d="M 613.457031 306.359375 L 613.527344 303.945312 L 617.757812 304.074219 C 615.101562 302.800781 613.226562 300.394531 613.445312 297.328125 L 616.046875 297.40625 L 616.042969 297.59375 C 615.933594 301.132812 618.386719 304.09375 623.269531 304.242188 L 629.726562 304.433594 L 629.652344 306.847656 Z M 613.457031 306.359375 "/>
<path style=" stroke:none;fill-rule:nonzero;fill:rgb(26.670837%,25.335693%,25.666809%);fill-opacity:1;" d="M 607.070312 294.136719 L 606.96875 291.722656 L 622.746094 291.039062 L 613.257812 282.699219 L 613.128906 279.691406 L 620.371094 286.1875 L 629.304688 278.773438 L 629.429688 281.652344 L 622.132812 287.773438 L 625.597656 290.914062 L 629.824219 290.734375 L 629.925781 293.144531 Z M 607.070312 294.136719 "/>
<path style=" stroke:none;fill-rule:nonzero;fill:rgb(26.670837%,25.335693%,25.666809%);fill-opacity:1;" d="M 618.480469 264.320312 C 615.589844 264.945312 613.257812 266.949219 613.667969 270.152344 C 614.03125 272.949219 616.632812 274.761719 619.8125 274.667969 Z M 621.054688 276.972656 L 620.992188 276.980469 C 616.363281 277.578125 612.210938 274.792969 611.640625 270.347656 C 611.03125 265.59375 614.46875 262.371094 619.164062 261.765625 C 619.472656 261.726562 619.660156 261.703125 619.945312 261.699219 L 621.582031 274.441406 C 625.019531 273.652344 626.664062 270.945312 626.292969 268.085938 C 626.011719 265.878906 624.910156 264.441406 623.375 263.308594 L 624.519531 261.644531 C 626.53125 263.03125 627.996094 264.832031 628.386719 267.878906 C 628.953125 272.292969 626.03125 276.335938 621.054688 276.972656 "/>
<path style=" stroke:none;fill-rule:nonzero;fill:rgb(26.670837%,25.335693%,25.666809%);fill-opacity:1;" d="M 610.195312 258.878906 L 609.707031 256.515625 L 613.847656 255.65625 C 610.96875 255.039062 608.585938 253.132812 608.082031 250.101562 L 610.628906 249.570312 L 610.667969 249.753906 C 611.390625 253.222656 614.460938 255.527344 619.25 254.535156 L 625.570312 253.21875 L 626.058594 255.582031 Z M 610.195312 258.878906 "/>
<path style=" stroke:none;fill-rule:nonzero;fill:rgb(26.670837%,25.335693%,25.666809%);fill-opacity:1;" d="M 211.472656 192.496094 L 216.035156 185.234375 L 242.015625 190.652344 L 225.867188 169.59375 L 230.324219 162.503906 L 252.84375 193.527344 L 249.191406 199.335938 Z M 211.472656 192.496094 "/>
<path style=" stroke:none;fill-rule:nonzero;fill:rgb(26.670837%,25.335693%,25.666809%);fill-opacity:1;" d="M 236.6875 155.390625 L 241.683594 149.4375 L 268.738281 172.148438 L 263.742188 178.097656 Z M 236.6875 155.390625 "/>
<path style=" stroke:none;fill-rule:nonzero;fill:rgb(26.670837%,25.335693%,25.666809%);fill-opacity:1;" d="M 262.140625 128.3125 L 283.023438 111.761719 L 287.316406 117.179688 L 272.484375 128.933594 L 276.933594 134.550781 L 289.988281 124.207031 L 294.28125 129.625 L 281.230469 139.96875 L 285.835938 145.785156 L 300.867188 133.875 L 305.160156 139.292969 L 284.078125 155.996094 Z M 262.140625 128.3125 "/>
<path style=" stroke:none;fill-rule:nonzero;fill:rgb(26.670837%,25.335693%,25.666809%);fill-opacity:1;" d="M 314.890625 112.890625 C 318.222656 111.09375 319.175781 108.289062 317.765625 105.667969 L 317.714844 105.578125 C 316.136719 102.644531 313.28125 102.234375 309.949219 104.03125 L 303.148438 107.691406 L 307.957031 116.621094 Z M 292.980469 105.199219 L 307.199219 97.542969 C 311.152344 95.414062 314.816406 94.875 317.960938 95.816406 C 320.628906 96.617188 322.878906 98.558594 324.457031 101.492188 L 324.503906 101.578125 C 327.207031 106.601562 326.195312 111.214844 323.03125 114.8125 L 336.609375 121.828125 L 328.613281 126.132812 L 316.589844 119.769531 L 311.210938 122.664062 L 316.570312 132.617188 L 309.730469 136.300781 Z M 292.980469 105.199219 "/>
<path style=" stroke:none;fill-rule:nonzero;fill:rgb(26.670837%,25.335693%,25.666809%);fill-opacity:1;" d="M 346.125 81.144531 L 372.003906 74.804688 L 373.648438 81.519531 L 355.269531 86.019531 L 356.972656 92.980469 L 373.148438 89.019531 L 374.792969 95.730469 L 358.617188 99.695312 L 360.382812 106.898438 L 379.007812 102.335938 L 380.652344 109.050781 L 354.53125 115.453125 Z M 346.125 81.144531 "/>
<path style=" stroke:none;fill-rule:nonzero;fill:rgb(26.670837%,25.335693%,25.666809%);fill-opacity:1;" d="M 384.035156 72.867188 L 391.191406 72.472656 L 408.914062 93.277344 L 407.714844 71.5625 L 415.375 71.140625 L 417.316406 106.410156 L 410.71875 106.773438 L 392.402344 85.292969 L 393.636719 107.714844 L 385.980469 108.136719 Z M 384.035156 72.867188 "/>
<path style=" stroke:none;fill-rule:nonzero;fill:rgb(26.670837%,25.335693%,25.666809%);fill-opacity:1;" d="M 452.363281 82.183594 L 447.753906 102.972656 L 453.617188 104.273438 C 459.824219 105.652344 464.9375 102.390625 466.296875 96.28125 L 466.316406 96.183594 C 467.671875 90.074219 464.433594 84.859375 458.226562 83.480469 Z M 446.292969 73.652344 L 459.746094 76.632812 C 470.585938 79.035156 476.421875 88.136719 474.269531 97.84375 L 474.25 97.941406 C 472.097656 107.648438 462.933594 113.527344 452.097656 111.125 L 438.644531 108.140625 Z M 446.292969 73.652344 "/>
<path style=" stroke:none;fill-rule:nonzero;fill:rgb(26.670837%,25.335693%,25.666809%);fill-opacity:1;" d="M 489.300781 84.726562 L 513.808594 95.183594 L 511.09375 101.542969 L 493.6875 94.113281 L 490.875 100.707031 L 506.195312 107.242188 L 503.480469 113.601562 L 488.164062 107.066406 L 485.25 113.886719 L 502.890625 121.414062 L 500.175781 127.773438 L 475.4375 117.21875 Z M 489.300781 84.726562 "/>
<path style=" stroke:none;fill-rule:nonzero;fill:rgb(26.670837%,25.335693%,25.666809%);fill-opacity:1;" d="M 523.945312 100.765625 L 530.5 104.9375 L 515.324219 128.78125 L 530.179688 138.238281 L 526.386719 144.199219 L 504.972656 130.566406 Z M 523.945312 100.765625 "/>
<path style=" stroke:none;fill-rule:nonzero;fill:rgb(26.670837%,25.335693%,25.666809%);fill-opacity:1;" d="M 565.71875 160.871094 L 570.890625 149.625 L 559.316406 154.007812 Z M 575.34375 140.710938 L 580.230469 145.953125 L 564.542969 181.289062 L 559.003906 175.347656 L 562.59375 167.582031 L 552.402344 156.664062 L 544.40625 159.707031 L 539.003906 153.914062 Z M 575.34375 140.710938 "/>
<path style=" stroke:none;fill-rule:nonzero;fill:rgb(26.670837%,25.335693%,25.666809%);fill-opacity:1;" d="M 596.277344 165.757812 L 610.753906 188.425781 L 604.800781 192.226562 L 594.507812 176.109375 L 588.171875 180.15625 L 597.242188 194.359375 L 591.289062 198.164062 L 582.214844 183.957031 L 570.691406 191.320312 L 566.507812 184.769531 Z M 596.277344 165.757812 "/>
</g>
</svg>
