<?xml version="1.0" encoding="utf-8"?>
<!-- Generator: Adobe Illustrator 22.1.0, SVG Export Plug-In . SVG Version: 6.00 Build 0)  -->
<svg version="1.1" id="Layer_1" xmlns="http://www.w3.org/2000/svg" xmlns:xlink="http://www.w3.org/1999/xlink" x="0px" y="0px"
	 viewBox="0 0 64 64" style="enable-background:new 0 0 64 64;" xml:space="preserve">
<style type="text/css">
	.st0{fill:none;}
</style>
<g>
	<path class="st0" d="M0.8,63.9h2.4c0-0.2,0.1-0.3,0.2-0.4c0.3-0.3,0.9-0.3,1.2,0c0.1,0.1,0.2,0.3,0.2,0.4h2.4
		c0-0.2,0.1-0.3,0.2-0.4c0.3-0.3,0.9-0.3,1.2,0c0.1,0.1,0.2,0.3,0.2,0.4h2.4c0-0.2,0.1-0.3,0.2-0.4c0.3-0.3,0.9-0.3,1.2,0
		c0.1,0.1,0.2,0.3,0.2,0.4h2.4c0-0.2,0.1-0.3,0.2-0.4c0.3-0.3,0.9-0.3,1.2,0c0.1,0.1,0.2,0.3,0.2,0.4h2.4c0-0.2,0.1-0.3,0.2-0.4
		c0.3-0.3,0.9-0.3,1.2,0c0.1,0.1,0.2,0.3,0.2,0.4h2.4c0-0.2,0.1-0.3,0.2-0.4c0.3-0.3,0.9-0.3,1.2,0c0.1,0.1,0.2,0.3,0.2,0.4h2.4
		c0-0.2,0.1-0.3,0.2-0.4c0.3-0.3,0.9-0.3,1.2,0c0.1,0.1,0.2,0.3,0.2,0.4h2.4c0-0.2,0.1-0.3,0.2-0.4c0.3-0.3,0.9-0.3,1.2,0
		c0.1,0.1,0.2,0.3,0.2,0.4h2.4c0-0.2,0.1-0.3,0.2-0.4c0.3-0.3,0.9-0.3,1.2,0c0.1,0.1,0.2,0.3,0.2,0.4h2.4c0-0.2,0.1-0.3,0.2-0.4
		c0.3-0.3,0.9-0.3,1.2,0c0.1,0.1,0.2,0.3,0.2,0.4h2.4c0-0.2,0.1-0.3,0.2-0.4c0.3-0.3,0.9-0.3,1.2,0c0.1,0.1,0.2,0.3,0.2,0.4h2.4
		c0-0.2,0.1-0.3,0.2-0.4c0.3-0.3,0.9-0.3,1.2,0c0.1,0.1,0.2,0.3,0.2,0.4h2.4c0-0.2,0.1-0.3,0.2-0.4c0.3-0.3,0.9-0.3,1.2,0
		c0.1,0.1,0.2,0.3,0.2,0.4h2.4c0-0.2,0.1-0.3,0.2-0.4c0.3-0.3,0.9-0.3,1.2,0c0.1,0.1,0.2,0.3,0.2,0.4h2.4c0-0.2,0.1-0.3,0.2-0.4
		c0.3-0.3,0.9-0.3,1.2,0c0.1,0.1,0.2,0.3,0.2,0.4h2.4c0-0.2,0.1-0.3,0.2-0.4c0.1-0.1,0.3-0.2,0.5-0.2v-2.3c-0.2,0-0.4-0.1-0.5-0.2
		c-0.3-0.3-0.3-0.9,0-1.2c0.1-0.1,0.3-0.2,0.5-0.2v-2.3c-0.2,0-0.4-0.1-0.5-0.2c-0.3-0.3-0.3-0.9,0-1.2c0.1-0.1,0.3-0.2,0.5-0.2
		v-2.3c-0.2,0-0.4-0.1-0.5-0.2c-0.3-0.3-0.3-0.9,0-1.2c0.1-0.1,0.3-0.2,0.5-0.2v-2.3c-0.2,0-0.4-0.1-0.5-0.2c-0.3-0.3-0.3-0.9,0-1.2
		c0.1-0.1,0.3-0.2,0.5-0.2v-2.3c-0.2,0-0.4-0.1-0.5-0.2c-0.3-0.3-0.3-0.9,0-1.2c0.1-0.1,0.3-0.2,0.5-0.2v-2.3
		c-0.2,0-0.4-0.1-0.5-0.2c-0.3-0.3-0.3-0.9,0-1.2c0.1-0.1,0.3-0.2,0.5-0.2v-2.3c-0.2,0-0.4-0.1-0.5-0.2c-0.3-0.3-0.3-0.9,0-1.2
		c0.1-0.1,0.3-0.2,0.5-0.2v-2.3c-0.2,0-0.4-0.1-0.5-0.2c-0.3-0.3-0.3-0.9,0-1.2c0.1-0.1,0.3-0.2,0.5-0.2v-2.3
		c-0.2,0-0.4-0.1-0.5-0.2c-0.3-0.3-0.3-0.9,0-1.2c0.1-0.1,0.3-0.2,0.5-0.2v-2.3c-0.2,0-0.4-0.1-0.5-0.2c-0.3-0.3-0.3-0.9,0-1.2
		c0.1-0.1,0.3-0.2,0.5-0.2v-2.3c-0.2,0-0.4-0.1-0.5-0.2c-0.3-0.3-0.3-0.9,0-1.2c0.1-0.1,0.3-0.2,0.5-0.2v-2.3
		c-0.2,0-0.4-0.1-0.5-0.2c-0.3-0.3-0.3-0.9,0-1.2c0.1-0.1,0.3-0.2,0.5-0.2v-2.3c-0.2,0-0.4-0.1-0.5-0.2c-0.3-0.3-0.3-0.9,0-1.2
		c0.1-0.1,0.3-0.2,0.5-0.2V8.9c-0.2,0-0.4-0.1-0.5-0.2c-0.3-0.3-0.3-0.9,0-1.2c0.1-0.1,0.3-0.2,0.5-0.2V4.9c-0.2,0-0.4-0.1-0.5-0.2
		c-0.3-0.3-0.3-0.9,0-1.2c0.1-0.1,0.3-0.2,0.5-0.2V0.9c-0.2,0-0.4-0.1-0.5-0.2c-0.2-0.2-0.3-0.4-0.2-0.7h-2.3c0,0.2-0.1,0.5-0.2,0.7
		c-0.3,0.3-0.9,0.3-1.2,0c-0.2-0.2-0.3-0.4-0.2-0.7h-2.3c0,0.2-0.1,0.5-0.2,0.7c-0.3,0.3-0.9,0.3-1.2,0c-0.2-0.2-0.3-0.4-0.2-0.7
		h-2.3c0,0.2-0.1,0.5-0.2,0.7c-0.3,0.3-0.9,0.3-1.2,0c-0.2-0.2-0.3-0.4-0.2-0.7h-2.3c0,0.2-0.1,0.5-0.2,0.7c-0.3,0.3-0.9,0.3-1.2,0
		c-0.2-0.2-0.3-0.4-0.2-0.7h-2.3c0,0.2-0.1,0.5-0.2,0.7c-0.3,0.3-0.9,0.3-1.2,0c-0.2-0.2-0.3-0.4-0.2-0.7h-2.3
		c0,0.2-0.1,0.5-0.2,0.7c-0.3,0.3-0.9,0.3-1.2,0c-0.2-0.2-0.3-0.4-0.2-0.7h-2.3c0,0.2-0.1,0.5-0.2,0.7c-0.3,0.3-0.9,0.3-1.2,0
		c-0.2-0.2-0.3-0.4-0.2-0.7h-2.3c0,0.2-0.1,0.5-0.2,0.7c-0.3,0.3-0.9,0.3-1.2,0c-0.2-0.2-0.3-0.4-0.2-0.7h-2.3
		c0,0.2-0.1,0.5-0.2,0.7c-0.3,0.3-0.9,0.3-1.2,0c-0.2-0.2-0.3-0.4-0.2-0.7h-2.3c0,0.2-0.1,0.5-0.2,0.7c-0.3,0.3-0.9,0.3-1.2,0
		c-0.2-0.2-0.3-0.4-0.2-0.7h-2.3c0,0.2-0.1,0.5-0.2,0.7c-0.3,0.3-0.9,0.3-1.2,0c-0.2-0.2-0.3-0.4-0.2-0.7h-2.3
		c0,0.2-0.1,0.5-0.2,0.7c-0.3,0.3-0.9,0.3-1.2,0c-0.2-0.2-0.3-0.4-0.2-0.7h-2.3c0,0.2-0.1,0.5-0.2,0.7c-0.3,0.3-0.9,0.3-1.2,0
		c-0.2-0.2-0.3-0.4-0.2-0.7H8.9c0,0.2-0.1,0.5-0.2,0.7C8.3,1,7.7,1,7.4,0.7C7.2,0.5,7.2,0.3,7.2,0H4.9c0,0.2-0.1,0.5-0.2,0.7
		C4.3,1,3.7,1,3.4,0.7C3.2,0.5,3.2,0.3,3.2,0H0.9c0,0.2-0.1,0.5-0.2,0.7C0.5,0.8,0.3,0.9,0.1,0.9v2.3c0.2,0,0.4,0.1,0.5,0.2
		c0.3,0.3,0.3,0.9,0,1.2C0.5,4.8,0.3,4.9,0.1,4.9v2.3c0.2,0,0.4,0.1,0.5,0.2c0.3,0.3,0.3,0.9,0,1.2C0.5,8.8,0.3,8.9,0.1,8.9v2.3
		c0.2,0,0.4,0.1,0.5,0.2c0.3,0.3,0.3,0.9,0,1.2c-0.1,0.1-0.3,0.2-0.5,0.2v2.3c0.2,0,0.4,0.1,0.5,0.2c0.3,0.3,0.3,0.9,0,1.2
		c-0.1,0.1-0.3,0.2-0.5,0.2v2.3c0.2,0,0.4,0.1,0.5,0.2c0.3,0.3,0.3,0.9,0,1.2c-0.1,0.1-0.3,0.2-0.5,0.2v2.3c0.2,0,0.4,0.1,0.5,0.2
		c0.3,0.3,0.3,0.9,0,1.2c-0.1,0.1-0.3,0.2-0.5,0.2v2.3c0.2,0,0.4,0.1,0.5,0.2c0.3,0.3,0.3,0.9,0,1.2c-0.1,0.1-0.3,0.2-0.5,0.2v2.3
		c0.2,0,0.4,0.1,0.5,0.2c0.3,0.3,0.3,0.9,0,1.2c-0.1,0.1-0.3,0.2-0.5,0.2v2.3c0.2,0,0.4,0.1,0.5,0.2c0.3,0.3,0.3,0.9,0,1.2
		c-0.1,0.1-0.3,0.2-0.5,0.2v2.3c0.2,0,0.4,0.1,0.5,0.2c0.3,0.3,0.3,0.9,0,1.2c-0.1,0.1-0.3,0.2-0.5,0.2v2.3c0.2,0,0.4,0.1,0.5,0.2
		c0.3,0.3,0.3,0.9,0,1.2c-0.1,0.1-0.3,0.2-0.5,0.2v2.3c0.2,0,0.4,0.1,0.5,0.2c0.3,0.3,0.3,0.9,0,1.2c-0.1,0.1-0.3,0.2-0.5,0.2v2.3
		c0.2,0,0.4,0.1,0.5,0.2c0.3,0.3,0.3,0.9,0,1.2c-0.1,0.1-0.3,0.2-0.5,0.2v2.3c0.2,0,0.4,0.1,0.5,0.2c0.3,0.3,0.3,0.9,0,1.2
		c-0.1,0.1-0.3,0.2-0.5,0.2v2.3c0.2,0,0.4,0.1,0.5,0.2c0.3,0.3,0.3,0.9,0,1.2c-0.1,0.1-0.3,0.2-0.5,0.2v2.3c0.2,0,0.4,0.1,0.5,0.2
		C0.7,63.6,0.8,63.8,0.8,63.9z M59.4,3.5c0.3-0.3,0.9-0.3,1.2,0c0.3,0.3,0.3,0.9,0,1.2c-0.3,0.3-0.9,0.3-1.2,0
		C59.1,4.4,59.1,3.8,59.4,3.5z M59.4,7.5c0.3-0.3,0.9-0.3,1.2,0c0.3,0.3,0.3,0.9,0,1.2c-0.3,0.3-0.9,0.3-1.2,0
		C59.1,8.4,59.1,7.8,59.4,7.5z M59.4,11.5c0.3-0.3,0.9-0.3,1.2,0c0.3,0.3,0.3,0.9,0,1.2c-0.3,0.3-0.9,0.3-1.2,0
		C59.1,12.4,59.1,11.8,59.4,11.5z M59.4,15.5c0.3-0.3,0.9-0.3,1.2,0c0.3,0.3,0.3,0.9,0,1.2c-0.3,0.3-0.9,0.3-1.2,0
		C59.1,16.4,59.1,15.8,59.4,15.5z M59.4,19.5c0.3-0.3,0.9-0.3,1.2,0c0.3,0.3,0.3,0.9,0,1.2c-0.3,0.3-0.9,0.3-1.2,0
		C59.1,20.4,59.1,19.8,59.4,19.5z M59.4,23.5c0.3-0.3,0.9-0.3,1.2,0c0.3,0.3,0.3,0.9,0,1.2c-0.3,0.3-0.9,0.3-1.2,0
		C59.1,24.4,59.1,23.8,59.4,23.5z M59.4,27.5c0.3-0.3,0.9-0.3,1.2,0c0.3,0.3,0.3,0.9,0,1.2c-0.3,0.3-0.9,0.3-1.2,0
		C59.1,28.4,59.1,27.8,59.4,27.5z M59.4,31.5c0.3-0.3,0.9-0.3,1.2,0c0.3,0.3,0.3,0.9,0,1.2c-0.3,0.3-0.9,0.3-1.2,0
		C59.1,32.4,59.1,31.8,59.4,31.5z M59.4,35.5c0.3-0.3,0.9-0.3,1.2,0c0.3,0.3,0.3,0.9,0,1.2c-0.3,0.3-0.9,0.3-1.2,0
		C59.1,36.4,59.1,35.8,59.4,35.5z M59.4,39.5c0.3-0.3,0.9-0.3,1.2,0c0.3,0.3,0.3,0.9,0,1.2c-0.3,0.3-0.9,0.3-1.2,0
		C59.1,40.4,59.1,39.8,59.4,39.5z M59.4,43.5c0.3-0.3,0.9-0.3,1.2,0c0.3,0.3,0.3,0.9,0,1.2c-0.3,0.3-0.9,0.3-1.2,0
		C59.1,44.4,59.1,43.8,59.4,43.5z M59.4,47.5c0.3-0.3,0.9-0.3,1.2,0c0.3,0.3,0.3,0.9,0,1.2c-0.3,0.3-0.9,0.3-1.2,0
		C59.1,48.4,59.1,47.8,59.4,47.5z M59.4,51.5c0.3-0.3,0.9-0.3,1.2,0c0.3,0.3,0.3,0.9,0,1.2c-0.3,0.3-0.9,0.3-1.2,0
		C59.1,52.4,59.1,51.8,59.4,51.5z M59.4,55.5c0.3-0.3,0.9-0.3,1.2,0c0.3,0.3,0.3,0.9,0,1.2c-0.3,0.3-0.9,0.3-1.2,0
		C59.1,56.4,59.1,55.8,59.4,55.5z M59.4,59.5c0.3-0.3,0.9-0.3,1.2,0c0.3,0.3,0.3,0.9,0,1.2c-0.3,0.3-0.9,0.3-1.2,0
		C59.1,60.4,59.1,59.8,59.4,59.5z M55.4,3.5c0.3-0.3,0.9-0.3,1.2,0c0.3,0.3,0.3,0.9,0,1.2c-0.3,0.3-0.9,0.3-1.2,0
		C55.1,4.4,55.1,3.8,55.4,3.5z M55.4,7.5c0.3-0.3,0.9-0.3,1.2,0c0.3,0.3,0.3,0.9,0,1.2c-0.3,0.3-0.9,0.3-1.2,0
		C55.1,8.4,55.1,7.8,55.4,7.5z M55.4,11.5c0.3-0.3,0.9-0.3,1.2,0c0.3,0.3,0.3,0.9,0,1.2c-0.3,0.3-0.9,0.3-1.2,0
		C55.1,12.4,55.1,11.8,55.4,11.5z M55.4,15.5c0.3-0.3,0.9-0.3,1.2,0c0.3,0.3,0.3,0.9,0,1.2c-0.3,0.3-0.9,0.3-1.2,0
		C55.1,16.4,55.1,15.8,55.4,15.5z M55.4,19.5c0.3-0.3,0.9-0.3,1.2,0c0.3,0.3,0.3,0.9,0,1.2c-0.3,0.3-0.9,0.3-1.2,0
		C55.1,20.4,55.1,19.8,55.4,19.5z M55.4,23.5c0.3-0.3,0.9-0.3,1.2,0c0.3,0.3,0.3,0.9,0,1.2c-0.3,0.3-0.9,0.3-1.2,0
		C55.1,24.4,55.1,23.8,55.4,23.5z M55.4,27.5c0.3-0.3,0.9-0.3,1.2,0c0.3,0.3,0.3,0.9,0,1.2c-0.3,0.3-0.9,0.3-1.2,0
		C55.1,28.4,55.1,27.8,55.4,27.5z M55.4,31.5c0.3-0.3,0.9-0.3,1.2,0c0.3,0.3,0.3,0.9,0,1.2c-0.3,0.3-0.9,0.3-1.2,0
		C55.1,32.4,55.1,31.8,55.4,31.5z M55.4,35.5c0.3-0.3,0.9-0.3,1.2,0c0.3,0.3,0.3,0.9,0,1.2c-0.3,0.3-0.9,0.3-1.2,0
		C55.1,36.4,55.1,35.8,55.4,35.5z M55.4,39.5c0.3-0.3,0.9-0.3,1.2,0c0.3,0.3,0.3,0.9,0,1.2c-0.3,0.3-0.9,0.3-1.2,0
		C55.1,40.4,55.1,39.8,55.4,39.5z M55.4,43.5c0.3-0.3,0.9-0.3,1.2,0c0.3,0.3,0.3,0.9,0,1.2c-0.3,0.3-0.9,0.3-1.2,0
		C55.1,44.4,55.1,43.8,55.4,43.5z M55.4,47.5c0.3-0.3,0.9-0.3,1.2,0c0.3,0.3,0.3,0.9,0,1.2c-0.3,0.3-0.9,0.3-1.2,0
		C55.1,48.4,55.1,47.8,55.4,47.5z M55.4,51.5c0.3-0.3,0.9-0.3,1.2,0c0.3,0.3,0.3,0.9,0,1.2c-0.3,0.3-0.9,0.3-1.2,0
		C55.1,52.4,55.1,51.8,55.4,51.5z M55.4,55.5c0.3-0.3,0.9-0.3,1.2,0c0.3,0.3,0.3,0.9,0,1.2c-0.3,0.3-0.9,0.3-1.2,0
		C55.1,56.4,55.1,55.8,55.4,55.5z M55.4,59.5c0.3-0.3,0.9-0.3,1.2,0c0.3,0.3,0.3,0.9,0,1.2c-0.3,0.3-0.9,0.3-1.2,0
		C55.1,60.4,55.1,59.8,55.4,59.5z M51.4,3.5c0.3-0.3,0.9-0.3,1.2,0c0.3,0.3,0.3,0.9,0,1.2c-0.3,0.3-0.9,0.3-1.2,0
		C51.1,4.4,51.1,3.8,51.4,3.5z M51.4,7.5c0.3-0.3,0.9-0.3,1.2,0c0.3,0.3,0.3,0.9,0,1.2c-0.3,0.3-0.9,0.3-1.2,0
		C51.1,8.4,51.1,7.8,51.4,7.5z M51.4,11.5c0.3-0.3,0.9-0.3,1.2,0c0.3,0.3,0.3,0.9,0,1.2c-0.3,0.3-0.9,0.3-1.2,0
		C51.1,12.4,51.1,11.8,51.4,11.5z M51.4,15.5c0.3-0.3,0.9-0.3,1.2,0c0.3,0.3,0.3,0.9,0,1.2c-0.3,0.3-0.9,0.3-1.2,0
		C51.1,16.4,51.1,15.8,51.4,15.5z M51.4,19.5c0.3-0.3,0.9-0.3,1.2,0c0.3,0.3,0.3,0.9,0,1.2c-0.3,0.3-0.9,0.3-1.2,0
		C51.1,20.4,51.1,19.8,51.4,19.5z M51.4,23.5c0.3-0.3,0.9-0.3,1.2,0c0.3,0.3,0.3,0.9,0,1.2c-0.3,0.3-0.9,0.3-1.2,0
		C51.1,24.4,51.1,23.8,51.4,23.5z M51.4,27.5c0.3-0.3,0.9-0.3,1.2,0c0.3,0.3,0.3,0.9,0,1.2c-0.3,0.3-0.9,0.3-1.2,0
		C51.1,28.4,51.1,27.8,51.4,27.5z M51.4,31.5c0.3-0.3,0.9-0.3,1.2,0c0.3,0.3,0.3,0.9,0,1.2c-0.3,0.3-0.9,0.3-1.2,0
		C51.1,32.4,51.1,31.8,51.4,31.5z M51.4,35.5c0.3-0.3,0.9-0.3,1.2,0c0.3,0.3,0.3,0.9,0,1.2c-0.3,0.3-0.9,0.3-1.2,0
		C51.1,36.4,51.1,35.8,51.4,35.5z M51.4,39.5c0.3-0.3,0.9-0.3,1.2,0c0.3,0.3,0.3,0.9,0,1.2c-0.3,0.3-0.9,0.3-1.2,0
		C51.1,40.4,51.1,39.8,51.4,39.5z M51.4,43.5c0.3-0.3,0.9-0.3,1.2,0c0.3,0.3,0.3,0.9,0,1.2c-0.3,0.3-0.9,0.3-1.2,0
		C51.1,44.4,51.1,43.8,51.4,43.5z M51.4,47.5c0.3-0.3,0.9-0.3,1.2,0c0.3,0.3,0.3,0.9,0,1.2c-0.3,0.3-0.9,0.3-1.2,0
		C51.1,48.4,51.1,47.8,51.4,47.5z M51.4,51.5c0.3-0.3,0.9-0.3,1.2,0c0.3,0.3,0.3,0.9,0,1.2c-0.3,0.3-0.9,0.3-1.2,0
		C51.1,52.4,51.1,51.8,51.4,51.5z M51.4,55.5c0.3-0.3,0.9-0.3,1.2,0c0.3,0.3,0.3,0.9,0,1.2c-0.3,0.3-0.9,0.3-1.2,0
		C51.1,56.4,51.1,55.8,51.4,55.5z M51.4,59.5c0.3-0.3,0.9-0.3,1.2,0c0.3,0.3,0.3,0.9,0,1.2c-0.3,0.3-0.9,0.3-1.2,0
		C51.1,60.4,51.1,59.8,51.4,59.5z M47.4,3.5c0.3-0.3,0.9-0.3,1.2,0c0.3,0.3,0.3,0.9,0,1.2c-0.3,0.3-0.9,0.3-1.2,0
		C47.1,4.4,47.1,3.8,47.4,3.5z M47.4,7.5c0.3-0.3,0.9-0.3,1.2,0c0.3,0.3,0.3,0.9,0,1.2c-0.3,0.3-0.9,0.3-1.2,0
		C47.1,8.4,47.1,7.8,47.4,7.5z M47.4,11.5c0.3-0.3,0.9-0.3,1.2,0c0.3,0.3,0.3,0.9,0,1.2c-0.3,0.3-0.9,0.3-1.2,0
		C47.1,12.4,47.1,11.8,47.4,11.5z M47.4,15.5c0.3-0.3,0.9-0.3,1.2,0c0.3,0.3,0.3,0.9,0,1.2c-0.3,0.3-0.9,0.3-1.2,0
		C47.1,16.4,47.1,15.8,47.4,15.5z M47.4,19.5c0.3-0.3,0.9-0.3,1.2,0c0.3,0.3,0.3,0.9,0,1.2c-0.3,0.3-0.9,0.3-1.2,0
		C47.1,20.4,47.1,19.8,47.4,19.5z M47.4,23.5c0.3-0.3,0.9-0.3,1.2,0c0.3,0.3,0.3,0.9,0,1.2c-0.3,0.3-0.9,0.3-1.2,0
		C47.1,24.4,47.1,23.8,47.4,23.5z M47.4,27.5c0.3-0.3,0.9-0.3,1.2,0c0.3,0.3,0.3,0.9,0,1.2c-0.3,0.3-0.9,0.3-1.2,0
		C47.1,28.4,47.1,27.8,47.4,27.5z M47.4,31.5c0.3-0.3,0.9-0.3,1.2,0c0.3,0.3,0.3,0.9,0,1.2c-0.3,0.3-0.9,0.3-1.2,0
		C47.1,32.4,47.1,31.8,47.4,31.5z M47.4,35.5c0.3-0.3,0.9-0.3,1.2,0c0.3,0.3,0.3,0.9,0,1.2c-0.3,0.3-0.9,0.3-1.2,0
		C47.1,36.4,47.1,35.8,47.4,35.5z M47.4,39.5c0.3-0.3,0.9-0.3,1.2,0c0.3,0.3,0.3,0.9,0,1.2c-0.3,0.3-0.9,0.3-1.2,0
		C47.1,40.4,47.1,39.8,47.4,39.5z M47.4,43.5c0.3-0.3,0.9-0.3,1.2,0c0.3,0.3,0.3,0.9,0,1.2c-0.3,0.3-0.9,0.3-1.2,0
		C47.1,44.4,47.1,43.8,47.4,43.5z M47.4,47.5c0.3-0.3,0.9-0.3,1.2,0c0.3,0.3,0.3,0.9,0,1.2c-0.3,0.3-0.9,0.3-1.2,0
		C47.1,48.4,47.1,47.8,47.4,47.5z M47.4,51.5c0.3-0.3,0.9-0.3,1.2,0c0.3,0.3,0.3,0.9,0,1.2c-0.3,0.3-0.9,0.3-1.2,0
		C47.1,52.4,47.1,51.8,47.4,51.5z M47.4,55.5c0.3-0.3,0.9-0.3,1.2,0c0.3,0.3,0.3,0.9,0,1.2c-0.3,0.3-0.9,0.3-1.2,0
		C47.1,56.4,47.1,55.8,47.4,55.5z M47.4,59.5c0.3-0.3,0.9-0.3,1.2,0c0.3,0.3,0.3,0.9,0,1.2c-0.3,0.3-0.9,0.3-1.2,0
		C47.1,60.4,47.1,59.8,47.4,59.5z M43.4,3.5c0.3-0.3,0.9-0.3,1.2,0c0.3,0.3,0.3,0.9,0,1.2c-0.3,0.3-0.9,0.3-1.2,0
		C43.1,4.4,43.1,3.8,43.4,3.5z M43.4,7.5c0.3-0.3,0.9-0.3,1.2,0c0.3,0.3,0.3,0.9,0,1.2c-0.3,0.3-0.9,0.3-1.2,0
		C43.1,8.4,43.1,7.8,43.4,7.5z M43.4,11.5c0.3-0.3,0.9-0.3,1.2,0c0.3,0.3,0.3,0.9,0,1.2c-0.3,0.3-0.9,0.3-1.2,0
		C43.1,12.4,43.1,11.8,43.4,11.5z M43.4,15.5c0.3-0.3,0.9-0.3,1.2,0c0.3,0.3,0.3,0.9,0,1.2c-0.3,0.3-0.9,0.3-1.2,0
		C43.1,16.4,43.1,15.8,43.4,15.5z M43.4,19.5c0.3-0.3,0.9-0.3,1.2,0c0.3,0.3,0.3,0.9,0,1.2c-0.3,0.3-0.9,0.3-1.2,0
		C43.1,20.4,43.1,19.8,43.4,19.5z M43.4,23.5c0.3-0.3,0.9-0.3,1.2,0c0.3,0.3,0.3,0.9,0,1.2c-0.3,0.3-0.9,0.3-1.2,0
		C43.1,24.4,43.1,23.8,43.4,23.5z M43.4,27.5c0.3-0.3,0.9-0.3,1.2,0c0.3,0.3,0.3,0.9,0,1.2c-0.3,0.3-0.9,0.3-1.2,0
		C43.1,28.4,43.1,27.8,43.4,27.5z M43.4,31.5c0.3-0.3,0.9-0.3,1.2,0c0.3,0.3,0.3,0.9,0,1.2c-0.3,0.3-0.9,0.3-1.2,0
		C43.1,32.4,43.1,31.8,43.4,31.5z M43.4,35.5c0.3-0.3,0.9-0.3,1.2,0c0.3,0.3,0.3,0.9,0,1.2c-0.3,0.3-0.9,0.3-1.2,0
		C43.1,36.4,43.1,35.8,43.4,35.5z M43.4,39.5c0.3-0.3,0.9-0.3,1.2,0c0.3,0.3,0.3,0.9,0,1.2c-0.3,0.3-0.9,0.3-1.2,0
		C43.1,40.4,43.1,39.8,43.4,39.5z M43.4,43.5c0.3-0.3,0.9-0.3,1.2,0c0.3,0.3,0.3,0.9,0,1.2c-0.3,0.3-0.9,0.3-1.2,0
		C43.1,44.4,43.1,43.8,43.4,43.5z M43.4,47.5c0.3-0.3,0.9-0.3,1.2,0c0.3,0.3,0.3,0.9,0,1.2c-0.3,0.3-0.9,0.3-1.2,0
		C43.1,48.4,43.1,47.8,43.4,47.5z M43.4,51.5c0.3-0.3,0.9-0.3,1.2,0c0.3,0.3,0.3,0.9,0,1.2c-0.3,0.3-0.9,0.3-1.2,0
		C43.1,52.4,43.1,51.8,43.4,51.5z M43.4,55.5c0.3-0.3,0.9-0.3,1.2,0c0.3,0.3,0.3,0.9,0,1.2c-0.3,0.3-0.9,0.3-1.2,0
		C43.1,56.4,43.1,55.8,43.4,55.5z M43.4,59.5c0.3-0.3,0.9-0.3,1.2,0c0.3,0.3,0.3,0.9,0,1.2c-0.3,0.3-0.9,0.3-1.2,0
		C43.1,60.4,43.1,59.8,43.4,59.5z M39.4,3.5c0.3-0.3,0.9-0.3,1.2,0c0.3,0.3,0.3,0.9,0,1.2c-0.3,0.3-0.9,0.3-1.2,0
		C39.1,4.4,39.1,3.8,39.4,3.5z M39.4,7.5c0.3-0.3,0.9-0.3,1.2,0c0.3,0.3,0.3,0.9,0,1.2c-0.3,0.3-0.9,0.3-1.2,0
		C39.1,8.4,39.1,7.8,39.4,7.5z M39.4,11.5c0.3-0.3,0.9-0.3,1.2,0c0.3,0.3,0.3,0.9,0,1.2c-0.3,0.3-0.9,0.3-1.2,0
		C39.1,12.4,39.1,11.8,39.4,11.5z M39.4,15.5c0.3-0.3,0.9-0.3,1.2,0c0.3,0.3,0.3,0.9,0,1.2c-0.3,0.3-0.9,0.3-1.2,0
		C39.1,16.4,39.1,15.8,39.4,15.5z M39.4,19.5c0.3-0.3,0.9-0.3,1.2,0c0.3,0.3,0.3,0.9,0,1.2c-0.3,0.3-0.9,0.3-1.2,0
		C39.1,20.4,39.1,19.8,39.4,19.5z M39.4,23.5c0.3-0.3,0.9-0.3,1.2,0c0.3,0.3,0.3,0.9,0,1.2c-0.3,0.3-0.9,0.3-1.2,0
		C39.1,24.4,39.1,23.8,39.4,23.5z M39.4,27.5c0.3-0.3,0.9-0.3,1.2,0c0.3,0.3,0.3,0.9,0,1.2c-0.3,0.3-0.9,0.3-1.2,0
		C39.1,28.4,39.1,27.8,39.4,27.5z M39.4,31.5c0.3-0.3,0.9-0.3,1.2,0c0.3,0.3,0.3,0.9,0,1.2c-0.3,0.3-0.9,0.3-1.2,0
		C39.1,32.4,39.1,31.8,39.4,31.5z M39.4,35.5c0.3-0.3,0.9-0.3,1.2,0c0.3,0.3,0.3,0.9,0,1.2c-0.3,0.3-0.9,0.3-1.2,0
		C39.1,36.4,39.1,35.8,39.4,35.5z M39.4,39.5c0.3-0.3,0.9-0.3,1.2,0c0.3,0.3,0.3,0.9,0,1.2c-0.3,0.3-0.9,0.3-1.2,0
		C39.1,40.4,39.1,39.8,39.4,39.5z M39.4,43.5c0.3-0.3,0.9-0.3,1.2,0c0.3,0.3,0.3,0.9,0,1.2c-0.3,0.3-0.9,0.3-1.2,0
		C39.1,44.4,39.1,43.8,39.4,43.5z M39.4,47.5c0.3-0.3,0.9-0.3,1.2,0c0.3,0.3,0.3,0.9,0,1.2c-0.3,0.3-0.9,0.3-1.2,0
		C39.1,48.4,39.1,47.8,39.4,47.5z M39.4,51.5c0.3-0.3,0.9-0.3,1.2,0c0.3,0.3,0.3,0.9,0,1.2c-0.3,0.3-0.9,0.3-1.2,0
		C39.1,52.4,39.1,51.8,39.4,51.5z M39.4,55.5c0.3-0.3,0.9-0.3,1.2,0c0.3,0.3,0.3,0.9,0,1.2c-0.3,0.3-0.9,0.3-1.2,0
		C39.1,56.4,39.1,55.8,39.4,55.5z M39.4,59.5c0.3-0.3,0.9-0.3,1.2,0c0.3,0.3,0.3,0.9,0,1.2c-0.3,0.3-0.9,0.3-1.2,0
		C39.1,60.4,39.1,59.8,39.4,59.5z M35.4,3.5c0.3-0.3,0.9-0.3,1.2,0c0.3,0.3,0.3,0.9,0,1.2c-0.3,0.3-0.9,0.3-1.2,0
		C35.1,4.4,35.1,3.8,35.4,3.5z M35.4,7.5c0.3-0.3,0.9-0.3,1.2,0c0.3,0.3,0.3,0.9,0,1.2c-0.3,0.3-0.9,0.3-1.2,0
		C35.1,8.4,35.1,7.8,35.4,7.5z M35.4,11.5c0.3-0.3,0.9-0.3,1.2,0c0.3,0.3,0.3,0.9,0,1.2c-0.3,0.3-0.9,0.3-1.2,0
		C35.1,12.4,35.1,11.8,35.4,11.5z M35.4,15.5c0.3-0.3,0.9-0.3,1.2,0c0.3,0.3,0.3,0.9,0,1.2c-0.3,0.3-0.9,0.3-1.2,0
		C35.1,16.4,35.1,15.8,35.4,15.5z M35.4,19.5c0.3-0.3,0.9-0.3,1.2,0c0.3,0.3,0.3,0.9,0,1.2c-0.3,0.3-0.9,0.3-1.2,0
		C35.1,20.4,35.1,19.8,35.4,19.5z M35.4,23.5c0.3-0.3,0.9-0.3,1.2,0c0.3,0.3,0.3,0.9,0,1.2c-0.3,0.3-0.9,0.3-1.2,0
		C35.1,24.4,35.1,23.8,35.4,23.5z M35.4,27.5c0.3-0.3,0.9-0.3,1.2,0c0.3,0.3,0.3,0.9,0,1.2c-0.3,0.3-0.9,0.3-1.2,0
		C35.1,28.4,35.1,27.8,35.4,27.5z M35.4,31.5c0.3-0.3,0.9-0.3,1.2,0c0.3,0.3,0.3,0.9,0,1.2c-0.3,0.3-0.9,0.3-1.2,0
		C35.1,32.4,35.1,31.8,35.4,31.5z M35.4,35.5c0.3-0.3,0.9-0.3,1.2,0c0.3,0.3,0.3,0.9,0,1.2c-0.3,0.3-0.9,0.3-1.2,0
		C35.1,36.4,35.1,35.8,35.4,35.5z M35.4,39.5c0.3-0.3,0.9-0.3,1.2,0c0.3,0.3,0.3,0.9,0,1.2c-0.3,0.3-0.9,0.3-1.2,0
		C35.1,40.4,35.1,39.8,35.4,39.5z M35.4,43.5c0.3-0.3,0.9-0.3,1.2,0c0.3,0.3,0.3,0.9,0,1.2c-0.3,0.3-0.9,0.3-1.2,0
		C35.1,44.4,35.1,43.8,35.4,43.5z M35.4,47.5c0.3-0.3,0.9-0.3,1.2,0c0.3,0.3,0.3,0.9,0,1.2c-0.3,0.3-0.9,0.3-1.2,0
		C35.1,48.4,35.1,47.8,35.4,47.5z M35.4,51.5c0.3-0.3,0.9-0.3,1.2,0c0.3,0.3,0.3,0.9,0,1.2c-0.3,0.3-0.9,0.3-1.2,0
		C35.1,52.4,35.1,51.8,35.4,51.5z M35.4,55.5c0.3-0.3,0.9-0.3,1.2,0c0.3,0.3,0.3,0.9,0,1.2c-0.3,0.3-0.9,0.3-1.2,0
		C35.1,56.4,35.1,55.8,35.4,55.5z M35.4,59.5c0.3-0.3,0.9-0.3,1.2,0c0.3,0.3,0.3,0.9,0,1.2c-0.3,0.3-0.9,0.3-1.2,0
		C35.1,60.4,35.1,59.8,35.4,59.5z M31.4,3.5c0.3-0.3,0.9-0.3,1.2,0c0.3,0.3,0.3,0.9,0,1.2c-0.3,0.3-0.9,0.3-1.2,0
		C31.1,4.4,31.1,3.8,31.4,3.5z M31.4,7.5c0.3-0.3,0.9-0.3,1.2,0c0.3,0.3,0.3,0.9,0,1.2c-0.3,0.3-0.9,0.3-1.2,0
		C31.1,8.4,31.1,7.8,31.4,7.5z M31.4,11.5c0.3-0.3,0.9-0.3,1.2,0c0.3,0.3,0.3,0.9,0,1.2c-0.3,0.3-0.9,0.3-1.2,0
		C31.1,12.4,31.1,11.8,31.4,11.5z M31.4,15.5c0.3-0.3,0.9-0.3,1.2,0c0.3,0.3,0.3,0.9,0,1.2c-0.3,0.3-0.9,0.3-1.2,0
		C31.1,16.4,31.1,15.8,31.4,15.5z M31.4,19.5c0.3-0.3,0.9-0.3,1.2,0c0.3,0.3,0.3,0.9,0,1.2c-0.3,0.3-0.9,0.3-1.2,0
		C31.1,20.4,31.1,19.8,31.4,19.5z M31.4,23.5c0.3-0.3,0.9-0.3,1.2,0c0.3,0.3,0.3,0.9,0,1.2c-0.3,0.3-0.9,0.3-1.2,0
		C31.1,24.4,31.1,23.8,31.4,23.5z M31.4,27.5c0.3-0.3,0.9-0.3,1.2,0c0.3,0.3,0.3,0.9,0,1.2c-0.3,0.3-0.9,0.3-1.2,0
		C31.1,28.4,31.1,27.8,31.4,27.5z M31.4,31.5c0.3-0.3,0.9-0.3,1.2,0c0.3,0.3,0.3,0.9,0,1.2c-0.3,0.3-0.9,0.3-1.2,0
		C31.1,32.4,31.1,31.8,31.4,31.5z M31.4,35.5c0.3-0.3,0.9-0.3,1.2,0c0.3,0.3,0.3,0.9,0,1.2c-0.3,0.3-0.9,0.3-1.2,0
		C31.1,36.4,31.1,35.8,31.4,35.5z M31.4,39.5c0.3-0.3,0.9-0.3,1.2,0c0.3,0.3,0.3,0.9,0,1.2c-0.3,0.3-0.9,0.3-1.2,0
		C31.1,40.4,31.1,39.8,31.4,39.5z M31.4,43.5c0.3-0.3,0.9-0.3,1.2,0c0.3,0.3,0.3,0.9,0,1.2c-0.3,0.3-0.9,0.3-1.2,0
		C31.1,44.4,31.1,43.8,31.4,43.5z M31.4,47.5c0.3-0.3,0.9-0.3,1.2,0c0.3,0.3,0.3,0.9,0,1.2c-0.3,0.3-0.9,0.3-1.2,0
		C31.1,48.4,31.1,47.8,31.4,47.5z M31.4,51.5c0.3-0.3,0.9-0.3,1.2,0c0.3,0.3,0.3,0.9,0,1.2c-0.3,0.3-0.9,0.3-1.2,0
		C31.1,52.4,31.1,51.8,31.4,51.5z M31.4,55.5c0.3-0.3,0.9-0.3,1.2,0c0.3,0.3,0.3,0.9,0,1.2c-0.3,0.3-0.9,0.3-1.2,0
		C31.1,56.4,31.1,55.8,31.4,55.5z M31.4,59.5c0.3-0.3,0.9-0.3,1.2,0c0.3,0.3,0.3,0.9,0,1.2c-0.3,0.3-0.9,0.3-1.2,0
		C31.1,60.4,31.1,59.8,31.4,59.5z M27.4,3.5c0.3-0.3,0.9-0.3,1.2,0c0.3,0.3,0.3,0.9,0,1.2c-0.3,0.3-0.9,0.3-1.2,0
		C27.1,4.4,27.1,3.8,27.4,3.5z M27.4,7.5c0.3-0.3,0.9-0.3,1.2,0c0.3,0.3,0.3,0.9,0,1.2c-0.3,0.3-0.9,0.3-1.2,0
		C27.1,8.4,27.1,7.8,27.4,7.5z M27.4,11.5c0.3-0.3,0.9-0.3,1.2,0c0.3,0.3,0.3,0.9,0,1.2c-0.3,0.3-0.9,0.3-1.2,0
		C27.1,12.4,27.1,11.8,27.4,11.5z M27.4,15.5c0.3-0.3,0.9-0.3,1.2,0c0.3,0.3,0.3,0.9,0,1.2c-0.3,0.3-0.9,0.3-1.2,0
		C27.1,16.4,27.1,15.8,27.4,15.5z M27.4,19.5c0.3-0.3,0.9-0.3,1.2,0c0.3,0.3,0.3,0.9,0,1.2c-0.3,0.3-0.9,0.3-1.2,0
		C27.1,20.4,27.1,19.8,27.4,19.5z M27.4,23.5c0.3-0.3,0.9-0.3,1.2,0c0.3,0.3,0.3,0.9,0,1.2c-0.3,0.3-0.9,0.3-1.2,0
		C27.1,24.4,27.1,23.8,27.4,23.5z M27.4,27.5c0.3-0.3,0.9-0.3,1.2,0c0.3,0.3,0.3,0.9,0,1.2c-0.3,0.3-0.9,0.3-1.2,0
		C27.1,28.4,27.1,27.8,27.4,27.5z M27.4,31.5c0.3-0.3,0.9-0.3,1.2,0c0.3,0.3,0.3,0.9,0,1.2c-0.3,0.3-0.9,0.3-1.2,0
		C27.1,32.4,27.1,31.8,27.4,31.5z M27.4,35.5c0.3-0.3,0.9-0.3,1.2,0c0.3,0.3,0.3,0.9,0,1.2c-0.3,0.3-0.9,0.3-1.2,0
		C27.1,36.4,27.1,35.8,27.4,35.5z M27.4,39.5c0.3-0.3,0.9-0.3,1.2,0c0.3,0.3,0.3,0.9,0,1.2c-0.3,0.3-0.9,0.3-1.2,0
		C27.1,40.4,27.1,39.8,27.4,39.5z M27.4,43.5c0.3-0.3,0.9-0.3,1.2,0c0.3,0.3,0.3,0.9,0,1.2c-0.3,0.3-0.9,0.3-1.2,0
		C27.1,44.4,27.1,43.8,27.4,43.5z M27.4,47.5c0.3-0.3,0.9-0.3,1.2,0c0.3,0.3,0.3,0.9,0,1.2c-0.3,0.3-0.9,0.3-1.2,0
		C27.1,48.4,27.1,47.8,27.4,47.5z M27.4,51.5c0.3-0.3,0.9-0.3,1.2,0c0.3,0.3,0.3,0.9,0,1.2c-0.3,0.3-0.9,0.3-1.2,0
		C27.1,52.4,27.1,51.8,27.4,51.5z M27.4,55.5c0.3-0.3,0.9-0.3,1.2,0c0.3,0.3,0.3,0.9,0,1.2c-0.3,0.3-0.9,0.3-1.2,0
		C27.1,56.4,27.1,55.8,27.4,55.5z M27.4,59.5c0.3-0.3,0.9-0.3,1.2,0c0.3,0.3,0.3,0.9,0,1.2c-0.3,0.3-0.9,0.3-1.2,0
		C27.1,60.4,27.1,59.8,27.4,59.5z M23.4,3.5c0.3-0.3,0.9-0.3,1.2,0c0.3,0.3,0.3,0.9,0,1.2c-0.3,0.3-0.9,0.3-1.2,0
		C23.1,4.4,23.1,3.8,23.4,3.5z M23.4,7.5c0.3-0.3,0.9-0.3,1.2,0c0.3,0.3,0.3,0.9,0,1.2c-0.3,0.3-0.9,0.3-1.2,0
		C23.1,8.4,23.1,7.8,23.4,7.5z M23.4,11.5c0.3-0.3,0.9-0.3,1.2,0c0.3,0.3,0.3,0.9,0,1.2c-0.3,0.3-0.9,0.3-1.2,0
		C23.1,12.4,23.1,11.8,23.4,11.5z M23.4,15.5c0.3-0.3,0.9-0.3,1.2,0c0.3,0.3,0.3,0.9,0,1.2c-0.3,0.3-0.9,0.3-1.2,0
		C23.1,16.4,23.1,15.8,23.4,15.5z M23.4,19.5c0.3-0.3,0.9-0.3,1.2,0c0.3,0.3,0.3,0.9,0,1.2c-0.3,0.3-0.9,0.3-1.2,0
		C23.1,20.4,23.1,19.8,23.4,19.5z M23.4,23.5c0.3-0.3,0.9-0.3,1.2,0c0.3,0.3,0.3,0.9,0,1.2c-0.3,0.3-0.9,0.3-1.2,0
		C23.1,24.4,23.1,23.8,23.4,23.5z M23.4,27.5c0.3-0.3,0.9-0.3,1.2,0c0.3,0.3,0.3,0.9,0,1.2c-0.3,0.3-0.9,0.3-1.2,0
		C23.1,28.4,23.1,27.8,23.4,27.5z M23.4,31.5c0.3-0.3,0.9-0.3,1.2,0c0.3,0.3,0.3,0.9,0,1.2c-0.3,0.3-0.9,0.3-1.2,0
		C23.1,32.4,23.1,31.8,23.4,31.5z M23.4,35.5c0.3-0.3,0.9-0.3,1.2,0c0.3,0.3,0.3,0.9,0,1.2c-0.3,0.3-0.9,0.3-1.2,0
		C23.1,36.4,23.1,35.8,23.4,35.5z M23.4,39.5c0.3-0.3,0.9-0.3,1.2,0c0.3,0.3,0.3,0.9,0,1.2c-0.3,0.3-0.9,0.3-1.2,0
		C23.1,40.4,23.1,39.8,23.4,39.5z M23.4,43.5c0.3-0.3,0.9-0.3,1.2,0c0.3,0.3,0.3,0.9,0,1.2c-0.3,0.3-0.9,0.3-1.2,0
		C23.1,44.4,23.1,43.8,23.4,43.5z M23.4,47.5c0.3-0.3,0.9-0.3,1.2,0c0.3,0.3,0.3,0.9,0,1.2c-0.3,0.3-0.9,0.3-1.2,0
		C23.1,48.4,23.1,47.8,23.4,47.5z M23.4,51.5c0.3-0.3,0.9-0.3,1.2,0c0.3,0.3,0.3,0.9,0,1.2c-0.3,0.3-0.9,0.3-1.2,0
		C23.1,52.4,23.1,51.8,23.4,51.5z M23.4,55.5c0.3-0.3,0.9-0.3,1.2,0c0.3,0.3,0.3,0.9,0,1.2c-0.3,0.3-0.9,0.3-1.2,0
		C23.1,56.4,23.1,55.8,23.4,55.5z M23.4,59.5c0.3-0.3,0.9-0.3,1.2,0c0.3,0.3,0.3,0.9,0,1.2c-0.3,0.3-0.9,0.3-1.2,0
		C23.1,60.4,23.1,59.8,23.4,59.5z M19.4,3.5c0.3-0.3,0.9-0.3,1.2,0c0.3,0.3,0.3,0.9,0,1.2c-0.3,0.3-0.9,0.3-1.2,0
		C19.1,4.4,19.1,3.8,19.4,3.5z M19.4,7.5c0.3-0.3,0.9-0.3,1.2,0c0.3,0.3,0.3,0.9,0,1.2c-0.3,0.3-0.9,0.3-1.2,0
		C19.1,8.4,19.1,7.8,19.4,7.5z M19.4,11.5c0.3-0.3,0.9-0.3,1.2,0c0.3,0.3,0.3,0.9,0,1.2c-0.3,0.3-0.9,0.3-1.2,0
		C19.1,12.4,19.1,11.8,19.4,11.5z M19.4,15.5c0.3-0.3,0.9-0.3,1.2,0c0.3,0.3,0.3,0.9,0,1.2c-0.3,0.3-0.9,0.3-1.2,0
		C19.1,16.4,19.1,15.8,19.4,15.5z M19.4,19.5c0.3-0.3,0.9-0.3,1.2,0c0.3,0.3,0.3,0.9,0,1.2c-0.3,0.3-0.9,0.3-1.2,0
		C19.1,20.4,19.1,19.8,19.4,19.5z M19.4,23.5c0.3-0.3,0.9-0.3,1.2,0c0.3,0.3,0.3,0.9,0,1.2c-0.3,0.3-0.9,0.3-1.2,0
		C19.1,24.4,19.1,23.8,19.4,23.5z M19.4,27.5c0.3-0.3,0.9-0.3,1.2,0c0.3,0.3,0.3,0.9,0,1.2c-0.3,0.3-0.9,0.3-1.2,0
		C19.1,28.4,19.1,27.8,19.4,27.5z M19.4,31.5c0.3-0.3,0.9-0.3,1.2,0c0.3,0.3,0.3,0.9,0,1.2c-0.3,0.3-0.9,0.3-1.2,0
		C19.1,32.4,19.1,31.8,19.4,31.5z M19.4,35.5c0.3-0.3,0.9-0.3,1.2,0c0.3,0.3,0.3,0.9,0,1.2c-0.3,0.3-0.9,0.3-1.2,0
		C19.1,36.4,19.1,35.8,19.4,35.5z M19.4,39.5c0.3-0.3,0.9-0.3,1.2,0c0.3,0.3,0.3,0.9,0,1.2c-0.3,0.3-0.9,0.3-1.2,0
		C19.1,40.4,19.1,39.8,19.4,39.5z M19.4,43.5c0.3-0.3,0.9-0.3,1.2,0c0.3,0.3,0.3,0.9,0,1.2c-0.3,0.3-0.9,0.3-1.2,0
		C19.1,44.4,19.1,43.8,19.4,43.5z M19.4,47.5c0.3-0.3,0.9-0.3,1.2,0c0.3,0.3,0.3,0.9,0,1.2c-0.3,0.3-0.9,0.3-1.2,0
		C19.1,48.4,19.1,47.8,19.4,47.5z M19.4,51.5c0.3-0.3,0.9-0.3,1.2,0c0.3,0.3,0.3,0.9,0,1.2c-0.3,0.3-0.9,0.3-1.2,0
		C19.1,52.4,19.1,51.8,19.4,51.5z M19.4,55.5c0.3-0.3,0.9-0.3,1.2,0c0.3,0.3,0.3,0.9,0,1.2c-0.3,0.3-0.9,0.3-1.2,0
		C19.1,56.4,19.1,55.8,19.4,55.5z M19.4,59.5c0.3-0.3,0.9-0.3,1.2,0c0.3,0.3,0.3,0.9,0,1.2c-0.3,0.3-0.9,0.3-1.2,0
		C19.1,60.4,19.1,59.8,19.4,59.5z M15.4,3.5c0.3-0.3,0.9-0.3,1.2,0c0.3,0.3,0.3,0.9,0,1.2c-0.3,0.3-0.9,0.3-1.2,0
		C15.1,4.4,15.1,3.8,15.4,3.5z M15.4,7.5c0.3-0.3,0.9-0.3,1.2,0c0.3,0.3,0.3,0.9,0,1.2c-0.3,0.3-0.9,0.3-1.2,0
		C15.1,8.4,15.1,7.8,15.4,7.5z M15.4,11.5c0.3-0.3,0.9-0.3,1.2,0c0.3,0.3,0.3,0.9,0,1.2c-0.3,0.3-0.9,0.3-1.2,0
		C15.1,12.4,15.1,11.8,15.4,11.5z M15.4,15.5c0.3-0.3,0.9-0.3,1.2,0c0.3,0.3,0.3,0.9,0,1.2c-0.3,0.3-0.9,0.3-1.2,0
		C15.1,16.4,15.1,15.8,15.4,15.5z M15.4,19.5c0.3-0.3,0.9-0.3,1.2,0c0.3,0.3,0.3,0.9,0,1.2c-0.3,0.3-0.9,0.3-1.2,0
		C15.1,20.4,15.1,19.8,15.4,19.5z M15.4,23.5c0.3-0.3,0.9-0.3,1.2,0c0.3,0.3,0.3,0.9,0,1.2c-0.3,0.3-0.9,0.3-1.2,0
		C15.1,24.4,15.1,23.8,15.4,23.5z M15.4,27.5c0.3-0.3,0.9-0.3,1.2,0c0.3,0.3,0.3,0.9,0,1.2c-0.3,0.3-0.9,0.3-1.2,0
		C15.1,28.4,15.1,27.8,15.4,27.5z M15.4,31.5c0.3-0.3,0.9-0.3,1.2,0c0.3,0.3,0.3,0.9,0,1.2c-0.3,0.3-0.9,0.3-1.2,0
		C15.1,32.4,15.1,31.8,15.4,31.5z M15.4,35.5c0.3-0.3,0.9-0.3,1.2,0c0.3,0.3,0.3,0.9,0,1.2c-0.3,0.3-0.9,0.3-1.2,0
		C15.1,36.4,15.1,35.8,15.4,35.5z M15.4,39.5c0.3-0.3,0.9-0.3,1.2,0c0.3,0.3,0.3,0.9,0,1.2c-0.3,0.3-0.9,0.3-1.2,0
		C15.1,40.4,15.1,39.8,15.4,39.5z M15.4,43.5c0.3-0.3,0.9-0.3,1.2,0c0.3,0.3,0.3,0.9,0,1.2c-0.3,0.3-0.9,0.3-1.2,0
		C15.1,44.4,15.1,43.8,15.4,43.5z M15.4,47.5c0.3-0.3,0.9-0.3,1.2,0c0.3,0.3,0.3,0.9,0,1.2c-0.3,0.3-0.9,0.3-1.2,0
		C15.1,48.4,15.1,47.8,15.4,47.5z M15.4,51.5c0.3-0.3,0.9-0.3,1.2,0c0.3,0.3,0.3,0.9,0,1.2c-0.3,0.3-0.9,0.3-1.2,0
		C15.1,52.4,15.1,51.8,15.4,51.5z M15.4,55.5c0.3-0.3,0.9-0.3,1.2,0c0.3,0.3,0.3,0.9,0,1.2c-0.3,0.3-0.9,0.3-1.2,0
		C15.1,56.4,15.1,55.8,15.4,55.5z M15.4,59.5c0.3-0.3,0.9-0.3,1.2,0c0.3,0.3,0.3,0.9,0,1.2c-0.3,0.3-0.9,0.3-1.2,0
		C15.1,60.4,15.1,59.8,15.4,59.5z M11.4,3.5c0.3-0.3,0.9-0.3,1.2,0c0.3,0.3,0.3,0.9,0,1.2c-0.3,0.3-0.9,0.3-1.2,0
		C11.1,4.4,11.1,3.8,11.4,3.5z M11.4,7.5c0.3-0.3,0.9-0.3,1.2,0c0.3,0.3,0.3,0.9,0,1.2c-0.3,0.3-0.9,0.3-1.2,0
		C11.1,8.4,11.1,7.8,11.4,7.5z M11.4,11.5c0.3-0.3,0.9-0.3,1.2,0c0.3,0.3,0.3,0.9,0,1.2c-0.3,0.3-0.9,0.3-1.2,0
		C11.1,12.4,11.1,11.8,11.4,11.5z M11.4,15.5c0.3-0.3,0.9-0.3,1.2,0c0.3,0.3,0.3,0.9,0,1.2c-0.3,0.3-0.9,0.3-1.2,0
		C11.1,16.4,11.1,15.8,11.4,15.5z M11.4,19.5c0.3-0.3,0.9-0.3,1.2,0c0.3,0.3,0.3,0.9,0,1.2c-0.3,0.3-0.9,0.3-1.2,0
		C11.1,20.4,11.1,19.8,11.4,19.5z M11.4,23.5c0.3-0.3,0.9-0.3,1.2,0c0.3,0.3,0.3,0.9,0,1.2c-0.3,0.3-0.9,0.3-1.2,0
		C11.1,24.4,11.1,23.8,11.4,23.5z M11.4,27.5c0.3-0.3,0.9-0.3,1.2,0c0.3,0.3,0.3,0.9,0,1.2c-0.3,0.3-0.9,0.3-1.2,0
		C11.1,28.4,11.1,27.8,11.4,27.5z M11.4,31.5c0.3-0.3,0.9-0.3,1.2,0c0.3,0.3,0.3,0.9,0,1.2c-0.3,0.3-0.9,0.3-1.2,0
		C11.1,32.4,11.1,31.8,11.4,31.5z M11.4,35.5c0.3-0.3,0.9-0.3,1.2,0c0.3,0.3,0.3,0.9,0,1.2c-0.3,0.3-0.9,0.3-1.2,0
		C11.1,36.4,11.1,35.8,11.4,35.5z M11.4,39.5c0.3-0.3,0.9-0.3,1.2,0c0.3,0.3,0.3,0.9,0,1.2c-0.3,0.3-0.9,0.3-1.2,0
		C11.1,40.4,11.1,39.8,11.4,39.5z M11.4,43.5c0.3-0.3,0.9-0.3,1.2,0c0.3,0.3,0.3,0.9,0,1.2c-0.3,0.3-0.9,0.3-1.2,0
		C11.1,44.4,11.1,43.8,11.4,43.5z M11.4,47.5c0.3-0.3,0.9-0.3,1.2,0c0.3,0.3,0.3,0.9,0,1.2c-0.3,0.3-0.9,0.3-1.2,0
		C11.1,48.4,11.1,47.8,11.4,47.5z M11.4,51.5c0.3-0.3,0.9-0.3,1.2,0c0.3,0.3,0.3,0.9,0,1.2c-0.3,0.3-0.9,0.3-1.2,0
		C11.1,52.4,11.1,51.8,11.4,51.5z M11.4,55.5c0.3-0.3,0.9-0.3,1.2,0c0.3,0.3,0.3,0.9,0,1.2c-0.3,0.3-0.9,0.3-1.2,0
		C11.1,56.4,11.1,55.8,11.4,55.5z M11.4,59.5c0.3-0.3,0.9-0.3,1.2,0c0.3,0.3,0.3,0.9,0,1.2c-0.3,0.3-0.9,0.3-1.2,0
		C11.1,60.4,11.1,59.8,11.4,59.5z M7.4,3.5c0.3-0.3,0.9-0.3,1.2,0c0.3,0.3,0.3,0.9,0,1.2C8.3,5,7.7,5,7.4,4.7
		C7.1,4.4,7.1,3.8,7.4,3.5z M7.4,7.5c0.3-0.3,0.9-0.3,1.2,0c0.3,0.3,0.3,0.9,0,1.2C8.3,9,7.7,9,7.4,8.7C7.1,8.4,7.1,7.8,7.4,7.5z
		 M7.4,11.5c0.3-0.3,0.9-0.3,1.2,0c0.3,0.3,0.3,0.9,0,1.2c-0.3,0.3-0.9,0.3-1.2,0C7.1,12.4,7.1,11.8,7.4,11.5z M7.4,15.5
		c0.3-0.3,0.9-0.3,1.2,0c0.3,0.3,0.3,0.9,0,1.2c-0.3,0.3-0.9,0.3-1.2,0C7.1,16.4,7.1,15.8,7.4,15.5z M7.4,19.5
		c0.3-0.3,0.9-0.3,1.2,0c0.3,0.3,0.3,0.9,0,1.2c-0.3,0.3-0.9,0.3-1.2,0C7.1,20.4,7.1,19.8,7.4,19.5z M7.4,23.5
		c0.3-0.3,0.9-0.3,1.2,0c0.3,0.3,0.3,0.9,0,1.2c-0.3,0.3-0.9,0.3-1.2,0C7.1,24.4,7.1,23.8,7.4,23.5z M7.4,27.5
		c0.3-0.3,0.9-0.3,1.2,0c0.3,0.3,0.3,0.9,0,1.2c-0.3,0.3-0.9,0.3-1.2,0C7.1,28.4,7.1,27.8,7.4,27.5z M7.4,31.5
		c0.3-0.3,0.9-0.3,1.2,0c0.3,0.3,0.3,0.9,0,1.2c-0.3,0.3-0.9,0.3-1.2,0C7.1,32.4,7.1,31.8,7.4,31.5z M7.4,35.5
		c0.3-0.3,0.9-0.3,1.2,0c0.3,0.3,0.3,0.9,0,1.2c-0.3,0.3-0.9,0.3-1.2,0C7.1,36.4,7.1,35.8,7.4,35.5z M7.4,39.5
		c0.3-0.3,0.9-0.3,1.2,0c0.3,0.3,0.3,0.9,0,1.2c-0.3,0.3-0.9,0.3-1.2,0C7.1,40.4,7.1,39.8,7.4,39.5z M7.4,43.5
		c0.3-0.3,0.9-0.3,1.2,0c0.3,0.3,0.3,0.9,0,1.2c-0.3,0.3-0.9,0.3-1.2,0C7.1,44.4,7.1,43.8,7.4,43.5z M7.4,47.5
		c0.3-0.3,0.9-0.3,1.2,0c0.3,0.3,0.3,0.9,0,1.2c-0.3,0.3-0.9,0.3-1.2,0C7.1,48.4,7.1,47.8,7.4,47.5z M7.4,51.5
		c0.3-0.3,0.9-0.3,1.2,0c0.3,0.3,0.3,0.9,0,1.2c-0.3,0.3-0.9,0.3-1.2,0C7.1,52.4,7.1,51.8,7.4,51.5z M7.4,55.5
		c0.3-0.3,0.9-0.3,1.2,0c0.3,0.3,0.3,0.9,0,1.2c-0.3,0.3-0.9,0.3-1.2,0C7.1,56.4,7.1,55.8,7.4,55.5z M7.4,59.5
		c0.3-0.3,0.9-0.3,1.2,0c0.3,0.3,0.3,0.9,0,1.2c-0.3,0.3-0.9,0.3-1.2,0C7.1,60.4,7.1,59.8,7.4,59.5z M3.4,3.5c0.3-0.3,0.9-0.3,1.2,0
		c0.3,0.3,0.3,0.9,0,1.2C4.3,5,3.7,5,3.4,4.7C3.1,4.4,3.1,3.8,3.4,3.5z M3.4,7.5c0.3-0.3,0.9-0.3,1.2,0c0.3,0.3,0.3,0.9,0,1.2
		C4.3,9,3.7,9,3.4,8.7C3.1,8.4,3.1,7.8,3.4,7.5z M3.4,11.5c0.3-0.3,0.9-0.3,1.2,0c0.3,0.3,0.3,0.9,0,1.2c-0.3,0.3-0.9,0.3-1.2,0
		C3.1,12.4,3.1,11.8,3.4,11.5z M3.4,15.5c0.3-0.3,0.9-0.3,1.2,0c0.3,0.3,0.3,0.9,0,1.2c-0.3,0.3-0.9,0.3-1.2,0
		C3.1,16.4,3.1,15.8,3.4,15.5z M3.4,19.5c0.3-0.3,0.9-0.3,1.2,0c0.3,0.3,0.3,0.9,0,1.2c-0.3,0.3-0.9,0.3-1.2,0
		C3.1,20.4,3.1,19.8,3.4,19.5z M3.4,23.5c0.3-0.3,0.9-0.3,1.2,0c0.3,0.3,0.3,0.9,0,1.2c-0.3,0.3-0.9,0.3-1.2,0
		C3.1,24.4,3.1,23.8,3.4,23.5z M3.4,27.5c0.3-0.3,0.9-0.3,1.2,0c0.3,0.3,0.3,0.9,0,1.2c-0.3,0.3-0.9,0.3-1.2,0
		C3.1,28.4,3.1,27.8,3.4,27.5z M3.4,31.5c0.3-0.3,0.9-0.3,1.2,0c0.3,0.3,0.3,0.9,0,1.2c-0.3,0.3-0.9,0.3-1.2,0
		C3.1,32.4,3.1,31.8,3.4,31.5z M3.4,35.5c0.3-0.3,0.9-0.3,1.2,0c0.3,0.3,0.3,0.9,0,1.2c-0.3,0.3-0.9,0.3-1.2,0
		C3.1,36.4,3.1,35.8,3.4,35.5z M3.4,39.5c0.3-0.3,0.9-0.3,1.2,0c0.3,0.3,0.3,0.9,0,1.2c-0.3,0.3-0.9,0.3-1.2,0
		C3.1,40.4,3.1,39.8,3.4,39.5z M3.4,43.5c0.3-0.3,0.9-0.3,1.2,0c0.3,0.3,0.3,0.9,0,1.2c-0.3,0.3-0.9,0.3-1.2,0
		C3.1,44.4,3.1,43.8,3.4,43.5z M3.4,47.5c0.3-0.3,0.9-0.3,1.2,0c0.3,0.3,0.3,0.9,0,1.2c-0.3,0.3-0.9,0.3-1.2,0
		C3.1,48.4,3.1,47.8,3.4,47.5z M3.4,51.5c0.3-0.3,0.9-0.3,1.2,0c0.3,0.3,0.3,0.9,0,1.2c-0.3,0.3-0.9,0.3-1.2,0
		C3.1,52.4,3.1,51.8,3.4,51.5z M3.4,55.5c0.3-0.3,0.9-0.3,1.2,0c0.3,0.3,0.3,0.9,0,1.2c-0.3,0.3-0.9,0.3-1.2,0
		C3.1,56.4,3.1,55.8,3.4,55.5z M3.4,59.5c0.3-0.3,0.9-0.3,1.2,0c0.3,0.3,0.3,0.9,0,1.2c-0.3,0.3-0.9,0.3-1.2,0
		C3.1,60.4,3.1,59.8,3.4,59.5z"/>
	<path d="M63.2,63.9h0.7v-0.7c-0.2,0-0.4,0.1-0.5,0.2C63.3,63.6,63.2,63.8,63.2,63.9z"/>
	<path d="M59.4,63.5c-0.1,0.1-0.2,0.3-0.2,0.4h1.6c0-0.2-0.1-0.3-0.2-0.4C60.3,63.2,59.7,63.2,59.4,63.5z"/>
	<path d="M55.4,63.5c-0.1,0.1-0.2,0.3-0.2,0.4h1.6c0-0.2-0.1-0.3-0.2-0.4C56.3,63.2,55.7,63.2,55.4,63.5z"/>
	<path d="M51.4,63.5c-0.1,0.1-0.2,0.3-0.2,0.4h1.6c0-0.2-0.1-0.3-0.2-0.4C52.3,63.2,51.7,63.2,51.4,63.5z"/>
	<path d="M47.4,63.5c-0.1,0.1-0.2,0.3-0.2,0.4h1.6c0-0.2-0.1-0.3-0.2-0.4C48.3,63.2,47.7,63.2,47.4,63.5z"/>
	<path d="M43.4,63.5c-0.1,0.1-0.2,0.3-0.2,0.4h1.6c0-0.2-0.1-0.3-0.2-0.4C44.3,63.2,43.7,63.2,43.4,63.5z"/>
	<path d="M39.4,63.5c-0.1,0.1-0.2,0.3-0.2,0.4h1.6c0-0.2-0.1-0.3-0.2-0.4C40.3,63.2,39.7,63.2,39.4,63.5z"/>
	<path d="M35.4,63.5c-0.1,0.1-0.2,0.3-0.2,0.4h1.6c0-0.2-0.1-0.3-0.2-0.4C36.3,63.2,35.7,63.2,35.4,63.5z"/>
	<path d="M31.4,63.5c-0.1,0.1-0.2,0.3-0.2,0.4h1.6c0-0.2-0.1-0.3-0.2-0.4C32.3,63.2,31.7,63.2,31.4,63.5z"/>
	<path d="M27.4,63.5c-0.1,0.1-0.2,0.3-0.2,0.4h1.6c0-0.2-0.1-0.3-0.2-0.4C28.3,63.2,27.7,63.2,27.4,63.5z"/>
	<path d="M23.4,63.5c-0.1,0.1-0.2,0.3-0.2,0.4h1.6c0-0.2-0.1-0.3-0.2-0.4C24.3,63.2,23.7,63.2,23.4,63.5z"/>
	<path d="M19.4,63.5c-0.1,0.1-0.2,0.3-0.2,0.4h1.6c0-0.2-0.1-0.3-0.2-0.4C20.3,63.2,19.7,63.2,19.4,63.5z"/>
	<path d="M15.4,63.5c-0.1,0.1-0.2,0.3-0.2,0.4h1.6c0-0.2-0.1-0.3-0.2-0.4C16.3,63.2,15.7,63.2,15.4,63.5z"/>
	<path d="M11.4,63.5c-0.1,0.1-0.2,0.3-0.2,0.4h1.6c0-0.2-0.1-0.3-0.2-0.4C12.3,63.2,11.7,63.2,11.4,63.5z"/>
	<path d="M7.4,63.5c-0.1,0.1-0.2,0.3-0.2,0.4h1.6c0-0.2-0.1-0.3-0.2-0.4C8.3,63.2,7.7,63.2,7.4,63.5z"/>
	<path d="M3.4,63.5c-0.1,0.1-0.2,0.3-0.2,0.4h1.6c0-0.2-0.1-0.3-0.2-0.4C4.3,63.2,3.7,63.2,3.4,63.5z"/>
	<path d="M0.6,63.5c-0.1-0.1-0.3-0.2-0.5-0.2v0.7h0.7C0.8,63.8,0.7,63.6,0.6,63.5z"/>
	<path d="M63.4,60.7c0.1,0.1,0.3,0.2,0.5,0.2v-1.7c-0.2,0-0.4,0.1-0.5,0.2C63.1,59.8,63.1,60.4,63.4,60.7z"/>
	<path d="M60.6,60.7c0.3-0.3,0.3-0.9,0-1.2c-0.3-0.3-0.9-0.3-1.2,0c-0.3,0.3-0.3,0.9,0,1.2C59.7,61,60.3,61,60.6,60.7z"/>
	<path d="M56.6,60.7c0.3-0.3,0.3-0.9,0-1.2c-0.3-0.3-0.9-0.3-1.2,0c-0.3,0.3-0.3,0.9,0,1.2C55.7,61,56.3,61,56.6,60.7z"/>
	<path d="M52.6,60.7c0.3-0.3,0.3-0.9,0-1.2c-0.3-0.3-0.9-0.3-1.2,0c-0.3,0.3-0.3,0.9,0,1.2C51.7,61,52.3,61,52.6,60.7z"/>
	<path d="M48.6,60.7c0.3-0.3,0.3-0.9,0-1.2c-0.3-0.3-0.9-0.3-1.2,0c-0.3,0.3-0.3,0.9,0,1.2C47.7,61,48.3,61,48.6,60.7z"/>
	<path d="M44.6,60.7c0.3-0.3,0.3-0.9,0-1.2c-0.3-0.3-0.9-0.3-1.2,0c-0.3,0.3-0.3,0.9,0,1.2C43.7,61,44.3,61,44.6,60.7z"/>
	<path d="M40.6,60.7c0.3-0.3,0.3-0.9,0-1.2c-0.3-0.3-0.9-0.3-1.2,0c-0.3,0.3-0.3,0.9,0,1.2C39.7,61,40.3,61,40.6,60.7z"/>
	<path d="M36.6,60.7c0.3-0.3,0.3-0.9,0-1.2c-0.3-0.3-0.9-0.3-1.2,0c-0.3,0.3-0.3,0.9,0,1.2C35.7,61,36.3,61,36.6,60.7z"/>
	<path d="M32.6,60.7c0.3-0.3,0.3-0.9,0-1.2c-0.3-0.3-0.9-0.3-1.2,0c-0.3,0.3-0.3,0.9,0,1.2C31.7,61,32.3,61,32.6,60.7z"/>
	<path d="M28.6,60.7c0.3-0.3,0.3-0.9,0-1.2c-0.3-0.3-0.9-0.3-1.2,0c-0.3,0.3-0.3,0.9,0,1.2C27.7,61,28.3,61,28.6,60.7z"/>
	<path d="M24.6,60.7c0.3-0.3,0.3-0.9,0-1.2c-0.3-0.3-0.9-0.3-1.2,0c-0.3,0.3-0.3,0.9,0,1.2C23.7,61,24.3,61,24.6,60.7z"/>
	<path d="M20.6,60.7c0.3-0.3,0.3-0.9,0-1.2c-0.3-0.3-0.9-0.3-1.2,0c-0.3,0.3-0.3,0.9,0,1.2C19.7,61,20.3,61,20.6,60.7z"/>
	<path d="M16.6,60.7c0.3-0.3,0.3-0.9,0-1.2c-0.3-0.3-0.9-0.3-1.2,0c-0.3,0.3-0.3,0.9,0,1.2C15.7,61,16.3,61,16.6,60.7z"/>
	<path d="M12.6,60.7c0.3-0.3,0.3-0.9,0-1.2c-0.3-0.3-0.9-0.3-1.2,0c-0.3,0.3-0.3,0.9,0,1.2C11.7,61,12.3,61,12.6,60.7z"/>
	<path d="M8.6,60.7c0.3-0.3,0.3-0.9,0-1.2c-0.3-0.3-0.9-0.3-1.2,0c-0.3,0.3-0.3,0.9,0,1.2C7.7,61,8.3,61,8.6,60.7z"/>
	<path d="M4.6,60.7c0.3-0.3,0.3-0.9,0-1.2c-0.3-0.3-0.9-0.3-1.2,0c-0.3,0.3-0.3,0.9,0,1.2C3.7,61,4.3,61,4.6,60.7z"/>
	<path d="M0.6,59.5c-0.1-0.1-0.3-0.2-0.5-0.2v1.7c0.2,0,0.4-0.1,0.5-0.2C0.9,60.4,0.9,59.8,0.6,59.5z"/>
	<path d="M63.4,56.7c0.1,0.1,0.3,0.2,0.5,0.2v-1.7c-0.2,0-0.4,0.1-0.5,0.2C63.1,55.8,63.1,56.4,63.4,56.7z"/>
	<path d="M60.6,56.7c0.3-0.3,0.3-0.9,0-1.2c-0.3-0.3-0.9-0.3-1.2,0c-0.3,0.3-0.3,0.9,0,1.2C59.7,57,60.3,57,60.6,56.7z"/>
	<path d="M56.6,56.7c0.3-0.3,0.3-0.9,0-1.2c-0.3-0.3-0.9-0.3-1.2,0c-0.3,0.3-0.3,0.9,0,1.2C55.7,57,56.3,57,56.6,56.7z"/>
	<path d="M52.6,56.7c0.3-0.3,0.3-0.9,0-1.2c-0.3-0.3-0.9-0.3-1.2,0c-0.3,0.3-0.3,0.9,0,1.2C51.7,57,52.3,57,52.6,56.7z"/>
	<path d="M48.6,56.7c0.3-0.3,0.3-0.9,0-1.2c-0.3-0.3-0.9-0.3-1.2,0c-0.3,0.3-0.3,0.9,0,1.2C47.7,57,48.3,57,48.6,56.7z"/>
	<path d="M44.6,56.7c0.3-0.3,0.3-0.9,0-1.2c-0.3-0.3-0.9-0.3-1.2,0c-0.3,0.3-0.3,0.9,0,1.2C43.7,57,44.3,57,44.6,56.7z"/>
	<path d="M40.6,56.7c0.3-0.3,0.3-0.9,0-1.2c-0.3-0.3-0.9-0.3-1.2,0c-0.3,0.3-0.3,0.9,0,1.2C39.7,57,40.3,57,40.6,56.7z"/>
	<path d="M36.6,56.7c0.3-0.3,0.3-0.9,0-1.2c-0.3-0.3-0.9-0.3-1.2,0c-0.3,0.3-0.3,0.9,0,1.2C35.7,57,36.3,57,36.6,56.7z"/>
	<path d="M32.6,56.7c0.3-0.3,0.3-0.9,0-1.2c-0.3-0.3-0.9-0.3-1.2,0c-0.3,0.3-0.3,0.9,0,1.2C31.7,57,32.3,57,32.6,56.7z"/>
	<path d="M28.6,56.7c0.3-0.3,0.3-0.9,0-1.2c-0.3-0.3-0.9-0.3-1.2,0c-0.3,0.3-0.3,0.9,0,1.2C27.7,57,28.3,57,28.6,56.7z"/>
	<path d="M24.6,56.7c0.3-0.3,0.3-0.9,0-1.2c-0.3-0.3-0.9-0.3-1.2,0c-0.3,0.3-0.3,0.9,0,1.2C23.7,57,24.3,57,24.6,56.7z"/>
	<path d="M20.6,56.7c0.3-0.3,0.3-0.9,0-1.2c-0.3-0.3-0.9-0.3-1.2,0c-0.3,0.3-0.3,0.9,0,1.2C19.7,57,20.3,57,20.6,56.7z"/>
	<path d="M16.6,56.7c0.3-0.3,0.3-0.9,0-1.2c-0.3-0.3-0.9-0.3-1.2,0c-0.3,0.3-0.3,0.9,0,1.2C15.7,57,16.3,57,16.6,56.7z"/>
	<path d="M12.6,56.7c0.3-0.3,0.3-0.9,0-1.2c-0.3-0.3-0.9-0.3-1.2,0c-0.3,0.3-0.3,0.9,0,1.2C11.7,57,12.3,57,12.6,56.7z"/>
	<path d="M8.6,56.7c0.3-0.3,0.3-0.9,0-1.2c-0.3-0.3-0.9-0.3-1.2,0c-0.3,0.3-0.3,0.9,0,1.2C7.7,57,8.3,57,8.6,56.7z"/>
	<path d="M4.6,56.7c0.3-0.3,0.3-0.9,0-1.2c-0.3-0.3-0.9-0.3-1.2,0c-0.3,0.3-0.3,0.9,0,1.2C3.7,57,4.3,57,4.6,56.7z"/>
	<path d="M0.6,55.5c-0.1-0.1-0.3-0.2-0.5-0.2v1.7c0.2,0,0.4-0.1,0.5-0.2C0.9,56.4,0.9,55.8,0.6,55.5z"/>
	<path d="M63.4,52.7c0.1,0.1,0.3,0.2,0.5,0.2v-1.7c-0.2,0-0.4,0.1-0.5,0.2C63.1,51.8,63.1,52.4,63.4,52.7z"/>
	<path d="M60.6,52.7c0.3-0.3,0.3-0.9,0-1.2c-0.3-0.3-0.9-0.3-1.2,0c-0.3,0.3-0.3,0.9,0,1.2C59.7,53,60.3,53,60.6,52.7z"/>
	<path d="M56.6,52.7c0.3-0.3,0.3-0.9,0-1.2c-0.3-0.3-0.9-0.3-1.2,0c-0.3,0.3-0.3,0.9,0,1.2C55.7,53,56.3,53,56.6,52.7z"/>
	<path d="M52.6,52.7c0.3-0.3,0.3-0.9,0-1.2c-0.3-0.3-0.9-0.3-1.2,0c-0.3,0.3-0.3,0.9,0,1.2C51.7,53,52.3,53,52.6,52.7z"/>
	<path d="M48.6,52.7c0.3-0.3,0.3-0.9,0-1.2c-0.3-0.3-0.9-0.3-1.2,0c-0.3,0.3-0.3,0.9,0,1.2C47.7,53,48.3,53,48.6,52.7z"/>
	<path d="M44.6,52.7c0.3-0.3,0.3-0.9,0-1.2c-0.3-0.3-0.9-0.3-1.2,0c-0.3,0.3-0.3,0.9,0,1.2C43.7,53,44.3,53,44.6,52.7z"/>
	<path d="M40.6,52.7c0.3-0.3,0.3-0.9,0-1.2c-0.3-0.3-0.9-0.3-1.2,0c-0.3,0.3-0.3,0.9,0,1.2C39.7,53,40.3,53,40.6,52.7z"/>
	<path d="M36.6,52.7c0.3-0.3,0.3-0.9,0-1.2c-0.3-0.3-0.9-0.3-1.2,0c-0.3,0.3-0.3,0.9,0,1.2C35.7,53,36.3,53,36.6,52.7z"/>
	<path d="M32.6,52.7c0.3-0.3,0.3-0.9,0-1.2c-0.3-0.3-0.9-0.3-1.2,0c-0.3,0.3-0.3,0.9,0,1.2C31.7,53,32.3,53,32.6,52.7z"/>
	<path d="M28.6,52.7c0.3-0.3,0.3-0.9,0-1.2c-0.3-0.3-0.9-0.3-1.2,0c-0.3,0.3-0.3,0.9,0,1.2C27.7,53,28.3,53,28.6,52.7z"/>
	<path d="M24.6,52.7c0.3-0.3,0.3-0.9,0-1.2c-0.3-0.3-0.9-0.3-1.2,0c-0.3,0.3-0.3,0.9,0,1.2C23.7,53,24.3,53,24.6,52.7z"/>
	<path d="M20.6,52.7c0.3-0.3,0.3-0.9,0-1.2c-0.3-0.3-0.9-0.3-1.2,0c-0.3,0.3-0.3,0.9,0,1.2C19.7,53,20.3,53,20.6,52.7z"/>
	<path d="M16.6,52.7c0.3-0.3,0.3-0.9,0-1.2c-0.3-0.3-0.9-0.3-1.2,0c-0.3,0.3-0.3,0.9,0,1.2C15.7,53,16.3,53,16.6,52.7z"/>
	<path d="M12.6,52.7c0.3-0.3,0.3-0.9,0-1.2c-0.3-0.3-0.9-0.3-1.2,0c-0.3,0.3-0.3,0.9,0,1.2C11.7,53,12.3,53,12.6,52.7z"/>
	<path d="M8.6,52.7c0.3-0.3,0.3-0.9,0-1.2c-0.3-0.3-0.9-0.3-1.2,0c-0.3,0.3-0.3,0.9,0,1.2C7.7,53,8.3,53,8.6,52.7z"/>
	<path d="M4.6,52.7c0.3-0.3,0.3-0.9,0-1.2c-0.3-0.3-0.9-0.3-1.2,0c-0.3,0.3-0.3,0.9,0,1.2C3.7,53,4.3,53,4.6,52.7z"/>
	<path d="M0.6,51.5c-0.1-0.1-0.3-0.2-0.5-0.2v1.7c0.2,0,0.4-0.1,0.5-0.2C0.9,52.4,0.9,51.8,0.6,51.5z"/>
	<path d="M63.4,48.7c0.1,0.1,0.3,0.2,0.5,0.2v-1.7c-0.2,0-0.4,0.1-0.5,0.2C63.1,47.8,63.1,48.4,63.4,48.7z"/>
	<path d="M60.6,48.7c0.3-0.3,0.3-0.9,0-1.2c-0.3-0.3-0.9-0.3-1.2,0c-0.3,0.3-0.3,0.9,0,1.2C59.7,49,60.3,49,60.6,48.7z"/>
	<path d="M56.6,48.7c0.3-0.3,0.3-0.9,0-1.2c-0.3-0.3-0.9-0.3-1.2,0c-0.3,0.3-0.3,0.9,0,1.2C55.7,49,56.3,49,56.6,48.7z"/>
	<path d="M52.6,48.7c0.3-0.3,0.3-0.9,0-1.2c-0.3-0.3-0.9-0.3-1.2,0c-0.3,0.3-0.3,0.9,0,1.2C51.7,49,52.3,49,52.6,48.7z"/>
	<path d="M48.6,48.7c0.3-0.3,0.3-0.9,0-1.2c-0.3-0.3-0.9-0.3-1.2,0c-0.3,0.3-0.3,0.9,0,1.2C47.7,49,48.3,49,48.6,48.7z"/>
	<path d="M44.6,48.7c0.3-0.3,0.3-0.9,0-1.2c-0.3-0.3-0.9-0.3-1.2,0c-0.3,0.3-0.3,0.9,0,1.2C43.7,49,44.3,49,44.6,48.7z"/>
	<path d="M40.6,48.7c0.3-0.3,0.3-0.9,0-1.2c-0.3-0.3-0.9-0.3-1.2,0c-0.3,0.3-0.3,0.9,0,1.2C39.7,49,40.3,49,40.6,48.7z"/>
	<path d="M36.6,48.7c0.3-0.3,0.3-0.9,0-1.2c-0.3-0.3-0.9-0.3-1.2,0c-0.3,0.3-0.3,0.9,0,1.2C35.7,49,36.3,49,36.6,48.7z"/>
	<path d="M32.6,48.7c0.3-0.3,0.3-0.9,0-1.2c-0.3-0.3-0.9-0.3-1.2,0c-0.3,0.3-0.3,0.9,0,1.2C31.7,49,32.3,49,32.6,48.7z"/>
	<path d="M28.6,48.7c0.3-0.3,0.3-0.9,0-1.2c-0.3-0.3-0.9-0.3-1.2,0c-0.3,0.3-0.3,0.9,0,1.2C27.7,49,28.3,49,28.6,48.7z"/>
	<path d="M24.6,48.7c0.3-0.3,0.3-0.9,0-1.2c-0.3-0.3-0.9-0.3-1.2,0c-0.3,0.3-0.3,0.9,0,1.2C23.7,49,24.3,49,24.6,48.7z"/>
	<path d="M20.6,48.7c0.3-0.3,0.3-0.9,0-1.2c-0.3-0.3-0.9-0.3-1.2,0c-0.3,0.3-0.3,0.9,0,1.2C19.7,49,20.3,49,20.6,48.7z"/>
	<path d="M16.6,48.7c0.3-0.3,0.3-0.9,0-1.2c-0.3-0.3-0.9-0.3-1.2,0c-0.3,0.3-0.3,0.9,0,1.2C15.7,49,16.3,49,16.6,48.7z"/>
	<path d="M12.6,48.7c0.3-0.3,0.3-0.9,0-1.2c-0.3-0.3-0.9-0.3-1.2,0c-0.3,0.3-0.3,0.9,0,1.2C11.7,49,12.3,49,12.6,48.7z"/>
	<path d="M8.6,48.7c0.3-0.3,0.3-0.9,0-1.2c-0.3-0.3-0.9-0.3-1.2,0c-0.3,0.3-0.3,0.9,0,1.2C7.7,49,8.3,49,8.6,48.7z"/>
	<path d="M4.6,48.7c0.3-0.3,0.3-0.9,0-1.2c-0.3-0.3-0.9-0.3-1.2,0c-0.3,0.3-0.3,0.9,0,1.2C3.7,49,4.3,49,4.6,48.7z"/>
	<path d="M0.6,47.5c-0.1-0.1-0.3-0.2-0.5-0.2v1.7c0.2,0,0.4-0.1,0.5-0.2C0.9,48.4,0.9,47.8,0.6,47.5z"/>
	<path d="M63.4,44.7c0.1,0.1,0.3,0.2,0.5,0.2v-1.7c-0.2,0-0.4,0.1-0.5,0.2C63.1,43.8,63.1,44.4,63.4,44.7z"/>
	<path d="M60.6,44.7c0.3-0.3,0.3-0.9,0-1.2c-0.3-0.3-0.9-0.3-1.2,0c-0.3,0.3-0.3,0.9,0,1.2C59.7,45,60.3,45,60.6,44.7z"/>
	<path d="M56.6,44.7c0.3-0.3,0.3-0.9,0-1.2c-0.3-0.3-0.9-0.3-1.2,0c-0.3,0.3-0.3,0.9,0,1.2C55.7,45,56.3,45,56.6,44.7z"/>
	<path d="M52.6,44.7c0.3-0.3,0.3-0.9,0-1.2c-0.3-0.3-0.9-0.3-1.2,0c-0.3,0.3-0.3,0.9,0,1.2C51.7,45,52.3,45,52.6,44.7z"/>
	<path d="M48.6,44.7c0.3-0.3,0.3-0.9,0-1.2c-0.3-0.3-0.9-0.3-1.2,0c-0.3,0.3-0.3,0.9,0,1.2C47.7,45,48.3,45,48.6,44.7z"/>
	<path d="M44.6,44.7c0.3-0.3,0.3-0.9,0-1.2c-0.3-0.3-0.9-0.3-1.2,0c-0.3,0.3-0.3,0.9,0,1.2C43.7,45,44.3,45,44.6,44.7z"/>
	<path d="M40.6,44.7c0.3-0.3,0.3-0.9,0-1.2c-0.3-0.3-0.9-0.3-1.2,0c-0.3,0.3-0.3,0.9,0,1.2C39.7,45,40.3,45,40.6,44.7z"/>
	<path d="M36.6,44.7c0.3-0.3,0.3-0.9,0-1.2c-0.3-0.3-0.9-0.3-1.2,0c-0.3,0.3-0.3,0.9,0,1.2C35.7,45,36.3,45,36.6,44.7z"/>
	<path d="M32.6,44.7c0.3-0.3,0.3-0.9,0-1.2c-0.3-0.3-0.9-0.3-1.2,0c-0.3,0.3-0.3,0.9,0,1.2C31.7,45,32.3,45,32.6,44.7z"/>
	<path d="M28.6,44.7c0.3-0.3,0.3-0.9,0-1.2c-0.3-0.3-0.9-0.3-1.2,0c-0.3,0.3-0.3,0.9,0,1.2C27.7,45,28.3,45,28.6,44.7z"/>
	<path d="M24.6,44.7c0.3-0.3,0.3-0.9,0-1.2c-0.3-0.3-0.9-0.3-1.2,0c-0.3,0.3-0.3,0.9,0,1.2C23.7,45,24.3,45,24.6,44.7z"/>
	<path d="M20.6,44.7c0.3-0.3,0.3-0.9,0-1.2c-0.3-0.3-0.9-0.3-1.2,0c-0.3,0.3-0.3,0.9,0,1.2C19.7,45,20.3,45,20.6,44.7z"/>
	<path d="M16.6,44.7c0.3-0.3,0.3-0.9,0-1.2c-0.3-0.3-0.9-0.3-1.2,0c-0.3,0.3-0.3,0.9,0,1.2C15.7,45,16.3,45,16.6,44.7z"/>
	<path d="M12.6,44.7c0.3-0.3,0.3-0.9,0-1.2c-0.3-0.3-0.9-0.3-1.2,0c-0.3,0.3-0.3,0.9,0,1.2C11.7,45,12.3,45,12.6,44.7z"/>
	<path d="M8.6,44.7c0.3-0.3,0.3-0.9,0-1.2c-0.3-0.3-0.9-0.3-1.2,0c-0.3,0.3-0.3,0.9,0,1.2C7.7,45,8.3,45,8.6,44.7z"/>
	<path d="M4.6,44.7c0.3-0.3,0.3-0.9,0-1.2c-0.3-0.3-0.9-0.3-1.2,0c-0.3,0.3-0.3,0.9,0,1.2C3.7,45,4.3,45,4.6,44.7z"/>
	<path d="M0.6,43.5c-0.1-0.1-0.3-0.2-0.5-0.2v1.7c0.2,0,0.4-0.1,0.5-0.2C0.9,44.4,0.9,43.8,0.6,43.5z"/>
	<path d="M63.4,40.7c0.1,0.1,0.3,0.2,0.5,0.2v-1.7c-0.2,0-0.4,0.1-0.5,0.2C63.1,39.8,63.1,40.4,63.4,40.7z"/>
	<path d="M60.6,40.7c0.3-0.3,0.3-0.9,0-1.2c-0.3-0.3-0.9-0.3-1.2,0c-0.3,0.3-0.3,0.9,0,1.2C59.7,41,60.3,41,60.6,40.7z"/>
	<path d="M56.6,40.7c0.3-0.3,0.3-0.9,0-1.2c-0.3-0.3-0.9-0.3-1.2,0c-0.3,0.3-0.3,0.9,0,1.2C55.7,41,56.3,41,56.6,40.7z"/>
	<path d="M52.6,40.7c0.3-0.3,0.3-0.9,0-1.2c-0.3-0.3-0.9-0.3-1.2,0c-0.3,0.3-0.3,0.9,0,1.2C51.7,41,52.3,41,52.6,40.7z"/>
	<path d="M48.6,40.7c0.3-0.3,0.3-0.9,0-1.2c-0.3-0.3-0.9-0.3-1.2,0c-0.3,0.3-0.3,0.9,0,1.2C47.7,41,48.3,41,48.6,40.7z"/>
	<path d="M44.6,40.7c0.3-0.3,0.3-0.9,0-1.2c-0.3-0.3-0.9-0.3-1.2,0c-0.3,0.3-0.3,0.9,0,1.2C43.7,41,44.3,41,44.6,40.7z"/>
	<path d="M40.6,40.7c0.3-0.3,0.3-0.9,0-1.2c-0.3-0.3-0.9-0.3-1.2,0c-0.3,0.3-0.3,0.9,0,1.2C39.7,41,40.3,41,40.6,40.7z"/>
	<path d="M36.6,40.7c0.3-0.3,0.3-0.9,0-1.2c-0.3-0.3-0.9-0.3-1.2,0c-0.3,0.3-0.3,0.9,0,1.2C35.7,41,36.3,41,36.6,40.7z"/>
	<path d="M32.6,40.7c0.3-0.3,0.3-0.9,0-1.2c-0.3-0.3-0.9-0.3-1.2,0c-0.3,0.3-0.3,0.9,0,1.2C31.7,41,32.3,41,32.6,40.7z"/>
	<path d="M28.6,40.7c0.3-0.3,0.3-0.9,0-1.2c-0.3-0.3-0.9-0.3-1.2,0c-0.3,0.3-0.3,0.9,0,1.2C27.7,41,28.3,41,28.6,40.7z"/>
	<path d="M24.6,40.7c0.3-0.3,0.3-0.9,0-1.2c-0.3-0.3-0.9-0.3-1.2,0c-0.3,0.3-0.3,0.9,0,1.2C23.7,41,24.3,41,24.6,40.7z"/>
	<path d="M20.6,40.7c0.3-0.3,0.3-0.9,0-1.2c-0.3-0.3-0.9-0.3-1.2,0c-0.3,0.3-0.3,0.9,0,1.2C19.7,41,20.3,41,20.6,40.7z"/>
	<path d="M16.6,40.7c0.3-0.3,0.3-0.9,0-1.2c-0.3-0.3-0.9-0.3-1.2,0c-0.3,0.3-0.3,0.9,0,1.2C15.7,41,16.3,41,16.6,40.7z"/>
	<path d="M12.6,40.7c0.3-0.3,0.3-0.9,0-1.2c-0.3-0.3-0.9-0.3-1.2,0c-0.3,0.3-0.3,0.9,0,1.2C11.7,41,12.3,41,12.6,40.7z"/>
	<path d="M8.6,40.7c0.3-0.3,0.3-0.9,0-1.2c-0.3-0.3-0.9-0.3-1.2,0c-0.3,0.3-0.3,0.9,0,1.2C7.7,41,8.3,41,8.6,40.7z"/>
	<path d="M4.6,40.7c0.3-0.3,0.3-0.9,0-1.2c-0.3-0.3-0.9-0.3-1.2,0c-0.3,0.3-0.3,0.9,0,1.2C3.7,41,4.3,41,4.6,40.7z"/>
	<path d="M0.6,39.5c-0.1-0.1-0.3-0.2-0.5-0.2v1.7c0.2,0,0.4-0.1,0.5-0.2C0.9,40.4,0.9,39.8,0.6,39.5z"/>
	<path d="M63.4,36.7c0.1,0.1,0.3,0.2,0.5,0.2v-1.7c-0.2,0-0.4,0.1-0.5,0.2C63.1,35.8,63.1,36.4,63.4,36.7z"/>
	<path d="M60.6,36.7c0.3-0.3,0.3-0.9,0-1.2c-0.3-0.3-0.9-0.3-1.2,0c-0.3,0.3-0.3,0.9,0,1.2C59.7,37,60.3,37,60.6,36.7z"/>
	<path d="M56.6,36.7c0.3-0.3,0.3-0.9,0-1.2c-0.3-0.3-0.9-0.3-1.2,0c-0.3,0.3-0.3,0.9,0,1.2C55.7,37,56.3,37,56.6,36.7z"/>
	<path d="M52.6,36.7c0.3-0.3,0.3-0.9,0-1.2c-0.3-0.3-0.9-0.3-1.2,0c-0.3,0.3-0.3,0.9,0,1.2C51.7,37,52.3,37,52.6,36.7z"/>
	<path d="M48.6,36.7c0.3-0.3,0.3-0.9,0-1.2c-0.3-0.3-0.9-0.3-1.2,0c-0.3,0.3-0.3,0.9,0,1.2C47.7,37,48.3,37,48.6,36.7z"/>
	<path d="M44.6,36.7c0.3-0.3,0.3-0.9,0-1.2c-0.3-0.3-0.9-0.3-1.2,0c-0.3,0.3-0.3,0.9,0,1.2C43.7,37,44.3,37,44.6,36.7z"/>
	<path d="M40.6,36.7c0.3-0.3,0.3-0.9,0-1.2c-0.3-0.3-0.9-0.3-1.2,0c-0.3,0.3-0.3,0.9,0,1.2C39.7,37,40.3,37,40.6,36.7z"/>
	<path d="M36.6,36.7c0.3-0.3,0.3-0.9,0-1.2c-0.3-0.3-0.9-0.3-1.2,0c-0.3,0.3-0.3,0.9,0,1.2C35.7,37,36.3,37,36.6,36.7z"/>
	<path d="M32.6,36.7c0.3-0.3,0.3-0.9,0-1.2c-0.3-0.3-0.9-0.3-1.2,0c-0.3,0.3-0.3,0.9,0,1.2C31.7,37,32.3,37,32.6,36.7z"/>
	<path d="M28.6,36.7c0.3-0.3,0.3-0.9,0-1.2c-0.3-0.3-0.9-0.3-1.2,0c-0.3,0.3-0.3,0.9,0,1.2C27.7,37,28.3,37,28.6,36.7z"/>
	<path d="M24.6,36.7c0.3-0.3,0.3-0.9,0-1.2c-0.3-0.3-0.9-0.3-1.2,0c-0.3,0.3-0.3,0.9,0,1.2C23.7,37,24.3,37,24.6,36.7z"/>
	<path d="M20.6,36.7c0.3-0.3,0.3-0.9,0-1.2c-0.3-0.3-0.9-0.3-1.2,0c-0.3,0.3-0.3,0.9,0,1.2C19.7,37,20.3,37,20.6,36.7z"/>
	<path d="M16.6,36.7c0.3-0.3,0.3-0.9,0-1.2c-0.3-0.3-0.9-0.3-1.2,0c-0.3,0.3-0.3,0.9,0,1.2C15.7,37,16.3,37,16.6,36.7z"/>
	<path d="M12.6,36.7c0.3-0.3,0.3-0.9,0-1.2c-0.3-0.3-0.9-0.3-1.2,0c-0.3,0.3-0.3,0.9,0,1.2C11.7,37,12.3,37,12.6,36.7z"/>
	<path d="M8.6,36.7c0.3-0.3,0.3-0.9,0-1.2c-0.3-0.3-0.9-0.3-1.2,0c-0.3,0.3-0.3,0.9,0,1.2C7.7,37,8.3,37,8.6,36.7z"/>
	<path d="M4.6,36.7c0.3-0.3,0.3-0.9,0-1.2c-0.3-0.3-0.9-0.3-1.2,0c-0.3,0.3-0.3,0.9,0,1.2C3.7,37,4.3,37,4.6,36.7z"/>
	<path d="M0.6,35.5c-0.1-0.1-0.3-0.2-0.5-0.2v1.7c0.2,0,0.4-0.1,0.5-0.2C0.9,36.4,0.9,35.8,0.6,35.5z"/>
	<path d="M63.4,32.7c0.1,0.1,0.3,0.2,0.5,0.2v-1.7c-0.2,0-0.4,0.1-0.5,0.2C63.1,31.8,63.1,32.4,63.4,32.7z"/>
	<path d="M60.6,32.7c0.3-0.3,0.3-0.9,0-1.2c-0.3-0.3-0.9-0.3-1.2,0c-0.3,0.3-0.3,0.9,0,1.2C59.7,33,60.3,33,60.6,32.7z"/>
	<path d="M56.6,32.7c0.3-0.3,0.3-0.9,0-1.2c-0.3-0.3-0.9-0.3-1.2,0c-0.3,0.3-0.3,0.9,0,1.2C55.7,33,56.3,33,56.6,32.7z"/>
	<path d="M52.6,32.7c0.3-0.3,0.3-0.9,0-1.2c-0.3-0.3-0.9-0.3-1.2,0c-0.3,0.3-0.3,0.9,0,1.2C51.7,33,52.3,33,52.6,32.7z"/>
	<path d="M48.6,32.7c0.3-0.3,0.3-0.9,0-1.2c-0.3-0.3-0.9-0.3-1.2,0c-0.3,0.3-0.3,0.9,0,1.2C47.7,33,48.3,33,48.6,32.7z"/>
	<path d="M44.6,32.7c0.3-0.3,0.3-0.9,0-1.2c-0.3-0.3-0.9-0.3-1.2,0c-0.3,0.3-0.3,0.9,0,1.2C43.7,33,44.3,33,44.6,32.7z"/>
	<path d="M40.6,32.7c0.3-0.3,0.3-0.9,0-1.2c-0.3-0.3-0.9-0.3-1.2,0c-0.3,0.3-0.3,0.9,0,1.2C39.7,33,40.3,33,40.6,32.7z"/>
	<path d="M36.6,32.7c0.3-0.3,0.3-0.9,0-1.2c-0.3-0.3-0.9-0.3-1.2,0c-0.3,0.3-0.3,0.9,0,1.2C35.7,33,36.3,33,36.6,32.7z"/>
	<path d="M32.6,32.7c0.3-0.3,0.3-0.9,0-1.2c-0.3-0.3-0.9-0.3-1.2,0c-0.3,0.3-0.3,0.9,0,1.2C31.7,33,32.3,33,32.6,32.7z"/>
	<path d="M28.6,32.7c0.3-0.3,0.3-0.9,0-1.2c-0.3-0.3-0.9-0.3-1.2,0c-0.3,0.3-0.3,0.9,0,1.2C27.7,33,28.3,33,28.6,32.7z"/>
	<path d="M24.6,32.7c0.3-0.3,0.3-0.9,0-1.2c-0.3-0.3-0.9-0.3-1.2,0c-0.3,0.3-0.3,0.9,0,1.2C23.7,33,24.3,33,24.6,32.7z"/>
	<path d="M20.6,32.7c0.3-0.3,0.3-0.9,0-1.2c-0.3-0.3-0.9-0.3-1.2,0c-0.3,0.3-0.3,0.9,0,1.2C19.7,33,20.3,33,20.6,32.7z"/>
	<path d="M16.6,32.7c0.3-0.3,0.3-0.9,0-1.2c-0.3-0.3-0.9-0.3-1.2,0c-0.3,0.3-0.3,0.9,0,1.2C15.7,33,16.3,33,16.6,32.7z"/>
	<path d="M12.6,32.7c0.3-0.3,0.3-0.9,0-1.2c-0.3-0.3-0.9-0.3-1.2,0c-0.3,0.3-0.3,0.9,0,1.2C11.7,33,12.3,33,12.6,32.7z"/>
	<path d="M8.6,32.7c0.3-0.3,0.3-0.9,0-1.2c-0.3-0.3-0.9-0.3-1.2,0c-0.3,0.3-0.3,0.9,0,1.2C7.7,33,8.3,33,8.6,32.7z"/>
	<path d="M4.6,32.7c0.3-0.3,0.3-0.9,0-1.2c-0.3-0.3-0.9-0.3-1.2,0c-0.3,0.3-0.3,0.9,0,1.2C3.7,33,4.3,33,4.6,32.7z"/>
	<path d="M0.6,31.5c-0.1-0.1-0.3-0.2-0.5-0.2v1.7c0.2,0,0.4-0.1,0.5-0.2C0.9,32.4,0.9,31.8,0.6,31.5z"/>
	<path d="M63.4,28.7c0.1,0.1,0.3,0.2,0.5,0.2v-1.7c-0.2,0-0.4,0.1-0.5,0.2C63.1,27.8,63.1,28.4,63.4,28.7z"/>
	<path d="M60.6,28.7c0.3-0.3,0.3-0.9,0-1.2c-0.3-0.3-0.9-0.3-1.2,0c-0.3,0.3-0.3,0.9,0,1.2C59.7,29,60.3,29,60.6,28.7z"/>
	<path d="M56.6,28.7c0.3-0.3,0.3-0.9,0-1.2c-0.3-0.3-0.9-0.3-1.2,0c-0.3,0.3-0.3,0.9,0,1.2C55.7,29,56.3,29,56.6,28.7z"/>
	<path d="M52.6,28.7c0.3-0.3,0.3-0.9,0-1.2c-0.3-0.3-0.9-0.3-1.2,0c-0.3,0.3-0.3,0.9,0,1.2C51.7,29,52.3,29,52.6,28.7z"/>
	<path d="M48.6,28.7c0.3-0.3,0.3-0.9,0-1.2c-0.3-0.3-0.9-0.3-1.2,0c-0.3,0.3-0.3,0.9,0,1.2C47.7,29,48.3,29,48.6,28.7z"/>
	<path d="M44.6,28.7c0.3-0.3,0.3-0.9,0-1.2c-0.3-0.3-0.9-0.3-1.2,0c-0.3,0.3-0.3,0.9,0,1.2C43.7,29,44.3,29,44.6,28.7z"/>
	<path d="M40.6,28.7c0.3-0.3,0.3-0.9,0-1.2c-0.3-0.3-0.9-0.3-1.2,0c-0.3,0.3-0.3,0.9,0,1.2C39.7,29,40.3,29,40.6,28.7z"/>
	<path d="M36.6,28.7c0.3-0.3,0.3-0.9,0-1.2c-0.3-0.3-0.9-0.3-1.2,0c-0.3,0.3-0.3,0.9,0,1.2C35.7,29,36.3,29,36.6,28.7z"/>
	<path d="M32.6,28.7c0.3-0.3,0.3-0.9,0-1.2c-0.3-0.3-0.9-0.3-1.2,0c-0.3,0.3-0.3,0.9,0,1.2C31.7,29,32.3,29,32.6,28.7z"/>
	<path d="M28.6,28.7c0.3-0.3,0.3-0.9,0-1.2c-0.3-0.3-0.9-0.3-1.2,0c-0.3,0.3-0.3,0.9,0,1.2C27.7,29,28.3,29,28.6,28.7z"/>
	<path d="M24.6,28.7c0.3-0.3,0.3-0.9,0-1.2c-0.3-0.3-0.9-0.3-1.2,0c-0.3,0.3-0.3,0.9,0,1.2C23.7,29,24.3,29,24.6,28.7z"/>
	<path d="M20.6,28.7c0.3-0.3,0.3-0.9,0-1.2c-0.3-0.3-0.9-0.3-1.2,0c-0.3,0.3-0.3,0.9,0,1.2C19.7,29,20.3,29,20.6,28.7z"/>
	<path d="M16.6,28.7c0.3-0.3,0.3-0.9,0-1.2c-0.3-0.3-0.9-0.3-1.2,0c-0.3,0.3-0.3,0.9,0,1.2C15.7,29,16.3,29,16.6,28.7z"/>
	<path d="M12.6,28.7c0.3-0.3,0.3-0.9,0-1.2c-0.3-0.3-0.9-0.3-1.2,0c-0.3,0.3-0.3,0.9,0,1.2C11.7,29,12.3,29,12.6,28.7z"/>
	<path d="M8.6,28.7c0.3-0.3,0.3-0.9,0-1.2c-0.3-0.3-0.9-0.3-1.2,0c-0.3,0.3-0.3,0.9,0,1.2C7.7,29,8.3,29,8.6,28.7z"/>
	<path d="M4.6,28.7c0.3-0.3,0.3-0.9,0-1.2c-0.3-0.3-0.9-0.3-1.2,0c-0.3,0.3-0.3,0.9,0,1.2C3.7,29,4.3,29,4.6,28.7z"/>
	<path d="M0.6,27.5c-0.1-0.1-0.3-0.2-0.5-0.2v1.7c0.2,0,0.4-0.1,0.5-0.2C0.9,28.4,0.9,27.8,0.6,27.5z"/>
	<path d="M63.4,24.7c0.1,0.1,0.3,0.2,0.5,0.2v-1.7c-0.2,0-0.4,0.1-0.5,0.2C63.1,23.8,63.1,24.4,63.4,24.7z"/>
	<path d="M60.6,24.7c0.3-0.3,0.3-0.9,0-1.2c-0.3-0.3-0.9-0.3-1.2,0c-0.3,0.3-0.3,0.9,0,1.2C59.7,25,60.3,25,60.6,24.7z"/>
	<path d="M56.6,24.7c0.3-0.3,0.3-0.9,0-1.2c-0.3-0.3-0.9-0.3-1.2,0c-0.3,0.3-0.3,0.9,0,1.2C55.7,25,56.3,25,56.6,24.7z"/>
	<path d="M52.6,24.7c0.3-0.3,0.3-0.9,0-1.2c-0.3-0.3-0.9-0.3-1.2,0c-0.3,0.3-0.3,0.9,0,1.2C51.7,25,52.3,25,52.6,24.7z"/>
	<path d="M48.6,24.7c0.3-0.3,0.3-0.9,0-1.2c-0.3-0.3-0.9-0.3-1.2,0c-0.3,0.3-0.3,0.9,0,1.2C47.7,25,48.3,25,48.6,24.7z"/>
	<path d="M44.6,24.7c0.3-0.3,0.3-0.9,0-1.2c-0.3-0.3-0.9-0.3-1.2,0c-0.3,0.3-0.3,0.9,0,1.2C43.7,25,44.3,25,44.6,24.7z"/>
	<path d="M40.6,24.7c0.3-0.3,0.3-0.9,0-1.2c-0.3-0.3-0.9-0.3-1.2,0c-0.3,0.3-0.3,0.9,0,1.2C39.7,25,40.3,25,40.6,24.7z"/>
	<path d="M36.6,24.7c0.3-0.3,0.3-0.9,0-1.2c-0.3-0.3-0.9-0.3-1.2,0c-0.3,0.3-0.3,0.9,0,1.2C35.7,25,36.3,25,36.6,24.7z"/>
	<path d="M32.6,24.7c0.3-0.3,0.3-0.9,0-1.2c-0.3-0.3-0.9-0.3-1.2,0c-0.3,0.3-0.3,0.9,0,1.2C31.7,25,32.3,25,32.6,24.7z"/>
	<path d="M28.6,24.7c0.3-0.3,0.3-0.9,0-1.2c-0.3-0.3-0.9-0.3-1.2,0c-0.3,0.3-0.3,0.9,0,1.2C27.7,25,28.3,25,28.6,24.7z"/>
	<path d="M24.6,24.7c0.3-0.3,0.3-0.9,0-1.2c-0.3-0.3-0.9-0.3-1.2,0c-0.3,0.3-0.3,0.9,0,1.2C23.7,25,24.3,25,24.6,24.7z"/>
	<path d="M20.6,24.7c0.3-0.3,0.3-0.9,0-1.2c-0.3-0.3-0.9-0.3-1.2,0c-0.3,0.3-0.3,0.9,0,1.2C19.7,25,20.3,25,20.6,24.7z"/>
	<path d="M16.6,24.7c0.3-0.3,0.3-0.9,0-1.2c-0.3-0.3-0.9-0.3-1.2,0c-0.3,0.3-0.3,0.9,0,1.2C15.7,25,16.3,25,16.6,24.7z"/>
	<path d="M12.6,24.7c0.3-0.3,0.3-0.9,0-1.2c-0.3-0.3-0.9-0.3-1.2,0c-0.3,0.3-0.3,0.9,0,1.2C11.7,25,12.3,25,12.6,24.7z"/>
	<path d="M8.6,24.7c0.3-0.3,0.3-0.9,0-1.2c-0.3-0.3-0.9-0.3-1.2,0c-0.3,0.3-0.3,0.9,0,1.2C7.7,25,8.3,25,8.6,24.7z"/>
	<path d="M4.6,24.7c0.3-0.3,0.3-0.9,0-1.2c-0.3-0.3-0.9-0.3-1.2,0c-0.3,0.3-0.3,0.9,0,1.2C3.7,25,4.3,25,4.6,24.7z"/>
	<path d="M0.6,23.5c-0.1-0.1-0.3-0.2-0.5-0.2v1.7c0.2,0,0.4-0.1,0.5-0.2C0.9,24.4,0.9,23.8,0.6,23.5z"/>
	<path d="M63.4,20.7c0.1,0.1,0.3,0.2,0.5,0.2v-1.7c-0.2,0-0.4,0.1-0.5,0.2C63.1,19.8,63.1,20.4,63.4,20.7z"/>
	<path d="M60.6,20.7c0.3-0.3,0.3-0.9,0-1.2c-0.3-0.3-0.9-0.3-1.2,0c-0.3,0.3-0.3,0.9,0,1.2C59.7,21,60.3,21,60.6,20.7z"/>
	<path d="M56.6,20.7c0.3-0.3,0.3-0.9,0-1.2c-0.3-0.3-0.9-0.3-1.2,0c-0.3,0.3-0.3,0.9,0,1.2C55.7,21,56.3,21,56.6,20.7z"/>
	<path d="M52.6,20.7c0.3-0.3,0.3-0.9,0-1.2c-0.3-0.3-0.9-0.3-1.2,0c-0.3,0.3-0.3,0.9,0,1.2C51.7,21,52.3,21,52.6,20.7z"/>
	<path d="M48.6,20.7c0.3-0.3,0.3-0.9,0-1.2c-0.3-0.3-0.9-0.3-1.2,0c-0.3,0.3-0.3,0.9,0,1.2C47.7,21,48.3,21,48.6,20.7z"/>
	<path d="M44.6,20.7c0.3-0.3,0.3-0.9,0-1.2c-0.3-0.3-0.9-0.3-1.2,0c-0.3,0.3-0.3,0.9,0,1.2C43.7,21,44.3,21,44.6,20.7z"/>
	<path d="M40.6,20.7c0.3-0.3,0.3-0.9,0-1.2c-0.3-0.3-0.9-0.3-1.2,0c-0.3,0.3-0.3,0.9,0,1.2C39.7,21,40.3,21,40.6,20.7z"/>
	<path d="M36.6,20.7c0.3-0.3,0.3-0.9,0-1.2c-0.3-0.3-0.9-0.3-1.2,0c-0.3,0.3-0.3,0.9,0,1.2C35.7,21,36.3,21,36.6,20.7z"/>
	<path d="M32.6,20.7c0.3-0.3,0.3-0.9,0-1.2c-0.3-0.3-0.9-0.3-1.2,0c-0.3,0.3-0.3,0.9,0,1.2C31.7,21,32.3,21,32.6,20.7z"/>
	<path d="M28.6,20.7c0.3-0.3,0.3-0.9,0-1.2c-0.3-0.3-0.9-0.3-1.2,0c-0.3,0.3-0.3,0.9,0,1.2C27.7,21,28.3,21,28.6,20.7z"/>
	<path d="M24.6,20.7c0.3-0.3,0.3-0.9,0-1.2c-0.3-0.3-0.9-0.3-1.2,0c-0.3,0.3-0.3,0.9,0,1.2C23.7,21,24.3,21,24.6,20.7z"/>
	<path d="M20.6,20.7c0.3-0.3,0.3-0.9,0-1.2c-0.3-0.3-0.9-0.3-1.2,0c-0.3,0.3-0.3,0.9,0,1.2C19.7,21,20.3,21,20.6,20.7z"/>
	<path d="M16.6,20.7c0.3-0.3,0.3-0.9,0-1.2c-0.3-0.3-0.9-0.3-1.2,0c-0.3,0.3-0.3,0.9,0,1.2C15.7,21,16.3,21,16.6,20.7z"/>
	<path d="M12.6,20.7c0.3-0.3,0.3-0.9,0-1.2c-0.3-0.3-0.9-0.3-1.2,0c-0.3,0.3-0.3,0.9,0,1.2C11.7,21,12.3,21,12.6,20.7z"/>
	<path d="M8.6,20.7c0.3-0.3,0.3-0.9,0-1.2c-0.3-0.3-0.9-0.3-1.2,0c-0.3,0.3-0.3,0.9,0,1.2C7.7,21,8.3,21,8.6,20.7z"/>
	<path d="M4.6,20.7c0.3-0.3,0.3-0.9,0-1.2c-0.3-0.3-0.9-0.3-1.2,0c-0.3,0.3-0.3,0.9,0,1.2C3.7,21,4.3,21,4.6,20.7z"/>
	<path d="M0.6,19.5c-0.1-0.1-0.3-0.2-0.5-0.2v1.7c0.2,0,0.4-0.1,0.5-0.2C0.9,20.4,0.9,19.8,0.6,19.5z"/>
	<path d="M63.4,16.7c0.1,0.1,0.3,0.2,0.5,0.2v-1.7c-0.2,0-0.4,0.1-0.5,0.2C63.1,15.8,63.1,16.4,63.4,16.7z"/>
	<path d="M60.6,16.7c0.3-0.3,0.3-0.9,0-1.2c-0.3-0.3-0.9-0.3-1.2,0c-0.3,0.3-0.3,0.9,0,1.2C59.7,17,60.3,17,60.6,16.7z"/>
	<path d="M56.6,16.7c0.3-0.3,0.3-0.9,0-1.2c-0.3-0.3-0.9-0.3-1.2,0c-0.3,0.3-0.3,0.9,0,1.2C55.7,17,56.3,17,56.6,16.7z"/>
	<path d="M52.6,16.7c0.3-0.3,0.3-0.9,0-1.2c-0.3-0.3-0.9-0.3-1.2,0c-0.3,0.3-0.3,0.9,0,1.2C51.7,17,52.3,17,52.6,16.7z"/>
	<path d="M48.6,16.7c0.3-0.3,0.3-0.9,0-1.2c-0.3-0.3-0.9-0.3-1.2,0c-0.3,0.3-0.3,0.9,0,1.2C47.7,17,48.3,17,48.6,16.7z"/>
	<path d="M44.6,16.7c0.3-0.3,0.3-0.9,0-1.2c-0.3-0.3-0.9-0.3-1.2,0c-0.3,0.3-0.3,0.9,0,1.2C43.7,17,44.3,17,44.6,16.7z"/>
	<path d="M40.6,16.7c0.3-0.3,0.3-0.9,0-1.2c-0.3-0.3-0.9-0.3-1.2,0c-0.3,0.3-0.3,0.9,0,1.2C39.7,17,40.3,17,40.6,16.7z"/>
	<path d="M36.6,16.7c0.3-0.3,0.3-0.9,0-1.2c-0.3-0.3-0.9-0.3-1.2,0c-0.3,0.3-0.3,0.9,0,1.2C35.7,17,36.3,17,36.6,16.7z"/>
	<path d="M32.6,16.7c0.3-0.3,0.3-0.9,0-1.2c-0.3-0.3-0.9-0.3-1.2,0c-0.3,0.3-0.3,0.9,0,1.2C31.7,17,32.3,17,32.6,16.7z"/>
	<path d="M28.6,16.7c0.3-0.3,0.3-0.9,0-1.2c-0.3-0.3-0.9-0.3-1.2,0c-0.3,0.3-0.3,0.9,0,1.2C27.7,17,28.3,17,28.6,16.7z"/>
	<path d="M24.6,16.7c0.3-0.3,0.3-0.9,0-1.2c-0.3-0.3-0.9-0.3-1.2,0c-0.3,0.3-0.3,0.9,0,1.2C23.7,17,24.3,17,24.6,16.7z"/>
	<path d="M20.6,16.7c0.3-0.3,0.3-0.9,0-1.2c-0.3-0.3-0.9-0.3-1.2,0c-0.3,0.3-0.3,0.9,0,1.2C19.7,17,20.3,17,20.6,16.7z"/>
	<path d="M16.6,16.7c0.3-0.3,0.3-0.9,0-1.2c-0.3-0.3-0.9-0.3-1.2,0c-0.3,0.3-0.3,0.9,0,1.2C15.7,17,16.3,17,16.6,16.7z"/>
	<path d="M12.6,16.7c0.3-0.3,0.3-0.9,0-1.2c-0.3-0.3-0.9-0.3-1.2,0c-0.3,0.3-0.3,0.9,0,1.2C11.7,17,12.3,17,12.6,16.7z"/>
	<path d="M8.6,16.7c0.3-0.3,0.3-0.9,0-1.2c-0.3-0.3-0.9-0.3-1.2,0c-0.3,0.3-0.3,0.9,0,1.2C7.7,17,8.3,17,8.6,16.7z"/>
	<path d="M4.6,16.7c0.3-0.3,0.3-0.9,0-1.2c-0.3-0.3-0.9-0.3-1.2,0c-0.3,0.3-0.3,0.9,0,1.2C3.7,17,4.3,17,4.6,16.7z"/>
	<path d="M0.6,15.5c-0.1-0.1-0.3-0.2-0.5-0.2v1.7c0.2,0,0.4-0.1,0.5-0.2C0.9,16.4,0.9,15.8,0.6,15.5z"/>
	<path d="M63.4,12.7c0.1,0.1,0.3,0.2,0.5,0.2v-1.7c-0.2,0-0.4,0.1-0.5,0.2C63.1,11.8,63.1,12.4,63.4,12.7z"/>
	<path d="M60.6,12.7c0.3-0.3,0.3-0.9,0-1.2c-0.3-0.3-0.9-0.3-1.2,0c-0.3,0.3-0.3,0.9,0,1.2C59.7,13,60.3,13,60.6,12.7z"/>
	<path d="M56.6,12.7c0.3-0.3,0.3-0.9,0-1.2c-0.3-0.3-0.9-0.3-1.2,0c-0.3,0.3-0.3,0.9,0,1.2C55.7,13,56.3,13,56.6,12.7z"/>
	<path d="M52.6,12.7c0.3-0.3,0.3-0.9,0-1.2c-0.3-0.3-0.9-0.3-1.2,0c-0.3,0.3-0.3,0.9,0,1.2C51.7,13,52.3,13,52.6,12.7z"/>
	<path d="M48.6,12.7c0.3-0.3,0.3-0.9,0-1.2c-0.3-0.3-0.9-0.3-1.2,0c-0.3,0.3-0.3,0.9,0,1.2C47.7,13,48.3,13,48.6,12.7z"/>
	<path d="M44.6,12.7c0.3-0.3,0.3-0.9,0-1.2c-0.3-0.3-0.9-0.3-1.2,0c-0.3,0.3-0.3,0.9,0,1.2C43.7,13,44.3,13,44.6,12.7z"/>
	<path d="M40.6,12.7c0.3-0.3,0.3-0.9,0-1.2c-0.3-0.3-0.9-0.3-1.2,0c-0.3,0.3-0.3,0.9,0,1.2C39.7,13,40.3,13,40.6,12.7z"/>
	<path d="M36.6,12.7c0.3-0.3,0.3-0.9,0-1.2c-0.3-0.3-0.9-0.3-1.2,0c-0.3,0.3-0.3,0.9,0,1.2C35.7,13,36.3,13,36.6,12.7z"/>
	<path d="M32.6,12.7c0.3-0.3,0.3-0.9,0-1.2c-0.3-0.3-0.9-0.3-1.2,0c-0.3,0.3-0.3,0.9,0,1.2C31.7,13,32.3,13,32.6,12.7z"/>
	<path d="M28.6,12.7c0.3-0.3,0.3-0.9,0-1.2c-0.3-0.3-0.9-0.3-1.2,0c-0.3,0.3-0.3,0.9,0,1.2C27.7,13,28.3,13,28.6,12.7z"/>
	<path d="M24.6,12.7c0.3-0.3,0.3-0.9,0-1.2c-0.3-0.3-0.9-0.3-1.2,0c-0.3,0.3-0.3,0.9,0,1.2C23.7,13,24.3,13,24.6,12.7z"/>
	<path d="M20.6,12.7c0.3-0.3,0.3-0.9,0-1.2c-0.3-0.3-0.9-0.3-1.2,0c-0.3,0.3-0.3,0.9,0,1.2C19.7,13,20.3,13,20.6,12.7z"/>
	<path d="M16.6,12.7c0.3-0.3,0.3-0.9,0-1.2c-0.3-0.3-0.9-0.3-1.2,0c-0.3,0.3-0.3,0.9,0,1.2C15.7,13,16.3,13,16.6,12.7z"/>
	<path d="M12.6,12.7c0.3-0.3,0.3-0.9,0-1.2c-0.3-0.3-0.9-0.3-1.2,0c-0.3,0.3-0.3,0.9,0,1.2C11.7,13,12.3,13,12.6,12.7z"/>
	<path d="M8.6,12.7c0.3-0.3,0.3-0.9,0-1.2c-0.3-0.3-0.9-0.3-1.2,0c-0.3,0.3-0.3,0.9,0,1.2C7.7,13,8.3,13,8.6,12.7z"/>
	<path d="M4.6,12.7c0.3-0.3,0.3-0.9,0-1.2c-0.3-0.3-0.9-0.3-1.2,0c-0.3,0.3-0.3,0.9,0,1.2C3.7,13,4.3,13,4.6,12.7z"/>
	<path d="M0.6,11.5c-0.1-0.1-0.3-0.2-0.5-0.2v1.7c0.2,0,0.4-0.1,0.5-0.2C0.9,12.4,0.9,11.8,0.6,11.5z"/>
	<path d="M63.4,8.7c0.1,0.1,0.3,0.2,0.5,0.2V7.3c-0.2,0-0.4,0.1-0.5,0.2C63.1,7.8,63.1,8.4,63.4,8.7z"/>
	<path d="M60.6,8.7c0.3-0.3,0.3-0.9,0-1.2c-0.3-0.3-0.9-0.3-1.2,0c-0.3,0.3-0.3,0.9,0,1.2C59.7,9,60.3,9,60.6,8.7z"/>
	<path d="M56.6,8.7c0.3-0.3,0.3-0.9,0-1.2c-0.3-0.3-0.9-0.3-1.2,0c-0.3,0.3-0.3,0.9,0,1.2C55.7,9,56.3,9,56.6,8.7z"/>
	<path d="M52.6,8.7c0.3-0.3,0.3-0.9,0-1.2c-0.3-0.3-0.9-0.3-1.2,0c-0.3,0.3-0.3,0.9,0,1.2C51.7,9,52.3,9,52.6,8.7z"/>
	<path d="M48.6,8.7c0.3-0.3,0.3-0.9,0-1.2c-0.3-0.3-0.9-0.3-1.2,0c-0.3,0.3-0.3,0.9,0,1.2C47.7,9,48.3,9,48.6,8.7z"/>
	<path d="M44.6,8.7c0.3-0.3,0.3-0.9,0-1.2c-0.3-0.3-0.9-0.3-1.2,0c-0.3,0.3-0.3,0.9,0,1.2C43.7,9,44.3,9,44.6,8.7z"/>
	<path d="M40.6,8.7c0.3-0.3,0.3-0.9,0-1.2c-0.3-0.3-0.9-0.3-1.2,0c-0.3,0.3-0.3,0.9,0,1.2C39.7,9,40.3,9,40.6,8.7z"/>
	<path d="M36.6,8.7c0.3-0.3,0.3-0.9,0-1.2c-0.3-0.3-0.9-0.3-1.2,0c-0.3,0.3-0.3,0.9,0,1.2C35.7,9,36.3,9,36.6,8.7z"/>
	<path d="M32.6,8.7c0.3-0.3,0.3-0.9,0-1.2c-0.3-0.3-0.9-0.3-1.2,0c-0.3,0.3-0.3,0.9,0,1.2C31.7,9,32.3,9,32.6,8.7z"/>
	<path d="M28.6,8.7c0.3-0.3,0.3-0.9,0-1.2c-0.3-0.3-0.9-0.3-1.2,0c-0.3,0.3-0.3,0.9,0,1.2C27.7,9,28.3,9,28.6,8.7z"/>
	<path d="M24.6,8.7c0.3-0.3,0.3-0.9,0-1.2c-0.3-0.3-0.9-0.3-1.2,0c-0.3,0.3-0.3,0.9,0,1.2C23.7,9,24.3,9,24.6,8.7z"/>
	<path d="M20.6,8.7c0.3-0.3,0.3-0.9,0-1.2c-0.3-0.3-0.9-0.3-1.2,0c-0.3,0.3-0.3,0.9,0,1.2C19.7,9,20.3,9,20.6,8.7z"/>
	<path d="M16.6,8.7c0.3-0.3,0.3-0.9,0-1.2c-0.3-0.3-0.9-0.3-1.2,0c-0.3,0.3-0.3,0.9,0,1.2C15.7,9,16.3,9,16.6,8.7z"/>
	<path d="M12.6,8.7c0.3-0.3,0.3-0.9,0-1.2c-0.3-0.3-0.9-0.3-1.2,0c-0.3,0.3-0.3,0.9,0,1.2C11.7,9,12.3,9,12.6,8.7z"/>
	<path d="M8.6,8.7c0.3-0.3,0.3-0.9,0-1.2c-0.3-0.3-0.9-0.3-1.2,0c-0.3,0.3-0.3,0.9,0,1.2C7.7,9,8.3,9,8.6,8.7z"/>
	<path d="M4.6,8.7c0.3-0.3,0.3-0.9,0-1.2c-0.3-0.3-0.9-0.3-1.2,0c-0.3,0.3-0.3,0.9,0,1.2C3.7,9,4.3,9,4.6,8.7z"/>
	<path d="M0.6,7.5C0.5,7.4,0.3,7.3,0.1,7.3v1.7c0.2,0,0.4-0.1,0.5-0.2C0.9,8.4,0.9,7.8,0.6,7.5z"/>
	<path d="M63.4,4.7c0.1,0.1,0.3,0.2,0.5,0.2V3.3c-0.2,0-0.4,0.1-0.5,0.2C63.1,3.8,63.1,4.4,63.4,4.7z"/>
	<path d="M60.6,4.7c0.3-0.3,0.3-0.9,0-1.2c-0.3-0.3-0.9-0.3-1.2,0c-0.3,0.3-0.3,0.9,0,1.2C59.7,5,60.3,5,60.6,4.7z"/>
	<path d="M56.6,4.7c0.3-0.3,0.3-0.9,0-1.2c-0.3-0.3-0.9-0.3-1.2,0c-0.3,0.3-0.3,0.9,0,1.2C55.7,5,56.3,5,56.6,4.7z"/>
	<path d="M52.6,4.7c0.3-0.3,0.3-0.9,0-1.2c-0.3-0.3-0.9-0.3-1.2,0c-0.3,0.3-0.3,0.9,0,1.2C51.7,5,52.3,5,52.6,4.7z"/>
	<path d="M48.6,4.7c0.3-0.3,0.3-0.9,0-1.2c-0.3-0.3-0.9-0.3-1.2,0c-0.3,0.3-0.3,0.9,0,1.2C47.7,5,48.3,5,48.6,4.7z"/>
	<path d="M44.6,4.7c0.3-0.3,0.3-0.9,0-1.2c-0.3-0.3-0.9-0.3-1.2,0c-0.3,0.3-0.3,0.9,0,1.2C43.7,5,44.3,5,44.6,4.7z"/>
	<path d="M40.6,4.7c0.3-0.3,0.3-0.9,0-1.2c-0.3-0.3-0.9-0.3-1.2,0c-0.3,0.3-0.3,0.9,0,1.2C39.7,5,40.3,5,40.6,4.7z"/>
	<path d="M36.6,4.7c0.3-0.3,0.3-0.9,0-1.2c-0.3-0.3-0.9-0.3-1.2,0c-0.3,0.3-0.3,0.9,0,1.2C35.7,5,36.3,5,36.6,4.7z"/>
	<path d="M32.6,4.7c0.3-0.3,0.3-0.9,0-1.2c-0.3-0.3-0.9-0.3-1.2,0c-0.3,0.3-0.3,0.9,0,1.2C31.7,5,32.3,5,32.6,4.7z"/>
	<path d="M28.6,4.7c0.3-0.3,0.3-0.9,0-1.2c-0.3-0.3-0.9-0.3-1.2,0c-0.3,0.3-0.3,0.9,0,1.2C27.7,5,28.3,5,28.6,4.7z"/>
	<path d="M24.6,4.7c0.3-0.3,0.3-0.9,0-1.2c-0.3-0.3-0.9-0.3-1.2,0c-0.3,0.3-0.3,0.9,0,1.2C23.7,5,24.3,5,24.6,4.7z"/>
	<path d="M20.6,4.7c0.3-0.3,0.3-0.9,0-1.2c-0.3-0.3-0.9-0.3-1.2,0c-0.3,0.3-0.3,0.9,0,1.2C19.7,5,20.3,5,20.6,4.7z"/>
	<path d="M16.6,4.7c0.3-0.3,0.3-0.9,0-1.2c-0.3-0.3-0.9-0.3-1.2,0c-0.3,0.3-0.3,0.9,0,1.2C15.7,5,16.3,5,16.6,4.7z"/>
	<path d="M12.6,4.7c0.3-0.3,0.3-0.9,0-1.2c-0.3-0.3-0.9-0.3-1.2,0c-0.3,0.3-0.3,0.9,0,1.2C11.7,5,12.3,5,12.6,4.7z"/>
	<path d="M8.6,4.7c0.3-0.3,0.3-0.9,0-1.2c-0.3-0.3-0.9-0.3-1.2,0c-0.3,0.3-0.3,0.9,0,1.2C7.7,5,8.3,5,8.6,4.7z"/>
	<path d="M4.6,4.7c0.3-0.3,0.3-0.9,0-1.2c-0.3-0.3-0.9-0.3-1.2,0c-0.3,0.3-0.3,0.9,0,1.2C3.7,5,4.3,5,4.6,4.7z"/>
	<path d="M0.6,3.5C0.5,3.4,0.3,3.3,0.1,3.3v1.7c0.2,0,0.4-0.1,0.5-0.2C0.9,4.4,0.9,3.8,0.6,3.5z"/>
	<path d="M63.4,0.7c0.1,0.1,0.3,0.2,0.5,0.2V0h-0.8C63.2,0.3,63.2,0.5,63.4,0.7z"/>
	<path d="M59.4,0.7c0.3,0.3,0.9,0.3,1.2,0c0.2-0.2,0.3-0.4,0.2-0.7h-1.7C59.2,0.3,59.2,0.5,59.4,0.7z"/>
	<path d="M55.4,0.7c0.3,0.3,0.9,0.3,1.2,0c0.2-0.2,0.3-0.4,0.2-0.7h-1.7C55.2,0.3,55.2,0.5,55.4,0.7z"/>
	<path d="M51.4,0.7c0.3,0.3,0.9,0.3,1.2,0c0.2-0.2,0.3-0.4,0.2-0.7h-1.7C51.2,0.3,51.2,0.5,51.4,0.7z"/>
	<path d="M47.4,0.7c0.3,0.3,0.9,0.3,1.2,0c0.2-0.2,0.3-0.4,0.2-0.7h-1.7C47.2,0.3,47.2,0.5,47.4,0.7z"/>
	<path d="M43.4,0.7c0.3,0.3,0.9,0.3,1.2,0c0.2-0.2,0.3-0.4,0.2-0.7h-1.7C43.2,0.3,43.2,0.5,43.4,0.7z"/>
	<path d="M39.4,0.7c0.3,0.3,0.9,0.3,1.2,0c0.2-0.2,0.3-0.4,0.2-0.7h-1.7C39.2,0.3,39.2,0.5,39.4,0.7z"/>
	<path d="M35.4,0.7c0.3,0.3,0.9,0.3,1.2,0c0.2-0.2,0.3-0.4,0.2-0.7h-1.7C35.2,0.3,35.2,0.5,35.4,0.7z"/>
	<path d="M31.4,0.7c0.3,0.3,0.9,0.3,1.2,0c0.2-0.2,0.3-0.4,0.2-0.7h-1.7C31.2,0.3,31.2,0.5,31.4,0.7z"/>
	<path d="M27.4,0.7c0.3,0.3,0.9,0.3,1.2,0c0.2-0.2,0.3-0.4,0.2-0.7h-1.7C27.2,0.3,27.2,0.5,27.4,0.7z"/>
	<path d="M23.4,0.7c0.3,0.3,0.9,0.3,1.2,0c0.2-0.2,0.3-0.4,0.2-0.7h-1.7C23.2,0.3,23.2,0.5,23.4,0.7z"/>
	<path d="M19.4,0.7c0.3,0.3,0.9,0.3,1.2,0c0.2-0.2,0.3-0.4,0.2-0.7h-1.7C19.2,0.3,19.2,0.5,19.4,0.7z"/>
	<path d="M15.4,0.7c0.3,0.3,0.9,0.3,1.2,0c0.2-0.2,0.3-0.4,0.2-0.7h-1.7C15.2,0.3,15.2,0.5,15.4,0.7z"/>
	<path d="M11.4,0.7c0.3,0.3,0.9,0.3,1.2,0c0.2-0.2,0.3-0.4,0.2-0.7h-1.7C11.2,0.3,11.2,0.5,11.4,0.7z"/>
	<path d="M7.4,0.7C7.7,1,8.3,1,8.6,0.7C8.8,0.5,8.9,0.3,8.9,0H7.2C7.2,0.3,7.2,0.5,7.4,0.7z"/>
	<path d="M3.4,0.7C3.7,1,4.3,1,4.6,0.7C4.8,0.5,4.9,0.3,4.9,0H3.2C3.2,0.3,3.2,0.5,3.4,0.7z"/>
	<path d="M0.9,0H0.1v0.9c0.2,0,0.4-0.1,0.5-0.2C0.8,0.5,0.9,0.3,0.9,0z"/>
</g>
</svg>
