<svg
  viewBox="0 0 1024.000000 721.000000"
  preserveAspectRatio="xMidYMid meet"
  >
    <g
      transform="translate(0.000000,721.000000) scale(0.100000,-0.100000)"
      fill="#000000"
      stroke="none"
    >
      <path
        d="M3795 7200 c-49 -5 -182 -9 -295 -10 -113 -1 -281 -6 -375 -10 -93
  -4 -285 -13 -425 -19 -140 -6 -280 -14 -310 -16 -30 -3 -163 -12 -295 -20
  -132 -8 -260 -18 -285 -24 -25 -5 -92 -13 -150 -16 -58 -3 -114 -10 -125 -14
  -11 -5 -74 -16 -140 -24 -179 -22 -324 -57 -395 -94 -14 -7 -29 -13 -33 -13
  -30 0 -223 -115 -302 -179 -69 -57 -215 -214 -260 -282 -69 -103 -155 -277
  -155 -313 0 -8 -4 -17 -9 -20 -5 -4 -15 -39 -22 -79 -7 -39 -15 -76 -19 -82
  -4 -5 -10 -32 -14 -60 -4 -27 -11 -61 -16 -75 -9 -23 -24 -124 -50 -330 -5
  -41 -15 -113 -21 -160 -14 -106 -36 -378 -49 -620 -6 -102 -15 -228 -20 -280
  -13 -125 -13 -1575 0 -1700 5 -52 14 -178 20 -280 13 -242 35 -514 49 -620 6
  -47 16 -119 21 -160 26 -206 41 -307 50 -330 5 -14 12 -47 16 -75 4 -27 10
  -54 14 -60 4 -5 12 -43 19 -82 7 -40 17 -75 22 -79 5 -3 9 -12 9 -20 0 -36 86
  -210 155 -313 45 -68 191 -225 260 -282 86 -70 246 -164 315 -184 14 -4 30
  -11 35 -15 35 -25 211 -66 380 -87 66 -8 129 -19 140 -24 11 -4 67 -11 125
  -14 58 -3 125 -11 150 -16 25 -6 153 -16 285 -24 132 -8 256 -16 275 -19 19
  -2 130 -7 245 -11 116 -3 255 -10 310 -15 479 -47 3911 -47 4390 0 55 5 195
  12 310 15 116 4 226 9 245 11 19 3 143 11 275 19 132 8 260 18 285 24 25 5 92
  13 150 16 58 3 114 10 125 14 11 5 74 16 140 24 169 21 345 62 380 87 6 4 21
  11 35 15 69 20 229 114 315 184 69 57 215 214 260 282 69 103 155 277 155 313
  0 8 4 17 9 20 5 4 15 39 22 79 7 39 15 77 19 82 4 6 10 33 14 60 4 28 11 61
  16 75 9 23 24 124 50 330 5 41 15 113 21 160 14 106 36 378 49 620 6 102 15
  228 20 280 13 125 13 1575 0 1700 -5 52 -14 178 -20 280 -13 242 -35 514 -49
  620 -6 47 -16 119 -21 160 -26 206 -41 307 -50 330 -5 14 -12 48 -16 75 -4 28
  -10 55 -14 60 -4 6 -12 43 -19 82 -7 40 -17 75 -22 79 -5 3 -9 12 -9 20 0 36
  -86 210 -155 313 -45 68 -191 225 -260 282 -79 64 -272 179 -302 179 -4 0 -19
  6 -33 13 -71 37 -216 72 -395 94 -66 8 -129 19 -140 24 -11 4 -67 11 -125 14
  -58 3 -125 11 -150 16 -25 6 -153 16 -285 24 -132 8 -256 16 -275 19 -19 2
  -129 7 -245 11 -115 3 -257 10 -315 16 -225 21 -968 33 -2170 34 -690 1 -1295
  -1 -1345 -5z m920 -2432 c237 -135 635 -361 885 -503 250 -142 559 -318 685
  -390 127 -73 281 -160 343 -194 61 -35 112 -66 112 -71 0 -5 -51 -36 -112 -71
  -62 -34 -216 -121 -343 -194 -126 -72 -435 -248 -685 -390 -469 -267 -1237
  -703 -1417 -806 l-103 -58 0 1519 0 1519 103 -58 c56 -33 296 -169 532 -303z"
    />
  </g>
</svg>